<svg version="1.1" id="svg2" xmlns="http://www.w3.org/2000/svg" x="0" y="0" viewBox="0 0 664.8 452.8" xml:space="preserve"> <style>.st1{fill:none}.st2{fill:#fff}.st3{fill:none;stroke:#000}.st4{enable-background:new}.st5{font-family:&apos;ArialMT&apos;}.st6{font-size:12.0534px}.st7{fill:#fff;stroke:#000}.st10{font-size:12px}.st14{font-size:12.8402px}.st18,.st19{fill:none;stroke:#000}.st18{stroke-linecap:round;stroke-linejoin:round}.st19{stroke-dasharray:2,2}.st20{fill:#fff;stroke:#000;stroke-linecap:round;stroke-linejoin:round}</style> 

<g id="Request4"> <path fill="#08c" d="M.1 334.4h664.7v118.3H.1z"/> <path class="st1" d="M209.4 374.3h244.3"/> <path class="st2" d="M459.7 374.3c-2.8 1.1-6.4 2.9-8.6 4.8l1.7-4.8-1.7-4.8c2.3 1.9 5.8 3.7 8.6 4.8z"/> <path class="st3" d="M209.4 356.6l244.3 17.7"/> <path d="M459.7 374.3c-2.8 1.1-6.4 2.9-8.6 4.8l1.7-4.8-1.7-4.8c2.3 1.9 5.8 3.7 8.6 4.8z"/> <path class="st3" d="M459.7 383.3L216.4 404"/> <path d="M210.4 404c2.8-1.1 6.4-2.9 8.6-4.8l-1.7 4.8 1.7 4.8c-2.2-1.9-5.8-3.7-8.6-4.8z"/> <text transform="matrix(.9968 0 0 1 473.308 373.481)" class="st4"> <tspan x="0" y="0" class="st5 st6">start_session: ich erkenne</tspan> <tspan x="0" y="14.5" class="st5 st6">das cookie, finde das</tspan> <tspan x="0" y="28.9" class="st5 st6">Session-Array, lese Username </tspan> <tspan x="0" y="43.4" class="st5 st6">„eins“ heraus</tspan> </text> 
  <g> <circle class="st7" cx="419.3" cy="391.4" r="6.8"/> <text transform="matrix(.9968 0 0 1 416.058 394.95)" class="st5 st6">1</text> </g> <text transform="matrix(.993 .08722 -.08694 .9962 292.67 353.441)" class="st5" font-size="12.053">GET index.php</text> <text transform="matrix(.9941 -.07412 .07388 .9973 247.352 396.464)" class="st5" font-size="12.053">&lt;h2&gt;Hallo eins&lt;/h2&gt;</text> </g> 
<text transform="translate(134.16 344.732)" class="st5 st10">automatisch</text> 

<g id="Request3"> <path fill="#00f4ff" d="M1.1 227.4h663.8V335H1.1z"/> <path class="st1" d="M209.6 276.5h244"/> <path class="st2" d="M459.6 276.5c-2.8 1.1-6.4 2.9-8.5 4.8l1.7-4.8-1.7-4.8c2.2 2 5.7 3.8 8.5 4.8z"/> <path class="st3" d="M209.6 258.9l244 17.6"/> <path d="M459.6 276.5c-2.8 1.1-6.4 2.9-8.5 4.8l1.7-4.8-1.7-4.8c2.2 2 5.7 3.8 8.5 4.8z"/> <circle class="st7" cx="421.2" cy="275.5" r="6.8"/> <text transform="translate(417.933 279.129)" class="st5 st10">1</text> <text transform="rotate(5.003 -2811.184 3417.007) scale(1.00001)" class="st5 st10">POST login.php ...</text> <path class="st1" d="M72.3 261.4h125.3"/> <path class="st2" d="M200.7 261.4c-1.5 1.2-3.3 3.2-4.4 5.3l.9-5.3-.9-5.3c1.1 2.1 2.9 4.1 4.4 5.3z"/> <g> <path class="st3" d="M72.3 241.9l125.3 19.5"/> <path d="M200.7 261.4c-1.5 1.2-3.3 3.2-4.4 5.3l.9-5.3-.9-5.3c1.1 2.1 2.9 4.1 4.4 5.3z"/> </g> <text transform="rotate(8.622 -1531.225 709.876)" class="st5 st10">Eintippen + Klick</text> <text transform="translate(473.698 267.607)" class="st4"> <tspan x="0" y="0" class="st5 st10">start_session: ich erkenne</tspan> <tspan x="0" y="14.4" class="st5 st10">das Cookie, finde ein</tspan> <tspan x="0" y="28.8" class="st5 st10">leeres Session-Array.</tspan> <tspan x="0" y="43.2" class="st5 st10">Ich schreibe den usernamen</tspan> <tspan x="0" y="57.6" class="st5 st10">„eins“ ins Session-Array.</tspan> </text> <g> <path class="st1" d="M460.4 329.5h-243"/>  <g> <path class="st3" d="M458.5 305l-243 20.6"/> <path d="M209.5 325.6c2.8-1.1 6.4-2.9 8.5-4.8l-1.7 4.8 1.7 4.8c-2.1-1.9-5.7-3.7-8.5-4.8z"/> </g> </g> <text transform="rotate(-4.25 4421.275 -3818.1) scale(.99995)" class="st5 st10">Location: index.php</text> </g> 

<g id="Request2"> <path fill="#56ff48" d="M1.1 138.4h663.8v88.8H1.1z"/> <path class="st1" d="M71.4 171h125.3"/> <path class="st2" d="M199.8 171c-1.5 1.2-3.3 3.4-4.4 5.6l.9-5.6-.9-5.6c1.1 2.2 3 4.3 4.4 5.6z"/> <path class="st3" d="M71.4 150.2L196.7 171"/> <path d="M199.8 171c-1.5 1.2-3.3 3.4-4.4 5.6l.9-5.6-.9-5.6c1.1 2.2 3 4.3 4.4 5.6z"/> <text transform="matrix(.9253 .1502 -.1404 .9901 88.303 148.874)" class="st5" font-size="12.822">Klick auf „Login“</text> <path class="st1" d="M211.2 191.7h244"/> <path class="st2" d="M461.2 191.7c-2.8 1.1-6.4 3.1-8.5 5.1l1.7-5.1-1.7-5.1c2.1 2 5.7 3.9 8.5 5.1z"/> <path class="st3" d="M211.1 172.8l244.1 18.9"/> <path d="M461.2 191.7c-2.8 1.1-6.4 3.1-8.5 5.1l1.7-5.1-1.7-5.1c2.1 2 5.7 3.9 8.5 5.1z"/> <g> <path class="st1" d="M460.2 224.5h-243"/>  <g> <path class="st3" d="M458.4 198.3l-243 22"/> <path d="M209.3 220.3c2.8-1.1 6.4-3.1 8.5-5.1l-1.7 5.1 1.7 5.1c-2.1-2-5.6-3.9-8.5-5.1z"/> </g> </g> <g> <ellipse class="st7" cx="416" cy="187.9" rx="6.8" ry="7.2"/> <text transform="matrix(.9346 0 0 1 412.823 191.76)" class="st5 st14">1</text> </g> <text transform="matrix(.9315 .08726 -.08155 .9967 282.03 169.069)" class="st5" font-size="12.834">GET login.php</text> <text transform="matrix(.9346 0 0 1 475.65 181.595)" class="st4"> <tspan x="0" y="0" class="st5 st14">start_session: ich erkenne</tspan> <tspan x="0" y="15.4" class="st5 st14">das Cookie, finde ein</tspan> <tspan x="0" y="30.8" class="st5 st14">leeres Session-Array</tspan> </text> <text transform="matrix(.9323 -.07415 .0693 .9976 294.992 211.352)" class="st5" font-size="12.836">&lt;form&gt;</text> </g> 

<g id="Request1"> <path fill="#fffe2e" d="M.5 48.8h663.8v89.5H.5z"/> <path class="st1" d="M208.6 81.5h244"/> <path class="st2" d="M458.6 81.5c-2.8 1.1-6.4 2.9-8.5 4.8l1.7-4.8-1.7-4.8c2.2 2 5.7 3.8 8.5 4.8z"/> <path class="st3" d="M208.6 63.9l244 17.6"/> <path d="M458.6 81.5c-2.8 1.1-6.4 2.9-8.5 4.8l1.7-4.8-1.7-4.8c2.2 2 5.7 3.8 8.5 4.8z"/> <path class="st3" d="M458.6 90.5l-243 20.6"/> <path d="M209.6 111.1c2.8-1.1 6.4-2.9 8.5-4.8l-1.7 4.8 1.7 4.8c-2.2-1.9-5.7-3.7-8.5-4.8z"/> <text transform="translate(472.181 80.727)" class="st4"> <tspan x="0" y="0" class="st5 st10">start_session: ich habe</tspan> <tspan x="0" y="14.4" class="st5 st10">noch kein Cookie, erfinde eines, </tspan> <tspan x="0" y="28.8" class="st5 st10">lege ein leeres Session-Array an.</tspan> </text> <circle class="st7" cx="418.2" cy="98.5" r="6.8"/> <text transform="translate(415 102.101)" class="st5 st10">1</text> <text transform="translate(130.888 104.566)" class="st5 st10">Cookie wird</text> <text transform="translate(130.888 118.966)" class="st5 st10">im browser</text> <text transform="translate(130.888 133.366)" class="st5 st10">gespeichert</text> <text transform="rotate(5.003 -549.671 3369.392) scale(1.00001)" class="st5 st10">GET index.php</text> <text transform="rotate(-4.25 1526.773 -3212.51) scale(.99995)" class="st5 st10">&lt;a href=“login.php“&gt;Login&lt;/a&gt;</text> </g> 

<g id="SpalteWebserver"> <path id="rect4110" class="st18" d="M423 10h78.8s.1 0 .1.1v28.5s0 .1-.1.1H423c-.1 0-.1 0-.1-.1L423 10c-.1.1-.1 0 0 0z"/> <path id="path4124_4_" class="st19" d="M462.5 37.7l-.5 414.2"/> <path id="rect10380_2_" class="st20" d="M459.2 47.8h6.4s.1.3.1.7V436c0 .4 0 .7-.1.7h-6.4c-.1 0-.1-.3-.1-.7V48.5c0-.4.1-.7.1-.7z"/> <text transform="matrix(1.0072 0 0 1 432.944 27.003)" class="st5" font-size="11.914">Webserver</text> </g> 

<g id="SpalteWebbrowser"> <path id="rect2160" class="st18" d="M166.3 10.1h78.8s.1 0 .1.1v28.7s0 .1-.1.1h-78.8c-.1 0-.1 0-.1-.1l.1-28.8c-.1 0-.1 0 0 0z"/> <text transform="matrix(.8914 0 0 1 173.091 30.22)" class="st5" font-size="13.462">Webbrowser</text> <path id="path4124" class="st19" d="M205.7 42.6l.2 410.3"/> <path id="rect10380_1_" class="st20" d="M202.2 47.3h6.4s.1.3.1.7v394c0 .4 0 .7-.1.7h-6.4c-.1 0-.1-.3-.1-.7V48c0-.4.1-.7.1-.7z"/> </g> <circle class="st7" cx="204.5" cy="126.5" r="6.8"/> <text transform="translate(201.252 130.036)" class="st5 st10">1</text> 

<g id="SpalteMensch"> <path id="rect2160_1_" class="st18" d="M28.2 9.9H107s.1 0 .1.1v28.8s0 .1-.1.1H28.2c-.1 0-.1 0-.1-.1l.1-28.9c-.1 0 0 0 0 0z"/> <text transform="translate(45.062 26.858)" class="st5 st10">Mensch</text> <path id="rect10380_3_" class="st20" d="M64.2 38.7h6.4s.1.3.1.7v411.3c0 .4 0 .7-.1.7h-6.4c-.1 0-.1-.3-.1-.7V39.4c0-.4 0-.7.1-.7z"/> </g>

</svg>