<svg id="Ebene_1" data-name="Ebene 1" xmlns="http://www.w3.org/2000/svg" viewBox="0 0 917.16 662.92"><defs><style>.cls-1{fill:#fc7f3a}.cls-2{fill:#fff}.cls-3{fill:#ffc41f}.cls-4{fill:#389b48}.cls-5{fill:#ea2f2f}.cls-6{fill:#fc7272}.cls-7{fill:#458dc9}</style></defs><path class="cls-1" d="m277.81 389 105.93 68.3c22.72 11.52 51 4.53 66.67-15.21l15.13-8.75L485.06 392c-7.17-6.19-13.05-22.83-24.17-29-6.07-3.39-27.52 15.58-33.18 13.13L414.64 400l-3.71 6.77-88.71-43.42c-10.1-4.95-21.82-12.41-25-23l-.57-1.92a37.52 37.52 0 0 0-15.8-20.8 73.22 73.22 0 0 1-11.14-8.86l-10.66-10.2a5.51 5.51 0 0 0-6.26-.06l-2.74 1.88c-4.58 3.12-2.43 7 .79 11.46l4.43 8.64c2.47 4.81-1.19 14.43-10.55 11.24l-14.81.46-8.36-12.24-4.65 5.44-2.33 3.18c-2.27 4.22-1.87 8-1 12.69l3.43 19.37a22 22 0 0 0 18.73 17.77l21.74 3a50.52 50.52 0 0 1 20.34 7.6Z" transform="translate(-64.81 -64.81)"/><path d="m276.89 390.56 8.54 5.5 21.11 13.61 27 17.39 26.08 16.81L378 455.73l4.31 2.78c3.58 2.31 8.09 3.67 12.2 4.65a57.13 57.13 0 0 0 54-16.09c.68-.71 1.34-1.44 2-2.18.3-.36.84-1.18.95-1.28a8.31 8.31 0 0 1 1.45-.84l12.32-7.13a4.68 4.68 0 0 0 2.06-1.63c.47-.86.85-1.79 1.27-2.68l5.59-11.81 11.82-25 .74-1.56a1.87 1.87 0 0 0-.29-2.21c-4.23-3.71-7-9-10-13.68-3.52-5.39-7.38-10.84-12.76-14.54a7.49 7.49 0 0 0-5.37-1.68 20.19 20.19 0 0 0-5.91 1.88c-4.61 2.1-8.9 4.87-13.27 7.39a62.37 62.37 0 0 1-6.71 3.51 15.75 15.75 0 0 1-2.68.85c-.43.09.1 0-.31 0h-.67a2.47 2.47 0 0 1-.46-.15 1.84 1.84 0 0 0-2.06.84l-13.06 23.82-3.72 6.77 2.5-.65-9-4.43-21.63-10.58-25.98-12.6-22.12-10.83-10-4.91a70 70 0 0 1-16-10.17 30.13 30.13 0 0 1-6.63-8 45 45 0 0 1-2.66-7.23 39.42 39.42 0 0 0-13-18.07c-3.35-2.61-7-4.75-10.24-7.51-1.67-1.42-3.26-2.92-4.83-4.42l-9-8.57a7.21 7.21 0 0 0-7-1.74 17.87 17.87 0 0 0-5.76 3.59c-2.79 2.37-2.91 5.74-1.45 8.89 1 2.07 2.44 3.85 3.49 5.88l3 5.92a7.18 7.18 0 0 1 1.05 4 7 7 0 0 1-2.5 5.13 5.46 5.46 0 0 1-2.92 1.1c-1.45.11-2.67-.52-4.07-.62s-2.76.09-4.1.13l-7 .22-3.64.11 1.58.9-8.41-12.3a1.84 1.84 0 0 0-2.86-.37c-1.69 2-3.5 3.89-5 6a22.1 22.1 0 0 0-2.83 4.31 18 18 0 0 0-1.11 9.51c.79 6.46 2.19 12.89 3.32 19.3a36.51 36.51 0 0 0 2.32 8.83A23.61 23.61 0 0 0 228.21 378a31.37 31.37 0 0 0 9.35 2.46l10.5 1.47 8.79 1.22a50.22 50.22 0 0 1 20 7.39c2 1.26 3.82-1.89 1.84-3.15A52.46 52.46 0 0 0 259.8 380c-2.29-.4-4.61-.68-6.91-1-5.7-.79-11.43-1.49-17.11-2.39a20.83 20.83 0 0 1-13.13-7.61 21.66 21.66 0 0 1-4.14-10q-1.59-9-3.16-17.93a26.72 26.72 0 0 1-.6-7 12.69 12.69 0 0 1 2.87-6.62c.25-.33.5-.66.73-1s-.41.46 0 .06c.52-.57 1-1.18 1.5-1.77l3-3.52-2.86-.37 6.64 9.71c.78 1.15 1.76 3.32 3.31 3.44s3-.1 4.49-.14l7.47-.24c.79 0 1.6-.09 2.39-.07a3.09 3.09 0 0 1 .43 0c-.29 0 .62.25.63.25a11.13 11.13 0 0 0 1.53.27c6 .78 10.7-3.91 11-9.78a10.66 10.66 0 0 0-1.38-5.5l-3.2-6.24c-1.11-2.15-2.8-4-3.65-6.28a3.18 3.18 0 0 1 .73-3.81 22.43 22.43 0 0 1 2.64-1.87c1.76-1.21 3.76-1.73 5.36-.2l4.66 4.46a153.08 153.08 0 0 0 11.56 10.5c3.43 2.69 7.27 4.81 10.47 7.79a36 36 0 0 1 7.28 9.45 47.83 47.83 0 0 1 3.22 8.41 27.48 27.48 0 0 0 5.58 9.65c6.07 7 14.43 11.43 22.63 15.44l18 8.82 27.08 13.25 25.93 12.7 14.52 7.14.7.35a1.85 1.85 0 0 0 2.49-.66l14.2-25.89 2.58-4.7-2.06.84c3.24 1.3 7.61-1.35 10.35-2.81 4.44-2.36 8.66-5.1 13.09-7.48a35.88 35.88 0 0 1 5.74-2.65c.43-.14.85-.26 1.28-.36a4.76 4.76 0 0 1 .86-.16 5.91 5.91 0 0 1 1 0c-.51-.05.78.31.29.08a23.2 23.2 0 0 1 6.78 5.58 63 63 0 0 1 5.73 7.57c3.52 5.27 6.58 11.42 11.4 15.65l-.28-2.21-9.07 19.17-6.56 13.88-2.46 5.19a30.4 30.4 0 0 0-1.3 2.77c-.25.71.32-.31.45-.34a6.48 6.48 0 0 0-1.44.83l-6.17 3.57-6.08 3.52c-.44.25-.92.48-1.33.76-1.25.88-2.2 2.48-3.24 3.6a54 54 0 0 1-41.4 16.9 46 46 0 0 1-22.9-7l-15.93-10.28-24.83-16-27.12-17.48-22.77-14.68-12-7.77-.56-.36c-1.99-1.29-3.82 1.86-1.86 3.13Z" transform="translate(-64.81 -64.81)"/><path class="cls-2" d="M269.2 497.31h204.96v163.73H269.2z"/><path d="M539 724H342.36c-2.64 0-5.36-.19-8 0H334l1.82 1.82V568.74c0-2.08.18-4.26 0-6.34a2.62 2.62 0 0 1 0-.28l-1.82 1.82h196.63c2.64 0 5.36.19 8 0h.37l-1.82-1.82v143.66c0 6.59-.2 13.21 0 19.8v.27a1.83 1.83 0 0 0 3.65 0V582.19c0-6.58.2-13.21 0-19.79a2.62 2.62 0 0 1 0-.28 1.86 1.86 0 0 0-1.83-1.82H342.36c-2.66 0-5.33-.07-8 0H334a1.85 1.85 0 0 0-1.83 1.82v143.66c0 6.59-.2 13.21 0 19.8a2.43 2.43 0 0 1 0 .27 1.85 1.85 0 0 0 1.83 1.82h196.63c2.66 0 5.33.07 8 0h.37a1.82 1.82 0 0 0 0-3.67Z" transform="translate(-64.81 -64.81)"/><path class="cls-2" d="M268.49 515.41c0-23.77 20.22-43.31 44.58-43.09 23.25.22 42.2 18 43.63 40.37h.09v200.42a12.89 12.89 0 0 1-13.05 12.74h-22.23a12.89 12.89 0 0 1-13.05-12.74V558.3c-22.46-2.06-39.97-20.47-39.97-42.89Z" transform="translate(-64.81 -64.81)"/><path d="M270.31 515.41c.07-16.9 11.09-32.29 26.79-38.35a43.3 43.3 0 0 1 46.7 10.42 40.89 40.89 0 0 1 11.08 25.21 1.85 1.85 0 0 0 1.82 1.82h.09l-1.79-1.82v199.67a11.94 11.94 0 0 1-1 5.24 11.25 11.25 0 0 1-6.6 5.85 15 15 0 0 1-4.71.58c-7.05 0-14.11.08-21.16 0a11.2 11.2 0 0 1-11.23-10.92V558.3a1.87 1.87 0 0 0-1.82-1.82c-16-1.53-30.48-12.31-35.84-27.59a41 41 0 0 1-2.31-13.48c0-2.35-3.66-2.35-3.65 0a45.28 45.28 0 0 0 27 40.91 48.08 48.08 0 0 0 14.77 3.8l-1.83-1.82v148.92c0 2.87-.25 5.95.3 8.78 1.33 6.86 7.74 11.6 14.58 11.67h21.29c5.29 0 10.12-2 13.26-6.38 2.52-3.54 2.57-7.43 2.57-11.5v-197.1a1.85 1.85 0 0 0-1.82-1.83h-.09l1.82 1.83a45.61 45.61 0 0 0-31.71-40A46.89 46.89 0 0 0 277 487.26a44.61 44.61 0 0 0-10.29 28.15c-.06 2.34 3.59 2.35 3.6 0Z" transform="translate(-64.81 -64.81)"/><path class="cls-2" d="M229.7 499.12h28.81"/><path d="M294.51 565.76h28.82a1.83 1.83 0 0 0 0-3.65h-28.82a1.83 1.83 0 0 0 0 3.65Z" transform="translate(-64.81 -64.81)"/><path class="cls-2" d="M530.55 725.85h182.28a20.16 20.16 0 0 0 20.41-19.91V512.69H565" transform="translate(-64.81 -64.81)"/><path d="M530.55 727.67h182.28a22.59 22.59 0 0 0 16.84-7.55 21.76 21.76 0 0 0 5.39-14.24V512.69a1.85 1.85 0 0 0-1.82-1.83h-147.6c-6.77 0-13.59-.21-20.36 0H565a1.83 1.83 0 0 0 0 3.65h161.36c2.17 0 4.44.19 6.6 0h.28l-1.82-1.82V705.83A18.54 18.54 0 0 1 712.8 724H530.55a1.82 1.82 0 0 0 0 3.64Z" transform="translate(-64.81 -64.81)"/><path class="cls-2" d="M685.94 558.49H565.46l-61.34-183.32v-66c0-20.62 17.13-37.34 38.25-37.34h165.16c21.13 0 38.26 16.72 38.26 37.34v190.91c0 32.26-26.79 58.41-59.85 58.41Z" transform="translate(-64.81 -64.81)"/><path d="M685.94 556.67H570.41a35.7 35.7 0 0 0-4.74 0h-.21l1.76 1.34-5.35-16-13-38.86-16.31-48.75-15.34-45.83-9.83-29.36-1.1-3.3a5.82 5.82 0 0 0-.41-1.24c.38.57 0 .61.06.35a2.44 2.44 0 0 0 0-.54v-57.72c0-4.8-.29-9.75.68-14.47a36.12 36.12 0 0 1 21-25.59c8.57-3.73 17.87-3 27-3h149.03a68.41 68.41 0 0 1 8.71.3A35.7 35.7 0 0 1 744 310.42v188.94A56 56 0 0 1 718.4 547a59.48 59.48 0 0 1-32.46 9.67 1.83 1.83 0 0 0 0 3.65c24.19-.08 47.14-14.35 56.79-36.75a60.34 60.34 0 0 0 4.88-24V310.22a39.29 39.29 0 0 0-32.42-39.47 60.46 60.46 0 0 0-11.08-.72H544a44.53 44.53 0 0 0-17.91 3.37 39.72 39.72 0 0 0-22.43 25.5c-1.52 5.47-1.4 11-1.4 16.57v56.17c0 1.16-.09 2.37 0 3.52a21.16 21.16 0 0 0 1.41 4.5l3.9 11.65 13.11 39.19 16.49 49.28 15.42 46.05 9.78 29.17 1.34 4a1.87 1.87 0 0 0 1.75 1.34h105.61c4.87 0 9.8.21 14.67 0a1.33 1.33 0 0 1 .2 0 1.83 1.83 0 0 0 0-3.67Z" transform="translate(-64.81 -64.81)"/><path class="cls-2" d="M849 498.23s14.41-48.38 37.25-44.3a15.43 15.43 0 0 1 12.52 17.52c-4.71 30.91-49.77 26.78-49.77 26.78Z" transform="translate(-64.81 -64.81)"/><path d="M849.92 498.47a120.79 120.79 0 0 1 7.42-18.6 80.36 80.36 0 0 1 8.79-14.41c3.12-3.95 6.94-7.8 11.69-9.71a14.74 14.74 0 0 1 16.53 3.65c5.07 5.61 4.24 13.54 1.1 19.89-4.83 9.79-15.29 14.59-25.49 16.69a86 86 0 0 1-20.57 1.36h-.35c-1.17-.1-1.16 1.72 0 1.83a74.9 74.9 0 0 0 18.85-.92c10.6-1.77 21.74-6.13 27.76-15.57 3.55-5.56 5.63-13.15 3.12-19.49a16.46 16.46 0 0 0-16.85-10.3c-11.13 1.19-18.71 12.41-23.67 21.33a125.84 125.84 0 0 0-6.86 14.7c-1.12 2.83-2.24 5.72-3.09 8.66 0 .14-.09.29-.14.43a.91.91 0 0 0 1.76.46Z" transform="translate(-64.81 -64.81)"/><path class="cls-2" d="M850.66 425.17s14.32-48.4 37.17-44.36a15.43 15.43 0 0 1 12.55 17.5c-4.69 30.92-49.72 26.86-49.72 26.86Z" transform="translate(-64.81 -64.81)"/><path d="M851.54 425.41a120.88 120.88 0 0 1 7.39-18.62 80.88 80.88 0 0 1 8.74-14.39c3.1-3.95 6.9-7.79 11.62-9.73a14.75 14.75 0 0 1 16.49 3.47c5.19 5.61 4.42 13.6 1.26 20-4.82 9.79-15.26 14.61-25.47 16.73a85.88 85.88 0 0 1-20.56 1.4h-.35c-1.17-.11-1.16 1.72 0 1.82a74.81 74.81 0 0 0 18.84-.95c10.64-1.79 21.83-6.2 27.8-15.71 3.57-5.67 5.56-13.32 2.89-19.71a16.43 16.43 0 0 0-16.82-9.95c-11.08 1.26-18.61 12.45-23.54 21.36a115.1 115.1 0 0 0-9.92 23.37c0 .15-.09.29-.13.44a.91.91 0 0 0 1.76.47Z" transform="translate(-64.81 -64.81)"/><path class="cls-2" d="M852.15 357.75s-3-28.63 10.3-30.25c4.84-.59 11.51 2.43 12.27 7.13 2.88 17.78-22.57 23.12-22.57 23.12Z" transform="translate(-64.81 -64.81)"/><path d="M853.06 357.75a66.14 66.14 0 0 1-.14-11.08c.34-5.43 1.15-12.48 5.45-16.36 2.54-2.3 6.09-2.34 9.21-1.32a10.33 10.33 0 0 1 5.3 3.57A8.74 8.74 0 0 1 874 338c-.27 6.5-5.12 11.27-10.46 14.32a41 41 0 0 1-11.66 4.52c-1.15.24-.67 2 .48 1.75a43.14 43.14 0 0 0 11.14-4.16c5.79-3.09 11.2-8 12.16-14.79a15 15 0 0 0-.21-5.85 8.8 8.8 0 0 0-3.66-4.76c-3.24-2.27-8-3.37-11.76-1.9-6 2.35-7.83 9.88-8.59 15.6a64.79 64.79 0 0 0-.23 15c.15 1.17 1.97 1.18 1.85.02Z" transform="translate(-64.81 -64.81)"/><path class="cls-2" d="M825.65 452.5s-29.19-43.1-48.65-30.75a15.18 15.18 0 0 0-4.63 20.88c16.57 26.74 53.28 9.87 53.28 9.87Z" transform="translate(-64.81 -64.81)"/><path d="M826.44 452a128.82 128.82 0 0 0-12.63-15.61 87.37 87.37 0 0 0-12.48-11.22c-4.05-2.92-8.67-5.54-13.66-6.34a15.83 15.83 0 0 0-13.89 4.28 16.3 16.3 0 0 0-2.39 19.64 31.48 31.48 0 0 0 14.51 12.95 39.28 39.28 0 0 0 17 2.93 62.63 62.63 0 0 0 14.83-2.38 51.37 51.37 0 0 0 8.07-2.8l.36-.17c1.07-.48.14-2.06-.92-1.57-.56.26-.57.25-1.2.51-1.26.5-2.54 1-3.82 1.38a65.79 65.79 0 0 1-12.63 2.85c-11.25 1.34-23-.88-30.91-9.61-2.32-2.58-4.48-5.59-5.3-9a14.34 14.34 0 0 1 1.38-10.27 13.84 13.84 0 0 1 13-7.1c4.7.28 9.13 2.55 13 5.11a74.72 74.72 0 0 1 12.13 10.33 138 138 0 0 1 13.87 16.74l.21.31c.55.96 2.13.04 1.47-.96ZM858.55 342.19 846.88 368c-3.09 6.82-5.24 13.82-5.47 21.37V600c0 3.91-.06 7.83 0 11.74v.51a.91.91 0 0 0 1.82 0V391.34a49.34 49.34 0 0 1 3.37-18.18c1.51-3.85 3.37-7.59 5.08-11.36l7.14-15.8 1.31-2.88c.48-1.06-1.09-2-1.58-.92Z" transform="translate(-64.81 -64.81)"/><path class="cls-2" d="M833.9 380.9s-3-35.71-19.65-34.76c-6 .35-13.53 5.54-13.37 11.45.61 22.41 33.02 23.31 33.02 23.31Z" transform="translate(-64.81 -64.81)"/><path d="M834.81 380.9a83.75 83.75 0 0 0-2.81-15.31c-1.93-6.95-5.11-16-12.19-19.28-4.41-2-9.46-.93-13.45 1.58a14 14 0 0 0-5.66 6.2 12.62 12.62 0 0 0-.25 7.5c1.78 8.53 9 13.94 16.74 16.86a53.53 53.53 0 0 0 10.33 2.67 43.15 43.15 0 0 0 6.09.68h.31a.91.91 0 0 0 0-1.82 52.36 52.36 0 0 1-12.55-2.08c-7.09-2-14.46-5.77-17.8-12.72a18 18 0 0 1-1.66-6.07 8.69 8.69 0 0 1 2.37-7.2c3.23-3.48 8.76-5.91 13.49-4.46 3.22 1 5.63 3.64 7.39 6.4a41.81 41.81 0 0 1 4.6 10.55 87.52 87.52 0 0 1 3.22 16.2v.29c.11 1.17 1.93 1.18 1.83.01Z" transform="translate(-64.81 -64.81)"/><path d="M818.93 361.93c5.2 7.44 10.43 14.85 15.61 22.3a43.85 43.85 0 0 1 7.05 16.66c.23 1.15 2 .67 1.76-.48a44.72 44.72 0 0 0-6.49-16c-.89-1.35-1.83-2.65-2.76-4l-10.6-15.11-3-4.29c-.67-.95-2.25 0-1.57.92ZM843.21 452.5v-6.05a39.55 39.55 0 0 1 .37-7.54 21.65 21.65 0 0 1 6.3-11.48c.79-.74 1.64-1.43 2.47-2.12l22.43-18.63 7.4-6.14c.9-.75-.39-2-1.29-1.29l-18.81 15.62-10.57 8.78-1.75 1.46a23.62 23.62 0 0 0-7.15 10.37c-1.84 5.37-1.22 11.42-1.22 17a.91.91 0 0 0 1.82 0ZM790.13 435.74a9.25 9.25 0 0 0 1.83 1.12c1.33.72 2.67 1.4 4 2.07 4.11 2.08 8.26 4.09 12.41 6.1q7.43 3.6 14.87 7.16l6.83 3.25a43.76 43.76 0 0 1 6.37 3.23 11.69 11.69 0 0 1 4.91 8.92c.08 1.63 0 3.27 0 4.91a.91.91 0 0 0 1.82 0c0-4.36.15-8.54-2.59-12.24a16.07 16.07 0 0 0-6.46-4.89l-6.6-3.14c-9.59-4.58-19.18-9.15-28.69-13.88q-2.6-1.29-5.16-2.62c-.55-.29-1.1-.58-1.63-.89-.18-.1-.36-.2-.53-.31l-.13-.08c-.86-.8-2.16.49-1.29 1.29ZM873.36 473.9l-16.23 14.76-8.59 7.81c-3.77 3.43-6.47 7.55-7 12.74a58.89 58.89 0 0 0-.11 6.51v6.06a.91.91 0 0 0 1.82 0v-10.54c0-5.31 2.46-9.71 6.32-13.21l18.74-17 6.38-5.8c.87-.79-.42-2.08-1.29-1.29Z" transform="translate(-64.81 -64.81)"/><path class="cls-2" d="M835.48 559.89s-14.41-48.38-37.24-44.31a15.43 15.43 0 0 0-12.52 17.53c4.75 30.89 49.76 26.78 49.76 26.78Z" transform="translate(-64.81 -64.81)"/><path d="M836.36 559.64a123.29 123.29 0 0 0-8.14-20.1 76.14 76.14 0 0 0-9.46-14.83c-3.37-4-7.54-7.78-12.63-9.45a16.35 16.35 0 0 0-21.5 15.41 25.37 25.37 0 0 0 2.24 9.84c4.56 10.64 15.34 16.24 26.13 18.66a74.9 74.9 0 0 0 22.09 1.66h.39c1.16-.11 1.17-1.93 0-1.83a72.16 72.16 0 0 1-17.31-.69c-10-1.51-20.87-5.2-27-13.8-3.61-5.07-6-12.29-3.95-18.39a14.63 14.63 0 0 1 16.14-9.64c4.92.86 9 4 12.37 7.58a65.17 65.17 0 0 1 9.55 13.83 133.26 133.26 0 0 1 9.19 21.88 2.91 2.91 0 0 1 .12.39.91.91 0 0 0 1.77-.52Z" transform="translate(-64.81 -64.81)"/><path d="m809.87 536.85 15.79 14.35 8.75 7.95c.54.5 1.1 1 1.63 1.5a16.84 16.84 0 0 1 5.2 10.6c.37 4 .07 8.16.07 12.19a.92.92 0 0 0 1.83 0v-10.58a19.27 19.27 0 0 0-6.64-14.26l-18.79-17.09-6.55-6c-.86-.79-2.16.5-1.29 1.29Z" transform="translate(-64.81 -64.81)"/><path class="cls-1" d="m395.27 574.65-.03 46.42-57.4-14.05v-51.21"/><path d="M458.26 639.47v46.41l2.31-1.76-19.4-4.74-30.9-7.57-7.1-1.73 1.34 1.76v-51.21a1.83 1.83 0 0 0-3.65 0v51.21a1.85 1.85 0 0 0 1.34 1.75l19.39 4.75 30.91 7.56 7.1 1.74a1.84 1.84 0 0 0 2.3-1.76v-46.41a1.82 1.82 0 0 0-3.64 0Z" transform="translate(-64.81 -64.81)"/><path class="cls-3" d="m514.81 294.08-33.3-.33a20.81 20.81 0 0 0-18.9 11.46L424.18 383s31.14-5.89 55.77 15c2.32 7.65 34.86-103.92 34.86-103.92Z" transform="translate(-64.81 -64.81)"/><path d="M514.81 292.25 485.9 292h-4.27a23.42 23.42 0 0 0-11.27 2.77 23.77 23.77 0 0 0-10 10.86L449 328.6 432.5 362c-3.25 6.58-6.57 13.12-9.74 19.73l-.15.3a1.84 1.84 0 0 0 2.05 2.68c.31-.06.63-.1.94-.15s.35-.05.1 0l.6-.07c.54-.07 1.07-.12 1.61-.17a76.19 76.19 0 0 1 9.31-.25 70.89 70.89 0 0 1 28.1 6.59A64.55 64.55 0 0 1 473 395c1.25.83 2.48 1.7 3.67 2.61.13.11 1.67 1.31 1.65 1.34.18-.25-.48-1 .11.08a2.19 2.19 0 0 0 3.58.29 10.23 10.23 0 0 0 1.7-2.77c.8-1.67 1.49-3.39 2.17-5.11 4.38-11.14 8-22.61 11.58-34q6.38-20.07 12.38-40.24c2.23-7.41 4.65-14.81 6.62-22.3l.09-.33c.66-2.26-2.85-3.22-3.51-1q-2.67 9.17-5.42 18.3-5.81 19.46-11.86 38.84c-3.79 12.06-7.59 24.14-12 36-.73 2-1.48 3.92-2.28 5.85a1.88 1.88 0 0 1-.13.31l-.21.49-.49 1.08c-.25.53-.51 1.06-.8 1.57-.11.2-.23.38-.34.57s-.11.14-.15.21c-.16.3.35-.41.1-.12s-.37.22.08 0a1.8 1.8 0 0 1 1.11-.12 2.52 2.52 0 0 1 .69.39c.31.27.33.45.2.23.22.36.32.49-.06-.15a7.42 7.42 0 0 0-1.93-1.72 66.87 66.87 0 0 0-7.8-5.35 74.3 74.3 0 0 0-47.24-8.87l-.86.13 2.06 2.68 8-16.18L449.9 335l12.73-25.77a32.3 32.3 0 0 1 4-6.95 19.39 19.39 0 0 1 11.5-6.49 28.12 28.12 0 0 1 5.19-.23l30.61.3h.85c2.37.06 2.37-3.58.03-3.61ZM476.6 435.71l-13.07.31s-4.54 14.12 7.77 20.23c11.95 5.93 5.3-20.54 5.3-20.54Z" transform="translate(-64.81 -64.81)"/><path d="m476.6 433.89-13.07.31a1.89 1.89 0 0 0-1.76 1.34 21.51 21.51 0 0 0-.77 8.59 16.9 16.9 0 0 0 9.38 13.69c1.73.85 3.76 1.5 5.66.85a5.85 5.85 0 0 0 3.44-3.77c1.28-3.48.86-7.67.4-11.27a72.65 72.65 0 0 0-1.52-8.41c-.57-2.27-4.09-1.31-3.51 1 .47 1.91.84 3.86 1.15 5.8l.18 1.24c.07.45 0-.13.05.32l.09.73c.1.92.19 1.84.24 2.76s.08 1.81.06 2.71c0 .4 0 .79-.06 1.18 0 .2 0 .41-.05.61v.29c0 .24 0-.33 0 0a14.14 14.14 0 0 1-.54 2.13c-.14.43.15-.26-.05.11l-.22.41c-.06.11-.14.21-.21.32.3-.46 0 0-.13.11s-.45.31 0 0a1.63 1.63 0 0 0-.34.21c-.1.14.35-.06 0 0a3.2 3.2 0 0 0-.42.1c.52-.13.11 0-.08 0H473.86c-.18 0-.43-.11-.64-.18l-.48-.17-.18-.08-.39-.19a19 19 0 0 1-2.08-1.24 12.57 12.57 0 0 1-2.75-2.6 13.13 13.13 0 0 1-2.5-6 10.48 10.48 0 0 1-.17-1.41c0-.57-.05-1.14-.05-1.71s0-1 .07-1.48c0-.23 0-.45.07-.68v-.29c.06-.48-.06.4 0-.06a18.38 18.38 0 0 1 .57-2.65l-1.75 1.34 13.07-.32c2.29-.06 2.35-3.7-.05-3.64ZM571.9 420.43s22.46 4.22 25.05 16.86-30.23 15.59-30.23 15.59" transform="translate(-64.81 -64.81)"/><path d="M571.42 422.19a54.21 54.21 0 0 1 9.73 2.92c5 2 10.57 5 13.12 10a10.61 10.61 0 0 1 .68 1.72 6.37 6.37 0 0 1 .31 1.53v.68a1.84 1.84 0 0 1 0 .33c0-.35 0-.07 0 0-.05.24-.11.48-.18.71s-.28.73-.13.4a9.5 9.5 0 0 1-4 4.06c-4.33 2.64-9.45 4-14.41 5q-3.56.74-7.15 1.23h-.25l-.6.07-.91.11-.83.09c-2.32.21-2.34 3.85 0 3.64a93.37 93.37 0 0 0 9.44-1.4c5.42-1.06 11-2.49 15.83-5.22 4.46-2.5 8-6.61 6.54-12-1.7-6.27-7.54-10.42-13.12-13.06a54.46 54.46 0 0 0-13-4.34c-2.3-.44-3.28 3.07-1 3.51Z" transform="translate(-64.81 -64.81)"/><path class="cls-3" d="M493.89 293.75h60.17c8.6 0 25.84 4.34 29.53 16.65 0 0 4.18 71.66 13.36 125.8-57.51 14.35-139.77-.18-139.77-.18l31.14-110.36" transform="translate(-64.81 -64.81)"/><path d="M493.89 295.58h29.84c10.11 0 20.21-.06 30.32 0 7.56 0 16 2.39 22 7.16a18.63 18.63 0 0 1 4.19 4.58 14.36 14.36 0 0 1 1.35 2.72s.35.91.22.37a.34.34 0 0 1 0 .1 23.79 23.79 0 0 1 .19 3.05q1.45 22.71 3.58 45.36c2.15 23.2 4.71 46.38 8.29 69.41.44 2.79.89 5.57 1.36 8.36l1.27-2.25c-23.37 5.81-47.85 6.75-71.82 6.12a513.32 513.32 0 0 1-56.26-4.66c-3.58-.49-7.16-1-10.72-1.63l1.27 2.24 3.1-11 7.44-26.35 9-31.89 7.78-27.57c1.26-4.45 2.71-8.89 3.78-13.39a1.8 1.8 0 0 1 .05-.19c.64-2.26-2.88-3.22-3.51-1l-3.1 11-7.51 26.39-9 31.88-7.75 27.61c-1.25 4.45-2.71 8.89-3.78 13.39a1.33 1.33 0 0 1-.05.19 1.83 1.83 0 0 0 1.27 2.24c10.5 1.85 21.14 3.08 31.74 4.13 22.65 2.23 45.53 3.2 68.27 1.84a223.71 223.71 0 0 0 40.73-5.79 1.87 1.87 0 0 0 1.27-2.24c-4-23.41-6.66-47-8.93-70.66q-2.38-24.69-4-49.44c-.1-1.5-.19-3-.29-4.52a13.09 13.09 0 0 0-2.75-6.58c-5.22-7.24-14.5-10.87-23.07-12.12a75.34 75.34 0 0 0-11.14-.47h-54.6a1.83 1.83 0 0 0 0 3.65Z" transform="translate(-64.81 -64.81)"/><path class="cls-4" d="m423.37 668.93 7.67 6.18a15 15 0 0 0 19.14-.38h9.9l-.08 49.76H349.24s-1.88-30.68 39.46-33.92A14.56 14.56 0 0 0 402.24 676v-.39a8.91 8.91 0 0 1 9.24-8.88l6.39.17a9.13 9.13 0 0 1 5.5 2.03Z" transform="translate(-64.81 -64.81)"/><path d="M422.08 670.22c2.77 2.23 5.49 4.56 8.34 6.7a16.91 16.91 0 0 0 21.05-.9l-1.29.54h9.9l-1.82-1.83v16.78l-.05 26.78v6.2l1.82-1.82H353.77a39.27 39.27 0 0 0-4.34 0h-.19l1.83 1.82a16.34 16.34 0 0 1 0-1.85c0-.66.1-1.32.18-2 .05-.39-.06.46 0 .06 0-.11 0-.22.05-.33l.09-.57c.09-.49.18-1 .29-1.46a29 29 0 0 1 6.36-12.94c5.08-5.88 12.19-9.38 19.63-11.26a61.86 61.86 0 0 1 7.52-1.41c2.83-.35 5.68-.38 8.37-1.43a16.51 16.51 0 0 0 10-11.09c.72-2.74 0-5.75 1.54-8.25a7.29 7.29 0 0 1 6.42-3.38c3.65 0 7.9-.43 10.95 1.92a1.84 1.84 0 0 0 2.49-.66 1.87 1.87 0 0 0-.65-2.49c-3.47-2.67-7.82-2.29-11.94-2.4-4.9-.12-9.43 2.17-11.26 6.92-1 2.49-.42 5.16-1.15 7.7a12.76 12.76 0 0 1-4.15 6.29 13 13 0 0 1-6.73 2.84c-3 .36-6 .61-9 1.19-8.39 1.62-16.68 5-22.84 11.1a33 33 0 0 0-8.62 14.8 27.49 27.49 0 0 0-1.15 8.69 1.85 1.85 0 0 0 1.82 1.82h97.08c4.48 0 9 .18 13.48 0h.15a1.84 1.84 0 0 0 1.82-1.82v-16.77l.05-26.78v-6.21a1.85 1.85 0 0 0-1.82-1.82h-9.9c-1 .1-1.6.85-2.4 1.39a13.33 13.33 0 0 1-11.41 1.64c-2.46-.77-4.33-2.35-6.29-3.93l-5.42-4.36a1.87 1.87 0 0 0-2.58 0 1.82 1.82 0 0 0 .03 2.58Z" transform="translate(-64.81 -64.81)"/><path class="cls-5" d="M471 526.91c-1 42.51-4.63 124.1-4.63 124.1l-72.2.45L386.4 492c-1.12-29.21 22.84-53.49 52.79-53.49h166.43l4.55 23.27c6.41 32.75-19 63.21-53.14 63.76Z" transform="translate(-64.81 -64.81)"/><path d="M469.15 526.91c-.47 20.2-1.23 40.39-2 60.58q-1 26.49-2.17 53c-.15 3.52-.31 7-.46 10.56l1.82-1.82-24.44.15-38.9.24h-8.86l1.82 1.83-.27-5.58L395 631l-1-21.56-1.24-25.49-1.3-26.85-1.22-25.24-1-21.05-.69-14.16c-.13-2.69-.32-5.38-.24-8.07a49.1 49.1 0 0 1 13-31.67 51.72 51.72 0 0 1 30.69-16.1 77.09 77.09 0 0 1 10.74-.48h162.9l-1.78-1.33 3.23 16.51c.43 2.22.87 4.44 1.3 6.66a51.1 51.1 0 0 1 .81 13.58c-1.45 20-15.3 37.63-34 44.56a58.35 58.35 0 0 1-19.49 3.44l-12.11.19-42.8.68c-9.8.16-19.61.17-29.41.47H471c-2.34 0-2.35 3.68 0 3.64l25.4-.4 44.15-.71c10.1-.16 20.67.42 30.51-2.17 20-5.27 36.32-21.68 40.72-42 1.76-8.14 1.34-16.19-.25-24.3l-3.81-19.48-.32-1.62a1.84 1.84 0 0 0-1.75-1.34H439.53a56.31 56.31 0 0 0-27.53 7.03 54.17 54.17 0 0 0-23.35 26 52.9 52.9 0 0 0-4.05 23.12l.46 9.48.87 18 1.14 23.53 1.28 26.43 1.29 26.58 1.17 24.09.9 18.63.52 10.54.06 1.39a1.86 1.86 0 0 0 1.83 1.82l24.43-.15 38.91-.24 8.86-.06a1.85 1.85 0 0 0 1.82-1.82q.68-15.1 1.3-30.21 1.28-30.72 2.36-61.45c.37-10.81.72-21.62 1-32.44.05-2.41-3.6-2.41-3.65-.07Z" transform="translate(-64.81 -64.81)"/><path class="cls-2" d="M460 724.49H349.24a30.68 30.68 0 0 1 2.43-10.63l15.84-.48 7.52-2.77a29.79 29.79 0 0 1 18.6.08 29.7 29.7 0 0 0 16.29.73l6-1.43a29.73 29.73 0 0 1 12.21-.32l8.46 1.54a29.73 29.73 0 0 0 18.41-2.56l5.09-2.52Z" transform="translate(-64.81 -64.81)"/><path d="M460 722.67H353.77a39.27 39.27 0 0 0-4.34 0h-.19l1.83 1.82c0-3.44 1.13-7 2.36-10.14l-1.76 1.34 14.93-.46c1.95-.06 3.68-.93 5.5-1.6a35.07 35.07 0 0 1 11.34-2.63 28.16 28.16 0 0 1 8.84 1.18A39.54 39.54 0 0 0 401 714c4.36.29 8.51-.6 12.72-1.6 4.61-1.1 9.11-1.79 13.86-1 2.5.44 5 .9 7.48 1.36a33.42 33.42 0 0 0 16.29-.74 70.84 70.84 0 0 0 9.61-4.34l-2.74-1.58-.09 18.36a1.82 1.82 0 0 0 3.64 0l.09-18.36a1.84 1.84 0 0 0-2.74-1.57 77.59 77.59 0 0 1-7.49 3.55 28.55 28.55 0 0 1-14.93 1.29l-7.89-1.37a33.86 33.86 0 0 0-14 .42 57.81 57.81 0 0 1-10.15 2 27.91 27.91 0 0 1-9.27-1 47.33 47.33 0 0 0-8.41-1.87 31.19 31.19 0 0 0-13.7 1.84l-4.41 1.62c-.49.18-1 .34-1.47.54a1.88 1.88 0 0 0-.38.14c0-.13.67 0 .33-.05a20.63 20.63 0 0 0-3 .09l-5.25.17-7.43.22a1.91 1.91 0 0 0-1.76 1.34 30.86 30.86 0 0 0-2.49 11.11 1.85 1.85 0 0 0 1.82 1.82h97.08c4.48 0 9 .18 13.48 0h.2a1.82 1.82 0 0 0 0-3.72ZM397 688l.44.26.49.34.13.1c-.54-.39-.29-.23-.17-.13l.31.26q.34.3.66.63l.33.36.16.18a.86.86 0 0 0 .07.1c.16.18-.12-.16-.13-.18.22.32.45.63.65 1 .09.16.18.32.26.49l.12.25c.17.36-.14-.38 0 0a8.74 8.74 0 0 1 .41 1.41c0 .12.05.25.07.37s0-.23 0-.21v.22c0 .31 0 .61.05.92a1.82 1.82 0 0 0 3.64 0 11.13 11.13 0 0 0-5-9.11 6.65 6.65 0 0 0-.63-.39A1.82 1.82 0 0 0 397 688ZM389.66 691.8a4 4 0 0 1 .44.27 5.25 5.25 0 0 1 .49.33l.13.1c-.54-.39-.29-.23-.17-.13l.31.26q.34.3.66.63l.33.36c0 .06.11.12.16.19l.07.09c.16.18-.12-.16-.13-.18.22.33.45.64.65 1 .09.15.18.32.26.48l.12.25c.17.36-.14-.38 0 0a8.74 8.74 0 0 1 .41 1.41c0 .12.05.25.07.37s0-.23 0-.21V698.16a1.84 1.84 0 0 0 1.82 1.83 1.86 1.86 0 0 0 1.82-1.83 11.13 11.13 0 0 0-5-9.11 6.65 6.65 0 0 0-.63-.39 1.82 1.82 0 0 0-1.84 3.15ZM379.74 693.45l.45.26.48.34.13.09c-.54-.39-.29-.22-.17-.12l.31.26c.23.2.45.4.66.62l.33.37.16.18a.86.86 0 0 1 .07.1c.16.18-.12-.16-.13-.18.22.32.45.63.65 1 .09.16.18.32.26.49l.12.25c.17.36-.14-.38 0 0a8.45 8.45 0 0 1 .41 1.41c0 .12 0 .24.07.37s0-.23 0-.22a1.79 1.79 0 0 0 0 .23c0 .3 0 .61.05.92a1.82 1.82 0 0 0 3.64 0 11.11 11.11 0 0 0-5-9.11 5.09 5.09 0 0 0-.63-.39 1.82 1.82 0 0 0-1.84 3.15Z" transform="translate(-64.81 -64.81)"/><path class="cls-6" d="M466.94 653.48h-73.12a5.45 5.45 0 0 1-5.52-5.39v-11.45a5.45 5.45 0 0 1 5.52-5.38h73.12a5.45 5.45 0 0 1 5.51 5.38v11.45a5.45 5.45 0 0 1-5.51 5.39Z" transform="translate(-64.81 -64.81)"/><path d="M466.94 651.66h-60.11c-4.29 0-8.59.07-12.88 0a3.77 3.77 0 0 1-3.6-2.33c-.47-1.2-.23-2.84-.23-4.1V639c0-1.37-.23-3 .56-4.22 1.19-1.78 3.05-1.67 4.89-1.67h70.74a7.52 7.52 0 0 1 1.34.06c2.08.39 3 2.15 3 4.09v10.62a3.7 3.7 0 0 1-3.69 3.81c-2.34.07-2.35 3.71 0 3.64a7.42 7.42 0 0 0 7.18-5.72 24.38 24.38 0 0 0 .16-4.68v-6.52c0-1.91 0-3.77-1.06-5.47-1.72-2.74-4.57-3.48-7.57-3.48h-71.65a7.49 7.49 0 0 0-7.54 7.86c0 3.58-.08 7.17 0 10.74.1 4.38 3.61 7.26 7.82 7.27h72.64a1.82 1.82 0 0 0 0-3.67Z" transform="translate(-64.81 -64.81)"/><path class="cls-7" d="M410.49 454.6h-19.52"/><path d="M475.3 517.59h-19.52a1.83 1.83 0 0 0 0 3.65h19.52a1.83 1.83 0 0 0 0-3.65Z" transform="translate(-64.81 -64.81)"/><path d="M496.28 483.33h-34.7c-11.58.06-22.64 6.81-27.33 17.53-2 4.59-2.41 9.29-2.54 14.18l-.4 14.52-.6 22.16-.69 25.5-.67 24.55-.52 19.3c-.09 3.24-.24 6.5-.26 9.75v.44c-.07 2.34 3.58 2.34 3.64 0l.18-6.62.46-17 .63-23.21.69-25.42.63-23.37.47-17.13c.06-2.25.11-4.5.18-6.74a25.85 25.85 0 0 1 19.09-23.81 34 34 0 0 1 9-.93h32.71a1.83 1.83 0 0 0 0-3.65Z" transform="translate(-64.81 -64.81)"/><path class="cls-1" d="M216.67 325.45c5.32-7 14.22-17.38 24.93-24.76 11-7.33 15.32.73 6.59 10.19-5.6 6.08-12.85 14.25-18.05 21.22" transform="translate(-64.81 -64.81)"/><path d="M218.25 326.37a136.08 136.08 0 0 1 10.58-12.3c4.43-4.57 9.3-9.23 14.79-12.5 1.63-1 4-2.14 5.76-1.9a1.54 1.54 0 0 1 1.31.67c-.12-.15.21.48.18.4a2.24 2.24 0 0 1 .15 1.05c0 2-1.2 4-2.34 5.64a79.61 79.61 0 0 1-6.09 6.91c-4.87 5.44-9.64 11-14 16.84a1.85 1.85 0 0 0 .65 2.5 1.87 1.87 0 0 0 2.5-.66c4.27-5.71 9-11.11 13.73-16.42 3.71-4.12 9.16-8.76 9.21-14.81a5.57 5.57 0 0 0-2.59-5c-2-1.14-4.48-.86-6.54-.14a31.13 31.13 0 0 0-8.72 5.32 99.8 99.8 0 0 0-8.07 7 137.82 137.82 0 0 0-13.64 15.53 1.83 1.83 0 0 0 .65 2.49 1.87 1.87 0 0 0 2.5-.65Z" transform="translate(-64.81 -64.81)"/><path class="cls-1" d="M223.41 330.81a99.83 99.83 0 0 1 31.87.45c13.08 2.42 10.28 11.1-2.75 11.75-8.36.42-19.41 1.18-28.14 2.5" transform="translate(-64.81 -64.81)"/><path d="M223.89 332.57a99.61 99.61 0 0 1 16.55-1c3.21.08 6.41.33 9.6.72 3 .36 6.17.67 9 1.88a7.76 7.76 0 0 1 2.13 1.3 2.24 2.24 0 0 1 .87 1.4c-.08-.46-.08.64 0 .17a1.13 1.13 0 0 1-.2.61 4.06 4.06 0 0 1-1.27 1.33 13.58 13.58 0 0 1-6 2c-3 .41-6.15.39-9.2.59-7.16.46-14.31 1.08-21.41 2.15a1.83 1.83 0 0 0-1.27 2.24 1.87 1.87 0 0 0 2.24 1.27c7-1.06 14.17-1.62 21.28-2.07 5.46-.35 11.94.1 16.59-3.32a6.32 6.32 0 0 0 2.89-4.81 5.89 5.89 0 0 0-2.46-4.59 17.2 17.2 0 0 0-7.9-3.06 107.66 107.66 0 0 0-11-1.29 103.43 103.43 0 0 0-21.32.93 1.83 1.83 0 0 0-1.27 2.24 1.86 1.86 0 0 0 2.24 1.27Z" transform="translate(-64.81 -64.81)"/><path class="cls-1" d="M221.57 342.85c8.83-1.26 22.65-2.45 35.57-.25 13.08 2.42 10.28 11.1-2.75 11.75-7.65.39-17.55 1-25.87 2.18" transform="translate(-64.81 -64.81)"/><path d="M222.05 344.6a139.93 139.93 0 0 1 17.1-1.38c3.36-.06 6.73 0 10.08.26a48.82 48.82 0 0 1 9.71 1.41c1.58.45 3.71 1.27 4.55 2.5.29.43.24.31.33.69 0 .07.08.35 0 0a1.35 1.35 0 0 1 0 .49c.11-.53-.23.61-.05.21a2.67 2.67 0 0 1-.44.71 8.89 8.89 0 0 1-4.67 2.42 43.29 43.29 0 0 1-8.27.84c-7.31.42-14.62 1-21.88 1.95a1.9 1.9 0 0 0-1.82 1.83 1.83 1.83 0 0 0 1.82 1.82c7.19-1 14.43-1.52 21.67-2 5.13-.3 11.72-.1 15.59-4.18a5.51 5.51 0 0 0 1.59-5 7.26 7.26 0 0 0-3.79-4.43 24.55 24.55 0 0 0-8.74-2.42 98.09 98.09 0 0 0-11.62-.85 141.4 141.4 0 0 0-22.14 1.52 1.83 1.83 0 0 0-1.27 2.24 1.86 1.86 0 0 0 2.24 1.27Z" transform="translate(-64.81 -64.81)"/><path class="cls-1" d="M223.43 354.18c8.83-1.25 22.65-2.44 35.56-.24 13.08 2.42 10.29 11.1-2.74 11.75-5.69.29-12.61.73-19.21 1.39a3 3 0 0 0-2.48 4.1" transform="translate(-64.81 -64.81)"/><path d="M223.91 355.94a140.81 140.81 0 0 1 18-1.4c3.53 0 7.07.08 10.59.39a37.39 37.39 0 0 1 9.63 1.72 9.53 9.53 0 0 1 2.37 1.23 4.33 4.33 0 0 1 .79.75c.06.08.34.61.35.63.15.42.1.05.07.49s.09-.36 0 .16c0 0-.19.55-.05.21a3.19 3.19 0 0 1-1.19 1.43 13.09 13.09 0 0 1-6 2.12c-3.17.46-6.45.42-9.64.63a117.07 117.07 0 0 0-12.28 1 4.81 4.81 0 0 0-3.55 6.8 1.83 1.83 0 0 0 2.49.65 1.86 1.86 0 0 0 .65-2.49c.16.37 0-.18 0-.31a1.82 1.82 0 0 1 .18-.51 1.43 1.43 0 0 1 1.19-.58c1.88-.28 3.81-.36 5.7-.51 3.65-.29 7.31-.53 11-.73 4.77-.26 11.05-.58 14.14-4.88 2.49-3.49 0-7.17-3.36-8.82a28.58 28.58 0 0 0-9.2-2.28 96.3 96.3 0 0 0-11.13-.74 141.78 141.78 0 0 0-21.68 1.53 1.83 1.83 0 0 0-1.27 2.24 1.86 1.86 0 0 0 2.24 1.27Z" transform="translate(-64.81 -64.81)"/><path class="cls-1" d="m257.67 533.62-21.02 41.63-45.15-37.33 23.17-45.95"/><path d="m320.91 597.51-7.08 14L302.48 634l-2.6 5.15 2.87-.37-15.29-12.64-24.26-20.06-5.6-4.63.29 2.2 7.82-15.51 12.47-24.74 2.87-5.69c1.06-2.09-2.09-3.94-3.14-1.84l-7.83 15.51-12.47 24.74-2.87 5.7A1.84 1.84 0 0 0 255 604l15.29 12.64 24.26 20.06 5.6 4.63A1.84 1.84 0 0 0 303 641l7.08-14 11.35-22.47 2.59-5.15c1.06-2.08-2.09-3.93-3.14-1.84Z" transform="translate(-64.81 -64.81)"/><path class="cls-5" d="M386.73 503.84c-20.13 37.72-60.3 109.35-60.3 109.35l-65-30.71 65.2-146.4c12.21-26.7 44.69-38.16 71.57-25.25l149.32 71.7 68.59-19.28c-7.31 42.29-33.24 74-77.15 75.74l-42.72 1a94.86 94.86 0 0 1-40.24-7.23Z" transform="translate(-64.81 -64.81)"/><path d="M385.15 502.92c-9.56 17.91-19.36 35.69-29.18 53.46Q343.06 579.72 330 603l-5.18 9.26 2.49-.65-21.93-10.36-35-16.53-8.08-3.82.65 2.49 11.58-26 24.48-55 22.51-50.55 5.86-13.16a53.09 53.09 0 0 1 14.28-19.46 52.36 52.36 0 0 1 39.71-11.54c6.58.82 12.65 3.13 18.57 6L437 431.44l56.46 27.11 44.8 21.51c2.74 1.32 5.47 2.86 8.29 4 1.29.51 2.39 0 3.66-.37l9-2.52 53.54-15.05 4-1.1-2.24-2.25c-4 23.41-14.6 46.92-34.45 61a73.16 73.16 0 0 1-33.47 12.78c-6.53.8-13.16.73-19.72.89l-25.85.6c-2.2.05-4.4.12-6.6.16a93.43 93.43 0 0 1-25.4-3 143.43 143.43 0 0 1-19.02-6.9l-21.68-9L388 502.39l-.75-.31c-2.16-.9-3.11 2.62-1 3.52l35.63 14.87c12.21 5.09 24.33 10.58 36.71 15.25 12.71 4.8 25.91 6.37 39.41 6l23.85-.56c6-.14 12.11-.14 18.15-.44a80 80 0 0 0 35.92-10.09c21.32-12.21 34.27-34.44 40.05-57.78q1.13-4.54 1.92-9.17a1.84 1.84 0 0 0-2.24-2.24L592.41 468l-36.85 10.36-8.51 2.39 1.4.18-18.23-8.75L488.09 452l-47.57-22.84L406 412.53a811.04 811.04 0 0 0-6.65-3.19 56.24 56.24 0 0 0-29.19-5.43 55.12 55.12 0 0 0-45.44 32.14l-11.34 25.35-20.48 46-20.54 46.13-11.93 26.77-.56 1.26a1.86 1.86 0 0 0 .65 2.5l21.93 10.36 35 16.53 8.08 3.81a1.85 1.85 0 0 0 2.49-.65q7.44-13.25 14.82-26.52 15-27 29.94-54.16 7.83-14.31 15.54-28.67c1.08-2.07-2.06-3.91-3.17-1.84Z" transform="translate(-64.81 -64.81)"/><path class="cls-6" d="m326.29 615.88-65.6-31.5a5.33 5.33 0 0 1-2.52-7.21l5.18-10.28a5.57 5.57 0 0 1 7.39-2.45l65.61 31.5a5.32 5.32 0 0 1 2.51 7.21l-5.18 10.27a5.59 5.59 0 0 1-7.39 2.46Z" transform="translate(-64.81 -64.81)"/><path d="m327.21 614.3-9.87-4.74-21.81-10.47-22.42-10.76c-3.8-1.83-7.64-3.58-11.4-5.48a3.66 3.66 0 0 1-2.23-3.94 14.4 14.4 0 0 1 1.62-3.52l2.8-5.54c.62-1.24 1.16-2.79 2.37-3.56 1.83-1.17 3.47-.32 5.14.48l6.21 3 21 10.06 23 11 13.34 6.41a6.41 6.41 0 0 1 1.55.92c1.44 1.3 1.32 3.1.52 4.67-1.58 3.15-3.14 6.31-4.76 9.44a3.84 3.84 0 0 1-5 2 1.88 1.88 0 0 0-2.49.66 1.83 1.83 0 0 0 .65 2.49 7.54 7.54 0 0 0 9.06-1.88 21.58 21.58 0 0 0 2.23-4l2.88-5.71c.82-1.63 1.71-3.19 1.71-5.08 0-3.36-2.25-5.56-5.05-6.91l-6-2.87-21.7-10.42-23.82-11.44c-4.28-2-8.55-4.15-12.85-6.17a7.59 7.59 0 0 0-10.35 3.59c-1.61 3.2-3.28 6.38-4.84 9.61a7.29 7.29 0 0 0 3.5 10l4.81 2.32 20.56 9.87 24.16 11.6 15 7.19.72.34c2.03 1 3.88-2.14 1.76-3.16Z" transform="translate(-64.81 -64.81)"/><path d="m449.76 477.37-14.24-4.9L407.9 463l-17.9-6.19a36.72 36.72 0 0 0-15.21-2.23 23.49 23.49 0 0 0-16.32 8.57c-2.7 3.37-4.38 7.39-6.23 11.26l-8.86 18.49-12.25 25.55-12.83 26.74-10.57 22-5.51 11.51-.25.52c-1 2.1 2.13 4 3.15 1.84l3.75-7.85 9.5-19.8 12.39-25.87 12.62-26.34 10-20.86q2.34-4.87 4.67-9.76a22.08 22.08 0 0 1 8.89-10c5.78-3.23 12.71-3 18.93-1.29 5.22 1.43 10.31 3.45 15.42 5.21l27.13 9.33 19.35 6.65 1 .35c2.22.76 3.18-2.75 1-3.51Z" transform="translate(-64.81 -64.81)"/><path class="cls-4" d="m276.21 609.05 4.09 8.85a14.79 14.79 0 0 0 17.34 7.91l8.88 4.27-22.58 44.6L184.57 627s12.19-28.35 50.75-13.44a14.92 14.92 0 0 0 18.68-7.24l.18-.35a9.1 9.1 0 0 1 12.31-4l5.65 2.89a9 9 0 0 1 4.07 4.19Z" transform="translate(-64.81 -64.81)"/><path d="M274.64 610c1.5 3.26 2.83 6.68 4.57 9.81a16.81 16.81 0 0 0 18.92 7.79l-1.41-.19 8.89 4.27-.66-2.49-7.64 15.08-12.17 24-2.78 5.49 2.5-.65-9.86-4.73L251.23 657l-28.66-13.8-24.87-11.94-8.16-3.92a38.31 38.31 0 0 0-3.88-1.86l-.17-.08.65 2.49a17.7 17.7 0 0 1 .9-1.73c.36-.61.73-1.2 1.13-1.78.25-.37.51-.74.78-1.1l.15-.21c.28-.36-.24.31.05-.05l.52-.66a29.94 29.94 0 0 1 12.38-9.09c7.7-3 16.13-2.71 24-.76a73.94 73.94 0 0 1 8.34 2.62 16.77 16.77 0 0 0 20.21-6.22 34.07 34.07 0 0 1 2.15-3.59 7.11 7.11 0 0 1 2.89-2 7.49 7.49 0 0 1 6.09.36c3.17 1.6 7.21 3 8.86 6.32 1 2.11 4.17.27 3.14-1.84-1.85-3.78-5.54-5.26-9.06-7.06a15 15 0 0 0-5.06-1.82 11 11 0 0 0-7.11 1.55 10.57 10.57 0 0 0-2.75 2.46c-.86 1.09-1.36 2.35-2.11 3.52a13 13 0 0 1-5.55 4.77 13.33 13.33 0 0 1-7 1.08c-2.87-.35-5.59-1.77-8.35-2.62-8.71-2.68-18.26-3.74-27.13-1.12a34.06 34.06 0 0 0-15.33 9.53 28.34 28.34 0 0 0-5.29 7.63 1.86 1.86 0 0 0 .66 2.49l9.85 4.73 23.77 11.42 28.66 13.76 24.87 11.94c4 1.93 8 3.92 12 5.79l.18.08a1.85 1.85 0 0 0 2.49-.66l7.64-15.08 12.17-24 2.82-5.55a1.85 1.85 0 0 0-.66-2.5l-5.44-2.61-3-1.45-.43-.2c-1.11-.45-2.05 0-3.19.19a13.22 13.22 0 0 1-10.62-3.43c-1.91-1.8-2.9-4.07-4-6.4l-3-6.49c-.96-2.11-4.1-.25-3.12 1.89Z" transform="translate(-64.81 -64.81)"/><path class="cls-2" d="M283.94 674.68 184.57 627a31.27 31.27 0 0 1 7-8.49l14.43 6.36 8 .76a29.19 29.19 0 0 1 16.65 8.08 29.24 29.24 0 0 0 14.3 7.67l6 1.3a29.46 29.46 0 0 1 11.1 5l6.89 5a29.46 29.46 0 0 0 17.69 5.64l5.71-.06Z" transform="translate(-64.81 -64.81)"/><path d="m284.86 673.11-9.86-4.73L251.23 657l-28.66-13.8-24.87-11.94-8.16-3.92a38.31 38.31 0 0 0-3.88-1.86l-.17-.08.65 2.49a28.64 28.64 0 0 1 6.7-8.12l-2.21.28 13.94 6.18c2 .89 4.56.76 6.74 1a30.3 30.3 0 0 1 11.29 3c5 2.56 8.45 7 13.34 9.75a42.19 42.19 0 0 0 11.87 3.94c4.36.95 8.48 2.12 12.26 4.63 2.35 1.56 4.58 3.31 6.86 5a32.93 32.93 0 0 0 14.15 6.23 65.93 65.93 0 0 0 11.24.38l-1.57-2.74-8.39 16.43c-1.06 2.09 2.08 3.94 3.15 1.84l8.38-16.43a1.84 1.84 0 0 0-1.57-2.74l-5.65.06a28 28 0 0 1-12.34-2.7c-4.24-2-7.89-5.25-11.72-8a31.36 31.36 0 0 0-11.35-4.93c-1.94-.43-3.89-.83-5.83-1.26a28 28 0 0 1-11.68-5.56c-1.58-1.31-3-2.79-4.61-4.05a30 30 0 0 0-5.59-3.43 32.15 32.15 0 0 0-10.77-2.9l-6.8-.64.92.25-14.43-6.4a1.94 1.94 0 0 0-2.21.29c-2.74 2.5-5.61 5.47-7.27 8.86a1.85 1.85 0 0 0 .66 2.49l9.85 4.73 23.77 11.42 28.66 13.76 24.87 11.94c4 1.93 8 3.92 12 5.79l.18.08c2.14.95 4.02-2.19 1.88-3.21ZM243.88 614.66a4.79 4.79 0 0 1 .42.68c.15.26.27.53.4.79s-.17-.42-.06-.14l.1.27c.07.2.14.39.2.59.12.41.2.82.28 1.23s0-.37 0 0v.38a7 7 0 0 1 0 .79v.35c0 .12-.05.52 0 .24s0 .13 0 .19l-.09.43a9.07 9.07 0 0 1-.26.89c0 .07-.21.51-.06.17-.07.15-.14.31-.22.46a1.86 1.86 0 0 0 .66 2.49 1.84 1.84 0 0 0 2.49-.65 10.84 10.84 0 0 0 .8-7.73 10.17 10.17 0 0 0-1.48-3.27 1.89 1.89 0 0 0-2.5-.66 1.85 1.85 0 0 0-.65 2.5ZM235.58 615a5.22 5.22 0 0 1 .43.68c.14.26.26.52.39.79s-.17-.42-.06-.14l.11.27c.07.2.13.39.19.59a10 10 0 0 1 .28 1.23c.08.39 0-.37 0 0v.38a6.94 6.94 0 0 1 0 .79v.77a3.43 3.43 0 0 1-.09.44c-.07.3-.16.59-.26.89 0 .07-.2.51-.06.17-.06.15-.14.3-.21.46a1.82 1.82 0 0 0 3.14 1.84 10.8 10.8 0 0 0 .81-7.73 10 10 0 0 0-1.49-3.27 1.82 1.82 0 1 0-3.15 1.84ZM225.94 612.16a5.92 5.92 0 0 1 .42.68c.15.26.27.53.4.8s-.17-.43-.06-.15l.1.27c.07.2.14.39.2.59.12.41.2.82.28 1.23s0-.37 0 0v1.52c0 .12-.05.52 0 .24s0 .13 0 .19l-.09.43a7 7 0 0 1-.27.89c0 .07-.2.51 0 .17a6.5 6.5 0 0 1-.22.46 1.82 1.82 0 0 0 3.15 1.84 10.84 10.84 0 0 0 .8-7.73 10.17 10.17 0 0 0-1.48-3.27 1.87 1.87 0 0 0-2.5-.65 1.84 1.84 0 0 0-.65 2.49Z" transform="translate(-64.81 -64.81)"/><path class="cls-3" d="m578.29 339.55-2.6 63.83a198.74 198.74 0 0 1 19.88.42c12.77.89 45.08 15.37 54.29 17.92l4-82.13c1.07-21.78-14.55-43.38-36.83-45.06l-63.2-.91" transform="translate(-64.81 -64.81)"/><path d="m576.47 339.55-.88 21.61-1.41 34.39-.31 7.83a1.83 1.83 0 0 0 1.82 1.82q5.77-.17 11.55 0c3.07.1 6.82.18 9.56.54a72.34 72.34 0 0 1 12.2 3.05c9.85 3.11 19.45 7 29.1 10.67 3.71 1.42 7.44 3 11.28 4a1.84 1.84 0 0 0 2.3-1.76l.46-9.38 1.09-22.16 1.25-25.47 1-19.69c.25-5 .5-9.92-.3-14.93a46.47 46.47 0 0 0-18.11-30 38.29 38.29 0 0 0-22.12-7.4l-18.68-.27-25.41-.4-16.2-.23h-.81c-2.35 0-2.35 3.61 0 3.65l11.41.16 24.17.35 21.83.31c1.77 0 3.54 0 5.31.08a30.92 30.92 0 0 1 11.11 2.58c10.69 4.48 18.68 14.18 22.25 25.07a43.81 43.81 0 0 1 2.13 15.62l-.15 3-.84 17.24-1.22 24.78-1.14 23.39-.64 13.07v.61l2.3-1.75c-3.31-.93-6.54-2.22-9.75-3.44-4.7-1.79-9.38-3.63-14.08-5.41-5-1.89-10-3.73-15.1-5.38a87.57 87.57 0 0 0-12.81-3.39 80.15 80.15 0 0 0-9.91-.74q-6.51-.24-13-.06l1.82 1.83.88-21.61 1.4-34.4.32-7.82c.1-2.35-3.55-2.34-3.64 0Z" transform="translate(-64.81 -64.81)"/><path d="M649.68 422c.34-4.61-7.7-9.3-20.46-12.83l-4.07 23c14.49-1.59 24.17-5.26 24.53-10.17Z" transform="translate(-64.81 -64.81)"/><path d="M651.5 422c.19-3.65-3.06-6.38-5.84-8.16-4.82-3.08-10.49-4.9-16-6.43a1.83 1.83 0 0 0-2.24 1.27l-3.56 20.15-.51 2.85c-.18 1 .48 2.45 1.76 2.31 6.28-.71 12.73-1.68 18.59-4.14 3.45-1.45 7.38-3.72 7.76-7.85.22-2.33-3.43-2.32-3.64 0 0-.4-.1.37-.14.52s.09-.16-.08.16a3.35 3.35 0 0 1-.21.36 5.86 5.86 0 0 1-1.22 1.3 17.12 17.12 0 0 1-4.53 2.44 67.29 67.29 0 0 1-16.53 3.56l1.76 2.31 3.56-20.14.51-2.86-2.25 1.27a59 59 0 0 1 14.32 5.6 15 15 0 0 1 3.81 3 5.39 5.39 0 0 1 .45.61c.09.14.41.76.32.55a3.81 3.81 0 0 1 .22.75v.58c-.07 2.36 3.57 2.35 3.69-.01Z" transform="translate(-64.81 -64.81)"/><path class="cls-1" d="M595.57 403.8a198.74 198.74 0 0 0-19.88-.42l-1.22 27-.35 7.68-116.94-2L444 421.69a38.76 38.76 0 0 0-28.52-12.41h-21l23.65 24.77a30.1 30.1 0 0 1 8.36 19.73 25.49 25.49 0 0 0 14.11 21.78 66.17 66.17 0 0 0 22.15 6.67L572 495.08c25.58.79 48-17.43 53.36-41.86l2.37-16 1.47-28a175.31 175.31 0 0 0-33.63-5.42Z" transform="translate(-64.81 -64.81)"/><path d="M595.57 402c-6.62-.46-13.25-.62-19.88-.43a1.86 1.86 0 0 0-1.82 1.83l-1.22 27c-.12 2.56-.24 5.11-.35 7.67l1.82-1.82-11.62-.25-27.92-.48-33.78-.52-29.21-.5-9.59-.2a43.8 43.8 0 0 0-4.58-.08h-.2l1.29.54-7.51-8.1a118.18 118.18 0 0 0-8.74-9.16 41.1 41.1 0 0 0-23-9.86c-4-.39-8.08-.19-12.09-.19h-12.74a1.85 1.85 0 0 0-1.28 3.12l19.35 20.27c3.26 3.41 6.64 6.66 8.88 10.89a27.89 27.89 0 0 1 2.56 6.91 58.1 58.1 0 0 1 .81 7 27.11 27.11 0 0 0 4.75 12.73c6 8.44 16.42 12.39 26.18 14.54a96 96 0 0 0 9.52 1.46l23.59 2.78 35.87 4.21 32.85 3.87c4.82.56 9.67 1.33 14.51 1.7a46.29 46.29 0 0 0 13.11-1.23 54.33 54.33 0 0 0 12.12-4.24A56 56 0 0 0 617 475.22c4.78-6.22 8.76-13.89 10.12-21.68.85-4.84 1.44-9.73 2.16-14.59.45-3.06.48-6.18.65-9.28l.89-17.13.18-3.35a1.84 1.84 0 0 0-1.34-1.76 175.18 175.18 0 0 0-34.09-5.43c-2.35-.17-2.34 3.48 0 3.64a170.57 170.57 0 0 1 33.16 5.32l-1.33-1.75-1.4 26.84c0 .13-.16 1-.06 1.13-.07-.06.11-.78 0-.17-.06.37-.11.75-.17 1.12l-1.19 8.06c-.31 2.12-.57 4.26-.94 6.38a43.48 43.48 0 0 1-3.38 10.28 52.41 52.41 0 0 1-38.15 29.71 40.25 40.25 0 0 1-11.59.52l-8-.94-29.84-3.51-36.17-4.25-27.51-3.24-5.89-.69a62.35 62.35 0 0 1-22.26-6.81 24.21 24.21 0 0 1-9.41-9.1 23.15 23.15 0 0 1-2.49-6.2 40.38 40.38 0 0 1-.74-6.19 33.32 33.32 0 0 0-9.56-20.15l-21-22-1.92-2-1.29 3.11h18.66a46.2 46.2 0 0 1 11.54 1.14 36.88 36.88 0 0 1 16.81 9.45c4.61 4.56 8.85 9.55 13.24 14.32.89 1 1.54 1.81 2.93 1.86 1.11 0 2.22 0 3.33.05l14.51.25 21.74.37 24.8.45 23.66.4 18.65.32c3.12.06 6.26.18 9.38.17h.42a1.85 1.85 0 0 0 1.82-1.82q.67-14.71 1.33-29.43l.24-5.23-1.82 1.82c6.63-.2 13.26 0 19.88.42 2.35.13 2.34-3.51.01-3.65Z" transform="translate(-64.81 -64.81)"/><path class="cls-7" d="m492.72 186.75-17.38-.42a10 10 0 0 0-10.34 9.42c-.24 4.86.86 10.15 6.11 12.15-9.3 5.45-8 28.51 23.17 31.49 12.68-5.83 22.84-38.29 22.84-38.29" transform="translate(-64.81 -64.81)"/><path d="m492.72 184.93-15.07-.36c-2.83-.07-5.49 0-8.1 1.28-4.28 2.16-6.42 6.55-6.4 11.2 0 5.49 2.17 10.47 7.48 12.61l-.43-3.33c-4.38 2.61-6.33 8-5.91 12.9.57 6.65 4.71 12.19 10.17 15.8a37.49 37.49 0 0 0 12.64 5.08c1.19.27 2.39.48 3.6.66 1.44.21 3.33.76 4.69.11a17.76 17.76 0 0 0 4.08-2.84c6-5.37 9.93-13.21 13.2-20.44a141.49 141.49 0 0 0 6.22-16c.7-2.24-2.82-3.2-3.52-1-1.18 3.75-2.59 7.45-4.09 11.09-2.77 6.72-6 13.45-10.35 19.3-2.05 2.73-4.46 5.35-7.56 6.81l.92-.25c-8.16-.81-17.06-3.26-22.59-9.74a16.1 16.1 0 0 1-3.53-7.09 12.63 12.63 0 0 1 .28-6.5c.09-.29.19-.57.3-.86.19-.47-.15.34.06-.12l.19-.4a10.85 10.85 0 0 1 .92-1.49c.28-.4-.25.28.06-.09.09-.11.18-.22.28-.32s.38-.41.59-.61.74-.6.38-.34a8.67 8.67 0 0 1 .81-.53 1.85 1.85 0 0 0-.44-3.33c-3.76-1.52-4.81-5.56-4.8-9.26s2-7.24 5.83-8.37a18.16 18.16 0 0 1 5.75-.29l8.46.2 5.88.14c2.35.06 2.35-3.59 0-3.64Z" transform="translate(-64.81 -64.81)"/><path class="cls-1" d="M535 327.64a29.35 29.35 0 0 1-29.34-29.34v-4.68h58.68v4.68A29.35 29.35 0 0 1 535 327.64Z" transform="translate(-64.81 -64.81)"/><path d="M535 325.82c-14 0-26.27-11.05-27.42-25.08-.19-2.36-.1-4.75-.1-7.12l-1.82 1.83h58.68l-1.83-1.83v5.56a27.17 27.17 0 0 1-2.24 10.08 28.06 28.06 0 0 1-13.85 14.1 27.71 27.71 0 0 1-11.42 2.46 1.82 1.82 0 0 0 0 3.64 31.13 31.13 0 0 0 31-28 72.61 72.61 0 0 0 .17-7.81 1.85 1.85 0 0 0-1.82-1.82h-58.71a1.85 1.85 0 0 0-1.82 1.82c0 2.14-.08 4.3.05 6.43a31.68 31.68 0 0 0 2.84 11.35 31.2 31.2 0 0 0 15.62 15.38 31.66 31.66 0 0 0 12.67 2.65 1.82 1.82 0 0 0 0-3.64Z" transform="translate(-64.81 -64.81)"/><path class="cls-1" d="m489.83 234.25-.53-38.79-33.8 12.44-1.23 25.46"/><path d="M556.47 299.07 556 265l-.06-4.77a1.84 1.84 0 0 0-2.31-1.75l-29.57 10.92-4.23 1.6a1.9 1.9 0 0 0-1.34 1.76L517.41 295l-.15 3.21c-.12 2.35 3.53 2.34 3.64 0l1.1-22.28.15-3.21-1.33 1.75 29.57-10.88 4.21-1.59-2.31-1.76.47 34 .06 4.77c0 2.34 3.68 2.35 3.65 0Z" transform="translate(-64.81 -64.81)"/><path class="cls-1" d="M554.31 273.67c19.52-14.52 13.67-29.34 14.81-40.05.66-6.22-7.65-19.79-7.65-19.79l-64.73 1.83S470 286 532.47 276.15" transform="translate(-64.81 -64.81)"/><path d="M555.23 275.24c5.15-3.86 9.85-8.53 12.61-14.43a35 35 0 0 0 3.08-14c.1-3.94-.31-7.89-.08-11.83a18.86 18.86 0 0 0-.42-5.94 41.84 41.84 0 0 0-2.44-6.66 81.21 81.21 0 0 0-4.93-9.43 1.83 1.83 0 0 0-1.58-.9l-21.92.62-34.8 1-8 .22a1.92 1.92 0 0 0-1.76 1.34c-.88 2.33-1.59 4.73-2.25 7.13a100.1 100.1 0 0 0-3.18 16.9 52.43 52.43 0 0 0 1.31 19.53 26.63 26.63 0 0 0 11.36 15.6c7.69 4.73 17.34 5.14 26.07 4.2 1.56-.17 3.12-.38 4.66-.62a1.84 1.84 0 0 0 1.28-2.24 1.87 1.87 0 0 0-2.24-1.33c-8.54 1.33-18.37 1.67-26.06-2.19a20.83 20.83 0 0 1-7.19-5.73 6.86 6.86 0 0 1-.47-.62c-.23-.31-.45-.63-.66-.95-.41-.63-.79-1.27-1.14-1.93a20.85 20.85 0 0 1-1.68-3.93 37.1 37.1 0 0 1-1.75-8.83 61.32 61.32 0 0 1 0-9.39c.12-1.53.28-3.05.48-4.57V236c0-.09.05-.38.08-.57l.18-1.14c.11-.71.23-1.42.37-2.14.47-2.58 1.05-5.14 1.72-7.68q.74-2.79 1.62-5.53c.28-.88.71-1.78.91-2.68a.61.61 0 0 1 .05-.12l-1.76 1.34 21.93-.62 34.8-1 8-.23-1.57-.9c1.44 2.36 2.75 4.81 4 7.3 1.64 3.4 3.71 7.54 3.47 11.37-.5 7.94.93 16-1.85 23.68-2.24 6.17-6.91 11.12-12.08 15a1.89 1.89 0 0 0-.65 2.5 1.83 1.83 0 0 0 2.49.65Z" transform="translate(-64.81 -64.81)"/><path d="m517.37 232.37.25-.14.3-.15.18-.08c.33-.15-.11 0-.11.05 0-.13 1-.37 1.15-.41.49-.14 1-.26 1.49-.35l.38-.07h.08c.36 0 .67-.06 1-.07h1.74a11.48 11.48 0 0 1 4.28 1.62 1.82 1.82 0 1 0 1.84-3.15c-4.22-2.6-10.05-3.08-14.43-.49-2 1.19-.18 4.34 1.84 3.15ZM494.56 231.17c3.79-1.51 10-1.42 11.34 3.28.65 2.28-.41 4.79-1.54 6.75a21 21 0 0 1-3 4 4.23 4.23 0 0 0-1.44 2 4.8 4.8 0 0 0-.07 1.77c.5 3.27 4.19 3.58 6.85 3.38 2.32-.17 2.34-3.81 0-3.64a9 9 0 0 1-3.09-.16c-.14-.06-.09-.13-.19-.11s.09 0 .06.13c.08-.28 0 .13-.05-.19a1.2 1.2 0 0 1 .07-.54l-.47.81c4.27-4.14 9-11.28 5.49-17.27a9.72 9.72 0 0 0-8.08-4.59 16.34 16.34 0 0 0-6.83.89 1.88 1.88 0 0 0-1.28 2.24 1.83 1.83 0 0 0 2.24 1.27Z" transform="translate(-64.81 -64.81)"/><ellipse cx="431.96" cy="174.58" rx="2.27" ry="2.21"/><path d="M495.42 239.3v-.06c0-.1 0-.09 0 0v-.12s.05-.19.08-.29-.08.12 0 0a.83.83 0 0 0 .07-.13l.06-.11.07-.09c-.08.09-.09.12 0 .06l.18-.19.13-.12s-.16.11 0 0l.26-.16h.18s.27-.1.3-.07-.24 0-.06 0h.32-.05s.29.06.36.09.21 0 .07 0h.05l.26.16c.12.07 0 0 0 0l.11.1c.01.01.24.21.22.24l-.07-.09a.36.36 0 0 1 .07.1l.06.1s0 .09.07.13-.07-.21 0 0 .06.19.08.29v.12-.06.09a1.24 1.24 0 0 1 0 .28v-.11a.5.5 0 0 0 0 .12v.11l-.06.18v-.05a1.94 1.94 0 0 1-.17.31c-.08.12 0 0 0 0s-.08.1-.09.12l-.22.2c-.08.09.19-.12 0 0l-.1.07-.16.09h-.05.05c-.09 0-.2.07-.29.09h-.12c-.21 0 .21 0 0 0h-.29c-.08 0-.18-.05 0 0h-.36c-.07 0-.19-.12 0 0-.09-.06-.2-.1-.29-.16l-.13-.08.07.05-.07-.06s-.25-.23-.24-.26.11.16 0 0a1.63 1.63 0 0 1-.11-.17l-.07-.13c.05.11.06.14 0 .08v-.09s-.09-.35-.08-.35 0 .21 0 .06v-.25a.91.91 0 0 0-.91-.91.93.93 0 0 0-.91.91 3.18 3.18 0 0 0 2 3 3.23 3.23 0 0 0 3.48-.82 3.15 3.15 0 0 0 .42-3.63 3.24 3.24 0 0 0-3.37-1.53 3.16 3.16 0 0 0-2.58 3 .91.91 0 0 0 1.82 0Z" transform="translate(-64.81 -64.81)"/><ellipse cx="453.34" cy="174.58" rx="2.27" ry="2.21"/><path d="M516.8 239.3v-.06c0-.1 0-.09 0 0v-.12c0-.1 0-.19.08-.29s-.08.12 0 0a.83.83 0 0 0 .07-.13l.06-.11.07-.09-.05.06.18-.19.13-.12s-.16.11 0 0l.26-.16s.18 0 0 0-.07 0 0 0h.12s.27-.1.3-.07-.25 0-.06 0h.32c.18 0 0 0 0 0s.29.06.36.09.2 0 .07 0l.26.16c.12.07 0 0 0 0l.11.1s.24.21.22.24l-.07-.09a.36.36 0 0 1 .07.1l.06.1a.83.83 0 0 0 .07.13c.07.09-.07-.21 0 0s.06.19.08.29v.12-.06a.28.28 0 0 1 0 .09 1.24 1.24 0 0 1 0 .28v-.11.12a.36.36 0 0 1 0 .11l-.06.18v-.05a1.94 1.94 0 0 1-.17.31c-.08.12 0 0 0 0s-.08.1-.09.12l-.22.2c-.08.09.18-.12 0 0l-.1.07-.16.09c-.09 0-.07 0 0 0-.09 0-.2.07-.29.09h-.12c-.21 0 .2 0 0 0h-.3c-.08 0-.18-.05 0 0h-.36c-.08 0-.2-.12 0 0-.09-.06-.2-.1-.29-.16l-.13-.08.07.05-.07-.06s-.26-.23-.24-.26.11.16 0 0l.02-.19a.88.88 0 0 1-.07-.13c0 .11.06.14 0 .08v-.09s-.09-.35-.08-.35 0 .21 0 .06v-.25a.91.91 0 0 0-.91-.91.93.93 0 0 0-.91.91 3.17 3.17 0 0 0 2 3 3.21 3.21 0 0 0 3.47-.82 3.11 3.11 0 0 0 .42-3.63 3.22 3.22 0 0 0-3.36-1.53 3.16 3.16 0 0 0-2.58 3 .91.91 0 0 0 .91.91.93.93 0 0 0 .91-.95ZM508.32 260.51l5.17-1.26.72-.18-2.3-1.75a3.11 3.11 0 0 1 0 .43l.06-.48a2.93 2.93 0 0 1-.18.66l.18-.43a2.63 2.63 0 0 1-.36.63l.29-.37a3.24 3.24 0 0 1-.55.56l.37-.29a3.57 3.57 0 0 1-.68.4l.44-.18a3.31 3.31 0 0 1-.82.22l.49-.06a3.57 3.57 0 0 1-.8 0l.49.07a3.09 3.09 0 0 1-.79-.22l.44.19a3.29 3.29 0 0 1-.68-.4l.36.28-1-.87a2 2 0 0 0-1.29-.53 1.82 1.82 0 0 0-1.28 3.11 7 7 0 0 0 3.12 1.92 4.91 4.91 0 0 0 4.75-1.59 4.83 4.83 0 0 0 1.13-3.05 1.84 1.84 0 0 0-2.3-1.76l-5.17 1.26-.73.18a1.83 1.83 0 0 0-1.27 2.24 1.86 1.86 0 0 0 2.19 1.27ZM555.26 232a5.61 5.61 0 0 0-3-.12A8.44 8.44 0 0 0 547 236a21.48 21.48 0 0 0-2.35 5.89 1.83 1.83 0 0 0 3.52 1 24.37 24.37 0 0 1 .87-2.79 2.44 2.44 0 0 1 .21-.53c-.25.36-.06.14 0 0l.09-.21c.16-.35.33-.69.52-1s.31-.53.48-.79l.26-.37c0-.05.22-.29 0 0s0 0 .07-.08a10.21 10.21 0 0 1 1-1l-.21.17.15-.11.24-.16a5.39 5.39 0 0 1 .52-.3c.17-.08.5-.15-.14 0l.24-.09.46-.13c.23-.06.77-.07 0 0H554c-.77-.06-.22 0 .06 0l.18.06a1.82 1.82 0 0 0 2.24-1.27 1.87 1.87 0 0 0-1.27-2.24Z" transform="translate(-64.81 -64.81)"/><path class="cls-7" d="M486 208.44a23.8 23.8 0 0 0 18.12 12.16c18.25 2.4 33.92-6 33.92-6v12.16a49.82 49.82 0 0 0 3.72 18.84s-1.67-10 2.62-15.17c1.84-2.08 3.93-3.43 5.94-3.43 5.51 0 9.76 1.82 9.76 9.53 0 5.1-4.39 14-7.44 16.32l1.67 20.87a81.39 81.39 0 0 0 25.34-34c2.41-6.18 4-12.54 3.47-17.71-1.25-11.42-6.1-16.2-10.33-18.18a9.25 9.25 0 0 1 4.75-3.59c-5.51-1.55-8.7.81-10 2.25h-.38c1.13-2.79 4.41-10.64 6.78-13.28-4.59.15-9.15 5.24-11.53 8.37A26.92 26.92 0 0 0 542 187.7l-61.58-1.11" transform="translate(-64.81 -64.81)"/><path d="M484.42 209.36a27.73 27.73 0 0 0 8.46 9.08 28.67 28.67 0 0 0 13.93 4.26 62.15 62.15 0 0 0 26.83-4.23 46.64 46.64 0 0 0 5.32-2.34l-2.74-1.58v10.83A54.59 54.59 0 0 0 540 246a1.83 1.83 0 0 0 3.52-1c0-.09-.07-.5 0-.19s0-.15 0-.25c0-.25-.05-.5-.07-.76a29.61 29.61 0 0 1-.11-3.65c.08-2.89.53-6.21 2.39-8.54 1.14-1.43 2.89-2.86 4.79-2.9a12.29 12.29 0 0 1 3.77.49c2.47.77 3.63 2.85 3.93 5.32a18.25 18.25 0 0 1-1.87 9.39 23.65 23.65 0 0 1-4.79 7.42c-1 1-.6 2.48-.49 3.79l.52 6.57 1 11.92a1.85 1.85 0 0 0 3.01 1.39 82.41 82.41 0 0 0 22.74-27.86 62.56 62.56 0 0 0 6.35-18.57 31.07 31.07 0 0 0-2.54-17.42 18.11 18.11 0 0 0-8.43-8.9l.37 2.86A8.06 8.06 0 0 1 578 202a1.83 1.83 0 0 0 0-3.51c-4.2-1.12-8.71-.53-11.82 2.71l1.29-.53h-.38l1.76 2.31q1.27-3.16 2.74-6.26a26.79 26.79 0 0 1 3.57-6.21c1-1.11.4-3.21-1.29-3.11-5.62.32-9.91 5.09-13.11 9.27l2.86-.36a29.2 29.2 0 0 0-22.23-10.37l-11.6-.21-39.28-.73-10.1-.19c-2.34 0-2.34 3.61 0 3.65l26.31.47 33.63.61a34.07 34.07 0 0 1 5.79.45 25.56 25.56 0 0 1 14.94 8.87c.83 1 2.22.47 2.86-.37 2.32-3 5.84-7.23 10-7.47l-1.29-3.11a29.93 29.93 0 0 0-4.14 6.95c-1.11 2.34-2.13 4.73-3.1 7.13-.47 1.16.69 2.26 1.75 2.31 1.59.07 2.59-1.57 4-2.17a9.09 9.09 0 0 1 6-.13v-3.51a11 11 0 0 0-5.55 4.05 1.86 1.86 0 0 0 .37 2.87c7.65 3.63 10.31 14 9.34 21.83-.74 6.08-3.08 12.07-5.76 17.53a78.42 78.42 0 0 1-9.08 14.37A81.54 81.54 0 0 1 553 272.38l3.11 1.29-1.67-20.87-.53 1.29a16.1 16.1 0 0 0 3.57-4.5 37.84 37.84 0 0 0 3.08-6.65c1.47-4.17 2.13-9.28-.24-13.28-2.05-3.47-6.2-4.64-10-4.53-5.44.15-9.14 5.49-10.15 10.34A29.06 29.06 0 0 0 540 246l3.52-1a52 52 0 0 1-3.65-19.85v-10.6a1.85 1.85 0 0 0-2.75-1.57 53.84 53.84 0 0 1-13.12 4.64 57.29 57.29 0 0 1-13.68 1.59c-4.68 0-9.48-.57-13.67-2.77a23.2 23.2 0 0 1-9.09-8.92c-1.2-2-4.35-.18-3.15 1.84Z" transform="translate(-64.81 -64.81)"/><path class="cls-7" d="M476.95 180.73z"/><path d="M543.58 245.55a1.44 1.44 0 0 0-.15-.71 1.4 1.4 0 0 0-.38-.58 1.37 1.37 0 0 0-.59-.38 1.5 1.5 0 0 0-.7-.16l-.48.07a1.84 1.84 0 0 0-.81.47l-.28.37a1.74 1.74 0 0 0-.25.92 1.31 1.31 0 0 0 .16.7 1.47 1.47 0 0 0 .37.59 1.41 1.41 0 0 0 .59.37 1.31 1.31 0 0 0 .7.16l.49-.07a1.79 1.79 0 0 0 .8-.46l.29-.37a1.86 1.86 0 0 0 .24-.92 1.44 1.44 0 0 0-.15-.71 1.4 1.4 0 0 0-.38-.58 1.37 1.37 0 0 0-.59-.38 1.5 1.5 0 0 0-.7-.16l-.48.07a1.84 1.84 0 0 0-.81.47l-.28.37a1.74 1.74 0 0 0-.25.92 1.31 1.31 0 0 0 .16.7 1.47 1.47 0 0 0 .37.59 1.41 1.41 0 0 0 .59.37 1.31 1.31 0 0 0 .7.16l.49-.07a1.79 1.79 0 0 0 .8-.46l.29-.37a1.86 1.86 0 0 0 .24-.92Z" transform="translate(-64.81 -64.81)"/><path class="cls-6" d="m387.96 366.44 12.77 15.21"/><path d="m451.49 432.54 11.19 13.34 1.57 1.88a1.82 1.82 0 0 0 2.58-2.58l-11.19-13.34-1.58-1.84a1.82 1.82 0 0 0-2.57 0 1.84 1.84 0 0 0 0 2.57Z" transform="translate(-64.81 -64.81)"/><path class="cls-2" d="M622.88 407.5H480.67v86.18h56.91"/><path d="M687.69 470.5H563c-5.73 0-11.5-.21-17.23 0h-.24a1.84 1.84 0 0 0-1.82 1.82v75.58c0 3.47-.16 7 0 10.45v.14a1.85 1.85 0 0 0 1.82 1.83h56.91a1.83 1.83 0 0 0 0-3.65h-56.96l1.82 1.82v-82.66a26.91 26.91 0 0 0 0-3.36v-.15l-1.82 1.82h124.74c5.73 0 11.51.21 17.23 0h.24a1.82 1.82 0 0 0 0-3.64Z" transform="translate(-64.81 -64.81)"/><path class="cls-2" d="M599.39 515.41c0-23.77-20.22-43.31-44.58-43.09-23.25.22-42.2 18-43.63 40.37h-.09v200.42a12.89 12.89 0 0 0 13.05 12.74h22.23a12.89 12.89 0 0 0 13-12.74V558.3c22.47-2.06 40.02-20.47 40.02-42.89Z" transform="translate(-64.81 -64.81)"/><path d="M601.21 515.41c-.07-18.51-12.07-35-29.15-41.74a46.85 46.85 0 0 0-50.79 11.48 44.86 44.86 0 0 0-11.91 27.54l1.82-1.83h-.09a1.85 1.85 0 0 0-1.82 1.83v200a14.77 14.77 0 0 0 3 9.11c3.22 4.19 8 5.85 13.1 5.85h12.55c3.06 0 6.15.14 9.2 0a14.88 14.88 0 0 0 14-12.33 24.53 24.53 0 0 0 .18-3.63V558.3l-1.82 1.82c17.61-1.68 33.21-13.18 39.24-29.94a44.24 44.24 0 0 0 2.55-14.77 1.82 1.82 0 0 0-3.64 0A41.73 41.73 0 0 1 572.66 553a42.78 42.78 0 0 1-13.24 3.44 1.86 1.86 0 0 0-1.82 1.82v154.85A11.2 11.2 0 0 1 546.35 724H525c-4.85 0-9.45-2.18-11.36-6.9-1-2.55-.77-5.47-.77-8.17V512.69l-1.82 1.82h.09a1.87 1.87 0 0 0 1.82-1.82c1.15-17 13.21-31.6 29.36-36.6a43.31 43.31 0 0 1 45.77 13.49 40.61 40.61 0 0 1 9.44 25.83c.05 2.34 3.69 2.35 3.68 0Z" transform="translate(-64.81 -64.81)"/><path class="cls-2" d="M494.61 499.12h-28.82"/><path d="M559.42 562.11h-28.81a1.83 1.83 0 0 0 0 3.65h28.81a1.83 1.83 0 0 0 0-3.65Z" transform="translate(-64.81 -64.81)"/><path class="cls-2" d="M223.87 304.73h10.83c4.08 0 7.66.18 10 3.71a8.13 8.13 0 0 1-3.5 11.88c-2.67 1.22-6.64.74-9.81.74h-11.7c-6.28 0-6.29 9.53 0 9.53h11.92c5.21 0 10.32.29 15-2.32 7.28-4 11-13 8.26-20.84a18.44 18.44 0 0 0-17.54-12.22h-13.51c-6.28 0-6.29 9.52 0 9.52Z" transform="translate(-64.81 -64.81)"/><path d="M223.87 306.56c4.09 0 8.2-.09 12.29 0 2.78.07 5.59.5 7.15 3.08a6.33 6.33 0 0 1-.4 7.09c-2 2.62-5.28 2.65-8.3 2.58-4-.1-8-.08-12-.08-2.76 0-5.67-.24-7.71 2-3.05 3.33-1.93 9.15 2.37 10.77a12.31 12.31 0 0 0 4.4.42h6.46a99.28 99.28 0 0 0 11.83-.25 19.65 19.65 0 0 0 15.75-11 19 19 0 0 0-.68-17.79 20.35 20.35 0 0 0-14.66-9.71c-3.83-.54-7.82-.26-11.68-.25-3 0-6.5-.58-9 1.43a6.83 6.83 0 0 0 .72 10.85 7.08 7.08 0 0 0 3.45.9c2.35.05 2.35-3.6 0-3.65a2.69 2.69 0 0 1-2.84-2.29 3.1 3.1 0 0 1 1.23-3.19 4.91 4.91 0 0 1 2.57-.4h5.79c3.34 0 6.87-.32 10.17.36a16.77 16.77 0 0 1 11.9 9.34A15.54 15.54 0 0 1 251 322a15.74 15.74 0 0 1-6.08 5.13c-3.18 1.5-6.75 1.64-10.21 1.65h-11.06a23.65 23.65 0 0 1-4.76-.07 2.63 2.63 0 0 1-1.52-1 3.32 3.32 0 0 1-.11-3.64c1-1.58 3.39-1.21 5.34-1.21 3.73 0 7.45-.05 11.17.06 3.12.09 6.49.17 9.25-1.52a10 10 0 0 0 1.81-15.65c-2.26-2.16-5.3-2.73-8.32-2.83-4.21-.15-8.44 0-12.65 0a1.83 1.83 0 0 0 .01 3.64Z" transform="translate(-64.81 -64.81)"/><path class="cls-2" d="M201.33 345.33a27.65 27.65 0 0 1-27.65-27.66v-29H229v29a27.65 27.65 0 0 1-27.67 27.66Z" transform="translate(-64.81 -64.81)"/><path d="M201.33 343.5c-12.94 0-24.4-10.08-25.69-23a86 86 0 0 1-.14-8.65v-23.22l-1.82 1.83H229l-1.82-1.83v29.04a25.82 25.82 0 0 1-25.83 25.83c-2.35 0-2.35 3.66 0 3.65 14-.09 26.65-10.36 29-24.34a59.8 59.8 0 0 0 .45-10.1v-24.08a1.85 1.85 0 0 0-1.82-1.82h-55.3a1.86 1.86 0 0 0-1.83 1.82v22.67c0 3-.15 6 .13 9a29.45 29.45 0 0 0 29.35 26.86 1.83 1.83 0 0 0 0-3.66Z" transform="translate(-64.81 -64.81)"/><path class="cls-1" d="M233.91 306.71a83.57 83.57 0 0 1 7.69-6c11-7.33 15.32.73 6.59 10.19-1.47 1.61-3.07 3.36-4.71 5.19" transform="translate(-64.81 -64.81)"/><path d="M235.2 308a62.2 62.2 0 0 1 8.23-6.32A14.76 14.76 0 0 1 247 300c.27-.08.53-.15.8-.21s.72-.13.34-.08a6.57 6.57 0 0 1 1.47 0c-.4 0 0 0 .16.05s.61.22.35.1.22.15.3.18c.25.11 0 0-.1-.09l.24.22.19.21c.16.16-.19-.31-.09-.1l.25.44c-.24-.43 0 0 0 .17a2.1 2.1 0 0 1 .06.24c.13.39 0-.14 0 0a8.69 8.69 0 0 1 0 1.25c0 .27.06-.31 0 0s-.05.26-.07.39-.13.54-.21.8a11.28 11.28 0 0 1-1.39 2.93 26.78 26.78 0 0 1-3.13 3.92q-2 2.19-4 4.4a1.88 1.88 0 0 0 0 2.58 1.84 1.84 0 0 0 2.58 0c2.52-2.82 5.38-5.5 7.46-8.68 1.37-2.11 2.6-4.76 2.42-7.35a5.42 5.42 0 0 0-3.71-5c-2.53-.81-5.36.17-7.62 1.28a33 33 0 0 0-5.21 3.39q-2.82 2.13-5.49 4.45a1.82 1.82 0 1 0 2.6 2.51Z" transform="translate(-64.81 -64.81)"/><ellipse cx="136.52" cy="223.82" rx="27.65" ry="4.08"/><path d="M227.16 288.63c0-.1.15-.62.1-.49.42-1.12.1 0 .09-.15 0 .13-.09 0 .11-.08a5.24 5.24 0 0 0-.51.3 1.24 1.24 0 0 1-.41.18 23.63 23.63 0 0 1-3.87 1 90.8 90.8 0 0 1-12.42 1.3c-9.62.48-19.56.49-29.09-1.09a33 33 0 0 1-4.3-.95l-.75-.25a1.53 1.53 0 0 1-.33-.14l-.48-.27c-.32-.19.1.06.08.08s-.26-.66 0 .08a3.22 3.22 0 0 1 0 1c-.07.15-.09.29-.1.16s.45-.19-.11.08c.2-.1.39-.24.59-.34s.3-.14 0 0l.33-.13.75-.25c.67-.21 1.36-.38 2.06-.53a78.38 78.38 0 0 1 11.54-1.4c5.3-.33 10.61-.4 15.92-.26a113.43 113.43 0 0 1 15 1.21 30.79 30.79 0 0 1 4.75 1.07c.27.09.53.18.78.29-.31-.14.28.16.38.21.41.21 0-.19.17.13a1.05 1.05 0 0 1-.26-.72c.14 2.33 3.78 2.35 3.64 0-.16-2.73-3.69-3.5-5.83-4a84.4 84.4 0 0 0-13.65-1.67 177.94 177.94 0 0 0-18-.11 98.61 98.61 0 0 0-14.55 1.52c-2.12.42-6 1-6.76 3.44-.88 2.72 2.56 3.93 4.53 4.47a66 66 0 0 0 12.68 1.8 174.79 174.79 0 0 0 17.88.32 106.8 106.8 0 0 0 16.55-1.55c2.37-.45 7-1.13 7.17-4.27.1-2.33-3.54-2.32-3.68.01ZM199.2 273.67v-8.89A45.15 45.15 0 0 1 200 254a31 31 0 0 1 21-22c5.43-1.66 11-1.41 16.57-1.41h38.87a1.85 1.85 0 0 0 1.82-1.82 30.66 30.66 0 0 1 18.89-28c7.92-3.29 16.78-2.43 25.16-2.43h9.9a1.86 1.86 0 0 0 1.82-1.83 27 27 0 0 1 18.59-25.32 34.54 34.54 0 0 1 11-1.43h20.62A1.84 1.84 0 0 0 386 168c0-11.57 9-21.32 20.39-22.91a28.06 28.06 0 0 1 28.32 14.6 26.64 26.64 0 0 1-4.94 31 28.09 28.09 0 0 1-14.92 7.69 48.78 48.78 0 0 1-8.8.39l-21.36-.06h-.51a1.85 1.85 0 0 0-1.82 1.83 28.13 28.13 0 0 1-18.7 26.11 34.29 34.29 0 0 1-11.64 1.69h-20.79a1.85 1.85 0 0 0-1.82 1.83v6.42a37.39 37.39 0 0 1-.23 7 15 15 0 0 1-14.76 12H226.23a18.76 18.76 0 0 0-17.63 12.31 17.64 17.64 0 0 0-1 5.77 1.82 1.82 0 0 0 3.64 0c0-8.13 7-14.44 14.91-14.51h88.1a18.85 18.85 0 0 0 16.63-9.7c2.83-5.32 2.13-11.53 2.13-17.35v-2l-1.78 1.89h20.53a38.79 38.79 0 0 0 12.24-1.66 32.2 32.2 0 0 0 15-10.26 31.4 31.4 0 0 0 7-19.58l-1.82 1.82 20.71.05a69.63 69.63 0 0 0 9.25-.26 31.84 31.84 0 0 0 17-7.76 30.37 30.37 0 0 0 7.86-34.06 31.62 31.62 0 0 0-29.61-19.06c-12.76.18-24.47 9.43-26.63 22.2a27.8 27.8 0 0 0-.4 4.56l1.82-1.82H363.9a39.35 39.35 0 0 0-11.82 1.4 31.23 31.23 0 0 0-14.94 10 30.21 30.21 0 0 0-6.8 19l1.82-1.82h-21.33a38.51 38.51 0 0 0-14.07 2.32 35.1 35.1 0 0 0-15.32 11.43 33.54 33.54 0 0 0-6.88 20.28l1.83-1.83h-37.32c-5.65 0-11.43-.34-17 1a34.87 34.87 0 0 0-24.36 21.18c-2.92 7.52-2.19 15.78-2.19 23.68v.9a1.82 1.82 0 0 0 3.64 0Z" transform="translate(-64.81 -64.81)"/><path d="M185.26 268.68v-28.29a33.46 33.46 0 0 1 .57-7.93c2.43-10.1 11.79-16.82 22-16.84h18.34c6.23 0 12.5.17 18.74 0h.33a1.85 1.85 0 0 0 1.82-1.82v-10.75a22.33 22.33 0 0 1 4.78-14.51 22.72 22.72 0 0 1 16.5-8.27c3.22-.14 6.47 0 9.69 0h11.37a1.84 1.84 0 0 0 1.82-1.82v-11.77a21.86 21.86 0 0 1 10.31-18.36 22.85 22.85 0 0 1 12-3.42 1.83 1.83 0 0 0 0-3.65 26.42 26.42 0 0 0-21.43 11 25 25 0 0 0-4.4 11.62 61.29 61.29 0 0 0-.16 7v7.5l1.82-1.82c-6.72 0-13.44-.06-20.16 0a26.49 26.49 0 0 0-18.66 7.9 25.4 25.4 0 0 0-7.15 17.57v11.73l1.82-1.82h-36.89c-10.11 0-19.78 5.24-24.22 14.55-3.13 6.58-2.49 13.8-2.49 20.87s-.12 13.91 0 20.85v.43a1.83 1.83 0 0 0 3.65 0Z" transform="translate(-64.81 -64.81)"/><path class="cls-2" d="M883.12 666.47v-54.23h-80.86v54.23a29.28 29.28 0 0 0-14.41 25.11v2.78c0 16.27 13.51 29.45 30.18 29.45h49.32c16.67 0 30.18-13.18 30.18-29.45v-2.78a29.28 29.28 0 0 0-14.41-25.11Z" transform="translate(-64.81 -64.81)"/><path d="M884 666.47v-54.23a.93.93 0 0 0-.92-.91h-80.82a.92.92 0 0 0-.91.91v54.23l.45-.79a30.66 30.66 0 0 0-14.66 22.49c-.9 7.69.29 15.72 4.53 22.3a31.31 31.31 0 0 0 20.54 13.72 62 62 0 0 0 11.24.53h43.86a31.67 31.67 0 0 0 22.56-9.47c11.87-12.23 11.48-33.8-.95-45.5a32.36 32.36 0 0 0-5.38-4.07c-1-.61-1.92 1-.92 1.58a28.94 28.94 0 0 1 12.3 14.74 34.92 34.92 0 0 1 1.5 15.83c-1.46 12.06-11 21.87-22.72 24.43-5.41 1.17-11.34.67-16.83.67h-25.31c-5 0-10 .19-14.95 0-12.09-.55-23.12-8.73-26.65-20.39a28.72 28.72 0 0 1-1.2-8.29 42.82 42.82 0 0 1 .38-7.25 28.58 28.58 0 0 1 9.37-16.63 46.61 46.61 0 0 1 4-3 1.21 1.21 0 0 0 .61-1c.05-.53 0-1.1 0-1.63v-52.5l-.91.91h80.86l-.91-.91v54.23a.92.92 0 0 0 1.84 0Z" transform="translate(-64.81 -64.81)"/><ellipse cx="777.88" cy="547.2" rx="40.43" ry="7.48"/><path d="M882.21 612a1.26 1.26 0 0 1-.45.77 5.86 5.86 0 0 1-1.48 1 25 25 0 0 1-5.52 1.87 106.71 106.71 0 0 1-18.59 2.53 208 208 0 0 1-24.08.16 124.26 124.26 0 0 1-19.61-2.26 37.3 37.3 0 0 1-6.29-1.8c-1-.41-2.41-1-2.94-2a.59.59 0 0 1 0-.6 2.79 2.79 0 0 1 .93-.91 16.06 16.06 0 0 1 4.75-2 90.63 90.63 0 0 1 17.7-2.79 205.83 205.83 0 0 1 23.69-.48 143.13 143.13 0 0 1 20.56 2 50.59 50.59 0 0 1 7 1.7 10.11 10.11 0 0 1 3.91 2 1.32 1.32 0 0 1 .45.77c0 1.17 1.86 1.18 1.83 0-.11-3.16-5.15-4.39-7.48-5a99 99 0 0 0-19.31-2.86 207.73 207.73 0 0 0-26-.2 118.62 118.62 0 0 0-20.5 2.58 29.45 29.45 0 0 0-6.28 2.07c-1.15.56-2.51 1.38-2.94 2.66-1 3 3.62 4.63 5.68 5.32 5.76 1.9 12 2.58 18 3.12a204.47 204.47 0 0 0 25.84.58 135.93 135.93 0 0 0 21.77-2.31 39.47 39.47 0 0 0 6.9-1.92 8.26 8.26 0 0 0 3.82-2.48A2.73 2.73 0 0 0 884 612c.07-1.16-1.75-1.16-1.79 0Z" transform="translate(-64.81 -64.81)"/><path d="M737.68 565.57h80.86"/><path d="M802.49 631.29h80.87a.91.91 0 0 0 0-1.82h-80.87a.91.91 0 0 0 0 1.82Z" transform="translate(-64.81 -64.81)"/><path d="M737.68 573.73h80.86"/><path d="M802.49 639.46h80.87a.92.92 0 0 0 0-1.83h-80.87a.92.92 0 0 0 0 1.83ZM789.71 681.51l10.1 5.9a.94.94 0 0 0 .92 0l12.18-7.26H812l12.19 7.26a.94.94 0 0 0 .92 0l12.18-7.26h-.92l12.19 7.26a.94.94 0 0 0 .92 0l12.19-7.26h-.92l12.19 7.26a.94.94 0 0 0 .92 0l12.14-7.26h-.92l10.57 6.35c1 .61 1.92-1 .92-1.57L886 678.58a.89.89 0 0 0-.92 0l-12.18 7.25h.92l-12.19-7.25a.89.89 0 0 0-.92 0l-12.19 7.25h.92l-12.19-7.25a.89.89 0 0 0-.92 0l-12.18 7.25h.92l-12.19-7.25a.89.89 0 0 0-.92 0l-12.18 7.25h.92l-10.1-5.89a.91.91 0 0 0-.92 1.57ZM787.62 697.84l12.19 7.26a.94.94 0 0 0 .92 0l12.18-7.26H812l12.19 7.26a.94.94 0 0 0 .92 0l12.18-7.26h-.92l12.19 7.26a.94.94 0 0 0 .92 0l12.19-7.26h-.92l12.19 7.26a.94.94 0 0 0 .92 0l12.14-7.26h-.92l10.57 6.35a.91.91 0 0 0 .92-1.57L886 696.27a.89.89 0 0 0-.92 0l-12.18 7.25h.92l-12.19-7.25a.89.89 0 0 0-.92 0l-12.19 7.25h.92l-12.19-7.25a.89.89 0 0 0-.92 0l-12.18 7.25h.92l-12.19-7.25a.89.89 0 0 0-.92 0l-12.18 7.25h.92l-12.19-7.25a.91.91 0 0 0-.92 1.57Z" transform="translate(-64.81 -64.81)"/><path class="cls-6" d="m295.69 427.46 26.03 11.34"/><path d="m359.59 493.85 22.74 9.91 3.28 1.43a1.9 1.9 0 0 0 2.5-.66 1.83 1.83 0 0 0-.66-2.49l-22.74-9.91-3.28-1.43a1.9 1.9 0 0 0-2.5.66 1.83 1.83 0 0 0 .66 2.49Z" transform="translate(-64.81 -64.81)"/><ellipse class="cls-4" cx="58.96" cy="112.48" rx="56.77" ry="55.94"/><path d="M178.36 177.29a53.72 53.72 0 0 1-10.07 31.15 54.54 54.54 0 0 1-25.57 19.29 55.82 55.82 0 0 1-33.89 1.27 55.08 55.08 0 0 1-27.2-17.54 53.06 53.06 0 0 1-4.63-61.9 55.07 55.07 0 0 1 86.17-9.47 52.7 52.7 0 0 1 15.18 37.2c0 2.82 4.38 2.82 4.38 0a57.76 57.76 0 0 0-10.87-33.61 59.42 59.42 0 0 0-93.44-3.53A58.19 58.19 0 0 0 65 172.79a57.53 57.53 0 0 0 8.33 34.59 59 59 0 0 0 26 22.79 60.49 60.49 0 0 0 36.32 4.08 59.18 59.18 0 0 0 30.8-16.78 57.83 57.83 0 0 0 15.61-31 61.06 61.06 0 0 0 .74-9.16c-.06-2.83-4.43-2.83-4.44-.02Z" transform="translate(-64.81 -64.81)"/><path class="cls-2" d="M177 128a12.48 12.48 0 0 0-17.08 0 265.06 265.06 0 0 0-34.56 38.72q-1.78 2.39-3.49 4.82-4.91-5.25-10.1-10.21c-4.54-4.34-12.62-4.79-17.08 0s-4.85 12.2 0 16.83c2.44 2.33 4.82 4.73 7.16 7.15 2.13 2.2 4.22 4.42 6.27 6.69q1.7 1.88 3.33 3.81c.5.59 1 1.18 1.48 1.78l.71.88c.21.26.19.22.06.06 2.49 2.94 5.45 4.94 9.66 4.94a12.17 12.17 0 0 0 10.43-5.89 181.56 181.56 0 0 1 10.88-16.74q1.33-1.84 2.72-3.67l1.37-1.78.24-.31c1.84-2.31 3.73-4.59 5.64-6.84q8.84-10.36 18.64-19.89c1.22-1.18 2.44-2.35 3.7-3.48 4.7-4.24 4.69-12.64.02-16.87Z" transform="translate(-64.81 -64.81)"/><path d="M178.56 126.47a15.14 15.14 0 0 0-13-3.73c-5.06 1-8.64 5-12.19 8.39a257 257 0 0 0-22.07 24.34c-3.92 4.88-7.73 9.86-11.33 15l3.43-.45c-2.28-2.44-4.62-4.85-7-7.2-2-2-4-4.15-6.51-5.42a14.85 14.85 0 0 0-14.24.36 14.67 14.67 0 0 0-6.59 13 13.37 13.37 0 0 0 2.52 7.13c1.89 2.54 4.48 4.63 6.7 6.88 2.59 2.63 5.15 5.31 7.63 8q1.88 2.06 3.69 4.17c.6.71 1.19 1.42 1.78 2.14a5.34 5.34 0 0 0 1.29 1.39c1.76 1.06 4.36-1.18 3-3l-.09-.12-3.44 2.65a14.94 14.94 0 0 0 8.5 5.32 14.61 14.61 0 0 0 10.46-2c3.49-2.24 5.14-5.8 7.24-9.22q3.42-5.56 7.23-10.89a221.75 221.75 0 0 1 15.42-19q4.32-4.82 8.85-9.43c2.94-3 6.08-5.81 9-8.79a14.12 14.12 0 0 0-.35-19.59c-2.06-1.93-5.15 1.16-3.09 3.09 3.62 3.39 3.9 9.83.35 13.4-2.69 2.71-5.55 5.25-8.23 8s-5.56 5.74-8.25 8.7c-5.08 5.58-10 11.34-14.52 17.37-2.35 3.13-4.62 6.33-6.78 9.59s-4.19 6.82-6.31 10.22a10 10 0 0 1-8 4.49c-3.56.11-6.24-1.69-8.48-4.3-1.6-1.86-4.94.65-3.44 2.65l.09.12 3-3c.66.39.1-.08-.06-.27s-.43-.54-.65-.8c-.39-.48-.78-1-1.18-1.43-1-1.11-1.9-2.21-2.88-3.29-2-2.21-4-4.38-6-6.51s-4.15-4.26-6.28-6.34c-1.63-1.59-3.24-3-3.94-5.26a10.4 10.4 0 0 1 3-10.58c2.77-2.52 7.14-2.75 10.47-1.31 2.42 1 4.17 3.1 6 4.91q3.57 3.53 7 7.21a2.22 2.22 0 0 0 3.44-.45 283.33 283.33 0 0 1 18.86-23.88q5-5.67 10.28-11c1.76-1.78 3.56-3.53 5.38-5.25a28.41 28.41 0 0 1 5.23-4.38 10.39 10.39 0 0 1 11.95 1.45c2.12 1.86 5.23-1.22 3.11-3.08Z" transform="translate(-64.81 -64.81)"/><ellipse class="cls-4" cx="603.48" cy="58.13" rx="56.77" ry="55.94"/><path d="M722.88 122.94a53.66 53.66 0 0 1-10.08 31.15 54.53 54.53 0 0 1-25.56 19.29 56 56 0 0 1-33.89 1.28 55.08 55.08 0 0 1-27.2-17.54 53.08 53.08 0 0 1-4.62-61.92 55.08 55.08 0 0 1 86.17-9.46 52.7 52.7 0 0 1 15.18 37.2c0 2.82 4.38 2.82 4.38 0a57.76 57.76 0 0 0-10.87-33.61A59.42 59.42 0 0 0 623 85.8a57.49 57.49 0 0 0-5.17 67.2 59 59 0 0 0 26 22.79 60.49 60.49 0 0 0 36.32 4.08 59.25 59.25 0 0 0 30.8-16.78 57.83 57.83 0 0 0 15.61-31 61.16 61.16 0 0 0 .74-9.16c-.04-2.8-4.41-2.81-4.42.01Z" transform="translate(-64.81 -64.81)"/><path class="cls-2" d="M721.53 73.66a12.47 12.47 0 0 0-17.08 0c-12.84 11.58-24.29 24.92-34.56 38.71-1.19 1.6-2.35 3.2-3.49 4.83q-4.9-5.2-10.1-10.2c-4.54-4.34-12.62-4.79-17.08 0s-4.85 12.2 0 16.83c2.44 2.33 4.81 4.73 7.16 7.15q3.2 3.28 6.27 6.69 1.7 1.88 3.33 3.81c.5.59 1 1.18 1.48 1.78l.71.88c.21.26.19.22.06.05 2.49 2.95 5.45 4.95 9.66 4.95a12.15 12.15 0 0 0 10.43-5.9 182.76 182.76 0 0 1 10.88-16.74c.89-1.23 1.8-2.46 2.72-3.67.45-.6.91-1.19 1.37-1.79l.24-.31c1.84-2.31 3.73-4.59 5.64-6.84Q708 103.51 717.83 94c1.22-1.18 2.44-2.35 3.7-3.49 4.67-4.23 4.66-12.63 0-16.85Z" transform="translate(-64.81 -64.81)"/><path d="M723.08 72.11a15.1 15.1 0 0 0-13-3.72c-5.06 1-8.64 5-12.19 8.38a258.3 258.3 0 0 0-22.07 24.35c-3.92 4.88-7.73 9.86-11.33 15l3.43-.45q-3.42-3.68-7-7.21c-2-2-4-4.15-6.51-5.41a14.85 14.85 0 0 0-14.24.36 14.66 14.66 0 0 0-6.59 13 13.37 13.37 0 0 0 2.52 7.13c1.89 2.54 4.48 4.63 6.7 6.88 2.59 2.63 5.15 5.3 7.63 8q1.88 2.06 3.69 4.17c.6.71 1.19 1.42 1.77 2.14a5.73 5.73 0 0 0 1.3 1.39c1.76 1.06 4.36-1.18 3-3l-.09-.12-3.44 2.65a15 15 0 0 0 8.5 5.32 14.66 14.66 0 0 0 10.46-2c3.49-2.23 5.14-5.79 7.24-9.21q3.42-5.58 7.23-10.89a220.22 220.22 0 0 1 15.42-19q4.32-4.82 8.84-9.43c3-3 6.09-5.82 9.06-8.8a14.13 14.13 0 0 0-.35-19.59c-2.06-1.92-5.15 1.17-3.09 3.1 3.62 3.39 3.9 9.83.35 13.4-2.69 2.7-5.55 5.25-8.23 8s-5.56 5.74-8.25 8.7c-5.08 5.58-10 11.33-14.52 17.37-2.35 3.13-4.62 6.32-6.78 9.59s-4.19 6.82-6.31 10.22a10 10 0 0 1-8 4.49c-3.56.11-6.24-1.69-8.48-4.3-1.6-1.86-4.94.65-3.44 2.65l.09.11 3-3c.66.4.1-.07-.06-.27l-.65-.8-1.18-1.42c-.95-1.11-1.9-2.21-2.88-3.29-2-2.21-4-4.38-6-6.51s-4.15-4.26-6.28-6.34c-1.63-1.59-3.24-3-3.94-5.27a10.37 10.37 0 0 1 3-10.57c2.77-2.52 7.13-2.76 10.47-1.32 2.42 1 4.17 3.1 6 4.92 2.38 2.35 4.71 4.76 7 7.2a2.22 2.22 0 0 0 3.44-.44 283.33 283.33 0 0 1 18.86-23.88q5-5.67 10.28-11c1.76-1.78 3.56-3.53 5.38-5.25a27.71 27.71 0 0 1 5.16-4.38 10.39 10.39 0 0 1 12 1.45c2.09 1.85 5.2-1.21 3.08-3.1Z" transform="translate(-64.81 -64.81)"/><ellipse class="cls-4" cx="858.2" cy="184.97" rx="56.77" ry="55.94"/><path d="M977.6 249.79a53.64 53.64 0 0 1-10.07 31.14A54.51 54.51 0 0 1 942 300.22a55.85 55.85 0 0 1-33.9 1.28 55.08 55.08 0 0 1-27.23-17.5 53.11 53.11 0 0 1-4.62-61.91 55.07 55.07 0 0 1 86.17-9.47A53.87 53.87 0 0 1 977 241.46a52.74 52.74 0 0 1 .63 8.33c0 2.81 4.39 2.81 4.38 0a57.77 57.77 0 0 0-10.87-33.62 59.42 59.42 0 0 0-93.44-3.53 58.11 58.11 0 0 0-13.43 32.64 57.52 57.52 0 0 0 8.32 34.59 59 59 0 0 0 26 22.79 60.49 60.49 0 0 0 36.32 4.08A59.15 59.15 0 0 0 965.63 290a57.83 57.83 0 0 0 15.61-31 61 61 0 0 0 .74-9.15c.02-2.85-4.37-2.85-4.38-.06Z" transform="translate(-64.81 -64.81)"/><path class="cls-2" d="M976.25 200.5a12.48 12.48 0 0 0-17.08 0 265.06 265.06 0 0 0-34.56 38.72q-1.79 2.39-3.49 4.82c-3.26-3.5-6.64-6.9-10.1-10.21-4.54-4.34-12.62-4.79-17.08 0s-4.85 12.2 0 16.83q3.66 3.51 7.16 7.15c2.13 2.2 4.23 4.42 6.27 6.69 1.13 1.26 2.24 2.52 3.33 3.81.5.59 1 1.18 1.48 1.78l.71.88c.21.26.19.22.06.06 2.49 2.94 5.45 4.94 9.66 4.94a12.14 12.14 0 0 0 10.39-5.89 183.66 183.66 0 0 1 10.88-16.74q1.33-1.84 2.72-3.66c.45-.6.91-1.2 1.37-1.79.11-.14.2-.26.25-.31q2.76-3.47 5.63-6.84 8.85-10.36 18.65-19.89c1.21-1.17 2.44-2.35 3.69-3.48 4.74-4.25 4.73-12.65.06-16.87Z" transform="translate(-64.81 -64.81)"/><path d="M977.8 199a15.09 15.09 0 0 0-13-3.72c-5.06 1-8.64 5-12.19 8.38A257 257 0 0 0 930.56 228c-3.91 4.88-7.73 9.86-11.33 15l3.44-.44q-3.43-3.67-7-7.21c-2-2-3.95-4.15-6.51-5.41a14.82 14.82 0 0 0-14.24.35 14.67 14.67 0 0 0-6.59 13.05 13.37 13.37 0 0 0 2.52 7.13c1.89 2.54 4.48 4.63 6.7 6.88 2.59 2.64 5.15 5.31 7.64 8 1.24 1.38 2.47 2.76 3.68 4.18.6.7 1.19 1.41 1.78 2.13a5.38 5.38 0 0 0 1.3 1.39c1.75 1.06 4.35-1.18 3-3l-.09-.12-3.44 2.65a15 15 0 0 0 8.51 5.33 14.65 14.65 0 0 0 10.45-2c3.49-2.24 5.14-5.8 7.24-9.22q3.42-5.56 7.23-10.89a223.31 223.31 0 0 1 15.42-19q4.32-4.82 8.85-9.43c2.95-3 6.08-5.81 9-8.79a14.12 14.12 0 0 0-.32-19.58c-2-1.92-5.15 1.16-3.09 3.09 3.63 3.4 3.91 9.83.35 13.4-2.69 2.71-5.55 5.25-8.23 8s-5.56 5.74-8.25 8.7c-5.08 5.58-10 11.34-14.52 17.37-2.35 3.13-4.62 6.33-6.78 9.59s-4.19 6.82-6.31 10.22a10 10 0 0 1-8 4.49c-3.56.11-6.24-1.69-8.48-4.3-1.6-1.86-4.94.65-3.44 2.65l.09.12 3-3c.66.39.1-.08-.06-.27l-.64-.8-1.19-1.43c-.94-1.11-1.9-2.2-2.87-3.29a287.838 287.838 0 0 0-12.33-12.84c-1.63-1.6-3.25-3-3.95-5.27a10.4 10.4 0 0 1 3-10.58c2.77-2.52 7.14-2.75 10.47-1.31 2.42 1 4.17 3.1 6 4.91q3.57 3.54 7 7.21a2.23 2.23 0 0 0 3.44-.44 281.88 281.88 0 0 1 18.86-23.89q5-5.67 10.28-11 2.64-2.67 5.39-5.25a27.59 27.59 0 0 1 5.22-4.37 10.37 10.37 0 0 1 12 1.44c2.05 1.75 5.16-1.33 3.04-3.15Z" transform="translate(-64.81 -64.81)"/></svg>