<svg xmlns="http://www.w3.org/2000/svg" viewBox="0 0 714.88 614.73"><defs><style>.cls-1{fill:#fc7f3a}.cls-2{fill:#fff}.cls-3{fill:#a8542a}.cls-4{fill:#ffc41f}.cls-5{fill:#458dc9}</style></defs><g id="Ebene_2" data-name="Ebene 2"><path class="cls-1" d="M496.41 154s20-21.52 47.66-15.88 20.87 34.81 13.51 45.85" transform="translate(-141.46 -102.13)"/><path d="M497.5 155a49.11 49.11 0 0 1 9.12-7.39 52.69 52.69 0 0 1 24.38-8.79c8.74-.72 19.27.64 25.75 7.16 4.75 4.78 6.16 11.61 5.73 18.14a39.65 39.65 0 0 1-6.22 19c-1.09 1.65 1.57 3.2 2.66 1.55a43.06 43.06 0 0 0 6.42-18.24c.87-7-.1-14.57-4.44-20.33-5.82-7.73-15.95-10.34-25.21-10.52a53.48 53.48 0 0 0-27.69 7.59 54.79 54.79 0 0 0-12.7 9.7c-1.35 1.44.82 3.62 2.17 2.17Z" transform="translate(-141.46 -102.13)"/><path class="cls-2" d="m547.46 250.81-83.4 112.94c-4.93-6.55-19.31-33.42-27.56-40.65a167.24 167.24 0 0 0-13.34-10.58L464 258.41a30.5 30.5 0 0 1 20.86-11.92l45.59-5.24" transform="translate(-141.46 -102.13)"/><path d="m546.13 250-8.33 11.28-19.86 26.9-24.16 32.71L473 349l-6.88 9.33a49.64 49.64 0 0 0-3.26 4.41c0 .07-.1.13-.14.19h2.65c-1.77-2.37-3.29-4.94-4.84-7.46-2.26-3.69-4.48-7.4-6.76-11.09-4.38-7.11-8.78-14.61-14.5-20.74a63.35 63.35 0 0 0-6.2-5.49q-4.45-3.65-9.16-7l.55 2.1 11.87-15.71L457.15 270l6.85-9a33.69 33.69 0 0 1 9.32-8.92c4.43-2.68 9.22-3.74 14.26-4.31l14-1.61 28.36-3.25.56-.07c1.94-.22 2-3.3 0-3.07l-25 2.87-15.7 1.8c-3.81.44-7.66.74-11.33 2a33.12 33.12 0 0 0-16.09 11.77l-5.38 7.14-20.48 27.12-9.52 12.37c-1.65 2.19-3.41 4.34-5 6.59a3.55 3.55 0 0 1-.23.31 1.56 1.56 0 0 0 .55 2.1q4.08 2.91 8 6.07a78.69 78.69 0 0 1 6.11 5.26 61.34 61.34 0 0 1 6.7 8.46c5 7.21 9.46 14.78 14 22.27 1.77 2.91 3.5 5.89 5.55 8.62a1.56 1.56 0 0 0 2.65 0l8.34-11.28 19.85-26.89 24.16-32.72 20.76-28.11 6.89-9.33c1.08-1.46 2.28-2.88 3.26-4.41a1.33 1.33 0 0 1 .14-.19c1.17-1.59-1.49-3.13-2.66-1.55Z" transform="translate(-141.46 -102.13)"/><path d="M463.78 363.86c2.68-3.05-.32-10.49-7.16-19.57l-15 14c10.77 6.37 19.32 8.81 22.16 5.57Z" transform="translate(-141.46 -102.13)"/><path d="M464.87 365c2.06-2.46 1.52-5.83.52-8.64-1.65-4.66-4.5-8.86-7.44-12.79a1.57 1.57 0 0 0-2.42-.32l-13.07 12.21-1.9 1.78a1.55 1.55 0 0 0 .31 2.41c4.61 2.73 9.56 5.38 14.8 6.66 3 .72 6.91 1.19 9.2-1.31 1.33-1.46-.83-3.64-2.17-2.17a3.34 3.34 0 0 1-2.41 1 14.45 14.45 0 0 1-4.61-.66 55.8 55.8 0 0 1-13.26-6.17l.31 2.41 13.08-12.2 1.9-1.78-2.42-.31a50.82 50.82 0 0 1 6.85 11.28 13.25 13.25 0 0 1 1.06 4 4.38 4.38 0 0 1-.08 1.43 2.66 2.66 0 0 1-.42.95c-1.27 1.5.9 3.69 2.17 2.22Z" transform="translate(-141.46 -102.13)"/><path class="cls-3" d="M436.5 323.1a167.24 167.24 0 0 0-13.34-10.58L408 330.76l-4.3 5.24-96.55-58.13L289 309.09l83 65.68c30.21 18 43.4 18.26 60 4L444.26 368l17.49-16.25c-7.18-13.12-17-21.42-25.25-28.65Z" transform="translate(-141.46 -102.13)"/><path d="M437.59 322a173.89 173.89 0 0 0-13.66-10.82 1.53 1.53 0 0 0-1.86.24l-15.15 18.25-4.31 5.19 1.87-.24-9.58-5.77-23.12-13.92-27.86-16.77-24.09-14.51c-3.9-2.34-7.74-4.88-11.73-7.06l-.17-.1a1.55 1.55 0 0 0-2.1.55L290 304.4l-2.27 3.92a1.54 1.54 0 0 0 .24 1.86l6.25 4.95 15.61 12.35 20.22 16 20.09 15.9 15.21 12a71.27 71.27 0 0 0 8 5.92 134.65 134.65 0 0 0 19.49 9.72 46.22 46.22 0 0 0 15.32 3.39c9.6.24 18-4.5 25-10.63 4.19-3.64 8.41-7.27 12.49-11 5.24-4.84 10.46-9.72 15.7-14.58l1.5-1.39a1.57 1.57 0 0 0 .24-1.87 82.4 82.4 0 0 0-12.33-16.67c-4.13-4.36-8.65-8.3-13.16-12.26-1.48-1.3-3.66.87-2.17 2.18 4.41 3.87 8.84 7.72 12.89 12a79.64 79.64 0 0 1 12.12 16.33l.24-1.86-14.49 13.45c-4.06 3.78-8.24 7.42-12.4 11.09-5.88 5.19-12.1 10.26-20 11.78-10.59 2-21.46-2.91-30.61-7.67-3.38-1.76-6.88-3.55-10.08-5.6a5.32 5.32 0 0 1-.46-.37l-3.23-2.55L355.79 360l-19.21-15.2-20.4-16.15-16.9-13.37-8.77-6.94-.41-.32.24 1.86 15.87-27.35 2.27-3.92-2.1.55 9.58 5.77 23.11 13.92 27.87 16.78L391 330.12c3.89 2.35 7.73 4.88 11.72 7.06l.17.1a1.54 1.54 0 0 0 1.87-.24l16.5-19.87 2.95-3.57-1.86.24a166.27 166.27 0 0 1 13 10.35c1.55 1.3 3.73-.87 2.24-2.19ZM608 388l1.21 6.23a19.93 19.93 0 0 1-10.07 21.31l-14.29 7.74-5.13-36.1" transform="translate(-141.46 -102.13)"/><path d="M606.52 388.45c.42 2.14.85 4.27 1.24 6.42a18.45 18.45 0 0 1-2.82 13.4c-3.39 5.12-9.48 7.55-14.7 10.38l-6.16 3.35 2.26.92-4.51-31.66-.63-4.44a1.54 1.54 0 0 0-1.89-1.07 1.56 1.56 0 0 0-1.07 1.89l4.5 31.65.63 4.44a1.55 1.55 0 0 0 2.26.92l13.37-7.26a23.55 23.55 0 0 0 8-6.69 21.38 21.38 0 0 0 4.08-13.87 74 74 0 0 0-1.58-9.2c-.38-1.94-3.34-1.12-3 .82Z" transform="translate(-141.46 -102.13)"/><path class="cls-3" d="m668.6 489.05 57.4-30.37 41.94 78.59s-21.55 13.22-39.56-14.75a11.92 11.92 0 0 0-15.75-4c-6.92 3.78-13.61 7.47-13.61 7.47" transform="translate(-141.46 -102.13)"/><path d="m669.38 490.38 19.34-10.25 30.88-16.35 7.14-3.78-2.11-.55 4.18 7.83 10 18.78 12.06 22.62 10.49 19.66 3.48 6.51a24.19 24.19 0 0 0 1.63 3.06s0 .09.08.14l.55-2.1c-.41.24-.84.45-1.27.65l-.67.31c-.24.1.28-.11-.09 0l-.51.2c-.66.25-1.32.47-2 .67a24.13 24.13 0 0 1-11.61.6c-5.93-1.17-11.05-4.55-15.2-8.85a46.74 46.74 0 0 1-4.06-4.83 52.13 52.13 0 0 0-3.59-5 13.67 13.67 0 0 0-9.37-4.27c-4.71-.19-8.63 2.57-12.59 4.75l-8 4.38c-1.73 1-.18 3.62 1.55 2.66l6.44-3.55 6.3-3.45a12 12 0 0 1 5.07-1.7 10.56 10.56 0 0 1 8.94 4c1.31 1.68 2.39 3.54 3.7 5.23a49 49 0 0 0 4 4.59 32 32 0 0 0 15.54 8.92 27.83 27.83 0 0 0 12.77-.3 22.85 22.85 0 0 0 6.11-2.42 1.56 1.56 0 0 0 .55-2.1l-4.18-7.83-10-18.79L743 487.27l-10.49-19.66c-1.69-3.17-3.24-6.5-5.11-9.57 0-.05-.05-.09-.07-.14a1.56 1.56 0 0 0-2.1-.55l-19.35 10.24L675 483.94l-7.14 3.78c-1.75.93-.19 3.58 1.56 2.66Z" transform="translate(-141.46 -102.13)"/><path class="cls-4" d="M711.27 519.21c7-4 13.68-2 17.07 3.31 18 28 39.56 14.75 39.56 14.75L726 458.68l-23.51 12.54a7.33 7.33 0 0 0-8.84 4.22l-.27.64c2.17 5.92 7.24 7.89 10.92 8.53a8.74 8.74 0 0 1 6.42 4.92A8.81 8.81 0 0 1 707 501l-3.09 1.74Z" transform="translate(-141.46 -102.13)"/><path d="M712 520.53a12.18 12.18 0 0 1 9.55-1.45c3.15 1 4.8 3.36 6.58 5.94 3.59 5.2 8 10 13.56 13.16a27.87 27.87 0 0 0 22.32 2.41 21.56 21.56 0 0 0 4.63-2 1.56 1.56 0 0 0 .55-2.1l-4.18-7.83-10-18.79-12.01-22.6-10.49-19.66c-1.69-3.17-3.24-6.5-5.11-9.57 0-.05-.05-.09-.07-.14a1.56 1.56 0 0 0-2.1-.55l-20.56 11-3 1.58 1.19-.15a9 9 0 0 0-10 3.81 8.49 8.49 0 0 0-.94 2c-.31 1 .35 2.06.79 2.93a13.53 13.53 0 0 0 3.56 4.33 16 16 0 0 0 4.56 2.52c1.5.54 3.13.64 4.6 1.22a7.35 7.35 0 0 1 4.13 9.19c-1 3-3.84 4.21-6.4 5.66a1.58 1.58 0 0 0-.55 2.1l7.33 16.46c.8 1.81 3.45.24 2.65-1.55l-7.33-16.51-.55 2.1c2-1.13 4.25-2.15 5.79-3.94a10.42 10.42 0 0 0 1.87-10.47 10.7 10.7 0 0 0-8.3-6.6 12.44 12.44 0 0 1-7.87-4.72 11.84 11.84 0 0 1-.66-1.07c-.12-.22-.23-.44-.34-.66s-.47-.78-.29-.33c.08.23-.11.2.05-.07 0-.08.07-.18.11-.26a6.45 6.45 0 0 1 .71-1.19 5.82 5.82 0 0 1 4.58-2.25c1.06 0 2 .51 3 0 .4-.2.79-.43 1.18-.64l12.09-6.44 10.11-5.4-2.11-.55 4.18 7.83 10 18.78 12.06 22.62 10.49 19.66 3.48 6.51a24.19 24.19 0 0 0 1.63 3.06s0 .09.08.14l.55-2.1c-.3.18-.62.34-.93.49s-.73.35-1.11.51c.37-.16-.25.1-.38.15l-.8.3a25 25 0 0 1-8.93 1.45c-11.28-.23-19.48-8.44-25.41-17.25a13.31 13.31 0 0 0-8-5.71 15.64 15.64 0 0 0-11.09 2c-1.69.95-.14 3.61 1.55 2.64Z" transform="translate(-141.46 -102.13)"/><path class="cls-2" d="M737.16 476.14a3.4 3.4 0 0 0 4.63 1.24l2.77-1.61 32.17 60.48s-6.64 4.09-12.34 4.79l-43.11-79.93 11.86-6.91 8.25 15.58-3 1.74a3.38 3.38 0 0 0-1.23 4.62Z" transform="translate(-141.46 -102.13)"/><path d="M735.83 476.92a5 5 0 0 0 6.42 1.94c1.07-.5 2.07-1.17 3.09-1.76l-2.11-.55 10.9 20.45 17.3 32.52 4 7.47.55-2.1a31.71 31.71 0 0 1-12 4.63l1.73.71-4.29-8-10.26-19-12.46-23.06-10.79-20-3.54-6.57a25.57 25.57 0 0 0-1.69-3.14s0-.1-.08-.14l-.55 2.1 11.87-6.9-2.1-.55 8.24 15.58.56-2.1c-1 .6-2.14 1.16-3.14 1.82a5 5 0 0 0-1.65 6.64c.91 1.76 3.56.2 2.66-1.56-1.15-2.23 2.22-3.4 3.68-4.25a1.56 1.56 0 0 0 .55-2.1l-8.25-15.59a1.56 1.56 0 0 0-2.1-.55l-11.87 6.91a1.57 1.57 0 0 0-.55 2.1l4.29 8 10.26 19L747 512l10.78 20c1.74 3.22 3.32 6.6 5.24 9.71l.07.14a1.6 1.6 0 0 0 1.74.7 33.91 33.91 0 0 0 12.7-4.94 1.57 1.57 0 0 0 .55-2.1L767.16 515l-17.3-32.52-4-7.47a1.57 1.57 0 0 0-2.11-.56c-1.45.85-3.94 3-5.29.92-1.04-1.66-3.71-.12-2.63 1.55Z" transform="translate(-141.46 -102.13)"/><path class="cls-2" d="m563.41 373.54-2.29-4.46"/><path d="m706.19 474.9-2-3.91-.28-.55a1.54 1.54 0 0 0-2.1-.55 1.56 1.56 0 0 0-.55 2.1l2 3.91.28.55a1.54 1.54 0 0 0 2.65-1.55Z" transform="translate(-141.46 -102.13)"/><path class="cls-2" d="M721.49 517.46s-1.25-4.06 3.24-7" transform="translate(-141.46 -102.13)"/><path d="M723 517.05c0-.06 0-.12-.05-.17a1.55 1.55 0 0 0 0-.21c-.07-.38.05.46 0 .1a5.32 5.32 0 0 1 0-.69V515.4v.1a6.63 6.63 0 0 1 .28-1.06c0-.13.23-.4 0 0a2 2 0 0 0 .1-.21c.1-.2.21-.39.32-.58l.19-.29.11-.14-.07.09a5.57 5.57 0 0 1 .52-.57c.19-.2.41-.38.62-.57s.12-.09 0 0l.18-.14.4-.27a1.54 1.54 0 0 0-1.55-2.66 9.19 9.19 0 0 0-3.73 4.46 7.14 7.14 0 0 0-.38 3.3 6.28 6.28 0 0 0 .16 1 1.54 1.54 0 0 0 3-.82Z" transform="translate(-141.46 -102.13)"/><path class="cls-2" d="M726.94 520.82s-1.25-4.06 3.24-7" transform="translate(-141.46 -102.13)"/><path d="M728.42 520.41a1 1 0 0 1 0-.17 1.55 1.55 0 0 1 0-.21c-.07-.38 0 .46 0 .1a5.31 5.31 0 0 1 0-.69 3.24 3.24 0 0 1 0-.44v-.24.11a5.64 5.64 0 0 1 .29-1.07c.05-.13.22-.4 0 0a2 2 0 0 1 .1-.21 4.71 4.71 0 0 1 .32-.58l.19-.29.1-.14-.07.09c.17-.19.34-.39.52-.57s.41-.38.63-.57a1.33 1.33 0 0 1 .19-.14l.39-.27a1.54 1.54 0 0 0-1.55-2.65 9.2 9.2 0 0 0-3.73 4.46 7.08 7.08 0 0 0-.38 3.29 5.27 5.27 0 0 0 .17 1 1.54 1.54 0 1 0 3-.82Z" transform="translate(-141.46 -102.13)"/><path class="cls-2" d="M730.49 524.71s-1.25-4.06 3.24-7" transform="translate(-141.46 -102.13)"/><path d="M732 524.31c0-.06 0-.12-.05-.18a1.77 1.77 0 0 0 0-.2c-.07-.38.05.46 0 .1s0-.46 0-.69v-.44a1.94 1.94 0 0 0 0-.24v.1a5.52 5.52 0 0 1 .28-1.06c0-.13.23-.41 0 0a2.14 2.14 0 0 0 .1-.22 6.38 6.38 0 0 1 .32-.57l.19-.29.11-.15c-.15.2-.18.23-.07.1s.33-.39.51-.58.42-.38.63-.56.12-.09-.05 0l.19-.13a3.51 3.51 0 0 1 .4-.27 1.54 1.54 0 1 0-1.56-2.66 9.13 9.13 0 0 0-3.72 4.46 7 7 0 0 0-.38 3.29 5.89 5.89 0 0 0 .16 1 1.54 1.54 0 0 0 3-.81Z" transform="translate(-141.46 -102.13)"/><path class="cls-3" d="m440.69 646.81-23.75 60.41-83-32.33s7.74-24.07 39.62-14.57a11.94 11.94 0 0 0 14.6-7.18c2.79-7.38 5.46-14.54 5.46-14.54" transform="translate(-141.46 -102.13)"/><path d="m439.21 646.4-8 20.38-12.79 32.51-3 7.52 1.89-1.08-8.27-3.21-19.84-7.73-23.89-9.31-20.76-8.08-6.88-2.68a27 27 0 0 0-3.23-1.26.59.59 0 0 1-.14-.06l1.07 1.9a3.59 3.59 0 0 1 .12-.35c.06-.12.1-.25.15-.37.11-.29-.07.16 0 .1s.08-.2.13-.3a26.46 26.46 0 0 1 1.69-3.15 24.5 24.5 0 0 1 7.69-7.71 27.7 27.7 0 0 1 15.63-3.87 47.77 47.77 0 0 1 11.57 1.92 14.29 14.29 0 0 0 11.29-1 13.56 13.56 0 0 0 4.73-4.49c1.41-2.2 2.13-4.88 3.05-7.31q1.84-4.9 3.67-9.8c.69-1.86-2.28-2.66-3-.82q-1.47 4-2.95 7.9c-1.51 4-2.54 8.91-6.36 11.43a10.35 10.35 0 0 1-5.1 1.74 18.57 18.57 0 0 1-5.9-1 48.84 48.84 0 0 0-11.65-1.68c-9.92-.12-19.25 4.07-24.87 12.38a22.53 22.53 0 0 0-2.85 5.54 1.58 1.58 0 0 0 1.08 1.89l8.26 3.22 19.85 7.73 23.88 9.3 20.77 8.09 6.87 2.67c1.07.42 2.14.93 3.24 1.26l.14.06a1.57 1.57 0 0 0 1.89-1.07l8-20.38 12.79-32.51 2.95-7.52c.73-1.84-2.25-2.64-3-.82Z" transform="translate(-141.46 -102.13)"/><path class="cls-4" d="M388.67 651.71c-2.71 7.64-9.11 10.4-15.12 8.61-31.88-9.5-39.62 14.57-39.62 14.57l83 32.33 9.68-24.83a7.34 7.34 0 0 0 4-9l-.22-.66c-5.5-3.08-10.63-1.28-13.84.64a8.78 8.78 0 0 1-8.08.44 8.81 8.81 0 0 1-4.66-11.05l1.21-3.33Z" transform="translate(-141.46 -102.13)"/><path d="M387.19 651.3a12.09 12.09 0 0 1-6.25 7.23c-3 1.29-5.75.61-8.75-.19a43.23 43.23 0 0 0-18.95-1.19A27.79 27.79 0 0 0 334.63 670a22.19 22.19 0 0 0-2.19 4.52 1.58 1.58 0 0 0 1.08 1.89l8.26 3.22 19.85 7.73 23.88 9.3 20.77 8.09 6.87 2.67c1.07.42 2.14.93 3.24 1.26l.14.06a1.57 1.57 0 0 0 1.89-1.07l8.46-21.71 1.22-3.13-.71.92a8.87 8.87 0 0 0 5.05-8.72 10.23 10.23 0 0 0-.45-2.2 2.69 2.69 0 0 0-1.72-1.8 14.11 14.11 0 0 0-6.54-1.41 15.71 15.71 0 0 0-5.53 1.27c-1.7.72-3.22 1.91-5.08 2.18a7.38 7.38 0 0 1-8.12-5.45c-.69-2.7.57-5.22 1.47-7.7a1.55 1.55 0 0 0-.71-1.74l-16.31-7.75c-1.78-.85-3.34 1.8-1.55 2.65l16.31 7.76-.7-1.74c-.8 2.2-1.81 4.39-1.8 6.78a10.46 10.46 0 0 0 5 8.85c3.59 2.16 7.57 1.7 11.09-.26a12 12 0 0 1 11.77-.34l-.71-.91a6.42 6.42 0 0 1-.12 5.17 5.82 5.82 0 0 1-2 2.2c-.73.48-1.27.6-1.66 1.45-.6 1.3-1.05 2.7-1.57 4l-6.37 16.36-1.72 4.42 1.89-1.08-8.27-3.21-19.84-7.73-23.89-9.31-20.76-8.08-6.88-2.68a27 27 0 0 0-3.23-1.26.59.59 0 0 1-.14-.06l1.07 1.9a2 2 0 0 1 .09-.26 2.85 2.85 0 0 0 .12-.31c.15-.4 0 0 0-.12a28.12 28.12 0 0 1 1.27-2.51 24.42 24.42 0 0 1 5.8-6.85c8.6-7.13 20.29-6.29 30.41-3.45a13.48 13.48 0 0 0 10-.92 15.66 15.66 0 0 0 7-8.76c.78-1.87-2.19-2.67-2.87-.83Z" transform="translate(-141.46 -102.13)"/><path class="cls-5" d="M501 357.4 388.12 635.23l66.27 25.59s72.29-172.68 81-200.93 15.54-77.7 15.54-77.7" transform="translate(-141.46 -102.13)"/><path d="m499.54 357-3 7.45-8.24 20.27-12.13 29.85L461.35 451l-16.26 40-16.41 40.39-15.26 37.54-12.89 31.72-9.3 22.9c-1.47 3.6-3.07 7.18-4.4 10.83l-.19.45a1.58 1.58 0 0 0 1.07 1.9l22.44 8.66 35.61 13.75 8.24 3.16a1.57 1.57 0 0 0 1.89-1.07l3.08-7.38q4.1-9.81 8.17-19.61Q473 620.13 478.83 606q6.92-16.71 13.77-33.43 7.13-17.34 14.17-34.71 6.59-16.25 13.08-32.54c3.55-8.93 7.07-17.88 10.48-26.86 2.18-5.74 4.39-11.49 6.26-17.35 4.45-14 7.29-28.55 10-43q3.12-16.83 5.58-33.77c.09-.59.17-1.18.25-1.77.27-1.94-2.69-2.77-3-.82-1.15 8.25-2.48 16.47-3.89 24.68-2.66 15.44-5.58 30.89-9.65 46-1.82 6.77-4.09 13.34-6.54 19.9-3.1 8.34-6.34 16.62-9.6 24.9q-6.21 15.75-12.58 31.45-7 17.28-14 34.52-7 17.06-14 34.11-6.15 14.91-12.34 29.8-4.58 11-9.17 22.06c-1.49 3.55-3.21 7.08-4.48 10.72-.06.16-.13.31-.2.46l1.9-1.07-22.44-8.66-35.61-13.75-8.22-3.18 1.08 1.89 3-7.45 8.24-20.27L413 578.07l14.8-36.41 16.26-40 16.41-40.39 15.25-37.53 12.9-31.74 9.3-22.9c1.47-3.6 3.07-7.17 4.4-10.83l.19-.45c.74-1.84-2.23-2.63-3-.82Z" transform="translate(-141.46 -102.13)"/><path class="cls-5" d="m533.31 381 54.32-6.15L601.69 404c5.37 13.91 1 32.24-2.83 46.64L582.35 512c25.83-14.37 91.11-40.81 91.11-40.81l30.07 64.35-73.87 35.72a103.53 103.53 0 0 1-87.41 1.27 69.41 69.41 0 0 1-29.41-74.1l17.56-73.63a76.2 76.2 0 0 0 1.82-23.75l-1-11.88" transform="translate(-141.46 -102.13)"/><path d="m533.31 382.51 18.39-2.08 29.18-3.31 6.75-.76-1.33-.76 10.85 22.47a58 58 0 0 1 4 9.27c2.52 8.94 1.52 18.61-.19 27.6-1.61 8.45-4 16.73-6.25 25l-8.18 30.42c-1.87 6.95-3.91 13.87-5.61 20.86l-.09.33a1.56 1.56 0 0 0 2.26 1.74c13.55-7.53 27.84-13.79 42-20q20.07-8.85 40.37-17.2c2.78-1.14 5.56-2.29 8.35-3.42l-1.74-.71 10.21 21.83 16.14 34.54 3.73 8 .55-2.1-15.7 7.6-31.58 15.28-24.12 11.66c-3.44 1.67-6.9 3.28-10.48 4.64a102 102 0 0 1-62.48 3.18q-3.79-1-7.5-2.3a60.37 60.37 0 0 1-7.58-3 33.06 33.06 0 0 1-5.37-3.84c-1.74-1.4-3.4-2.88-5-4.44a68.28 68.28 0 0 1-20.37-47.94 70.72 70.72 0 0 1 2-17.09l2.07-8.67 7.74-32.48 6.73-28.22c.79-3.3 1.58-6.6 2.07-10a78.33 78.33 0 0 0 .62-17.58l-.48-5.94-.48-5.94c-.16-2-3.24-2-3.08 0 .35 4.28.74 8.55 1 12.84a76.83 76.83 0 0 1-2 23.16l-5.64 23.63-8.2 34.42c-1.66 6.95-3.71 14-4.73 21.08a70.91 70.91 0 0 0 21.33 61.64 69 69 0 0 0 5.37 4.6 27.07 27.07 0 0 0 5.42 3.67 105.14 105.14 0 0 0 88.3-1.7l18.25-8.83 32.29-15.61 22.07-10.67 1.12-.54a1.57 1.57 0 0 0 .55-2.11l-10.2-21.83-16.14-34.54-3.73-8a1.55 1.55 0 0 0-1.74-.71q-12 4.88-23.95 9.94c-15.39 6.5-30.74 13.14-45.88 20.21-7.3 3.42-14.59 6.91-21.65 10.82l2.26 1.74 4.79-17.8 8.4-31.11c2-7.41 4.12-14.81 5.83-22.29 2.11-9.23 3.7-18.92 2.54-28.38a32.89 32.89 0 0 0-2.43-9.77c-.53-1.13-1.09-2.25-1.63-3.37l-12-25-.3-.62a1.5 1.5 0 0 0-1.33-.77l-18.39 2.09-29.18 3.3-6.75.76c-1.94.22-2 3.3 0 3.08Z" transform="translate(-141.46 -102.13)"/><path class="cls-2" d="M397.07 701.26a3.39 3.39 0 0 0-4.32 2.07l-1.06 3-63.8-25s2.38-7.43 6.25-11.67l84.77 32.58-4.5 13-16.41-6.4 1.14-3.27a3.38 3.38 0 0 0-2.07-4.31Z" transform="translate(-141.46 -102.13)"/><path d="M397.48 699.78a5 5 0 0 0-6.08 2.82c-.46 1.09-.8 2.23-1.19 3.35l1.89-1.08-21.61-8.45-34.3-13.42-7.89-3.08 1.08 1.89a30.9 30.9 0 0 1 5.85-11l-1.5.4 8.45 3.25 20.16 7.75 24.52 9.42 21.2 8.15 7 2.68a27.65 27.65 0 0 0 3.34 1.28h.14l-1.07-1.89-4.51 13 1.89-1.07-16.41-6.46 1.08 1.89c.4-1.13.87-2.26 1.19-3.43a5 5 0 0 0-3.19-6c-1.84-.75-2.63 2.22-.82 3 2.24.92.38 4.2-.15 5.69a1.58 1.58 0 0 0 1.08 1.89l16.37 6.41a1.55 1.55 0 0 0 1.89-1.07l4.5-13a1.56 1.56 0 0 0-1.07-1.89l-8.45-3.25-20.16-7.75-24.52-9.42-21.19-8.12-7-2.68c-1.1-.42-2.21-1-3.34-1.28a.84.84 0 0 1-.14-.06 1.52 1.52 0 0 0-1.5.4 34.65 34.65 0 0 0-6.61 12.35 1.58 1.58 0 0 0 1.08 1.89l21.61 8.45 34.3 13.42 7.88 3.08a1.56 1.56 0 0 0 1.89-1.08c.59-1.67 1-4.75 3.49-4 1.9.54 2.71-2.43.82-2.98Z" transform="translate(-141.46 -102.13)"/><path d="m358.25 680.65.26.1c-.65-.22.21.1.41.21.38.19.75.4 1.12.63l.57.38.33.23.14.11c.32.23-.15-.12 0 0a13.34 13.34 0 0 1 4.7 7.08 19 19 0 0 1 .39 7.32 1.55 1.55 0 0 0 1.54 1.53 1.57 1.57 0 0 0 1.54-1.53 19.19 19.19 0 0 0-2.51-12.71 16.53 16.53 0 0 0-6-5.55 11.58 11.58 0 0 0-1.68-.77c-1.87-.65-2.68 2.32-.82 3ZM461.28 642.48l-22.47-8.74-35.56-13.84-8.25-3.2c-1.85-.72-2.65 2.26-.82 3l22.47 8.74 35.55 13.84 8.22 3.2c1.85.71 2.64-2.26.82-3Z" transform="translate(-141.46 -102.13)"/><path class="cls-2" d="m507.12 244.54 53.23-.78c8.08-.87 12.66 2 17.42 13.49 0 0 23.39 97 31.31 135.93-13.6-11.8-123.35 1.52-123.35 1.52l7.63-121.38" transform="translate(-141.46 -102.13)"/><path d="m507.12 246.07 35.21-.51 16.94-.24c2.19 0 4.37-.37 6.53.14 4.32 1 6.89 4.8 8.8 8.53a22.12 22.12 0 0 1 2 4.86l1.11 4.6q2.09 8.7 4.15 17.39 6.46 27.15 12.78 54.32c4.11 17.8 8.21 35.6 12 53.48l1 4.95 2.57-1.49a16.49 16.49 0 0 0-7-3.11 70.89 70.89 0 0 0-11-1.63 259.25 259.25 0 0 0-30.28-.35c-11.33.38-22.64 1.1-33.93 2q-14.26 1.14-28.5 2.63c-3.07.32-6.14.66-9.2 1a31.16 31.16 0 0 0-4.34.5 1.25 1.25 0 0 1-.19 0l1.54 1.53.76-12.14 1.82-28.91 2.21-35.07 1.9-30.32.63-10c.1-1.58.29-3.18.3-4.76v-.21c.13-2-2.95-2-3.07 0l-.77 12.15-1.82 28.91-2.27 35.13-1.91 30.32-.63 10c-.09 1.58-.29 3.18-.3 4.77a1.27 1.27 0 0 1 0 .2 1.54 1.54 0 0 0 1.54 1.54c3.63-.44 7.28-.84 10.92-1.23q13.34-1.42 26.71-2.55c11.13-.93 22.29-1.71 33.45-2.18 10.36-.44 20.77-.7 31.13-.13a93.12 93.12 0 0 1 11.61 1.21 38.17 38.17 0 0 1 4.5 1.05c.61.19 1.21.4 1.81.64.24.09-.25-.12.13.06l.34.15.75.39.62.4c.49.31-.06-.08.3.22a1.55 1.55 0 0 0 2.57-1.49c-3.53-17.32-7.5-34.55-11.46-51.76q-6.5-28.18-13.2-56.32-2.32-9.79-4.68-19.6c-.65-2.72-1.15-5.53-2-8.2a30.17 30.17 0 0 0-2.86-6 20.77 20.77 0 0 0-4.34-5.56c-3.44-2.95-7.37-3.34-11.72-3.09-4 .22-8.09.11-12.12.17L508 243h-.86c-2 0-2 3.1 0 3.07Z" transform="translate(-141.46 -102.13)"/><path d="M521.78 463.91c-1.7-3.83-3.7-7.67-4.85-11.72a30.13 30.13 0 0 1-.72-13.45c.17-1 .37-2 .55-3l2.52-13.66a87.36 87.36 0 0 0 1.87-13.08c.19-6.11-1.16-12-2.33-18-.37-1.94-3.34-1.12-3 .82.95 4.89 2.12 9.78 2.22 14.79a68.53 68.53 0 0 1-1.64 14l-2.58 14c-.19 1-.39 2.07-.58 3.1a34.75 34.75 0 0 0 .06 12.74c1 5.26 3.63 10.16 5.78 15 .8 1.81 3.45.25 2.66-1.55Z" transform="translate(-141.46 -102.13)"/><path class="cls-2" d="m563.55 312.3 58.63-14.87c-1.9-4.95-15.95-23.92-17.52-29.71-2.88-10.59-4.64-30-5.13-38.15L554.32 239" transform="translate(-141.46 -102.13)"/><path d="m564 313.78 19.9-5 31.45-8 7.29-1.84a1.55 1.55 0 0 0 1.08-1.9c-1.34-3.38-3.57-6.46-5.54-9.5-2.72-4.22-5.51-8.39-8.11-12.68-1-1.73-2.08-3.48-3-5.3a22.22 22.22 0 0 1-1.57-5 165.59 165.59 0 0 1-2.85-17.56c-.68-5.8-1.23-11.62-1.58-17.45a1.57 1.57 0 0 0-2-1.48l-15.28 3.19-24.35 5.09-5.58 1.17c-1.93.4-1.11 3.37.82 3l15.32-3.21 24.35-5.09 5.58-1.17-2-1.48a246.4 246.4 0 0 0 4 33.5 37.28 37.28 0 0 0 1.55 6.16 40.92 40.92 0 0 0 2.52 5c2.49 4.31 5.26 8.46 8 12.63 1.42 2.19 2.85 4.37 4.21 6.6.54.88 1.08 1.77 1.58 2.67.19.35.38.7.56 1.05.07.16.15.31.22.46a1.16 1.16 0 0 1 .09.21l1.07-1.89-19.85 5.04-31.45 8-7.29 1.85c-1.92.49-1.11 3.45.81 3Z" transform="translate(-141.46 -102.13)"/><path d="M623.58 297.3c3.92-1.06 5.11-10.93 4.43-22.27l-18 8.41c3.18 9.25 9.41 14.99 13.57 13.86Z" transform="translate(-141.46 -102.13)"/><path d="M624 298.79c3.26-1 4.37-5 4.93-7.92a65.09 65.09 0 0 0 .63-15.84 1.56 1.56 0 0 0-2.31-1.33l-15.8 7.37-2.24 1a1.56 1.56 0 0 0-.71 1.74 29.87 29.87 0 0 0 7 11.69c2.21 2.12 5.27 4 8.46 3.25 1.92-.48 1.1-3.44-.82-3a4 4 0 0 1-2.53-.36 11.59 11.59 0 0 1-3.33-2.48 26.85 26.85 0 0 1-5.85-10l-.71 1.74 15.8-7.37 2.24-1-2.29-1.28a64.81 64.81 0 0 1-.36 14.13 18.67 18.67 0 0 1-1.2 4.6 6.51 6.51 0 0 1-.85 1.43 2.43 2.43 0 0 1-.43.41 1.23 1.23 0 0 1-.46.22c-1.89.6-1.08 3.57.83 3Z" transform="translate(-141.46 -102.13)"/><path class="cls-2" d="m280.42 578.45 4.64 1.9"/><path d="m421.47 682.06 4.06 1.66.58.24a1.57 1.57 0 0 0 1.18-.15 1.63 1.63 0 0 0 .71-.92 1.54 1.54 0 0 0-.16-1.19 1.75 1.75 0 0 0-.92-.7l-4.05-1.66-.58-.24a1.55 1.55 0 0 0-1.19.15 1.57 1.57 0 0 0-.7.92 1.59 1.59 0 0 0 .15 1.19 1.79 1.79 0 0 0 .92.7Z" transform="translate(-141.46 -102.13)"/><path class="cls-2" d="M382.05 659.7s3.59 2.27 2.08 7.39" transform="translate(-141.46 -102.13)"/><path d="m381.27 661 .15.11c-.53-.37-.1-.08.08.08a5.79 5.79 0 0 1 .48.51c0 .06.09.12.14.17-.35-.41-.14-.18-.06-.07s.17.26.25.39a4.92 4.92 0 0 1 .24.45c.06.11.17.45 0 0l.1.28a12.18 12.18 0 0 1 .3 1.19c-.12-.48 0-.1 0 0V665.18a1.47 1.47 0 0 1-.05.42v-.08a2.07 2.07 0 0 1 0 .22c-.06.31-.14.62-.22.93a1.55 1.55 0 0 0 1.07 1.89 1.57 1.57 0 0 0 1.89-1.08 8.25 8.25 0 0 0-2-8.54 5.41 5.41 0 0 0-.75-.59 1.55 1.55 0 0 0-2.1.55 1.58 1.58 0 0 0 .55 2.11Z" transform="translate(-141.46 -102.13)"/><path class="cls-2" d="M375.73 660.7s3.59 2.26 2.08 7.39" transform="translate(-141.46 -102.13)"/><path d="m375 662 .15.11c-.53-.36-.1-.08.08.09a5.79 5.79 0 0 1 .48.51l.14.17c-.35-.41-.14-.19-.06-.08s.17.26.25.4a3.21 3.21 0 0 1 .24.45c.06.11.17.44 0 0 0 .09.07.18.1.28a12 12 0 0 1 .3 1.18c-.12-.47 0-.1 0 0v.37a5.46 5.46 0 0 1 0 .7 1.18 1.18 0 0 1 0 .42v-.09a1.43 1.43 0 0 1 0 .22c-.06.32-.14.62-.22.93a1.54 1.54 0 1 0 3 .82 8.26 8.26 0 0 0-2-8.55 5.35 5.35 0 0 0-.75-.58 1.54 1.54 0 0 0-2.1.55 1.57 1.57 0 0 0 .39 2.1Z" transform="translate(-141.46 -102.13)"/><path class="cls-2" d="M370.49 660.05s3.6 2.27 2.08 7.4" transform="translate(-141.46 -102.13)"/><path d="m369.72 661.38.15.11c-.53-.36-.1-.08.07.08a5.94 5.94 0 0 1 .49.52c.05 0 .09.11.14.17-.36-.41-.15-.19-.07-.08s.18.26.26.4l.24.44c.05.12.17.45 0 0 0 .1.08.19.11.28a12.14 12.14 0 0 1 .29 1.19c-.12-.47 0-.1 0 0v1.06a1.46 1.46 0 0 1 0 .42v-.08.22c-.06.31-.14.62-.23.93a1.54 1.54 0 0 0 3 .82 8.26 8.26 0 0 0-2-8.55 6 6 0 0 0-.75-.58 1.53 1.53 0 0 0-2.1.55 1.55 1.55 0 0 0 .55 2.1ZM586.35 491.19 577 524.73l-1.35 4.82a1.54 1.54 0 0 0 3 .82l9.35-33.54 1.35-4.82a1.54 1.54 0 0 0-3-.82Z" transform="translate(-141.46 -102.13)"/><path class="cls-3" d="M554.3 239.13a27.67 27.67 0 0 1-55 6Z" transform="translate(-141.46 -102.13)"/><path d="M552.76 239.13a26.14 26.14 0 0 1-51.93 6l-1.54 1.54 18.58-2 29.62-3.22 6.81-.74c2-.21 2-3.28 0-3.07l-18.58 2-29.62 3.21-6.81.74c-.75.08-1.64.64-1.53 1.53a29.19 29.19 0 0 0 53.29 13.28 29.18 29.18 0 0 0 4.79-19.24c-.2-1.98-3.28-2-3.08-.03Z" transform="translate(-141.46 -102.13)"/><path class="cls-3" d="m400.91 143.41-3.97-34.67-28.39 14.12 1.22 22.89"/><path d="m543.91 245.53-3.48-30.4-.49-4.26a1.57 1.57 0 0 0-2.32-1.33l-24.87 12.37-3.52 1.75a1.48 1.48 0 0 0-.76 1.33l1.07 20 .16 2.86c.1 2 3.18 2 3.07 0l-1.07-20-.16-2.86-.76 1.32 24.88-12.37 3.52-1.74-2.32-1.33 3.49 30.4.49 4.26c.22 1.95 3.3 2 3.07 0Z" transform="translate(-141.46 -102.13)"/><path class="cls-3" d="M539.78 222.84c15.74-14.72 9.29-27.46 9.32-37.15 0-5.62-8.47-17-8.47-17l-46.78-8.56-9.59 15.87s-17 65.35 36.67 51" transform="translate(-141.46 -102.13)"/><path d="M540.87 223.92c4.68-4.42 8.62-9.78 10.19-16.11 1.17-4.67.93-9.44.34-14.17-.26-2-.57-4.07-.7-6.12a20.75 20.75 0 0 0-.89-5.86 52.37 52.37 0 0 0-6.48-11.83c-.55-.8-1.31-2.32-2.3-2.65a6.67 6.67 0 0 0-1-.19l-6.95-1.27-22.91-4.19-15.9-2.91a1.6 1.6 0 0 0-1.74.71l-5.53 9.12-3.29 5.44a9.35 9.35 0 0 0-1 1.78 59.08 59.08 0 0 0-1.93 11 72 72 0 0 0 .14 20.58c1.14 6.86 3.94 13.84 9.54 18.26 7.42 5.85 17.4 5.82 26.26 4.07 1.54-.3 3.06-.67 4.57-1.07a1.54 1.54 0 0 0-.81-3c-8.53 2.26-18.77 3.61-26.56-1.33-5.53-3.5-8.4-9.68-9.72-16.08a65.82 65.82 0 0 1-.54-19.79c.07-.7.15-1.41.24-2.11s.12-.9.24-1.74c.18-1.17.37-2.33.58-3.49.26-1.4.59-2.78.88-4.16a2 2 0 0 0 .08-.35s-.3.51 0 .09c.87-1.23 1.58-2.63 2.37-3.92l6.61-11 .47-.78-1.74.7 15.79 2.89 25.18 4.61 5.81 1.06-.92-.71a76.97 76.97 0 0 1 3.94 5.92c1.77 2.91 4.14 6.53 4.31 10 .36 7.12 2.3 14.38.59 21.45-1.44 5.91-5.09 10.79-9.44 14.91-1.45 1.36.73 3.53 2.17 2.17Z" transform="translate(-141.46 -102.13)"/><path d="M503.62 189.14a6.67 6.67 0 0 1 .8-.5c.3-.17.61-.31.93-.46-.38.18-.07 0 0 0l.32-.12.68-.23.76-.19.34-.06.28-.05H509.34a6.89 6.89 0 0 1 1.77.26 10 10 0 0 1 2 .74 1.57 1.57 0 0 0 2.1-.55 1.54 1.54 0 0 0-.55-2.1 12.55 12.55 0 0 0-8.86-1 11.13 11.13 0 0 0-3.73 1.68 1.59 1.59 0 0 0-.55 2.11 1.55 1.55 0 0 0 2.1.55ZM484 189.88l.34-.16c.23-.11-.19.07.11 0l.67-.24a13.43 13.43 0 0 1 3.6-.65A5.22 5.22 0 0 1 494 192c.77 2 .1 4.33-.69 6.18a18.64 18.64 0 0 1-2.27 3.85 4 4 0 0 0-1.12 2 4.44 4.44 0 0 0 .1 1.54c.75 2.88 4.19 2.65 6.47 2.24a1.54 1.54 0 0 0 1.07-1.89 1.56 1.56 0 0 0-1.89-1.07 7.11 7.11 0 0 1-2.49.08s-.4-.26-.17-.1 0-.07 0 .07c0-.27-.08-.52 0-1l-.45 1.08c3.36-4.07 7-10.9 3.34-15.91a8.44 8.44 0 0 0-7.56-3.35 14.56 14.56 0 0 0-5.94 1.49c-1.75.93-.2 3.59 1.55 2.65Z" transform="translate(-141.46 -102.13)"/><circle cx="344.98" cy="95.11" r="1.99"/><path d="M485.22 197.36a2.44 2.44 0 0 1 0-.27c0-.19-.05.16 0 0s0-.07 0-.11 0-.22.08-.25v.09-.09l.07-.14a.44.44 0 0 0 .08-.11c0-.09-.13.14 0 0a1.62 1.62 0 0 1 .18-.19l.08-.07-.07.06.08-.06.25-.13c.1-.06-.17.05 0 0h.26c.17 0-.13 0 0 0H486.65l.25.07c.17 0-.14-.08 0 0h.09c.05 0 .2.1.22.14l-.07-.05.06.05.13.12.07.08c.11.13-.09-.14 0 0a2.53 2.53 0 0 1 .13.22.31.31 0 0 1 .05.1v-.09a1 1 0 0 0 0 .1v.11s.06.23 0 .11 0 0 0 .06v.28-.05s0 .22-.06.26a.33.33 0 0 1-.05.15v-.09a.31.31 0 0 1 0 .1 1.59 1.59 0 0 1-.13.22c-.09.14.09-.08 0 0a.76.76 0 0 0-.09.09.65.65 0 0 1-.19.18c.08 0 .11-.07 0 0a1.08 1.08 0 0 1-.18.11h-.09c-.16.08.16 0 0 0l-.23.07c-.08 0-.13.07 0 0h-.71.06-.1c-.06 0-.24-.11-.26-.17s.14.13 0 0l-.11-.1-.1-.12c-.12-.12.08.14 0 0s-.11-.17-.16-.27 0 .12 0 0a1.09 1.09 0 0 1-.05-.17v-.11c0-.08 0-.07 0 0a.45.45 0 0 0 0-.11.78.78 0 0 0-.76-.77.77.77 0 0 0-.77.77 2.75 2.75 0 0 0 5 1.47 2.76 2.76 0 0 0 .06-3.1 2.81 2.81 0 0 0-3-1.16 2.78 2.78 0 0 0-2.07 2.79.78.78 0 0 0 .77.77.77.77 0 0 0 .86-.79Z" transform="translate(-141.46 -102.13)"/><circle cx="363.65" cy="93.23" r="1.99"/><path d="M503.89 195.47a2.44 2.44 0 0 1 0-.27c0-.18 0 .17 0 0a.36.36 0 0 1 0-.1s0-.23.08-.25v.08l.05-.09c0-.05.05-.09.07-.14l.08-.1c0-.1-.13.13 0 0s.11-.13.18-.19.06-.06.08-.06l-.07.05.08-.05c.08-.06.17-.09.25-.14s-.17 0 0 0h.26c.17-.05-.13 0 0 0H505.36l.25.07c.17.06-.15-.08 0 0l.09.05s.2.09.22.14l-.07-.06h.06l.13.13.06.07c.12.13-.08-.14 0 0l.13.23a.2.2 0 0 1 0 .09v-.08.1a.19.19 0 0 1 0 .1s.07.24 0 .11 0 0 0 .06v.12a.92.92 0 0 1 0 .16c0 .16 0 0 0 0s0 .21-.06.25a.33.33 0 0 1 0 .15v-.08l-.05.09a1.59 1.59 0 0 1-.13.22c-.09.14.09-.08 0 0l-.09.1s-.13.16-.19.17.11-.07 0 0a1.08 1.08 0 0 1-.18.11l-.09.05c-.16.08.16 0 0 0l-.24.07c-.07 0-.12.07 0 0h-.44.1-.26a.56.56 0 0 0-.12 0h.06-.1c-.06 0-.24-.11-.26-.17s.14.13 0 0l-.11-.11-.1-.11c-.12-.13.08.13 0 0a2.54 2.54 0 0 1-.16-.28c-.08-.15 0 .12 0 0a1.21 1.21 0 0 1-.05-.18v-.11.05a.49.49 0 0 0 0-.12.77.77 0 0 0-.77-.76.76.76 0 0 0-.76.76 2.75 2.75 0 0 0 5 1.47 2.74 2.74 0 0 0 .06-3.09 2.81 2.81 0 0 0-3-1.17 2.77 2.77 0 0 0-2.07 2.79.77.77 0 1 0 1.53 0Z" transform="translate(-141.46 -102.13)"/><circle cx="362.97" cy="110.27" r="2.59"/><path d="M502.62 212.56V211.99a2.07 2.07 0 0 1 .1-.33c-.06.16 0 0 0-.06a1.62 1.62 0 0 1 .1-.18l.09-.14c.07-.1-.12.13 0 0l.23-.24.1-.08c-.13.1 0 0 .07 0a1.74 1.74 0 0 1 .33-.18c.11-.05-.17 0 0 0h.16l.18-.05c.21 0-.09 0 0 0h.61l.33.1c.2.06-.12-.08.06 0l.12.07a1.75 1.75 0 0 1 .29.18c-.12-.09 0 0 0 0l.17.16.09.1c.14.16-.07-.12 0 .06s.12.19.17.29l.06.13c-.07-.16 0 .06 0 .07v.14c0 .05.05.25 0 .17s0 .12 0 .12v.36a2.09 2.09 0 0 1-.08.34 1.46 1.46 0 0 1-.07.19v.06a2 2 0 0 1-.17.29c-.12.18.05-.06 0 0l-.11.13a2.73 2.73 0 0 1-.25.23c.11-.09 0 0 0 0l-.23.14-.12.06c-.19.1.13 0-.07 0l-.31.08s-.19 0 0 0h-.18a2.54 2.54 0 0 1-.39 0h-.07l-.2-.05h-.16l-.12-.06a2.39 2.39 0 0 1-.34-.21s-.1-.09-.14-.14l-.14-.15c-.13-.15.06.11 0-.06a2.5 2.5 0 0 1-.21-.35c-.09-.19 0 .08 0 0a2 2 0 0 1-.07-.23s0-.09 0-.14 0-.09 0 0a.61.61 0 0 1 0-.14.79.79 0 0 0-.77-.77.78.78 0 0 0-.77.77 3.35 3.35 0 0 0 6.08 1.79 3.34 3.34 0 0 0 .08-3.79 3.36 3.36 0 0 0-6.16 2 .79.79 0 0 0 .77.77.78.78 0 0 0 .94-.88ZM515.89 157.54s38.57 4.19 42.53 23.06c1 4.57 2 3.83.42 9.57a73 73 0 0 1-19.05 32.66l-3.34-18.53c2.45-2.35 5.47-10.7 5-15.26-.69-6.9-4.56-8.15-9.38-7.66-1.76.17-3.45 1.57-4.87 3.59-3.28 5.05-1.69 15.93-1.69 15.93l-5.65-16.25a9.55 9.55 0 0 0-13.27-5.5 6.24 6.24 0 0 0-3.51 4.52 9.3 9.3 0 0 1-.24-10.1 14.46 14.46 0 0 0-11 7 9.6 9.6 0 0 1 4.1-11.79c-6.15 3.59-13.32 5.64-19 13.84-4.61-7.17 4.61-17.42 7.17-17.94-11.27 1.54-15.37-9.73-15.37-9.73s13.32 5.12 23.57 0" transform="translate(-141.46 -102.13)"/><path d="m515.89 159.08.59.07h.27c.15 0-.39-.05 0 0l1 .14c1.91.28 3.82.63 5.71 1a89.83 89.83 0 0 1 16.52 4.9c5.23 2.17 10.71 5.16 14.18 9.77a15.82 15.82 0 0 1 2 3.42 38.68 38.68 0 0 1 1.26 4.48 9.55 9.55 0 0 1 .67 3.48 31.75 31.75 0 0 1-1.78 6.94 71.48 71.48 0 0 1-17.6 28.42l2.57.68-3.35-18.52-.4 1.49a15 15 0 0 0 2.93-4.74 33.13 33.13 0 0 0 2.12-6.57c.8-4 .74-9-2.35-12.05-2.5-2.48-7.34-3.08-10.46-1.52-4.19 2.08-5.62 6.84-6 11.14a40.56 40.56 0 0 0 .29 9.66l3-.82-4.27-12.27c-.53-1.54-1-3.11-1.63-4.61a11.28 11.28 0 0 0-8.7-6.88c-4.58-.68-9.78 1.69-10.8 6.53l2.81-.37a7.77 7.77 0 0 1-.23-8.54 1.55 1.55 0 0 0-1.33-2.31c-4.93.51-10 3.26-12.37 7.77l2.81.37c-1.58-3.75 0-7.8 3.4-10.05a1.54 1.54 0 0 0-1.56-2.65c-3.26 1.89-6.75 3.38-10 5.37a32.19 32.19 0 0 0-9.55 9h2.66c-2-3.21-.82-7 1-10a19.75 19.75 0 0 1 3-3.89 11.53 11.53 0 0 1 1.34-1.21 5.87 5.87 0 0 1 .67-.43c.37-.21-.07 0 .28-.1 1.65-.4 1.34-3.24-.41-3a12.16 12.16 0 0 1-10.9-3.93 17 17 0 0 1-2.33-3.31c-.2-.39-.39-.78-.58-1.18-.1-.21-.14-.11 0 .09l-.06-.15v-.13l-1.89 1.89a37.41 37.41 0 0 0 8.47 2 28.52 28.52 0 0 0 16.29-2.14c1.78-.87.22-3.52-1.55-2.66-6.74 3.28-15.52 2.47-22.39-.15a1.54 1.54 0 0 0-1.89 1.89c2.55 6.94 9.37 11.8 16.85 10.86l-.4-3a8.18 8.18 0 0 0-3.49 2.37 22.73 22.73 0 0 0-3.78 4.94c-2.25 3.92-3.34 8.81-.83 12.89a1.57 1.57 0 0 0 2.66 0 29 29 0 0 1 9-8.28c3.05-1.82 6.31-3.23 9.38-5l-1.56-2.65a11.44 11.44 0 0 0-5.47 8.59 10.75 10.75 0 0 0 .67 4.93c.47 1.11 2.12 1.66 2.81.37a12.81 12.81 0 0 1 9.71-6.26l-1.32-2.31a10.78 10.78 0 0 0 .23 11.64c.7 1 2.51 1 2.81-.37.75-3.57 4.83-5 8.11-4.17a8.32 8.32 0 0 1 5.76 5.32c1.38 3.89 2.71 7.8 4.07 11.7l1.53 4.39a1.54 1.54 0 0 0 3-.82c0-.08 0 .47 0 0s-.08-.7-.11-1.05c-.1-1.07-.17-2.13-.2-3.2a25.53 25.53 0 0 1 .86-8.35 8.49 8.49 0 0 1 2.34-3.71 5.16 5.16 0 0 1 4-1.36c2.3 0 4.3.8 5.28 3 1.23 2.78.88 5.91.16 8.76s-1.69 5.89-3.5 8.14c-.58.72-1 1.14-.82 2.13.08.49.18 1 .26 1.46l1.06 5.82 2 11.09a1.55 1.55 0 0 0 2.57.68A75.14 75.14 0 0 0 558 197.63a69.89 69.89 0 0 0 2.42-7.51 13.24 13.24 0 0 0 .6-5.58c-.28-1.61-.86-3.2-1.25-4.78a17.39 17.39 0 0 0-1.56-4.06c-2.93-5.5-8.48-9.24-14-11.88a83 83 0 0 0-17.84-6 96.56 96.56 0 0 0-10.48-1.82c-2-.21-1.95 2.86 0 3.08Z" transform="translate(-141.46 -102.13)"/><path d="M537 185.6a4.84 4.84 0 0 0-2.64.07 7.29 7.29 0 0 0-4.23 4 19.37 19.37 0 0 0-1.55 5.44 1.58 1.58 0 0 0 1.07 1.89 1.56 1.56 0 0 0 1.9-1.07 22.26 22.26 0 0 1 .5-2.56c.09-.34.19-.68.3-1 0-.15.1-.31.16-.46a2.41 2.41 0 0 0 .2-.52s-.15.35 0 .1l.08-.18c.06-.13.13-.27.2-.4a5.9 5.9 0 0 1 .4-.69l.19-.29.09-.12c.15-.23-.22.26-.09.11s.27-.32.42-.48l.4-.37c.26-.23-.33.23-.05 0l.23-.15a3.61 3.61 0 0 1 .39-.22c.14-.07.42-.14-.12 0l.21-.08c.12 0 .61-.25.73-.18s-.52.05-.24 0h.7c.25 0-.53-.1-.2 0h.17a1.55 1.55 0 0 0 1.89-1.07 1.56 1.56 0 0 0-1.11-1.77Z" transform="translate(-141.46 -102.13)"/><path class="cls-3" d="m294.24 313.23-20.53-11.35a32.15 32.15 0 0 1-7.72-6c-5.15-5.38-10.73-9.35-18.12-10.27L244.8 280s23.06-30.75 26.64-30.24l9.94-1.22a6.6 6.6 0 0 1 1.1-7.09 6.62 6.62 0 0 1 10.23.4l4.87 6.43a34.63 34.63 0 0 1 6.24 13.56l1.27 5.87a24.16 24.16 0 0 0 11.22 15.61l1.59 1" transform="translate(-141.46 -102.13)"/><path d="m295 311.9-13.81-7.63-6.37-3.52a35.24 35.24 0 0 1-4.1-2.63c-2.28-1.72-4.13-3.88-6.23-5.81a30.33 30.33 0 0 0-16.64-8.19l1.33.76-3.08-5.64v1.55q5.56-7.41 11.42-14.6c2.84-3.49 5.72-7 8.79-10.25a46.89 46.89 0 0 1 3.54-3.51l.61-.51c-.05 0 .37-.27.53-.36l.39-.24c-.17.1.47-.07-.08 0l10.06-1.21c.86-.11 1.9-.92 1.48-1.95a5.22 5.22 0 0 1 2.23-6.8 5.15 5.15 0 0 1 6.32 1.34c1.59 1.87 3.22 4.22 4.77 6.29a35.54 35.54 0 0 1 6.31 14c.81 3.75 1.47 7.51 3.17 11 2.52 5.16 6.62 8.75 11.47 11.65a1.54 1.54 0 0 0 1.55-2.66 30.46 30.46 0 0 1-5.46-3.87 23 23 0 0 1-5.22-7.35c-1.44-3.23-1.94-6.86-2.7-10.3a38.7 38.7 0 0 0-7.24-15l-3.29-4.35a10.37 10.37 0 0 0-4.21-3.72A8.21 8.21 0 0 0 279.9 249l1.48-1.95c-3.29.41-6.57.86-9.87 1.22-2.45.26-4.33 2.41-6 4.09-6.33 6.44-11.89 13.71-17.41 20.84q-2.35 3-4.65 6.07a1.51 1.51 0 0 0 0 1.55l2.22 4.08c.28.5.52 1.08.85 1.55.49.7 1.13.73 1.92.86s1.67.32 2.49.54a26 26 0 0 1 8.56 4.31c2.66 2 4.78 4.47 7.23 6.66a47.52 47.52 0 0 0 9 5.95l10.3 5.69 7.45 4.13c1.74.95 3.29-1.7 1.56-2.66Z" transform="translate(-141.46 -102.13)"/><path class="cls-3" d="M262.73 276.94a104.71 104.71 0 0 0-32-2.71c-10.85 1.86-9.8 9.8 1 10.54s15.11-1.17 27.41 5.5" transform="translate(-141.46 -102.13)"/><path d="M263.14 275.46a78.31 78.31 0 0 0-9.95-1.91c-3.49-.49-7-.84-10.52-1q-3.1-.15-6.23-.11a39 39 0 0 0-6.48.38c-2.62.49-5.54 1.53-7.24 3.71a4.84 4.84 0 0 0-.39 5.59c1.36 2.18 4 3.28 6.43 3.79a50.63 50.63 0 0 0 9.61.62 46.61 46.61 0 0 1 8.83.68 41.76 41.76 0 0 1 11.17 4.38c1.74.94 3.3-1.71 1.55-2.65-5.37-2.89-10.91-5-17-5.35-2.57-.16-5.15-.12-7.73-.2-2.77-.08-5.83-.05-8.36-1.36a4.4 4.4 0 0 1-1.91-1.63 1.5 1.5 0 0 1-.09-1.44c.81-1.79 3.4-2.59 5.22-3a29.69 29.69 0 0 1 6-.42c2 0 3.89 0 5.83.06 3.33.13 6.66.41 10 .85a78.47 78.47 0 0 1 10.55 2 1.54 1.54 0 0 0 .82-3Z" transform="translate(-141.46 -102.13)"/><path class="cls-3" d="M262.73 265.16s-17.08-6.31-34.4-8.3c-11-.2-11.46 7.79-1 10.53s19.95 6 37.47 12" transform="translate(-141.46 -102.13)"/><path d="M263.14 263.67c-4.27-1.57-8.66-2.86-13-4.05-4.22-1.14-8.49-2.13-12.79-2.94s-8.78-1.87-13.08-1c-2.39.48-5 1.77-5.79 4.27s.68 4.67 2.48 6.11c2.63 2.09 5.9 2.77 9.07 3.65 2.91.81 5.81 1.68 8.7 2.58 8.61 2.7 17.13 5.65 25.68 8.54 1.88.63 2.69-2.33.82-3-7.28-2.45-14.55-4.95-21.87-7.31-2.8-.91-5.62-1.8-8.45-2.63s-5.54-1.45-8.25-2.33c-1.87-.6-4.87-1.87-5.28-4a1.65 1.65 0 0 1 .45-1.42 5.36 5.36 0 0 1 2.81-1.4c3.84-.93 8.09.2 11.89.91 4.05.75 8.06 1.68 12 2.73 4.64 1.24 9.29 2.59 13.8 4.26 1.86.68 2.67-2.29.82-3Z" transform="translate(-141.46 -102.13)"/><path class="cls-3" d="M270.93 257s-19.86-13.28-36.28-19.15c-10.67-2.7-12.93 5-3.4 10S249.31 258.25 265 268" transform="translate(-141.46 -102.13)"/><path d="M271.71 255.63a186.74 186.74 0 0 0-33.19-18c-3.44-1.39-7.46-2.76-11.16-1.45a5 5 0 0 0-3.51 6c.76 3.34 4.06 5.62 6.89 7.13s5.84 3.18 8.71 4.86c8.37 4.87 16.56 10.06 24.79 15.16 1.69 1.05 3.24-1.61 1.56-2.65-7.09-4.4-14.15-8.84-21.31-13.11-2.68-1.6-5.39-3.18-8.12-4.7s-6.11-2.85-8.3-5.29a4.23 4.23 0 0 1-1.3-2.77 1.8 1.8 0 0 1 1.16-1.52c3-1.46 6.8.14 9.6 1.27a165.86 165.86 0 0 1 20.93 10.53c4 2.29 7.89 4.66 11.7 7.2 1.65 1.11 3.19-1.56 1.55-2.65Z" transform="translate(-141.46 -102.13)"/><path class="cls-3" d="M282.21 250.81s-20.78-20-36-28.52c-10.07-4.45-13.59 2.74-5 9.31s16.05 13.31 29.9 25.55" transform="translate(-141.46 -102.13)"/><path d="M283.29 249.72A244.72 244.72 0 0 0 255 226.08c-3.27-2.31-6.76-5-10.64-6.12-2.94-.87-7.14-1.09-8.9 2s.45 6.69 2.57 8.89a46.3 46.3 0 0 0 4.72 3.9c1.38 1.1 2.74 2.2 4.1 3.32 7.89 6.53 15.49 13.4 23.16 20.18 1.48 1.31 3.66-.86 2.18-2.17-6.64-5.88-13.24-11.8-20-17.53-2.53-2.15-5.1-4.27-7.71-6.33-2.38-1.88-6.16-4.14-6.54-7.48-.31-2.74 3.38-2.42 5.26-1.91 3.63 1 6.93 3.58 10 5.72A217.57 217.57 0 0 1 271.33 243c3.32 2.89 6.61 5.84 9.79 8.89 1.43 1.37 3.6-.8 2.17-2.17Z" transform="translate(-141.46 -102.13)"/><path class="cls-3" d="m317.9 284.3-1.59-1a24.16 24.16 0 0 1-11.22-15.61l-1.27-5.87a34.63 34.63 0 0 0-6.24-13.56l-4.87-6.43a6.62 6.62 0 0 0-10.23-.4 6.6 6.6 0 0 0-1.1 7.09l4.41 9.93s-7.6 13-7.8 27" transform="translate(-141.46 -102.13)"/><path d="M318.68 283a28.44 28.44 0 0 1-7-5.47 23 23 0 0 1-5.1-10.18c-1.24-5.56-2.31-11-5.18-16a57.72 57.72 0 0 0-4.32-6.2c-1.19-1.56-2.3-3.24-3.6-4.71a8.16 8.16 0 0 0-14 7.5 37.22 37.22 0 0 0 2.49 5.86l2.46 5.53v-1.55a59.57 59.57 0 0 0-4 8.62 56.9 56.9 0 0 0-4 19.18c0 2 3 2 3.07 0 .18-8.74 3-17.52 7-25.22.36-.69.92-1.4.72-2.21a13.77 13.77 0 0 0-1-2.19l-3.38-7.61c-1.49-3.36.5-7.48 4.45-7.51 3.16 0 4.61 2.66 6.29 4.88a61 61 0 0 1 5.58 8.13 43.15 43.15 0 0 1 3.7 11.3c.86 4 1.84 7.82 4.07 11.31a29.25 29.25 0 0 0 10.11 9.23 1.54 1.54 0 0 0 1.55-2.66Z" transform="translate(-141.46 -102.13)"/><path class="cls-3" d="m760.36 394.58 18.3 10.9 15.18-19.88s7.07 5.74 23.75 10.8c10.79 2.18 12.67-5.6 2.9-10.17-9.38-4.39-14.13-7.3-22.52-17a58.39 58.39 0 0 0-2.38-2.59l-31.71-32.57-17.77 9.38-16.27 5.55 10.22 13a24.63 24.63 0 0 1 4.22 14.4" transform="translate(-141.46 -102.13)"/><path d="m759.59 395.91 18.3 10.9a1.58 1.58 0 0 0 2.1-.56l13.26-17.37 1.91-2.5-2.41.31a37.85 37.85 0 0 0 6 3.8 85 85 0 0 0 7.81 3.64c1.68.7 3.37 1.34 5.07 1.95a39.2 39.2 0 0 0 6.1 1.92c2.64.45 5.71.62 8.11-.8a4.86 4.86 0 0 0 2.4-5.2c-.47-2.43-2.47-4.31-4.43-5.64-2.67-1.82-5.83-2.94-8.67-4.49a54.51 54.51 0 0 1-14.32-11.65c-2-2.23-4-4.46-6.11-6.61l-16.23-16.71c-4.42-4.54-8.74-9.22-13.29-13.65L765 333a1.57 1.57 0 0 0-1.86-.24l-14.44 7.63-2.85 1.5c-.16.08-.33.16-.48.25.63-.4.14-.07-.15 0l-8.36 2.86-7.43 2.52a1.56 1.56 0 0 0-.68 2.57l6.63 8.42 3.31 4.2.26.33s-.32-.47-.08-.08c.43.69.86 1.37 1.24 2.08a23.09 23.09 0 0 1 2.63 11.35c0 2 3 2 3.08 0a24.93 24.93 0 0 0-4.69-15.51c-2.4-3.09-4.84-6.14-7.25-9.21l-3-3.75-.67 2.57 15.23-5.18a25.39 25.39 0 0 0 3.67-1.7l8.91-4.71 6.6-3.48-1.86-.24 10.38 10.66 16.91 17.37 4.25 4.37c3.84 3.95 7.24 8.26 11.54 11.76a50.3 50.3 0 0 0 6.77 4.63c2.64 1.5 5.45 2.65 8.12 4.09 1.73.94 4.28 2.54 4.54 4.74a1.52 1.52 0 0 1-.51 1.37 4.22 4.22 0 0 1-2.31 1c-3.43.53-6.83-.91-10-2a95.45 95.45 0 0 1-8.9-3.64 57.53 57.53 0 0 1-8.6-4.91c-.44-.31 0 0-.07-.05a1.58 1.58 0 0 0-2.41.31l-13.22 17.32-1.91 2.5 2.1-.55-18.3-10.9a1.54 1.54 0 0 0-1.55 2.66Z" transform="translate(-141.46 -102.13)"/><path class="cls-3" d="M784.13 393s13.83 11.85 29.38 19.73c10.25 4 13.45-3.32 4.62-9.52s-12.57-8.5-24.9-21.68" transform="translate(-141.46 -102.13)"/><path d="M783 394.11c3.08 2.63 6.32 5.07 9.59 7.45s6.49 4.57 9.84 6.67q2.85 1.78 5.78 3.44a32.82 32.82 0 0 0 6 3c2.72.88 6.26 1.4 8.7-.48 2.14-1.65 2.16-4.41 1.1-6.7-1.43-3.07-4.36-5-7-6.87-2.11-1.48-4.23-3-6.28-4.53-6-4.6-11.28-10.1-16.44-15.61-1.36-1.45-3.53.73-2.18 2.17a154.29 154.29 0 0 0 14.29 13.85c1.79 1.48 3.64 2.88 5.52 4.23 2.17 1.56 4.53 3 6.57 4.7 1.37 1.16 3.91 3.71 3.16 5.61s-4.23 1.31-5.8.87a26.47 26.47 0 0 1-5.67-2.68q-2.65-1.49-5.25-3.09-4.83-3-9.46-6.31c-3.51-2.5-7-5.09-10.25-7.9-1.5-1.28-3.68.89-2.18 2.18Z" transform="translate(-141.46 -102.13)"/><path class="cls-3" d="M774.62 394.34s14 19.33 27.41 30.52c9.08 6.23 13.86-.19 6.66-8.22s-13.33-16-24.7-30.61" transform="translate(-141.46 -102.13)"/><path d="M773.29 395.12A190.36 190.36 0 0 0 797.6 423c2.94 2.72 6.18 5.56 10.38 5.87a5 5 0 0 0 5.68-4.34c.46-3.72-2.15-7-4.46-9.63q-3.23-3.63-6.31-7.38c-6.09-7.4-11.92-15-17.81-22.58a1.55 1.55 0 0 0-2.18 0 1.58 1.58 0 0 0 0 2.18c5 6.45 10 12.92 15.15 19.29Q801 410 804 413.57c2.11 2.47 4.86 4.88 6.14 7.92.72 1.71 1 4.14-1.37 4.33-3.58.27-6.72-2.92-9.11-5.13A176.24 176.24 0 0 1 784 403.8c-2.76-3.34-5.47-6.73-8-10.23-1.15-1.59-3.82-.06-2.66 1.55Z" transform="translate(-141.46 -102.13)"/><path class="cls-3" d="m729.35 352.73 7.37 5.79a24.16 24.16 0 0 1 7.33 17.76l-.11 6-2.13 23a6.52 6.52 0 0 0 5.65 7.07 6.53 6.53 0 0 0 6.83-3.86l7.71-17.62" transform="translate(-141.46 -102.13)"/><path d="m728.27 353.81 6.52 5.13a21.31 21.31 0 0 1 7.15 11.85c.84 3.6.57 7.4.47 11.08 0 1.61-.27 3.23-.41 4.84-.57 6.09-1.16 12.18-1.69 18.27a8.13 8.13 0 0 0 6.74 8.89c4.07.63 7.36-1.79 8.92-5.38l7.34-16.85c.78-1.79-1.87-3.36-2.66-1.55l-6.52 15c-1.06 2.42-1.94 5.23-5 5.76a5.06 5.06 0 0 1-5.46-2.95 6.42 6.42 0 0 1-.3-3.22l1.68-18.16c.46-4.94.93-10.08.12-15a25.36 25.36 0 0 0-3.17-8.82 20.31 20.31 0 0 0-4.56-5.58l-7-5.48c-1.54-1.21-3.73.95-2.17 2.17Z" transform="translate(-141.46 -102.13)"/><path class="cls-3" d="M773.58 392.25c10.67 15.1 17.54 25.5 24.35 33.87s1.74 14.55-7 7.9c-12.83-11.81-28.46-36-28.46-36L755 385.69" transform="translate(-141.46 -102.13)"/><path d="M772.26 393c6.47 9.16 12.71 18.49 19.41 27.5 1.33 1.79 2.68 3.56 4.07 5.31s3 3.71 3.64 6.05c.29 1.16.34 2.72-.89 3.25-1.59.69-3.75-.45-5.07-1.25a26.76 26.76 0 0 1-5.28-4.75c-1.66-1.75-3.26-3.55-4.82-5.38-3.16-3.72-6.16-7.57-9.07-11.49-3.59-4.85-7.14-9.78-10.39-14.87-2.61-4.1-5-8.32-7.54-12.47a1.54 1.54 0 0 0-2.66 1.55c2.49 4.11 4.9 8.26 7.45 12.33 3.19 5.06 6.74 9.94 10.29 14.75 3.12 4.22 6.35 8.37 9.75 12.37 1.63 1.92 3.3 3.8 5 5.62a28.43 28.43 0 0 0 5.68 5c3.25 1.94 8.83 3.2 10.45-1.45s-2.56-9.07-5.15-12.37c-7.88-10.07-14.89-20.81-22.26-31.25-1.13-1.6-3.8-.07-2.65 1.55Z" transform="translate(-141.46 -102.13)"/><path class="cls-3" d="m740.06 362-101-86.87-6.46 1.95-22.71 6.83a166.72 166.72 0 0 1-5.27-16.2c-2.88-10.59-6.47-22.93-5.22-37.81l23.6-3.85 16.13-2.23c21.77-2.71 28.69 1 51.84 27.87l77.69 87.58" transform="translate(-141.46 -102.13)"/><path d="m741.15 360.92-14.79-12.72-33-28.43L659 290.28c-6.16-5.3-12.3-10.64-18.49-15.91-.12-.1-.23-.21-.36-.31-1.13-.84-2.47-.11-3.68.26l-5.85 1.76-19.44 5.84-1.7.52 1.89 1.07a210.14 210.14 0 0 1-7.85-26 87.4 87.4 0 0 1-2.52-27.6l-1.13 1.48 20.65-3.39c5.91-1 11.86-1.71 17.8-2.53 1.58-.22 2.76-.36 4.5-.52a64 64 0 0 1 7.33-.33 29.63 29.63 0 0 1 12.06 2.58 47.42 47.42 0 0 1 12.1 8.76c5.5 5.19 10.45 10.93 15.41 16.63 1.8 2.07 3.63 4.1 5.45 6.15L708.66 274l17.75 20 18.22 20.54 14.93 16.83 7.67 8.64.35.4c1.31 1.48 3.48-.7 2.17-2.18l-5.42-6.11-13.65-15.39-17.95-20.23-18.34-20.67-14.74-16.61-7.36-8.3c-7.27-8.24-14.39-17.16-23.54-23.44a32.3 32.3 0 0 0-12.11-5.23 49.41 49.41 0 0 0-14.11-.3c-6.67.65-13.34 1.66-20 2.67-7.08 1.07-14.14 2.32-21.2 3.48l-2.33.38a1.55 1.55 0 0 0-1.13 1.48c-1.15 14.32 2.31 28.29 6.32 41.92q1.88 6.33 4.22 12.5a1.58 1.58 0 0 0 1.9 1.07l22.71-6.83 6.46-1.94-1.5-.4 10 8.62 24.16 20.79 29.14 25.07 25.27 21.74c4.06 3.5 8.09 7.06 12.21 10.5l.17.15c1.49 1.28 3.67-.88 2.17-2.18Z" transform="translate(-141.46 -102.13)"/><path class="cls-1" d="M482.06 157.54s62 9.22 76.36 37.92c7.17-12.81 4.61-20.5-4.1-27.67-2.94-2.42-18.59-11.95-33.31-16.4-11.82-3.58-23.21-6.69-32.84 1.05-3.08 2.48-2.52 2.03-6.11 5.1Z" transform="translate(-141.46 -102.13)"/><path d="M481.66 159a185.45 185.45 0 0 1 21.58 4.76c13.58 3.74 27.3 8.67 39 16.67 6 4.1 11.53 9.23 14.84 15.79a1.55 1.55 0 0 0 2.66 0c3.6-6.5 6.09-14.09 2.69-21.19-2.5-5.21-7.26-8.82-12.07-11.76a140.93 140.93 0 0 0-21.71-10.84 123.91 123.91 0 0 0-13-4.23 53.19 53.19 0 0 0-12.83-2.12 24.13 24.13 0 0 0-13.33 3.53 76 76 0 0 0-8.48 6.82c-1.51 1.29.68 3.46 2.17 2.18 2.13-1.83 4.24-3.7 6.48-5.39a20.25 20.25 0 0 1 10.85-4 39.18 39.18 0 0 1 11.66 1.28 122.66 122.66 0 0 1 12.29 3.62A131.5 131.5 0 0 1 546 164.24c2.21 1.27 4.41 2.58 6.49 4a27 27 0 0 1 5.56 5.39 14.41 14.41 0 0 1 3 8.94c-.08 4.29-1.91 8.38-4 12.07h2.66c-6.35-12.59-19.9-20.34-32.35-25.75a189.56 189.56 0 0 0-37-11.41c-2.64-.55-5.3-1.07-8-1.47-1.82-.24-2.66 2.72-.7 2.99Z" transform="translate(-141.46 -102.13)"/><circle cx="413.37" cy="35.94" r="3.07"/><path d="M556.37 138.07v.25-.16c0 .12 0 .28-.09.41a1.55 1.55 0 0 0-.08.23s.17-.35 0-.15l-.24.42c-.16.24.21-.22.06-.09a.93.93 0 0 0-.13.15l-.12.11c-.1.1-.28.16.07 0-.12.07-.22.16-.34.22l-.14.08c-.25.14.37-.12 0 0a2.62 2.62 0 0 1-.4.11h.12a1.55 1.55 0 0 0-.21 0 3.12 3.12 0 0 1-.43 0c-.2 0 .42.08.12 0h-.24l-.23-.08c-.14 0-.1-.12.14.06a3.9 3.9 0 0 0-.35-.19l-.17-.11c-.17-.1.3.26.09.06s-.22-.25-.33-.34c.22.17.17.24.09.12l-.13-.2c0-.05 0-.1-.08-.14s-.07-.31 0 .07c0-.13-.09-.26-.13-.39v-.16c-.07-.29 0 .4 0 0a2.54 2.54 0 0 1 0-.39c0-.14.09-.35 0 .08a.86.86 0 0 0 0-.17c0-.13.08-.26.12-.39.09-.29-.18.33 0 .07l.12-.21a1.63 1.63 0 0 1 .11-.17c.09-.15.18-.11-.07.09.1-.08.18-.21.27-.29s.25-.19 0 0a4.19 4.19 0 0 0 .42-.24s-.37.14-.14.06l.23-.07c.08 0 .49-.09.2-.06s.19 0 .27 0h.21c.3 0-.35-.08-.08 0l.48.13c.28.09-.27-.15-.11 0l.25.13.14.09c.33.22-.18-.18 0 0l.29.29c.21.21-.21-.32 0-.06l.13.2.11.21c.14.24-.11-.35 0-.07s.09.31.13.48 0 .18 0-.16v.34a1.54 1.54 0 0 0 3.08 0 4.69 4.69 0 0 0-3.11-4.36 4.59 4.59 0 0 0-5 1.33 4.6 4.6 0 0 0 4.43 7.53 4.64 4.64 0 0 0 3.66-4.5 1.54 1.54 0 0 0-3.08 0Z" transform="translate(-141.46 -102.13)"/><path d="M520.25 151.18a55.94 55.94 0 0 1 19.85-8.87 24.3 24.3 0 0 1 7.41-.49c1.84.19 4.56.66 5.76 2.16a8.76 8.76 0 0 1 1.42 5 32.31 32.31 0 0 1-.5 6.8 60.61 60.61 0 0 1-2.38 9.55c-.64 1.88 2.33 2.68 3 .82a62.09 62.09 0 0 0 2.24-8.78c.81-4.46 1.59-9.89-.58-14.11-2.34-4.53-9.08-4.93-13.53-4.48a47.42 47.42 0 0 0-15.72 4.9 62 62 0 0 0-8.49 4.85c-1.62 1.12-.08 3.78 1.55 2.65Z" transform="translate(-141.46 -102.13)"/><path d="M537 158.35c1.3-1.57 2.67-3.08 4.06-4.57a64.56 64.56 0 0 1 8.3-7.74 13.8 13.8 0 0 1 4.34-2.39 1.54 1.54 0 0 0-.81-3c-3.46.91-6.46 3.64-9 6a98.51 98.51 0 0 0-7.53 7.76q-.76.85-1.5 1.74a1.58 1.58 0 0 0 0 2.18 1.55 1.55 0 0 0 2.17 0ZM479.5 162.66s-10.25 5.64-16.91 3.08c1 3.07 14.86 8.2 22.55 3.07" transform="translate(-141.46 -102.13)"/><path d="M478.73 161.34a32.71 32.71 0 0 1-5.46 2.3c-3.27 1.06-6.95 1.83-10.27.62a1.54 1.54 0 0 0-1.89 1.89 6.91 6.91 0 0 0 3.44 3.34 24.61 24.61 0 0 0 6.27 2.31c5 1.15 10.68 1.2 15.1-1.66 1.65-1.07.11-3.73-1.56-2.65-3.64 2.36-8.34 2.31-12.45 1.41a22.79 22.79 0 0 1-5.43-1.86 13 13 0 0 1-1.65-1 4.23 4.23 0 0 1-.66-.61s-.19-.36-.1-.1l-1.89 1.89c3.72 1.37 8 .63 11.64-.53a36.15 36.15 0 0 0 6.46-2.7c1.73-1 .18-3.6-1.55-2.65Z" transform="translate(-141.46 -102.13)"/><path class="cls-4" d="m317.98 90.1-9.58-1.73"/><path d="m459.85 190.74-8.37-1.51-1.21-.22a1.59 1.59 0 0 0-1.9 1.08 1.56 1.56 0 0 0 1.08 1.89l8.37 1.51 1.21.22a1.54 1.54 0 0 0 .82-3Z" transform="translate(-141.46 -102.13)"/><path class="cls-4" d="m318.98 103.63-9.54 1.95"/><path d="m460 204.28-8.35 1.7-1.19.25a1.54 1.54 0 0 0-1.07 1.89 1.58 1.58 0 0 0 1.89 1.07l8.35-1.7 1.19-.25a1.55 1.55 0 0 0 1.08-1.89 1.59 1.59 0 0 0-1.9-1.07Z" transform="translate(-141.46 -102.13)"/><path class="cls-4" d="m323.21 113.9-6.72 7.04"/><path d="m463.59 214.94-5.89 6.16-.84.88a1.53 1.53 0 0 0 2.17 2.17l5.89-6.16.84-.88a1.53 1.53 0 0 0-2.17-2.17Z" transform="translate(-141.46 -102.13)"/></g><g id="Ebene_3" data-name="Ebene 3"><path d="M142.62 1.56 131.47 4.3l4.41 31.56-21.18-14.41-11.03 2.63 18.72 87.71 10.87-2.88 45.96-74.56-22.05 5.38 8.87-33.91-23.42-4.26z"/><path d="m283.67 102.18-11.16 2.73a1.61 1.61 0 0 0-1.09 1.93l3.87 27.7.54 3.87 2.3-1.77-12.84-8.74-7.16-4.9a11.65 11.65 0 0 0-1.18-.8c-.94-.47-2.3.1-3.25.33l-9 2.14a1.61 1.61 0 0 0-1.1 1.93l1.86 8.69 4.47 21 5.4 25.29 4.67 21.9c.75 3.54 1.29 7.22 2.28 10.7a.8.8 0 0 1 0 .15 1.59 1.59 0 0 0 1.93 1.1l10.3-2.73c1.38-.37 1.78-1.32 2.48-2.45l9.48-15.25 14.61-23.71 13.82-22.42c2.34-3.78 4.88-7.51 7-11.4a1.4 1.4 0 0 1 .1-.16 1.59 1.59 0 0 0-1.77-2.31L301 139.67l-2.8.68 1.93 1.93 7.77-29.7 1.1-4.22a1.57 1.57 0 0 0-1.09-1.92l-20.51-3.73-2.91-.53c-2-.36-2.82 2.66-.83 3l20.5 3.72 2.91.53-1.07-1.9-7.77 29.7-1.1 4.21a1.58 1.58 0 0 0 1.93 1.93l19.26-4.69 2.79-.68-1.77-2.31-4.56 7.39-11 17.86-13.26 21.5L279 201l-3.8 6.16a23.69 23.69 0 0 0-1.79 2.91.6.6 0 0 1-.09.13l.94-.72-10.87 2.88 1.93 1.1-1.86-8.69-4.47-21-5.4-25.29-4.59-21.84-1.55-7.28a26.32 26.32 0 0 0-.73-3.42.8.8 0 0 1 0-.15l-1.1 1.93 11-2.63-1.21-.16 18.54 12.62 2.64 1.8c1.27.86 2.47-.57 2.31-1.78l-3.9-27.69-.54-3.87-1.09 1.93 11.15-2.73c1.94-.48 1.11-3.51-.85-3.03Z" transform="translate(-141.46 -102.13)"/><path class="cls-4" d="m131.6 4.2-6.74 34.29-21.19-14.41 18.56 87.46 45.97-74.55-22.06 5.37 8.87-33.91L131.6 4.2z"/><path d="M271.54 105.91 265.63 136l-.83 4.22 2.31-.94-18.54-12.62-2.64-1.8c-1.21-.82-2.57.53-2.31 1.77l1.85 8.73 4.42 20.82 5.37 25.31 4.62 21.79c.75 3.53 1.29 7.19 2.27 10.66v.15a1.58 1.58 0 0 0 2.86.38l4.56-7.39 11-17.86 13.26-21.5 11.47-18.6c1.85-3 3.89-6 5.59-9.07l.08-.13a1.59 1.59 0 0 0-1.77-2.31L290 142.3l-2.79.68 1.93 1.93 7.76-29.7L298 111a1.58 1.58 0 0 0-1.09-1.93l-20.51-3.73-2.91-.53c-2-.36-2.82 2.67-.83 3l20.51 3.72 2.91.53-1.1-1.93-7.77 29.7-1.1 4.21A1.58 1.58 0 0 0 288 146l19.26-4.69 2.79-.68-1.77-2.31-4.55 7.39-11 17.86-13.26 21.5-11.47 18.6-3.8 6.16a26.42 26.42 0 0 0-1.79 2.91s-.06.09-.08.14l2.86.37-1.85-8.72-4.42-20.83-5.37-25.31-4.62-21.79-1.53-7.22a28.41 28.41 0 0 0-.73-3.44.8.8 0 0 1 0-.15l-2.31 1.77 18.54 12.62 2.65 1.8a1.58 1.58 0 0 0 2.3-.94l5.89-30.04.83-4.22c.43-2.01-2.64-2.85-3.03-.87Z" transform="translate(-141.46 -102.13)"/><path d="m98.67 398.82 1.37-11.4-31.09-7 20.96-14.73 1.42-11.25-88.67-13.42-1.14 11.19 53.56 69.3 2.74-22.53 28.61 20.26 12.24-20.42z"/><path d="m241.7 501 1.37-11.4a1.57 1.57 0 0 0-1.15-1.51l-27.28-6.14-3.81-.86.37 2.87 12.91-9.08 7-4.91a10.3 10.3 0 0 0 1.38-1c.65-.68.61-2.31.72-3.19l1.16-9.16a1.55 1.55 0 0 0-1.15-1.51l-8.78-1.33-21.23-3.21-25.57-3.87-22.12-3.35c-3.61-.55-7.21-1.11-10.82-1.64h-.15a1.61 1.61 0 0 0-2 1.51l-1.08 10.59c-.13 1.33.77 2.18 1.54 3.17l11 14.21 17 22L187.12 514l5.5 7.12c.89 1.14 1.71 2.4 2.69 3.48l.12.15c.94 1.22 2.53 0 2.68-1.11L200.5 504l.35-2.85-2.36 1.35 25 17.74 3.56 2.52a1.59 1.59 0 0 0 2.14-.56L240 504.28l1.52-2.53a1.57 1.57 0 0 0-2.71-1.59L228.06 518l-1.52 2.53 2.14-.56-25.05-17.74-3.56-2.51c-1.08-.77-2.23.3-2.36 1.35l-2.39 19.68-.35 2.85 2.68-1.11-5.31-6.87-12.83-16.6-15.45-20-13.36-17.23-4.42-5.73c-.69-.88-1.32-1.9-2.09-2.7a1.13 1.13 0 0 1-.1-.13l.46 1.11 1.14-11.19-2 1.51 8.79 1.33 21.22 3.21 25.57 3.87 22.12 3.35 7.37 1.11a21.32 21.32 0 0 0 3.45.53h.16l-1.15-1.51-1.43 11.24.78-1.35-18.35 12.9-2.61 1.84a1.59 1.59 0 0 0 .37 2.87l27.28 6.14 3.82.86-1.16-1.52-1.36 11.47c-.24 2 2.9 1.94 3.14 0Z" transform="translate(-141.46 -102.13)"/><path class="cls-4" d="m100.09 387.58-29.72-18.4 20.96-14.74-88.38-13.48 53.55 69.31 2.75-22.53 28.61 20.25 12.23-20.41z"/><path d="m242.35 488.35-26.07-16.13-3.65-2.22v2.71L231 459.76l2.61-1.84c1-.68 1.09-2.64-.37-2.86l-8.82-1.35-21-3.21-25.58-3.9-22-3.35c-3.59-.55-7.18-1.12-10.77-1.64h-.16a1.58 1.58 0 0 0-1.52 2.62l5.31 6.87 12.82 16.6 15.45 20 13.27 17.3 4.43 5.73c.69.89 1.33 1.87 2.09 2.7l.09.13c1 1.21 2.54 0 2.68-1.11l2.4-19.68.35-2.86-2.36 1.36L225 509l3.55 2.51a1.58 1.58 0 0 0 2.15-.56L241.39 493l1.52-2.53a1.57 1.57 0 0 0-2.71-1.58l-10.72 17.87-1.48 2.57 2.15-.56L205.06 491l-3.56-2.52c-1.08-.77-2.23.3-2.36 1.35l-2.4 19.68-.35 2.86 2.68-1.11-5.31-6.87-12.82-16.6-15.45-20-13.36-17.29-4.43-5.73a25.94 25.94 0 0 0-2.09-2.7l-.09-.12-1.52 2.66 8.82 1.34 21 3.21 25.58 3.9 22 3.36 7.3 1.11a27.45 27.45 0 0 0 3.47.53h.16l-.38-2.87-18.34 12.91L211 470a1.59 1.59 0 0 0 0 2.71l26.07 16.14 3.65 2.26c1.76 1.02 3.34-1.69 1.63-2.76Z" transform="translate(-141.46 -102.13)"/><path d="m601.37 536.44 5.15 10.26 29.79-11.34-9.34 23.87 5.03 10.16 81.33-37.78-5.23-9.96-82.92-28.2 10.16 20.3-35.04-1.09 1.07 23.78z"/><path d="m741.48 639.36 5.15 10.26a1.57 1.57 0 0 0 1.77.72l26.13-9.94 3.65-1.39-1.92-1.93-5.67 14.47-3.15 8.07a8.83 8.83 0 0 0-.52 1.32c-.22 1 .67 2.25 1.09 3.09l4.09 8.28a1.6 1.6 0 0 0 2.15.56l8-3.74 19.47-9 23.46-10.89 20.29-9.43 6.75-3.13c1.05-.49 2.17-.91 3.17-1.48l.14-.06a1.59 1.59 0 0 0 .57-2.15l-5-9.42c-.65-1.24-1.74-1.43-3-1.85l-17-5.78-26.37-9-24.93-8.48c-4.2-1.43-8.41-3.13-12.69-4.31l-.18-.07c-1.39-.47-2.34 1.17-1.77 2.31l8.87 17.73 1.28 2.57 1.36-2.36-30.69-.95-4.35-.14a1.59 1.59 0 0 0-1.57 1.57l.94 20.82.13 2.95c.09 2 3.23 2 3.14 0l-.94-20.82-.13-3-1.57 1.57 30.68.95 4.36.14a1.59 1.59 0 0 0 1.35-2.36l-8.87-17.73-1.15-2.54-1.78 2.3 8.22 2.79 19.86 6.76 23.92 8.13 20.69 7 6.85 2.33a27.32 27.32 0 0 0 3.23 1.1h.15l-.93-.72 5.23 10 .56-2.15-8.06 3.74-19.47 9L803 656.06l-20.29 9.43-6.71 3.14a25.5 25.5 0 0 0-3.18 1.47.59.59 0 0 1-.14.06l2.15.57-5-10.17.16 1.21 8.17-20.88 1.16-3a1.58 1.58 0 0 0-1.93-1.93l-26.13 9.95-3.66 1.39 1.77.72-5.15-10.27c-.94-1.75-3.65-.19-2.74 1.61Z" transform="translate(-141.46 -102.13)"/><path class="cls-4" d="m606.39 546.6 34.94-1.07-9.33 23.86 81.12-37.58-82.92-28.2 10.16 20.3-35.04-1.09 1.07 23.78z"/><path d="m747.85 650.3 30.64-.94 4.3-.14-1.51-2-8.17 20.89-1.17 3c-.55 1.41 1.21 2.28 2.31 1.77l8.09-3.75 19.32-8.94 23.47-10.88 20.21-9.36 6.71-3.1c1.05-.49 2.17-.91 3.18-1.48l.14-.06c1.32-.61.79-2.48-.37-2.87l-8.22-2.8-19.86-6.75-23.92-8.15-20.68-7c-3.34-1.13-6.68-2.52-10.09-3.43h-.15c-1.39-.47-2.34 1.16-1.77 2.3l8.87 17.73 1.28 2.57 1.36-2.36-30.68-1-4.36-.14a1.59 1.59 0 0 0-1.57 1.57l.94 20.82.13 3c.09 2 3.23 2 3.14 0l-.94-20.82-.13-3-1.57 1.57 30.68 1 4.36.14a1.58 1.58 0 0 0 1.35-2.36l-8.87-17.73-1.3-2.6-1.77 2.3 8.22 2.8 19.86 6.75 23.91 8.14 20.69 7 6.85 2.33a25.22 25.22 0 0 0 3.24 1.1l.15.05-.38-2.86-8.09 3.75-19.32 8.94-23.47 10.88-20.22 9.36-6.7 3.1a28.82 28.82 0 0 0-3.19 1.48.59.59 0 0 1-.14.06l2.31 1.77 8.17-20.88 1.16-3a1.57 1.57 0 0 0-1.51-2l-30.64.94-4.3.13c-1.99.08-2 3.22.02 3.16Z" transform="translate(-141.46 -102.13)"/><path d="m547.26 96.5 11.31 2.01 8.72-30.65 13.55 21.75 11.15 2.05 18.35-87.78-11.1-1.77-72.19 49.6 22.34 4-21.82 27.43 19.69 13.36z"/><path d="m688.3 200.14 11.31 2a1.61 1.61 0 0 0 1.93-1.09l7.66-26.9 1.07-3.76-2.87.38 8.21 13.23 4.58 7.35c.25.4.47.84.75 1.21.7.92 1.95.91 3 1.1l9.06 1.64a1.6 1.6 0 0 0 1.93-1.09l1.82-8.7 4.39-21 5.29-25.31 4.58-21.9c.75-3.57 1.59-7.13 2.24-10.72a.83.83 0 0 1 0-.15 1.59 1.59 0 0 0-1.1-1.93l-10.52-1.66c-1.55-.25-2.13.29-3.32 1.11l-14.8 10.16-23 15.78-21.7 14.91c-3.68 2.53-7.41 5-11 7.58l-.17.11c-1 .69-1.06 2.61.38 2.87l19.51 3.5 2.83.5-.69-2.62-19.11 24-2.71 3.41a1.6 1.6 0 0 0 .31 2.46l17.25 11.71 2.45 1.65c1.67 1.14 3.25-1.58 1.58-2.7l-17.25-11.7-2.44-1.66.31 2.46 19.12-24L692 159c.65-.82.59-2.39-.69-2.62l-19.52-3.5-2.83-.5.38 2.86 7.15-4.91 17.29-11.88 20.83-14.31 18-12.37 6-4.1a20.36 20.36 0 0 0 2.82-1.93s.09-.06.13-.09l-1.21.16 11.11 1.76-1.1-1.93-1.82 8.69-4.39 21-5.29 25.31-4.58 21.9-1.53 7.29a22.34 22.34 0 0 0-.71 3.42v.15l1.93-1.09-11.14-2.05.93.72-11.85-19-1.69-2.71a1.59 1.59 0 0 0-2.87.37l-7.66 26.89-1.07 3.76 1.93-1.09-11.3-2c-2.09-.43-2.93 2.59-.95 2.94Z" transform="translate(-141.46 -102.13)"/><path class="cls-4" d="m558.41 98.55 20.03-28.64 13.55 21.75 18.39-87.49-72.18 49.59 22.34 4-21.83 27.43 19.7 13.36z"/><path d="m701.22 201.47 17.57-25.12 2.47-3.52h-2.71l11.85 19 1.69 2.71a1.59 1.59 0 0 0 2.87-.37l1.83-8.73 4.38-20.83 5.33-25.32 4.58-21.8c.75-3.55 1.59-7.1 2.24-10.67v-.15c.25-1.23-1.1-2.6-2.31-1.77l-7.15 4.92-17.29 11.88-20.79 14.3-18 12.37c-2.93 2-5.9 4-8.79 6l-.13.09c-1 .68-1.06 2.61.38 2.86l19.51 3.5 2.83.51-.69-2.63-19.11 24-2.72 3.41a1.62 1.62 0 0 0 .32 2.47l17.25 11.7 2.45 1.66c1.67 1.13 3.24-1.58 1.58-2.71l-17.25-11.7L681 186l.31 2.46 19.11-24 2.72-3.41c.65-.82.59-2.39-.7-2.62l-19.51-3.49-2.83-.51.38 2.87 7.15-4.92 17.29-11.88 20.82-14.3 18-12.38 6-4.1a26 26 0 0 0 2.82-1.93l.13-.09-2.31-1.77-1.83 8.73-4.38 20.83-5.33 25.32-4.58 21.8-1.52 7.23a26.8 26.8 0 0 0-.72 3.43v.15l2.87-.37L723 174l-1.69-2.71a1.59 1.59 0 0 0-2.71 0L701 196.37l-2.46 3.52c-1.18 1.66 1.53 3.23 2.68 1.58ZM294.16 699.52a127.91 127.91 0 0 0-22.2-17c-10.54-6.41-26.42-13.76-37.83-5.2-3.57 2.68-7.81 7.39-7.34 12.24.35 3.64 3.38 6.07 6.84 6.68a14.15 14.15 0 0 0 10.8-2.55 14.62 14.62 0 0 0 5.57-12.48c-.2-6.19-2.93-12.65-6.35-17.73-3.81-5.64-9.48-10.15-15.35-13.47a60.66 60.66 0 0 0-7.78-3.67 2.09 2.09 0 0 0-2.56 1.45 2.14 2.14 0 0 0 1.46 2.56A48 48 0 0 1 238.88 664l.44.55c.3.38-.2-.27 0 0l.18.25c.19.26.39.52.57.79.47.7.88 1.44 1.3 2.18a37.73 37.73 0 0 1 4 9.67 15.8 15.8 0 0 1 .52 3.59v1.85c0 .26 0 .52-.07.78s.09-.5 0 0l-.09.49a13.41 13.41 0 0 1-.34 1.39c-.08.25-.17.48-.25.73-.18.54.12-.19-.17.39-.2.4-.41.8-.65 1.19-.11.18-.23.35-.35.52-.35.54.16-.13-.21.28s-.56.63-.87.93l-.44.39c-.08.08-.17.14-.25.21s.39-.27 0 0a14.87 14.87 0 0 1-2.15 1.25c-.39.19.36-.14.09 0l-.29.11-.52.19c-.41.13-.83.24-1.25.33l-.53.11c-.58.12.13 0-.1 0-.39 0-.78.07-1.18.07h-1.14l-.44-.05c.75.08 0 0-.21 0l-.93-.24-.48-.18c-.13 0 .4.23-.06 0l-.85-.49c-.35-.21-.13-.11 0 0-.13-.12-.26-.22-.38-.35s-.21-.23-.32-.34.26.46.05.06a3.14 3.14 0 0 0-.24-.39c-.19-.3-.16-.43 0 0-.09-.29-.16-.58-.25-.87s0 .55 0 0a5.42 5.42 0 0 0 0-.57c0-.17.12-.82 0-.1l.09-.51a9.36 9.36 0 0 1 .4-1.27c.1-.28-.17.33.07-.14.11-.22.22-.44.34-.66a13.17 13.17 0 0 1 .87-1.37c.06-.09.56-.76.32-.45.18-.23.36-.45.55-.67.49-.57 1-1.13 1.55-1.65 3.92-3.77 9.42-4.79 14.62-4 6.36.94 12.19 3.63 17.72 6.77a122.32 122.32 0 0 1 23.43 17.49l.36.35c1.93 1.86 4.87-1.08 2.94-2.94ZM586.76 651.16a127.79 127.79 0 0 0-23.47 14.55c-9.7 7.53-21.86 19.38-18.56 33 1.09 4.49 4.08 10.18 8.77 11.76 3.48 1.17 6.8-.78 8.73-3.63a13.84 13.84 0 0 0-6.29-20.24c-6.25-2.79-13.75-2.42-20.31-1.07s-12.65 5.12-17.74 9.21a57.52 57.52 0 0 0-6.51 6.17c-1.8 2 1.13 4.92 2.94 2.94 5.59-6.15 12.71-11.46 20.61-13.84a31.16 31.16 0 0 1 6.07-1.09 41.6 41.6 0 0 1 5.35-.19 23.09 23.09 0 0 1 4.13.46c.6.13 1.19.27 1.77.45l.9.29.35.13.34.13h-.08a15.23 15.23 0 0 1 2.8 1.6c.3.21 0 0 0 0l.29.24c.17.15.34.29.5.45a14 14 0 0 1 1 1.05c.38.44-.13-.25.18.24.12.19.26.37.38.56.23.38.43.78.63 1.18s-.09-.29.07.16c.06.19.14.37.2.55.13.41.24.82.33 1.24 0 .2.07.41.11.62s0-.15 0-.18V699.51c0 .41 0 .73-.06 1.1 0 .59.09-.41 0 .17 0 .19-.07.39-.11.58-.08.37-.17.73-.28 1.09l-.16.49c-.06.16-.39.9-.09.25a12.74 12.74 0 0 1-1 1.8c-.32.49.07 0 0 .08s-.2.23-.3.34-.5.48-.76.72.45-.26 0 0c-.14.07-.26.17-.4.25s-.28.14-.41.22.49-.13 0 0c-.19 0-1 .24-.61.17s-.47 0-.68 0c-.55 0 .29.09 0 0s-.32-.06-.48-.11l-.43-.14c.39.12.16.09-.14-.08s-.59-.35-.88-.55.37.32 0 0l-.2-.16-.54-.51a13.31 13.31 0 0 1-.93-1.06c.3.38-.12-.18-.21-.3s-.36-.54-.53-.81a21.71 21.71 0 0 1-1.69-3.32c-2-5.23-.85-10.39 1.91-15.19 3.15-5.47 7.83-10 12.75-14A124.9 124.9 0 0 1 588.4 655l.46-.22c2.41-1.15.3-4.73-2.1-3.59Z" transform="translate(-141.46 -102.13)"/></g></svg>