<?xml version="1.0" encoding="utf-8"?>
<!-- Generator: Adobe Illustrator 24.1.0, SVG Export Plug-In . SVG Version: 6.00 Build 0)  -->
<svg version="1.1" xmlns="http://www.w3.org/2000/svg" xmlns:xlink="http://www.w3.org/1999/xlink" x="0px" y="0px"
	 viewBox="-44.5 -65.5 840 551.6" style="enable-background:new -44.5 -65.5 840 551.6;" xml:space="preserve">
<style type="text/css">
	.st0{display:none;fill:#FFFFFF;}
	.st1{fill:#6997DB;}
	.st2{fill:none;stroke:#6997DB;stroke-width:2.7972;}
	.st3{fill:#AFAFAF;}
	.st4{fill:#C4C5C2;}
	.st5{fill:#898989;}
	.st6{fill:#729FCF;}
	.st7{fill:url(#SVGID_5_);}
	.st8{fill:#888A85;}
	.st9{fill:url(#SVGID_14_);}
	.st10{fill:none;stroke:#FFFFFF;stroke-width:1.233;stroke-linecap:round;}
	.st11{fill:url(#SVGID_15_);}
	.st12{fill:url(#SVGID_16_);}
	.st13{fill:#204A87;}
	.st14{fill:none;stroke:#FFFFFF;}
	.st15{fill:url(#SVGID_25_);}
	.st16{fill:#FFFFFF;}
	.st17{fill:url(#SVGID_26_);}
	.st18{fill:#BABDB6;}
	.st19{fill:#C7C7C7;}
	.st20{fill:#E6E6E6;}
	.st21{fill:#A7A7A7;}
	.st22{fill:#DDDDDD;}
	.st23{fill:#606060;}
	.st24{fill:#DEDEDE;}
	.st25{fill:#F0F0F0;}
	.st26{fill:#9A9A9A;}
	.st27{fill:none;stroke:#9E9E9E;stroke-width:2.612;}
	.st28{fill:#BF9700;}
	.st29{font-family:'LucidaGrande';}
	.st30{font-size:17.087px;}
	.st31{fill:#9E9B92;}
	.st32{font-family:'MyriadPro-Bold';}
	.st33{font-size:21px;}
	.st34{font-size:24px;}
	.st35{font-size:14px;}
	.st36{font-family:'LucidaGrande-Bold';}
</style>
<g id="Ebene_5">
	<rect x="-44.5" y="-65.5" class="st0" width="840" height="551.6"/>
</g>
<g id="internet" xmlns:cc="http://creativecommons.org/ns#" xmlns:dc="http://purl.org/dc/elements/1.1/" xmlns:rdf="http://www.w3.org/1999/02/22-rdf-syntax-ns#" xmlns:svg="http://www.w3.org/2000/svg">
</g>
<g id="client">
</g>
<g id="server">
</g>
<g id="keys">
	<polyline class="st1" points="568.4,95.5 432.7,173.4 435.2,177.8 571,99.9 568.4,95.5 	"/>
	<line class="st2" x1="157.4" y1="141.4" x2="293.1" y2="219.3"/>
	<path class="st3" d="M313.6,171.2c-18.3,0-33.1,12.5-38.1,29.2c-5.6-2.9-11.7-5-18.4-5c-22.3,0-40.3,18.1-40.3,40.3
		c0,4.7,1.3,8.9,2.8,13.1c-11.1,6.2-18.9,17.7-18.9,31.3c0,20,16.3,36.3,36.3,36.3c1.4,0,151.8,0,153.2,0c20,0,36.3-16.3,36.3-36.3
		c0-13.6-7.8-25-18.9-31.3c1.5-4.2,2.8-8.4,2.8-13.1c0-22.3-18.1-40.3-40.3-40.3c-6.7,0-12.8,2.1-18.4,5
		C346.8,183.7,332,171.2,313.6,171.2z"/>
	<path class="st4" d="M377.7,107.1c-21.2,0-39,12-49,29.1c-7.2-3.6-15-6.2-23.6-6.2c-29.5,0-53.5,24-53.5,53.5
		c0,29.5,24,53.5,53.5,53.5c18.5,0,33.9-10.1,43.5-24.4c8.7,5.3,18.3,9.1,29.1,9.1c7,0,13.4-1.8,19.6-4.1c3.9,6.6,9,12.1,15.3,16.5
		c-0.1,1-0.5,1.9-0.5,2.9c0,29.5,24,53.5,53.5,53.5c29.5,0,53.5-24,53.5-53.5c0-18.1-9.6-33.3-23.4-43c0.1-1,0.5-1.9,0.5-2.9
		c0-29.5-24-53.5-53.5-53.5c-4.8,0-9,1.7-13.4,2.9C420.2,121,400.7,107.1,377.7,107.1z"/>
	<path class="st5" d="M419.6,185.2c-18.3,0-33.1,12.5-38.1,29.2c-5.6-2.9-11.6-5-18.4-5c-22.3,0-40.3,18.1-40.3,40.3
		c0,4.7,1.3,8.9,2.8,13.1c-11.1,6.2-18.9,17.7-18.9,31.3c0,20,16.3,36.3,36.3,36.3c1.4,0,151.8,0,153.2,0c20,0,36.3-16.3,36.3-36.3
		c0-13.6-7.8-25-18.9-31.3c1.5-4.2,2.8-8.4,2.8-13.1c0-22.3-18.1-40.3-40.3-40.3c-6.7,0-12.8,2.1-18.4,5
		C452.8,197.7,437.9,185.2,419.6,185.2z"/>
	<g>
		<defs>
			<path id="SVGID_1_" d="M177,176.4c-0.1,0.2-0.1,0.4-0.2,0.6c-0.2,0.4-0.6,0.7-1,1c-0.4,0.2-0.8,0.3-1.2,0.4c0.3,0,0.5,0,0.7,0
				c0,0,0,0,0,0c0,0,0,0,0,0c0.6,0,1.1-0.1,1.5-0.2c0.3-0.1,0.5-0.2,0.5-0.3l0.1-0.3c0-0.2-0.1-0.5-0.3-1
				C177.1,176.5,177,176.4,177,176.4 M157,176.1c-1,0-1.8,0.1-2.3,0.3c-0.6,0.2-0.9,0.5-1.1,0.9c-0.1,0.2-0.2,0.5-0.2,0.9
				c0.3-0.5,0.8-0.9,1.3-1.1c1.2-0.7,2.7-0.8,4.4-0.9c0.2,0,0.5,0,0.7,0C158.8,176.2,157.9,176.1,157,176.1
				C157.1,176.1,157.1,176.1,157,176.1C157.1,176.1,157.1,176.1,157,176.1 M175.7,171.7c0.4,0.5,0.7,1.1,0.9,1.7c0,0,0,0.1,0,0.1
				c0.9,0.6,1.7,1.4,2.1,2.3c0.3,0.6,0.5,1.2,0.5,1.8c0,0.4-0.1,0.9-0.4,1.3c-0.2,0.4-0.6,0.6-1,0.8c-0.7,0.4-1.6,0.4-2.6,0.4
				c-2.2,0-5-0.5-8-1c-2.9-0.5-6-1-8.4-1c0,0,0,0,0,0c0,0,0,0,0,0c-1.1,0-2.1,0.1-2.8,0.4c-0.7,0.2-1.2,0.6-1.4,1
				c-0.2,0.3-0.3,0.7-0.3,1.2c0,1,0.4,2.6,1.6,4.7c0.1,0.1,0.1,0.2,0.2,0.3h0.5c0.4,0,0.7,0.3,0.8,0.6h4.4l0.4,0l0.2,0l0,0h0.2
				l0.3,0.1l0.2,0.1l0,0c0.2,0,0.3,0.1,0.5,0.2l0.1,0.1l0.1,0.1l0,0l0.1,0.1l0,0c10.1-2.6,16.2-6,16.2-9.8
				C180.1,175.2,178.6,173.4,175.7,171.7 M156.4,168.1C156.4,168.1,156.4,168.1,156.4,168.1c-5.7,0-11.8,0.4-17.3,0.4
				c-1.4,0-2.7,0-4-0.1c0,0,0,0.1,0.1,0.1c0.2,0.3,0.5,0.7,0.9,0.9c7.4,0.8,16.6,0.6,24.6,1c5.1,0.2,9.7,0.7,13.1,1.7
				c-0.3-0.4-0.7-0.7-1.2-1.1c-1.1-0.8-2.5-1.4-4.1-1.8C165.2,168.4,161,168.1,156.4,168.1 M133.9,164.2c0.1,0.8,0.3,1.6,0.5,2.4
				c1.5,0.1,3,0.1,4.7,0.1c0,0,0.1,0,0.1,0c5.4,0,11.5-0.4,17.2-0.4c1.3,0,2.5,0,3.7,0.1c-3.8-0.8-8-1.6-12.5-2.2L133.9,164.2
				 M75.8,164.2c-19.7,2.7-32.8,7.5-32.8,12.9c0,3.5,5.2,6.6,14.1,9.2c0.1,0,0.2,0,0.3,0h0.1h0.1h0.2l0,0l0.2,0l0.4,0H59
				c0.1-0.3,0.4-0.6,0.8-0.6h1.4c0.4,0,0.7,0.3,0.8,0.6h3c0.1-0.3,0.4-0.6,0.8-0.6h1.4c0.4,0,0.7,0.3,0.8,0.6h3
				c0.1-0.3,0.4-0.6,0.8-0.6h1.4c0.4,0,0.7,0.3,0.8,0.6h3c0.1-0.3,0.4-0.6,0.8-0.6h1.4c0.4,0,0.7,0.3,0.8,0.6h3
				c0.1-0.3,0.4-0.6,0.8-0.6H85c0.4,0,0.7,0.3,0.8,0.6h3c0.1-0.3,0.4-0.6,0.8-0.6H91c0.4,0,0.7,0.3,0.8,0.6h3
				c0.1-0.3,0.4-0.6,0.8-0.6H97c0.4,0,0.7,0.3,0.8,0.6h3c0.1-0.3,0.4-0.6,0.8-0.6h1.4c0.4,0,0.7,0.3,0.8,0.6h3
				c0.1-0.3,0.4-0.6,0.8-0.6h1.4c0.4,0,0.7,0.3,0.8,0.6h3c0.1-0.3,0.4-0.6,0.8-0.6h1.4c0.4,0,0.7,0.3,0.8,0.6h4.6
				c0.5,0,0.9,0.4,0.9,0.9l0,2.1h4l-0.1-2l0.9-0.1l-0.9,0.1c0-0.2,0.1-0.5,0.2-0.7c0.2-0.2,0.4-0.3,0.7-0.3h4.6
				c0.1-0.3,0.4-0.6,0.8-0.6h1.4c0.4,0,0.7,0.3,0.8,0.6h3c0.1-0.3,0.4-0.6,0.8-0.6h1.4c0.4,0,0.7,0.3,0.8,0.6h2.9
				c0.4,0,0.8,0.3,0.9,0.8l0.3,2.2h4.1l-0.4-1.8l0.9-0.2l-0.9,0.2c-0.1-0.3,0-0.6,0.2-0.8c0.2-0.2,0.4-0.3,0.7-0.3h0.3
				c0.1-0.3,0.4-0.6,0.8-0.6h1.4c0.4,0,0.7,0.3,0.8,0.6h3c-0.4-0.8-0.8-1.5-1.1-2.1c-1.1-2.3-1.7-4.1-1.7-5.6c0-0.7,0.1-1.4,0.4-2
				c0.3-0.6,0.8-1,1.3-1.4c1.1-0.7,2.4-0.8,3.8-0.8c2.5,0,5.5,0.6,8.4,1.2c2.9,0.6,5.7,1.2,7.5,1.2c0,0,0,0,0,0c0,0,0,0,0,0
				c0.6,0,1.2-0.1,1.5-0.2c0.4-0.1,0.5-0.3,0.6-0.4c0.1-0.1,0.1-0.2,0.1-0.5c0-0.2,0-0.5-0.1-0.8c-0.8-0.4-1.8-0.8-3-1.1
				c-2.7-0.7-6.3-1.1-10.4-1.3c-5.5-0.3-11.7-0.3-17.7-0.5c0.5,0.2,0.9,0.5,1.3,0.8c0.9,0.7,1.4,1.6,1.8,2.5c0.8,1.9,0.9,4,0.9,5.4
				c0,1-0.1,1.6-0.1,1.6l-0.1,1l-76.6,0.1l-0.1-1c0,0-0.1-0.9-0.1-2.1c0-1.1,0.1-2.5,0.4-3.9c0.4-1.4,1-2.8,2.2-3.8
				c0.8-0.7,1.9-1.1,3.2-1.1c1.9,0,3.4-0.3,4.5-0.8l-0.2,0c2.7-1.5,3.8-3,4-6.3L75.8,164.2"/>
		</defs>
		<clipPath id="SVGID_2_">
			<use xlink:href="#SVGID_1_"  style="overflow:visible;"/>
		</clipPath>
		<g style="clip-path:url(#SVGID_2_);">
			
				<image style="overflow:visible;" width="319" height="61" xlink:href="68AC38D6278F9EAF.jpg"  transform="matrix(0.4349 0 0 -0.4349 42.1934 189.8721)">
			</image>
		</g>
	</g>
	<g>
		<defs>
			<path id="SVGID_3_" d="M176.7,173.5c0.3,0.7,0.4,1.4,0.4,2c0,0.3,0,0.5-0.1,0.8c0.1,0.1,0.1,0.2,0.1,0.3c0.2,0.5,0.3,0.8,0.3,1
				l-0.1,0.3c0,0.1-0.2,0.2-0.5,0.3c-0.3,0.1-0.8,0.2-1.5,0.2c0,0,0,0,0,0c0,0,0,0,0,0c-0.2,0-0.5,0-0.7,0c-0.5,0.1-1,0.1-1.6,0.1
				c-2.2,0-5-0.6-7.9-1.2c-1.9-0.4-3.7-0.7-5.4-1c-0.2,0-0.5,0-0.7,0c-1.7,0-3.2,0.2-4.4,0.9c-0.5,0.3-1,0.7-1.3,1.1
				c0,0.1,0,0.1,0,0.2c0,1,0.4,2.6,1.5,4.8c0.4,0.7,0.8,1.5,1.3,2.3h0c-0.1-0.1-0.1-0.2-0.2-0.3c-1.1-2.1-1.6-3.7-1.6-4.7
				c0-0.5,0.1-0.9,0.3-1.2c0.3-0.4,0.7-0.8,1.4-1c0.7-0.2,1.7-0.4,2.8-0.4c0,0,0,0,0,0c0,0,0,0,0,0c2.4,0,5.4,0.5,8.4,1
				c3,0.5,5.8,1,8,1c1,0,1.8-0.1,2.6-0.4c0.4-0.2,0.7-0.4,1-0.8c0.2-0.4,0.4-0.8,0.4-1.3c0-0.6-0.2-1.1-0.5-1.8
				C178.3,174.9,177.6,174.1,176.7,173.5 M136.1,169.5c1.2,1.1,3.1,1.9,6.1,2c0.7,0,1.4,0.1,2,0.4c5.9,0.2,12.2,0.2,17.7,0.5
				c4,0.2,7.6,0.6,10.4,1.3c1.2,0.3,2.2,0.7,3,1.1c-0.1-0.2-0.1-0.4-0.2-0.7c-0.3-0.7-0.7-1.3-1.2-1.9c-3.4-1.1-8-1.5-13.1-1.7
				C152.7,170.1,143.4,170.3,136.1,169.5"/>
		</defs>
		<clipPath id="SVGID_4_">
			<use xlink:href="#SVGID_3_"  style="overflow:visible;"/>
		</clipPath>
		<g style="clip-path:url(#SVGID_4_);">
			
				<image style="overflow:visible;" width="103" height="40" xlink:href="68AC38D6278F9EAD.jpg"  transform="matrix(0.4349 0 0 -0.4349 135.2725 186.3916)">
			</image>
		</g>
	</g>
	<path class="st6" d="M160.1,191.7c-2.5-3.5-4.2-6.2-5.3-8.4c-1.1-2.2-1.5-3.8-1.5-4.8c0-0.5,0.1-0.9,0.2-1.1
		c0.2-0.4,0.6-0.7,1.1-0.9c0.6-0.2,1.4-0.3,2.4-0.3c2.2,0,5.2,0.6,8,1.2c2.9,0.6,5.7,1.2,7.9,1.2c1,0,2-0.1,2.7-0.6
		c0.4-0.2,0.7-0.5,1-1c0.2-0.4,0.3-0.9,0.3-1.4c0-0.7-0.2-1.4-0.5-2.2c-0.6-1.5-1.7-2.8-3-3.7c-2-1.4-4.6-2.2-7.5-2.7
		c-3-0.5-6.3-0.6-9.7-0.6c-5.7,0-11.8,0.4-17.2,0.4c-4.5,0-8.5-0.3-11.2-1.3c-1.4-0.5-2.4-1.1-3.1-1.9c-0.7-0.8-1-1.7-1-3
		c0-0.4,0-0.8,0.1-1.2l-1.8-0.3c-0.1,0.5-0.1,1-0.1,1.5c0,1.7,0.5,3.1,1.5,4.2c1.4,1.7,3.7,2.6,6.4,3.1c2.7,0.5,5.9,0.7,9.3,0.7
		c5.5,0,11.6-0.4,17.2-0.4c4.6,0,8.8,0.3,12.1,1.2c1.6,0.5,3,1.1,4.1,1.8c1.1,0.8,1.9,1.7,2.3,2.9c0.3,0.7,0.4,1.2,0.4,1.5
		c0,0.3,0,0.4-0.1,0.5c-0.1,0.1-0.2,0.3-0.6,0.4c-0.4,0.1-0.9,0.2-1.5,0.2c-1.9,0-4.7-0.6-7.6-1.2c-2.9-0.6-5.9-1.2-8.4-1.2
		c-1.5,0-2.8,0.2-3.8,0.8c-0.5,0.3-1,0.8-1.3,1.4c-0.3,0.6-0.4,1.2-0.4,2c0,1.5,0.6,3.3,1.7,5.6c1.2,2.3,2.9,5.2,5.5,8.7
		L160.1,191.7"/>
	
		<linearGradient id="SVGID_5_" gradientUnits="userSpaceOnUse" x1="-204.4385" y1="387.0381" x2="-202.6261" y2="387.0381" gradientTransform="matrix(0.1571 7.9272 -7.9849 0.156 3232.0002 1726.6417)">
		<stop  offset="0" style="stop-color:#EEEEEC"/>
		<stop  offset="1" style="stop-color:#E6E6E3"/>
	</linearGradient>
	<path class="st7" d="M101,174.1c14.6,0,30.7,0,37.8,0c2.4,0,3.8,0,3.8,0c0.6,0,1.1,0.5,1.1,1.1c0,0.6-0.5,1.1-1.1,1.1
		c0,0-22.1,0-41.5,0c-9.7,0-18.8,0-24.1,0c-0.6,0-1.1-0.5-1.1-1.1c0-0.6,0.5-1.1,1.1-1.1C82.2,174.1,91.2,174.1,101,174.1
		 M85.2,170.7c-0.7,0.7-1.6,1.3-2.6,1.8c-1.5,0.6-3.3,1-5.4,1c-0.8,0-1.4,0.2-1.8,0.6c-0.5,0.4-0.8,0.9-1.1,1.5
		c-0.6,1.3-0.7,3.1-0.7,4.5c0,0.3,0,0.6,0,0.9l72.5-0.1c0-0.1,0-0.3,0-0.4c0-0.9-0.1-2.2-0.4-3.4c-0.3-1.2-0.8-2.2-1.5-2.8
		c-0.5-0.4-1.1-0.6-1.9-0.7c-1.4,0-2.7-0.2-3.8-0.5c0.1,0.2,0.2,0.3,0.4,0.4L85.2,170.7"/>
	<path class="st8" d="M86.4,160.5l-1.1,0.3l0,0c0,0.2,0.3,1.3,0.3,2.6c0,1.6-0.3,3.6-1.5,5.1c-0.6,0.8-1.4,1.4-2.5,1.9
		c-1.1,0.5-2.6,0.8-4.6,0.9c-1.3,0-2.4,0.4-3.2,1.1c-1.2,1-1.9,2.4-2.2,3.8c-0.4,1.4-0.4,2.8-0.4,3.9c0,1.2,0.1,2.1,0.1,2.1l0.1,1
		l76.6-0.1l0.1-1c0,0,0.1-0.7,0.1-1.6c0-1.4-0.1-3.5-0.9-5.4c-0.4-0.9-1-1.8-1.8-2.5c-0.9-0.7-2-1.1-3.3-1.1
		c-3.9-0.1-5.8-1.4-6.9-2.9c-1.1-1.6-1.5-3.6-1.5-5.3c0-0.8,0.1-1.5,0.1-1.9c0-0.2,0.1-0.4,0.1-0.6l0-0.1l0,0l0.3-1.4L85,159.4
		l0.3,1.4L86.4,160.5l0,1.1l46.5-0.2l0-1.1l-1.1-0.3c0,0.1-0.3,1.4-0.3,3.2c0,1.9,0.3,4.4,1.9,6.6c1.6,2.2,4.4,3.8,8.7,3.8
		c0.9,0,1.5,0.3,1.9,0.7c0.7,0.6,1.2,1.6,1.5,2.8c0.3,1.2,0.4,2.4,0.4,3.4c0,0.4,0,0.8,0,1l0,0.3l0,0.1l1.1,0.1l0-1.1L72.4,181
		l0,1.1l1.1-0.1l0-0.1c0-0.3-0.1-0.9-0.1-1.7c0-1.3,0.2-3.1,0.7-4.5c0.3-0.7,0.7-1.2,1.1-1.5c0.5-0.4,1-0.6,1.8-0.6
		c2.2,0,4-0.4,5.4-1c2.2-1,3.6-2.6,4.3-4.3c0.8-1.7,1-3.4,1-4.8c0-1.8-0.3-3.1-0.3-3.2L86.4,160.5l0,1.1L86.4,160.5"/>
	<g>
		<defs>
			<path id="SVGID_6_" d="M135.1,168.4c0,0,0.1,0.1,0.1,0.1c0,0,0,0,0,0C135.2,168.5,135.2,168.5,135.1,168.4
				C135.1,168.4,135.1,168.4,135.1,168.4 M133.8,164.2c0.1,0.8,0.2,1.6,0.4,2.4c0.1,0,0.1,0,0.2,0
				C134.1,165.8,133.9,165,133.8,164.2L133.8,164.2 M85.3,164.2c-0.2,3.3-1.3,4.8-4,6.3l0.2,0c0,0,0.1,0,0.1,0
				c1.1-0.5,1.9-1.2,2.5-1.9c1-1.3,1.4-2.9,1.5-4.4H85.3"/>
		</defs>
		<clipPath id="SVGID_7_">
			<use xlink:href="#SVGID_6_"  style="overflow:visible;"/>
		</clipPath>
		<g style="clip-path:url(#SVGID_7_);">
			
				<image style="overflow:visible;" width="126" height="18" xlink:href="68AC38D6278F9EB3.jpg"  transform="matrix(0.4349 0 0 -0.4349 80.9038 171.1699)">
			</image>
		</g>
	</g>
	<g>
		<defs>
			<path id="SVGID_8_" d="M134.2,166.6c0.2,0.7,0.5,1.3,0.9,1.9c0,0,0,0,0,0c-0.3-0.6-0.6-1.2-0.8-1.9
				C134.3,166.6,134.3,166.6,134.2,166.6"/>
		</defs>
		<clipPath id="SVGID_9_">
			<use xlink:href="#SVGID_8_"  style="overflow:visible;"/>
		</clipPath>
		<g style="clip-path:url(#SVGID_9_);">
			
				<image style="overflow:visible;" width="5" height="7" xlink:href="68AC38D6278F9EB5.jpg"  transform="matrix(0.4349 0 0 -0.4349 133.5332 168.9941)">
			</image>
		</g>
	</g>
	<g>
		<defs>
			<path id="SVGID_10_" d="M87.8,164.2c-0.1,1.3-0.3,2.7-0.9,4.1c-0.4,0.9-0.9,1.7-1.7,2.5l53.5,2.9c-0.1-0.1-0.2-0.3-0.4-0.4
				c-2.3-0.6-3.9-1.9-5-3.3c-1.3-1.8-1.8-3.9-1.9-5.7L87.8,164.2"/>
		</defs>
		<clipPath id="SVGID_11_">
			<use xlink:href="#SVGID_10_"  style="overflow:visible;"/>
		</clipPath>
		<g style="clip-path:url(#SVGID_11_);">
			
				<image style="overflow:visible;" width="126" height="25" xlink:href="68AC38D6278F9EB7.jpg"  transform="matrix(0.4349 0 0 -0.4349 84.3828 174.2148)">
			</image>
		</g>
	</g>
	<g>
		<defs>
			<path id="SVGID_12_" d="M131.5,164.2c0.1,1.8,0.6,3.8,1.9,5.7c1,1.5,2.7,2.7,5,3.3c-1-1.3-2.2-2.9-3.1-4.6c0,0,0,0,0,0
				c0,0-0.1-0.1-0.1-0.1c-0.4-0.6-0.7-1.2-0.9-1.9c-0.3-0.8-0.4-1.6-0.4-2.4L131.5,164.2 M85.6,164.2c-0.1,1.5-0.5,3.1-1.5,4.4
				c-0.6,0.8-1.4,1.4-2.5,1.9c0,0-0.1,0-0.1,0l3.6,0.2c0.7-0.7,1.3-1.6,1.7-2.5c0.6-1.4,0.9-2.8,0.9-4.1L85.6,164.2"/>
		</defs>
		<clipPath id="SVGID_13_">
			<use xlink:href="#SVGID_12_"  style="overflow:visible;"/>
		</clipPath>
		<g style="clip-path:url(#SVGID_13_);">
			
				<image style="overflow:visible;" width="134" height="24" xlink:href="68AC38D6278F9EB4.jpg"  transform="matrix(0.4349 0 0 -0.4349 80.9038 173.7793)">
			</image>
		</g>
	</g>
	
		<linearGradient id="SVGID_14_" gradientUnits="userSpaceOnUse" x1="-204.439" y1="387.0264" x2="-202.626" y2="387.0264" gradientTransform="matrix(0.1571 7.9272 -7.9849 0.156 3232.0002 1726.6417)">
		<stop  offset="0" style="stop-color:#C3C3C3"/>
		<stop  offset="1" style="stop-color:#BFBFBE"/>
	</linearGradient>
	<path class="st9" d="M142.5,174.1c0,0-1.4,0-3.8,0c-7.1,0-23.2,0-37.8,0c-9.7,0-18.8,0-24.1,0c-0.6,0-1.1,0.5-1.1,1.1
		c0,0.6,0.5,1.1,1.1,1.1c5.3,0,14.3,0,24.1,0c19.4,0,41.5,0,41.5,0c0.6,0,1.1-0.5,1.1-1.1C143.6,174.6,143.1,174.1,142.5,174.1"/>
	<path class="st10" d="M75,177.6c16.2,0,69.4,0,69.4,0"/>
	
		<linearGradient id="SVGID_15_" gradientUnits="userSpaceOnUse" x1="-213.9518" y1="394.718" x2="-212.1394" y2="394.718" gradientTransform="matrix(37.2483 53.3894 -53.4309 37.2194 29144.123 -3185.5417)">
		<stop  offset="0" style="stop-color:#EEEEEC"/>
		<stop  offset="1" style="stop-color:#E6E6E3"/>
	</linearGradient>
	<path class="st11" d="M53.6,82.8v-0.9h112.1v70.4H53.6V82.8h0.9H53.6 M166.3,71.8H52.7c-2.5,0-4.7,1.1-6.4,2.9
		c-1.7,1.7-2.7,4.1-2.7,6.5l0,76.1c0,2.1,0.6,3.3,1.4,4c0.8,0.7,2.1,1.1,3.7,1.1l122,0.1c0,0,0,0,0,0c1.1,0,1.9-0.1,2.6-0.3
		c0.7-0.2,1.1-0.5,1.5-0.8c0.7-0.7,1.1-2.1,1.1-4.6l0-75c0-3.1-1-5.5-2.7-7.2C171.5,72.8,169.1,71.8,166.3,71.8"/>
	<path class="st8" d="M52.7,70.9v0.9h113.6c2.8,0,5.2,1,6.8,2.7c1.7,1.7,2.7,4.1,2.7,7.2l0,75c0,2.4-0.4,3.8-1.1,4.6
		c-0.4,0.4-0.8,0.6-1.5,0.8c-0.7,0.2-1.5,0.3-2.6,0.3l-122-0.1l0,0.9l0-0.9c-1.7,0-2.9-0.4-3.8-1.1c-0.8-0.7-1.4-1.9-1.4-4l-0.9,0
		l0.9,0l0-76.1c0-2.4,1-4.7,2.7-6.5c1.7-1.7,4-2.9,6.4-2.9V70.9V70c-3,0-5.8,1.4-7.7,3.4c-2,2.1-3.2,4.8-3.2,7.7l0,76.1v0
		c0,2.4,0.7,4.2,2,5.4c1.3,1.1,3,1.5,4.9,1.6h0l122.1,0.1c1.2,0,2.2-0.1,3.1-0.4c1.3-0.4,2.4-1.2,3-2.4c0.6-1.2,0.8-2.8,0.8-4.7
		l0-75c0-3.5-1.2-6.4-3.2-8.5c-2-2.1-4.9-3.2-8.1-3.2H52.7V70.9"/>
	
		<radialGradient id="SVGID_16_" cx="-213.3078" cy="397.9565" r="1.8138" gradientTransform="matrix(38.5311 0 0 24.3319 8328.6758 -9539.5996)" gradientUnits="userSpaceOnUse">
		<stop  offset="0" style="stop-color:#729FCF"/>
		<stop  offset="1" style="stop-color:#326194"/>
	</radialGradient>
	<path class="st12" d="M56,138V84.3l107.2-0.1v20.9C123.4,107.8,105.1,133.9,56,138 M163.9,83.7H55.4v66.8h108.5V83.7"/>
	<polyline class="st13" points="54.5,82.8 54.5,83.7 163.9,83.7 163.9,150.5 55.4,150.5 55.4,82.8 54.5,82.8 54.5,83.7 54.5,82.8 
		53.6,82.8 53.6,152.3 165.8,152.3 165.8,81.9 53.6,81.9 53.6,82.8 54.5,82.8 	"/>
	<g>
		<defs>
			<path id="SVGID_17_" d="M163.3,84.2L56,84.3V138c49-4,67.4-30.2,107.2-32.9V84.2"/>
		</defs>
		<clipPath id="SVGID_18_">
			<use xlink:href="#SVGID_17_"  style="overflow:visible;"/>
		</clipPath>
		<g style="clip-path:url(#SVGID_18_);">
			
				<image style="overflow:visible;" width="250" height="126" xlink:href="68AC38D6278F9EBC.jpg"  transform="matrix(0.4349 0 0 -0.4349 55.2417 138.5488)">
			</image>
		</g>
	</g>
	<path class="st14" d="M53,73.8c-3.9,0-7.4,3.8-7.4,7.6v75.5c0,1.8,0.4,2.3,0.8,2.7c0.4,0.3,1.2,0.6,2.7,0.6l121.3,0.1
		c1.9,0,2.5-0.3,2.8-0.6c0.2-0.3,0.6-1.2,0.6-3.4V82c0-5.3-3-8.1-7.8-8.1H53z"/>
	<g>
		<defs>
			<path id="SVGID_19_" d="M42.4,199.1h-4.2v13.4h11.9V209h-1c-2.3,0-4.2-0.2-5.6-0.5c-1.4-0.4-2.5-0.9-3.2-1.7
				c-0.5-0.5-0.7-1.2-0.7-1.9c0-1,0.4-1.9,1.1-2.8L42.4,199.1"/>
		</defs>
		<clipPath id="SVGID_20_">
			<use xlink:href="#SVGID_19_"  style="overflow:visible;"/>
		</clipPath>
		<g style="clip-path:url(#SVGID_20_);">
			
				<image style="overflow:visible;" width="31" height="34" xlink:href="68AC38D6278F9EBD.jpg"  transform="matrix(0.4349 0 0 -0.4349 37.4087 213.3594)">
			</image>
		</g>
	</g>
	<g>
		<defs>
			<path id="SVGID_21_" d="M181.2,199.1h-5l1.8,2.9c0.7,0.9,1.1,1.8,1.1,2.8c0,0.7-0.3,1.4-0.7,1.9c-0.5,0.5-1.1,1-1.9,1.3
				c-1.6,0.6-3.9,1-7,1h-0.3v3.5h11.9V199.1"/>
		</defs>
		<clipPath id="SVGID_22_">
			<use xlink:href="#SVGID_21_"  style="overflow:visible;"/>
		</clipPath>
		<g style="clip-path:url(#SVGID_22_);">
			
				<image style="overflow:visible;" width="30" height="34" xlink:href="68AC38D6278F9EBF.jpg"  transform="matrix(0.4349 0 0 -0.4349 168.7637 213.3594)">
			</image>
		</g>
	</g>
	<g>
		<defs>
			<polyline id="SVGID_23_" points="169.3,209 50.1,209 50.1,212.5 169.3,212.5 169.3,209 			"/>
		</defs>
		<clipPath id="SVGID_24_">
			<use xlink:href="#SVGID_23_"  style="overflow:visible;"/>
		</clipPath>
		<g style="clip-path:url(#SVGID_24_);">
			
				<image style="overflow:visible;" width="277" height="12" xlink:href="20E436F3B7C1EF5C.jpg"  transform="matrix(0.4349 0 0 -0.4349 49.5864 213.3594)">
			</image>
		</g>
	</g>
	
		<linearGradient id="SVGID_25_" gradientUnits="userSpaceOnUse" x1="-225.6026" y1="400.2559" x2="-223.7899" y2="400.2559" gradientTransform="matrix(0 -9.2916 12.3388 0 -4829.3589 -1893.172)">
		<stop  offset="0" style="stop-color:#EEEEEC"/>
		<stop  offset="1" style="stop-color:#D3D7CF"/>
	</linearGradient>
	<path class="st15" d="M129.1,196.6c0.2-0.3,0.5-0.4,0.8-0.4h10.9c0.3,0,0.5,0.1,0.7,0.3l3.9,5c0.2,0.3,0.3,0.6,0.1,1
		c-0.2,0.3-0.5,0.5-0.8,0.5h-17.9c-0.3,0-0.6-0.2-0.8-0.5c-0.2-0.3-0.1-0.6,0-0.9L129.1,196.6 M148.9,194.2h-27.6l0.2,7.8
		c0,0.2-0.1,0.5-0.3,0.7c-0.2,0.2-0.4,0.3-0.6,0.3H51.7c-0.6,0-1.1-0.1-1.6-0.3l0,0l-0.2-0.1l-0.2-0.1l-0.1-0.1l-0.3-0.2l0,0
		l-0.1-0.1l0,0L49,202l-0.2-0.2l-0.1-0.2l0,0l-0.1-0.2c0-0.1-0.1-0.2-0.1-0.2c-0.1-0.1-0.1-0.3-0.1-0.5v-0.1v-0.1v-0.1l0.1-0.4
		l3.1-5.5c-0.3,0.2-0.7,0.5-1.2,1.1c0,0.1-0.1,0.2-0.1,0.2l-5.4,7.7c0,0,0.1,0,0.1,0c0.9,0.2,2.2,0.3,4,0.3h120.6
		c1.6,0,2.9-0.1,3.7-0.3c0.1,0,0.3,0,0.4-0.1l-4.9-7.1l1.6,3.6l0.1,0.4v0.1v0.1v0.1c0,0.2,0,0.3-0.1,0.5c0,0.1-0.1,0.2-0.1,0.3
		l-0.1,0.2l0,0l-0.1,0.2l-0.2,0.2l-0.1,0.1l0,0l-0.1,0.1l-0.3,0.2l-0.1,0.1l-0.2,0.1l-0.2,0.1l0,0c-0.5,0.2-1,0.3-1.6,0.3h-15.6
		c-0.4,0-0.8-0.3-0.9-0.7L148.9,194.2 M53.6,191c-1.2,0-2.3,0.2-3.3,0.7c-1.1,0.5-2,1.3-2.8,2.6l0,0l-5.4,8.7l-0.1,0.1
		c-0.6,0.7-0.8,1.3-0.8,1.7c0,0.3,0.1,0.5,0.3,0.7c0.2,0.3,0.6,0.5,1.2,0.8c1.2,0.5,3.3,0.8,6.2,0.8c0,0,0,0,0,0h120.6c0,0,0,0,0,0
		c2.2,0,3.9-0.2,5.2-0.5c1.3-0.3,2-0.7,2.3-1.1c0.2-0.3,0.3-0.5,0.3-0.7c0-0.4-0.2-1-0.8-1.7l-0.1-0.1l-5.4-8.7l0,0
		c-0.8-1.3-1.7-2.1-2.8-2.6c-0.6-0.3-1.3-0.5-2.1-0.6l0.5,1c0.3,0.1,0.6,0.1,0.9,0.3c1,0.4,1.8,1.1,2.5,2.2c0.1,0.1,0.1,0.2,0.1,0.2
		l5.3,7.5l0.1,0.1c0.3,0.3,0.4,0.6,0.6,0.8c0.1,0.3,0.2,0.5,0.2,0.8l0,0.1v0.2c0,0.4-0.2,0.7-0.5,0.9c-0.2,0.1-0.3,0.2-0.4,0.2
		l-0.4,0.1c-0.3,0.1-0.7,0.2-1.2,0.3c-1,0.2-2.4,0.3-4.4,0.3H49c-1.7,0-3-0.1-4-0.3c-1-0.2-1.6-0.3-2-0.5c-0.1-0.1-0.2-0.1-0.4-0.2
		c-0.3-0.2-0.5-0.5-0.5-0.9v-0.2l0-0.1c0-0.3,0.1-0.5,0.2-0.8c0.1-0.3,0.3-0.5,0.6-0.8l0.1-0.1l5.3-7.5c0-0.1,0.1-0.2,0.1-0.2
		c0.7-1.1,1.6-1.8,2.5-2.2c0.7-0.3,1.3-0.3,2-0.4L53.6,191 M125.3,191h-4.1l0,1h4.1L125.3,191 M148.2,191h-4.3l0.2,1c0,0,0,0,0,0
		h4.4L148.2,191"/>
	<path class="st8" d="M54,190.1v-0.9c-1.5,0-3,0.2-4.4,0.9c-1.4,0.6-2.6,1.7-3.6,3.3l0,0l-5.4,8.7l0.8,0.5l-0.7-0.6
		c-0.7,0.9-1.1,1.8-1.2,2.8c0,0.7,0.3,1.4,0.7,1.9c0.7,0.8,1.8,1.3,3.2,1.7c1.5,0.4,3.3,0.5,5.6,0.5h120.6c3.1,0,5.4-0.3,7-1
		c0.8-0.3,1.4-0.7,1.9-1.3c0.5-0.5,0.7-1.2,0.7-1.9c0-1-0.5-1.9-1.2-2.8l-0.7,0.6l0.8-0.5l-5.4-8.7l0,0c-1-1.6-2.2-2.6-3.6-3.3
		c-1.4-0.6-2.9-0.9-4.4-0.9H54V190.1v0.9h110.7c1.4,0,2.6,0.2,3.7,0.7c1.1,0.5,2,1.3,2.8,2.6l0,0l5.4,8.7l0.1,0.1
		c0.6,0.7,0.8,1.3,0.8,1.7c0,0.3-0.1,0.5-0.3,0.7c-0.3,0.4-1.1,0.8-2.3,1.1c-1.2,0.3-3,0.5-5.2,0.5H49c-3,0-5-0.3-6.3-0.8
		c-0.6-0.2-1-0.5-1.2-0.8c-0.2-0.3-0.3-0.5-0.3-0.7c0-0.4,0.2-1,0.8-1.7l0.1-0.1l5.4-8.7l0,0c0.8-1.3,1.7-2.1,2.8-2.6
		c1.1-0.5,2.3-0.7,3.7-0.7V190.1"/>
	<path class="st16" d="M54,193.1V192c-1.1,0-2,0-3,0.4c-1,0.4-1.8,1.1-2.5,2.2c-0.1,0.2-0.2,0.4-0.2,0.6v0.1h1.1l-0.9-0.6l-5.4,7.7
		l-0.1,0.1l0.9,0.7l-0.8-0.7c-0.3,0.3-0.5,0.6-0.6,0.9c-0.1,0.3-0.2,0.5-0.2,0.8l0,0.1v0.2c0,0.4,0.2,0.7,0.5,0.9
		c0.2,0.1,0.3,0.2,0.4,0.2c0.4,0.2,1,0.3,2,0.5c1,0.2,2.3,0.3,4,0.3h120.6c1.9,0,3.3-0.2,4.4-0.3c0.5-0.1,0.9-0.2,1.2-0.3l0.4-0.1
		c0.1-0.1,0.2-0.1,0.4-0.2c0.3-0.2,0.5-0.5,0.5-0.9v-0.2l0-0.1c0-0.3-0.1-0.5-0.2-0.8c-0.1-0.3-0.3-0.5-0.6-0.9l-0.8,0.7l0.9-0.7
		l-0.1-0.1l-5.4-7.7l-0.9,0.6h1.1v-0.1c0-0.2-0.1-0.4-0.2-0.6c-0.7-1.1-1.6-1.8-2.5-2.2c-1-0.4-1.9-0.4-3-0.4H54V193.1v1.1h110.7
		c1,0,1.7,0,2.1,0.2c0.4,0.2,0.9,0.5,1.5,1.4l0.9-0.6h-1.1v0.1c0,0.2,0.1,0.5,0.2,0.6l5.4,7.7l0,0l0.1,0.1l0,0.1
		c0.2,0.2,0.3,0.3,0.3,0.4l0,0l0.5-0.2l-0.5,0l0,0.1l0.5-0.2l-0.5,0l1.1-0.1h-1.1v0.2h1.1l-0.7-0.9l0.4,0.6l-0.3-0.6l-0.1,0.1
		l0.4,0.6l-0.3-0.6l0,0.1l0-0.1h0l0,0.1l0-0.1c-0.1,0-0.6,0.2-1.4,0.3c-0.9,0.1-2.1,0.3-3.7,0.3H49c-1.8,0-3.1-0.1-4-0.3
		c-0.4-0.1-0.7-0.2-0.9-0.2l-0.2-0.1l0,0l-0.2,0.5l0.3-0.5l-0.1-0.1l-0.2,0.5l0.3-0.5l-0.7,0.9h1.1v-0.2h-1.1l1.1,0.1l-0.5,0
		l0.5,0.2l0-0.1l-0.5,0l0.5,0.2l0,0c0-0.1,0.1-0.2,0.3-0.4l0-0.1l0.1-0.1l0,0l5.4-7.7c0.1-0.2,0.2-0.4,0.2-0.6v-0.1h-1.1l0.9,0.6
		c0.6-0.9,1.1-1.2,1.5-1.4c0.5-0.2,1.1-0.2,2.1-0.2V193.1"/>
	
		<linearGradient id="SVGID_26_" gradientUnits="userSpaceOnUse" x1="-210.0954" y1="391.8978" x2="-208.2832" y2="391.8978" gradientTransform="matrix(0 17.5299 -21.04 0 8354.9834 3858.0193)">
		<stop  offset="0" style="stop-color:#BABDB6"/>
		<stop  offset="1" style="stop-color:#EEEEEC"/>
	</linearGradient>
	<path class="st17" d="M140.4,198h-0.9c0.1,0.1,0.1,0.2,0.1,0.4v1.4c0,0.4-0.4,0.8-0.8,0.8h-1.4c-0.4,0-0.8-0.4-0.8-0.8v-1.4
		c0-0.1,0-0.3,0.1-0.4h-3.2c0.1,0.1,0.1,0.2,0.1,0.4v1.4c0,0.4-0.4,0.8-0.8,0.8h-1.4c-0.4,0-0.8-0.4-0.8-0.8v-1.4
		c0-0.1,0-0.3,0.1-0.4h-0.3l-2,3.2h14.4L140.4,198 M141.6,188.1h-2.1c-0.1,0.3-0.4,0.6-0.8,0.6h-1.4c-0.4,0-0.7-0.2-0.8-0.6h-3
		c-0.1,0.3-0.4,0.6-0.8,0.6h-1.4c-0.4,0-0.7-0.2-0.8-0.6H127l0.2,3.2h14.9L141.6,188.1 M53.8,200.6c-0.4,0-0.8-0.4-0.8-0.8v-1.4
		c0-0.4,0.4-0.8,0.8-0.8h1.4c0.4,0,0.8,0.4,0.8,0.8v1.4c0,0.4-0.4,0.8-0.8,0.8H53.8 M59.8,200.6c-0.4,0-0.8-0.4-0.8-0.8v-1.4
		c0-0.4,0.4-0.8,0.8-0.8h1.4c0.4,0,0.8,0.4,0.8,0.8v1.4c0,0.4-0.4,0.8-0.8,0.8H59.8 M107.5,200.6c-0.4,0-0.8-0.4-0.8-0.8v-1.4
		c0-0.4,0.4-0.8,0.8-0.8h1.4c0.4,0,0.8,0.4,0.8,0.8v1.4c0,0.4-0.4,0.8-0.8,0.8H107.5 M113.5,200.6c-0.4,0-0.8-0.4-0.8-0.8v-1.4
		c0-0.4,0.4-0.8,0.8-0.8h1.4c0.4,0,0.8,0.4,0.8,0.8v1.4c0,0.4-0.4,0.8-0.8,0.8H113.5 M56.8,197.6c-0.4,0-0.8-0.4-0.8-0.8v-1.4
		c0-0.4,0.4-0.8,0.8-0.8h1.4c0.4,0,0.8,0.4,0.8,0.8v1.4c0,0.4-0.4,0.8-0.8,0.8H56.8 M62.8,197.6c-0.4,0-0.8-0.4-0.8-0.8v-1.4
		c0-0.4,0.4-0.8,0.8-0.8h1.4c0.4,0,0.8,0.4,0.8,0.8v1.4c0,0.4-0.4,0.8-0.8,0.8H62.8 M68.7,197.6c-0.4,0-0.8-0.4-0.8-0.8v-1.4
		c0-0.4,0.4-0.8,0.8-0.8h1.4c0.4,0,0.8,0.4,0.8,0.8v1.4c0,0.4-0.4,0.8-0.8,0.8H68.7 M74.7,197.6c-0.4,0-0.8-0.4-0.8-0.8v-1.4
		c0-0.4,0.4-0.8,0.8-0.8h1.4c0.4,0,0.8,0.4,0.8,0.8v1.4c0,0.4-0.4,0.8-0.8,0.8H74.7 M80.7,197.6c-0.4,0-0.8-0.4-0.8-0.8v-1.4
		c0-0.4,0.4-0.8,0.8-0.8h1.4c0.4,0,0.8,0.4,0.8,0.8v1.4c0,0.4-0.4,0.8-0.8,0.8H80.7 M86.6,197.6c-0.4,0-0.8-0.4-0.8-0.8v-1.4
		c0-0.4,0.4-0.8,0.8-0.8H88c0.4,0,0.8,0.4,0.8,0.8v1.4c0,0.4-0.4,0.8-0.8,0.8H86.6 M92.6,197.6c-0.4,0-0.8-0.4-0.8-0.8v-1.4
		c0-0.4,0.4-0.8,0.8-0.8H94c0.4,0,0.8,0.4,0.8,0.8v1.4c0,0.4-0.4,0.8-0.8,0.8H92.6 M98.6,197.6c-0.4,0-0.8-0.4-0.8-0.8v-1.4
		c0-0.4,0.4-0.8,0.8-0.8h1.4c0.4,0,0.8,0.4,0.8,0.8v1.4c0,0.4-0.4,0.8-0.8,0.8H98.6 M104.5,197.6c-0.4,0-0.8-0.4-0.8-0.8v-1.4
		c0-0.4,0.4-0.8,0.8-0.8h1.4c0.4,0,0.8,0.4,0.8,0.8v1.4c0,0.4-0.4,0.8-0.8,0.8H104.5 M110.5,197.6c-0.4,0-0.8-0.4-0.8-0.8v-1.4
		c0-0.4,0.4-0.8,0.8-0.8h1.4c0.4,0,0.8,0.4,0.8,0.8v1.4c0,0.4-0.4,0.8-0.8,0.8H110.5 M116.4,197.6c-0.4,0-0.8-0.4-0.8-0.8v-1.4
		c0-0.4,0.4-0.8,0.8-0.8h1.4c0.4,0,0.8,0.4,0.8,0.8v1.4c0,0.4-0.4,0.8-0.8,0.8H116.4 M59.8,194.6c-0.4,0-0.8-0.4-0.8-0.8v-1.4
		c0-0.4,0.4-0.8,0.8-0.8h1.4c0.4,0,0.8,0.4,0.8,0.8v1.4c0,0.4-0.4,0.8-0.8,0.8H59.8 M65.8,194.6c-0.4,0-0.8-0.4-0.8-0.8v-1.4
		c0-0.4,0.4-0.8,0.8-0.8h1.4c0.4,0,0.8,0.4,0.8,0.8v1.4c0,0.4-0.4,0.8-0.8,0.8H65.8 M71.7,194.6c-0.4,0-0.8-0.4-0.8-0.8v-1.4
		c0-0.4,0.4-0.8,0.8-0.8h1.4c0.4,0,0.8,0.4,0.8,0.8v1.4c0,0.4-0.4,0.8-0.8,0.8H71.7 M77.7,194.6c-0.4,0-0.8-0.4-0.8-0.8v-1.4
		c0-0.4,0.4-0.8,0.8-0.8h1.4c0.4,0,0.8,0.4,0.8,0.8v1.4c0,0.4-0.4,0.8-0.8,0.8H77.7 M83.6,194.6c-0.4,0-0.8-0.4-0.8-0.8v-1.4
		c0-0.4,0.4-0.8,0.8-0.8H85c0.4,0,0.8,0.4,0.8,0.8v1.4c0,0.4-0.4,0.8-0.8,0.8H83.6 M89.6,194.6c-0.4,0-0.8-0.4-0.8-0.8v-1.4
		c0-0.4,0.4-0.8,0.8-0.8H91c0.4,0,0.8,0.4,0.8,0.8v1.4c0,0.4-0.4,0.8-0.8,0.8H89.6 M95.6,194.6c-0.4,0-0.8-0.4-0.8-0.8v-1.4
		c0-0.4,0.4-0.8,0.8-0.8H97c0.4,0,0.8,0.4,0.8,0.8v1.4c0,0.4-0.4,0.8-0.8,0.8H95.6 M101.5,194.6c-0.4,0-0.8-0.4-0.8-0.8v-1.4
		c0-0.4,0.4-0.8,0.8-0.8h1.4c0.4,0,0.8,0.4,0.8,0.8v1.4c0,0.4-0.4,0.8-0.8,0.8H101.5 M107.5,194.6c-0.4,0-0.8-0.4-0.8-0.8v-1.4
		c0-0.4,0.4-0.8,0.8-0.8h1.4c0.4,0,0.8,0.4,0.8,0.8v1.4c0,0.4-0.4,0.8-0.8,0.8H107.5 M113.5,194.6c-0.4,0-0.8-0.4-0.8-0.8v-1.4
		c0-0.4,0.4-0.8,0.8-0.8h1.4c0.4,0,0.8,0.4,0.8,0.8v1.4c0,0.4-0.4,0.8-0.8,0.8H113.5 M62.8,191.6c-0.4,0-0.8-0.4-0.8-0.8v-1.4
		c0-0.4,0.4-0.8,0.8-0.8h1.4c0.4,0,0.8,0.4,0.8,0.8v1.4c0,0.4-0.4,0.8-0.8,0.8H62.8 M68.7,191.6c-0.4,0-0.8-0.4-0.8-0.8v-1.4
		c0-0.4,0.4-0.8,0.8-0.8h1.4c0.4,0,0.8,0.4,0.8,0.8v1.4c0,0.4-0.4,0.8-0.8,0.8H68.7 M74.7,191.6c-0.4,0-0.8-0.4-0.8-0.8v-1.4
		c0-0.4,0.4-0.8,0.8-0.8h1.4c0.4,0,0.8,0.4,0.8,0.8v1.4c0,0.4-0.4,0.8-0.8,0.8H74.7 M80.7,191.6c-0.4,0-0.8-0.4-0.8-0.8v-1.4
		c0-0.4,0.4-0.8,0.8-0.8h1.4c0.4,0,0.8,0.4,0.8,0.8v1.4c0,0.4-0.4,0.8-0.8,0.8H80.7 M86.6,191.6c-0.4,0-0.8-0.4-0.8-0.8v-1.4
		c0-0.4,0.4-0.8,0.8-0.8H88c0.4,0,0.8,0.4,0.8,0.8v1.4c0,0.4-0.4,0.8-0.8,0.8H86.6 M92.6,191.6c-0.4,0-0.8-0.4-0.8-0.8v-1.4
		c0-0.4,0.4-0.8,0.8-0.8H94c0.4,0,0.8,0.4,0.8,0.8v1.4c0,0.4-0.4,0.8-0.8,0.8H92.6 M98.6,191.6c-0.4,0-0.8-0.4-0.8-0.8v-1.4
		c0-0.4,0.4-0.8,0.8-0.8h1.4c0.4,0,0.8,0.4,0.8,0.8v1.4c0,0.4-0.4,0.8-0.8,0.8H98.6 M104.5,191.6c-0.4,0-0.8-0.4-0.8-0.8v-1.4
		c0-0.4,0.4-0.8,0.8-0.8h1.4c0.4,0,0.8,0.4,0.8,0.8v1.4c0,0.4-0.4,0.8-0.8,0.8H104.5 M110.5,191.6c-0.4,0-0.8-0.4-0.8-0.8v-1.4
		c0-0.4,0.4-0.8,0.8-0.8h1.4c0.4,0,0.8,0.4,0.8,0.8v1.4c0,0.4-0.4,0.8-0.8,0.8H110.5 M116.4,191.6c-0.4,0-0.8-0.4-0.8-0.8v-1.4
		c0-0.4,0.4-0.8,0.8-0.8h1.4c0.4,0,0.8,0.4,0.8,0.8v1.4c0,0.4-0.4,0.8-0.8,0.8H116.4 M57.9,188.1l-0.1,0l0,0h0c0,0,0,0,0,0l-0.2,0.1
		l0,0l0,0l-0.1,0.1l0,0l0,0c-0.1,0.1-0.1,0.2-0.2,0.4h1.2c0.4,0,0.8,0.4,0.8,0.8v1.4c0,0.4-0.4,0.8-0.8,0.8h-1.4
		c-0.4,0-0.8-0.4-0.8-0.8v-0.4l-5.7,10.2c0,0,0,0,0,0l0,0l0.1,0.1l0,0l0.3,0.2l0.1,0c0.3,0.1,0.6,0.2,0.9,0.2c0,0,0,0,0,0h68
		l-0.3-13.1h-3.8c-0.1,0.3-0.4,0.6-0.8,0.6h-1.4c-0.4,0-0.7-0.2-0.8-0.6h-3c-0.1,0.3-0.4,0.6-0.8,0.6h-1.4c-0.4,0-0.7-0.2-0.8-0.6
		h-3c-0.1,0.3-0.4,0.6-0.8,0.6h-1.4c-0.4,0-0.7-0.2-0.8-0.6h-3c-0.1,0.3-0.4,0.6-0.8,0.6h-1.4c-0.4,0-0.7-0.2-0.8-0.6h-3
		c-0.1,0.3-0.4,0.6-0.8,0.6h-1.4c-0.4,0-0.7-0.2-0.8-0.6h-3c-0.1,0.3-0.4,0.6-0.8,0.6h-1.4c-0.4,0-0.7-0.2-0.8-0.6h-3
		c-0.1,0.3-0.4,0.6-0.8,0.6h-1.4c-0.4,0-0.7-0.2-0.8-0.6h-3c-0.1,0.3-0.4,0.6-0.8,0.6h-1.4c-0.4,0-0.7-0.2-0.8-0.6h-3
		c-0.1,0.3-0.4,0.6-0.8,0.6h-1.4c-0.4,0-0.7-0.2-0.8-0.6h-3c-0.1,0.3-0.4,0.6-0.8,0.6h-1.4c-0.4,0-0.7-0.2-0.8-0.6h-0.7L57.9,188.1
		 M161.2,200.6c-0.4,0-0.8-0.4-0.8-0.8v-1.4c0-0.4,0.4-0.8,0.8-0.8h1.4c0.4,0,0.8,0.4,0.8,0.8v1.4c0,0.4-0.4,0.8-0.8,0.8H161.2
		 M152.2,197.6c-0.4,0-0.8-0.4-0.8-0.8v-1.4c0-0.4,0.4-0.8,0.8-0.8h1.4c0.4,0,0.8,0.4,0.8,0.8v1.4c0,0.4-0.4,0.8-0.8,0.8H152.2
		 M158.2,197.6c-0.4,0-0.8-0.4-0.8-0.8v-1.4c0-0.4,0.4-0.8,0.8-0.8h1.4c0.4,0,0.8,0.4,0.8,0.8v1.4c0,0.4-0.4,0.8-0.8,0.8H158.2
		 M155.2,194.6c-0.4,0-0.8-0.4-0.8-0.8v-1.4c0-0.4,0.4-0.8,0.8-0.8h1.4c0.4,0,0.8,0.4,0.8,0.8v1.4c0,0.4-0.4,0.8-0.8,0.8H155.2
		 M161.2,194.6c-0.4,0-0.8-0.4-0.8-0.8v-1.4c0-0.4,0.4-0.8,0.8-0.8h1.4c0.4,0,0.8,0.4,0.8,0.8v1.4c0,0.4-0.4,0.8-0.8,0.8H161.2
		 M152.2,191.6c-0.4,0-0.8-0.4-0.8-0.8v-1.4c0-0.4,0.4-0.8,0.8-0.8h1.4c0.4,0,0.8,0.4,0.8,0.8v1.4c0,0.4-0.4,0.8-0.8,0.8H152.2
		 M158.2,191.6c-0.4,0-0.8-0.4-0.8-0.8v-1.4c0-0.4,0.4-0.8,0.8-0.8h1.4c0.4,0,0.8,0.4,0.8,0.8v1.4c0,0.4-0.4,0.8-0.8,0.8H158.2
		 M162.2,188.1l-0.4,0h-4.4c-0.1,0.3-0.4,0.6-0.8,0.6h-1.4c-0.4,0-0.7-0.2-0.8-0.6h-3c-0.1,0.3-0.4,0.6-0.8,0.6h-1.2l2.9,12.5h14.8
		c0,0,0,0,0,0c0.3,0,0.7-0.1,0.9-0.2l0.1,0l0.3-0.2l0,0l0.1-0.1l0,0c0,0,0,0,0-0.1l0,0c0,0-0.1,0-0.1,0h-1.4c-0.4,0-0.8-0.4-0.8-0.8
		v-1.4c0-0.4,0.4-0.8,0.8-0.8h0.1l-3.9-8.4c-0.2-0.4-0.4-0.7-0.5-0.9l0,0l-0.1-0.1l0,0l0,0l0,0l-0.2-0.1l0,0h0l0,0L162.2,188.1"/>
	<path class="st18" d="M57.3,187.2h-0.9v0.1L57.3,187.2l-0.3-0.8l-0.2,0.1l0.3,0.8v-0.9H57c-0.2,0-0.4,0.1-0.6,0.2l-0.1,0.1
		l-0.1,0.1l0,0l-0.1,0.1l0,0l-0.1,0.1L56,187c-0.3,0.4-0.5,0.8-0.8,1.2l0,0l-6.6,11.8l-0.1,0.4v0.1v0.1v0.1c0,0.2,0,0.3,0.1,0.5
		l0.1,0.2l0.8-0.5h-0.9v0.1c0,0.2,0,0.3,0.1,0.5l0.1,0.2l0,0l0.1,0.2L49,202l0.1,0.1l0,0l0.1,0.1l0.6-0.7l-0.6,0.7l0.3,0.2l0.1,0.1
		l0.2,0.1l0.2,0.1l0,0c0.5,0.2,1,0.3,1.6,0.3h68.9c0.2,0,0.5-0.1,0.6-0.3c0.2-0.2,0.3-0.4,0.3-0.7l-0.3-14.9c0-0.5-0.4-0.9-0.9-0.9
		h-62l-0.4,0l-0.2,0l0,0.9v-0.9h-0.2h-0.1h-0.1c-0.2,0-0.5,0.1-0.6,0.3c-0.2,0.2-0.3,0.4-0.3,0.6H57.3v0.9h0.1h0.1h0.2l0,0l0.1,0
		l0.4,0h61.1l0.3,13.1h-68c-0.3,0-0.7-0.1-1-0.2l-0.3,0.8l0.3-0.8l-0.2-0.1l-0.3,0.8l0.6-0.7l-0.1-0.1l-0.3-0.2l0,0l-0.1-0.1
		l-0.1-0.1l-0.6,0.7l0.8-0.5l-0.1-0.2l0,0l-0.1-0.2l-0.8,0.5h0.9v-0.1c0-0.2,0-0.3-0.1-0.5l-0.1-0.2l-0.8,0.5h0.9v-0.1v-0.1v-0.1
		h-0.9l0.8,0.4l6.6-11.8l-0.8-0.4l0.8,0.5c0.3-0.5,0.5-0.9,0.6-1l-0.7-0.6l0.6,0.7l0.1-0.1l0,0l0.1-0.1l0.1-0.1l0,0l0.1-0.1
		l-0.6-0.7v0.9h0.1l0.3-0.1l0.2-0.1c0.3-0.1,0.6-0.5,0.6-0.8v-0.1H57.3v0.9V187.2 M126,187.2l-0.9,0.1l0.3,5c0,0.5,0.4,0.9,0.9,0.9
		h16.8c0.3,0,0.5-0.1,0.7-0.3c0.2-0.2,0.2-0.5,0.2-0.7l-0.8-5c-0.1-0.4-0.4-0.8-0.9-0.8H126c-0.2,0-0.5,0.1-0.7,0.3
		c-0.2,0.2-0.3,0.4-0.2,0.7L126,187.2v0.9h15.6l0.5,3.2h-14.9l-0.2-4.1L126,187.2v0.9V187.2 M148.2,187.2l-0.9,0.2l3.5,14.9
		c0.1,0.4,0.5,0.7,0.9,0.7h15.6c0.6,0,1.1-0.1,1.6-0.3l0,0l0.2-0.1l0.2-0.1l0.1-0.1l0.3-0.2l0.1-0.1l0,0l0.1-0.1l0.2-0.2l0.1-0.2
		l0,0l0.1-0.2c0.1-0.1,0.1-0.3,0.1-0.5v-0.1h-0.9l0.8,0.5l0.1-0.2c0.1-0.1,0.1-0.3,0.1-0.5v-0.1v-0.1v-0.1l-0.1-0.4l-5.4-11.8l0-0.1
		c-0.3-0.5-0.5-0.8-0.8-1.2l-0.1-0.1l-0.1-0.1l-0.1-0.1l0,0l-0.1-0.1l-0.6,0.7l0.6-0.7l-0.1-0.1c-0.2-0.1-0.4-0.2-0.6-0.2H163v0.9
		l0.3-0.8l-0.2-0.1l-0.2-0.1l-0.3-0.1h-0.2v0.9l0-0.9l-0.2,0l-0.4,0h-13.6c-0.3,0-0.5,0.1-0.7,0.3c-0.2,0.2-0.2,0.5-0.2,0.8
		L148.2,187.2v0.9h13.6l0.4,0l0.1,0l0,0h0l0,0l0.2,0.1l0.3,0.1h0.1v-0.9l-0.6,0.7l0.1,0.1l0,0l0.1,0.1l0.6-0.7l-0.6,0.7l0.1,0.1
		l0.1,0.1l0.6-0.7l-0.7,0.6c0.1,0.1,0.3,0.5,0.6,1l0.8-0.5l-0.8,0.4l5.4,11.8l0.8-0.4h-0.9v0.1v0.1v0.1h0.9l-0.8-0.5l-0.1,0.2
		c-0.1,0.1-0.1,0.3-0.1,0.5v0.1h0.9l-0.8-0.5l-0.1,0.2l0,0l-0.1,0.2l0.8,0.5l-0.6-0.7l-0.1,0.1l-0.1,0.1l0,0l-0.3,0.2l-0.1,0.1
		l0.6,0.7l-0.3-0.8l-0.2,0.1l0.3,0.8l-0.3-0.8c-0.3,0.1-0.7,0.2-1,0.2h-14.8l-3.3-14.2L148.2,187.2v0.9V187.2 M129.9,197.1l-0.8-0.5
		l-3.1,5c-0.2,0.3-0.2,0.6,0,0.9c0.2,0.3,0.5,0.5,0.8,0.5h17.9c0.3,0,0.7-0.2,0.8-0.5c0.2-0.3,0.1-0.7-0.1-1l-3.9-5
		c-0.2-0.2-0.4-0.3-0.7-0.3h-10.9c-0.3,0-0.6,0.2-0.8,0.4L129.9,197.1v0.9h10.5l2.5,3.2h-14.4l2.2-3.6L129.9,197.1v0.9V197.1"/>
	<g>
		<defs>
			<path id="SVGID_27_" d="M61.2,185.7h-1.4c-0.4,0-0.7,0.3-0.8,0.6H62C61.9,185.9,61.6,185.7,61.2,185.7"/>
		</defs>
		<clipPath id="SVGID_28_">
			<use xlink:href="#SVGID_27_"  style="overflow:visible;"/>
		</clipPath>
		<g style="clip-path:url(#SVGID_28_);">
			
				<image style="overflow:visible;" width="10" height="4" xlink:href="20E436F3B7C1EF5B.jpg"  transform="matrix(0.4349 0 0 -0.4349 58.2861 186.8281)">
			</image>
		</g>
	</g>
	<g>
		<defs>
			<path id="SVGID_29_" d="M62,188.1H59c0.1,0.3,0.4,0.6,0.8,0.6h1.4C61.6,188.6,61.9,188.4,62,188.1"/>
		</defs>
		<clipPath id="SVGID_30_">
			<use xlink:href="#SVGID_29_"  style="overflow:visible;"/>
		</clipPath>
		<g style="clip-path:url(#SVGID_30_);">
			
				<image style="overflow:visible;" width="10" height="5" xlink:href="20E436F3B7C1EF54.jpg"  transform="matrix(0.4349 0 0 -0.4349 58.2861 189.4365)">
			</image>
		</g>
	</g>
	<g>
		<defs>
			<path id="SVGID_31_" d="M62,186.3H59c0,0.1,0,0.1,0,0.2v1.4c0,0.1,0,0.2,0,0.2H62c0-0.1,0-0.1,0-0.2v-1.4
				C62,186.4,62,186.3,62,186.3"/>
		</defs>
		<clipPath id="SVGID_32_">
			<use xlink:href="#SVGID_31_"  style="overflow:visible;"/>
		</clipPath>
		<g style="clip-path:url(#SVGID_32_);">
			
				<image style="overflow:visible;" width="10" height="7" xlink:href="20E436F3B7C1EF57.jpg"  transform="matrix(0.4349 0 0 -0.4349 58.2861 188.5684)">
			</image>
		</g>
	</g>
	<g>
		<defs>
			<path id="SVGID_33_" d="M67.2,185.7h-1.4c-0.4,0-0.7,0.3-0.8,0.6h2.9C67.8,185.9,67.5,185.7,67.2,185.7"/>
		</defs>
		<clipPath id="SVGID_34_">
			<use xlink:href="#SVGID_33_"  style="overflow:visible;"/>
		</clipPath>
		<g style="clip-path:url(#SVGID_34_);">
			
				<image style="overflow:visible;" width="10" height="4" xlink:href="20E436F3B7C1EF55.jpg"  transform="matrix(0.4349 0 0 -0.4349 64.3755 186.8281)">
			</image>
		</g>
	</g>
	<g>
		<defs>
			<path id="SVGID_35_" d="M67.9,188.1H65c0.1,0.3,0.4,0.6,0.8,0.6h1.4C67.5,188.6,67.8,188.4,67.9,188.1"/>
		</defs>
		<clipPath id="SVGID_36_">
			<use xlink:href="#SVGID_35_"  style="overflow:visible;"/>
		</clipPath>
		<g style="clip-path:url(#SVGID_36_);">
			
				<image style="overflow:visible;" width="10" height="5" xlink:href="20E436F3B7C1EF4B.jpg"  transform="matrix(0.4349 0 0 -0.4349 64.3755 189.4365)">
			</image>
		</g>
	</g>
	<g>
		<defs>
			<path id="SVGID_37_" d="M67.9,186.3H65c0,0.1,0,0.1,0,0.2v1.4c0,0.1,0,0.2,0,0.2h2.9c0-0.1,0-0.1,0-0.2v-1.4
				C67.9,186.4,67.9,186.3,67.9,186.3"/>
		</defs>
		<clipPath id="SVGID_38_">
			<use xlink:href="#SVGID_37_"  style="overflow:visible;"/>
		</clipPath>
		<g style="clip-path:url(#SVGID_38_);">
			
				<image style="overflow:visible;" width="10" height="7" xlink:href="20E436F3B7C1EF4C.jpg"  transform="matrix(0.4349 0 0 -0.4349 64.3755 188.5684)">
			</image>
		</g>
	</g>
	<g>
		<defs>
			<path id="SVGID_39_" d="M73.1,185.7h-1.4c-0.4,0-0.7,0.3-0.8,0.6h2.9C73.8,185.9,73.5,185.7,73.1,185.7"/>
		</defs>
		<clipPath id="SVGID_40_">
			<use xlink:href="#SVGID_39_"  style="overflow:visible;"/>
		</clipPath>
		<g style="clip-path:url(#SVGID_40_);">
			
				<image style="overflow:visible;" width="9" height="4" xlink:href="20E436F3B7C1EF4F.jpg"  transform="matrix(0.4349 0 0 -0.4349 70.4648 186.8281)">
			</image>
		</g>
	</g>
	<g>
		<defs>
			<path id="SVGID_41_" d="M73.9,188.1H71c0.1,0.3,0.4,0.6,0.8,0.6h1.4C73.5,188.6,73.8,188.4,73.9,188.1"/>
		</defs>
		<clipPath id="SVGID_42_">
			<use xlink:href="#SVGID_41_"  style="overflow:visible;"/>
		</clipPath>
		<g style="clip-path:url(#SVGID_42_);">
			
				<image style="overflow:visible;" width="9" height="5" xlink:href="20E436F3B7C1EF4D.jpg"  transform="matrix(0.4349 0 0 -0.4349 70.4648 189.4365)">
			</image>
		</g>
	</g>
	<g>
		<defs>
			<path id="SVGID_43_" d="M73.9,186.3H71c0,0.1,0,0.1,0,0.2v1.4c0,0.1,0,0.2,0,0.2h2.9c0-0.1,0-0.1,0-0.2v-1.4
				C73.9,186.4,73.9,186.3,73.9,186.3"/>
		</defs>
		<clipPath id="SVGID_44_">
			<use xlink:href="#SVGID_43_"  style="overflow:visible;"/>
		</clipPath>
		<g style="clip-path:url(#SVGID_44_);">
			
				<image style="overflow:visible;" width="9" height="7" xlink:href="20E436F3B7C1EF4A.jpg"  transform="matrix(0.4349 0 0 -0.4349 70.4648 188.5684)">
			</image>
		</g>
	</g>
	<g>
		<defs>
			<path id="SVGID_45_" d="M79.1,185.7h-1.4c-0.4,0-0.7,0.3-0.8,0.6h2.9C79.8,185.9,79.5,185.7,79.1,185.7"/>
		</defs>
		<clipPath id="SVGID_46_">
			<use xlink:href="#SVGID_45_"  style="overflow:visible;"/>
		</clipPath>
		<g style="clip-path:url(#SVGID_46_);">
			
				<image style="overflow:visible;" width="10" height="4" xlink:href="20E436F3B7C1EF6F.jpg"  transform="matrix(0.4349 0 0 -0.4349 76.1191 186.8281)">
			</image>
		</g>
	</g>
	<g>
		<defs>
			<path id="SVGID_47_" d="M79.8,188.1h-2.9c0.1,0.3,0.4,0.6,0.8,0.6h1.4C79.4,188.6,79.7,188.4,79.8,188.1"/>
		</defs>
		<clipPath id="SVGID_48_">
			<use xlink:href="#SVGID_47_"  style="overflow:visible;"/>
		</clipPath>
		<g style="clip-path:url(#SVGID_48_);">
			
				<image style="overflow:visible;" width="10" height="5" xlink:href="20E436F3B7C1EF69.jpg"  transform="matrix(0.4349 0 0 -0.4349 76.1191 189.4365)">
			</image>
		</g>
	</g>
	<g>
		<defs>
			<path id="SVGID_49_" d="M79.9,186.3h-2.9c0,0.1,0,0.1,0,0.2v1.4c0,0.1,0,0.2,0,0.2h2.9c0-0.1,0-0.1,0-0.2v-1.4
				C79.9,186.4,79.9,186.3,79.9,186.3"/>
		</defs>
		<clipPath id="SVGID_50_">
			<use xlink:href="#SVGID_49_"  style="overflow:visible;"/>
		</clipPath>
		<g style="clip-path:url(#SVGID_50_);">
			
				<image style="overflow:visible;" width="10" height="7" xlink:href="20E436F3B7C1EF6B.jpg"  transform="matrix(0.4349 0 0 -0.4349 76.1191 188.5684)">
			</image>
		</g>
	</g>
	<g>
		<defs>
			<path id="SVGID_51_" d="M85,185.7h-1.4c-0.4,0-0.7,0.3-0.8,0.6h2.9C85.7,185.9,85.4,185.7,85,185.7"/>
		</defs>
		<clipPath id="SVGID_52_">
			<use xlink:href="#SVGID_51_"  style="overflow:visible;"/>
		</clipPath>
		<g style="clip-path:url(#SVGID_52_);">
			
				<image style="overflow:visible;" width="10" height="4" xlink:href="20E436F3B7C1EF66.jpg"  transform="matrix(0.4349 0 0 -0.4349 82.2085 186.8281)">
			</image>
		</g>
	</g>
	<g>
		<defs>
			<path id="SVGID_53_" d="M85.8,188.1h-2.9c0.1,0.3,0.4,0.6,0.8,0.6H85C85.4,188.6,85.7,188.4,85.8,188.1"/>
		</defs>
		<clipPath id="SVGID_54_">
			<use xlink:href="#SVGID_53_"  style="overflow:visible;"/>
		</clipPath>
		<g style="clip-path:url(#SVGID_54_);">
			
				<image style="overflow:visible;" width="10" height="5" xlink:href="20E436F3B7C1EF67.jpg"  transform="matrix(0.4349 0 0 -0.4349 82.2085 189.4365)">
			</image>
		</g>
	</g>
	<g>
		<defs>
			<path id="SVGID_55_" d="M85.8,186.3h-2.9c0,0.1,0,0.1,0,0.2v1.4c0,0.1,0,0.2,0,0.2h2.9c0-0.1,0-0.1,0-0.2v-1.4
				C85.8,186.4,85.8,186.3,85.8,186.3"/>
		</defs>
		<clipPath id="SVGID_56_">
			<use xlink:href="#SVGID_55_"  style="overflow:visible;"/>
		</clipPath>
		<g style="clip-path:url(#SVGID_56_);">
			
				<image style="overflow:visible;" width="10" height="7" xlink:href="20E436F3B7C1EF99.jpg"  transform="matrix(0.4349 0 0 -0.4349 82.2085 188.5684)">
			</image>
		</g>
	</g>
	<g>
		<defs>
			<path id="SVGID_57_" d="M91,185.7h-1.4c-0.4,0-0.7,0.3-0.8,0.6h2.9C91.7,185.9,91.4,185.7,91,185.7"/>
		</defs>
		<clipPath id="SVGID_58_">
			<use xlink:href="#SVGID_57_"  style="overflow:visible;"/>
		</clipPath>
		<g style="clip-path:url(#SVGID_58_);">
			
				<image style="overflow:visible;" width="10" height="4" xlink:href="20E436F3B7C1EF9B.jpg"  transform="matrix(0.4349 0 0 -0.4349 88.2983 186.8281)">
			</image>
		</g>
	</g>
	<g>
		<defs>
			<path id="SVGID_59_" d="M91.8,188.1h-2.9c0.1,0.3,0.4,0.6,0.8,0.6H91C91.4,188.6,91.7,188.4,91.8,188.1"/>
		</defs>
		<clipPath id="SVGID_60_">
			<use xlink:href="#SVGID_59_"  style="overflow:visible;"/>
		</clipPath>
		<g style="clip-path:url(#SVGID_60_);">
			
				<image style="overflow:visible;" width="9" height="5" xlink:href="20E436F3B7C1EF9E.jpg"  transform="matrix(0.4349 0 0 -0.4349 88.2983 189.4365)">
			</image>
		</g>
	</g>
	<g>
		<defs>
			<path id="SVGID_61_" d="M91.8,186.3h-2.9c0,0.1,0,0.1,0,0.2v1.4c0,0.1,0,0.2,0,0.2h2.9c0-0.1,0-0.1,0-0.2v-1.4
				C91.8,186.4,91.8,186.3,91.8,186.3"/>
		</defs>
		<clipPath id="SVGID_62_">
			<use xlink:href="#SVGID_61_"  style="overflow:visible;"/>
		</clipPath>
		<g style="clip-path:url(#SVGID_62_);">
			
				<image style="overflow:visible;" width="10" height="7" xlink:href="20E436F3B7C1EF9F.jpg"  transform="matrix(0.4349 0 0 -0.4349 88.2983 188.5684)">
			</image>
		</g>
	</g>
	<g>
		<defs>
			<path id="SVGID_63_" d="M97,185.7h-1.4c-0.4,0-0.7,0.3-0.8,0.6h2.9C97.7,185.9,97.3,185.7,97,185.7"/>
		</defs>
		<clipPath id="SVGID_64_">
			<use xlink:href="#SVGID_63_"  style="overflow:visible;"/>
		</clipPath>
		<g style="clip-path:url(#SVGID_64_);">
			
				<image style="overflow:visible;" width="10" height="4" xlink:href="20E436F3B7C1EF9A.jpg"  transform="matrix(0.4349 0 0 -0.4349 93.9517 186.8281)">
			</image>
		</g>
	</g>
	<g>
		<defs>
			<path id="SVGID_65_" d="M97.7,188.1h-2.9c0.1,0.3,0.4,0.6,0.8,0.6H97C97.3,188.6,97.6,188.4,97.7,188.1"/>
		</defs>
		<clipPath id="SVGID_66_">
			<use xlink:href="#SVGID_65_"  style="overflow:visible;"/>
		</clipPath>
		<g style="clip-path:url(#SVGID_66_);">
			
				<image style="overflow:visible;" width="10" height="5" xlink:href="20E436F3B7C1EFBE.jpg"  transform="matrix(0.4349 0 0 -0.4349 93.9517 189.4365)">
			</image>
		</g>
	</g>
	<g>
		<defs>
			<path id="SVGID_67_" d="M97.7,186.3h-2.9c0,0.1,0,0.1,0,0.2v1.4c0,0.1,0,0.2,0,0.2h2.9c0-0.1,0-0.1,0-0.2v-1.4
				C97.8,186.4,97.8,186.3,97.7,186.3"/>
		</defs>
		<clipPath id="SVGID_68_">
			<use xlink:href="#SVGID_67_"  style="overflow:visible;"/>
		</clipPath>
		<g style="clip-path:url(#SVGID_68_);">
			
				<image style="overflow:visible;" width="10" height="7" xlink:href="20E436F3B7C1EF81.jpg"  transform="matrix(0.4349 0 0 -0.4349 93.9517 188.5684)">
			</image>
		</g>
	</g>
	<g>
		<defs>
			<path id="SVGID_69_" d="M102.9,185.7h-1.4c-0.4,0-0.7,0.3-0.8,0.6h2.9C103.6,185.9,103.3,185.7,102.9,185.7"/>
		</defs>
		<clipPath id="SVGID_70_">
			<use xlink:href="#SVGID_69_"  style="overflow:visible;"/>
		</clipPath>
		<g style="clip-path:url(#SVGID_70_);">
			
				<image style="overflow:visible;" width="10" height="4" xlink:href="20E436F3B7C1EF82.jpg"  transform="matrix(0.4349 0 0 -0.4349 100.042 186.8281)">
			</image>
		</g>
	</g>
	<g>
		<defs>
			<path id="SVGID_71_" d="M103.7,188.1h-2.9c0.1,0.3,0.4,0.6,0.8,0.6h1.4C103.3,188.6,103.6,188.4,103.7,188.1"/>
		</defs>
		<clipPath id="SVGID_72_">
			<use xlink:href="#SVGID_71_"  style="overflow:visible;"/>
		</clipPath>
		<g style="clip-path:url(#SVGID_72_);">
			
				<image style="overflow:visible;" width="10" height="5" xlink:href="20E436F3B7C1EF80.jpg"  transform="matrix(0.4349 0 0 -0.4349 100.042 189.4365)">
			</image>
		</g>
	</g>
	<g>
		<defs>
			<path id="SVGID_73_" d="M103.7,186.3h-2.9c0,0.1,0,0.1,0,0.2v1.4c0,0.1,0,0.2,0,0.2h2.9c0-0.1,0-0.1,0-0.2v-1.4
				C103.7,186.4,103.7,186.3,103.7,186.3"/>
		</defs>
		<clipPath id="SVGID_74_">
			<use xlink:href="#SVGID_73_"  style="overflow:visible;"/>
		</clipPath>
		<g style="clip-path:url(#SVGID_74_);">
			
				<image style="overflow:visible;" width="10" height="7" xlink:href="20E436F3B7C1EF86.jpg"  transform="matrix(0.4349 0 0 -0.4349 100.042 188.5684)">
			</image>
		</g>
	</g>
	<g>
		<defs>
			<path id="SVGID_75_" d="M58.2,188.6h-1.2c-0.1,0.2-0.2,0.3-0.3,0.5l-0.7,1.3v0.4c0,0.4,0.4,0.8,0.8,0.8h1.4
				c0.4,0,0.8-0.4,0.8-0.8v-1.4C59,189,58.7,188.6,58.2,188.6"/>
		</defs>
		<clipPath id="SVGID_76_">
			<use xlink:href="#SVGID_75_"  style="overflow:visible;"/>
		</clipPath>
		<g style="clip-path:url(#SVGID_76_);">
			
				<image style="overflow:visible;" width="10" height="10" xlink:href="20E436F3B7C1EF83.jpg"  transform="matrix(0.4349 0 0 -0.4349 55.2417 192.4824)">
			</image>
		</g>
	</g>
	<g>
		<defs>
			<path id="SVGID_77_" d="M57.1,188.6h-0.2c-0.4,0-0.8,0.4-0.8,0.8v1l0.7-1.3C56.9,189,57,188.8,57.1,188.6"/>
		</defs>
		<clipPath id="SVGID_78_">
			<use xlink:href="#SVGID_77_"  style="overflow:visible;"/>
		</clipPath>
		<g style="clip-path:url(#SVGID_78_);">
			
				<image style="overflow:visible;" width="6" height="7" xlink:href="20E436F3B7C1EF8E.jpg"  transform="matrix(0.4349 0 0 -0.4349 55.2417 191.1768)">
			</image>
		</g>
	</g>
	<g>
		<defs>
			<path id="SVGID_79_" d="M64.2,188.6h-1.4c-0.4,0-0.8,0.4-0.8,0.8v1.4c0,0.4,0.4,0.8,0.8,0.8h1.4c0.4,0,0.8-0.4,0.8-0.8v-1.4
				C65,189,64.6,188.6,64.2,188.6"/>
		</defs>
		<clipPath id="SVGID_80_">
			<use xlink:href="#SVGID_79_"  style="overflow:visible;"/>
		</clipPath>
		<g transform="matrix(1 0 0 1 -3.814697e-06 0)" style="clip-path:url(#SVGID_80_);">
			
				<image style="overflow:visible;" width="10" height="10" xlink:href="20E436F3B7C1EF8F.jpg"  transform="matrix(0.4349 0 0 -0.4349 61.3311 192.4824)">
			</image>
		</g>
	</g>
	<g>
		<defs>
			<path id="SVGID_81_" d="M70.1,188.6h-1.4c-0.4,0-0.8,0.4-0.8,0.8v1.4c0,0.4,0.4,0.8,0.8,0.8h1.4c0.4,0,0.8-0.4,0.8-0.8v-1.4
				C70.9,189,70.6,188.6,70.1,188.6"/>
		</defs>
		<clipPath id="SVGID_82_">
			<use xlink:href="#SVGID_81_"  style="overflow:visible;"/>
		</clipPath>
		<g style="clip-path:url(#SVGID_82_);">
			
				<image style="overflow:visible;" width="10" height="10" xlink:href="20E436F3B7C1EF84.jpg"  transform="matrix(0.4349 0 0 -0.4349 67.4209 192.4824)">
			</image>
		</g>
	</g>
	<g>
		<defs>
			<path id="SVGID_83_" d="M76.1,188.6h-1.4c-0.4,0-0.8,0.4-0.8,0.8v1.4c0,0.4,0.4,0.8,0.8,0.8h1.4c0.4,0,0.8-0.4,0.8-0.8v-1.4
				C76.9,189,76.5,188.6,76.1,188.6"/>
		</defs>
		<clipPath id="SVGID_84_">
			<use xlink:href="#SVGID_83_"  style="overflow:visible;"/>
		</clipPath>
		<g style="clip-path:url(#SVGID_84_);">
			
				<image style="overflow:visible;" width="10" height="10" xlink:href="20E436F3B7C1EF85.jpg"  transform="matrix(0.4349 0 0 -0.4349 73.0742 192.4824)">
			</image>
		</g>
	</g>
	<g>
		<defs>
			<path id="SVGID_85_" d="M82.1,188.6h-1.4c-0.4,0-0.8,0.4-0.8,0.8v1.4c0,0.4,0.4,0.8,0.8,0.8h1.4c0.4,0,0.8-0.4,0.8-0.8v-1.4
				C82.9,189,82.5,188.6,82.1,188.6"/>
		</defs>
		<clipPath id="SVGID_86_">
			<use xlink:href="#SVGID_85_"  style="overflow:visible;"/>
		</clipPath>
		<g style="clip-path:url(#SVGID_86_);">
			
				<image style="overflow:visible;" width="10" height="10" xlink:href="20E436F3B7C1EFED.jpg"  transform="matrix(0.4349 0 0 -0.4349 79.1646 192.4824)">
			</image>
		</g>
	</g>
	<g>
		<defs>
			<path id="SVGID_87_" d="M88,188.6h-1.4c-0.4,0-0.8,0.4-0.8,0.8v1.4c0,0.4,0.4,0.8,0.8,0.8H88c0.4,0,0.8-0.4,0.8-0.8v-1.4
				C88.8,189,88.5,188.6,88,188.6"/>
		</defs>
		<clipPath id="SVGID_88_">
			<use xlink:href="#SVGID_87_"  style="overflow:visible;"/>
		</clipPath>
		<g style="clip-path:url(#SVGID_88_);">
			
				<image style="overflow:visible;" width="10" height="10" xlink:href="20E436F3B7C1EFEF.jpg"  transform="matrix(0.4349 0 0 -0.4349 85.2529 192.4824)">
			</image>
		</g>
	</g>
	<g>
		<defs>
			<path id="SVGID_89_" d="M94,188.6h-1.4c-0.4,0-0.8,0.4-0.8,0.8v1.4c0,0.4,0.4,0.8,0.8,0.8H94c0.4,0,0.8-0.4,0.8-0.8v-1.4
				C94.8,189,94.4,188.6,94,188.6"/>
		</defs>
		<clipPath id="SVGID_90_">
			<use xlink:href="#SVGID_89_"  style="overflow:visible;"/>
		</clipPath>
		<g style="clip-path:url(#SVGID_90_);">
			
				<image style="overflow:visible;" width="9" height="10" xlink:href="20E436F3B7C1EFEC.jpg"  transform="matrix(0.4349 0 0 -0.4349 91.3423 192.4824)">
			</image>
		</g>
	</g>
	<g>
		<defs>
			<path id="SVGID_91_" d="M100,188.6h-1.4c-0.4,0-0.8,0.4-0.8,0.8v1.4c0,0.4,0.4,0.8,0.8,0.8h1.4c0.4,0,0.8-0.4,0.8-0.8v-1.4
				C100.7,189,100.4,188.6,100,188.6"/>
		</defs>
		<clipPath id="SVGID_92_">
			<use xlink:href="#SVGID_91_"  style="overflow:visible;"/>
		</clipPath>
		<g style="clip-path:url(#SVGID_92_);">
			
				<image style="overflow:visible;" width="10" height="10" xlink:href="20E436F3B7C1EFE3.jpg"  transform="matrix(0.4349 0 0 -0.4349 96.9966 192.4824)">
			</image>
		</g>
	</g>
	<g>
		<defs>
			<path id="SVGID_93_" d="M61.2,191.6h-1.4c-0.4,0-0.8,0.4-0.8,0.8v1.4c0,0.4,0.4,0.8,0.8,0.8h1.4c0.4,0,0.8-0.4,0.8-0.8v-1.4
				C62,192,61.6,191.6,61.2,191.6"/>
		</defs>
		<clipPath id="SVGID_94_">
			<use xlink:href="#SVGID_93_"  style="overflow:visible;"/>
		</clipPath>
		<g style="clip-path:url(#SVGID_94_);">
			
				<image style="overflow:visible;" width="10" height="9" xlink:href="20E436F3B7C1EFE5.jpg"  transform="matrix(0.4349 0 0 -0.4349 58.2861 195.0918)">
			</image>
		</g>
	</g>
	<g>
		<defs>
			<path id="SVGID_95_" d="M67.2,191.6h-1.4c-0.4,0-0.8,0.4-0.8,0.8v1.4c0,0.4,0.4,0.8,0.8,0.8h1.4c0.4,0,0.8-0.4,0.8-0.8v-1.4
				C67.9,192,67.6,191.6,67.2,191.6"/>
		</defs>
		<clipPath id="SVGID_96_">
			<use xlink:href="#SVGID_95_"  style="overflow:visible;"/>
		</clipPath>
		<g style="clip-path:url(#SVGID_96_);">
			
				<image style="overflow:visible;" width="10" height="9" xlink:href="20E436F3B7C1EFE7.jpg"  transform="matrix(0.4349 0 0 -0.4349 64.3755 195.0918)">
			</image>
		</g>
	</g>
	<g>
		<defs>
			<path id="SVGID_97_" d="M73.1,191.6h-1.4c-0.4,0-0.8,0.4-0.8,0.8v1.4c0,0.4,0.4,0.8,0.8,0.8h1.4c0.4,0,0.8-0.4,0.8-0.8v-1.4
				C73.9,192,73.6,191.6,73.1,191.6"/>
		</defs>
		<clipPath id="SVGID_98_">
			<use xlink:href="#SVGID_97_"  style="overflow:visible;"/>
		</clipPath>
		<g style="clip-path:url(#SVGID_98_);">
			
				<image style="overflow:visible;" width="9" height="9" xlink:href="20E436F3B7C1EFE4.jpg"  transform="matrix(0.4349 0 0 -0.4349 70.4648 195.0918)">
			</image>
		</g>
	</g>
	<g>
		<defs>
			<path id="SVGID_99_" d="M79.1,191.6h-1.4c-0.4,0-0.8,0.4-0.8,0.8v1.4c0,0.4,0.4,0.8,0.8,0.8h1.4c0.4,0,0.8-0.4,0.8-0.8v-1.4
				C79.9,192,79.5,191.6,79.1,191.6"/>
		</defs>
		<clipPath id="SVGID_100_">
			<use xlink:href="#SVGID_99_"  style="overflow:visible;"/>
		</clipPath>
		<g style="clip-path:url(#SVGID_100_);">
			
				<image style="overflow:visible;" width="10" height="9" xlink:href="20E436F3B7C1EFFC.jpg"  transform="matrix(0.4349 0 0 -0.4349 76.1191 195.0918)">
			</image>
		</g>
	</g>
	<g>
		<defs>
			<path id="SVGID_101_" d="M85,191.6h-1.4c-0.4,0-0.8,0.4-0.8,0.8v1.4c0,0.4,0.4,0.8,0.8,0.8H85c0.4,0,0.8-0.4,0.8-0.8v-1.4
				C85.8,192,85.5,191.6,85,191.6"/>
		</defs>
		<clipPath id="SVGID_102_">
			<use xlink:href="#SVGID_101_"  style="overflow:visible;"/>
		</clipPath>
		<g style="clip-path:url(#SVGID_102_);">
			
				<image style="overflow:visible;" width="10" height="9" xlink:href="20E436F3B7C1EFFD.jpg"  transform="matrix(0.4349 0 0 -0.4349 82.2085 195.0918)">
			</image>
		</g>
	</g>
	<g>
		<defs>
			<path id="SVGID_103_" d="M91,191.6h-1.4c-0.4,0-0.8,0.4-0.8,0.8v1.4c0,0.4,0.4,0.8,0.8,0.8H91c0.4,0,0.8-0.4,0.8-0.8v-1.4
				C91.8,192,91.4,191.6,91,191.6"/>
		</defs>
		<clipPath id="SVGID_104_">
			<use xlink:href="#SVGID_103_"  style="overflow:visible;"/>
		</clipPath>
		<g style="clip-path:url(#SVGID_104_);">
			
				<image style="overflow:visible;" width="10" height="9" xlink:href="20E436F3B7C1EFFF.jpg"  transform="matrix(0.4349 0 0 -0.4349 88.2983 195.0918)">
			</image>
		</g>
	</g>
	<g>
		<defs>
			<path id="SVGID_105_" d="M97,191.6h-1.4c-0.4,0-0.8,0.4-0.8,0.8v1.4c0,0.4,0.4,0.8,0.8,0.8H97c0.4,0,0.8-0.4,0.8-0.8v-1.4
				C97.8,192,97.4,191.6,97,191.6"/>
		</defs>
		<clipPath id="SVGID_106_">
			<use xlink:href="#SVGID_105_"  style="overflow:visible;"/>
		</clipPath>
		<g style="clip-path:url(#SVGID_106_);">
			
				<image style="overflow:visible;" width="10" height="9" xlink:href="20E436F3B7C1EFD8.jpg"  transform="matrix(0.4349 0 0 -0.4349 93.9517 195.0918)">
			</image>
		</g>
	</g>
	<g>
		<defs>
			<path id="SVGID_107_" d="M102.9,191.6h-1.4c-0.4,0-0.8,0.4-0.8,0.8v1.4c0,0.4,0.4,0.8,0.8,0.8h1.4c0.4,0,0.8-0.4,0.8-0.8v-1.4
				C103.7,192,103.4,191.6,102.9,191.6"/>
		</defs>
		<clipPath id="SVGID_108_">
			<use xlink:href="#SVGID_107_"  style="overflow:visible;"/>
		</clipPath>
		<g style="clip-path:url(#SVGID_108_);">
			
				<image style="overflow:visible;" width="10" height="9" xlink:href="20E436F3B7C1EFDF.jpg"  transform="matrix(0.4349 0 0 -0.4349 100.042 195.0918)">
			</image>
		</g>
	</g>
	<g>
		<defs>
			<path id="SVGID_109_" d="M58.2,194.6h-1.4c-0.4,0-0.8,0.4-0.8,0.8v1.4c0,0.4,0.4,0.8,0.8,0.8h1.4c0.4,0,0.8-0.4,0.8-0.8v-1.4
				C59,195,58.7,194.6,58.2,194.6"/>
		</defs>
		<clipPath id="SVGID_110_">
			<use xlink:href="#SVGID_109_"  style="overflow:visible;"/>
		</clipPath>
		<g style="clip-path:url(#SVGID_110_);">
			
				<image style="overflow:visible;" width="10" height="10" xlink:href="20E436F3B7C1EFD9.jpg"  transform="matrix(0.4349 0 0 -0.4349 55.2417 198.1377)">
			</image>
		</g>
	</g>
	<g>
		<defs>
			<path id="SVGID_111_" d="M64.2,194.6h-1.4c-0.4,0-0.8,0.4-0.8,0.8v1.4c0,0.4,0.4,0.8,0.8,0.8h1.4c0.4,0,0.8-0.4,0.8-0.8v-1.4
				C65,195,64.6,194.6,64.2,194.6"/>
		</defs>
		<clipPath id="SVGID_112_">
			<use xlink:href="#SVGID_111_"  style="overflow:visible;"/>
		</clipPath>
		<g transform="matrix(1 0 0 1 -3.814697e-06 0)" style="clip-path:url(#SVGID_112_);">
			
				<image style="overflow:visible;" width="10" height="10" xlink:href="20E436F3B7C1EFDB.jpg"  transform="matrix(0.4349 0 0 -0.4349 61.3311 198.1377)">
			</image>
		</g>
	</g>
	<g>
		<defs>
			<path id="SVGID_113_" d="M70.1,194.6h-1.4c-0.4,0-0.8,0.4-0.8,0.8v1.4c0,0.4,0.4,0.8,0.8,0.8h1.4c0.4,0,0.8-0.4,0.8-0.8v-1.4
				C70.9,195,70.6,194.6,70.1,194.6"/>
		</defs>
		<clipPath id="SVGID_114_">
			<use xlink:href="#SVGID_113_"  style="overflow:visible;"/>
		</clipPath>
		<g style="clip-path:url(#SVGID_114_);">
			
				<image style="overflow:visible;" width="10" height="10" xlink:href="20E436F3B7C1EFD6.jpg"  transform="matrix(0.4349 0 0 -0.4349 67.4209 198.1377)">
			</image>
		</g>
	</g>
	<g>
		<defs>
			<path id="SVGID_115_" d="M76.1,194.6h-1.4c-0.4,0-0.8,0.4-0.8,0.8v1.4c0,0.4,0.4,0.8,0.8,0.8h1.4c0.4,0,0.8-0.4,0.8-0.8v-1.4
				C76.9,195,76.5,194.6,76.1,194.6"/>
		</defs>
		<clipPath id="SVGID_116_">
			<use xlink:href="#SVGID_115_"  style="overflow:visible;"/>
		</clipPath>
		<g style="clip-path:url(#SVGID_116_);">
			
				<image style="overflow:visible;" width="10" height="10" xlink:href="20E436F3B7C1EFD7.jpg"  transform="matrix(0.4349 0 0 -0.4349 73.0742 198.1377)">
			</image>
		</g>
	</g>
	<g>
		<defs>
			<path id="SVGID_117_" d="M82.1,194.6h-1.4c-0.4,0-0.8,0.4-0.8,0.8v1.4c0,0.4,0.4,0.8,0.8,0.8h1.4c0.4,0,0.8-0.4,0.8-0.8v-1.4
				C82.9,195,82.5,194.6,82.1,194.6"/>
		</defs>
		<clipPath id="SVGID_118_">
			<use xlink:href="#SVGID_117_"  style="overflow:visible;"/>
		</clipPath>
		<g style="clip-path:url(#SVGID_118_);">
			
				<image style="overflow:visible;" width="10" height="10" xlink:href="20E436F3B7C1EFC8.jpg"  transform="matrix(0.4349 0 0 -0.4349 79.1646 198.1377)">
			</image>
		</g>
	</g>
	<g>
		<defs>
			<path id="SVGID_119_" d="M88,194.6h-1.4c-0.4,0-0.8,0.4-0.8,0.8v1.4c0,0.4,0.4,0.8,0.8,0.8H88c0.4,0,0.8-0.4,0.8-0.8v-1.4
				C88.8,195,88.5,194.6,88,194.6"/>
		</defs>
		<clipPath id="SVGID_120_">
			<use xlink:href="#SVGID_119_"  style="overflow:visible;"/>
		</clipPath>
		<g style="clip-path:url(#SVGID_120_);">
			
				<image style="overflow:visible;" width="10" height="10" xlink:href="20E436F3B7C1EFCB.jpg"  transform="matrix(0.4349 0 0 -0.4349 85.2529 198.1377)">
			</image>
		</g>
	</g>
	<g>
		<defs>
			<path id="SVGID_121_" d="M94,194.6h-1.4c-0.4,0-0.8,0.4-0.8,0.8v1.4c0,0.4,0.4,0.8,0.8,0.8H94c0.4,0,0.8-0.4,0.8-0.8v-1.4
				C94.8,195,94.4,194.6,94,194.6"/>
		</defs>
		<clipPath id="SVGID_122_">
			<use xlink:href="#SVGID_121_"  style="overflow:visible;"/>
		</clipPath>
		<g style="clip-path:url(#SVGID_122_);">
			
				<image style="overflow:visible;" width="9" height="10" xlink:href="20E436F3B7C1EFC9.jpg"  transform="matrix(0.4349 0 0 -0.4349 91.3423 198.1377)">
			</image>
		</g>
	</g>
	<g>
		<defs>
			<path id="SVGID_123_" d="M100,194.6h-1.4c-0.4,0-0.8,0.4-0.8,0.8v1.4c0,0.4,0.4,0.8,0.8,0.8h1.4c0.4,0,0.8-0.4,0.8-0.8v-1.4
				C100.7,195,100.4,194.6,100,194.6"/>
		</defs>
		<clipPath id="SVGID_124_">
			<use xlink:href="#SVGID_123_"  style="overflow:visible;"/>
		</clipPath>
		<g style="clip-path:url(#SVGID_124_);">
			
				<image style="overflow:visible;" width="10" height="10" xlink:href="20E436F3B7C1EFCF.jpg"  transform="matrix(0.4349 0 0 -0.4349 96.9966 198.1377)">
			</image>
		</g>
	</g>
	<g>
		<defs>
			<path id="SVGID_125_" d="M55.2,197.6h-1.4c-0.4,0-0.8,0.4-0.8,0.8v1.4c0,0.4,0.4,0.8,0.8,0.8h1.4c0.4,0,0.8-0.4,0.8-0.8v-1.4
				C56,197.9,55.7,197.6,55.2,197.6"/>
		</defs>
		<clipPath id="SVGID_126_">
			<use xlink:href="#SVGID_125_"  style="overflow:visible;"/>
		</clipPath>
		<g style="clip-path:url(#SVGID_126_);">
			
				<image style="overflow:visible;" width="10" height="10" xlink:href="20E436F3B7C1F033.jpg"  transform="matrix(0.4349 0 0 -0.4349 52.1963 201.1807)">
			</image>
		</g>
	</g>
	<g>
		<defs>
			<path id="SVGID_127_" d="M61.2,197.6h-1.4c-0.4,0-0.8,0.4-0.8,0.8v1.4c0,0.4,0.4,0.8,0.8,0.8h1.4c0.4,0,0.8-0.4,0.8-0.8v-1.4
				C62,197.9,61.6,197.6,61.2,197.6"/>
		</defs>
		<clipPath id="SVGID_128_">
			<use xlink:href="#SVGID_127_"  style="overflow:visible;"/>
		</clipPath>
		<g style="clip-path:url(#SVGID_128_);">
			
				<image style="overflow:visible;" width="10" height="10" xlink:href="20E436F3B7C1F02D.jpg"  transform="matrix(0.4349 0 0 -0.4349 58.2861 201.1807)">
			</image>
		</g>
	</g>
	<g>
		<defs>
			<path id="SVGID_129_" d="M105.9,194.6h-1.4c-0.4,0-0.8,0.4-0.8,0.8v1.4c0,0.4,0.4,0.8,0.8,0.8h1.4c0.4,0,0.8-0.4,0.8-0.8v-1.4
				C106.7,195,106.4,194.6,105.9,194.6"/>
		</defs>
		<clipPath id="SVGID_130_">
			<use xlink:href="#SVGID_129_"  style="overflow:visible;"/>
		</clipPath>
		<g style="clip-path:url(#SVGID_130_);">
			
				<image style="overflow:visible;" width="10" height="10" xlink:href="20E436F3B7C1F02F.jpg"  transform="matrix(0.4349 0 0 -0.4349 103.0859 198.1377)">
			</image>
		</g>
	</g>
	<g>
		<defs>
			<path id="SVGID_131_" d="M108.9,191.6h-1.4c-0.4,0-0.8,0.4-0.8,0.8v1.4c0,0.4,0.4,0.8,0.8,0.8h1.4c0.4,0,0.8-0.4,0.8-0.8v-1.4
				C109.7,192,109.3,191.6,108.9,191.6"/>
		</defs>
		<clipPath id="SVGID_132_">
			<use xlink:href="#SVGID_131_"  style="overflow:visible;"/>
		</clipPath>
		<g style="clip-path:url(#SVGID_132_);">
			
				<image style="overflow:visible;" width="10" height="9" xlink:href="20E436F3B7C1F052.jpg"  transform="matrix(0.4349 0 0 -0.4349 106.1304 195.0918)">
			</image>
		</g>
	</g>
	<g>
		<defs>
			<path id="SVGID_133_" d="M105.9,188.6h-1.4c-0.4,0-0.8,0.4-0.8,0.8v1.4c0,0.4,0.4,0.8,0.8,0.8h1.4c0.4,0,0.8-0.4,0.8-0.8v-1.4
				C106.7,189,106.4,188.6,105.9,188.6"/>
		</defs>
		<clipPath id="SVGID_134_">
			<use xlink:href="#SVGID_133_"  style="overflow:visible;"/>
		</clipPath>
		<g style="clip-path:url(#SVGID_134_);">
			
				<image style="overflow:visible;" width="10" height="10" xlink:href="20E436F3B7C1F053.jpg"  transform="matrix(0.4349 0 0 -0.4349 103.0859 192.4824)">
			</image>
		</g>
	</g>
	<g>
		<defs>
			<path id="SVGID_135_" d="M108.9,185.7h-1.4c-0.4,0-0.7,0.3-0.8,0.6h2.9C109.6,185.9,109.3,185.7,108.9,185.7"/>
		</defs>
		<clipPath id="SVGID_136_">
			<use xlink:href="#SVGID_135_"  style="overflow:visible;"/>
		</clipPath>
		<g style="clip-path:url(#SVGID_136_);">
			
				<image style="overflow:visible;" width="10" height="4" xlink:href="20E436F3B7C1F055.jpg"  transform="matrix(0.4349 0 0 -0.4349 106.1304 186.8281)">
			</image>
		</g>
	</g>
	<g>
		<defs>
			<path id="SVGID_137_" d="M109.7,188.1h-2.9c0.1,0.3,0.4,0.6,0.8,0.6h1.4C109.3,188.6,109.6,188.4,109.7,188.1"/>
		</defs>
		<clipPath id="SVGID_138_">
			<use xlink:href="#SVGID_137_"  style="overflow:visible;"/>
		</clipPath>
		<g style="clip-path:url(#SVGID_138_);">
			
				<image style="overflow:visible;" width="10" height="5" xlink:href="20E436F3B7C1F057.jpg"  transform="matrix(0.4349 0 0 -0.4349 106.1304 189.4365)">
			</image>
		</g>
	</g>
	<g>
		<defs>
			<path id="SVGID_139_" d="M109.7,186.3h-2.9c0,0.1,0,0.1,0,0.2v1.4c0,0.1,0,0.2,0,0.2h2.9c0-0.1,0-0.1,0-0.2v-1.4
				C109.7,186.4,109.7,186.3,109.7,186.3"/>
		</defs>
		<clipPath id="SVGID_140_">
			<use xlink:href="#SVGID_139_"  style="overflow:visible;"/>
		</clipPath>
		<g style="clip-path:url(#SVGID_140_);">
			
				<image style="overflow:visible;" width="10" height="7" xlink:href="20E436F3B7C1F050.jpg"  transform="matrix(0.4349 0 0 -0.4349 106.1304 188.5684)">
			</image>
		</g>
	</g>
	<g>
		<defs>
			<path id="SVGID_141_" d="M111.9,188.6h-1.4c-0.4,0-0.8,0.4-0.8,0.8v1.4c0,0.4,0.4,0.8,0.8,0.8h1.4c0.4,0,0.8-0.4,0.8-0.8v-1.4
				C112.7,189,112.3,188.6,111.9,188.6"/>
		</defs>
		<clipPath id="SVGID_142_">
			<use xlink:href="#SVGID_141_"  style="overflow:visible;"/>
		</clipPath>
		<g style="clip-path:url(#SVGID_142_);">
			
				<image style="overflow:visible;" width="10" height="10" xlink:href="20E436F3B7C1F051.jpg"  transform="matrix(0.4349 0 0 -0.4349 109.1758 192.4824)">
			</image>
		</g>
	</g>
	<g>
		<defs>
			<path id="SVGID_143_" d="M114.9,185.7h-1.4c-0.4,0-0.7,0.3-0.8,0.6h2.9C115.5,185.9,115.2,185.7,114.9,185.7"/>
		</defs>
		<clipPath id="SVGID_144_">
			<use xlink:href="#SVGID_143_"  style="overflow:visible;"/>
		</clipPath>
		<g style="clip-path:url(#SVGID_144_);">
			
				<image style="overflow:visible;" width="9" height="4" xlink:href="20E436F3B7C1F05D.jpg"  transform="matrix(0.4349 0 0 -0.4349 112.2197 186.8281)">
			</image>
		</g>
	</g>
	<g>
		<defs>
			<path id="SVGID_145_" d="M115.6,188.1h-2.9c0.1,0.3,0.4,0.6,0.8,0.6h1.4C115.2,188.6,115.5,188.4,115.6,188.1"/>
		</defs>
		<clipPath id="SVGID_146_">
			<use xlink:href="#SVGID_145_"  style="overflow:visible;"/>
		</clipPath>
		<g style="clip-path:url(#SVGID_146_);">
			
				<image style="overflow:visible;" width="9" height="5" xlink:href="20E436F3B7C1F072.jpg"  transform="matrix(0.4349 0 0 -0.4349 112.2197 189.4365)">
			</image>
		</g>
	</g>
	<g>
		<defs>
			<path id="SVGID_147_" d="M115.6,186.3h-2.9c0,0.1,0,0.1,0,0.2v1.4c0,0.1,0,0.2,0,0.2h2.9c0-0.1,0-0.1,0-0.2v-1.4
				C115.7,186.4,115.6,186.3,115.6,186.3"/>
		</defs>
		<clipPath id="SVGID_148_">
			<use xlink:href="#SVGID_147_"  style="overflow:visible;"/>
		</clipPath>
		<g style="clip-path:url(#SVGID_148_);">
			
				<image style="overflow:visible;" width="9" height="7" xlink:href="20E436F3B7C1F07D.jpg"  transform="matrix(0.4349 0 0 -0.4349 112.2197 188.5684)">
			</image>
		</g>
	</g>
	<g>
		<defs>
			<path id="SVGID_149_" d="M117.8,188.6h-1.4c-0.4,0-0.8,0.4-0.8,0.8v1.4c0,0.4,0.4,0.8,0.8,0.8h1.4c0.4,0,0.8-0.4,0.8-0.8v-1.4
				C118.6,189,118.3,188.6,117.8,188.6"/>
		</defs>
		<clipPath id="SVGID_150_">
			<use xlink:href="#SVGID_149_"  style="overflow:visible;"/>
		</clipPath>
		<g style="clip-path:url(#SVGID_150_);">
			
				<image style="overflow:visible;" width="10" height="10" xlink:href="20E436F3B7C1F07E.jpg"  transform="matrix(0.4349 0 0 -0.4349 114.8296 192.4824)">
			</image>
		</g>
	</g>
	<g>
		<defs>
			<path id="SVGID_151_" d="M114.9,191.6h-1.4c-0.4,0-0.8,0.4-0.8,0.8v1.4c0,0.4,0.4,0.8,0.8,0.8h1.4c0.4,0,0.8-0.4,0.8-0.8v-1.4
				C115.7,192,115.3,191.6,114.9,191.6"/>
		</defs>
		<clipPath id="SVGID_152_">
			<use xlink:href="#SVGID_151_"  style="overflow:visible;"/>
		</clipPath>
		<g style="clip-path:url(#SVGID_152_);">
			
				<image style="overflow:visible;" width="9" height="9" xlink:href="20E436F3B7C1F07C.jpg"  transform="matrix(0.4349 0 0 -0.4349 112.2197 195.0918)">
			</image>
		</g>
	</g>
	<g>
		<defs>
			<path id="SVGID_153_" d="M111.9,194.6h-1.4c-0.4,0-0.8,0.4-0.8,0.8v1.4c0,0.4,0.4,0.8,0.8,0.8h1.4c0.4,0,0.8-0.4,0.8-0.8v-1.4
				C112.7,195,112.3,194.6,111.9,194.6"/>
		</defs>
		<clipPath id="SVGID_154_">
			<use xlink:href="#SVGID_153_"  style="overflow:visible;"/>
		</clipPath>
		<g style="clip-path:url(#SVGID_154_);">
			
				<image style="overflow:visible;" width="10" height="10" xlink:href="20E436F3B7C1F073.jpg"  transform="matrix(0.4349 0 0 -0.4349 109.1758 198.1377)">
			</image>
		</g>
	</g>
	<g>
		<defs>
			<path id="SVGID_155_" d="M117.8,194.6h-1.4c-0.4,0-0.8,0.4-0.8,0.8v1.4c0,0.4,0.4,0.8,0.8,0.8h1.4c0.4,0,0.8-0.4,0.8-0.8v-1.4
				C118.6,195,118.3,194.6,117.8,194.6"/>
		</defs>
		<clipPath id="SVGID_156_">
			<use xlink:href="#SVGID_155_"  style="overflow:visible;"/>
		</clipPath>
		<g style="clip-path:url(#SVGID_156_);">
			
				<image style="overflow:visible;" width="10" height="10" xlink:href="20E436F3B7C1F075.jpg"  transform="matrix(0.4349 0 0 -0.4349 114.8296 198.1377)">
			</image>
		</g>
	</g>
	<g>
		<defs>
			<path id="SVGID_157_" d="M114.9,197.6h-1.4c-0.4,0-0.8,0.4-0.8,0.8v1.4c0,0.4,0.4,0.8,0.8,0.8h1.4c0.4,0,0.8-0.4,0.8-0.8v-1.4
				C115.7,197.9,115.3,197.6,114.9,197.6"/>
		</defs>
		<clipPath id="SVGID_158_">
			<use xlink:href="#SVGID_157_"  style="overflow:visible;"/>
		</clipPath>
		<g style="clip-path:url(#SVGID_158_);">
			
				<image style="overflow:visible;" width="9" height="10" xlink:href="20E436F3B7C1F076.jpg"  transform="matrix(0.4349 0 0 -0.4349 112.2197 201.1807)">
			</image>
		</g>
	</g>
	<g>
		<defs>
			<path id="SVGID_159_" d="M108.9,197.6h-1.4c-0.4,0-0.8,0.4-0.8,0.8v1.4c0,0.4,0.4,0.8,0.8,0.8h1.4c0.4,0,0.8-0.4,0.8-0.8v-1.4
				C109.7,197.9,109.3,197.6,108.9,197.6"/>
		</defs>
		<clipPath id="SVGID_160_">
			<use xlink:href="#SVGID_159_"  style="overflow:visible;"/>
		</clipPath>
		<g style="clip-path:url(#SVGID_160_);">
			
				<image style="overflow:visible;" width="10" height="10" xlink:href="20E436F3B7C1F074.jpg"  transform="matrix(0.4349 0 0 -0.4349 106.1304 201.1807)">
			</image>
		</g>
	</g>
	<g>
		<defs>
			<path id="SVGID_161_" d="M133.4,198h-2.8c-0.1,0.1-0.1,0.2-0.1,0.4v1.4c0,0.4,0.4,0.8,0.8,0.8h1.4c0.4,0,0.8-0.4,0.8-0.8v-1.4
				C133.5,198.2,133.5,198.1,133.4,198"/>
		</defs>
		<clipPath id="SVGID_162_">
			<use xlink:href="#SVGID_161_"  style="overflow:visible;"/>
		</clipPath>
		<g style="clip-path:url(#SVGID_162_);">
			
				<image style="overflow:visible;" width="10" height="9" xlink:href="20E436F3B7C1F06C.jpg"  transform="matrix(0.4349 0 0 -0.4349 130.0527 201.1807)">
			</image>
		</g>
	</g>
	<g>
		<defs>
			<path id="SVGID_163_" d="M132.8,197.6h-1.4c-0.3,0-0.6,0.2-0.7,0.4h2.8C133.3,197.7,133.1,197.6,132.8,197.6"/>
		</defs>
		<clipPath id="SVGID_164_">
			<use xlink:href="#SVGID_163_"  style="overflow:visible;"/>
		</clipPath>
		<g style="clip-path:url(#SVGID_164_);">
			
				<image style="overflow:visible;" width="9" height="4" xlink:href="20E436F3B7C1F06D.jpg"  transform="matrix(0.4349 0 0 -0.4349 130.0532 198.5703)">
			</image>
		</g>
	</g>
	<g>
		<defs>
			<path id="SVGID_165_" d="M139.4,198h-2.8c-0.1,0.1-0.1,0.2-0.1,0.4v1.4c0,0.4,0.4,0.8,0.8,0.8h1.4c0.4,0,0.8-0.4,0.8-0.8v-1.4
				C139.5,198.2,139.5,198.1,139.4,198"/>
		</defs>
		<clipPath id="SVGID_166_">
			<use xlink:href="#SVGID_165_"  style="overflow:visible;"/>
		</clipPath>
		<g style="clip-path:url(#SVGID_166_);">
			
				<image style="overflow:visible;" width="10" height="9" xlink:href="20E436F3B7C1F009.jpg"  transform="matrix(0.4349 0 0 -0.4349 135.707 201.1807)">
			</image>
		</g>
	</g>
	<g>
		<defs>
			<path id="SVGID_167_" d="M138.7,197.6h-1.4c-0.3,0-0.6,0.2-0.7,0.4h2.8C139.3,197.7,139,197.6,138.7,197.6"/>
		</defs>
		<clipPath id="SVGID_168_">
			<use xlink:href="#SVGID_167_"  style="overflow:visible;"/>
		</clipPath>
		<g style="clip-path:url(#SVGID_168_);">
			
				<image style="overflow:visible;" width="9" height="4" xlink:href="20E436F3B7C1F00B.jpg"  transform="matrix(0.4349 0 0 -0.4349 136.1426 198.5703)">
			</image>
		</g>
	</g>
	<g>
		<defs>
			<path id="SVGID_169_" d="M132.8,185.7h-1.4c-0.4,0-0.7,0.3-0.8,0.6h2.9C133.4,185.9,133.1,185.7,132.8,185.7"/>
		</defs>
		<clipPath id="SVGID_170_">
			<use xlink:href="#SVGID_169_"  style="overflow:visible;"/>
		</clipPath>
		<g style="clip-path:url(#SVGID_170_);">
			
				<image style="overflow:visible;" width="9" height="4" xlink:href="20E436F3B7C1F008.jpg"  transform="matrix(0.4349 0 0 -0.4349 130.0532 186.8281)">
			</image>
		</g>
	</g>
	<g>
		<defs>
			<path id="SVGID_171_" d="M133.5,188.1h-2.9c0.1,0.3,0.4,0.6,0.8,0.6h1.4C133.1,188.6,133.4,188.4,133.5,188.1"/>
		</defs>
		<clipPath id="SVGID_172_">
			<use xlink:href="#SVGID_171_"  style="overflow:visible;"/>
		</clipPath>
		<g style="clip-path:url(#SVGID_172_);">
			
				<image style="overflow:visible;" width="9" height="5" xlink:href="20E436F3B7C1F00F.jpg"  transform="matrix(0.4349 0 0 -0.4349 130.0532 189.4365)">
			</image>
		</g>
	</g>
	<g>
		<defs>
			<path id="SVGID_173_" d="M133.5,186.3h-2.9c0,0.1,0,0.1,0,0.2v1.4c0,0.1,0,0.2,0,0.2h2.9c0-0.1,0-0.1,0-0.2v-1.4
				C133.5,186.4,133.5,186.3,133.5,186.3"/>
		</defs>
		<clipPath id="SVGID_174_">
			<use xlink:href="#SVGID_173_"  style="overflow:visible;"/>
		</clipPath>
		<g style="clip-path:url(#SVGID_174_);">
			
				<image style="overflow:visible;" width="10" height="7" xlink:href="20E436F3B7C1F00A.jpg"  transform="matrix(0.4349 0 0 -0.4349 130.0527 188.5684)">
			</image>
		</g>
	</g>
	<g>
		<defs>
			<path id="SVGID_175_" d="M138.7,185.7h-1.4c-0.4,0-0.7,0.3-0.8,0.6h2.9C139.4,185.9,139.1,185.7,138.7,185.7"/>
		</defs>
		<clipPath id="SVGID_176_">
			<use xlink:href="#SVGID_175_"  style="overflow:visible;"/>
		</clipPath>
		<g style="clip-path:url(#SVGID_176_);">
			
				<image style="overflow:visible;" width="10" height="4" xlink:href="20E436F3B7C1F006.jpg"  transform="matrix(0.4349 0 0 -0.4349 135.707 186.8281)">
			</image>
		</g>
	</g>
	<g>
		<defs>
			<path id="SVGID_177_" d="M139.5,188.1h-2.9c0.1,0.3,0.4,0.6,0.8,0.6h1.4C139.1,188.6,139.4,188.4,139.5,188.1"/>
		</defs>
		<clipPath id="SVGID_178_">
			<use xlink:href="#SVGID_177_"  style="overflow:visible;"/>
		</clipPath>
		<g style="clip-path:url(#SVGID_178_);">
			
				<image style="overflow:visible;" width="10" height="5" xlink:href="20E436F3B7C1F007.jpg"  transform="matrix(0.4349 0 0 -0.4349 135.707 189.4365)">
			</image>
		</g>
	</g>
	<g>
		<defs>
			<path id="SVGID_179_" d="M139.5,186.3h-2.9c0,0.1,0,0.1,0,0.2v1.4c0,0.1,0,0.2,0,0.2h2.9c0-0.1,0-0.1,0-0.2v-1.4
				C139.5,186.4,139.5,186.3,139.5,186.3"/>
		</defs>
		<clipPath id="SVGID_180_">
			<use xlink:href="#SVGID_179_"  style="overflow:visible;"/>
		</clipPath>
		<g style="clip-path:url(#SVGID_180_);">
			
				<image style="overflow:visible;" width="10" height="7" xlink:href="20E436F3B7C1F037.jpg"  transform="matrix(0.4349 0 0 -0.4349 135.707 188.5684)">
			</image>
		</g>
	</g>
	<g>
		<defs>
			<path id="SVGID_181_" d="M150.6,185.7h-1.4c-0.4,0-0.7,0.3-0.8,0.6h2.9C151.3,185.9,151,185.7,150.6,185.7"/>
		</defs>
		<clipPath id="SVGID_182_">
			<use xlink:href="#SVGID_181_"  style="overflow:visible;"/>
		</clipPath>
		<g style="clip-path:url(#SVGID_182_);">
			
				<image style="overflow:visible;" width="10" height="4" xlink:href="20E436F3B7C1F039.jpg"  transform="matrix(0.4349 0 0 -0.4349 147.8862 186.8281)">
			</image>
		</g>
	</g>
	<g>
		<defs>
			<path id="SVGID_183_" d="M151.4,188.1h-2.1l0.1,0.6h1.2C151,188.6,151.3,188.4,151.4,188.1"/>
		</defs>
		<clipPath id="SVGID_184_">
			<use xlink:href="#SVGID_183_"  style="overflow:visible;"/>
		</clipPath>
		<g style="clip-path:url(#SVGID_184_);">
			
				<image style="overflow:visible;" width="8" height="5" xlink:href="20E436F3B7C1F03B.jpg"  transform="matrix(0.4349 0 0 -0.4349 148.7554 189.4365)">
			</image>
		</g>
	</g>
	<g>
		<defs>
			<path id="SVGID_185_" d="M151.4,186.3h-2.9c0,0.1,0,0.1,0,0.2v1.4c0,0.4,0.4,0.8,0.8,0.8h0.2l-0.1-0.6h2.1c0-0.1,0-0.1,0-0.2
				v-1.4C151.4,186.4,151.4,186.3,151.4,186.3"/>
		</defs>
		<clipPath id="SVGID_186_">
			<use xlink:href="#SVGID_185_"  style="overflow:visible;"/>
		</clipPath>
		<g style="clip-path:url(#SVGID_186_);">
			
				<image style="overflow:visible;" width="10" height="9" xlink:href="20E436F3B7C1F024.jpg"  transform="matrix(0.4349 0 0 -0.4349 147.8862 189.4365)">
			</image>
		</g>
	</g>
	<g>
		<defs>
			<path id="SVGID_187_" d="M153.6,188.6h-1.4c-0.4,0-0.8,0.4-0.8,0.8v1.4c0,0.4,0.4,0.8,0.8,0.8h1.4c0.4,0,0.8-0.4,0.8-0.8v-1.4
				C154.4,189,154.1,188.6,153.6,188.6"/>
		</defs>
		<clipPath id="SVGID_188_">
			<use xlink:href="#SVGID_187_"  style="overflow:visible;"/>
		</clipPath>
		<g style="clip-path:url(#SVGID_188_);">
			
				<image style="overflow:visible;" width="10" height="10" xlink:href="20E436F3B7C1F023.jpg"  transform="matrix(0.4349 0 0 -0.4349 150.9302 192.4824)">
			</image>
		</g>
	</g>
	<g>
		<defs>
			<path id="SVGID_189_" d="M156.6,185.7h-0.5c0.1,0.2,0.2,0.4,0.3,0.6h0.9C157.3,185.9,157,185.7,156.6,185.7"/>
		</defs>
		<clipPath id="SVGID_190_">
			<use xlink:href="#SVGID_189_"  style="overflow:visible;"/>
		</clipPath>
		<g style="clip-path:url(#SVGID_190_);">
			
				<image style="overflow:visible;" width="5" height="4" xlink:href="20E436F3B7C1F0DC.jpg"  transform="matrix(0.4349 0 0 -0.4349 155.7148 186.8281)">
			</image>
		</g>
	</g>
	<g>
		<defs>
			<path id="SVGID_191_" d="M156.2,185.7L156.2,185.7c0.1,0.2,0.2,0.4,0.3,0.6h0C156.4,186.1,156.3,185.8,156.2,185.7"/>
		</defs>
		<clipPath id="SVGID_192_">
			<use xlink:href="#SVGID_191_"  style="overflow:visible;"/>
		</clipPath>
		<g style="clip-path:url(#SVGID_192_);">
			
				<image style="overflow:visible;" width="4" height="4" xlink:href="20E436F3B7C1F0DF.jpg"  transform="matrix(0.4349 0 0 -0.4349 155.2798 186.8281)">
			</image>
		</g>
	</g>
	<g>
		<defs>
			<path id="SVGID_193_" d="M156.1,185.7h-0.9c-0.4,0-0.7,0.3-0.8,0.6h2C156.3,186.1,156.2,185.9,156.1,185.7"/>
		</defs>
		<clipPath id="SVGID_194_">
			<use xlink:href="#SVGID_193_"  style="overflow:visible;"/>
		</clipPath>
		<g style="clip-path:url(#SVGID_194_);">
			
				<image style="overflow:visible;" width="7" height="4" xlink:href="20E436F3B7C1F0DD.jpg"  transform="matrix(0.4349 0 0 -0.4349 153.9746 186.8281)">
			</image>
		</g>
	</g>
	<g>
		<defs>
			<path id="SVGID_195_" d="M157.4,188.1h-2.9c0.1,0.3,0.4,0.6,0.8,0.6h1.4C157,188.6,157.3,188.4,157.4,188.1"/>
		</defs>
		<clipPath id="SVGID_196_">
			<use xlink:href="#SVGID_195_"  style="overflow:visible;"/>
		</clipPath>
		<g style="clip-path:url(#SVGID_196_);">
			
				<image style="overflow:visible;" width="9" height="5" xlink:href="20E436F3B7C1F0E3.jpg"  transform="matrix(0.4349 0 0 -0.4349 153.9746 189.4365)">
			</image>
		</g>
	</g>
	<g>
		<defs>
			<path id="SVGID_197_" d="M157.4,186.3h-0.9h0h-2c0,0.1,0,0.1,0,0.2v1.4c0,0.1,0,0.2,0,0.2h2.9c0-0.1,0-0.1,0-0.2v-1.4
				C157.4,186.4,157.4,186.3,157.4,186.3"/>
		</defs>
		<clipPath id="SVGID_198_">
			<use xlink:href="#SVGID_197_"  style="overflow:visible;"/>
		</clipPath>
		<g style="clip-path:url(#SVGID_198_);">
			
				<image style="overflow:visible;" width="9" height="7" xlink:href="20E436F3B7C1F0E4.jpg"  transform="matrix(0.4349 0 0 -0.4349 153.9746 188.5684)">
			</image>
		</g>
	</g>
	<g>
		<defs>
			<path id="SVGID_199_" d="M162.6,191.6h-1.4c-0.4,0-0.8,0.4-0.8,0.8v1.4c0,0.4,0.4,0.8,0.8,0.8h1.4c0.4,0,0.8-0.4,0.8-0.8v-1.4
				C163.4,192,163,191.6,162.6,191.6"/>
		</defs>
		<clipPath id="SVGID_200_">
			<use xlink:href="#SVGID_199_"  style="overflow:visible;"/>
		</clipPath>
		<g style="clip-path:url(#SVGID_200_);">
			
				<image style="overflow:visible;" width="10" height="9" xlink:href="20E436F3B7C1F0E7.jpg"  transform="matrix(0.4349 0 0 -0.4349 159.6299 195.0918)">
			</image>
		</g>
	</g>
	<g>
		<defs>
			<path id="SVGID_201_" d="M156.6,191.6h-1.4c-0.4,0-0.8,0.4-0.8,0.8v1.4c0,0.4,0.4,0.8,0.8,0.8h1.4c0.4,0,0.8-0.4,0.8-0.8v-1.4
				C157.4,192,157,191.6,156.6,191.6"/>
		</defs>
		<clipPath id="SVGID_202_">
			<use xlink:href="#SVGID_201_"  style="overflow:visible;"/>
		</clipPath>
		<g style="clip-path:url(#SVGID_202_);">
			
				<image style="overflow:visible;" width="9" height="9" xlink:href="20E436F3B7C1F0E5.jpg"  transform="matrix(0.4349 0 0 -0.4349 153.9746 195.0918)">
			</image>
		</g>
	</g>
	<g>
		<defs>
			<path id="SVGID_203_" d="M153.6,194.6h-1.4c-0.4,0-0.8,0.4-0.8,0.8v1.4c0,0.4,0.4,0.8,0.8,0.8h1.4c0.4,0,0.8-0.4,0.8-0.8v-1.4
				C154.4,195,154.1,194.6,153.6,194.6"/>
		</defs>
		<clipPath id="SVGID_204_">
			<use xlink:href="#SVGID_203_"  style="overflow:visible;"/>
		</clipPath>
		<g style="clip-path:url(#SVGID_204_);">
			
				<image style="overflow:visible;" width="10" height="10" xlink:href="20E436F3B7C1F0E2.jpg"  transform="matrix(0.4349 0 0 -0.4349 150.9302 198.1377)">
			</image>
		</g>
	</g>
	<g>
		<defs>
			<path id="SVGID_205_" d="M159.6,194.6h-1.4c-0.4,0-0.8,0.4-0.8,0.8v1.4c0,0.4,0.4,0.8,0.8,0.8h1.4c0.4,0,0.8-0.4,0.8-0.8v-1.4
				C160.4,195,160,194.6,159.6,194.6"/>
		</defs>
		<clipPath id="SVGID_206_">
			<use xlink:href="#SVGID_205_"  style="overflow:visible;"/>
		</clipPath>
		<g style="clip-path:url(#SVGID_206_);">
			
				<image style="overflow:visible;" width="10" height="10" xlink:href="C0FBF1398F0797FA.jpg"  transform="matrix(0.4349 0 0 -0.4349 156.5845 198.1377)">
			</image>
		</g>
	</g>
	<g>
		<defs>
			<path id="SVGID_207_" d="M162.6,197.6h-1.4c-0.4,0-0.8,0.4-0.8,0.8v1.4c0,0.4,0.4,0.8,0.8,0.8h1.4c0.4,0,0.8-0.4,0.8-0.8v-1.4
				C163.4,197.9,163,197.6,162.6,197.6"/>
		</defs>
		<clipPath id="SVGID_208_">
			<use xlink:href="#SVGID_207_"  style="overflow:visible;"/>
		</clipPath>
		<g style="clip-path:url(#SVGID_208_);">
			
				<image style="overflow:visible;" width="10" height="10" xlink:href="C0FBF1398F0797F9.jpg"  transform="matrix(0.4349 0 0 -0.4349 159.6299 201.1807)">
			</image>
		</g>
	</g>
	<g>
		<defs>
			<path id="SVGID_209_" d="M159.6,188.6h-1.4c-0.4,0-0.8,0.4-0.8,0.8v1.4c0,0.4,0.4,0.8,0.8,0.8h1.4c0.4,0,0.8-0.4,0.8-0.8v-1.4
				C160.4,189,160,188.6,159.6,188.6"/>
		</defs>
		<clipPath id="SVGID_210_">
			<use xlink:href="#SVGID_209_"  style="overflow:visible;"/>
		</clipPath>
		<g style="clip-path:url(#SVGID_210_);">
			
				<image style="overflow:visible;" width="10" height="10" xlink:href="C0FBF1398F0797C6.jpg"  transform="matrix(0.4349 0 0 -0.4349 156.5845 192.4824)">
			</image>
		</g>
	</g>
	<g>
		<defs>
			<path id="SVGID_211_" d="M167.2,197.6h-0.1c-0.4,0-0.8,0.4-0.8,0.8v1.4c0,0.4,0.4,0.8,0.8,0.8h1.4c0,0,0.1,0,0.1,0L167.2,197.6"
				/>
		</defs>
		<clipPath id="SVGID_212_">
			<use xlink:href="#SVGID_211_"  style="overflow:visible;"/>
		</clipPath>
		<g style="clip-path:url(#SVGID_212_);">
			
				<image style="overflow:visible;" width="8" height="10" xlink:href="C0FBF1398F0797C9.jpg"  transform="matrix(0.4349 0 0 -0.4349 165.7183 201.1807)">
			</image>
		</g>
	</g>
	<g>
		<defs>
			<path id="SVGID_213_" d="M168.5,197.6h-1.3l1.4,3c0.4,0,0.7-0.4,0.7-0.8v-1.4C169.3,197.9,169,197.6,168.5,197.6"/>
		</defs>
		<clipPath id="SVGID_214_">
			<use xlink:href="#SVGID_213_"  style="overflow:visible;"/>
		</clipPath>
		<g style="clip-path:url(#SVGID_214_);">
			
				<image style="overflow:visible;" width="8" height="10" xlink:href="C0FBF1398F0797CA.jpg"  transform="matrix(0.4349 0 0 -0.4349 166.5884 201.1807)">
			</image>
		</g>
	</g>
	<path class="st19" d="M563.3,56.2c-1.8,2.9-1.2,141.8,1.1,147.3c1.8,4.3,60.4,53.1,63.5,54.4c39.6-0.3,66.4-14.7,70.8-22.3
		c1.7-9.6,0.3-157.4-1.4-160.5c-1.4-2.7-76.4-29.6-79-30.2C616,44.3,565.3,53,563.3,56.2"/>
	<path d="M563.3,56.2l-0.8-0.5c-0.1,0.2-0.1,0.3-0.2,0.4c-0.1,0.4-0.2,1.1-0.3,2c-0.5,6.4-0.8,26.6-0.8,50c0,20.6,0.2,43.6,0.5,61.9
		c0.2,9.2,0.4,17.1,0.7,23c0.1,2.9,0.3,5.4,0.4,7.2c0.1,0.9,0.2,1.7,0.2,2.2c0.1,0.6,0.2,1,0.3,1.4c0.2,0.5,0.6,0.9,1.1,1.6
		c2.1,2.3,6.8,6.6,12.8,12c9,8,20.9,18,30.9,26.2c5,4.1,9.4,7.7,12.8,10.4c1.7,1.3,3.1,2.4,4.2,3.2c0.5,0.4,1,0.7,1.3,1
		c0.4,0.2,0.6,0.4,0.9,0.5l0.2,0.1l0.2,0c19.9-0.1,36.6-3.8,48.9-8.5c6.1-2.3,11.2-4.9,15-7.3c3.8-2.5,6.4-4.8,7.7-7l0.1-0.1l0-0.2
		c0.2-0.9,0.3-2.5,0.4-4.9c0.3-7.1,0.4-20.8,0.4-37.2c0-23.5-0.3-52.6-0.6-76.1c-0.2-11.8-0.4-22.1-0.7-29.6
		c-0.1-3.8-0.3-6.8-0.4-9.1c-0.1-1.1-0.1-2-0.2-2.7c0-0.3-0.1-0.6-0.1-0.8c-0.1-0.2-0.1-0.4-0.2-0.7c-0.2-0.4-0.4-0.5-0.6-0.6
		c-0.4-0.3-1.1-0.6-1.9-1.1c-3.2-1.5-9.4-4.1-17-7c-11.4-4.4-26-9.8-37.9-14.1c-6-2.2-11.3-4-15.2-5.4c-2-0.7-3.6-1.3-4.8-1.7
		c-0.6-0.2-1.1-0.4-1.4-0.5c-0.4-0.1-0.6-0.2-0.8-0.2c-0.2,0-0.4,0-0.6,0c-0.7,0-2,0.1-3.8,0.4c-6.3,0.8-18.6,2.9-29.6,5.1
		c-5.5,1.1-10.6,2.2-14.5,3.3c-2,0.5-3.6,1-4.8,1.5c-0.6,0.2-1.1,0.5-1.6,0.7c-0.4,0.2-0.8,0.4-1,0.9L563.3,56.2l0.8,0.5l-0.2-0.1
		l0.2,0.1l0,0l-0.2-0.1l0.2,0.1l0,0c0.1-0.1,0.5-0.3,1-0.5c1.9-0.8,6-2,11-3.1c7.5-1.7,17.1-3.5,25.3-4.9c4.1-0.7,7.8-1.3,10.8-1.7
		c2.9-0.4,5.1-0.7,5.8-0.6l0.1,0l0,0c0.1,0,0.5,0.2,1.2,0.4c5.2,1.7,24.3,8.5,42.3,15.2c9,3.3,17.7,6.7,24.2,9.3
		c3.3,1.3,6,2.5,7.9,3.3c1,0.4,1.7,0.8,2.3,1.1c0.3,0.1,0.5,0.3,0.6,0.4l0.1,0.1l0.1-0.1l-0.1,0.1l0,0l0.1-0.1l-0.1,0.1l0.4-0.3
		l-0.5,0.2l0.1,0.1l0.4-0.3l-0.5,0.2l0.4-0.2l-0.4,0.1l0,0.1l0.4-0.2l-0.4,0.1l0,0.1c0,0.2,0.1,0.8,0.2,1.6c0.5,5.8,1,24.2,1.3,46.5
		c0.3,22.3,0.6,48.5,0.6,70c0,10.9-0.1,20.7-0.2,28c-0.1,3.7-0.1,6.8-0.2,9.1c-0.1,2.3-0.2,4-0.3,4.6l0.9,0.2l-0.8-0.5
		c-1,1.7-3.4,4-7.1,6.4c-11.1,7.2-33.4,15.3-63,15.5l0,0.9l0.4-0.8l-0.1,0c-0.2-0.1-0.7-0.5-1.4-1c-5-3.7-20.1-16-34.1-27.9
		c-7-5.9-13.7-11.8-18.8-16.4c-2.5-2.3-4.7-4.3-6.2-5.8c-0.8-0.8-1.4-1.4-1.8-1.9c-0.4-0.5-0.7-0.9-0.7-0.9c0,0-0.1-0.4-0.2-0.9
		c-0.3-2-0.6-6.6-0.8-12.8c-0.7-18.6-1.1-52.4-1.1-81.3c0-13.8,0.1-26.5,0.3-35.9c0.1-4.7,0.2-8.6,0.3-11.3c0.1-1.4,0.1-2.5,0.2-3.2
		c0-0.4,0.1-0.7,0.1-0.9l0-0.2l0,0l-0.5-0.2l0.4,0.3l0-0.1l-0.5-0.2l0.4,0.3L563.3,56.2"/>
	<path class="st20" d="M568.4,60.1l60.9,34.2l-0.2,130.2c0.5-42.2,0.3-93.5,1.2-129.8c19.3-6,44.6-11.6,63.9-17.6
		c-15,2.6-44.7,9.2-65.3,14C608.1,81,587.3,68.3,568.4,60.1"/>
	<path class="st21" d="M687,207.7c-2.4,0.8-38.4,10.7-40.2,11.2c2.5,1,5.7,1.4,9.2,1.4C667.2,220.3,681.5,215.5,687,207.7"/>
	<path class="st22" d="M683.5,175.9l-33.2,12.8c0.6,2.1,3.6,2.6,6.3,2.6c2.3,0,4.4-0.4,4.4-0.4c2.1,0.7,4.1,1,5.8,1
		c9.2,0,14.2-7.9,14.2-7.9l5.2-1.8C686.2,182.2,686.9,177.1,683.5,175.9"/>
	<path class="st23" d="M650.6,184.4c11-2.9,22.1-5.7,33.1-8.6c0.4,1.6,0.5,3.8-0.2,5c-1.7,0.8-5,1.5-6.7,2.3
		c-4.8,4.6-9,5.1-16.7,4.4c-3,0.6-6,1.1-8.9,1.7C650.2,187.4,649.9,186.6,650.6,184.4z"/>
	<path class="st24" d="M565,58.1l1.1,144.5l63,53l0.1-31.3c-0.1,10.2-0.3,20-0.5,28.8c-0.6-45.5-2.1-114.9-2.7-160.4
		c-20.8-11.2-41.2-21.3-59.8-33.7c0.7,0.3,1.5,0.6,2.2,1L565,58.1"/>
	<path class="st25" d="M566.2,59.1c18.5,12.4,39,22.5,59.8,33.7c0.6,45.5,2.1,114.9,2.7,160.4c0.2-8.8,0.4-18.5,0.5-28.8l0.2-130.2
		l-60.9-34.2C567.7,59.7,567,59.4,566.2,59.1"/>
	<path class="st21" d="M683.2,217.9c-1.8,0.6-29.2,8.1-30.6,8.5c2.4,0.9,5.3,1.3,8.5,1.3C668.9,227.8,678,224.9,683.2,217.9"/>
	<path class="st21" d="M677.7,228c-1.1,0.4-18.3,5.1-19.2,5.3c1.8,0.6,3.8,1,5.8,1C669.5,234.2,674.6,232.1,677.7,228"/>
	<polyline class="st24" points="689.2,88.1 689.9,162.8 641.3,175.8 642.5,179.9 693.1,165.7 692.5,88.6 689.2,88.1 	"/>
	<polyline class="st26" points="689.2,105.2 641.5,116.7 641.6,118.9 689.2,105.2 	"/>
	<polyline class="st26" points="688.5,120.9 640.8,132.4 640.9,134.6 688.5,120.9 	"/>
	<polyline class="st26" points="689.2,135.4 641.5,146.9 641.6,149.1 689.2,135.4 	"/>
	<polyline class="st26" points="689.2,149.7 641.5,161.2 641.6,163.4 689.2,149.7 	"/>
	<polyline class="st27" points="689,89.5 641.4,101.4 641.8,179.7 	"/>
	<rect x="29.7" y="272.3" class="st28" width="124.8" height="20.2"/>
	<rect x="106.1" y="277.7" class="st28" width="6.9" height="29"/>
	<rect x="126.3" y="283.3" class="st28" width="8.1" height="23.4"/>
	<rect x="143.8" y="279.7" class="st28" width="10.7" height="27.6"/>
	<path class="st28" d="M33,282.5c0,25.1-12.7,44.7-28.8,44.7c-16.2,0-28.8-19.6-28.8-44.7c0-25.1,12.7-44.7,28.8-44.7
		C20.4,237.8,33,257.4,33,282.5z M-12.7,282.5c0,19.3,8.9,32.8,16.9,32.8c8,0,16.9-13.5,16.9-32.8c0-19.3-8.9-32.8-16.9-32.8
		C-3.8,249.7-12.7,263.1-12.7,282.5z"/>
	<text transform="matrix(1 0 0 1 60.8169 288.5859)" class="st29 st30">private key</text>
	<rect x="578.7" y="308.8" class="st31" width="124.8" height="20.2"/>
	<rect x="620.2" y="294.1" class="st31" width="8.8" height="29.6"/>
	<rect x="598.8" y="293.9" class="st31" width="13.1" height="18.6"/>
	<rect x="578.7" y="293.9" class="st31" width="12.6" height="27.9"/>
	<path class="st31" d="M700.2,319c0-25.1,12.7-44.7,28.8-44.7c16.2,0,28.8,19.6,28.8,44.7s-12.7,44.7-28.8,44.7
		C712.9,363.6,700.2,344,700.2,319z M746,319c0-19.3-8.9-32.8-16.9-32.8c-8,0-16.9,13.5-16.9,32.8c0,19.3,8.9,32.8,16.9,32.8
		C737,351.7,746,338.3,746,319z"/>
	<text transform="matrix(1 0 0 1 580.8105 323.2676)" class="st29 st30">public key</text>
	<text transform="matrix(1 0 0 1 81.3657 50.9541)" class="st32 st33">ssh client</text>
	<text transform="matrix(1 0 0 1 -2.9639 2.0225)" class="st32 st34">ssh login mit public key</text>
	<text transform="matrix(1 0 0 1 584.9863 19.5996)" class="st32 st33">ssh server</text>
	<g>
		<text transform="matrix(1 0 0 1 6.9951 363.6406)" class="st29 st35">in the folder ~/.ssh/</text>
		<text transform="matrix(1 0 0 1 6.9951 380.4404)" class="st29 st35">theres a private key stored in</text>
		<text transform="matrix(1 0 0 1 6.9951 397.2402)" class="st36 st35">id_rsa</text>
	</g>
	<g>
		<text transform="matrix(1 0 0 1 545.4209 384.3115)" class="st29 st35">in the folder ~/.ssh/</text>
		<text transform="matrix(1 0 0 1 545.4209 401.1113)" class="st29 st35">in the file</text>
		<text transform="matrix(1 0 0 1 546.0908 417.9111)" class="st36 st35">authorized_keys</text>
		<text transform="matrix(1 0 0 1 545.4209 434.7119)" class="st29 st35">theres the corresponding </text>
		<text transform="matrix(1 0 0 1 545.4209 451.5117)" class="st29 st35">public key (plus other public keys)</text>
	</g>
</g>
</svg>
