<?xml version="1.0" encoding="utf-8"?>
<!-- Generator: Adobe Illustrator 24.1.0, SVG Export Plug-In . SVG Version: 6.00 Build 0)  -->
<svg version="1.1" id="Ebene_1" xmlns="http://www.w3.org/2000/svg" xmlns:xlink="http://www.w3.org/1999/xlink" x="0px" y="0px"
	 viewBox="0 0 490 820" style="enable-background:new 0 0 490 820;" xml:space="preserve">
<style type="text/css">
	.st0{fill:#995DB5;}
	.st1{opacity:0.2;enable-background:new    ;}
	.st2{opacity:0.2;}
	.st3{opacity:0.15;enable-background:new    ;}
	.st4{fill:#F7941F;}
	.st5{opacity:0.25;fill:#FFFFFF;enable-background:new    ;}
	.st6{fill:#1E1E1E;}
	.st7{fill:#7F3F98;}
	.st8{opacity:0.15;fill:#1E1E1E;enable-background:new    ;}
</style>
<g id="ffb4ddac-0772-419b-9e63-175d7a52bf5a">
	<path class="st0" d="M479.3,773.1c4.5-7.6,5.6-17.8-2-18.9c1.1-2.3,2-4.7,2.4-7.2c0.7-3.8,0.3-9-3.8-10.5c0.2-0.6,0.4-1.2,0.6-1.8
		c1-3.7,1.6-13.3-4.9-12.8c-30.1,2.1-60.2,4.2-90.4,5c-5.3,0.1-10.7,0.2-16,0.3c-21-1.3-42-2.7-62.8-2.2c-2.6,0.1-5.2,0.2-7.8,0.2
		l-1.8-0.1c-29.4-1.7-58.8-3.9-88.2-4c-23.7,0-47.5,1.2-71.1,3.7l-2.8-0.2c-31.7-2.2-63.4-3.7-95.1-1h-0.1l-2.6,0.2
		c-0.5,0.1-1.1,0.2-1.6,0.3c-3.9-0.5-7.8-1.1-11.6-1.7c-10.4-1.8-21.5,20.6-13.3,26.3c-5.6,7.2-8.2,18.6,0.7,21.2
		c0.8,0.2,1.7,0.5,2.5,0.7l-0.1,0.1c-5.6,6.8-9.6,20.2,0.6,24.9c6.6,3,15.5,3.2,22.7,4.2c14.7,1.9,29.4,3.1,44.2,3.5
		c41.8,1.3,83.5-2.4,125.2-5.8c0.6,0.2,1.2,0.4,1.8,0.4c70,3.9,140.4,7.5,210.2-2c17.4,1.1,34.8,2.4,52.2,3.8
		c6.3,0.5,11.5-6.1,13.8-11C482.2,784.3,484.3,776.2,479.3,773.1z M466.1,739.3H466c0.5-0.5,1-0.9,1.7-1.2
		C467.1,738.5,466.6,738.9,466.1,739.3L466.1,739.3z"/>
	<path class="st1" d="M471.2,725.2c-35.6-3.2-71.3-3.2-107-3.5s-71.1-0.9-106.7-0.6c-35.7,0.3-71.4,1.2-107.2,1.1
		c-35.3,0-70.5,0.5-105.8,1.3l-15.8,0.4c-4.2,0.1-9.2-0.5-13.3,0.4c-8.1,1.7-6.7,11.9-6.7,18c-0.1,9.7-0.2,19.4-0.3,29.1
		c-0.1,8.6,0.2,17.4,3.9,25.3c2.3,5,9-2.7,7.3-6.3c-4.4-9.4-3.6-19.8-3.5-30c0-5.2,0.1-10.4,0.2-15.6l0.1-8.8c0-0.9,0-1.8,0-2.7
		c1.1,0,2.2,0.1,2.9,0.1l5.9-0.1l9.9-0.2l23.7-0.5c14.5-0.3,29-0.7,43.5-0.8c29.3-0.3,58.6,0.1,87.9-0.2c29.6-0.3,59.1-1.1,88.7-1.1
		c29.9,0,59.8,0.6,89.7,0.8c33,0.3,66.1,0.5,99.1,3.4C471.6,735.1,475.8,725.6,471.2,725.2z M16.3,729.9
		C16.3,729.1,16.3,729.1,16.3,729.9L16.3,729.9z"/>
	<path class="st0" d="M477.8,636.8c-0.5-0.4-0.9-1-1.3-1.5c2.3-3.9,4.5-9.5,2.9-13.7c-0.9-2.4-0.7-4.4-0.6-7c0.1-2.1,0-4.2-0.2-6.3
		c0-0.2,0-0.4,0-0.6l0,0c-0.1-1-0.2-2-0.4-3c-0.1-0.8-0.4-1.6-0.8-2.3c1-2.3,1.4-4.8,1.4-7.3c-0.1-3.2-1.7-7.7-5.6-7.7
		c-117.6-0.6-235.1-4.8-352.7-4c-33.7,0.2-67.3,1-100.9,2.2c-7,0.3-12.3,6.6-14.7,12.8c-1.2,3.2-2.3,11.5,1.5,13.9
		c-0.9,2.2-1.4,4.6-1.4,7c0,4.6,0,9.2-0.1,13.8L4.8,640c0,1,0,2,0,3c0-1.2-0.1-1-0.3,0.6c-0.9,4.2-0.7,9.6,2.2,13
		c2.6,3.1,6.7,3.8,10.5,4.1c12.9,1.2,25.8,1.3,38.7,0.6c0.6,2.2,2.6,3.7,4.8,3.7c54.7,2.7,109.4-2,164.1-3.6
		c26.6-0.8,53.3-0.8,79.9,1.3c13.7,1,27.2,3,41,2.9s27.5-1.2,41.3-1.4c13.5-0.1,26.8-0.5,40.2-1.4c12.6-0.8,25.2-1.1,37.8,0.7
		c6.1,0.9,11.6-6.4,13.8-11C481.4,647.4,482.5,640.9,477.8,636.8z"/>
	<path class="st0" d="M481.5,497.4c0.3,0.4-1.2-1.9-1.6-2.6c0,0,0-0.1,0-0.1c1.4-3.2,2-8.7,0-12c1.1-2.5,1.7-5.3,1.7-8.1
		c-0.1-3-1.4-5.8-3.7-7c2.3-4.7,3.3-10,1.9-14.8c-1.9-6.2-7.9-8.7-13.9-9c-15.4-0.9-31.2,0.3-46.6,0.5
		c-62.7,0.5-125.4,0.6-188.1,0.1c-69.9-0.4-139.8-1.1-209.8-1.8c-7-0.1-12.4,6.8-14.7,12.8c-1.3,3.5-2.4,11.9,2,14.1
		c-0.9,1.6-1.7,3.3-2.3,5.1c-2.4,7-1.2,13.6,3.6,18.6c-5.3,4.7-8.9,12.5-6.6,18.5c4.6,12.5,20.8,14.4,32.5,14.4
		c15.7,0,31.3-0.6,47-1c30.9-0.6,61.8-1.4,92.6-1.8s61.8-0.3,92.7,0.8c31.5,1.1,62.9,2.2,94.4,0.5c34.8-1.9,69.6-5.4,104.5-2.3
		C476.9,523.3,487.5,505.5,481.5,497.4z M479.9,494.8C479.9,494.7,479.9,494.6,479.9,494.8L479.9,494.8z"/>
	<path class="st0" d="M481.1,364c-4.3-11.1-5.4-22.2-2.5-33.8c0.7-2.8,0.5-6.8-1.6-9.1c0.6-4.4,0-10.3-5.3-10.4
		c-39.5-0.7-79,0.4-118.5,2c-19.5-2-39.1-4.3-58.7-4.9c-29.2-0.9-58.3,0.9-87.5,2.4c-29.5,1.5-58.9,1.7-88.4,1L20.4,309
		c-7-0.2-12.4,6.9-14.7,12.8c-1.2,3.1-2.1,9.6,0.4,12.8c-0.2,0.7-0.4,1.5-0.6,2.2c-0.9,4.6,0.1,9.4,0.7,14s1.1,9.3,1.7,14
		c0,0.1-0.1,0.2-0.1,0.3c-2.1,7.8-2.1,15.9,0,23.7c1,3.8,4.2,5.2,7.9,4.5c28.7-5.2,58-4.6,87-4.6l90.9,0l89.9,0.1
		c14.5,0,29-0.1,43.5,0.2c15.1,0.3,30,1.8,45,2.3c16,0.6,32.1,0.1,48.1,0.3s32.4-0.4,47.9-5.2C475.8,384,484.3,372.3,481.1,364z
		 M14.7,346.2l-0.3,0.1l-0.6-0.2L14.7,346.2z"/>
	<path class="st1" d="M478.1,446.8c-8.3-3.6-17.6-4.3-26.4-2c-1.6,0.4-3,2.3-3.8,4.3c-7.4-0.5-14.8-1.5-22-1.8
		c-17.4-0.8-34.9-0.7-52.4-0.7l-107.2-0.5L51,445.2c-9.9,0-20-0.5-29.9-0.1c-8.2,0.3-10,7.4-10.6,14.3c-1.8,20-1.5,40.1,0.9,60.1
		c0.8,6.2,8.1-0.2,7.6-4.2c-2.1-16.9-2.6-34-1.6-51.1c0.1-1,0.9-6.4,1.1-9.5l0,0c0.9,0.5,2.9,0,4,0h7l25.9,0.1l102.7,0.5l206.9,0.9
		c18.8,0.1,37.6-0.1,56.3,0.7c17.5,0.8,36.3,5,53.3-0.9C476.9,455.3,482.2,448.5,478.1,446.8z"/>
	<g class="st2">
		<path d="M17,378.1c-1.6-16.3-2.3-32.6-2-48.9c0.1-2.3-0.6-6.9,1.1-8c2.4-1.6,9.1-0.3,11.9-0.3c8.3,0.1,16.6,0.2,24.9,0.3
			c33.8,0.5,67.6,1.2,101.4,1.7c67.1,1.1,134.2,1.5,201.3,1.3c38.2-0.1,76.4-0.4,114.6-0.9c4.1,0,8.1-9.7,3.6-9.6
			c-71.1,1-142.2,1.2-213.2,0.8c-71.3-0.4-142.7-2-214-3c-8.8-0.1-18.5-1.3-27.2,0c-7,1-10.8,7.3-11.6,13.8
			c-1.1,8.9-0.6,18.4-0.3,27.4c0.3,9.9,0.9,19.8,1.9,29.7C10.1,388.5,17.4,382.1,17,378.1L17,378.1z"/>
	</g>
	<path class="st0" d="M476.1,180.2c-24.5-3.4-49.9-1.6-74.5-1.4l-61.8,0.3c-4.9-0.1-9.9,0-14.8,0.1c-2.7,0.1-5.3,1.1-7.5,2.8
		c-2.7-0.2-5.5-0.4-8.2-0.6c-23.1-1.6-46.2-2.9-69.3-3.4c-46.8-1.1-93.5-0.2-140.3,0.4c-26.5,0.4-53.1,0.6-79.6,0.3
		c-7-0.1-12.4,6.8-14.7,12.8c-1,2.6-1.8,7.6-0.5,11c-2.2,3.4-4,7.7-3.6,11.5c0.7,7.4,1.8,14.9,3.3,22.2c-0.5,1.3-0.9,2.7-1.1,4.1
		c-1.1,6.1,0,13.2,6.2,15.9c2.7,3.7,8.6,2,12-0.8c0.9,0.6,1.8,1.2,2.8,1.6c5.5,2.4,11.2,1.9,17,1.1c4-0.5,8.1-1,12.2-1.5
		c0.9,1.6,2.6,2.7,4.4,2.7c15.7,0.7,31.4,0.4,47-0.9c3.4,0.9,7.9-0.5,11-1.1c3.8-0.7,7.5-1.4,11.3-2l10.9-0.1
		c26.4-0.3,52.8,0.1,79.2,0.6c52.7,1.1,105.4,3.1,158.1,3.5c29.8,0.2,59.5-0.2,89.3-1.5c7.1-0.3,12.3-6.6,14.7-12.8
		c1.7-4.5,2.3-11.4-2.3-13.9c0-0.9,0-1.9,0-2.8c0-0.6-0.1-1.2-0.1-1.8c2.9-4.7,4.1-10.2,3.6-15.6c-0.5-3.4-1.8-5.8-3.8-6.9
		c2.9-4.9,4.6-10.3,5.1-16C482,184.3,479.7,180.7,476.1,180.2z"/>
	<g class="st2">
		<path d="M14.6,244.2c-2-14.5-1.6-29.1-1.3-43.7c0.1-2.6-0.9-8,1.8-9.4c2.2-1.1,7.3-0.3,9.6-0.3l21.8-0.1l85.3-0.3
			c29.3-0.1,58.5-0.2,87.8-0.3c58.8-0.2,117.5-0.2,176.3-0.2c24.2,0.1,48.4-0.1,72.6,0.7c4.1,0.1,8.2-9.5,3.6-9.6
			c-55-1.8-110.1-0.8-165-0.7c-59.8,0.1-119.7,0.3-179.5,0.6l-99.2,0.4c-5.9,0-12.7-0.8-17.4,3.4c-5.2,4.7-5.1,11.6-5.2,18.1
			c-0.3,16-0.7,31.9,1.5,47.7c0.3,2.5,3.4,1.6,4.7,0.5C14,249.4,15,246.8,14.6,244.2L14.6,244.2z"/>
	</g>
	<path class="st0" d="M481.3,108.1c-0.6-5.9-2.3-11.6-5-16.8c3.1-11.4,4.1-23.3,3-35.1c-0.5-4.7-2.9-8.7-8.3-7.5
		c-6.2,1.4-12.4,2.6-18.7,3.3c-0.7-0.4-1.5-0.6-2.4-0.6c-110.2-4.1-220.4-5.2-330.7-3.5c-31.2,0.5-62.4,1.2-93.6,2.2
		c-1.4,0.1-2.8,0.3-4.1,0.9c-2-1.2-4.6-1.2-7.5,0.3C8.1,54.5,2.9,62.9,3.4,69.7C4.2,80.8,5,91.8,5.9,102.9c-0.5,1.7-0.8,3.5-0.7,5.3
		c0.2,4.8,0.4,9.5,0.5,14.2c0.1,3.1,1.7,7.8,5.6,7.7c59.6-1.4,119.4-4.4,179.1-2.3c14.5,0.5,28.9,1.1,43.3,1
		c15-0.1,30.1-0.4,45.1,0.3c28.9,1.3,57.6,2.9,86.5,2.9c33.4,0,66.7-1.4,99.9-4.3C473.9,127.1,482.5,117,481.3,108.1z M446.8,85.9
		L446.8,85.9C446.8,85.9,446.8,85.9,446.8,85.9z M179.1,99.8c2.9,0.1,5.7,0.3,8.6,0.4c-2.9-0.1-5.8-0.1-8.6-0.1
		C179,99.9,179.1,99.8,179.1,99.8z"/>
	<path class="st1" d="M472,52.6c-35.9,0.4-71.7,0.7-107.6,0.2c-17.9-0.3-35.9-0.8-53.8-1.6c-17.4-0.8-34.8-2.3-52.2-2.7
		s-35,0.9-52.5,1s-35,2.4-52.6,2.6s-35.4-1.2-53.1-1.4c-17.4-0.2-34.8-0.2-52.2,0.2c-10.2,0.2-20.4,0.4-30.5,1
		c-7.8,0.4-11,5.2-11.7,12.7c-1.7,19.7-1.5,39.6,0.6,59.3c0.7,6.2,8-0.2,7.6-4.2c-1.8-16.5-2.2-33.1-1.3-49.6c0.1-2,0.2-3.9,0.4-5.8
		c0-0.8,0-1.7,0.1-2.5l0.7-0.3c1.6-0.6,4.2-0.2,5.9-0.2c2.6-0.1,5.2-0.2,7.9-0.3c8.2-0.3,16.4-0.5,24.6-0.6
		c16.7-0.3,33.5-0.3,50.2,0c16.7,0.3,33.4,1.7,50.1,1.3s33.1-2.4,49.7-2.5s33-1.2,49.5-1.1c17.1,0.2,34.1,1.7,51.2,2.5
		s33.8,1.3,50.8,1.7c38.2,0.7,76.4,0.4,114.6,0C472.5,62.2,476.5,52.5,472,52.6z"/>
	<path class="st3" d="M115.5,90.2c-0.4-6.8-2.6-13.6-1.8-20.4c1-7.8-7.8-3-8.4,2.1c-0.9,7.6,1,14.5,1.5,22.1c0.2,3.8,0.2,7.6,0,11.3
		c-0.1,1.6-0.2,3.2-0.3,4.7c-0.1,0.8-0.1,1.5-0.2,2.2c-2.7,0-6.1-0.8-8.1-1c-3.5-0.3-7.1-0.7-10.6-1c-7.4-0.6-14.8-1-22.3-1.1
		c-14.9-0.4-29.7,0-44.6,1.2c-2.8,0.2-4.9,2.6-5.9,5.1c-0.5,1.4-1.1,6.1,1.7,5.8c25.8-1.9,51.7-1.6,77.5,0.9
		c4.6,0.5,11.2,2.1,15.4-0.6c4.5-2.9,5-8.1,5.4-12.9C115.5,102.7,115.7,96.5,115.5,90.2z"/>
	<path class="st3" d="M197.1,71.4c-0.5-7.1-9,0.2-8.6,4.8c0.6,7.8,0.9,15.6,1,23.4c0.1,3.7-0.1,7.2-0.3,10.9l-0.6,0.1
		c-1.9-0.3-4.8,0.6-6.7,0.8c-15,1.5-30.1,1.3-45-0.8c-0.7-0.5-1.5-0.7-2.4-0.5l-1.7,0.2c-3.6,0.5-8.3,10.1-3.1,10.9
		c10.2,1.5,20.5,2.3,30.8,2.2c9.1-0.1,19.6,0,28.5-2.4c7.9-2.1,8.9-12,9.1-18.8C198.4,91.9,198,81.6,197.1,71.4z"/>
	<path class="st3" d="M322,82.8c-0.2-4.3,0.9-12.5-2.8-15.4c-0.8-0.6-2.4-0.2-3.1,0.2l-0.3,0.2c-2.6,1.6-4.2,4.3-4.2,7.3
		c0,1.1,0.5,2.2,1.5,2.8c-0.1,1.9-0.1,3.8,0.1,5.8c0.2,3,0.3,5.9,0.3,8.8c0,5.1,0.5,10.9-0.6,15.9c-0.1,0.3-0.1,0.7-0.1,1
		c-0.2,0-0.3,0.1-0.4,0.2c-1,0.6-3.1,0.5-4.2,0.6c-2.6,0.2-5.1,0.3-7.7,0.5c-5.5,0.2-11,0.2-16.5,0c-21.2-0.9-42.2-0.9-63.4-0.8
		c-4.7,0-9.2,11-4.1,11c13.6-0.1,27.3-0.4,41-0.2c14,0.2,27.8,1.6,41.8,0.9c5-0.3,10.9,0,15.2-2.8c4.9-3.2,6.6-8.7,7-14.2
		C322.1,97.3,322.3,90.1,322,82.8z"/>
	<path class="st4" d="M207.4,68.3c0.4-2,1.3-4.7,6.1-5.8c1.2-0.2,90-2.7,99.6,2.2c2.9,1.5,2.9,5.6,2.7,7.9c-0.1,1.5,0.2,33-0.2,36
		c-0.1,1.4-0.6,4.8-2.7,5.9c-2.8,1.5-91.5,1.6-99.4,0.8c-2.9-0.3-5.6-5.7-5.9-8.2S207,70.3,207.4,68.3z"/>
	<path class="st4" d="M124.8,112.7c0.2,1,3,2.6,5.3,3.1c0.6,0.1,53.7,1.9,57.6-0.4s4.1-8,4-8.8l-0.6-38.8c0,0,0.6-4-4.5-4.9
		c-5.4-0.9-51.4-0.4-55.1-0.7c-6.8-0.5-6.6,3.9-6.7,5.2S124.6,111.7,124.8,112.7z"/>
	<path class="st4" d="M108.3,67.2c-0.2-1-1.5-3.8-4.1-4.4c-0.7-0.1-16.9-1.1-21.6-1c0,0-66,0.3-67.6,0.6c-1.2,0.3-4.8,1.2-4.7,7.1
		l-0.7,38.2c0.2,1.6,1.4,7.9,5.2,7.9c4.6,0,87.8,0.9,89.1,0.6c2.2-0.5,3.8-2.3,4-4.5C108,110.4,108.5,68.2,108.3,67.2z"/>
	<path class="st5" d="M106.2,63.7c-12.5-1.7-25.1-2.1-37.7-2.3c-12.3-0.2-24.5,1.1-36.8,1.3c-2.7,0-5.5,0.1-8.2,0.1
		c-2,0-4.6-0.6-6.6-0.3c-3.3,0.6-5.1,4.1-5.3,7.1c-0.4,4.7,0.4,9.7,0.7,14.6c-2.5,8.4-2.7,17.3-0.7,25.8c1,4.2,6.1-1.4,6.3-3.5
		c0.7-6.8,1.1-13.5,1.1-20.3c0-1.5,0-3.1,0-4.6c1.2-3.3,2.8-6.5,4.9-9.3c0.3-0.4,0.5-0.9,0.6-1.4c3.1,0,6.3-0.1,9.4-0.1
		c7.5-0.2,15-1.1,22.6-1.3C72,69.2,87.6,70,103.1,72C106.6,72.4,110.2,64.3,106.2,63.7z"/>
	<path class="st5" d="M190.1,65.2c-4-1.6-9.7-1.1-14-1.3c-5.2-0.3-10.5-0.6-15.8-0.8c-5.3-0.3-10.5-0.3-15.8,0.1
		c-2.1,0.2-4.1,0.6-6.2,0.8c-2.4,0.3-5.1-0.3-7.4,0.1c-2.7,0.5-4.3,2.8-4.9,5.3c-1.2,4.8-0.7,10.5-1,15.4
		c-0.5,9.9-0.9,19.2,1.8,28.8c1.1,3.8,5.3-0.7,6-2.4c2.1-5.7,0.8-12.1,0.9-18.1c0.1-7.1,1.1-14.2,3-21c1.2-0.2,2.5-0.4,3.7-0.5
		c4.9-0.5,9.9-0.6,14.8-0.3c4.9,0.2,9.9,0.4,14.8,0.6c2.6,0.2,5.2,0.3,7.9,0.5c1.9,0.1,4.8-0.2,6.9,0.3c0.2,0.8,0.9,1.1,2.1,0.7
		l0.2-0.1c2.4-1,3.9-3.3,4-5.8v-0.3C191.1,66.7,190.8,65.5,190.1,65.2z M184.7,71v0.2v-0.1V71z"/>
	<path class="st6" d="M192.6,100.6c-0.1-8.8-0.2-17.6-0.3-26.4c0-0.9,0-1.7,0-2.6c-0.1-1.7,0.4-5.2-0.3-6.6
		c-1.6-3.3-8.5-3.3-11.6-3.5c-9.1-0.7-18.4-0.7-27.6-0.5c-5.1,0.1-10.2,0.3-15.4,0.4c-4,0-8.9-0.9-12,2.2c-1.8,1.8-1.9,3.9-1.9,6.2
		c0,4.6,0.1,9.2,0.2,13.8c0.1,9.2,0.4,18.3,0.3,27.5c0,0.1,0,0.2,0,0.3c0.7,6.9,9.8,5.7,14.8,5.8c9,0.2,18.1,0.3,27.1,0.4
		c2.3,0,4.6,0,7,0.1c4.6,0.1,10.8,1,15.1-0.8C193.5,114.4,192.7,105.5,192.6,100.6z M190.6,106.6c-0.1,2-0.7,5.5-2.1,7
		c-1.7,2-5.4,1.6-7.8,1.7c-4,0.1-7.9,0-11.9-0.1l-20.2-0.2l-13.4-0.1c-3.3,0-9,0.7-9.8-4l0,0c0.2-13.9-0.2-27.9,0.3-41.8
		c0.1-3.8,2.1-5.7,6.4-5.8c4.2-0.1,8.4,0,12.6-0.1c7.7-0.2,15.4-0.4,23.1-0.1c4.2,0.2,8.5,0.1,12.7,0.4c2.1,0.2,6.7,0.2,8.4,1.6
		c1.4,1,1.1,4.3,1.2,6.2c0.4,6,0.2,12,0.2,18C190.4,95.2,191,101,190.6,106.6L190.6,106.6z"/>
	<path class="st6" d="M109.2,100.9c0-6.9,0-13.9,0-20.8c0-4.1,0.4-8.5-0.2-12.7c0-0.1,0-0.1,0-0.2c-0.7-5.7-4.2-5.4-9.2-5.7
		C94,61.1,88,60.8,82.1,60.8c-10.2,0-20.5,0-30.7,0c-9.3,0-18.7,0-28,0.2c-4,0.1-12.3-0.9-13.9,3.9c-0.9,2.7-0.4,7-0.4,9.9
		c-0.2,10.7-1,21.5-0.6,32.1c0.1,4.1,1,8.9,5.5,9.7s9.6,0.2,14.2,0.3c21.4,0.2,42.8,1,64.2,0.5c3.8-0.1,14.5,1.5,16.4-3.3
		C110.1,110.6,109.2,104.7,109.2,100.9z M107.6,77.3c-0.1,5.7-0.1,11.3-0.2,17c-0.1,4.1,0,8.3-0.2,12.4c0.1,1.8-0.1,3.5-0.4,5.2
		c-1.1,3.7-4.8,2.9-7.9,3c-19.6,0.7-39.3,0-59-0.2l-14-0.1h-3.6c-4,0-9.1,1.2-10.8-3.2c-1.2-3.2-0.8-6.7-0.8-10
		c0.1-5.2,0.2-10.5,0.3-15.7c0.1-4.7,0.2-9.4,0.2-14.2v-2.2c0-2-0.2-3.2,1.4-4.6c1.4-1.2,3.1-1.2,4.9-1.3c8.5-0.5,17-0.4,25.5-0.4
		h34.9c3.6,0,7.1,0,10.6,0.1c3.8,0.1,7.6,0.2,11.3,0.4c3.3,0.2,7,0,7.7,4c0,0,0,0.1,0,0.1C108.1,70.7,107.6,74.1,107.6,77.3z"/>
	<path class="st5" d="M312.7,65.5c-21.2-4.6-43.4-3.8-65-2l-4.9,0.4c-0.3-0.5-0.9-0.8-1.4-0.8c-5.6-0.8-13.2-1.5-19.5,0.2
		c-4.9-0.2-9.3,0.6-11.7,5.5c-1,2-1.3,4.6-0.4,6.4c-1.5,5.5-2.2,11.3-2.2,17c-0.1,6.3-0.6,14.5,3.9,19.6c2.4,2.7,5.6-2.2,5.9-4.2
		c1.6-8.7-2.3-17.9-1.8-26.8c0-0.8,0.1-2.2,0.2-3.7c1.6-0.3,3.1-1,4.6-1.4c3.2-0.9,6.4-1.6,9.7-2.2c13-2.3,26.3-2.8,39.5-3
		c13.4-0.3,26.8,0.4,40,3.3C312.9,74.5,316.7,66.4,312.7,65.5z"/>
	<path class="st6" d="M316.2,67.8c-1.8-5.2-6.5-5.1-11.3-5.7c-12-1.4-24.5-0.9-36.6-0.9c-13.9,0-27.7-0.3-41.6,0.1
		c-5.1,0.2-11.4-0.4-16.2,1c-5.4,1.5-3.5,7.4-3.9,11.5c0,0,0,0.1,0,0.1c-1.2,8-0.2,16.9,0,25c0.1,4.7-1,12.2,3.2,15.8
		c3.3,2.8,9.8,1.6,13.9,1.9c19.1,1.1,38.4,0.1,57.5-0.1c9.5-0.1,19.6,0.8,28.9-0.4c5.6-0.7,6.6-2.8,6.6-7.9c0-9.9,0.1-19.8,0.1-29.7
		C316.8,75.1,317.4,71,316.2,67.8z M311.5,113.5c-3.2,1.2-7.9,0.4-11.2,0.4c-4.7,0-9.5,0.1-14.2,0.2c-17.8,0.2-35.6,0.6-53.4,0.5
		c-3.7,0-7.4-0.2-11.1-0.3c-4.5-0.2-9.5,1-11.9-3.8c-1.6-3.3-1-7.7-1.1-11.3c-0.3-8-1.6-17.1-0.4-25c0,0,0-0.1,0.1-0.1
		c0.2-1.6,0-3.2,0.1-4.9c0.3-3.8,2.2-5,5.5-5.2c4.7-0.3,9.4-0.5,14.1-0.7c11.5-0.3,23-0.1,34.5,0c9.2,0,18.4,0.1,27.6,0.3
		c6.5,0.1,13,0.1,19.4,1.3c5.4,1,5.3,6,5.3,10.5c0,9.2,0,18.3,0,27.5C314.6,106.4,315.5,112,311.5,113.5z"/>
	<path class="st3" d="M477.7,486.8c-0.3-6.7-1.1-13.4-2.2-20c-0.4-2.9-3.9-1.8-5.3-0.6c-2.3,1.9-3.4,4.8-3,7.8
		c1.1,7.4,2.1,14.8,1.9,22.3c-0.2,3.1-0.7,6.2-1.2,9.3c-2.9,0-6.2-0.5-8.2-0.5l-11.9-0.1l-24.7-0.2l-23.8-0.2
		c-8-0.1-17.3,1.2-24.9-1.1c-4.3-1.3-9.5,9.4-4.1,11c6.5,2,14.2,1,21,1.1l20.8,0.2l42.5,0.4c5.4,0,12.7,1.5,17.7-1
		c2.2-1.2,3.9-3.1,4.7-5.5c0.8-2.3,0.1-3.5-0.3-5.6c-0.3-1.7,0.5-4.7,0.8-7.1C477.7,493.5,477.8,490.1,477.7,486.8z"/>
	<path class="st3" d="M281,495.2c-0.3-9.9-0.6-19.8-0.8-29.7c0-2.6-2.2-3.6-4.4-2.5c-2.5,1.2-4.3,4.6-4.2,7.4
		c0.1,7.6,0.2,15.3,0.5,22.9c0.1,3.8,0.2,7.5,0.2,11.3l-0.2,0.9c-0.3,0-0.7,0.1-1,0.3c-1.5-0.3-3.9,0.5-5.5,0.7
		c-15.8,1.5-31.7-0.5-47.4-2.4c-4.6-0.6-9.4,10.3-4.1,11c9.9,1.2,19.8,2.4,29.8,2.8c5,0.2,10,0.1,14.9-0.2c4.2-0.3,9.2-0.3,13.1-1.9
		C279.5,512.5,281.1,502.5,281,495.2z"/>
	<path class="st3" d="M116.4,460.7c-0.5-2.9-3.9-1.8-5.3-0.6c-2.3,1.9-3.4,4.8-3,7.8c1.8,10.9,2.5,22,2.2,33c0,1.3-0.1,2.6-0.2,3.9
		c0,0.3-0.1,0.6-0.1,0.9c-0.3,0-0.7,0-1,0c-1.3-0.1-2.6-0.2-4-0.3c-5.6-0.4-11.2-0.7-16.8-1c-21.8-1.1-43.6-1.4-65.5-0.9
		c-4.7,0.1-9.2,11.1-4.1,11c27.1-0.6,54.2,0,81.3,1.8c5,0.3,10.3,1.5,14.2-2.3c3.7-3.5,4.3-8.3,4.6-13.1
		C119.4,487.5,118.7,474,116.4,460.7z"/>
	<path class="st4" d="M366.5,457.2c8.5-3.3,80-0.8,88-0.6c3.5,0.1,13.3,1.2,14.4,2.1c2.5,2.2,2.9,5.6,2.7,7.9
		c-0.1,1.5,1.2,33,0.8,36c-0.2,1.4-1.1,4.3-3.1,5.4c-3.7,2.1-99,1.6-101,0.7s-4.5-5.1-4.8-7.6S361.9,459,366.5,457.2z"/>
	<path class="st4" d="M207.7,506.1c0.2,1,3.1,3.1,5.3,3.6c0.6,0.1,56.5,0.9,59.3-0.4c3.3-1.6,3.3-8,3.3-8.8c0,0-1.7-38.3-1.9-39.9
		c-0.1-0.7-1.1-3.1-2.1-3.7c-1.8-1.1-53.5-0.5-57.2-0.8c-6.8-0.5-6.6,3.9-6.7,5.2S207.5,505.1,207.7,506.1z"/>
	<path class="st4" d="M112.3,460.1c-0.8-2-2.5-3.4-4.6-3.9c-0.7-0.1-87.6-0.2-89.2,0.1c-1.6,0.6-3,1.4-4.3,2.5
		c-1.4,1.1-1.1,42.8-1.1,42.8c0.2,1.6,2.5,7.2,3.6,7.8c2.1,1.1,92,0.7,93.1,0c1.6-1.1,1.8-6.3,2-7.5
		C111.7,501.8,112.6,461.2,112.3,460.1z"/>
	<path class="st5" d="M107.9,458.5l-1-0.8c-0.8-0.7-1.9-0.4-2.8,0.4c-20.4-1.6-40.9-1.4-61.3-1.6c-5,0-9.9,0-14.9,0.2
		c-2.2,0.1-4.6,0-6.7,0.7c-0.1-0.3-0.3-0.6-0.4-1c-1.6-3.3-5.7,2.8-5.9,4.2c-1.6,8.7-1.6,17.7,0,26.4c0,0.3,0.2,0.6,0.4,0.9
		c-0.4,6-0.1,12.1,1,18c0.4,2.2,2.9,1.3,4,0.5c1.7-1.4,2.6-3.6,2.2-5.8c-1.6-8.6-0.7-16.5,0.4-25.1c0.5-3.4,0.6-6.8,0.3-10.3
		c1.5,0,2.9-0.2,4.4-0.4c8.1-0.3,16.3-0.1,24.4,0c17.4,0.2,34.8,0.1,52.1,1.6C107.3,466.8,110.6,460.7,107.9,458.5z"/>
	<path class="st5" d="M265.2,456.4c-6.1-0.4-12.3-0.7-18.4-0.6c-9,0.1-18,0.6-27,1.7c-1.7-0.2-3.4,0.1-4.9,0.6l-3.8,0.5
		c-2.6,0.4-4.6,4.4-3.9,6.7c1.7,5.9-0.4,11.8,2.5,17.6c0.1,0.1,0.1,0.2,0.2,0.4c-0.7,7.5-2.8,16.6,0.4,23.1c0.4,0.8,1.4,0.7,2,0.6
		l0.4,0c1.6-0.2,3.2-2.4,3.6-3.8c0-0.1,0.1-0.2,0.1-0.4c0.7-2.2,0.1-3.5-0.8-3.9c-0.7-2.2-0.2-5.6-0.1-7.8c0.1-3.4,0.5-6.8,0.8-10.2
		c0.2-3,0.2-6.1,0.1-9.1c-0.3-2-0.4-4-0.3-6c11.1,0.1,22.1,0.8,33.2,1.8c6.3,0.6,22.3,2.7,23-7.2
		C272.6,456.2,268.4,456.6,265.2,456.4z"/>
	<path class="st5" d="M469,459.9l-2.5-1.2c-1-0.4-2.1-0.2-2.9,0.5c-25.7-2.7-51.6-3.9-77.5-3.5c-5,0.1-11.7-0.7-16.4,1.3
		c-4.2,1.8-5.2,6.3-5.6,10.4c-1.1,12.7-1.6,25.7,1.8,38.1c1.2,4.4,7.1-2.1,6.2-5.4c-2.9-10.4-2.7-21.1-2-31.8c0.2-3.6-0.8-3.8,3-4.1
		c2.9-0.2,5.8-0.2,8.8-0.3c5.6-0.1,11.1-0.1,16.7-0.1c22.2,0.2,44.4,1.6,66.5,4.1C468.1,468.3,472.2,461.5,469,459.9z"/>
	<path class="st6" d="M276.5,495.3c-0.3-8.9-0.7-17.7-1-26.6c-0.1-3,0.4-7.3-0.7-9.9c-1.5-3.5-8-3.3-11.2-3.5
		c-9.2-0.5-18.5-0.7-27.7-0.5c-5.1,0.1-10.2,0.3-15.4,0.4c-4,0-8.9-1-12,2.2c-1.8,1.8-1.9,3.9-1.9,6.2c0,4.6,0.1,9.2,0.1,13.7
		c0.1,9.1,0.4,18.3,0.4,27.5c0,0.1,0,0.2,0,0.3c0.7,6.9,9.8,5.7,14.7,5.8c9.2,0.2,18.4,0.3,27.6,0.4c7.1,0.1,15.2,1.5,22-0.5
		C277.3,509,276.7,500.3,276.5,495.3z M274.5,501c-0.2,2.6-1.1,6.7-3.8,7.7c-2.1,0.8-5,0.6-7.2,0.6c-3.6,0-7.2-0.1-10.8-0.1
		c-7.2-0.1-14.4-0.1-21.6-0.2l-12.9-0.1c-3.3,0-9,0.7-9.7-4l0,0c0.2-13.8,0-27.7,0.3-41.5c0.1-3.5,1.6-5.8,5.6-6s8.5,0.1,12.7,0
		c7.7-0.2,15.4-0.5,23.1-0.2c4.3,0.2,8.5,0.2,12.8,0.4c2.6,0.1,7.1-0.2,8.9,1.7c1.3,1.3,1,4.4,1.2,6.3c0.5,6.3,0.5,12.6,0.8,18.9
		C274.1,489.9,275,495.6,274.5,501z"/>
	<path class="st6" d="M473.5,493.1c-0.2-9.5,0.1-19.3-0.9-28.7c-0.6-6-3.9-7.2-9.1-8c-7.1-1-14.2-1-21.3-1.1
		c-10.9-0.2-21.9-0.1-32.8-0.2c-14,0-29.2-1.1-43.1,1.4c-0.1,0-0.2,0.1-0.3,0.2c-2,1-2.3,4.2-2.7,6c-0.7,4.9-1.1,9.9-1.1,14.9
		c-0.1,4.5-0.1,9.1,0.1,13.6c0.1,4.5-0.6,9.5,1.1,13.8c2.4,6.1,7.7,5,13.3,5.3c3.9,0.2,7.8,0.4,11.6,0.4c11.4,0.1,22.8,0,34.1-0.2
		c12.6-0.2,25.2-0.5,37.8-0.4c5.2,0,11.8,0.2,13-6C473.9,500.6,473.5,496.7,473.5,493.1z M471.2,502.8c-1.3,5.8-6.9,5.2-11.7,5.1
		s-9.2,0-13.9,0.1l-16.4,0.2c-16.8,0.2-33.7,1-50.5,0.1c-2.8-0.2-5.8,0.2-8.5-0.3c-6.4-1.2-5.6-8-5.8-13.1c-0.1-2.9-0.3-5.7-0.4-8.6
		c-0.1-5.2-0.2-10.4,0-15.6c0.1-2.2-0.3-11.7,2.5-12.8c9.8-1.2,20.2-0.8,30.1-0.8c10.1,0,20.3,0.1,30.4,0.1
		c10.6,0,21.3-0.3,31.8,0.7c2.5,0.2,6.1,0.2,8.4,1.3c3.1,1.5,3.1,5.1,3.1,8c0.1,3.8,0.2,7.5,0.3,11.3c0.2,5,0.3,10,0.4,15
		C471.4,496.5,471.8,499.9,471.2,502.8L471.2,502.8z"/>
	<path class="st6" d="M113,461.3c0,0,0-0.1,0-0.2c-0.4-5.9-3.7-5.4-8.9-5.7c-6.1-0.4-12.2-0.7-18.3-0.7c-10.1,0-20.2,0-30.4,0
		c-9.1,0-18.2,0-27.3,0.2c-3.8,0.1-12.5-1-14.8,3c-1.4,2.5-0.7,7.5-0.8,10.4c-0.2,10.8-1,21.7-0.6,32.5c0.1,3.7,0.8,8.6,4.9,9.6
		c4.3,1.1,9.6,0.3,14.1,0.4c21.6,0.2,43.3,1,64.9,0.5c3.8-0.1,14.5,1.5,16.4-3.3c1.3-3.4,0.6-9.5,0.6-13.2
		c0.1-6.9,0.2-13.9,0.2-20.8C113.1,469.9,113.5,465.4,113,461.3z M111.5,471.2c-0.1,5.7-0.3,11.4-0.4,17c-0.1,4.1-0.1,8.3-0.3,12.4
		c0.1,1.7-0.1,3.5-0.4,5.2c-1.1,3.8-5.3,2.9-8.5,3c-19.4,0.7-39,0-58.4-0.2l-14.3-0.1h-3.4c-1.7,0-3.5,0.1-5.2,0
		c-3.4-0.1-4.6-0.6-5.7-3.8c-1-3-0.6-6.3-0.6-9.4c0.1-5.5,0.2-11.1,0.3-16.7c0.1-4.5,0.2-8.9,0.2-13.4c0-0.8,0-1.5,0-2.3
		c0.1-2.4,0-4.2,2.6-5.2c1.3-0.4,2.7-0.6,4.1-0.5c8.5-0.4,17-0.4,25.4-0.4h35.1c3.8,0,7.5,0,11.3,0.1c3.5,0.1,7,0.2,10.5,0.4
		s7.3-0.5,7.8,3.8c0,0.1,0,0.1,0.1,0.2l0,0C112.1,464.5,111.6,468.1,111.5,471.2L111.5,471.2z"/>
	<path class="st6" d="M478.6,59.4c-0.2-2.7-0.3-7.9-3.3-9c-1.5-0.5-3.8-0.1-5.3-0.1c-29.4-0.4-58.7-0.3-88.1-0.3
		c-48.7-0.1-97.5-0.2-146.3-0.2c-46,0-91.9-0.1-137.9-0.1c-21.5,0-43,0.1-64.5,0c-5.6,0-11.2,0-16.8,0.3S6.3,50.6,5.2,57.1
		c0,0.1,0,0.1,0,0.2C4.4,66,4.9,75.1,4.8,83.8c-0.1,9.5-0.4,19.1-0.2,28.6c0.1,3.9,0.1,9.5,2.7,12.6c2.8,3.4,10.8,2.5,14.6,2.7
		c3.5,0.2,6.9,0.2,10.4,0.2c28.1,0,56.2,0.1,84.3,0.2c48.9,0.1,97.7,0.2,146.6,0.1c46.2,0,92.4,0,138.6,0.1h44.9
		c7,0,14.2,0.4,21.2-0.2c2.7-0.2,6-0.5,8.2-2.2s2-4,2.1-6.5c0.2-4.9,0.6-9.7,0.6-14.6c0-11.1,0.1-22.1,0.2-33.2
		C479,67.6,478.9,63.5,478.6,59.4z M476.6,104.9c0,4.8-0.4,9.6-0.6,14.3c-0.1,2.8,0.3,4.3-3,5.8c-2.1,1-4.9,0.9-7.1,1
		c-0.8,0-1.6,0.1-2.4,0.1c-2.2,0-4.5,0-6.8,0c-11.5,0-23,0-34.5,0l-124.6,0L151.2,126c-35.1,0-70.2,0-105.2,0.2
		c-5.7,0-11.4,0-17.1,0c-2.7,0-5.5-0.1-8.2-0.2c-3-0.2-7.9,0.3-10.7-1c-4.1-1.9-3.7-9.4-3.8-13.4c-0.1-10.1,0-20.2,0.1-30.2
		c0-7.9-0.5-16,0.2-23.8c0,0,0,0,0-0.1c1.1-5.4,5.2-5.5,9.8-5.7c4.4-0.1,8.8-0.2,13.2-0.2h4.3h7.4l35,0.1
		c41.4,0.1,82.8,0.1,124.2,0.1c48.6,0,97.1,0.1,145.7,0.2c35.9,0.1,71.8,0.2,107.7,0.4c4.7,0,9.4,0,14.1,0.1c1.6,0,5.4-0.7,6.9,0.1
		c1.3,0.7,1.6,6.6,1.7,8.7c0.2,3.8,0.3,7.6,0.3,11.4L476.6,104.9z"/>
	<path class="st3" d="M478.8,212.3c-0.4-3.5-1.9-7.1-1.4-10.7c0.4-2.3-0.5-4.8-3.2-4.3s-4.8,4-5.2,6.5c-0.9,5.3,0.9,9.8,1.3,15.1
		c0.3,6.1,0.1,12.2-0.8,18.2c0,0.3-0.1,1.5-0.3,2.6l-1.2,0.2c-2.5-0.4-6,0.5-8.7,0.5c-6,0-12.1-0.1-18.1-0.2l-35.2-0.4
		c-10.4-0.1-21.1-1.1-31.5,0c-4.5,0.4-8.3,11.4-2,10.8c5.5-0.6,11.2,0,16.6,0l20.6,0.2c13.7,0.2,27.4,0.3,41.1,0.5
		c10,0.1,23.7,1.4,26.4-11.1c1.2-6.2,1.8-12.5,1.8-18.8C479.2,218.4,479.1,215.3,478.8,212.3z M469,241.4c0,0.1-0.1,0.2-0.1,0.2
		L469,241.4z"/>
	<path class="st3" d="M354.4,229c-0.9-5.2-1.4-10.4-1.5-15.7c-0.1-4.2,0.7-10.3-1.5-14c-1.4-2.4-4.9,0.1-5.9,1.4l-0.1,0.2
		c-1.5,2-3.2,5.7-1.3,7.9c0.1,0.9-0.1,2.9,0,3.6c0.1,1.9,0.1,3.8,0.2,5.7c0.1,3.8,0.3,7.5,0.8,11.3c0.2,2,2.2,8.1,1.7,10.5
		c-0.3-0.6-3,0.2-3.7,0.3c-2.2,0.2-4.5,0.2-6.7,0.2c-14.2,0.3-28.3-0.6-42.5-1.3c-4.7-0.2-9.4,10.7-4.1,11c9.1,0.4,18.1,1,27.2,1.2
		c5.4,0.1,10.8,0.2,16.2,0c4.3-0.1,9.7,0.4,13.7-1.6C354.7,245.9,355.8,236.7,354.4,229z"/>
	<path class="st3" d="M270.6,201.3c-1-7.1-9.3,0.2-8.7,4.8c0.8,6,1.7,12.1,2.5,18.1c0.5,3.9,2.3,11.2,1.1,16
		c-2.9,0.5-6.8-0.2-9.2-0.2h-9.9c-7.6,0-15.2,0-22.9-0.1c-14.9-0.1-29.8-0.6-44.7-1.6c-4.6-0.3-9.4,10.6-4.1,11
		c25.8,1.8,51.6,1.7,77.5,1.7c4.6,0,10.7,1.1,14.9-1.2c4.4-2.4,5.9-7.6,6.5-12.2C275.4,225.7,272.2,213,270.6,201.3z"/>
	<path class="st4" d="M363.2,196.6c0.4-2-1.5-4.1,3.3-5.1c1.2-0.2,79.9-1.2,88-1.1c3.5,0.1,13.3,1.2,14.4,2.1
		c2.5,2.2,2.9,5.6,2.7,7.9c-0.1,1.5,1.2,34.5,0.8,37.5c-0.1,1.4-0.8,5.6-3.1,5.9c-6.4,0.9-100.5-0.1-102.6-1s-4-4.9-4.2-7.4
		S362.8,198.6,363.2,196.6z"/>
	<path class="st4" d="M280.6,240.4c0.2,1,3.1,3.1,5.3,3.6c0.6,0.1,55,1.7,58.8-0.4c3-1.8,2.8-8,2.7-8.8c0,0-0.7-38.3-0.9-39.9
		c-0.6-1.4-1.6-2.7-2.8-3.6c-1.8-1.1-51.8-0.5-56.5-0.3c-6.8,0.3-6.6,3.9-6.7,5.2S280.4,239.4,280.6,240.4z"/>
	<path class="st4" d="M264.2,195.5c-0.2-1-1.3-4.7-6.3-4.7c-1.6,0-85-0.5-86.6-0.1c-1.2,0.3-4.8-0.4-4.7,7l-1.2,38.2
		c0.2,1.6,2.3,6.6,3.5,7.2c2.1,1.1,91.6,1.1,92.9,0.8c3-0.8,3.2-2.8,3.5-4C266.1,236,264.4,196.5,264.2,195.5z"/>
	<path class="st5" d="M261.1,193c-5.6-1.3-11.3-1.9-17-1.9c-0.7,0-1.3,0.3-1.8,0.7l-1-0.1c-6.4-0.8-12.9-1.5-19.3-1.9
		c-12.6-1-25.2-1-37.7-0.1c-4.1,0.3-9.5,0-12.9,2.5c-3.6,2.6-3.4,6.8-3.6,10.8c-0.2,6.1-0.4,12.2-0.6,18.3
		c-0.1,5.2,0.4,10.4,0.6,15.6c-0.7,1.4-1,2.9,0,3.8l0.2,0.2c1.4,1.4,3.4,0.4,4.4-1.1c2.9-3.9,1.3-8,1.1-12.6
		c-0.3-6.2,0.1-12.5,0.3-18.8c0.1-3,0.2-6.1,0.3-9.1c0-0.2,0-0.4,0.1-0.7l1.3-0.2c6.6-0.8,13.3-1.2,20-1.1
		c12.6-0.1,25.2,0.6,37.7,2.1c6.4,0.7,12.9,1.6,19.2,2.6c5,0.8,7.6,0.2,9.8-4.6C263.2,195.9,263.1,193.5,261.1,193z"/>
	<path class="st5" d="M343.1,194c-2.5-2.1-6-1.6-9.1-1.7l-11.9-0.3l-24.7-0.6c-5.1-0.1-11.3-1.4-14.5,3.5c-3.4,5.2-1.5,14-1.5,19.8
		c-0.1,1,0.5,1.9,1.5,2.2c0,1.2-0.1,2.3-0.1,3.5c-0.3,6.7-0.7,13.3-1.1,20c-0.1,2.1,1.7,2.6,3.3,1.9c2-0.9,3-3.5,3.2-5.5
		c0.6-8.2,1-16.5,1.3-24.7c0.1-3.3,1-8,0.6-12.2c2,0.2,4.8-0.2,6.2-0.2l8.9,0.2l15.8,0.4l8.9,0.2c2.7,0.1,6.5-0.6,8.7,1.3
		C341.3,204,346,196.5,343.1,194z"/>
	<path class="st5" d="M466.1,193.3c-6.1-1.7-12.5-1.9-18.7-0.8c-0.2,0-0.4,0.1-0.6,0.2l-30.8-0.9l-24.5-0.7
		c-7.1-0.2-14.2-0.4-21.1,1.5c-0.2-0.2-0.4-0.3-0.5-0.5c-2-1.5-4.5,2.3-5.1,3.6c-2.7,6.4-2.2,14.2-2.4,21s-1.3,14.5,1.8,20.6
		c0.2,0.4,0.4,0.6,0.8,0.8c0,0.6,0.1,1.2,0.1,1.8c0.4,5.3,6.7-0.1,6.5-3.6c-0.2-2.6-0.3-5.2-0.4-7.9c1-5.5,1.4-11.1,1.9-16.7
		c0.3-3.3,1.5-8,1.2-12.1c5.3-0.7,10.7-0.4,16.1-0.2l24.5,0.7l48.1,1.4C466.3,201.6,470.2,194.4,466.1,193.3z"/>
	<path class="st6" d="M472.9,207.3c-0.1-3.2,0.2-6.8-0.4-10c-1.1-6.2-5.1-6.6-10.5-7.3c-12.1-1.6-24.6-0.5-36.8-0.6
		c-14.1,0-28.1-0.3-42.2,0.1c-5.2,0.2-11.6-0.4-16.6,1c-5.4,1.5-3.5,7.4-3.9,11.5c0,0,0,0.1,0,0.1c-1.3,8.1-1,16.9-1,25.1
		c0,4.7-0.9,12.3,3.3,15.7c3.4,2.7,9.9,1.6,14,1.8c19.6,1.1,39.3-0.6,58.9,0.1c9.5,0.3,19.7,1.6,29.2,0.4c5.6-0.7,6.8-2.7,6.7-7.9
		C473.5,227.4,473.2,217.4,472.9,207.3z M468.4,242.8c-3,1.3-8.1,0.4-11.2,0.4c-4.6,0-9.2-0.1-13.8-0.4c-18.5-0.8-37,0.1-55.5,0
		c-3.7,0-7.3-0.1-11-0.3c-3.9-0.2-9.5,1-12-2.7c-2.2-3.3-1.5-8.5-1.6-12.3c-0.1-8.1-0.7-17.1,0.6-25.1c0,0,0-0.1,0-0.1
		c0.2-1.6,0-3.2,0.1-4.9c0.3-4,2.5-5,5.9-5.2c4.6-0.3,9.2-0.5,13.9-0.6c11.6-0.3,23.1-0.1,34.7,0c9.6,0,19.1,0.1,28.7-0.1
		c6-0.1,13.7-0.7,19.4,1.4c4.6,1.7,3.9,7,4,11c0.2,9.4,0.6,18.9,0.7,28.3c0,1.5,0,3,0,4.4C471.4,239.4,471.3,241.5,468.4,242.8
		L468.4,242.8z"/>
	<path class="st6" d="M348.5,229.3c-0.1-8.7-0.1-17.4-0.3-26c0-0.8,0-1.6-0.1-2.5c-0.1-1.9,0.5-5.8-0.1-7.5
		c-1.3-3.3-8.3-3.4-11.1-3.6c-9.3-0.7-18.6-0.9-27.8-0.6c-5.2,0.2-10.4,0.6-15.7,0.8c-3.9,0.1-8.6-0.8-11.7,2
		c-1.9,1.7-2.2,3.8-2.2,6.2c0,4.6,0.1,9.2,0.2,13.8c0.1,9,0.4,18.1,0.3,27.2c0,0.1,0,0.2,0,0.3c0.7,6.9,9.8,5.7,14.7,5.8
		c9,0.2,18.1,0.3,27.1,0.4c7.1,0.1,15.2,1.5,22-0.5C349.6,243.3,348.6,234.2,348.5,229.3z M346.5,235.1c-0.1,2.5-0.4,6.5-2.9,7.9
		c-1.8,0.9-4.8,0.6-6.7,0.7c-4,0.1-8.1-0.1-12.1-0.1c-6.7,0-13.5-0.1-20.2-0.2l-13.4-0.1c-3.3,0-9,0.7-9.8-4l0,0
		c0.1-13.7-0.2-27.5,0.3-41.3c0.1-3.8,2.2-5.6,6.4-5.8s8.4-0.1,12.5-0.3c7.9-0.4,15.7-0.6,23.6-0.4c4.2,0.2,8.5,0.1,12.7,0.5
		c1.8,0.2,7,0.3,8.3,1.8c0.8,0.9,0.5,4.4,0.6,5.9c0.5,6,0.3,12.1,0.4,18.2C346.3,223.5,346.7,229.4,346.5,235.1L346.5,235.1z"/>
	<path class="st6" d="M266.4,230.5c-0.4-11,0.2-22.6-1.5-33.5c0-0.1,0-0.1,0-0.2c-1-6.2-3.3-6.7-9.2-7s-11.8-0.6-17.7-0.7
		c-10.2,0-20.4,0-30.7,0c-9.5,0-18.9-0.1-28.4,0.2c-4.4,0.1-12.2-0.8-13.3,4.9c-0.6,3-0.2,6.6-0.3,9.6l-0.6,18
		c-0.1,4.5-0.8,9.2-0.5,13.7c0.3,3.8,2.2,8.6,6.3,9.5s9.1,0.2,13.4,0.3c21.3,0.2,42.6,0.9,63.8,0.5c4.1-0.1,8.2-0.1,12.2-0.4
		c1.9-0.1,4.3-0.1,5.5-1.9C267.6,240.3,266.5,234.1,266.4,230.5z M264.6,235.6c-0.1,2.3,0.2,6.2-2.3,7.3c-2.2,0.9-6.2,0.3-8.5,0.4
		c-19.3,0.5-38.7-0.1-58-0.3l-14.3-0.1c-4.3-0.1-10.9,1.4-13.3-2.5c-2.1-3.4-1.6-6.3-1.5-10c0.1-5.5,0.3-11,0.5-16.4l0.4-13.9
		c0-0.7,0.1-1.5,0.1-2.2c0-1.2-0.4-3,0.3-4.1c1.1-1.9,3.8-2,5.7-2.1c8.5-0.6,17.1-0.4,25.7-0.4l35.1-0.1c3.8,0,7.5,0,11.3,0.1
		c3.5,0.1,7,0.2,10.5,0.4c1.1,0,2.3,0,3.4,0.2c3.1,0.8,3.4,2.7,4,5.3c0,0.1,0,0.1,0,0.1c1.3,8.7,0.6,18.2,0.8,27
		C264.4,228,264.7,231.8,264.6,235.6L264.6,235.6z"/>
	<path class="st7" d="M25.1,22.1c-1.4-2.3-4.8-1-5.9,1c-0.4,0.9-0.7,1.8-0.7,2.8c-0.4,0-0.9,0.1-1.3,0.1c-1.1,0.1-1.7,1.9-0.3,2.2
		c0.5,0.1,1.1,0.2,1.6,0.2c0,0.5,0.1,0.9,0.1,1.4c0.1,3,0,6-0.2,9c-0.1,1.8,2.7,1.8,2.8,0c0.1-3.2,0.1-6.4-0.1-9.6
		c0-0.2,0-0.4,0-0.7c0.6,0,1.2-0.1,1.8-0.2c0.7-0.2,1-0.9,0.9-1.5c-0.2-0.5-0.6-0.9-1.2-0.9h-1.6c0-1,0.6-1.9,1.4-2.4
		c0.6-0.3,1.6-0.2,2.3-0.5C25.1,22.8,25.2,22.4,25.1,22.1z"/>
	<path class="st7" d="M28.1,21.3c-1.6,2.1-0.9,5.1-0.9,7.6c0,3.4-0.1,6.8-0.1,10.2c0.1,0.7,0.7,1.2,1.3,1.1c0.6-0.1,1.1-0.5,1.1-1.1
		c0.1-3.7,0.2-7.3,0.2-10.9c0-2.5,0.5-5-1.1-7C28.4,21.1,28.3,21.1,28.1,21.3C28.1,21.2,28.1,21.3,28.1,21.3L28.1,21.3z"/>
	<path class="st7" d="M44.6,36.3c-3.3,3.3-7.9,2-8.7-2c0.8,0.1,1.6,0.2,2.4,0.2c2.2,0.1,4.5,0,6.7-0.3c0.7,0,1.3-0.6,1.4-1.4
		c0.2-3.4-1.8-6.8-5.3-7.3c-3.3-0.5-6.3,1.6-7.2,4.8c-1,3.5-0.5,7.3,2.7,9.3s7.3,1,9.9-1.6c0.4-0.6,0.3-1.4-0.3-1.9
		C45.7,35.9,45,35.9,44.6,36.3z M43.5,31.7c-1.6,0.2-3.2,0.3-4.8,0.3c-1,0-1.9-0.1-2.9-0.1C36.5,26.8,42.7,27.3,43.5,31.7z"/>
	<path class="st7" d="M59.9,38.3l-4-4.8c1.1-1.7,2.1-3.6,3.3-5.2c0.3-0.3,0.4-0.7,0.3-1c-0.1-0.1-0.1-0.4-0.3-0.5L59,26.6
		c-0.4-0.2-1-0.2-1.3,0.2c-1.4,1.4-2.6,2.9-3.5,4.6c-1.4-1.7-2.8-4.2-4.9-5c-0.3-0.1-0.7,0.1-0.7,0.4c0,0,0,0.1,0,0.1
		c0.1,2.5,2.5,4.7,4,6.6l0.1,0.1c-1.4,1.7-2.9,3.3-4.4,4.8c-1.2,1.3,0.7,3.2,2,2c1.4-1.5,2.9-3,4.2-4.6c1.2,1.5,2.4,3,3.7,4.5
		S61.1,39.7,59.9,38.3z"/>
	<path class="st7" d="M62.7,34.4c1.9,0.6,3.9,0.7,5.9,0.4c1.5-0.3,1-2.4-0.3-2.5c-1.7-0.2-3.5-0.1-5.2-0.3
		C61.6,31.9,61.4,34.1,62.7,34.4z"/>
	<path class="st7" d="M81.6,27.7c-2-2.5-8.8-3.6-9.8,0.4c-0.6,2.3,0.9,4.2,2.8,5.2c1.3,0.6,3.6,0.7,4.5,1.9c2.5,3.5-4.1,4.6-5.9,1.7
		c-0.8-1.2-2.7,0-1.9,1.1c1.5,2.1,4,3.1,6.5,2.6c2.3-0.4,4.6-2.1,4.3-4.7s-3-3.6-5.2-4.1c-1.4-0.4-4.3-1.3-2.8-3.2
		c0.6-0.7,1.5-1,2.4-0.8c1.3,0.3,2.6,0.8,3.7,1.6C81.4,30.2,82.3,28.6,81.6,27.7z"/>
	<path class="st7" d="M90.1,37.4c-1.5,1.1-1.7-3.2-1.8-3.9c-0.1-1.4-0.2-2.9-0.1-4.3c0-0.1,0-0.3,0-0.4c0.7,0.2,1.5,0.2,2.2,0
		c0.7-0.2,1-0.9,0.8-1.6c-0.1-0.3-0.3-0.5-0.5-0.7c-0.7-0.3-1.5-0.4-2.3-0.3c0.1-1.1,0.1-2.2-0.1-3.2c-0.1-0.5-0.6-0.7-1.1-0.6
		c-0.2,0.1-0.4,0.2-0.5,0.4c-0.4,1.1-0.7,2.2-0.9,3.3c-0.5,0-1.1,0-1.6,0.1c-1,0.2-0.7,1.5,0,1.8c0.4,0.2,0.9,0.3,1.3,0.4
		c-0.2,3,0.1,6,0.7,8.9c0.6,2.6,3.7,4.5,5.5,1.8C92.3,38.1,91,36.7,90.1,37.4z"/>
	<path class="st7" d="M105,32.7c-0.2-1.8-0.3-4-1.6-5.4c-2.2-2.5-6.5-1.8-8.6,0.5c-0.3,0.3-0.3,0.7,0,1c0.1,0.1,0.3,0.2,0.5,0.2
		c2.7,0,6.1-2,6.8,2.2c0,0.2,0,0.4,0.1,0.6c-1.5-0.6-3.2-0.8-4.8-0.6c-2.6,0.5-4.4,2.9-4.1,5.5c0.5,4.8,6.1,4.8,9.5,2.6v0.3
		c0,1.9,3.1,1.9,3,0C105.5,37.3,105.3,35,105,32.7z M99.3,38.1c-1.4,0.3-3.3,0-3.6-1.6c-0.5-2.3,1.6-3.1,3.5-2.9
		c1.1,0.2,2.2,0.5,3.3,0.9c0,0.6,0.1,1.2,0.1,1.8C101.6,37,100.5,37.7,99.3,38.1L99.3,38.1z"/>
	<path class="st7" d="M115.7,26.7c-1.5-0.7-2.9,0.6-4.1,1.5c-0.1,0.1-0.2,0.1-0.3,0.2c-0.1-0.7-0.4-1.4-0.8-2
		c-0.2-0.2-0.5-0.2-0.7,0c0,0,0,0,0,0c-1.2,1.5-0.9,3.4-0.9,5.2c0,2.6-0.1,5.2,0,7.8c0,0.7,0.6,1.3,1.3,1.3c0.7,0,1.3-0.6,1.3-1.3
		c0.1-2.6,0-5.2,0-7.9v-0.5c0.4-0.4,0.9-0.8,1.4-1.1c0.4-0.3,0.8-0.6,1.2-0.8s1.2-0.4,1.7-0.8S116.5,27.1,115.7,26.7z"/>
	<path class="st7" d="M125.6,26.4c-0.9-0.3-1.9-0.5-2.9-0.4c0-1.1-0.2-2.1-0.5-3.1c-0.1-0.5-0.6-0.7-1.1-0.6
		c-0.3,0.1-0.5,0.3-0.6,0.6c-0.3,1-0.4,2.1-0.5,3.2c-0.6,0-1.3,0.1-1.9,0.3c-0.5,0.2-0.8,0.8-0.6,1.3c0.1,0.3,0.3,0.5,0.6,0.6
		c0.6,0.2,1.2,0.3,1.9,0.3c0,0.5,0,1,0,1.5c0,2.4-0.4,5.3,0.2,7.6c0.7,2.7,3.7,4,5.4,1.5c0.9-1.3-1.2-2.9-2.2-1.7
		c-0.2,0.2-0.6-3.4-0.6-3.9c0-1.4,0-2.7-0.1-4.1c0-0.3,0-0.5,0-0.8c0.7,0,1.5,0.1,2.2,0.2c0.7,0.2,1.4-0.2,1.6-0.9
		S126.3,26.6,125.6,26.4z"/>
	<path class="st6" d="M478.5,197.4c0-4.5,1.1-11.9-1.8-15.8c-1.5-2-4.2-2.1-6.5-2.5c-5.4-0.9-10.5-0.4-15.9-0.3c-1.6,0-3.2,0-4.8,0
		c-28.6,0-57.2-0.1-85.9-0.2c-48.2-0.1-96.5-0.2-144.7-0.1c-45.4,0-90.8,0-136.2-0.1c-21.1,0-42.4-1-63.4,0
		c-6.5,0.3-13.5,2.5-14.4,9.6c-0.5,4.9-0.7,9.9-0.6,14.9L4,235.5c0,4.6-0.3,9.5,0.5,14c1,5,5.5,7.7,10.3,7.9c5.7,0.2,11.4,0,17.1,0
		c25.6,0.1,51.1,0,76.7,0c46.8,0,93.6,0,140.4,0h137.1c21.2,0,42.4-0.1,63.6-0.1c6.8,0,13.7,0,20.5-0.4c5.7-0.3,7.2-1.4,7.6-7.2
		c0,0,0-0.1,0-0.1c0.8-8.9,0.3-18.2,0.4-27.1C478.4,214,478.5,205.7,478.5,197.4z M472.5,255.1c-1.4,0.4-3.4,0.2-4.9,0.2
		c-4.9,0.1-9.9,0.1-14.8,0.1H449h-7.5l-35.2-0.1c-41.1,0-82.3,0-123.4,0H140.9H43.4c-6.6,0-13.2-0.1-19.9,0c-3.2,0.2-6.4,0.2-9.5,0
		c-1.4-0.1-2.8-0.6-4-1.4c-3.8-2.5-3.3-6.2-3.5-10.1c-0.2-3.4-0.3-6.6-0.3-10c0.1-10.6,0.1-21.2,0.2-31.8c0-5.9-1.2-15.1,4.1-18.7
		c2.7-1.8,6.4-2.2,9.6-2.3c2.5-0.1,5,0,7.5,0h35l123.2,0.1c48,0,96,0,144.1,0.1c35,0,69.9,0,104.9-0.1c6.3,0,12.7,0.1,19-0.1
		c0.7,0,1.4,0,2.1-0.1c5.1-0.2,13-1.6,17.8,1c4.4,2.4,3.1,11.9,3.1,16.2c0,9,0,18-0.1,27c0,8.1,0.5,16.5-0.3,24.6c0,0.1,0,0.1,0,0.2
		C476.2,252.3,475,254.4,472.5,255.1L472.5,255.1z"/>
	<path class="st6" d="M479.2,366.3c-0.3-11-0.7-22-1-33c-0.1-3.8-0.1-7.6,0-11.4c0-2.7,0.2-6.5-2-8.5c-1.7-1.5-5.2-1.9-7.3-2.3
		c-6.5-1.3-13.2-0.6-19.8-0.6c-25.5-0.1-50.9,0-76.4,0H233.1H97.5c-20.8,0-41.5,0.1-62.3,0.1c-7.7,0-16-0.8-23.6,0.9
		c-7.2,1.6-5.4,7.6-5.8,13.8c0,0.1,0,0.2,0,0.2c0.2,16.7-0.4,33.5,0.6,50.1c0.2,3.1-1.1,10,2.2,11.8c4.5,2.4,12.2,1.5,17.1,1.5
		c8,0,16-0.1,24,0c25.2,0.4,50.3,0,75.5,0c46.7,0,93.4-0.1,140.1-0.2l136.4-0.3l64.4-0.2c5.7,0,12,0.7,12.6-6.4
		C479.2,376.6,479.3,371.4,479.2,366.3z M476.7,376.7c-0.3,3.9,0.3,8.7-4.6,9.3c-2.3,0.1-4.6,0.1-6.9,0h-8l-35.9,0.1l-123.6,0.2
		l-141.1,0.3c-32.2,0.1-64.3,0.2-96.5,0.4c-9.5,0-19.1-0.3-28.6,0c-6.2,0.4-12.5,0.2-18.7-0.5c-3.4-0.5-4.1-0.7-4.3-4.2
		s-0.5-6.8-0.7-10.2c-0.5-7.9-0.3-15.9-0.4-23.8c-0.1-7.7-0.2-15.4-0.3-23.1c0,0,0-0.1,0-0.1c0.4-4.8-0.7-11.2,5.4-12.2
		c5.6-0.9,11.5-0.7,17.1-0.6l6.1,0h7.3c11.6,0,23.1,0,34.7,0l122.4,0h140.6h97c8,0,16.1-0.1,24.1-0.1c3.4-0.1,6.8,0.4,10.1,1.5
		c5.3,2.1,3.7,8.1,3.7,12.9c0,3.2,0.2,6.4,0.3,9.5c0.3,10.5,0.6,21,0.9,31.5c0,0.9,0.1,1.8,0.1,2.7
		C477.1,372.7,476.8,374.7,476.7,376.7z"/>
	<path class="st6" d="M478.9,507.3c-0.2-8.3-0.3-16.6-0.5-24.9c-0.1-8,0.2-16.2-0.6-24.1c-0.6-5.5-2.2-11.6-8-13.6
		c-7.1-2.5-16.2-0.5-23.6-0.3c-4.3,0.1-8.5-0.4-12.8-0.4h-80.9c-46.8,0-93.6,0.1-140.5,0.2l-133.2,0.3l-43,0.1
		c-7.3,0-15.4-0.7-22.6,0.4c-9.2,1.4-7,9.2-6.9,16.4c0,3,0,6,0,9c0.1,10.7,0.2,21.3,0.3,31.9c0,4.2-1.1,8.8-0.2,12.8
		c1.5,6.3,7.7,8.1,13.4,8.4c5.5,0.2,11-0.1,16.5-0.1l78.8-0.2c46.3-0.1,92.7-0.2,139-0.3l133.4-0.4c20.6,0,41.3-0.2,61.9-0.2
		c7.6,0,15.5,0.5,23-0.8s6-7.7,6.4-13.9C479,507.5,479,507.4,478.9,507.3z M477,514.4c-0.5,4.6-3.8,5.3-7.7,5.7
		c-5.4,0.4-10.8,0.5-16.2,0.3c-1.5,0-2.9,0-4.4,0c-2.5,0-4.9,0-7.4,0c-11.4,0-22.8,0-34.2,0c-40.1,0.1-80.2,0.2-120.3,0.2L147,520.9
		c-32.7,0.1-65.5,0.2-98.2,0.2c-5.3,0-10.6,0-15.8,0c-7.9,0-24.7,2.9-24.4-9.4c0.1-3.8,0.4-7.6,0.4-11.5c-0.1-10.5-0.2-21-0.2-31.5
		c0-3.3,0.1-6.6-0.1-9.9c-0.1-2.4-0.8-5.2-0.2-7.6c1-4.1,4.7-4.1,8.4-4.3c1.2-0.1,2.4-0.1,3.6-0.1c2.1,0,4.3,0,6.4,0l32.9-0.1
		l119.6-0.2l141-0.3c33.4-0.1,66.8-0.2,100.2-0.4c5.3,0,10.6-0.3,15.9-0.1c8.2,0.3,16.3-0.2,24.5-0.4c4.5-0.1,10,0,12.6,4.1
		c2.1,3.3,2.6,7.6,2.8,11.5c0.5,7.8,0.4,15.6,0.6,23.4s0.4,15.4,0.5,23.1c0,0,0,0.1,0,0.1C477.3,509.8,477.3,512.1,477,514.4z"/>
	<path class="st6" d="M478.9,784.7c-0.2-8.3-0.3-16.6-0.5-24.9c-0.1-8,0.2-16.2-0.6-24.2c-0.6-5.6-2.2-11.6-8-13.6
		c-7.1-2.5-16.2-0.5-23.6-0.3c-4.3,0.1-8.5-0.4-12.8-0.4h-80.8c-46.8,0-93.6,0.1-140.5,0.2c-44.4,0.1-88.8,0.2-133.2,0.3l-43,0.1
		c-7.3,0-15.4-0.7-22.6,0.4c-9.2,1.4-7,9.2-6.9,16.4c0,3,0,6,0,9c0.1,10.7,0.2,21.3,0.3,31.9c0,4.2-1.1,8.8-0.2,12.8
		c1.5,6.2,7.7,8.1,13.4,8.4c5.5,0.2,11-0.1,16.5-0.1l78.8-0.2l139-0.3l133.4-0.3c20.6-0.1,41.3-0.2,61.9-0.2c7.6,0,15.5,0.5,23-0.8
		s6-7.7,6.4-13.9C479,784.8,479,784.7,478.9,784.7z M477,791.8c-0.5,4.6-3.8,5.3-7.7,5.7c-5.4,0.5-10.8,0.3-16.2,0.3
		c-1.5,0-2.9,0-4.4,0h-7.4h-34.2c-40.1,0.1-80.2,0.2-120.3,0.2L147,798.3l-98.2,0.2c-5.3,0-10.6,0-15.8,0c-7.9,0-24.7,2.9-24.4-9.4
		c0.1-3.8,0.4-7.6,0.4-11.5c-0.1-10.5-0.2-21-0.2-31.5c0-3.3,0.1-6.7-0.1-9.9c-0.1-2.4-0.8-5.2-0.2-7.6c1-4.1,4.7-4.2,8.4-4.3
		c1.2-0.1,2.4,0,3.6-0.1c2.1,0,4.3,0,6.4,0c11,0,21.9-0.1,32.9-0.1l119.6-0.2l141-0.3c33.4-0.1,66.8-0.2,100.2-0.4
		c5.3,0,10.6-0.3,15.9-0.1c8.2,0.3,16.3-0.2,24.5-0.4c4.5-0.1,10-0.1,12.6,4.1c2.1,3.3,2.6,7.6,2.8,11.5c0.5,7.8,0.4,15.6,0.6,23.4
		s0.4,15.4,0.5,23.1c0,0,0,0.1,0,0.1C477.3,787.2,477.3,789.5,477,791.8z"/>
	<path class="st7" d="M24.4,152.1c0.3,0,0.6-0.3,0.6-0.6V151c0-0.5-0.3-1-0.9-1.1c-2.7-0.9-4.8,1-5.2,3.7c-0.1,0.7-0.1,1.3-0.1,2
		c-0.8-0.1-1.6,0.3-2.2,0.9c-0.1,0.2-0.1,0.4,0.1,0.6c0.6,0.5,1.5,0.8,2.3,0.6c0.1,0.8,0.2,1.7,0.3,2.5c0.2,2.8,0.1,5.6-0.2,8.4
		c-0.1,1.3,2,1.3,2.1,0c0.3-3,0.4-6.1,0.3-9.1c0-0.6-0.1-1.2-0.1-1.9c0.9,0,1.9-0.1,2.8-0.5c0.7-0.4,0.4-1.4-0.2-1.6
		c-0.9-0.2-1.7-0.3-2.6-0.2C21.3,153.5,22.7,152.1,24.4,152.1C24.4,152.1,24.4,152.1,24.4,152.1z"/>
	<path class="st7" d="M28.4,151.1c-1.5,1.8-1,4.3-1,6.6c0,3.5-0.1,6.9,0,10.4c0,0.6,0.5,1.1,1.1,1.1s1.1-0.5,1.1-1.1
		c0.1-3.5,0-6.9,0-10.4c0-2.3,0.6-4.8-1-6.6C28.6,151,28.4,151,28.4,151.1C28.3,151.1,28.3,151.1,28.4,151.1L28.4,151.1z"/>
	<path class="st7" d="M47.2,161.9c-1.2-3-3-6.5-6.7-6.6s-5.5,2-6.7,5.2s-0.8,6,2.2,7.9s6.7,2.4,9.2-0.2c0.5-0.5,0.4-1.3-0.1-1.7
		c-0.5-0.4-1.2-0.4-1.6,0c-1.8,1.7-4.1,1.4-6.1,0.2c-1.4-0.6-2.2-2-2.1-3.5c1.8-0.1,3.7-0.1,5.5,0.1c1.8,0.2,3.6,0.7,5.4,0.2
		C47,163.3,47.4,162.6,47.2,161.9z M38.9,160.8c-1,0-2.1,0.1-3.1,0.3l0,0c0.8-2,1.9-3.5,4.3-3.5c2.2,0.1,3.2,1.8,4,3.6
		C42.5,161.2,40.5,160.8,38.9,160.8L38.9,160.8z"/>
	<path class="st7" d="M59.6,168c-0.4-2.2-2.7-3.8-4.3-5.4c1.5-1.9,3.7-4.1,4.1-6.4c0.1-0.4-0.2-0.9-0.7-0.7
		c-2.1,0.8-3.7,3.2-5.1,5.1c-0.6-0.9-1.2-1.7-1.8-2.6s-1.3-2.1-2.3-2.6c-0.7-0.3-1.5,0.4-1.1,1.1c1.3,2,2.3,4.1,3.6,6.1
		c-1.5,1.8-3.3,3.7-4,5.8c-0.3,0.9,0.8,1.9,1.7,1.3c1.6-1.4,2.9-3,4-4.9c1.2,1.6,2.5,3,4,4.3c0.5,0.4,1.2,0.3,1.6-0.1
		C59.6,168.7,59.6,168.3,59.6,168z"/>
	<path class="st7" d="M62.6,163.5c0.9,0.3,1.9,0.4,2.8,0.3c1-0.1,2.2-0.1,2.8-1.1c0.3-0.6,0.1-1.3-0.4-1.6c-1-0.5-1.7,0-2.7,0.1
		c-0.8,0.1-1.7,0-2.5,0.1c-0.6,0.2-0.9,0.8-0.8,1.4C61.9,163.1,62.2,163.4,62.6,163.5z"/>
	<path class="st7" d="M82.5,166c-3.5,3.2-7.6,0.9-8.4-2.5c2.6,0.3,5.2,0.3,7.8,0.1c2-0.2,3.1-1,2.9-3.1c-0.5-4-6.3-7.2-9.8-4.6
		c-1.9,1.5-3,3.7-3.1,6.1c-0.2,0.3-0.2,0.7,0,1c0.2,4.1,3.7,7.2,7.8,7c1.8-0.1,3.5-0.8,4.8-2.1C85.7,166.7,83.8,164.8,82.5,166z
		 M75.5,158.4c1.4-1.4,3-1,4.7-0.2c1.1,0.6,2.9,2,1.2,2.9c-0.9,0.5-3.3,0.2-4.4,0.2s-2.1,0-3.1,0C74.2,160.2,74.7,159.2,75.5,158.4
		L75.5,158.4z"/>
	<path class="st7" d="M100.3,160.3c-0.3-1.8-0.8-3.8-2.7-4.6c-2.4-1-5.2,0.2-6.7,2.2c-0.1-0.6-0.4-1.2-0.8-1.6
		c-0.1-0.1-0.2-0.1-0.3,0c-1.7,0.8-1.3,3.4-1.4,5.1c-0.1,2.6-0.5,5.6,0.4,8c0.3,1,2,1.2,2.2,0c0.4-2.4-0.1-5.1-0.1-7.5
		c0-0.4,0-0.8,0.1-1.3c0.7-0.7,1.4-1.4,2.3-1.9c1.6-0.9,3.9-1.4,4.5,0.8c0.7,2.8,0.2,5.8,0.3,8.6c0,0.8,0.6,1.4,1.4,1.4
		s1.4-0.6,1.4-1.4C100.8,165.5,100.6,162.9,100.3,160.3z"/>
	<path class="st7" d="M116.6,150.9c0-0.6-0.5-1.1-1.1-1.1c-0.6,0-1.1,0.5-1.1,1.1c-0.2,2.2-0.3,4.4-0.4,6.6
		c-1.9-1.5-4.9-2.4-7.1-1.3c-2.4,1.2-3.2,4.4-3.2,6.8c0,2.6,1.3,5.3,3.9,6.3c2,0.7,4.2,0.4,6-0.8c0.1,0.4,0.3,0.7,0.5,0.9
		c0.6,0.6,1.5,0.5,2.1-0.1c0.2-0.3,0.4-0.6,0.4-0.9C116.8,162.6,117,156.6,116.6,150.9z M108.8,166.9c-2.6-0.6-3.3-3.3-2.8-5.7
		s1.7-3.7,4.2-3.2c1.3,0.2,2.6,0.6,3.9,0.8c0,1.1,0,2.2-0.1,3.3c0,0.8-0.2,1.9-0.3,3C112.2,166.2,110.8,167.4,108.8,166.9
		L108.8,166.9z"/>
	<path class="st3" d="M205.3,332c-0.5-2.5-3.2-2-4.8-1c-2.3,1.6-3.6,4.2-3.7,7c-0.3,7-0.6,14-0.9,21c-0.2,4.1,0.1,8.8-0.1,13.2h-0.3
		h-0.8c-0.1-0.1-0.3-0.1-0.4-0.2c-1.1-0.5-2.5-0.4-3.5,0.4h-0.1c-2.6,0.1-5.2,0.1-7.7,0.1c-5.8,0-11.6-0.1-17.4-0.3
		c-10.6-0.4-20.9-1.5-31.6-0.5c-11.6,1-23.3,1-35,0.2c-4.7-0.3-9.4,10.7-4.1,11c6.9,0.4,13.9,0.8,20.8,0.7s14-1.1,21.1-1.5
		c13.6-0.6,27.5,1.4,41.2,1.3c4.1,0,8.7,0.4,13,0c3,0.9,6.4,0.9,8.9-0.8c2.8-1.9,3.6-4.9,3.9-8c0.5-1.3,0.9-2.6,1.2-3.9
		C207.2,358.3,207.8,344.5,205.3,332z"/>
	<path class="st3" d="M398.9,354.3c-0.5-7.5-0.6-15-0.4-22.6c0.2-1.5-0.9-2.9-2.3-3c-0.3,0-0.6,0-1,0l-2.6,0.5
		c-4.2,0.8-7.8,10.9-2.8,10.9c-0.1,5.7,0,11.4,0.3,17.1c0.2,4.7,1.3,10,1.5,15c-13.5,0.9-27,1.3-40.5,1.2
		c-7.6-0.1-15.1-0.4-22.7-0.8c-7.3-0.4-14.5-1.4-21.8-0.7c-4.5,0.4-8.3,11.4-2,10.8c7.1-0.7,14.5,0.6,21.6,1
		c7.5,0.4,15.1,0.6,22.7,0.7c14.8,0.1,29.6-0.5,44.4-1.6c3.4-0.3,5.6-3.5,6.3-6.5C401,369,399.3,361.5,398.9,354.3z"/>
	<path class="st3" d="M287.6,360.9c-0.3-4.9,0.3-9.7-0.1-14.6c-0.5-5.2-1.5-10.3-3-15.2c-1.8-5.8-9.7,2.9-8.3,7.2
		c2.2,7.3,3.2,14.9,2.8,22.5c-0.1,1.9-0.1,3.8,0,5.8c0.1,1,1,3.7,0.6,4.5l0.5,0.2c-1,0.2-2.1,0.3-3.1,0.3c-1.9,0.1-3.9,0-5.8,0.1
		l-23.2,0.3c-7.8,0.1-17.6,1.9-25-0.9c-4.7-1.8-10.4,8.8-6,10.4c9.3,3.5,21,1.5,30.8,1.4l16.5-0.2c4.7-0.1,10,0.5,14.6-0.8
		c3.8-1.1,7-3.9,8.5-7.6C289.4,369.6,287.9,365.6,287.6,360.9z"/>
	<path class="st4" d="M200.1,371.4c-0.4,2,0,4.1-4.8,5.1c-1.2,0.2-94.8,3.2-102.9-1c-2.9-1.5-2.9-5.6-2.7-7.9
		c0.1-1.5,0.2-40.7,1.8-42.5s51.2-1.2,51.2-1.2l50.6,0.4c2.3,0,5.2,5.7,5.5,8.2S200.5,369.5,200.1,371.4z"/>
	<path class="st4" d="M280.6,327.6c-0.2-1-3-3.1-5.3-3.6c-0.6-0.1-56.3-0.6-57-0.5c-4.6,0.9-4.6,8.9-4.6,9.7c0,0,0.6,36.7,0.7,38.3
		c0.1,0.7,3.6,4.6,4.6,5.2c1.8,1.1,53.4,0.5,55.8,0.3c6.8-0.5,6.6-3.9,6.7-5.2S280.8,328.6,280.6,327.6z"/>
	<path class="st4" d="M297.1,372.6c0.2,1,1.4,4.1,4.1,4.4c3.5,0.3,86.5,0.3,88.2,0.4c4.7,0.1,4.8-6.3,4.7-7.1l-0.3-38.2
		c-0.2-1.6-2.3-6.6-3.5-7.2c-2.1-1.1-5-0.7-8.9-0.8c-4.6,0-79.7-0.3-81,0c-2,0.3-3.4,2-3.5,4C297,329.4,296.9,371.6,297.1,372.6z"/>
	<path class="st5" d="M279.5,326c-10.2-2.8-20.9-4-31.5-3.4c-5.4,0.2-10.8,0.7-16.2,1.2c-4.1,0.4-9.6-0.1-13.2,2.1
		c-7.6,4.4-5,16.4-4.4,23.4c0.4,5.5,1,10.9,1.7,16.4c0.3,2.5-0.3,5.9,1.7,7.8c1.2,1.1,3.2-0.8,3.9-1.6l0.3-0.3
		c1.1-1.2,2.4-4.3,1.1-5.7l-0.2-0.2l-0.1-0.1c-0.5-6.6-1.4-13.2-1.9-19.8c-0.2-2.3-0.3-4.5-0.4-6.8c0-1.2-0.8-5.1-0.2-5.8
		c1-1.2,7.6-1,9.6-1.2c15.8-1.4,31.3-2.1,46.8,2.3C279.7,335.2,283.5,327.2,279.5,326z"/>
	<path class="st5" d="M390.3,325.2c-12.4,0.3-24.7,0.7-37,0.8s-24.5-1.6-36.8-2.4c-7.3-0.5-19.5-1.7-19.1,9c0.1,2.5,0.4,4.9,0.7,7.4
		c-2.7,10.8-1,23.1,0.7,33.4c0.7,4.2,6.1-1.4,6.3-3.5c0.7-7,0.9-14,0.8-21c-0.1-3.5-0.4-7-0.7-10.5c0-0.5-0.2-1.1-0.3-1.7
		c0.7-1.8,1.7-3.4,2.9-4.8c0.1-0.2,0.2-0.3,0.4-0.5c1.3,0.1,2.5,0.3,3.4,0.4c3.5,0.2,6.9,0.5,10.4,0.8c7.2,0.7,14.4,1.4,21.7,1.6
		c14.5,0.4,29.2-0.4,43.7-0.8C390.7,333.4,394.1,325.2,390.3,325.2z"/>
	<path class="st6" d="M395.2,365.4c-0.1-10.7,0.3-21.5-0.2-32.1c-0.1-3.1-1.5-7.8-4.3-9.5c-3.5-2.1-9.5-0.8-13.6-0.9
		c-21.2-0.2-42.5-0.9-63.7-0.5c-3.8,0.1-15-1.6-17,3c-1.5,3.4-0.6,9.1-0.6,12.8c0.1,6.7,0.2,13.5,0.3,20.2c0.1,4.1-0.2,8.5,0.3,12.6
		c0,0.1,0,0.1,0,0.2c1,6.2,3.3,6.7,9.2,7s11.8,0.6,17.6,0.7c10.1,0.1,20.2,0,30.3,0c9.1,0,18.2,0.1,27.4-0.2
		c3.8-0.1,12,0.9,13.9-3.5C395.9,372.7,395.2,368.3,395.2,365.4z M389.9,376.2c-1.3,0.3-2.7,0.4-4,0.4c-8.1,0.4-16.2,0.4-24.3,0.4
		h-34.9c-3.7,0-7.3,0-11-0.1s-7.2-0.2-10.9-0.4c-1,0-2,0-3-0.2c-3.1-0.8-3.4-2.7-4-5.3c0,0,0-0.1,0-0.1c-0.4-3.1-0.1-6.5-0.1-9.6
		c0-5.6,0-11.3,0-16.9c0-3.9-0.1-7.8,0-11.7c0.1-2.2-0.3-6.3,2.2-7.4c1.9-0.9,5.6-0.3,7.6-0.4c19.5-0.6,39,0.1,58.5,0.3l12.8,0.1
		h3.6c1.8,0,5.1-0.5,6.9,0.4s2.8,3.6,3.2,5.3c0.7,2.6,0.4,5.5,0.4,8.3c0.1,5.5,0.1,10.9,0.2,16.4c0,4.4,0.1,8.8,0.1,13.1
		c0,0.8,0.1,1.6,0,2.4C393.1,373.9,393,375.2,389.9,376.2L389.9,376.2z"/>
	<path class="st6" d="M282.3,356.6c-0.4-9.2-1-18.5-1-27.7c0-0.1,0-0.2,0-0.3c-0.7-7-10.2-5.7-15.2-5.8c-9-0.1-17.9-0.3-26.9-0.4
		c-6.9-0.1-15.5-1.7-22.1,0.6c-5.6,2-4.4,11.2-4.4,16c0.1,8.6,0.1,17.3,0.3,25.9c0.1,2.8-0.5,7,1,9.3c1.9,3.2,8.4,3.8,11.7,4.1
		c9,0.6,18.1,0.8,27.1,0.5c5.2-0.2,10.4-0.6,15.7-0.8c3.9-0.1,8.9,0.9,12.1-2c1.9-1.8,2.2-3.8,2.2-6.2
		C282.8,365.4,282.5,361,282.3,356.6z M275,375.9c-4.2,0.3-8.4,0-12.6,0.2c-7.7,0.4-15.4,0.8-23.1,0.5c-4.3-0.2-8.5-0.2-12.8-0.4
		c-2.5-0.1-4.9-0.6-7.3-1.4c-3.8-1.3-3.6-4.1-3.8-7.6c-0.4-5.8-0.2-11.7-0.3-17.5c-0.1-5.6-0.5-11.4-0.2-17c0.1-2.6,0.5-6.6,3.2-7.7
		c2-0.8,4.9-0.6,7-0.6c3.8-0.1,7.7,0.1,11.5,0.1l20.7,0.2l12.9,0.1c3.3,0,9-0.7,9.8,4l0,0c-0.1,13.7,0.7,27.4,0.6,41
		C280.5,373.4,279,375.6,275,375.9z"/>
	<path class="st5" d="M187.6,325.3l-23.6-1.1c-1.2,0-2.5,1-3.4,2.3l-7.1-0.5l-39.8-2.6c-4.8-0.3-11.8-2.2-16.2,0.5
		c-3.2,2-4.6,5.7-5.1,9.2c-1.6,10.8-1.7,22.1-1.5,33.1c-0.5,0.9-0.7,2-0.5,3.1c0.2,0.9,0.5,1.8,0.7,2.7c1.3,4.6,6.4-2.1,6.4-4.5
		c-0.1-7.7,0-15.3,0.3-23c0.2-3.8,0.4-7.7,0.8-11.5c0.3-3.2,1.6-2.1,4.1-2c2,0.1,4,0.3,6,0.4l48.8,3.2l23.9,1.6
		c5.2,0.3,11.5,1.9,14.2-3.9C198.4,325.9,192.4,325.5,187.6,325.3z"/>
	<path class="st6" d="M200.8,365.9c0,0,0-0.1,0-0.1c1.1-8.1-0.6-17-1-25.1c-0.2-4.8,1-12.3-3.4-15.8c-3.4-2.7-10-1.5-14.2-1.7
		c-20.2-1.1-40.5,0.8-60.7-0.1c-5-0.2-9.9-0.5-14.9-0.5c-4,0-8.3-0.5-12.2,0.4c-5.3,1.1-5.2,3.7-5.3,8.5
		c-0.3,10.3-0.3,20.6-0.4,30.9c0,3.4-0.6,7.3,0.6,10.5c2,5.3,7.5,5,12.4,5.5c12.1,1.3,24.7,0.3,36.9,0.3c13.9,0,27.9,0.3,41.9-0.2
		c5.2-0.2,11.3,0.3,16.4-0.9C202.3,376.1,200.4,370.1,200.8,365.9z M199.2,370.6c-0.3,3.7-2.2,5-5.6,5.2c-4.9,0.3-9.9,0.5-14.8,0.6
		c-11.4,0.3-22.8,0.1-34.2,0.1c-9,0-18-0.1-27,0c-6.9,0.1-13.7,0.2-20.5-0.9c-4-0.6-6.3-2.5-6.4-6.9c0-1.1,0-2.3,0.1-3.4
		c0.2-9.3,0.2-18.6,0.4-27.8c0.1-2.7-0.4-6.2,0.2-8.8c1.1-5,7.8-3.9,11.7-3.8c4.6,0,9.2,0.1,13.8,0.3c18.7,0.9,37.4,0,56.1,0.1
		c3.8,0,7.5,0.1,11.3,0.3s9.7-1,12.1,2.7c2.2,3.4,1.3,8.4,1.6,12.2s0.6,8,0.8,12c0.3,4.2,1.1,9,0.6,13.2c0,0,0,0.1,0,0.1
		C199.1,367.4,199.3,369,199.2,370.6z"/>
	<path class="st7" d="M29.8,287.4c-3.7-5.4-11.3-0.4-11.8,4.8c-0.6,6,7,10.8,11.7,6.5c1.4-1.2-0.7-3.2-2-2c-3,2.8-7.9-0.9-7.7-4.4
		c0.2-3.8,5.1-6.6,7.9-3.5C28.8,289.8,30.5,288.5,29.8,287.4L29.8,287.4z"/>
	<path class="st7" d="M44.6,294.1c0.8,0,1.4-0.6,1.4-1.4c0-8-10.6-9.6-13.6-2.5c-1.4,3.4-0.8,7.2,2.3,9.4s7.7,1.2,10.4-1.3
		c1.1-1-0.3-2.5-1.5-1.9c-2.1,1-4.1,2.5-6.5,1.5c-1.5-0.6-2.6-1.9-2.8-3.5C37.4,295.2,41.6,294.4,44.6,294.1z M43,291.4
		c-1.6,0.2-3.2,0.3-4.8,0.4c-1.2,0-2.5,0.1-3.7,0.3C35.8,287.3,42,286.8,43,291.4z"/>
	<path class="st7" d="M61.5,289.9c0-1.6-1-3.1-2.5-3.6c-1.9-0.6-5.6,0-7.3,1.8c-0.1-0.7-0.3-1.3-0.6-2c-0.2-0.3-0.6-0.4-0.9-0.2
		c-0.1,0.1-0.2,0.1-0.2,0.2c-0.8,1.8-0.6,3.7-0.7,5.6c-0.3,2.4-0.4,4.8-0.3,7.2c0.1,1.3,2.1,1.8,2.4,0.3c0.4-2.3,0.6-4.7,0.5-7
		c0-0.6,0-1.3,0-2c2.1-0.8,4.6-3,6.4-1c1,1.2,0.5,3.1,0.3,4.6c-0.2,1.6-0.3,3.2-0.3,4.9c0,2.2,3.2,1.8,3.1,0
		C61.1,295.8,61.7,292.8,61.5,289.9z"/>
	<path class="st7" d="M69.5,296.7c-1.4,1-1.3-3.4-1.3-3.8c0-1.3,0-2.6,0-3.9c0.9,0.3,1.9,0.1,2.6-0.6c0.5-0.5,0.5-1.4,0-1.9
		c-0.7-0.8-1.6-0.7-2.5-0.6c0-1.2-0.4-2.4-1.2-3.4c-0.2-0.2-0.6-0.2-0.8,0c0,0-0.1,0.1-0.1,0.1c-0.4,1-0.6,2.1-0.7,3.2
		c-0.4,0-0.7,0-1.1,0c-0.6,0-1.1,0.5-1.1,1.2c0,0.4,0.2,0.7,0.5,0.9c0.5,0.3,1,0.5,1.6,0.6c0,0.4,0,0.9-0.1,1.3
		c-0.3,2.1-0.2,4.3,0.1,6.4c0.5,2.8,3.2,5.1,5.8,2.8C72.4,297.8,70.8,295.7,69.5,296.7z"/>
	<path class="st7" d="M84.3,297c-2.1,1.9-5.3,1.7-7.2-0.4c-0.6-0.7-1-1.5-1.2-2.4c2.5,0.3,5,0.4,7.5,0.2c1.7,0,3.7,0,3.4-2.3
		c-0.4-3.8-3.7-6.5-7.5-6.1c-0.9,0.1-1.8,0.4-2.6,0.8c-4.1,2.1-4.1,8.2-1.5,11.5s8,3.8,10.9,0.6c0.5-0.5,0.4-1.3-0.1-1.8
		C85.5,296.6,84.8,296.6,84.3,297z M79.8,288.3c2,0,3.7,1.4,4.2,3.3h-1.4l-2.6,0c-1.4,0-2.8-0.1-4.2,0
		C76.1,289.7,77.8,288.3,79.8,288.3L79.8,288.3z"/>
	<path class="st7" d="M97.7,286.2c-1.2-0.9-3.2,0.1-4.3,0.9c-0.4,0.2-0.7,0.5-1,0.8c-0.2-0.6-0.5-1.2-1-1.7c-0.2-0.2-0.6-0.2-0.9,0
		c0,0-0.1,0.1-0.1,0.1c-1.1,1.8-0.3,4.4-0.3,6.4c0,2.3-0.8,4.8,0,7c0.2,0.7,0.9,1.1,1.6,0.9c0.5-0.2,0.9-0.6,0.9-1.2
		c0.3-2.5,0.3-5.1,0.2-7.6c0-0.4,0-0.8,0-1.2c0.6-0.3,1.1-0.6,1.6-1c0.5-0.4,1.1-0.7,1.8-0.9c0.6-0.1,1.2-0.3,1.7-0.7
		c0.4-0.5,0.4-1.2-0.1-1.6C97.8,286.2,97.7,286.2,97.7,286.2z"/>
	<path class="st7" d="M26.9,419c-1.7-1.4-4.1-1.7-6.1-0.7c-1.5,0.7-3.2,2.3-2.7,4.1s2.8,2.6,4.4,3.1s4.4,1.2,3.6,3.5
		c-1.1,3.4-4.9,1-6.4-0.7c-1.2-1.3-3.1,0.6-1.9,1.9c1.8,1.8,4.1,3.3,6.7,2.9c2.1-0.3,3.8-1.8,4.2-3.9c0.2-1.9-0.8-3.8-2.6-4.6
		c-1.1-0.5-2.2-0.9-3.4-1.2c-1.7-0.6-3.1-2.4-0.5-3.2c1.3-0.3,2.6-0.1,3.7,0.7C27,421.5,27.9,419.8,26.9,419L26.9,419z"/>
	<path class="st7" d="M45.1,423.9c0-3-2.4-5.5-5.4-5.5c-2.1,0-4.1,0.9-5.4,2.5c-0.2-0.5-0.5-1-0.9-1.4c-0.1-0.1-0.2-0.1-0.2,0
		c-1.8,1.8-1,4.6-1,7c0,3.7,0.1,7.3,0.1,11c0.1,0.7,0.7,1.2,1.3,1.1c0.6-0.1,1.1-0.5,1.1-1.1c0-1.8,0-3.5-0.1-5.3
		c1.8,1.3,4.2,1.6,6.3,0.6C44,431.2,45.2,427.2,45.1,423.9z M40.3,430c-1.8,1.2-3.8,0.4-5.1-1.1c-0.2-0.2-0.4-0.3-0.6-0.4v-2
		c0-1.1,0.1-2.2,0.1-3.3c1.2-0.8,2.1-2,3.6-2.4c1.8-0.6,3.7,0.4,4.3,2.1c0.1,0.4,0.2,0.9,0.2,1.4C42.6,426.2,41.9,428.8,40.3,430z"
		/>
	<path class="st7" d="M59,425c-0.1-1.6,0.1-3.7-0.8-5.1c-1.7-2.7-6.2-1.9-8.5-0.4c-0.3,0.2-0.5,0.5-0.5,0.9c0,0.2,0,0.3,0,0.5
		c0,0.2,0.1,0.3,0.3,0.4c0.9,0.3,1.5-0.1,2.4-0.4c2.2-0.5,4-0.2,4.5,2.3c0.1,0.6,0.2,1.3,0.2,1.9c-1.5-1.4-3.5-1.9-5.5-1.5
		c-2.1,0.6-3.2,3-3,5.1c0.2,2.3,2,4.1,4.3,4.2c1.4,0,2.8-0.5,4-1.3c0,0.1,0,0.2,0,0.4c0,0.7,0.5,1.2,1.2,1.2c0.7,0,1.2-0.5,1.2-1.2
		C59.2,429.6,59.2,427.3,59,425z M50.8,428c0.2-3.3,3.7-1.5,6-1.5c0,0.6,0,1.2-0.1,1.7c-1,0.7-1.8,1.8-3.1,2.1
		c-1.1,0.4-2.3-0.2-2.7-1.3C50.8,428.7,50.7,428.3,50.8,428z"/>
	<path class="st7" d="M74.6,420.6c0.4-3-4-3.1-5.9-2.6c-2.9,0.7-5.2,3.1-5.6,6.1c-0.4,3.1,0.2,6.5,3.2,8c2.5,1.2,6.6,0.5,7.8-2.3
		c0.3-0.6,0.1-1.2-0.4-1.5c-0.3-0.2-0.8-0.2-1.1,0c-1.5,0.7-2.7,2-4.5,1.5c-2.3-0.7-2.5-3.5-2.1-5.4c0.4-1.9,1.9-3.3,3.8-3.6
		c1.6-0.4,2.6,0.1,4,0.6c0.3,0.1,0.7-0.1,0.8-0.5C74.5,420.8,74.5,420.7,74.6,420.6L74.6,420.6z"/>
	<path class="st7" d="M88.3,428.6c-3.2,2.4-7.7,2.2-8.2-2.2c2.8,0.2,5.5,0,8.2-0.5c1.7-0.4,2.1-1.9,1.7-3.5c-1-4.2-6.2-5.2-9.5-3.1
		c-3.6,2.2-4.4,7.6-2.1,11c2.6,4,7.7,2.7,11,0.4C90.8,429.8,89.5,427.7,88.3,428.6z M82.7,421.3c1.5-0.6,5-0.1,4.8,2.1
		c-2.3,0.6-4.8,0.5-7.3,0.7C80.6,422.8,81.5,421.7,82.7,421.3L82.7,421.3z"/>
	<path class="st7" d="M93.9,426.4c1.5,0.6,3.3,0.1,4.9,0.1c0.8,0,1.5-0.7,1.5-1.5l0,0c0-0.1,0-0.3-0.1-0.4c-0.2-0.8-1-1.2-1.8-1
		c-1.5,0.5-3.4,0.5-4.7,1.4c-0.3,0.2-0.4,0.7-0.2,1C93.6,426.2,93.8,426.3,93.9,426.4L93.9,426.4z"/>
	<path class="st7" d="M106,420.2c-0.1-2.4,0.2-4.9-1.5-6.7c-0.1-0.1-0.2-0.1-0.3,0c0,0,0,0,0,0c-1.4,2.2-0.6,5.1-0.5,7.5
		c0.1,3.4,0.1,6.8,0.2,10.2c0.1,0.6,0.6,1.1,1.3,1c0.6-0.1,1-0.5,1-1V431c1.4,1.1,3.2,1.6,4.9,1.4c3-0.6,4.7-3.5,5-6.4
		C116.7,419.9,110.5,417.2,106,420.2z M110.6,429.9c-1.8,0.2-3-1-4.3-2l0,0c0-1.9,0-3.7-0.1-5.6c1.3-1,2.9-1.5,4.5-1.3
		c2,0.5,3.3,2.3,3.1,4.4C113.7,427.3,112.7,429.6,110.6,429.9z"/>
	<path class="st7" d="M124.5,426c2.2-0.1,4.3,0,6.5,0.3c0.7,0.2,1.3-0.2,1.5-0.9c0-0.2,0-0.4,0-0.6c-0.6-2.9-3.1-5.9-6.3-6.1
		s-5.7,2.5-6.4,5.5c0,0.2-0.1,0.5-0.1,0.7c0,0.1-0.1,0.1-0.1,0.2c0,0.1,0,0.2,0,0.2c0,0.1,0,0.2,0,0.4c-0.3,2.7,0.9,5.3,3.1,6.9
		c3.2,2,6.2,0.2,8.7-1.9c1.2-1-0.5-2.6-1.7-1.7c-1.6,1.4-3.7,2.8-5.8,1.4c-1.3-1-2-2.6-1.9-4.3C122.9,426.1,123.8,426,124.5,426z
		 M126.5,421.3c1.3,0.4,2.3,1.2,2.9,2.4c-2.3-0.2-4.6-0.1-6.9,0.3C123.2,422.3,124.6,420.9,126.5,421.3L126.5,421.3z"/>
	<path class="st7" d="M141,429.6c-2.1,1.5-2.4-2.8-2.5-5.4c0.8,0.2,1.5,0.2,2.3,0c0.7-0.2,1-0.9,0.8-1.6c-0.1-0.4-0.4-0.7-0.8-0.8
		c-0.8-0.2-1.6-0.3-2.4-0.1c0.1-2.3,0-4.5-0.3-6.8c-0.1-0.7-1.2-0.6-1.4,0c-0.5,2.3-0.7,4.6-0.7,6.9c-0.5,0-1,0.1-1.5,0.2
		c-0.5,0.1-0.7,0.6-0.6,1.1c0.1,0.3,0.3,0.5,0.6,0.6c0.5,0.1,1,0.2,1.5,0.3c0.2,5.5,1.6,10.8,6,7.5
		C143.2,430.6,142.1,428.8,141,429.6z"/>
	<path class="st7" d="M160.6,419.1c-0.8,2.8-1.6,5.6-2.4,8.4c-1.4-3-2.8-6-4.1-9c-0.2-0.6-0.8-0.9-1.4-0.7c-0.3,0.1-0.5,0.2-0.6,0.5
		c-1.5,2.7-2.8,5.6-3.9,8.5c-0.8-2.8-2-5.4-3.6-7.9c-0.2-0.3-0.7-0.4-1-0.2c-0.3,0.2-0.4,0.5-0.3,0.8c0.8,4.1,2.4,8.1,3.5,12.1
		c0.2,0.7,1,1.1,1.7,0.9c0.4-0.1,0.8-0.5,0.9-0.9c1.1-3.3,2.4-6.6,3.7-9.8c1.4,3.4,2.7,6.7,4,10.1c0.2,0.7,1,1.2,1.7,0.9
		c0.4-0.1,0.8-0.5,0.9-0.9c1.2-4,2.3-8,3.5-12c0.1-0.8-0.5-1.5-1.3-1.5C161.5,418.3,160.9,418.6,160.6,419.1z"/>
	<path class="st7" d="M176.3,430.1c-3.7,3-6.8-0.2-7.6-3.7c2.4,0.1,4.7,0.1,7.1-0.1c1.5-0.1,3.1,0,3-2c-0.2-4.4-4.7-7.6-8.8-6
		s-5.1,7-3.3,10.7c2.1,4.3,7.4,5.9,11.2,2.8C179.2,430.8,177.5,429.1,176.3,430.1z M172.7,420.5c1.3,0.2,2.4,1,2.9,2.1
		c0.3,0.5,0.5,1,0.6,1.5c-0.6,0-1.2,0-1.8,0.1c-2,0.2-4,0.2-6,0.5C168.5,422.3,169.7,420.2,172.7,420.5z"/>
	<path class="st7" d="M191.6,426.4c1.5-0.1,4.1,0,4.1-2s-2.1-4-3.6-5c-1.7-1.2-3.9-1.5-5.8-0.8c-4.2,1.7-5.6,7.5-3.4,11.1
		s7.7,4.8,10.8,1.4c0.5-0.5,0.5-1.2,0-1.7c-0.5-0.5-1.2-0.5-1.7,0c-1.8,1.6-4.6,1.4-6.3-0.4c-0.4-0.4-0.7-0.9-0.9-1.5
		c-0.1-0.3-0.2-0.6-0.2-0.9C186.8,427,189.7,426.5,191.6,426.4z M184.9,423.8c0.6-1.7,2-3.1,3.9-2.9c1.3,0.3,2.4,0.9,3.2,1.9
		c0.2,0.3,0.5,0.5,0.7,0.7c-0.1,0-0.1,0-0.2,0c-0.7,0.2-1.5,0.2-2.3,0.2C188.7,423.9,186.6,423.6,184.9,423.8z"/>
	<path class="st7" d="M210.6,431.2c-0.3-1.6-0.6-3.2-0.6-4.8c0-1.2,0.1-2.5,0-3.7c-0.1-1.7-1.1-3.3-2.6-4.2c-2.6-1.2-5,0.7-6.5,3
		c-0.1-0.7-0.3-1.4-0.5-2c-0.1-0.5-0.6-0.8-1.1-0.6c-0.3,0.1-0.5,0.3-0.6,0.6c-0.5,1.9-0.2,4.1-0.2,6.1c-0.1,2.1-0.1,4.2,0.2,6.2
		c0.2,0.6,0.8,1,1.5,0.8c0.4-0.1,0.7-0.4,0.8-0.8c0.3-2.1,0.4-4.1,0.2-6.2c0-0.5,0-1.1,0-1.7c0.6-0.4,1.2-0.9,1.7-1.4
		c1.3-1.2,3.8-3,4.6-0.2c0.4,1.4,0,3.1-0.1,4.5c-0.1,1.6-0.2,3.2-0.1,4.8c0,1,0.7,1.8,1.7,1.8c1,0,1.8-0.7,1.8-1.7
		C210.7,431.6,210.7,431.4,210.6,431.2z"/>
	<path class="st8" d="M449.8,631.2c-0.2-6.6-0.3-13.2-0.5-19.8c-0.1-2.6-2.1-3.7-4.4-2.5c-2.6,1.5-4.2,4.3-4.2,7.3l0.5,17
		c0.1,2.5,0.1,5,0.2,7.6c0,1.2,0.1,2.5,0.1,3.7c-6.4,1.8-14.3,1.5-20.5,1.4c-8.3-0.1-16.5-0.8-24.8-0.9c-16.4-0.2-33.2,2.3-49.5,0.3
		c-4.6-0.5-9.5,10.3-4.1,11c12.8,1.5,26,0.2,38.8-0.2c12.5-0.4,24.9,0.7,37.4,0.8c5.8,0.1,11.6-0.3,17.4-1.3
		c5.4-0.9,10.8-1.9,13.2-7.3C451.3,643.3,449.9,636.5,449.8,631.2z"/>
	<path class="st8" d="M276.9,606.6c-0.6-7.1-9,0.2-8.6,4.8c0.5,6.6,1.4,13.2,1.8,19.9c0.3,3.8,0.1,7.7-0.6,11.5
		c-0.5,2.3-0.7,2.8-2.9,3.4c-1.9,0.4-3.8,0.7-5.7,0.8c-15.2,1.2-30.9-0.7-46-2.2c-4.6-0.5-9.4,10.5-4.1,11c9.8,1,19.6,1.9,29.4,2.2
		c8.6,0.3,20,1.7,28.1-2.2c7.8-3.8,10-13.7,10.5-21.5C279.3,625,277.6,615.8,276.9,606.6z"/>
	<path class="st8" d="M143.3,607.4c-0.4-7.1-8.9,0.2-8.6,4.8c0.3,6.3,0.5,12.7,0.5,19c0,2.8,0,5.7-0.1,8.6c0,1.6-0.1,3.2-0.1,4.8
		c0,0.2,0,0.5-0.1,0.9c-5.6,1.1-11.7,1.3-17.2,1.6c-7.4,0.4-14.8,0.3-22.2,0.1c-14.9-0.5-29.7-1.9-44.5-2.5
		c-4.7-0.2-9.3,10.8-4.1,11c24.6,1,49.3,4.1,73.9,1.9c5.2-0.5,11.7-0.5,16.6-2.5c4.4-1.7,5.8-6.2,6-10.5
		C144,632.1,144,619.7,143.3,607.4z"/>
	<path class="st4" d="M335.6,603.1c0.4-2,1.1-4.6,5.8-5.6c1.2-0.2,90.7-1.1,96.4,0.5s6.4,7.1,6.2,9.4c-0.1,1.5,0.2,33-0.2,36
		c-0.2,1.4-0.2,4.2-2.3,5.4c-3.7,2.1-99.1,1.7-101.2,0.8s-4.2-5.1-4.5-7.6S335.2,605.1,335.6,603.1z"/>
	<path class="st4" d="M203.9,646.7c0.2,1,3.1,3.3,5.3,3.8c0.6,0.1,55.9,1.4,58.5-0.4c3.3-2.4,3.1-8,3.1-8.8c0,0,0.2-37.7,0-39.2
		c-0.1-0.7-2.6-3.7-3.6-4.2c-1.8-1.1-50.4-0.6-55.1-0.8c-7.5-0.3-8.2,3.8-8.3,5.1S203.7,645.7,203.9,646.7z"/>
	<path class="st4" d="M137.5,601.9c-0.6-2-2.1-3.6-4.1-4.4c-4.3-1.4-83.2-1.4-90.9-0.5c-3.9,0.5-3.1,6.4-3,7.2l-0.7,38.2
		c0.2,1.6,2.5,6.8,3.7,7.4c2.1,1.1,85,1.7,90.8,0.7c4.7-0.8,3.6-2.8,3.8-4.1S137.8,603,137.5,601.9z"/>
	<path class="st5" d="M439.8,600.5c-14.5-1.9-29.1-2.7-43.8-2.3c-6.8,0.2-13.5,0.7-20.2,0.7c-7.2,0-14.4-1-21.6-0.9
		c-4.7,0.1-11.5-0.2-15,3.5s-3.3,10.9-3.8,15.7c-0.6,5.9-1.2,11.8-0.4,17.7c0.6,4.4,2,11.3,6.8,12.7c3.3,0.9,7.1-7.1,3.1-8.2
		c-3.8-1-3.9-11.8-3.8-14.6c0.2-5.1,0.6-10.2,1.4-15.3c0-0.1,0.1-1.3,0.3-2.4l0.7-0.2c3,0.2,6.4-0.7,9.5-0.7
		c5.7,0.1,11.3,0.7,17,0.8c10.8,0.3,21.7-0.8,32.5-0.7c10.6,0.1,21.1,0.8,31.6,2.1c0.3,0.7,0.9,1,2.1,0.7l1.4-0.4
		C439.8,607.9,444.1,601,439.8,600.5z"/>
	<path class="st6" d="M444.5,602.5c-1.8-5.2-6.5-5.1-11.3-5.7c-12-1.4-24.5-0.9-36.6-0.9c-13.9,0-27.7-0.3-41.6,0.2
		c-5,0.2-11.4-0.4-16.2,1c-5.4,1.5-3.5,7.4-3.9,11.5c0,0,0,0.1,0,0.2c-1.2,8-0.2,16.9,0,25c0.1,4.7-1,12.2,3.2,15.8
		c3.3,2.8,9.8,1.6,13.9,1.9c19.1,1.1,38.4,0.1,57.5-0.1c9.5-0.1,19.6,0.8,28.9-0.4c5.6-0.7,6.6-2.8,6.6-7.9c0-9.9,0.1-19.8,0.1-29.7
		C445.1,609.8,445.6,605.7,444.5,602.5z M439.8,648.3c-3.2,1.2-7.9,0.4-11.2,0.4c-4.8,0-9.5,0.1-14.2,0.2
		c-17.8,0.2-35.6,0.6-53.4,0.5c-3.7,0-7.4-0.1-11.1-0.3c-4.5-0.2-9.5,1-11.9-3.8c-1.6-3.3-1-7.7-1.1-11.3c-0.3-8-1.6-17.1-0.4-25
		c0,0,0-0.1,0-0.1c0.2-1.6,0-3.2,0.1-4.9c0.3-3.8,2.2-5,5.5-5.2c4.7-0.3,9.4-0.5,14-0.7c11.5-0.3,23,0,34.5,0
		c9.2,0,18.4,0.1,27.6,0.3c6.5,0.1,13,0.1,19.4,1.3c5.4,1,5.3,6,5.3,10.5c0,9.2,0,18.3,0,27.5C442.9,641.2,443.7,646.7,439.8,648.3
		L439.8,648.3z"/>
	<path class="st5" d="M268.4,600.9c0-0.7-0.3-1.8-1-2.1c-3.9-1.8-9-1.6-13.2-1.7c-4.8-0.1-9.5,0.2-14.3,0.9h-0.1
		c-1.1-0.1-2.3-0.3-3.4-0.4c-4.4-0.5-8.9-0.8-13.4-0.9c-4.1-0.1-9.5-0.7-13.5,0.8c-7.4,2.8-4.3,12.7-4.3,18.7
		c0.1,10,0.8,20.6-0.2,30.5c-0.6,5.8,5.9,2.3,6.3-1.6c0.7-7,0.3-14.2,0.3-21.2c0-3.8,0.1-7.5,0-11.3c0-2.4-0.4-5.2-0.6-7.7
		c2.3-0.1,4.6-0.1,6.9,0c3.2,0,6.4,0.2,9.6,0.5c6.4,0.5,12.7,1.3,19.1,2.1C252.9,608.1,269.1,612,268.4,600.9z"/>
	<path class="st5" d="M136.7,599.9c-6.6-2.1-13.3-1.8-20.2-1.8c-8.1,0-16.2,0-24.3,0c-15.9-0.1-31.8-0.3-47.8-0.5
		c-2.7,0-4.9,3.4-4.8,5.9c0.4,7.6,0.8,15.2,0.9,22.9c-0.6,6.4-0.5,12.9-0.6,19.2c0,2,1.7,2.7,3.3,1.9c2-0.9,3-3.5,3.2-5.5
		C47,635,47.1,628,47,621c0.7-5.5,2.1-10.7,5.1-14.9c11.7,0.1,23.4,0.2,35.1,0.3c7.8,0,15.5,0,23.3,0c7.1,0,14.8-0.9,21.7,1.3
		C135.8,608.9,140,601,136.7,599.9z"/>
	<path class="st6" d="M138.4,635.6c0-7,0-13.9-0.1-20.8c0-4.1,0.4-8.5-0.2-12.7c0-0.1,0-0.1,0-0.2c-0.7-5.7-4.2-5.4-9.2-5.7
		c-5.9-0.4-11.8-0.7-17.7-0.7c-10.2,0-20.5,0-30.7,0c-9.3,0-18.7,0-28,0.2c-4,0.1-12.3-0.9-13.9,3.9c-1,2.7-0.4,7-0.5,9.9
		c-0.2,10.7-1,21.5-0.6,32.1c0.2,4.1,1,8.9,5.5,9.7s9.6,0.2,14.2,0.3c21.4,0.2,42.8,1,64.2,0.5c3.8-0.1,14.5,1.5,16.4-3.3
		C139.2,645.3,138.4,639.4,138.4,635.6z M136.8,612c-0.1,5.7-0.1,11.3-0.2,17c-0.1,4.1,0,8.3-0.2,12.4c0.1,1.8-0.1,3.5-0.4,5.2
		c-1.1,3.7-4.8,2.9-7.9,3c-19.6,0.7-39.3,0-59-0.2l-14-0.2h-3.6c-4,0-9.1,1.2-10.8-3.2c-1.2-3.2-0.8-6.7-0.7-10
		c0.1-5.2,0.2-10.5,0.3-15.7c0.1-4.7,0.2-9.4,0.2-14.2c0-0.7,0-1.5,0-2.2c0-2-0.2-3.2,1.4-4.7c1.4-1.2,3.1-1.2,4.9-1.3
		c8.5-0.5,17-0.4,25.4-0.4H107c3.6,0,7.1,0,10.7,0.1c3.8,0.1,7.6,0.2,11.3,0.4c3.3,0.2,7,0,7.7,4c0,0,0,0.1,0.1,0.1
		C137.2,605.4,136.8,608.9,136.8,612z"/>
	<path class="st6" d="M271.8,635.3c-0.1-8.8-0.2-17.6-0.3-26.4c0-0.9,0-1.7,0-2.6c-0.1-1.7,0.4-5.2-0.3-6.6
		c-1.6-3.3-8.5-3.3-11.6-3.5c-9.2-0.7-18.4-0.7-27.6-0.5c-5.1,0.1-10.2,0.3-15.4,0.4c-4,0-8.9-0.9-12,2.2c-1.8,1.8-1.9,3.9-1.9,6.2
		c0,4.6,0.1,9.2,0.1,13.8c0.1,9.2,0.4,18.3,0.4,27.5c0,0.1,0,0.2,0,0.3c0.7,6.9,9.8,5.7,14.8,5.8c9,0.2,18.1,0.3,27.1,0.4
		c2.3,0,4.6,0,7,0.1c4.6,0.1,10.8,1,15.1-0.8C272.7,649.1,271.9,640.2,271.8,635.3z M269.8,641.3c-0.1,2-0.7,5.5-2.1,7
		c-1.7,2-5.4,1.6-7.8,1.7c-3.9,0.1-7.9,0-11.9-0.1c-6.7,0-13.4-0.1-20.2-0.2l-13.4-0.1c-3.3,0-9,0.7-9.8-4l0,0
		c0.1-13.9-0.2-27.8,0.3-41.8c0.1-3.8,2.1-5.7,6.4-5.8s8.4,0.1,12.6,0c7.7-0.2,15.4-0.4,23.1-0.1c4.2,0.2,8.5,0.1,12.7,0.4
		c2.1,0.2,6.7,0.2,8.4,1.6c1.4,1,1.1,4.3,1.2,6.2c0.4,6,0.2,12.1,0.2,18.1C269.6,629.9,270.1,635.7,269.8,641.3L269.8,641.3z"/>
	<path class="st7" d="M24.4,564.5c-0.9-0.2-1.8-0.5-2.7-0.9c-2-1.4-1.3-2.8,0.4-3.4c2.1-0.7,3.2,0.9,5,0.7c0.2,0,0.4-0.1,0.4-0.3
		c1.2-4-8.2-3.7-9.2,0.2c-0.5,2.2,1.1,4,3,4.9c1.2,0.6,3.5,0.5,4.4,1.5c2,2-1,3.2-2.3,3.3c-1.5,0.2-3-0.5-3.8-1.8
		c-0.3-0.5-1.1-0.7-1.6-0.4c-0.5,0.3-0.7,1.1-0.4,1.6c0,0.1,0.1,0.1,0.1,0.2c1.5,2,4,2.9,6.4,2.5c1.9-0.4,4.4-1.9,4.5-4.1
		C29,566,26.3,565.1,24.4,564.5z"/>
	<path class="st1" d="M472.1,586.7l-93.7-1.6c-1.9,0-3.7,2-4.8,4.2c-37.9,0-75.8-0.8-113.7-1.9c-70.4-2-140.9-4.5-211.3-3.1
		c-9.4,0.2-19.1-0.1-28.5,0.9c-7.3,0.7-11.3,6-11.6,13.1c-0.9,19.5-0.2,39.6,1,59.1c0.4,6.2,7.8-0.2,7.6-4.2c-1-16.5-1-33-1-49.5
		c0-2,0-3.9,0-5.9c-0.1-1-0.1-2,0-3l0,0c1.4-0.6,3.8-0.3,5.2-0.3l6.9-0.2c8.3-0.2,16.5-0.4,24.8-0.6c33.7-0.6,67.4-0.2,101.2,0.5
		c66.8,1.4,133.6,4.2,200.4,4.6c38,0.2,76-0.4,114-2.6C472.3,596.1,476.8,586.7,472.1,586.7z"/>
	<path class="st7" d="M45,563.8c-0.5-3.1-2.2-5.1-5.5-5.2c-2-0.1-4,0.6-5.4,2c-0.1-0.6-0.2-1.2-0.3-1.8c-0.1-0.6-0.6-0.9-1.1-0.9
		s-0.9,0.6-0.9,1.1c0.2,6.1,0.8,12,0.5,18.1c-0.1,1.5,2.3,1.5,2.4,0c0.1-2.1,0.2-4.2,0.2-6.3c2.1,1.5,4.8,1.8,7.1,0.8
		C45.1,570.6,45.5,566.8,45,563.8z M42.4,569c-1.4,2-5.6,1.6-6.9-0.2c-0.2-0.2-0.4-0.4-0.7-0.4c-0.1-1.8-0.2-3.6-0.4-5.4
		c1-1.1,2.3-1.8,3.7-2.2c2-0.4,4.2,0.2,4.8,2.3C43.2,564.8,43.4,567.5,42.4,569z"/>
	<path class="st7" d="M59.7,564.2c0-1.6,0-3.3-1-4.6c-2-2.5-6.4-1.3-8.8-0.2c-1.2,0.5-0.3,2.4,0.9,2c1.2-0.4,2.5-0.7,3.8-0.7
		c0.8,0,2,0.2,2.5,1c0.2,0.7,0.3,1.4,0.2,2.1v0.9c-1.3-0.8-2.8-1.1-4.3-1.1c-2.4,0.1-4.3,2-4.3,4.4c0,4.5,5.5,5,8.8,3.1
		c0,0.2,0,0.3,0,0.5c0.1,0.7,0.7,1.2,1.3,1.1c0.6-0.1,1.1-0.5,1.1-1.1C59.8,569.1,59.8,566.6,59.7,564.2z M54.3,569.7
		c-1.5,0.4-3.8-0.1-3.3-2.2s2.9-1.8,4.4-1.3c0.7,0.3,1.3,0.5,2,0.7c0,0.5,0,1,0,1.5C56.4,568.9,55.3,569.4,54.3,569.7z"/>
	<path class="st7" d="M74.3,561.2c1.2-2.6-3.2-3.3-4.8-3.2c-3.1,0.2-5,2.4-5.9,5.2s-0.3,6.1,2.3,7.9c3,2.1,6.8,1.5,9.8-0.3
		c0.6-0.3,0.8-1.1,0.4-1.7s-1.1-0.8-1.7-0.4c-2,1-4.1,1.8-6.3,0.9c-2.1-0.9-3.1-3.2-2.4-5.3c0.5-1.9,1.6-3.6,3.7-3.8
		c1.7-0.2,2.8,0.6,4.3,1C74,561.4,74.2,561.3,74.3,561.2L74.3,561.2z"/>
	<path class="st7" d="M88.8,569.2c-2.4,2-6.2,2-8-0.7c-0.4-0.6-0.6-1.2-0.8-1.8c2.9,0.3,5.9,0.3,8.8-0.1c1.7-0.2,3-0.7,2.4-2.7
		c-1.3-4.3-5.9-6.8-9.9-4.4c-3.4,2.1-4.6,6.5-2.5,10c0.1,0.2,0.3,0.5,0.5,0.7c2.8,3.7,8,3.6,11.3,0.8
		C91.7,569.9,90,568.2,88.8,569.2z M83.3,561.1c1.3-0.4,2.8,0,3.8,1c0.5,0.5,0.9,1,1.2,1.6l-0.3,0.1c-1.2-0.3-3.2,0.2-4.4,0.2
		s-2.3,0-3.4,0.1C80.5,562.6,81.8,561.5,83.3,561.1L83.3,561.1z"/>
	<path class="st7" d="M93.5,566.3c0.7,0.7,1.5,0.5,2.4,0.5c1,0.1,1.9,0.1,2.9,0c0.7-0.2,1.1-0.9,0.9-1.6c-0.1-0.4-0.5-0.8-0.9-0.9
		c-1-0.2-2-0.2-3.1,0c-0.9,0.1-1.9,0.1-2.4,1C93.2,565.6,93.3,566,93.5,566.3L93.5,566.3z"/>
	<path class="st7" d="M112.5,559.2c-1.9-1.8-7.2-1.2-8.5,1.2c-0.1,0.3,0,0.6,0.2,0.7c0.1,0,0.2,0.1,0.2,0.1c1,0,1.9-0.2,2.8-0.5
		c2.2-0.5,4.3,0.1,4.7,2.7c0.1,0.5,0.1,1.1,0.1,1.6c-1.7-0.8-3.5-1.2-5.4-1.2c-2-0.3-3.8,1.1-4.1,3.1c0,0.3,0,0.6,0,0.9
		c0.1,2.1,1,4.6,3.3,5.2s4.3-0.8,6.1-2.2L112,572c-0.1,1.5,2.4,1.5,2.3,0C114.1,568.4,115.5,562,112.5,559.2z M108.5,570.5
		c-2.3,1.1-3.5-0.7-3.7-2.8c-0.2-3.3,4.9-1.3,7.4-0.7v1.1C111,569,109.8,569.8,108.5,570.5L108.5,570.5z"/>
	<path class="st7" d="M125.7,558.6c-1.3-0.5-3.1,0.9-4,1.7c-0.2,0.2-0.5,0.4-0.7,0.7c-0.1-0.8-0.5-1.5-1.2-1.9c0,0-0.1,0-0.1,0
		c-1.2,1.2-0.6,3.2-0.6,4.8c0,2.5-0.3,5-0.4,7.6c-0.1,1.3,2,1.6,2.2,0.3c0.4-2.6,0.6-5.2,0.3-7.9c0-0.2,0-0.3,0-0.5
		c0.6-0.6,1.2-1.2,1.9-1.6c0.5-0.3,1-0.5,1.5-0.7c0.6-0.2,1.1-0.2,1.5-0.7c0.4-0.4,0.3-1-0.1-1.4C126,558.7,125.9,558.6,125.7,558.6
		z"/>
	<path class="st7" d="M139.7,559.9c-0.3-0.4-0.8-0.4-1.2-0.1c0,0-0.1,0.1-0.1,0.1c-2.6-2.5-7-2-9.4,0.7s-2.8,7.4-0.2,10.1
		C135.1,577.3,145.9,566.4,139.7,559.9z M137.6,568.9c-1.9,1.8-5.5,2.6-7.4,0.5c-1.8-1.9-1.5-5.3,0.1-7.2c1.9-2.2,5-2,7.4-0.6
		c0.2,0.1,0.5,0.1,0.8,0C139.4,564,139.8,566.7,137.6,568.9L137.6,568.9z"/>
	<path class="st7" d="M158,571.7c-0.6-4.3-0.9-8.5-0.9-12.8c0-0.7-0.5-1.2-1.2-1.2s-1.2,0.5-1.2,1.2l0,0c0,1.9-0.2,3.8-0.6,5.6
		c-0.3,1.4-0.6,4.1-1.9,5c-1.4,1-3.3,0.7-4.3-0.7c-0.1-0.1-0.2-0.2-0.2-0.4c-0.3-1-0.5-2-0.6-3c-0.2-2-0.2-4-0.1-6
		c0-0.5-0.3-0.9-0.8-1h-0.1c-0.4-0.1-0.7,0.1-0.9,0.4c-0.6,0.9-0.5,2.7-0.6,3.7c-0.1,1.8,0.1,3.6,0.4,5.3c0.5,2.7,1.9,4.5,4.7,4.8
		c2.4,0.2,4.6-1.1,5.6-3.3c0.1,0.9,0.2,1.9,0.3,2.8c0,0.7,0.6,1.2,1.3,1.1c0.7,0,1.2-0.6,1.1-1.3C158,571.9,158,571.8,158,571.7z"/>
	<path class="st7" d="M172.5,562.8c-0.1-1.7-0.3-3.4-2-4.2c-2.1-1-5.4-0.1-7.2,1.7c0-0.5-0.1-1-0.2-1.4c-0.1-0.5-0.6-0.8-1.1-0.6
		c-0.3,0.1-0.5,0.3-0.6,0.6c-0.4,2.5-0.5,5-0.5,7.5c0,1.8-0.7,4.3,0.7,5.7c0.5,0.4,1.2,0.4,1.6,0c0.1-0.1,0.2-0.3,0.3-0.5
		c0.7-1.8,0.1-4.3,0.1-6.2c0-1,0-1.9-0.1-2.9c2.2-1.2,5.6-3.8,6.6-0.2c0.2,1.3,0.2,2.7,0.1,4c0,1.7,0,3.3-0.1,4.9s2.7,1.7,2.6,0
		C172.6,568.5,172.7,565.7,172.5,562.8z"/>
	<path class="st7" d="M188.7,562.4c0-2.9,0.4-6.1-0.6-8.8c-0.1-0.3-0.4-0.5-0.8-0.4c-0.2,0.1-0.4,0.2-0.4,0.4l0,0
		c-0.7,2.1-0.9,4.2-0.8,6.4c-1.3-1.3-3.1-2-4.9-1.7c-2.7,0.5-4.8,3.7-5.1,6.3c-0.3,3,1.1,5.8,3.6,7.5c2,1.2,4.5,0.6,6.5-0.7
		c0,0.4,0,0.8,0,1.2c0,0.7,0.6,1.3,1.3,1.3c0.7,0,1.3-0.6,1.3-1.3C188.8,569.1,188.7,565.7,188.7,562.4z M183.3,569.8
		c-3.1,1.1-5.4-2.1-5.1-4.9c0.2-1.9,1.6-4.2,3.6-4.5s3.1,1,4.5,2c0,2,0,3.9,0,5.9C185.2,568.7,184.4,569.4,183.3,569.8z"/>
	<path class="st7" d="M27.9,696.8c-2.8-3-10.2-3.2-10,2.2c0.1,2.5,2.2,3.2,4.1,3.9c1.3,0.5,5.2,1.3,4.1,3.2c-0.4,0.8-1.7,1-2.5,1.2
		c-1.9,0.4-3.2,0.2-4.4-1.5c-0.2-0.6-0.9-0.8-1.4-0.6c-0.6,0.2-0.8,0.9-0.6,1.4c1.1,5.1,11.1,4,11.7-0.9c0.2-2-2.3-3.1-3.9-3.7
		c-1-0.4-2-0.7-3-1.1c-0.5-0.2-1-0.4-1.4-0.6c-1.2-1.6-1-2.7,0.6-3.3c1.8-0.7,3.9,0.6,5.4,1.3c0.5,0.3,1.1,0.3,1.4-0.2
		C28.5,697.7,28.4,697.1,27.9,696.8L27.9,696.8z"/>
	<path class="st7" d="M44.6,701.2c-0.6-2.8-2.4-5.5-5.4-5.9c-1.9-0.2-3.8,0.4-5.4,1.5c0-0.3-0.1-0.6-0.1-0.9
		c-0.2-0.9-1.5-0.7-1.6,0.2c-0.3,5.7-0.5,11.6-0.3,17.3c0,1.3,2.2,1.3,2.1,0c-0.1-2,0-4,0.1-6.1c2,1.7,4.8,2.2,7.2,1.3
		C44.2,707.4,45.2,704.2,44.6,701.2z M40.6,706.3c-2.2,1.2-4.3,0-6-1.5c-0.1-0.1-0.3-0.2-0.5-0.2c0.1-1.8,0.1-3.7,0-5.5
		c0.7-0.4,1.4-1.1,2.2-1.4c2.6-1.2,5,0.2,5.9,2.8C42.8,702.5,42.6,705.2,40.6,706.3L40.6,706.3z"/>
	<path class="st7" d="M59.7,701c-0.2-1.7-0.3-3.8-1.7-5c-2-1.9-7.6-1.4-8.7,1.2c-0.1,0.2,0.1,0.4,0.3,0.5c2.6,0.8,6.3-2.6,7.5,1.5
		c0.2,0.8,0.4,1.6,0.4,2.5c-3-2-8.9-1.3-9.2,2.7c-0.2,2.2,1.8,4,3.8,4.5c1.9,0.3,3.8,0,5.4-0.9v0.2c-0.1,0.6,0.3,1.1,0.9,1.1
		s1.1-0.3,1.1-0.9C60.1,706,60.1,703.5,59.7,701z M50.5,704.8c-0.1-1.2,0.4-1.5,1.5-1.8c0.6-0.2,1.2-0.3,1.9-0.3
		c1.3,0,2.6,0.3,3.7,1c0,0.5,0,0.9,0,1.4C55.2,706.2,51,708.6,50.5,704.8z"/>
	<path class="st7" d="M75.2,697.2c-1.1-2.8-4.4-2.7-6.9-2c-2.8,0.8-4.8,3.2-5,6.2c-0.3,2.7,0.4,5,2.7,6.5c3.1,2,5.9,1.5,9-0.1
		c1.4-0.7,0.2-2.9-1.3-2.2c-2,1-3.7,1.5-5.8,0.7c-1.9-0.7-3-1.9-3-4c0-5,5-6.5,8.7-4c0.5,0.3,1.1,0.1,1.4-0.4
		C75.1,697.6,75.2,697.4,75.2,697.2L75.2,697.2z"/>
	<path class="st7" d="M89.6,706.2c-1.9,0.6-3.9,1.3-5.8,0.8c-1.9-0.4-3.3-1.9-3.7-3.7c1.6,0.1,3.1,0,4.7,0c1.8,0,3.9,0.3,5.6-0.2
		c0.5-0.2,0.9-0.6,0.9-1.2c0.2-2.8-2.6-6.1-5.2-6.8c-3-0.7-6.1,0.8-7.3,3.6c-0.3,0.8-0.5,1.6-0.6,2.5c-0.5,0.4-0.6,1-0.3,1.5
		c0.1,0.1,0.2,0.2,0.3,0.3c0.1,1.8,0.9,3.4,2.1,4.7c2.8,2.6,6.7,1.9,9.9,0.9C91.7,708.1,91.1,705.7,89.6,706.2z M84.8,697.1
		c1.9,0.5,3.4,1.9,4,3.7c-1.6,0.1-3.4-0.1-4.9-0.1c-1.3,0-2.6,0-3.8,0.1l0,0C80.4,698.5,82.2,696.5,84.8,697.1z"/>
	<path class="st7" d="M93.4,703.4c0.8,0.6,2,0.5,2.9,0.5c1.1,0.1,2.1,0,3.2-0.1c1.4-0.2,1.4-2.6,0-2.8c-1.1-0.1-2.3-0.1-3.4,0
		c-1-0.1-2.1,0.2-2.9,0.8c-0.4,0.4-0.4,1-0.1,1.4C93.2,703.3,93.3,703.3,93.4,703.4L93.4,703.4z"/>
	<path class="st7" d="M115.2,702.9c0.7,0,1.3-0.6,1.3-1.3c0-0.1,0-0.2,0-0.3c-0.9-3-3.3-5.4-6.4-6.1c-3-0.7-5.7,1.8-6.7,4.5
		c-2.8,7.5,5.8,12.3,11.6,7.8c1.2-0.9-0.3-2.4-1.4-1.9c-2.1,0.9-3.5,1.9-5.9,1c-1.4-0.5-2.4-1.6-2.7-3
		C108.3,703.6,111.8,703.5,115.2,702.9z M105.3,700.3c1.8-4.4,6-2.9,7.9,0.2c-2.7,0.2-5.5,0.3-8.2,0.7
		C105.1,700.8,105.2,700.5,105.3,700.3z"/>
	<path class="st7" d="M129.3,695.8c-1,2.1-2,4.2-3,6.4c-0.4,0.9-0.8,1.7-1.2,2.6c-0.1,0.1-0.4,1-0.7,1.6c-0.9-1.6-1.5-3.8-2.2-5.2
		c-0.8-1.9-1.5-4.2-2.9-5.7c-0.3-0.2-0.7-0.2-0.9,0c-0.1,0.1-0.2,0.3-0.2,0.4c-0.1,2.5,1.3,5.2,2.3,7.5c0.8,2,1.5,4.5,2.9,6.1
		c0.3,0.3,0.8,0.5,1.3,0.3c1.6-0.4,2.3-2.9,2.9-4.2c1.3-2.9,2.7-5.7,4-8.6C132.2,695.6,130.1,694.2,129.3,695.8z"/>
	<path class="st7" d="M143.6,696.4c-1.4-1.4-3.5-1.8-5.2-0.9c-3.7,1.7-6.6,7.4-4.1,11c2.9,4.3,7.6,3.6,11.4,1.2
		c1.3-0.8,0.1-2.9-1.2-2.1c-2.5,1.6-5.4,2.8-7.8,0.3c-0.8-0.7-1.2-1.8-1.1-2.8c2.6,0.3,5.3,0.2,7.9,0.3c1.4,0.1,3.5,0.4,3.7-1.5
		S144.9,697.6,143.6,696.4z M142.1,700.9c-1.9-0.2-3.9-0.2-5.8,0c0.8-1.5,2.7-4.1,4.8-3.3c0.9,0.6,1.7,1.3,2.4,2.2
		C145,701.6,143.6,701,142.1,700.9z"/>
	<path class="st7" d="M162,699.4c0-1.6-1-3-2.5-3.5c-1.6-0.6-5.2,0.3-6.9,2c-0.1-0.6-0.2-1.3-0.4-1.9c-0.2-0.8-1.6-0.9-1.7,0
		c-0.6,4.1,0.2,8.5,0.3,12.6c0,1.7,2.8,1.6,2.6,0c-0.3-2.6-0.2-5.4-0.4-8.1c1.8-0.7,3.3-3,5.4-2.4c2.6,0.7,1.4,7.8,1.2,9.7
		c-0.2,1.6,2.4,1.6,2.6,0C162.4,705,162.4,702.2,162,699.4z"/>
	<path class="st7" d="M166.5,690.4c-0.9,2-0.4,4.9-0.5,7.1c-0.1,3.5-0.1,7,0,10.5c0.1,1.6,2.6,1.5,2.4,0c-0.5-3.9-0.2-7.9-0.2-11.9
		c0-1.1,0.5-5.3-0.9-5.9C167,690.1,166.7,690.2,166.5,690.4L166.5,690.4z"/>
	<path class="st7" d="M182.3,695.5c-1.8,2.9-3.4,5.9-4.6,9.1c-1.4-3.2-3-6.2-4.9-9.2c-0.5-0.8-1.9-0.5-1.8,0.5
		c0.1,2.1,1.4,3.8,2.2,5.7c1,2.2,2,4.5,3,6.8c-0.9,2.3-2,4.3-4.7,4.6c-1.3,0.1-1.8,2.1-0.3,2.4c3.8,0.9,5.3-1.5,6.6-4.7
		c0.2-0.5,0.4-0.9,0.6-1.4c0.4-0.3,0.7-0.8,0.6-1.4c1.8-3.8,3.8-7.6,5.2-11.5C184.9,695.1,183,694.5,182.3,695.5z"/>
	<path class="st3" d="M434.7,781.2c-0.3-3.2-1.2-6-1.2-9.3s0.2-6.3,0.4-9.5c0.5-7,0-14-1.3-20.8c-0.6-2.8-3.8-1.9-5.3-0.6
		c-2.3,1.9-3.4,4.8-3,7.8c1.5,6.8,1.3,13.4,0.9,20.3c-0.2,3.2-0.4,6.3-0.3,9.5c0,1.2,0.1,2.5,0.2,3.8c-1.3,0.4-2.6,0.8-3.9,1.2
		c-4.1,1-8.4,1.2-12.6,0.8c-8.6-0.6-17.2-1.8-25.8-2.7c-8.7-1.1-17.4-1.5-26.1-1.2c-8.7,0.4-17.4,1.7-26.1,1.4
		c-4.7-0.1-9.3,10.8-4.1,11c14.2,0.4,28.2-2.1,42.5-1.1c14,1,28.2,4.4,42.2,3.8C419.3,795.2,435.7,792.5,434.7,781.2z"/>
	<path class="st3" d="M278.5,743.6c-0.6-2.8-3.8-1.9-5.3-0.6c-2.3,1.9-3.4,4.8-3,7.8c1.7,7.7,2.2,15.7,1.4,23.6
		c-0.2,2-0.5,3.9-0.8,5.9c-0.1,1-0.3,2-0.4,2.9c0,0.2-0.1,0.3-0.1,0.4c-2.9,1-7.7,0.3-10.6,0.3c-15.3,0.2-31.4,0.3-46.4-2.2
		c-4.6-0.8-9.5,10.1-4.1,11c10.2,1.7,20.7,1.7,31,2c5.1,0.2,10.3,0.2,15.4,0.2c4.4-0.1,9.6,0.3,13.9-0.9c9-2.5,9.6-13.1,10.5-20.8
		C281,763.3,280.6,753.3,278.5,743.6z"/>
	<path class="st3" d="M164,741.2c-0.5-2.8-3.8-1.8-5.3-0.6c-2.3,1.9-3.4,4.8-3,7.8c2.1,10.8-0.1,21.8,0.5,32.7c0,0.1,0,0.8,0.1,1.5
		c-2.6-0.3-5.7,0.6-8.4,0.6c-5.2-0.1-10.5-0.6-15.7-0.9c-10.7-0.6-21.5-0.9-32.2-1c-5.5-0.1-11.1-0.1-16.6,0
		c-4.2,0.1-9.9-0.9-13.8,1.1c-3,1.5-6.1,7.5-2.9,10.2l0.2,0.2c1,0.8,2.5,0.2,3.6-0.6c1.8-0.3,5.4,0.3,6.8,0.2c3.2,0,6.5-0.1,9.8-0.1
		c6.5,0,13,0.1,19.5,0.2c13,0.3,26,1.8,39,1.7c4.7,0,10.5-0.1,14.4-3.1s5.4-7.5,5.2-12.3C164.5,766.3,166.4,753.6,164,741.2z"/>
	<path class="st4" d="M319.3,739.8c0.7-1.9,1.2-4.5,5.9-5.5c1.2-0.2,95.4-1.3,99.1,0.8s4,8.1,3.9,10.5c-0.1,1.5,1.2,30,0.8,33
		c-0.1,1.4-1.8,8.3-4.1,8.5c-2.5,0.3-98.8,0.5-100.8-0.4s-4.7-5.6-5-8S318.3,742.6,319.3,739.8z"/>
	<path class="st4" d="M206,783.6c0.8,2.8,3.3,3.2,5.6,3.8c0.6,0.1,55.2,0.6,55.2,0.6c3.8-0.1,5-6,5.5-6.5c1.2-1.1,0.1-40.7-0.1-42.2
		c-0.1-0.7-5.7-4.5-6.6-5c-1.8-1.1-46.5,0.2-50.2-0.1c-6.8-0.5-9.5,4.1-9.6,5.3S205.7,782.6,206,783.6z"/>
	<path class="st4" d="M158.3,739.4c-1-3-5.2-5.1-7.8-5.6c-0.7-0.1-84.2-0.4-85.8,0c-1.2,0.3-3.1,2.1-3.7,2.6
		c-1.4,1.1-1.4,42.8-1.4,42.8c0,3.9,5.3,7.2,6.4,7.8c2.1,1.1,88.6,0.5,89.9,0.2c3-0.8,3.9-4.1,4-5.4S158.6,740.4,158.3,739.4z"/>
	<path class="st5" d="M155.7,735.6c-12.3-3.2-24.9-3.1-37.6-2.5c-13,0.6-25.8,1.1-38.8,0.6c-4-0.2-10.4-2-13.8,0.9
		c-3.6,3-2.6,8.1-2.6,12.2c-0.2,12.3-3,25.7,0.8,37.8c1.3,4.4,7.2-2.1,6.2-5.4c-2.2-7-1.6-14.7-1.2-21.9c0.2-3.4,0.4-6.9,0.6-10.3
		c0.1-1.9,0.1-3.8,0.1-5.6c0-0.1,0-0.1,0-0.2c2.4,0.1,5.3,0.7,6.9,0.8c3.8,0.1,7.7,0.2,11.5,0.2c7.3,0,14.5-0.2,21.8-0.6
		c14.5-0.7,29-1.5,43.1,2.2C155.9,744.7,159.7,736.6,155.7,735.6z"/>
	<path class="st5" d="M271.3,738.6c-2.1-6.9-11-4.7-16.5-4.4l-25,1.3c-3,0.2-6,0.3-9,0.6c0-0.1,0-0.1,0-0.2
		c-1.5-5.5-10.3-1-12.9,1.4c-5.4,5.2-1.6,13.8-2.5,20.4l-0.2,1.2c-0.3,1.6,0.3,3.1,1.8,3.2c-1.1,7.7-1.8,15.5,1.1,23
		c1.6,4.3,7.4-2.2,6.2-5.4c-3.4-8.9-1-17.7,0-26.8c0.2-1.5,0.2-3.1,0.4-4.6c0.1-1.3,0.6-2.6,1.3-3.6c2.7-0.3,6.4-0.8,7.1-0.8
		c2.8-0.2,5.6-0.3,8.4-0.5l17.3-0.9c0.9,0,2.5-0.3,4.4-0.5c0.2,0.2,0.4,0.4,0.7,0.5c4.1,1.5,8.3,2.5,12.7,2.8
		C269.5,745.5,272.1,741.1,271.3,738.6z"/>
	<path class="st5" d="M425.9,735.7c-9.9-3-20.1-2.1-30.3-1.3l-19.4,1.5c-11.1,0.1-22.3,0-33.5-0.4c-5-0.2-11.8-1.6-16.5,0.3
		s-4.9,7.2-5.3,11.6c-1.1,12.8-2.6,25.8,2.5,37.9c1.8,4.3,7.6-2.2,6.2-5.4c-2.5-6.1-3.7-12.7-3.5-19.3c-0.1-5.9,0.3-11.7,1.1-17.5
		c2.5-0.2,6.7,0.4,8.4,0.5c4.5,0.2,9,0.4,13.6,0.5c3.3,0.1,6.6,0.1,9.9,0.2c0.2,0.6,0.8,1,1.5,0.9l12.3-1h2.4
		c8.4-0.1,16.8-0.7,25.2-0.4c7.6,0.2,15.5,2.4,22.9,0.2C426.2,743.1,429.9,737,425.9,735.7z"/>
	<path class="st6" d="M429.5,751.8c-0.1-3.5,0.1-7.1-0.3-10.5c-0.8-6.5-4.7-7.3-10.3-8c-11.9-1.5-24.1-0.6-36.1-0.6
		c-14.4,0-28.8-0.3-43.2,0.1c-5.2,0.2-11.4-0.3-16.5,1c-5.4,1.3-4.5,7.2-5,11.5c0,0,0,0.1,0,0.1c-1.4,9-0.2,19,0,28.1
		c0.1,3.9-0.1,8.3,2.3,11.6c2.9,3.8,9.6,3.1,13.8,3.4c18.8,1.2,37.6-0.8,56.4-0.5c10.1,0.2,20.3,1.2,30.4,0.7
		c5.4-0.3,8.8-2.2,9.2-7.8C430.8,771.3,429.8,761.4,429.5,751.8z M421,786.5c-8.5,0.5-17.3-0.2-25.8-0.6
		c-17.7-0.7-35.4,0.7-53.1,0.6c-3.9,0-7.8-0.2-11.6-0.4c-2-0.1-4.8,0.1-6.6-0.7c-2.5-1.1-3.5-4.4-3.8-6.9c-0.2-1.4-0.1-2.8-0.2-4.2
		c-0.2-5.6-0.3-11.1-0.4-16.7c-0.1-3.9-0.6-8.2,0-12c0,0,0-0.1,0-0.1c0.3-1.9,0.2-3.8,0.7-5.6c0.9-3.7,3.2-4.3,6.4-4.5
		c4.7-0.3,9.4-0.5,14.1-0.6c11.6-0.3,23.2,0,34.9,0c9.7,0,19.3,0,29-0.1c3.3,0,6.6-0.1,9.9,0.2c2.8,0.2,6.7,0.1,9.2,1.3
		c4.3,2,3.5,7.6,3.6,11.6c0.2,9.5,0.6,18.9,0.7,28.4C428,781.3,427.7,786,421,786.5z"/>
	<path class="st6" d="M273.5,772c-0.1-8.4-0.2-16.7-0.3-25.1c0-3,0.7-6.4-0.9-9.1c-2.9-5.1-9.1-5-14.2-5.1c-8-0.2-15.9-0.6-23.9-0.2
		c-5.3,0.3-10.6,0.5-16,0.6c-3.7,0.1-7.9-0.7-11,1.9c-4.9,4.1-2.8,14.2-2.7,19.6c0.1,9.2,0.4,18.5,0.4,27.7c0,0.1,0,0.2,0,0.3
		c0.7,6.9,9.8,5.7,14.8,5.8c9,0.2,18.1,0.3,27.1,0.4c7.1,0.1,15.2,1.5,22-0.5C274.4,786.6,273.6,776.8,273.5,772z M270.8,781.4
		c-0.4,2.3-0.6,4.1-2.9,4.9c-2.1,0.8-5,0.5-7.2,0.5c-3.7,0.1-7.3-0.1-11-0.1c-6.9,0-13.7-0.1-20.6-0.2l-12.9-0.1c-3.3,0-9,0.7-9.8-4
		l0,0c0.1-13.5-0.4-27.1,0.3-40.6c0.4-8.3,11-6.3,17.1-6.5c6.6-0.2,13.4-1,20-0.7c4.3,0.2,8.6,0.3,13,0.5c2.4-0.1,4.8,0,7.2,0.3
		c3.3,0.6,6.4,2.7,7,6.1c0.1,1.2,0.1,2.3,0,3.5c-0.1,6.2,0.2,12.5,0.3,18.7C271.4,769.6,271.8,775.6,270.8,781.4L270.8,781.4z"/>
	<path class="st6" d="M160.5,773.7c-0.4-11,0.2-22.6-1.5-33.4c0-0.1,0-0.2,0-0.3c-1.2-5.3-5.1-6.8-10-7.1
		c-5.7-0.3-11.4-0.6-17.1-0.6c-10.5,0-20.9,0-31.4,0c-9.5,0-19.1,0-28.6,0.2c-4.3,0.1-11.6-0.6-12.6,4.8c-0.6,3-0.2,6.6-0.3,9.6
		c-0.2,10.4-1.3,21.3-0.6,31.7c0.7,11.4,12.9,9.7,21.1,9.8c21.6,0.2,43.2,0.9,64.8,0.5c4.2-0.1,13.2,1.5,15.5-3.2
		C161.4,782.2,160.6,777.4,160.5,773.7z M158.3,783.1c-1.3,3.9-4.7,3.2-8.2,3.3c-19.4,0.6-38.9,0-58.3-0.2l-15.1-0.2
		c-4.2,0-10.5,1-13.6-2s-2.5-7-2.4-10.9c0.1-5.4,0.2-10.7,0.3-16.1c0.1-4.6,0.2-9.3,0.2-13.9c0-0.7,0-1.5,0-2.2c0-1.2-0.3-3,0.3-4.1
		c1-1.7,3.7-1.9,5.4-2.1c8.3-0.9,16.9-0.5,25.3-0.5h35c3.4,0,6.7,0,10.1,0.1c6.3,0.2,18-1.7,20.2,6c0,0,0,0.1,0.1,0.1
		c1.3,8.5,0.6,17.9,0.8,26.5c0.1,3.9,0.3,7.9,0.3,11.8C158.8,780.3,158.7,781.7,158.3,783.1z"/>
	<path class="st6" d="M478.9,647.8c-0.2-8.3-0.3-16.6-0.5-24.9c-0.1-8,0.2-16.2-0.6-24.2c-0.6-5.6-2.2-11.6-8-13.6
		c-7.1-2.5-16.2-0.5-23.6-0.3c-4.3,0.1-8.5-0.4-12.8-0.4h-80.8c-46.8,0-93.6,0.1-140.5,0.2c-44.4,0.1-88.8,0.2-133.2,0.3l-43,0.1
		c-7.3,0-15.4-0.7-22.6,0.4c-9.2,1.4-7,9.2-6.9,16.4c0,3,0,6,0,9c0.1,10.7,0.2,21.3,0.3,31.9c0,4.2-1.1,8.8-0.2,12.8
		c1.5,6.2,7.7,8.1,13.4,8.4c5.5,0.2,11-0.1,16.5-0.1l78.8-0.2c46.3-0.1,92.7-0.3,139-0.4l133.4-0.3c20.6-0.1,41.3-0.2,61.9-0.2
		c7.6,0,15.5,0.5,23-0.8s6-7.7,6.4-13.9C479,647.9,479,647.8,478.9,647.8z M477,654.9c-0.5,4.6-3.8,5.3-7.7,5.7
		c-5.4,0.5-10.8,0.3-16.2,0.3c-1.5,0-2.9,0-4.4,0h-7.4h-34.2l-120.3,0.2L147,661.4l-98.2,0.2c-5.3,0-10.6,0-15.8,0
		c-7.9,0-24.7,2.9-24.4-9.4c0.1-3.8,0.4-7.6,0.4-11.5c-0.1-10.5-0.1-21-0.2-31.5c0-3.3,0.1-6.6-0.1-9.9c-0.1-2.4-0.8-5.2-0.2-7.6
		c1-4.1,4.7-4.2,8.4-4.3c1.2-0.1,2.4,0,3.6-0.1c2.1,0,4.3,0,6.4,0l32.9-0.1l119.6-0.2l141-0.3c33.4-0.1,66.8-0.2,100.2-0.4
		c5.3,0,10.6-0.3,15.9-0.1c8.2,0.3,16.3-0.2,24.5-0.4c4.5-0.1,10-0.1,12.6,4.1c2.1,3.3,2.6,7.6,2.8,11.5c0.5,7.8,0.4,15.6,0.6,23.4
		s0.4,15.4,0.5,23.1c0,0,0,0.1,0,0.1C477.3,650.3,477.3,652.6,477,654.9z"/>
</g>
</svg>
