<?xml version="1.0" encoding="utf-8"?>
<!-- Generator: Adobe Illustrator 24.1.0, SVG Export Plug-In . SVG Version: 6.00 Build 0)  -->
<svg version="1.1" id="Ebene_1" xmlns="http://www.w3.org/2000/svg" xmlns:xlink="http://www.w3.org/1999/xlink" x="0px" y="0px"
	 viewBox="0 0 1617.6 426.9" style="enable-background:new 0 0 1617.6 426.9;" xml:space="preserve">
<style type="text/css">
	.st0{fill:#995DB5;}
	.st1{opacity:0.2;enable-background:new    ;}
	.st2{opacity:0.2;}
	.st3{opacity:0.15;enable-background:new    ;}
	.st4{fill:#F7941F;}
	.st5{opacity:0.25;fill:#FFFFFF;enable-background:new    ;}
	.st6{fill:#1E1E1E;}
	.st7{fill:#7F3F98;}
	.st8{opacity:0.15;fill:#1E1E1E;enable-background:new    ;}
	.st9{fill:#FFFFFF;}
</style>
<path class="st0" d="M982.6,374.2c4.5-7.6,5.6-17.8-2-18.9c1.1-2.3,2-4.7,2.4-7.2c0.7-3.8,0.3-9-3.8-10.5c0.2-0.6,0.4-1.2,0.6-1.8
	c1-3.7,1.6-13.3-4.9-12.8c-30.1,2.1-60.2,4.2-90.4,5c-5.3,0.1-10.7,0.2-16,0.3c-21-1.3-42-2.7-62.8-2.2c-2.6,0.1-5.2,0.2-7.8,0.2
	l-1.8-0.1c-29.4-1.7-58.8-3.9-88.2-4c-23.7,0-47.5,1.2-71.1,3.7l-2.8-0.2c-31.7-2.2-63.4-3.7-95.1-1h-0.1l-2.6,0.2
	c-0.5,0.1-1.1,0.2-1.6,0.3c-3.9-0.5-7.8-1.1-11.6-1.7c-10.4-1.8-21.5,20.6-13.3,26.3c-5.6,7.2-8.2,18.6,0.7,21.2
	c0.8,0.2,1.7,0.5,2.5,0.7l-0.1,0.1c-5.6,6.8-9.6,20.2,0.6,24.9c6.6,3,15.5,3.2,22.7,4.2c14.7,1.9,29.4,3.1,44.2,3.5
	c41.8,1.3,83.5-2.4,125.2-5.8c0.6,0.2,1.2,0.4,1.8,0.4c70,3.9,140.4,7.5,210.2-2c17.4,1.1,34.8,2.4,52.2,3.8
	c6.3,0.5,11.5-6.1,13.8-11C985.5,385.5,987.6,377.4,982.6,374.2z M969.4,340.5h-0.1c0.5-0.5,1-0.9,1.7-1.2
	C970.5,339.7,969.9,340.1,969.4,340.5L969.4,340.5z"/>
<path class="st1" d="M974.5,326.3c-35.6-3.2-71.3-3.2-107-3.5s-71.1-0.9-106.7-0.6c-35.7,0.3-71.4,1.2-107.2,1.1
	c-35.3,0-70.5,0.5-105.8,1.3L532,325c-4.2,0.1-9.2-0.5-13.3,0.4c-8.1,1.7-6.7,11.9-6.7,18c-0.1,9.7-0.2,19.4-0.3,29.1
	c-0.1,8.6,0.2,17.4,3.9,25.3c2.3,5,9-2.7,7.3-6.3c-4.4-9.4-3.6-19.8-3.5-30c0-5.2,0.1-10.4,0.2-15.6l0.1-8.8c0-0.9,0-1.8,0-2.7
	c1.1,0,2.2,0.1,2.9,0.1l5.9-0.1l9.9-0.2l23.7-0.5c14.5-0.3,29-0.7,43.5-0.8c29.3-0.3,58.6,0.1,87.9-0.2c29.6-0.3,59.1-1.1,88.7-1.1
	c29.9,0,59.8,0.6,89.7,0.8c33,0.3,66.1,0.5,99.1,3.4C974.9,336.3,979.1,326.7,974.5,326.3z M519.6,331.1
	C519.6,330.3,519.6,330.3,519.6,331.1L519.6,331.1z"/>
<path class="st0" d="M981.1,238c-0.5-0.4-0.9-1-1.3-1.5c2.3-3.9,4.5-9.5,2.8-13.7c-0.9-2.4-0.7-4.4-0.6-7c0.1-2.1,0-4.2-0.2-6.3
	c0-0.2,0-0.4,0-0.6l0,0c-0.1-1-0.2-2-0.4-3c-0.1-0.8-0.4-1.6-0.8-2.3c1-2.3,1.4-4.8,1.4-7.3c-0.1-3.2-1.7-7.7-5.6-7.7
	c-117.6-0.6-235.1-4.8-352.7-4c-33.7,0.2-67.3,1-100.9,2.2c-7,0.3-12.3,6.6-14.7,12.8c-1.2,3.2-2.3,11.5,1.5,13.9
	c-0.9,2.2-1.4,4.6-1.4,7c0,4.6,0,9.2-0.1,13.8l-0.1,6.9c0,1,0,2,0,3c0-1.2-0.1-1-0.3,0.6c-0.9,4.2-0.7,9.6,2.2,13
	c2.6,3.1,6.7,3.8,10.5,4.1c12.9,1.2,25.8,1.3,38.7,0.6c0.6,2.2,2.6,3.7,4.8,3.7c54.7,2.7,109.4-2,164.1-3.6
	c26.6-0.8,53.3-0.8,79.9,1.3c13.7,1,27.2,3,41,2.9s27.5-1.2,41.3-1.4c13.5-0.1,26.8-0.5,40.2-1.4c12.7-0.8,25.2-1.1,37.8,0.7
	c6.1,0.9,11.6-6.4,13.8-11C984.7,248.6,985.8,242.1,981.1,238z"/>
<path class="st0" d="M984.8,98.6c0.3,0.4-1.2-1.9-1.6-2.6c0,0,0-0.1,0-0.1c1.4-3.2,2-8.7,0-12c1.1-2.5,1.7-5.3,1.7-8.1
	c-0.1-3-1.4-5.8-3.7-7c2.3-4.7,3.3-10,1.9-14.8c-1.9-6.2-7.9-8.7-13.9-9c-15.4-0.9-31.2,0.3-46.6,0.5c-62.7,0.5-125.4,0.6-188.2,0.1
	c-69.9-0.4-139.8-1.1-209.8-1.8c-7-0.1-12.4,6.8-14.7,12.8c-1.3,3.5-2.4,11.9,2,14.1c-0.9,1.6-1.7,3.3-2.3,5.1
	c-2.4,7-1.2,13.6,3.6,18.6c-5.3,4.7-8.8,12.5-6.6,18.5c4.6,12.5,20.8,14.4,32.5,14.4c15.7,0,31.3-0.6,47-1
	c30.9-0.6,61.8-1.4,92.6-1.8s61.8-0.3,92.7,0.8c31.5,1.1,62.9,2.2,94.4,0.5c34.8-1.9,69.6-5.4,104.5-2.3
	C980.2,124.5,990.8,106.7,984.8,98.6z M983.2,96C983.2,95.8,983.2,95.8,983.2,96L983.2,96z"/>
<path class="st0" d="M481.1,360.4c-4.3-11.1-5.4-22.2-2.5-33.8c0.7-2.8,0.5-6.8-1.6-9.1c0.6-4.4,0-10.3-5.3-10.4
	c-39.5-0.7-79,0.4-118.5,2c-19.5-2-39.1-4.3-58.7-4.9c-29.2-0.9-58.3,0.9-87.5,2.4c-29.5,1.5-58.9,1.7-88.4,1l-98.1-2.2
	c-7-0.2-12.4,6.9-14.7,12.8c-1.2,3.1-2.1,9.6,0.4,12.8c-0.2,0.7-0.4,1.5-0.6,2.2c-0.9,4.6,0.1,9.4,0.7,14s1.1,9.3,1.7,14
	c0,0.1-0.1,0.2-0.1,0.3c-2.1,7.8-2.1,15.9,0,23.7c1,3.8,4.2,5.2,7.9,4.5c28.7-5.2,58-4.6,87-4.6l90.9,0l89.9,0.1
	c14.5,0,29-0.1,43.5,0.2c15.1,0.3,30,1.8,45,2.3c16,0.6,32.1,0.1,48.1,0.3s32.4-0.4,47.9-5.2C475.8,380.4,484.3,368.7,481.1,360.4z
	 M14.7,342.6l-0.3,0.1l-0.6-0.2L14.7,342.6z"/>
<path class="st1" d="M981.4,48c-8.3-3.6-17.6-4.3-26.4-2c-1.6,0.4-3,2.3-3.8,4.3c-7.4-0.5-14.8-1.5-22-1.8
	c-17.4-0.8-34.9-0.7-52.3-0.7l-107.2-0.5l-215.3-0.9c-9.9,0-20-0.5-29.9-0.1c-8.2,0.3-10,7.4-10.6,14.3c-1.8,20-1.5,40.1,0.9,60.1
	c0.8,6.2,8.1-0.2,7.6-4.2c-2.1-16.9-2.6-34-1.6-51.1c0.1-1,0.9-6.4,1.1-9.5l0,0c0.9,0.5,2.9,0,4,0h7l25.9,0.1l102.7,0.5l206.9,0.9
	c18.8,0.1,37.6-0.1,56.3,0.7c17.5,0.8,36.3,5,53.3-0.9C980.2,56.5,985.5,49.7,981.4,48z"/>
<g class="st2">
	<path d="M17,374.4c-1.6-16.3-2.3-32.6-2-48.9c0.1-2.3-0.6-6.9,1.1-8c2.4-1.6,9.1-0.3,11.9-0.3c8.3,0.1,16.6,0.2,24.9,0.3
		c33.8,0.5,67.6,1.2,101.4,1.7c67.1,1.1,134.2,1.5,201.3,1.3c38.2-0.1,76.4-0.4,114.6-0.9c4.1,0,8.1-9.7,3.6-9.6
		c-71.1,1-142.2,1.2-213.2,0.8c-71.3-0.4-142.7-2-214-3c-8.8-0.1-18.5-1.3-27.2,0c-7,1-10.8,7.3-11.6,13.8
		C6.7,330.5,7.3,340,7.5,349c0.3,9.9,0.9,19.8,1.9,29.7C10.1,384.9,17.4,378.5,17,374.4L17,374.4z"/>
</g>
<path class="st0" d="M476.1,176.6c-24.5-3.4-49.9-1.6-74.5-1.4l-61.8,0.3c-4.9-0.1-9.9,0-14.8,0.1c-2.7,0.1-5.3,1.1-7.5,2.8
	c-2.7-0.2-5.5-0.4-8.2-0.6c-23.1-1.6-46.2-2.9-69.3-3.4c-46.8-1.1-93.5-0.2-140.3,0.4c-26.5,0.4-53.1,0.6-79.6,0.3
	c-7-0.1-12.4,6.8-14.7,12.8c-1,2.6-1.8,7.6-0.5,11c-2.2,3.4-4,7.7-3.6,11.5c0.7,7.4,1.8,14.9,3.3,22.2c-0.5,1.3-0.9,2.7-1.1,4.1
	c-1.1,6.1,0,13.2,6.2,15.9c2.7,3.7,8.6,2,12-0.8c0.9,0.6,1.8,1.2,2.8,1.6c5.5,2.4,11.2,1.9,17,1.1c4-0.5,8.1-1,12.2-1.5
	c0.9,1.6,2.6,2.7,4.4,2.7c15.7,0.7,31.4,0.4,47-0.9c3.4,0.9,7.9-0.5,11-1.1c3.8-0.7,7.5-1.4,11.3-2l10.9-0.1
	c26.4-0.3,52.8,0.1,79.2,0.6c52.7,1.1,105.4,3.1,158.1,3.5c29.8,0.2,59.5-0.2,89.3-1.5c7.1-0.3,12.3-6.6,14.7-12.8
	c1.7-4.5,2.3-11.4-2.3-13.9c0-0.9,0-1.9,0-2.8c0-0.6-0.1-1.2-0.1-1.8c2.9-4.7,4.1-10.2,3.6-15.6c-0.5-3.4-1.8-5.8-3.8-6.9
	c2.9-4.9,4.6-10.3,5.1-16C482,180.7,479.7,177.1,476.1,176.6z"/>
<g class="st2">
	<path d="M14.6,240.6c-2-14.5-1.6-29.1-1.3-43.7c0.1-2.6-0.9-8,1.8-9.4c2.2-1.1,7.3-0.3,9.6-0.3l21.8-0.1l85.3-0.3
		c29.3-0.1,58.5-0.2,87.8-0.3c58.8-0.2,117.5-0.2,176.3-0.2c24.2,0.1,48.4-0.1,72.6,0.7c4.1,0.1,8.2-9.5,3.6-9.6
		c-55-1.8-110.1-0.8-165-0.7c-59.8,0.1-119.7,0.3-179.5,0.6l-99.2,0.4c-5.9,0-12.7-0.8-17.4,3.4c-5.2,4.7-5.1,11.6-5.2,18.1
		c-0.3,16-0.7,31.9,1.5,47.7c0.3,2.5,3.4,1.6,4.7,0.5C14,245.8,15,243.2,14.6,240.6L14.6,240.6z"/>
</g>
<path class="st0" d="M481.3,104.5c-0.6-5.9-2.3-11.6-5-16.8c3.1-11.4,4.1-23.3,3-35.1c-0.5-4.7-2.9-8.7-8.3-7.5
	c-6.2,1.4-12.4,2.6-18.7,3.3c-0.7-0.4-1.5-0.6-2.4-0.6c-110.2-4.1-220.4-5.2-330.7-3.5c-31.2,0.5-62.4,1.2-93.6,2.2
	c-1.4,0.1-2.8,0.3-4.1,0.9c-2-1.2-4.6-1.2-7.5,0.3C8.1,50.9,2.9,59.2,3.4,66.1C4.2,77.2,5,88.2,5.9,99.3c-0.5,1.7-0.8,3.5-0.7,5.3
	c0.2,4.8,0.4,9.5,0.5,14.2c0.1,3.1,1.7,7.8,5.6,7.7c59.6-1.4,119.4-4.4,179.1-2.3c14.5,0.5,28.9,1.1,43.3,1
	c15-0.1,30.1-0.4,45.1,0.3c28.9,1.3,57.6,2.9,86.5,2.9c33.4,0,66.7-1.3,99.9-4.3C473.9,123.5,482.5,113.4,481.3,104.5z M446.8,82.3
	L446.8,82.3C446.8,82.3,446.8,82.3,446.8,82.3z M179.1,96.1c2.9,0.1,5.7,0.3,8.6,0.4c-2.9-0.1-5.8-0.1-8.6-0.1
	C179,96.3,179.1,96.2,179.1,96.1z"/>
<path class="st1" d="M472,49c-35.9,0.4-71.7,0.7-107.6,0.2c-17.9-0.3-35.9-0.8-53.8-1.6c-17.4-0.8-34.8-2.3-52.2-2.7s-35,0.9-52.5,1
	s-35,2.4-52.6,2.6S118,47.3,100.3,47c-17.4-0.2-34.8-0.2-52.2,0.2c-10.2,0.2-20.4,0.4-30.5,1c-7.8,0.4-11,5.2-11.7,12.7
	c-1.7,19.7-1.5,39.6,0.6,59.3c0.7,6.2,8-0.2,7.6-4.2c-1.8-16.5-2.2-33.1-1.3-49.6c0.1-2,0.2-3.9,0.4-5.8c0-0.8,0-1.7,0.1-2.5
	l0.7-0.3c1.6-0.6,4.2-0.2,5.9-0.2c2.6-0.1,5.2-0.2,7.9-0.3c8.2-0.3,16.4-0.5,24.6-0.6c16.7-0.3,33.5-0.3,50.2,0
	c16.7,0.3,33.4,1.7,50.1,1.3s33.1-2.4,49.7-2.5s33-1.2,49.5-1.1c17.1,0.2,34.1,1.7,51.2,2.5s33.8,1.3,50.8,1.7
	c38.2,0.7,76.4,0.4,114.6,0C472.5,58.5,476.5,48.9,472,49z"/>
<path class="st3" d="M115.5,86.6c-0.4-6.8-2.6-13.6-1.8-20.4c1-7.8-7.8-3-8.4,2.1c-0.9,7.6,1,14.5,1.5,22.1c0.2,3.8,0.2,7.6,0,11.3
	c-0.1,1.6-0.2,3.2-0.3,4.7c-0.1,0.8-0.1,1.5-0.2,2.2c-2.7,0-6.1-0.8-8.1-1c-3.5-0.3-7.1-0.7-10.6-1c-7.4-0.6-14.8-1-22.3-1.1
	c-14.9-0.4-29.7,0-44.6,1.2c-2.8,0.2-4.9,2.6-5.9,5.1c-0.5,1.4-1.1,6.1,1.7,5.8c25.8-1.9,51.7-1.6,77.5,0.9
	c4.6,0.5,11.2,2.1,15.4-0.6c4.5-2.9,5-8.1,5.4-12.9C115.5,99.1,115.7,92.8,115.5,86.6z"/>
<path class="st3" d="M197.1,67.8c-0.5-7.1-9,0.2-8.6,4.8c0.6,7.8,0.9,15.6,1,23.4c0.1,3.7-0.1,7.2-0.3,10.9l-0.6,0.1
	c-1.9-0.3-4.8,0.6-6.7,0.8c-15,1.5-30.1,1.3-45-0.8c-0.7-0.5-1.5-0.7-2.4-0.5l-1.7,0.2c-3.6,0.5-8.3,10.1-3.1,10.9
	c10.2,1.5,20.5,2.3,30.8,2.2c9.1-0.1,19.6,0,28.5-2.4c7.9-2.1,8.9-12,9.1-18.8C198.4,88.3,198,78,197.1,67.8z"/>
<path class="st3" d="M322,79.2c-0.2-4.3,0.9-12.5-2.8-15.4c-0.8-0.6-2.4-0.2-3.1,0.2l-0.3,0.2c-2.6,1.6-4.2,4.3-4.2,7.3
	c0,1.1,0.5,2.2,1.5,2.8c-0.1,1.9-0.1,3.8,0.1,5.8c0.2,3,0.3,5.9,0.3,8.8c0,5.1,0.5,10.9-0.6,15.9c-0.1,0.3-0.1,0.7-0.1,1
	c-0.2,0-0.3,0.1-0.4,0.2c-1,0.6-3.1,0.5-4.2,0.6c-2.6,0.2-5.1,0.3-7.7,0.5c-5.5,0.2-11,0.2-16.5,0c-21.2-0.9-42.2-0.9-63.4-0.8
	c-4.7,0-9.2,11-4.1,11c13.6-0.1,27.3-0.4,41-0.2c14,0.2,27.8,1.6,41.8,0.9c5-0.3,10.9,0,15.2-2.8c4.9-3.2,6.6-8.7,7-14.2
	C322.1,93.7,322.3,86.5,322,79.2z"/>
<path class="st4" d="M207.4,64.7c0.4-2,1.3-4.7,6.1-5.8c1.2-0.2,90-2.7,99.6,2.2c2.9,1.5,2.9,5.6,2.7,7.9c-0.1,1.5,0.2,33-0.2,36
	c-0.1,1.4-0.6,4.8-2.7,5.9c-2.8,1.5-91.5,1.6-99.4,0.8c-2.9-0.3-5.6-5.7-5.9-8.2S207,66.7,207.4,64.7z"/>
<path class="st4" d="M124.8,109.1c0.2,1,3,2.6,5.3,3.1c0.6,0.1,53.7,1.9,57.6-0.4s4.1-8,4-8.8l-0.6-38.8c0,0,0.6-4-4.5-4.9
	c-5.4-0.9-51.4-0.4-55.1-0.7c-6.8-0.5-6.6,3.9-6.7,5.2S124.6,108,124.8,109.1z"/>
<path class="st4" d="M108.3,63.6c-0.2-1-1.5-3.8-4.1-4.4c-0.7-0.1-16.9-1.1-21.6-1c0,0-66,0.3-67.6,0.6c-1.2,0.3-4.8,1.2-4.7,7.1
	l-0.7,38.2c0.2,1.6,1.4,7.9,5.2,7.9c4.6,0,87.8,0.9,89.1,0.6c2.2-0.5,3.8-2.3,4-4.5C108,106.7,108.5,64.6,108.3,63.6z"/>
<path class="st5" d="M106.2,60.1c-12.5-1.7-25.1-2.1-37.7-2.3c-12.3-0.2-24.5,1.1-36.8,1.3c-2.7,0-5.5,0.1-8.2,0.1
	c-2,0-4.6-0.6-6.6-0.3c-3.3,0.6-5.1,4.1-5.3,7.1c-0.4,4.7,0.4,9.7,0.7,14.6c-2.5,8.4-2.7,17.3-0.7,25.8c1,4.2,6.1-1.4,6.3-3.5
	c0.7-6.8,1.1-13.5,1.1-20.3c0-1.5,0-3.1,0-4.6c1.2-3.3,2.8-6.5,4.9-9.3c0.3-0.4,0.5-0.9,0.6-1.4c3.1,0,6.3-0.1,9.4-0.1
	c7.5-0.2,15-1.1,22.6-1.3c15.6-0.4,31.2,0.4,46.7,2.4C106.6,68.8,110.2,60.7,106.2,60.1z"/>
<path class="st5" d="M190.1,61.6c-4-1.6-9.7-1.1-14-1.3c-5.2-0.3-10.5-0.6-15.8-0.8c-5.3-0.3-10.5-0.3-15.8,0.1
	c-2.1,0.2-4.1,0.6-6.2,0.8c-2.4,0.3-5.1-0.3-7.4,0.1c-2.7,0.5-4.3,2.8-4.9,5.3c-1.2,4.8-0.7,10.5-1,15.4c-0.5,9.9-0.9,19.2,1.8,28.8
	c1.1,3.8,5.3-0.7,6-2.4c2.1-5.7,0.8-12.1,0.9-18.1c0.1-7.1,1.1-14.2,3-21c1.2-0.2,2.5-0.4,3.7-0.5c4.9-0.5,9.9-0.6,14.8-0.3
	c4.9,0.2,9.9,0.4,14.8,0.6c2.6,0.2,5.2,0.3,7.9,0.5c1.9,0.1,4.8-0.2,6.9,0.3c0.2,0.8,0.9,1.1,2.1,0.7l0.2-0.1c2.4-1,3.9-3.3,4-5.8
	v-0.3C191.1,63.1,190.8,61.9,190.1,61.6z M184.7,67.4v0.2v-0.1V67.4z"/>
<path class="st6" d="M192.6,96.9c-0.1-8.8-0.2-17.6-0.3-26.4c0-0.9,0-1.7,0-2.6c-0.1-1.7,0.4-5.2-0.3-6.6c-1.6-3.3-8.5-3.3-11.6-3.5
	c-9.1-0.7-18.4-0.7-27.6-0.5c-5.1,0.1-10.2,0.3-15.4,0.4c-4,0-8.9-0.9-12,2.2c-1.8,1.8-1.9,3.9-1.9,6.2c0,4.6,0.1,9.2,0.2,13.8
	c0.1,9.2,0.4,18.3,0.3,27.5c0,0.1,0,0.2,0,0.3c0.7,6.9,9.8,5.7,14.8,5.8c9,0.2,18.1,0.3,27.1,0.4c2.3,0,4.6,0,7,0.1
	c4.6,0.1,10.8,1,15.1-0.8C193.5,110.8,192.7,101.9,192.6,96.9z M190.6,103c-0.1,2-0.7,5.5-2.1,7c-1.7,2-5.4,1.6-7.8,1.7
	c-4,0.1-7.9,0-11.9-0.1l-20.2-0.2l-13.4-0.1c-3.3,0-9,0.7-9.8-4l0,0c0.2-13.9-0.2-27.9,0.3-41.8c0.1-3.8,2.1-5.7,6.4-5.8
	c4.2-0.1,8.4,0,12.6-0.1c7.7-0.2,15.4-0.4,23.1-0.1c4.2,0.2,8.5,0.1,12.7,0.4c2.1,0.2,6.7,0.2,8.4,1.6c1.4,1,1.1,4.3,1.2,6.2
	c0.4,6,0.2,12,0.2,18C190.4,91.5,191,97.4,190.6,103L190.6,103z"/>
<path class="st6" d="M109.2,97.3c0-6.9,0-13.9,0-20.8c0-4.1,0.4-8.5-0.2-12.7c0-0.1,0-0.1,0-0.2c-0.7-5.7-4.2-5.4-9.2-5.7
	C94,57.5,88,57.2,82.1,57.2c-10.2,0-20.5,0-30.7,0c-9.3,0-18.7,0-28,0.2c-4,0.1-12.3-0.9-13.9,3.9c-0.9,2.7-0.4,7-0.4,9.9
	c-0.2,10.7-1,21.5-0.6,32.1c0.1,4.1,1,8.9,5.5,9.7s9.6,0.2,14.2,0.3c21.4,0.2,42.8,1,64.2,0.5c3.8-0.1,14.5,1.5,16.4-3.3
	C110.1,107,109.2,101,109.2,97.3z M107.6,73.7c-0.1,5.7-0.1,11.3-0.2,17c-0.1,4.1,0,8.3-0.2,12.4c0.1,1.8-0.1,3.5-0.4,5.2
	c-1.1,3.7-4.8,2.9-7.9,3c-19.6,0.7-39.3,0-59-0.2l-14-0.1h-3.6c-4,0-9.1,1.2-10.8-3.2c-1.2-3.2-0.8-6.7-0.8-10
	c0.1-5.2,0.2-10.5,0.3-15.7c0.1-4.7,0.2-9.4,0.2-14.2v-2.2c0-2-0.2-3.2,1.4-4.6c1.4-1.2,3.1-1.2,4.9-1.3c8.5-0.5,17-0.4,25.5-0.4
	h34.9c3.6,0,7.1,0,10.6,0.1c3.8,0.1,7.6,0.2,11.3,0.4c3.3,0.2,7,0,7.7,4c0,0,0,0.1,0,0.1C108.1,67,107.6,70.5,107.6,73.7z"/>
<path class="st5" d="M312.7,61.9c-21.2-4.6-43.4-3.8-65-2l-4.9,0.4c-0.3-0.5-0.9-0.8-1.4-0.8c-5.6-0.8-13.2-1.5-19.5,0.2
	c-4.9-0.2-9.3,0.6-11.7,5.5c-1,2-1.3,4.6-0.4,6.4c-1.5,5.5-2.2,11.3-2.2,17c-0.1,6.3-0.6,14.5,3.9,19.6c2.4,2.7,5.6-2.2,5.9-4.2
	c1.6-8.7-2.3-17.9-1.8-26.8c0-0.8,0.1-2.2,0.2-3.7c1.6-0.3,3.1-1,4.6-1.4c3.2-0.9,6.4-1.6,9.7-2.2c13-2.3,26.3-2.8,39.5-3
	c13.4-0.3,26.8,0.4,40,3.3C312.9,70.9,316.7,62.8,312.7,61.9z"/>
<path class="st6" d="M316.2,64.1c-1.8-5.2-6.5-5.1-11.3-5.7c-12-1.4-24.5-0.9-36.6-0.9c-13.9,0-27.7-0.3-41.6,0.1
	c-5.1,0.2-11.4-0.4-16.2,1c-5.4,1.5-3.5,7.4-3.9,11.5c0,0,0,0.1,0,0.1c-1.2,8-0.2,16.9,0,25c0.1,4.7-1,12.2,3.2,15.8
	c3.3,2.8,9.8,1.6,13.9,1.9c19.1,1.1,38.4,0.1,57.5-0.1c9.5-0.1,19.6,0.8,28.9-0.4c5.6-0.7,6.6-2.8,6.6-7.9c0-9.9,0.1-19.8,0.1-29.7
	C316.8,71.5,317.4,67.4,316.2,64.1z M311.5,109.9c-3.2,1.2-7.9,0.4-11.2,0.4c-4.7,0-9.5,0.1-14.2,0.2c-17.8,0.2-35.6,0.6-53.4,0.5
	c-3.7,0-7.4-0.2-11.1-0.3c-4.5-0.2-9.5,1-11.9-3.8c-1.6-3.3-1-7.7-1.1-11.3c-0.3-8-1.6-17.1-0.4-25c0,0,0-0.1,0.1-0.1
	c0.2-1.6,0-3.2,0.1-4.9c0.3-3.8,2.2-5,5.5-5.2c4.7-0.3,9.4-0.5,14.1-0.7c11.5-0.3,23-0.1,34.5,0c9.2,0,18.4,0.1,27.6,0.3
	c6.5,0.1,13,0.1,19.4,1.3c5.4,1,5.3,6,5.3,10.5c0,9.2,0,18.3,0,27.5C314.6,102.8,315.5,108.4,311.5,109.9z"/>
<path class="st3" d="M981,87.9c-0.3-6.7-1.1-13.4-2.2-20c-0.4-2.9-3.9-1.8-5.3-0.6c-2.3,1.9-3.4,4.8-3,7.8
	c1.1,7.4,2.1,14.8,1.9,22.3c-0.2,3.1-0.7,6.2-1.2,9.3c-2.9,0-6.2-0.5-8.2-0.5l-11.9-0.1l-24.7-0.2l-23.8-0.2
	c-8-0.1-17.3,1.2-24.9-1.1c-4.3-1.3-9.5,9.4-4.1,11c6.5,2,14.2,1,21,1.1l20.8,0.2l42.5,0.4c5.4,0,12.7,1.5,17.7-1
	c2.2-1.2,3.9-3.1,4.7-5.5c0.8-2.3,0.1-3.5-0.3-5.6c-0.3-1.7,0.5-4.7,0.8-7.1C981,94.6,981.1,91.3,981,87.9z"/>
<path class="st3" d="M784.3,96.3c-0.3-9.9-0.6-19.8-0.8-29.7c0-2.6-2.2-3.6-4.4-2.5c-2.5,1.2-4.3,4.6-4.2,7.4
	c0.2,7.6,0.2,15.3,0.5,22.9c0.1,3.8,0.2,7.5,0.2,11.3l-0.2,0.9c-0.3,0-0.7,0.1-1,0.3c-1.5-0.3-3.9,0.5-5.5,0.7
	c-15.8,1.5-31.7-0.5-47.3-2.4c-4.6-0.6-9.5,10.3-4.1,11c9.9,1.2,19.8,2.4,29.8,2.8c5,0.2,10,0.1,14.9-0.2c4.2-0.3,9.2-0.3,13.2-1.9
	C782.8,113.6,784.5,103.6,784.3,96.3z"/>
<path class="st3" d="M619.7,61.8c-0.5-2.9-3.9-1.8-5.3-0.6c-2.3,1.9-3.4,4.8-3,7.8c1.8,10.9,2.5,22,2.2,33c0,1.3-0.1,2.6-0.2,3.9
	c0,0.3-0.1,0.6-0.1,0.9c-0.3,0-0.7,0-1,0c-1.3-0.1-2.6-0.2-4-0.3c-5.6-0.4-11.2-0.7-16.8-1c-21.8-1.1-43.6-1.4-65.5-0.9
	c-4.7,0.1-9.2,11.1-4.1,11c27.1-0.6,54.2,0,81.3,1.8c5,0.3,10.3,1.5,14.2-2.3c3.7-3.5,4.3-8.3,4.6-13.1
	C622.7,88.6,622,75.1,619.7,61.8z"/>
<path class="st4" d="M869.8,58.4c8.5-3.3,80-0.8,88-0.6c3.5,0.1,13.3,1.2,14.4,2.1c2.5,2.2,2.9,5.6,2.7,7.9c-0.1,1.5,1.2,33,0.8,36
	c-0.2,1.4-1.1,4.3-3.1,5.4c-3.7,2.1-99,1.6-101,0.7s-4.5-5.1-4.8-7.6C866.6,99.9,865.2,60.2,869.8,58.4z"/>
<path class="st4" d="M711,107.3c0.2,1,3.1,3.1,5.3,3.6c0.6,0.1,56.5,0.9,59.3-0.4c3.3-1.6,3.3-8,3.3-8.8c0,0-1.7-38.3-1.9-39.9
	c-0.1-0.7-1.1-3.1-2.1-3.7c-1.8-1.1-53.5-0.5-57.2-0.8c-6.8-0.5-6.6,3.9-6.7,5.2C710.9,63.9,710.8,106.2,711,107.3z"/>
<path class="st4" d="M615.6,61.3c-0.8-2-2.5-3.4-4.6-3.9c-0.7-0.1-87.6-0.2-89.2,0.1c-1.6,0.6-3,1.4-4.3,2.5
	c-1.4,1.1-1.1,42.8-1.1,42.8c0.2,1.6,2.5,7.2,3.6,7.8c2.1,1.1,92,0.7,93.1,0c1.6-1.1,1.8-6.3,2-7.5C615,103,615.9,62.3,615.6,61.3z"
	/>
<path class="st5" d="M611.2,59.7l-1-0.8c-0.8-0.7-1.9-0.4-2.8,0.4c-20.4-1.6-40.9-1.4-61.3-1.6c-5,0-9.9,0-14.9,0.2
	c-2.2,0.1-4.6,0-6.7,0.7c-0.1-0.3-0.3-0.6-0.4-1c-1.6-3.3-5.7,2.8-6,4.2c-1.6,8.7-1.6,17.7,0,26.4c0,0.3,0.2,0.6,0.4,0.9
	c-0.4,6-0.1,12.1,1,18c0.4,2.2,2.9,1.3,4,0.5c1.7-1.4,2.6-3.6,2.2-5.8c-1.6-8.6-0.7-16.5,0.4-25.1c0.5-3.4,0.6-6.8,0.3-10.3
	c1.5,0,2.9-0.2,4.4-0.4c8.1-0.3,16.3-0.1,24.4,0c17.4,0.2,34.8,0.1,52.1,1.6C610.7,68,613.9,61.9,611.2,59.7z"/>
<path class="st5" d="M768.5,57.5c-6.1-0.4-12.3-0.7-18.4-0.6c-9,0.1-18,0.6-27,1.7c-1.7-0.2-3.4,0.1-4.9,0.6l-3.8,0.5
	c-2.6,0.4-4.6,4.4-3.9,6.7c1.7,5.9-0.4,11.8,2.5,17.6c0.1,0.1,0.1,0.2,0.2,0.4c-0.7,7.5-2.8,16.6,0.4,23.1c0.4,0.8,1.4,0.7,2,0.6
	l0.4,0c1.6-0.2,3.2-2.4,3.6-3.8c0-0.1,0.1-0.2,0.1-0.4c0.7-2.2,0.1-3.5-0.8-3.9c-0.7-2.2-0.2-5.6-0.1-7.8c0.1-3.4,0.5-6.8,0.8-10.2
	c0.2-3,0.2-6.1,0.1-9.1c-0.3-2-0.4-4-0.3-6c11.1,0.1,22.1,0.8,33.2,1.8c6.3,0.6,22.3,2.7,23-7.2C776,57.3,771.7,57.8,768.5,57.5z"/>
<path class="st5" d="M972.3,61.1l-2.5-1.2c-1-0.4-2.1-0.2-2.9,0.5c-25.7-2.7-51.6-3.9-77.5-3.5c-5,0.1-11.7-0.7-16.4,1.3
	c-4.2,1.8-5.2,6.3-5.6,10.4c-1.1,12.7-1.6,25.7,1.8,38.1c1.2,4.4,7.1-2.1,6.2-5.4c-2.9-10.4-2.7-21.1-2-31.8c0.2-3.6-0.8-3.8,3-4.1
	c2.9-0.2,5.8-0.2,8.8-0.3C890.9,65,896.4,65,902,65c22.2,0.2,44.4,1.6,66.5,4.1C971.4,69.4,975.5,62.7,972.3,61.1z"/>
<path class="st6" d="M779.8,96.4c-0.3-8.9-0.7-17.7-1-26.6c-0.1-3,0.4-7.3-0.7-9.9c-1.5-3.5-8-3.3-11.2-3.5
	c-9.2-0.5-18.5-0.7-27.7-0.5c-5.1,0.1-10.2,0.3-15.4,0.4c-4,0-8.9-1-12,2.2c-1.8,1.8-1.9,3.9-1.9,6.2c0,4.6,0.1,9.2,0.1,13.7
	c0.1,9.1,0.4,18.3,0.4,27.5c0,0.1,0,0.2,0,0.3c0.7,6.9,9.8,5.7,14.7,5.8c9.2,0.2,18.4,0.3,27.6,0.4c7.1,0.1,15.2,1.5,22-0.5
	C780.6,110.2,780,101.5,779.8,96.4z M777.8,102.2c-0.2,2.6-1.1,6.7-3.8,7.7c-2.1,0.8-5,0.6-7.2,0.6c-3.6,0-7.2-0.1-10.8-0.1
	c-7.2-0.1-14.4-0.1-21.6-0.2l-12.9-0.1c-3.3,0-9,0.7-9.7-4l0,0c0.2-13.8,0-27.7,0.3-41.5c0.1-3.5,1.6-5.8,5.6-6s8.5,0.1,12.7,0
	c7.7-0.2,15.4-0.5,23.1-0.2c4.3,0.2,8.5,0.2,12.8,0.4c2.6,0.1,7.1-0.2,8.9,1.7c1.3,1.3,1,4.4,1.2,6.3c0.5,6.3,0.5,12.6,0.8,18.9
	C777.4,91,778.3,96.8,777.8,102.2z"/>
<path class="st6" d="M976.8,94.2c-0.2-9.5,0.1-19.3-0.9-28.7c-0.6-6-3.9-7.2-9.1-8c-7.1-1-14.2-1-21.3-1.1
	c-10.9-0.2-21.9-0.1-32.8-0.2c-14,0-29.2-1.1-43.1,1.4c-0.1,0-0.2,0.1-0.3,0.2c-2,1-2.3,4.2-2.7,6c-0.7,4.9-1.1,9.9-1.1,14.9
	c-0.1,4.5-0.1,9.1,0.1,13.6c0.1,4.5-0.6,9.5,1.1,13.8c2.4,6.1,7.7,5,13.3,5.3c3.9,0.2,7.8,0.4,11.6,0.4c11.4,0.1,22.8,0,34.1-0.2
	c12.6-0.2,25.2-0.5,37.8-0.4c5.2,0,11.8,0.2,13-6C977.2,101.7,976.9,97.9,976.8,94.2z M974.5,104c-1.3,5.8-6.9,5.2-11.7,5.1
	s-9.2,0-13.9,0.1l-16.4,0.2c-16.8,0.2-33.7,1-50.5,0.1c-2.8-0.2-5.8,0.2-8.5-0.3c-6.4-1.2-5.6-8-5.8-13.1c-0.1-2.9-0.3-5.7-0.4-8.6
	c-0.1-5.2-0.2-10.4,0-15.6c0.1-2.2-0.3-11.7,2.5-12.8c9.8-1.2,20.2-0.8,30.1-0.8c10.1,0,20.3,0.1,30.4,0.1c10.6,0,21.3-0.3,31.8,0.7
	c2.5,0.2,6.1,0.2,8.4,1.3c3.1,1.5,3.1,5.1,3.1,8c0.1,3.8,0.2,7.5,0.3,11.3c0.2,5,0.3,10,0.4,15C974.7,97.6,975.1,101.1,974.5,104
	L974.5,104z"/>
<path class="st6" d="M616.3,62.5c0,0,0-0.1,0-0.2c-0.4-5.9-3.7-5.4-8.9-5.7c-6.1-0.4-12.2-0.7-18.3-0.7c-10.1,0-20.2,0-30.4,0
	c-9.1,0-18.2,0-27.3,0.2c-3.8,0.1-12.5-1-14.8,3c-1.5,2.5-0.7,7.5-0.8,10.4c-0.2,10.8-1,21.7-0.6,32.5c0.1,3.7,0.8,8.6,4.9,9.6
	c4.3,1.1,9.6,0.3,14.1,0.4c21.6,0.2,43.3,1,64.9,0.5c3.8-0.1,14.5,1.5,16.4-3.3c1.3-3.4,0.6-9.5,0.6-13.2c0.1-6.9,0.2-13.9,0.2-20.8
	C616.4,71,616.8,66.6,616.3,62.5z M614.8,72.4c-0.1,5.7-0.3,11.4-0.4,17c-0.1,4.1-0.1,8.3-0.3,12.4c0.1,1.7-0.1,3.5-0.4,5.2
	c-1.1,3.8-5.3,2.9-8.5,3c-19.4,0.7-39,0-58.4-0.2l-14.3-0.1H529c-1.7,0-3.5,0.1-5.2,0c-3.3-0.1-4.6-0.6-5.7-3.8
	c-1-3-0.6-6.3-0.6-9.4c0.1-5.5,0.2-11.1,0.3-16.7c0.1-4.5,0.2-8.9,0.2-13.4c0-0.8,0-1.5,0-2.3c0.1-2.4,0-4.2,2.6-5.2
	c1.3-0.4,2.7-0.6,4.1-0.5c8.5-0.4,17-0.4,25.4-0.4h35.1c3.8,0,7.5,0,11.3,0.1c3.5,0.1,7,0.2,10.5,0.4s7.3-0.5,7.8,3.8
	c0,0.1,0,0.1,0.1,0.2l0,0C615.4,65.7,614.9,69.2,614.8,72.4L614.8,72.4z"/>
<path class="st6" d="M478.6,55.8c-0.2-2.7-0.3-7.9-3.3-9c-1.5-0.5-3.8-0.1-5.3-0.1c-29.4-0.4-58.7-0.3-88.1-0.3
	c-48.7-0.1-97.5-0.2-146.3-0.2c-46,0-91.9-0.1-137.9-0.1c-21.5,0-43,0.1-64.5,0c-5.6,0-11.2,0-16.8,0.3S6.3,47,5.2,53.4
	c0,0.1,0,0.1,0,0.2c-0.8,8.8-0.3,17.8-0.4,26.6c-0.1,9.5-0.4,19.1-0.2,28.6c0.1,3.9,0.1,9.5,2.7,12.6c2.8,3.4,10.8,2.5,14.6,2.7
	c3.5,0.2,6.9,0.2,10.4,0.2c28.1,0,56.2,0.1,84.3,0.2c48.9,0.1,97.7,0.2,146.6,0.1c46.2,0,92.4,0,138.6,0.1h44.9
	c7,0,14.2,0.4,21.2-0.2c2.7-0.2,6-0.5,8.2-2.2s2-4,2.1-6.5c0.2-4.9,0.6-9.7,0.6-14.6c0-11.1,0.1-22.1,0.2-33.2
	C479,64,478.9,59.9,478.6,55.8z M476.6,101.3c0,4.8-0.4,9.6-0.6,14.3c-0.1,2.8,0.3,4.3-3,5.8c-2.1,1-4.9,0.9-7.1,1
	c-0.8,0-1.6,0.1-2.4,0.1c-2.2,0-4.5,0-6.8,0c-11.5,0-23,0-34.5,0l-124.6,0l-146.4-0.1c-35.1,0-70.2,0-105.2,0.2
	c-5.7,0-11.4,0-17.1,0c-2.7,0-5.5-0.1-8.2-0.2c-3-0.2-7.9,0.3-10.7-1c-4.1-1.9-3.7-9.4-3.8-13.4c-0.1-10.1,0-20.2,0.1-30.2
	c0-7.9-0.5-16,0.2-23.8c0,0,0,0,0-0.1c1.1-5.4,5.2-5.5,9.8-5.7c4.4-0.1,8.8-0.2,13.2-0.2h4.3h7.4l35,0.1
	c41.4,0.1,82.8,0.1,124.2,0.1c48.6,0,97.1,0.1,145.7,0.2c35.9,0.1,71.8,0.2,107.7,0.4c4.7,0,9.4,0,14.1,0.1c1.6,0,5.4-0.7,6.9,0.1
	c1.3,0.7,1.6,6.6,1.7,8.7c0.2,3.8,0.3,7.6,0.3,11.4L476.6,101.3z"/>
<path class="st3" d="M478.8,208.7c-0.4-3.5-1.9-7.1-1.4-10.7c0.4-2.3-0.5-4.8-3.2-4.3s-4.8,4-5.2,6.5c-0.9,5.3,0.9,9.8,1.3,15.1
	c0.3,6.1,0.1,12.2-0.8,18.2c0,0.3-0.1,1.5-0.3,2.6l-1.2,0.2c-2.5-0.4-6,0.5-8.7,0.5c-6,0-12.1-0.1-18.1-0.2l-35.2-0.4
	c-10.4-0.1-21.1-1.1-31.5,0c-4.5,0.4-8.3,11.4-2,10.8c5.5-0.6,11.2,0,16.6,0l20.6,0.2c13.7,0.2,27.4,0.3,41.1,0.5
	c10,0.1,23.7,1.4,26.4-11.1c1.2-6.2,1.8-12.5,1.8-18.8C479.2,214.8,479.1,211.7,478.8,208.7z M469,237.7c0,0.1-0.1,0.2-0.1,0.2
	L469,237.7z"/>
<path class="st3" d="M354.4,225.4c-0.9-5.2-1.4-10.4-1.5-15.7c-0.1-4.2,0.7-10.3-1.5-14c-1.4-2.4-4.9,0.1-5.9,1.4l-0.1,0.2
	c-1.5,2-3.2,5.7-1.3,7.9c0.1,0.9-0.1,2.9,0,3.6c0.1,1.9,0.1,3.8,0.2,5.7c0.1,3.8,0.3,7.5,0.8,11.3c0.2,2,2.2,8.1,1.7,10.5
	c-0.3-0.6-3,0.2-3.7,0.3c-2.2,0.2-4.5,0.2-6.7,0.2c-14.2,0.3-28.3-0.6-42.5-1.3c-4.7-0.2-9.4,10.7-4.1,11c9.1,0.4,18.1,1,27.2,1.2
	c5.4,0.1,10.8,0.2,16.2,0c4.3-0.1,9.7,0.4,13.7-1.6C354.7,242.3,355.8,233.1,354.4,225.4z"/>
<path class="st3" d="M270.6,197.7c-1-7.1-9.3,0.2-8.7,4.8c0.8,6,1.7,12.1,2.5,18.1c0.5,3.9,2.3,11.2,1.1,16
	c-2.9,0.5-6.8-0.2-9.2-0.2h-9.9c-7.6,0-15.2,0-22.9-0.1c-14.9-0.1-29.8-0.6-44.7-1.6c-4.6-0.3-9.4,10.6-4.1,11
	c25.8,1.8,51.6,1.7,77.5,1.7c4.6,0,10.7,1.1,14.9-1.2c4.4-2.4,5.9-7.6,6.5-12.2C275.4,222.1,272.2,209.4,270.6,197.7z"/>
<path class="st4" d="M363.2,193c0.4-2-1.5-4.1,3.3-5.1c1.2-0.2,79.9-1.2,88-1.1c3.5,0.1,13.3,1.2,14.4,2.1c2.5,2.2,2.9,5.6,2.7,7.9
	c-0.1,1.5,1.2,34.5,0.8,37.5c-0.1,1.4-0.8,5.6-3.1,5.9c-6.4,0.9-100.5-0.1-102.6-1s-4-4.9-4.2-7.4S362.8,195,363.2,193z"/>
<path class="st4" d="M280.6,236.8c0.2,1,3.1,3.1,5.3,3.6c0.6,0.1,55,1.7,58.8-0.4c3-1.8,2.8-8,2.7-8.8c0,0-0.7-38.3-0.9-39.9
	c-0.6-1.4-1.6-2.7-2.8-3.6c-1.8-1.1-51.8-0.5-56.5-0.3c-6.8,0.3-6.6,3.9-6.7,5.2S280.4,235.8,280.6,236.8z"/>
<path class="st4" d="M264.2,191.9c-0.2-1-1.3-4.7-6.3-4.7c-1.6,0-85-0.5-86.6-0.1c-1.2,0.3-4.8-0.4-4.7,7l-1.2,38.2
	c0.2,1.6,2.3,6.6,3.5,7.2c2.1,1.1,91.6,1.1,92.9,0.8c3-0.8,3.2-2.8,3.5-4C266.1,232.4,264.4,192.9,264.2,191.9z"/>
<path class="st5" d="M261.1,189.4c-5.6-1.3-11.3-1.9-17-1.9c-0.7,0-1.3,0.3-1.8,0.7l-1-0.1c-6.4-0.8-12.9-1.5-19.3-1.9
	c-12.6-1-25.2-1-37.7-0.1c-4.1,0.3-9.5,0-12.9,2.5c-3.6,2.6-3.4,6.8-3.6,10.8c-0.2,6.1-0.4,12.2-0.6,18.3
	c-0.1,5.2,0.4,10.4,0.6,15.6c-0.7,1.4-1,2.9,0,3.8l0.2,0.2c1.4,1.4,3.4,0.4,4.4-1.1c2.9-3.9,1.3-8,1.1-12.6
	c-0.3-6.2,0.1-12.5,0.3-18.8c0.1-3,0.2-6.1,0.3-9.1c0-0.2,0-0.4,0.1-0.7l1.3-0.2c6.6-0.8,13.3-1.2,20-1.1
	c12.6-0.1,25.2,0.6,37.7,2.1c6.4,0.7,12.9,1.6,19.2,2.6c5,0.8,7.6,0.2,9.8-4.6C263.2,192.3,263.1,189.9,261.1,189.4z"/>
<path class="st5" d="M343.1,190.4c-2.5-2.1-6-1.6-9.1-1.7l-11.9-0.3l-24.7-0.6c-5.1-0.1-11.3-1.4-14.5,3.5c-3.4,5.2-1.5,14-1.5,19.8
	c-0.1,1,0.5,1.9,1.5,2.2c0,1.2-0.1,2.3-0.1,3.5c-0.3,6.7-0.7,13.3-1.1,20c-0.1,2.1,1.7,2.6,3.3,1.9c2-0.9,3-3.5,3.2-5.5
	c0.6-8.2,1-16.5,1.3-24.7c0.1-3.3,1-8,0.6-12.2c2,0.2,4.8-0.2,6.2-0.2l8.9,0.2l15.8,0.4l8.9,0.2c2.7,0.1,6.5-0.6,8.7,1.3
	C341.3,200.4,346,192.9,343.1,190.4z"/>
<path class="st5" d="M466.1,189.7c-6.1-1.7-12.5-1.9-18.7-0.8c-0.2,0-0.4,0.1-0.6,0.2l-30.8-0.9l-24.5-0.7
	c-7.1-0.2-14.2-0.4-21.1,1.5c-0.2-0.2-0.4-0.3-0.5-0.5c-2-1.5-4.5,2.3-5.1,3.6c-2.7,6.4-2.2,14.2-2.4,21s-1.3,14.5,1.8,20.6
	c0.2,0.4,0.4,0.6,0.8,0.8c0,0.6,0.1,1.2,0.1,1.8c0.4,5.3,6.7-0.1,6.5-3.6c-0.2-2.6-0.3-5.2-0.4-7.9c1-5.5,1.4-11.1,1.9-16.7
	c0.3-3.3,1.5-8,1.2-12.1c5.3-0.7,10.7-0.4,16.1-0.2l24.5,0.7l48.1,1.4C466.3,198,470.2,190.8,466.1,189.7z"/>
<path class="st6" d="M472.9,203.7c-0.1-3.2,0.2-6.8-0.4-10c-1.1-6.2-5.1-6.6-10.5-7.3c-12.1-1.6-24.6-0.5-36.8-0.6
	c-14.1,0-28.1-0.3-42.2,0.1c-5.2,0.2-11.6-0.4-16.6,1c-5.4,1.5-3.5,7.4-3.9,11.5c0,0,0,0.1,0,0.1c-1.3,8.1-1,16.9-1,25.1
	c0,4.7-0.9,12.3,3.3,15.7c3.4,2.7,9.9,1.6,14,1.8c19.6,1.1,39.3-0.6,58.9,0.1c9.5,0.3,19.7,1.6,29.2,0.4c5.6-0.7,6.8-2.7,6.7-7.9
	C473.5,223.8,473.2,213.7,472.9,203.7z M468.4,239.2c-3,1.3-8.1,0.4-11.2,0.4c-4.6,0-9.2-0.1-13.8-0.4c-18.5-0.8-37,0.1-55.5,0
	c-3.7,0-7.3-0.1-11-0.3c-3.9-0.2-9.5,1-12-2.7c-2.2-3.3-1.5-8.5-1.6-12.3c-0.1-8.1-0.7-17.1,0.6-25.1c0,0,0-0.1,0-0.1
	c0.2-1.6,0-3.2,0.1-4.9c0.3-4,2.5-5,5.9-5.2c4.6-0.3,9.2-0.5,13.9-0.6c11.6-0.3,23.1-0.1,34.7,0c9.6,0,19.1,0.1,28.7-0.1
	c6-0.1,13.7-0.7,19.4,1.4c4.6,1.7,3.9,7,4,11c0.2,9.4,0.6,18.9,0.7,28.3c0,1.5,0,3,0,4.4C471.4,235.7,471.3,237.9,468.4,239.2
	L468.4,239.2z"/>
<path class="st6" d="M348.5,225.7c-0.1-8.7-0.1-17.4-0.3-26c0-0.8,0-1.6-0.1-2.5c-0.1-1.9,0.5-5.8-0.1-7.5
	c-1.3-3.3-8.3-3.4-11.1-3.6c-9.3-0.7-18.6-0.9-27.8-0.6c-5.2,0.2-10.4,0.6-15.7,0.8c-3.9,0.1-8.6-0.8-11.7,2
	c-1.9,1.7-2.2,3.8-2.2,6.2c0,4.6,0.1,9.2,0.2,13.8c0.1,9,0.4,18.1,0.3,27.2c0,0.1,0,0.2,0,0.3c0.7,6.9,9.8,5.7,14.7,5.8
	c9,0.2,18.1,0.3,27.1,0.4c7.1,0.1,15.2,1.5,22-0.5C349.6,239.7,348.6,230.6,348.5,225.7z M346.5,231.5c-0.1,2.5-0.4,6.5-2.9,7.9
	c-1.8,0.9-4.8,0.6-6.7,0.7c-4,0.1-8.1-0.1-12.1-0.1c-6.7,0-13.5-0.1-20.2-0.2l-13.4-0.1c-3.3,0-9,0.7-9.8-4l0,0
	c0.1-13.7-0.2-27.5,0.3-41.3c0.1-3.8,2.2-5.6,6.4-5.8s8.4-0.1,12.5-0.3c7.9-0.4,15.7-0.6,23.6-0.4c4.2,0.2,8.5,0.1,12.7,0.5
	c1.8,0.2,7,0.3,8.3,1.8c0.8,0.9,0.5,4.4,0.6,5.9c0.5,6,0.3,12.1,0.4,18.2C346.3,219.9,346.7,225.7,346.5,231.5L346.5,231.5z"/>
<path class="st6" d="M266.4,226.9c-0.4-11,0.2-22.6-1.5-33.5c0-0.1,0-0.1,0-0.2c-1-6.2-3.3-6.7-9.2-7s-11.8-0.6-17.7-0.7
	c-10.2,0-20.4,0-30.7,0c-9.5,0-18.9-0.1-28.4,0.2c-4.4,0.1-12.2-0.8-13.3,4.9c-0.6,3-0.2,6.6-0.3,9.6l-0.6,18
	c-0.1,4.5-0.8,9.2-0.5,13.7c0.3,3.8,2.2,8.6,6.3,9.5s9.1,0.2,13.4,0.3c21.3,0.2,42.6,0.9,63.8,0.5c4.1-0.1,8.2-0.1,12.2-0.4
	c1.9-0.1,4.3-0.1,5.5-1.9C267.6,236.7,266.5,230.5,266.4,226.9z M264.6,232c-0.1,2.3,0.2,6.2-2.3,7.3c-2.2,0.9-6.2,0.3-8.5,0.4
	c-19.3,0.5-38.7-0.1-58-0.3l-14.3-0.1c-4.3-0.1-10.9,1.4-13.3-2.5c-2.1-3.4-1.6-6.3-1.5-10c0.1-5.5,0.3-11,0.5-16.4l0.4-13.9
	c0-0.7,0.1-1.5,0.1-2.2c0-1.2-0.4-3,0.3-4.1c1.1-1.9,3.8-2,5.7-2.1c8.5-0.6,17.1-0.4,25.7-0.4l35.1-0.1c3.8,0,7.5,0,11.3,0.1
	c3.5,0.1,7,0.2,10.5,0.4c1.1,0,2.3,0,3.4,0.2c3.1,0.8,3.4,2.7,4,5.3c0,0.1,0,0.1,0,0.1c1.3,8.7,0.6,18.2,0.8,27
	C264.4,224.4,264.7,228.2,264.6,232L264.6,232z"/>
<path class="st7" d="M25.1,18.5c-1.4-2.3-4.8-1-5.9,1c-0.4,0.9-0.7,1.8-0.7,2.8c-0.4,0-0.9,0.1-1.3,0.1c-1.1,0.1-1.7,1.9-0.3,2.2
	c0.5,0.1,1.1,0.2,1.6,0.2c0,0.5,0.1,0.9,0.1,1.4c0.1,3,0,6-0.2,9c-0.1,1.8,2.7,1.8,2.8,0c0.1-3.2,0.1-6.4-0.1-9.6c0-0.2,0-0.4,0-0.7
	c0.6,0,1.2-0.1,1.8-0.2c0.7-0.2,1-0.9,0.9-1.5c-0.2-0.5-0.6-0.9-1.2-0.9h-1.6c0-1,0.6-1.9,1.4-2.4c0.6-0.3,1.6-0.2,2.3-0.5
	C25.1,19.2,25.2,18.8,25.1,18.5z"/>
<path class="st7" d="M28.1,17.6c-1.6,2.1-0.9,5.1-0.9,7.6c0,3.4-0.1,6.8-0.1,10.2c0.1,0.7,0.7,1.2,1.3,1.1c0.6-0.1,1.1-0.5,1.1-1.1
	c0.1-3.7,0.2-7.3,0.2-10.9c0-2.5,0.5-5-1.1-7C28.4,17.5,28.3,17.5,28.1,17.6C28.1,17.6,28.1,17.7,28.1,17.6L28.1,17.6z"/>
<path class="st7" d="M44.6,32.7c-3.3,3.3-7.9,2-8.7-2c0.8,0.1,1.6,0.2,2.4,0.2c2.2,0.1,4.5,0,6.7-0.3c0.7,0,1.3-0.6,1.4-1.4
	c0.2-3.4-1.8-6.8-5.3-7.3c-3.3-0.5-6.3,1.6-7.2,4.8c-1,3.5-0.5,7.3,2.7,9.3s7.3,1,9.9-1.6c0.4-0.6,0.3-1.4-0.3-1.9
	C45.7,32.3,45,32.3,44.6,32.7z M43.5,28.1c-1.6,0.2-3.2,0.3-4.8,0.3c-1,0-1.9-0.1-2.9-0.1C36.5,23.2,42.7,23.7,43.5,28.1z"/>
<path class="st7" d="M59.9,34.7l-4-4.8c1.1-1.7,2.1-3.6,3.3-5.2c0.3-0.3,0.4-0.7,0.3-1c-0.1-0.1-0.1-0.4-0.3-0.5L59,23
	c-0.4-0.2-1-0.2-1.3,0.2c-1.4,1.4-2.6,2.9-3.5,4.6c-1.4-1.7-2.8-4.2-4.9-5c-0.3-0.1-0.7,0.1-0.7,0.4c0,0,0,0.1,0,0.1
	c0.1,2.5,2.5,4.7,4,6.6l0.1,0.1c-1.4,1.7-2.9,3.3-4.4,4.8c-1.2,1.3,0.7,3.2,2,2c1.4-1.5,2.9-3,4.2-4.6c1.2,1.5,2.4,3,3.7,4.5
	S61.1,36.1,59.9,34.7z"/>
<path class="st7" d="M62.7,30.8c1.9,0.6,3.9,0.7,5.9,0.4c1.5-0.3,1-2.4-0.3-2.5c-1.7-0.2-3.5-0.1-5.2-0.3
	C61.6,28.3,61.4,30.4,62.7,30.8z"/>
<path class="st7" d="M81.6,24.1c-2-2.5-8.8-3.6-9.8,0.4c-0.6,2.3,0.9,4.2,2.8,5.2c1.3,0.6,3.6,0.7,4.5,1.9c2.5,3.5-4.1,4.6-5.9,1.7
	c-0.8-1.2-2.7,0-1.9,1.1c1.5,2.1,4,3.1,6.5,2.6c2.3-0.4,4.6-2.1,4.3-4.7s-3-3.6-5.2-4.1c-1.4-0.4-4.3-1.3-2.8-3.2
	c0.6-0.7,1.5-1,2.4-0.8c1.3,0.3,2.6,0.8,3.7,1.6C81.4,26.6,82.3,25,81.6,24.1z"/>
<path class="st7" d="M90.1,33.8c-1.5,1.1-1.7-3.2-1.8-3.9c-0.1-1.4-0.2-2.9-0.1-4.3c0-0.1,0-0.3,0-0.4c0.7,0.2,1.5,0.2,2.2,0
	c0.7-0.2,1-0.9,0.8-1.6c-0.1-0.3-0.3-0.5-0.5-0.7c-0.7-0.3-1.5-0.4-2.3-0.3c0.1-1.1,0.1-2.2-0.1-3.2c-0.1-0.5-0.6-0.7-1.1-0.6
	c-0.2,0.1-0.4,0.2-0.5,0.4c-0.4,1.1-0.7,2.2-0.9,3.3c-0.5,0-1.1,0-1.6,0.1c-1,0.2-0.7,1.5,0,1.8c0.4,0.2,0.9,0.3,1.3,0.4
	c-0.2,3,0.1,6,0.7,8.9c0.6,2.6,3.7,4.5,5.5,1.8C92.3,34.5,91,33.1,90.1,33.8z"/>
<path class="st7" d="M105,29.1c-0.2-1.8-0.3-4-1.6-5.4c-2.2-2.5-6.5-1.8-8.6,0.5c-0.3,0.3-0.3,0.7,0,1c0.1,0.1,0.3,0.2,0.5,0.2
	c2.7,0,6.1-2,6.8,2.2c0,0.2,0,0.4,0.1,0.6c-1.5-0.6-3.2-0.8-4.8-0.6c-2.6,0.5-4.4,2.9-4.1,5.5c0.5,4.8,6.1,4.8,9.5,2.6V36
	c0,1.9,3.1,1.9,3,0C105.5,33.6,105.3,31.4,105,29.1z M99.3,34.5c-1.4,0.3-3.3,0-3.6-1.6c-0.5-2.3,1.6-3.1,3.5-2.9
	c1.1,0.2,2.2,0.5,3.3,0.9c0,0.6,0.1,1.2,0.1,1.8C101.6,33.4,100.5,34.1,99.3,34.5L99.3,34.5z"/>
<path class="st7" d="M115.7,23.1c-1.5-0.7-2.9,0.6-4.1,1.5c-0.1,0.1-0.2,0.1-0.3,0.2c-0.1-0.7-0.4-1.4-0.8-2c-0.2-0.2-0.5-0.2-0.7,0
	c0,0,0,0,0,0c-1.2,1.5-0.9,3.4-0.9,5.2c0,2.6-0.1,5.2,0,7.8c0,0.7,0.6,1.3,1.3,1.3c0.7,0,1.3-0.6,1.3-1.3c0.1-2.6,0-5.2,0-7.9v-0.5
	c0.4-0.4,0.9-0.8,1.4-1.1c0.4-0.3,0.8-0.6,1.2-0.8s1.2-0.4,1.7-0.8S116.5,23.5,115.7,23.1z"/>
<path class="st7" d="M125.6,22.8c-0.9-0.3-1.9-0.5-2.9-0.4c0-1.1-0.2-2.1-0.5-3.1c-0.1-0.5-0.6-0.7-1.1-0.6
	c-0.3,0.1-0.5,0.3-0.6,0.6c-0.3,1-0.4,2.1-0.5,3.2c-0.6,0-1.3,0.1-1.9,0.3c-0.5,0.2-0.8,0.8-0.6,1.3c0.1,0.3,0.3,0.5,0.6,0.6
	c0.6,0.2,1.2,0.3,1.9,0.3c0,0.5,0,1,0,1.5c0,2.4-0.4,5.3,0.2,7.6c0.7,2.7,3.7,4,5.4,1.5c0.9-1.3-1.2-2.9-2.2-1.7
	c-0.2,0.2-0.6-3.4-0.6-3.9c0-1.4,0-2.7-0.1-4.1c0-0.3,0-0.5,0-0.8c0.7,0,1.5,0.1,2.2,0.2c0.7,0.2,1.4-0.2,1.6-0.9
	S126.3,23,125.6,22.8z"/>
<path class="st6" d="M478.5,193.8c0-4.5,1.1-11.9-1.8-15.8c-1.5-2-4.2-2.1-6.5-2.5c-5.4-0.9-10.5-0.4-15.9-0.3c-1.6,0-3.2,0-4.8,0
	c-28.6,0-57.2-0.1-85.9-0.2c-48.2-0.1-96.5-0.2-144.7-0.1c-45.4,0-90.8,0-136.2-0.1c-21.1,0-42.4-1-63.4,0
	c-6.5,0.3-13.5,2.5-14.4,9.6c-0.5,4.9-0.7,9.9-0.6,14.9L4,231.9c0,4.6-0.3,9.5,0.5,14c1,5,5.5,7.7,10.3,7.9c5.7,0.2,11.4,0,17.1,0
	c25.6,0.1,51.1,0,76.7,0c46.8,0,93.6,0,140.4,0h137.1c21.2,0,42.4-0.1,63.6-0.1c6.8,0,13.7,0,20.5-0.4c5.7-0.3,7.2-1.4,7.6-7.2
	c0,0,0-0.1,0-0.1c0.8-8.9,0.3-18.2,0.4-27.1C478.4,210.4,478.5,202.1,478.5,193.8z M472.5,251.5c-1.4,0.4-3.4,0.2-4.9,0.2
	c-4.9,0.1-9.9,0.1-14.8,0.1H449h-7.5l-35.2-0.1c-41.1,0-82.3,0-123.4,0H140.9H43.4c-6.6,0-13.2-0.1-19.9,0c-3.2,0.2-6.4,0.2-9.5,0
	c-1.4-0.1-2.8-0.6-4-1.4c-3.8-2.5-3.3-6.2-3.5-10.1c-0.2-3.4-0.3-6.6-0.3-10c0.1-10.6,0.1-21.2,0.2-31.8c0-5.9-1.2-15.1,4.1-18.7
	c2.7-1.8,6.4-2.2,9.6-2.3c2.5-0.1,5,0,7.5,0h35l123.2,0.1c48,0,96,0,144.1,0.1c35,0,69.9,0,104.9-0.1c6.3,0,12.7,0.1,19-0.1
	c0.7,0,1.4,0,2.1-0.1c5.1-0.2,13-1.6,17.8,1c4.4,2.4,3.1,11.9,3.1,16.2c0,9,0,18-0.1,27c0,8.1,0.5,16.5-0.3,24.6c0,0.1,0,0.1,0,0.2
	C476.2,248.7,475,250.8,472.5,251.5L472.5,251.5z"/>
<path class="st6" d="M479.2,362.7c-0.3-11-0.7-22-1-33c-0.1-3.8-0.1-7.6,0-11.4c0-2.7,0.2-6.5-2-8.5c-1.7-1.5-5.2-1.9-7.3-2.3
	c-6.5-1.3-13.2-0.6-19.8-0.6c-25.5-0.1-50.9,0-76.4,0H233.1H97.5c-20.8,0-41.5,0.1-62.3,0.1c-7.7,0-16-0.8-23.6,0.9
	c-7.2,1.6-5.4,7.6-5.8,13.8c0,0.1,0,0.2,0,0.2c0.2,16.7-0.4,33.5,0.6,50.1c0.2,3.1-1.1,10,2.2,11.8c4.5,2.4,12.2,1.5,17.1,1.5
	c8,0,16-0.1,24,0c25.2,0.4,50.3,0,75.5,0c46.7,0,93.4-0.1,140.1-0.2l136.4-0.3l64.4-0.2c5.7,0,12,0.7,12.6-6.4
	C479.2,373,479.3,367.8,479.2,362.7z M476.7,373.1c-0.3,3.9,0.3,8.7-4.6,9.3c-2.3,0.1-4.6,0.1-6.9,0h-8l-35.9,0.1l-123.6,0.2
	L156.6,383c-32.2,0.1-64.3,0.2-96.5,0.4c-9.5,0-19.1-0.3-28.6,0c-6.2,0.4-12.5,0.2-18.7-0.5c-3.4-0.5-4.1-0.7-4.3-4.2
	s-0.5-6.8-0.7-10.2c-0.5-7.9-0.3-15.9-0.4-23.8c-0.1-7.7-0.2-15.4-0.3-23.1c0,0,0-0.1,0-0.1c0.4-4.8-0.7-11.2,5.4-12.2
	c5.6-0.9,11.5-0.7,17.1-0.6l6.1,0h7.3c11.6,0,23.1,0,34.7,0l122.4,0h140.6h97c8,0,16.1-0.1,24.1-0.1c3.4-0.1,6.8,0.4,10.1,1.5
	c5.3,2.1,3.7,8.1,3.7,12.9c0,3.2,0.2,6.4,0.3,9.5c0.3,10.5,0.6,21,0.9,31.5c0,0.9,0.1,1.8,0.1,2.7
	C477.1,369.1,476.8,371.1,476.7,373.1z"/>
<path class="st6" d="M982.2,108.4c-0.2-8.3-0.3-16.6-0.5-24.9c-0.1-8,0.2-16.2-0.6-24.1c-0.6-5.5-2.2-11.6-8-13.6
	c-7.1-2.5-16.2-0.5-23.6-0.3c-4.3,0.1-8.5-0.4-12.8-0.4h-80.9c-46.8,0-93.6,0.1-140.5,0.2l-133.2,0.3l-43,0.1
	c-7.3,0-15.4-0.7-22.6,0.4c-9.2,1.4-7,9.2-6.9,16.4c0,3,0,6,0,9c0.1,10.7,0.2,21.3,0.3,31.9c0,4.2-1.1,8.8-0.1,12.8
	c1.5,6.3,7.7,8.1,13.4,8.4c5.5,0.2,11-0.1,16.5-0.1l78.8-0.2c46.3-0.1,92.7-0.2,139-0.3l133.4-0.4c20.6,0,41.3-0.2,61.9-0.2
	c7.6,0,15.5,0.5,23-0.8c7.5-1.3,6-7.7,6.4-13.9C982.3,108.6,982.3,108.5,982.2,108.4z M980.4,115.6c-0.5,4.6-3.8,5.3-7.7,5.7
	c-5.4,0.4-10.8,0.5-16.2,0.3c-1.5,0-2.9,0-4.4,0c-2.5,0-4.9,0-7.4,0c-11.4,0-22.8,0-34.2,0c-40.1,0.1-80.2,0.2-120.3,0.2l-139.9,0.3
	c-32.7,0.1-65.5,0.2-98.2,0.2c-5.3,0-10.6,0-15.9,0c-7.9,0-24.7,2.9-24.4-9.4c0.1-3.8,0.4-7.6,0.4-11.5c-0.1-10.5-0.2-21-0.2-31.5
	c0-3.3,0.1-6.6-0.1-9.9c-0.1-2.4-0.8-5.2-0.2-7.6c1-4.1,4.7-4.1,8.3-4.3c1.2-0.1,2.4-0.1,3.6-0.1c2.1,0,4.3,0,6.4,0l32.9-0.1
	l119.6-0.2l141-0.3c33.4-0.1,66.8-0.2,100.2-0.4c5.3,0,10.6-0.3,15.9-0.1c8.2,0.3,16.3-0.2,24.5-0.4c4.5-0.1,10,0,12.6,4.1
	c2.1,3.3,2.6,7.6,2.8,11.5c0.5,7.8,0.4,15.6,0.6,23.4s0.4,15.4,0.5,23.1c0,0,0,0.1,0,0.1C980.6,111,980.6,113.3,980.4,115.6z"/>
<path class="st6" d="M982.2,385.8c-0.2-8.3-0.3-16.6-0.5-24.9c-0.1-8,0.2-16.2-0.6-24.2c-0.6-5.6-2.2-11.6-8-13.6
	c-7.1-2.5-16.2-0.5-23.6-0.3c-4.3,0.1-8.5-0.4-12.8-0.4h-80.8c-46.8,0-93.6,0.1-140.5,0.2c-44.4,0.1-88.8,0.2-133.2,0.3l-43,0.1
	c-7.3,0-15.4-0.7-22.6,0.4c-9.2,1.4-7,9.2-6.9,16.4c0,3,0,6,0,9c0.1,10.7,0.2,21.3,0.3,31.9c0,4.2-1.1,8.8-0.1,12.8
	c1.5,6.2,7.7,8.1,13.4,8.4c5.5,0.2,11-0.1,16.5-0.1l78.8-0.2l139-0.3l133.4-0.3c20.6-0.1,41.3-0.2,61.9-0.2c7.6,0,15.5,0.5,23-0.8
	c7.5-1.3,6-7.7,6.4-13.9C982.3,386,982.3,385.9,982.2,385.8z M980.4,393c-0.5,4.6-3.8,5.3-7.7,5.7c-5.4,0.5-10.8,0.3-16.2,0.3
	c-1.5,0-2.9,0-4.4,0h-7.4h-34.2c-40.1,0.1-80.2,0.2-120.3,0.2l-139.9,0.3l-98.2,0.2c-5.3,0-10.6,0-15.8,0c-7.9,0-24.7,2.9-24.4-9.4
	c0.1-3.8,0.4-7.6,0.4-11.5c-0.1-10.5-0.2-21-0.2-31.5c0-3.3,0.1-6.7-0.1-9.9c-0.1-2.4-0.8-5.2-0.2-7.6c1-4.1,4.7-4.2,8.4-4.3
	c1.2-0.1,2.4,0,3.6-0.1c2.1,0,4.3,0,6.4,0c11,0,21.9-0.1,32.9-0.1l119.6-0.2l141-0.3c33.4-0.1,66.8-0.2,100.2-0.4
	c5.3,0,10.6-0.3,15.9-0.1c8.2,0.3,16.3-0.2,24.5-0.4c4.5-0.1,10-0.1,12.6,4.1c2.1,3.3,2.6,7.6,2.8,11.5c0.5,7.8,0.4,15.6,0.6,23.4
	s0.4,15.4,0.5,23.1c0,0,0,0.1,0,0.1C980.6,388.4,980.6,390.7,980.4,393z"/>
<path class="st7" d="M24.4,148.5c0.3,0,0.6-0.3,0.6-0.6v-0.5c0-0.5-0.3-1-0.9-1.1c-2.7-0.9-4.8,1-5.2,3.7c-0.1,0.7-0.1,1.3-0.1,2
	c-0.8-0.1-1.6,0.3-2.2,0.9c-0.1,0.2-0.1,0.4,0.1,0.6c0.6,0.5,1.5,0.8,2.3,0.6c0.1,0.8,0.2,1.7,0.3,2.5c0.2,2.8,0.1,5.6-0.2,8.4
	c-0.1,1.3,2,1.3,2.1,0c0.3-3,0.4-6.1,0.3-9.1c0-0.6-0.1-1.2-0.1-1.9c0.9,0,1.9-0.1,2.8-0.5c0.7-0.4,0.4-1.4-0.2-1.6
	c-0.9-0.2-1.7-0.3-2.6-0.2C21.3,149.9,22.7,148.5,24.4,148.5C24.4,148.5,24.4,148.5,24.4,148.5z"/>
<path class="st7" d="M28.4,147.5c-1.5,1.8-1,4.3-1,6.6c0,3.5-0.1,6.9,0,10.4c0,0.6,0.5,1.1,1.1,1.1s1.1-0.5,1.1-1.1
	c0.1-3.5,0-6.9,0-10.4c0-2.3,0.6-4.8-1-6.6C28.6,147.4,28.4,147.4,28.4,147.5C28.3,147.5,28.3,147.5,28.4,147.5L28.4,147.5z"/>
<path class="st7" d="M47.2,158.3c-1.2-3-3-6.5-6.7-6.6s-5.5,2-6.7,5.2s-0.8,6,2.2,7.9s6.7,2.4,9.2-0.2c0.5-0.5,0.4-1.3-0.1-1.7
	c-0.5-0.4-1.2-0.4-1.6,0c-1.8,1.7-4.1,1.4-6.1,0.2c-1.4-0.6-2.2-2-2.1-3.5c1.8-0.1,3.7-0.1,5.5,0.1c1.8,0.2,3.6,0.7,5.4,0.2
	C47,159.7,47.4,159,47.2,158.3z M38.9,157.2c-1,0-2.1,0.1-3.1,0.3l0,0c0.8-2,1.9-3.5,4.3-3.5c2.2,0.1,3.2,1.8,4,3.6
	C42.5,157.6,40.5,157.1,38.9,157.2L38.9,157.2z"/>
<path class="st7" d="M59.6,164.4c-0.4-2.2-2.7-3.8-4.3-5.4c1.5-1.9,3.7-4.1,4.1-6.4c0.1-0.4-0.2-0.9-0.7-0.7
	c-2.1,0.8-3.7,3.2-5.1,5.1c-0.6-0.9-1.2-1.7-1.8-2.6s-1.3-2.1-2.3-2.6c-0.7-0.3-1.5,0.4-1.1,1.1c1.3,2,2.3,4.1,3.6,6.1
	c-1.5,1.8-3.3,3.7-4,5.8c-0.3,0.9,0.8,1.9,1.7,1.3c1.6-1.4,2.9-3,4-4.9c1.2,1.6,2.5,3,4,4.3c0.5,0.4,1.2,0.3,1.6-0.1
	C59.6,165.1,59.6,164.7,59.6,164.4z"/>
<path class="st7" d="M62.6,159.9c0.9,0.3,1.9,0.4,2.8,0.3c1-0.1,2.2-0.1,2.8-1.1c0.3-0.6,0.1-1.3-0.4-1.6c-1-0.5-1.7,0-2.7,0.1
	c-0.8,0.1-1.7,0-2.5,0.1c-0.6,0.2-0.9,0.8-0.8,1.4C61.9,159.5,62.2,159.8,62.6,159.9z"/>
<path class="st7" d="M82.5,162.4c-3.5,3.2-7.6,0.9-8.4-2.5c2.6,0.3,5.2,0.3,7.8,0.1c2-0.2,3.1-1,2.9-3.1c-0.5-4-6.3-7.2-9.8-4.6
	c-1.9,1.5-3,3.7-3.1,6.1c-0.2,0.3-0.2,0.7,0,1c0.2,4.1,3.7,7.2,7.8,7c1.8-0.1,3.5-0.8,4.8-2.1C85.7,163.1,83.8,161.2,82.5,162.4z
	 M75.5,154.8c1.4-1.4,3-1,4.7-0.2c1.1,0.6,2.9,2,1.2,2.9c-0.9,0.5-3.3,0.2-4.4,0.2s-2.1,0-3.1,0C74.2,156.6,74.7,155.6,75.5,154.8
	L75.5,154.8z"/>
<path class="st7" d="M100.3,156.7c-0.3-1.8-0.8-3.8-2.7-4.6c-2.4-1-5.2,0.2-6.7,2.2c-0.1-0.6-0.4-1.2-0.8-1.6
	c-0.1-0.1-0.2-0.1-0.3,0c-1.7,0.8-1.3,3.4-1.4,5.1c-0.1,2.6-0.5,5.6,0.4,8c0.3,1,2,1.2,2.2,0c0.4-2.4-0.1-5.1-0.1-7.5
	c0-0.4,0-0.8,0.1-1.3c0.7-0.7,1.4-1.4,2.3-1.9c1.6-0.9,3.9-1.4,4.5,0.8c0.7,2.8,0.2,5.8,0.3,8.6c0,0.8,0.6,1.4,1.4,1.4
	s1.4-0.6,1.4-1.4C100.8,161.9,100.6,159.3,100.3,156.7z"/>
<path class="st7" d="M116.6,147.2c0-0.6-0.5-1.1-1.1-1.1c-0.6,0-1.1,0.5-1.1,1.1c-0.2,2.2-0.3,4.4-0.4,6.6c-1.9-1.5-4.9-2.4-7.1-1.3
	c-2.4,1.2-3.2,4.4-3.2,6.8c0,2.6,1.3,5.3,3.9,6.3c2,0.7,4.2,0.4,6-0.8c0.1,0.4,0.3,0.7,0.5,0.9c0.6,0.6,1.5,0.5,2.1-0.1
	c0.2-0.3,0.4-0.6,0.4-0.9C116.8,159,117,153,116.6,147.2z M108.8,163.3c-2.6-0.6-3.3-3.3-2.8-5.7s1.7-3.7,4.2-3.2
	c1.3,0.2,2.6,0.6,3.9,0.8c0,1.1,0,2.2-0.1,3.3c0,0.8-0.2,1.9-0.3,3C112.2,162.6,110.8,163.8,108.8,163.3L108.8,163.3z"/>
<path class="st3" d="M205.3,328.4c-0.5-2.5-3.2-2-4.8-1c-2.3,1.6-3.6,4.2-3.7,7c-0.3,7-0.6,14-0.9,21c-0.2,4.1,0.1,8.8-0.1,13.2
	h-0.3h-0.8c-0.1-0.1-0.3-0.1-0.4-0.2c-1.1-0.5-2.5-0.4-3.5,0.4h-0.1c-2.6,0.1-5.2,0.1-7.7,0.1c-5.8,0-11.6-0.1-17.4-0.3
	c-10.6-0.4-20.9-1.5-31.6-0.5c-11.6,1-23.3,1-35,0.2c-4.7-0.3-9.4,10.7-4.1,11c6.9,0.4,13.9,0.8,20.8,0.7s14-1.1,21.1-1.5
	c13.6-0.6,27.5,1.4,41.2,1.3c4.1,0,8.7,0.4,13,0c3,0.9,6.4,0.9,8.9-0.8c2.8-1.9,3.6-4.9,3.9-8c0.5-1.3,0.9-2.6,1.2-3.9
	C207.2,354.7,207.8,340.9,205.3,328.4z"/>
<path class="st3" d="M398.9,350.7c-0.5-7.5-0.6-15-0.4-22.6c0.2-1.5-0.9-2.9-2.3-3c-0.3,0-0.6,0-1,0l-2.6,0.5
	c-4.2,0.8-7.8,10.9-2.8,10.9c-0.1,5.7,0,11.4,0.3,17.1c0.2,4.7,1.3,10,1.5,15c-13.5,0.9-27,1.3-40.5,1.2c-7.6-0.1-15.1-0.4-22.7-0.8
	c-7.3-0.4-14.5-1.4-21.8-0.7c-4.5,0.4-8.3,11.4-2,10.8c7.1-0.7,14.5,0.6,21.6,1c7.5,0.4,15.1,0.6,22.7,0.7
	c14.8,0.1,29.6-0.5,44.4-1.6c3.4-0.3,5.6-3.5,6.3-6.5C401,365.4,399.3,357.9,398.9,350.7z"/>
<path class="st3" d="M287.6,357.2c-0.3-4.9,0.3-9.7-0.1-14.6c-0.5-5.2-1.5-10.3-3-15.2c-1.8-5.8-9.7,2.9-8.3,7.2
	c2.2,7.3,3.2,14.9,2.8,22.5c-0.1,1.9-0.1,3.8,0,5.8c0.1,1,1,3.7,0.6,4.5l0.5,0.2c-1,0.2-2.1,0.3-3.1,0.3c-1.9,0.1-3.9,0-5.8,0.1
	l-23.2,0.3c-7.8,0.1-17.6,1.9-25-0.9c-4.7-1.8-10.4,8.8-6,10.4c9.3,3.5,21,1.5,30.8,1.4l16.5-0.2c4.7-0.1,10,0.5,14.6-0.8
	c3.8-1.1,7-3.9,8.5-7.6C289.4,366,287.9,361.9,287.6,357.2z"/>
<path class="st4" d="M200.1,367.8c-0.4,2,0,4.1-4.8,5.1c-1.2,0.2-94.8,3.2-102.9-1c-2.9-1.5-2.9-5.6-2.7-7.9
	c0.1-1.5,0.2-40.7,1.8-42.5s51.2-1.2,51.2-1.2l50.6,0.4c2.3,0,5.2,5.7,5.5,8.2S200.5,365.8,200.1,367.8z"/>
<path class="st4" d="M280.6,324c-0.2-1-3-3.1-5.3-3.6c-0.6-0.1-56.3-0.6-57-0.5c-4.6,0.9-4.6,8.9-4.6,9.7c0,0,0.6,36.7,0.7,38.3
	c0.1,0.7,3.6,4.6,4.6,5.2c1.8,1.1,53.4,0.5,55.8,0.3c6.8-0.5,6.6-3.9,6.7-5.2S280.8,325,280.6,324z"/>
<path class="st4" d="M297.1,369c0.2,1,1.4,4.1,4.1,4.4c3.5,0.3,86.5,0.3,88.2,0.4c4.7,0.1,4.8-6.3,4.7-7.1l-0.3-38.2
	c-0.2-1.6-2.3-6.6-3.5-7.2c-2.1-1.1-5-0.7-8.9-0.8c-4.6,0-79.7-0.3-81,0c-2,0.3-3.4,2-3.5,4C297,325.8,296.9,368,297.1,369z"/>
<path class="st5" d="M279.5,322.4c-10.2-2.8-20.9-4-31.5-3.4c-5.4,0.2-10.8,0.7-16.2,1.2c-4.1,0.4-9.6-0.1-13.2,2.1
	c-7.6,4.4-5,16.4-4.4,23.4c0.4,5.5,1,10.9,1.7,16.4c0.3,2.5-0.3,5.9,1.7,7.8c1.2,1.1,3.2-0.8,3.9-1.6l0.3-0.3
	c1.1-1.2,2.4-4.3,1.1-5.7l-0.2-0.2l-0.1-0.1c-0.5-6.6-1.4-13.2-1.9-19.8c-0.2-2.3-0.3-4.5-0.4-6.8c0-1.2-0.8-5.1-0.2-5.8
	c1-1.2,7.6-1,9.6-1.2c15.8-1.4,31.3-2.1,46.8,2.3C279.7,331.6,283.5,323.6,279.5,322.4z"/>
<path class="st5" d="M390.3,321.6c-12.4,0.3-24.7,0.7-37,0.8s-24.5-1.6-36.8-2.4c-7.3-0.5-19.5-1.7-19.1,9c0.1,2.5,0.4,4.9,0.7,7.4
	c-2.7,10.8-1,23.1,0.7,33.4c0.7,4.2,6.1-1.4,6.3-3.5c0.7-7,0.9-14,0.8-21c-0.1-3.5-0.4-7-0.7-10.5c0-0.5-0.2-1.1-0.3-1.7
	c0.7-1.8,1.7-3.4,2.9-4.8c0.1-0.2,0.2-0.3,0.4-0.5c1.3,0.1,2.5,0.3,3.4,0.4c3.5,0.2,6.9,0.5,10.4,0.8c7.2,0.7,14.4,1.4,21.7,1.6
	c14.5,0.4,29.2-0.4,43.7-0.8C390.7,329.8,394.1,321.5,390.3,321.6z"/>
<path class="st6" d="M395.2,361.8c-0.1-10.7,0.3-21.5-0.2-32.1c-0.1-3.1-1.5-7.8-4.3-9.5c-3.5-2.1-9.5-0.8-13.6-0.9
	c-21.2-0.2-42.5-0.9-63.7-0.5c-3.8,0.1-15-1.6-17,3c-1.5,3.4-0.6,9.1-0.6,12.8c0.1,6.7,0.2,13.5,0.3,20.2c0.1,4.1-0.2,8.5,0.3,12.6
	c0,0.1,0,0.1,0,0.2c1,6.2,3.3,6.7,9.2,7s11.8,0.6,17.6,0.7c10.1,0.1,20.2,0,30.3,0c9.1,0,18.2,0.1,27.4-0.2c3.8-0.1,12,0.9,13.9-3.5
	C395.9,369.1,395.2,364.7,395.2,361.8z M389.9,372.6c-1.3,0.3-2.7,0.4-4,0.4c-8.1,0.4-16.2,0.4-24.3,0.4h-34.9c-3.7,0-7.3,0-11-0.1
	s-7.2-0.2-10.9-0.4c-1,0-2,0-3-0.2c-3.1-0.8-3.4-2.7-4-5.3c0,0,0-0.1,0-0.1c-0.4-3.1-0.1-6.5-0.1-9.6c0-5.6,0-11.3,0-16.9
	c0-3.9-0.1-7.8,0-11.7c0.1-2.2-0.3-6.3,2.2-7.4c1.9-0.9,5.6-0.3,7.6-0.4c19.5-0.6,39,0.1,58.5,0.3l12.8,0.1h3.6
	c1.8,0,5.1-0.5,6.9,0.4s2.8,3.6,3.2,5.3c0.7,2.6,0.4,5.5,0.4,8.3c0.1,5.5,0.1,10.9,0.2,16.4c0,4.4,0.1,8.8,0.1,13.1
	c0,0.8,0.1,1.6,0,2.4C393.1,370.3,393,371.6,389.9,372.6L389.9,372.6z"/>
<path class="st6" d="M282.3,352.9c-0.4-9.2-1-18.5-1-27.7c0-0.1,0-0.2,0-0.3c-0.7-7-10.2-5.7-15.2-5.8c-9-0.1-17.9-0.3-26.9-0.4
	c-6.9-0.1-15.5-1.7-22.1,0.6c-5.6,2-4.4,11.2-4.4,16c0.1,8.6,0.1,17.3,0.3,25.9c0.1,2.8-0.5,7,1,9.3c1.9,3.2,8.4,3.8,11.7,4.1
	c9,0.6,18.1,0.8,27.1,0.5c5.2-0.2,10.4-0.6,15.7-0.8c3.9-0.1,8.9,0.9,12.1-2c1.9-1.8,2.2-3.8,2.2-6.2
	C282.8,361.8,282.5,357.4,282.3,352.9z M275,372.3c-4.2,0.3-8.4,0-12.6,0.2c-7.7,0.4-15.4,0.8-23.1,0.5c-4.3-0.2-8.5-0.2-12.8-0.4
	c-2.5-0.1-4.9-0.6-7.3-1.4c-3.8-1.3-3.6-4.1-3.8-7.6c-0.4-5.8-0.2-11.7-0.3-17.5c-0.1-5.6-0.5-11.4-0.2-17c0.1-2.6,0.5-6.6,3.2-7.7
	c2-0.8,4.9-0.6,7-0.6c3.8-0.1,7.7,0.1,11.5,0.1l20.7,0.2l12.9,0.1c3.3,0,9-0.7,9.8,4l0,0c-0.1,13.7,0.7,27.4,0.6,41
	C280.5,369.8,279,372,275,372.3z"/>
<path class="st5" d="M187.6,321.7l-23.6-1.1c-1.2,0-2.5,1-3.4,2.3l-7.1-0.5l-39.8-2.6c-4.8-0.3-11.8-2.2-16.2,0.5
	c-3.2,2-4.6,5.7-5.1,9.2c-1.6,10.8-1.7,22.1-1.5,33.1c-0.5,0.9-0.7,2-0.5,3.1c0.2,0.9,0.5,1.8,0.7,2.7c1.3,4.6,6.4-2.1,6.4-4.5
	c-0.1-7.7,0-15.3,0.3-23c0.2-3.8,0.4-7.7,0.8-11.5c0.3-3.2,1.6-2.1,4.1-2c2,0.1,4,0.3,6,0.4l48.8,3.2l23.9,1.6
	c5.2,0.3,11.5,1.9,14.2-3.9C198.4,322.3,192.4,321.9,187.6,321.7z"/>
<path class="st6" d="M200.8,362.3c0,0,0-0.1,0-0.1c1.1-8.1-0.6-17-1-25.1c-0.2-4.8,1-12.3-3.4-15.8c-3.4-2.7-10-1.5-14.2-1.7
	c-20.2-1.1-40.5,0.8-60.7-0.1c-5-0.2-9.9-0.5-14.9-0.5c-4,0-8.3-0.5-12.2,0.4c-5.3,1.1-5.2,3.7-5.3,8.5c-0.3,10.3-0.3,20.6-0.4,30.9
	c0,3.4-0.6,7.3,0.6,10.5c2,5.3,7.5,5,12.4,5.5c12.1,1.3,24.7,0.3,36.9,0.3c13.9,0,27.9,0.3,41.9-0.2c5.2-0.2,11.3,0.3,16.4-0.9
	C202.3,372.5,200.4,366.5,200.8,362.3z M199.2,367c-0.3,3.7-2.2,5-5.6,5.2c-4.9,0.3-9.9,0.5-14.8,0.6c-11.4,0.3-22.8,0.1-34.2,0.1
	c-9,0-18-0.1-27,0c-6.9,0.1-13.7,0.2-20.5-0.9c-4-0.6-6.3-2.5-6.4-6.9c0-1.1,0-2.3,0.1-3.4c0.2-9.3,0.2-18.6,0.4-27.8
	c0.1-2.7-0.4-6.2,0.2-8.8c1.1-5,7.8-3.9,11.7-3.8c4.6,0,9.2,0.1,13.8,0.3c18.7,0.9,37.4,0,56.1,0.1c3.8,0,7.5,0.1,11.3,0.3
	s9.7-1,12.1,2.7c2.2,3.4,1.3,8.4,1.6,12.2s0.6,8,0.8,12c0.3,4.2,1.1,9,0.6,13.2c0,0,0,0.1,0,0.1C199.1,363.8,199.3,365.4,199.2,367z
	"/>
<path class="st7" d="M29.8,283.8c-3.7-5.4-11.3-0.4-11.8,4.8c-0.6,6,7,10.8,11.7,6.5c1.4-1.2-0.7-3.2-2-2c-3,2.8-7.9-0.9-7.7-4.4
	c0.2-3.8,5.1-6.6,7.9-3.5C28.8,286.2,30.5,284.9,29.8,283.8L29.8,283.8z"/>
<path class="st7" d="M44.6,290.5c0.8,0,1.4-0.6,1.4-1.4c0-8-10.6-9.6-13.6-2.5c-1.4,3.4-0.8,7.2,2.3,9.4s7.7,1.2,10.4-1.3
	c1.1-1-0.3-2.5-1.5-1.9c-2.1,1-4.1,2.5-6.5,1.5c-1.5-0.6-2.6-1.9-2.8-3.5C37.4,291.6,41.6,290.8,44.6,290.5z M43,287.8
	c-1.6,0.2-3.2,0.3-4.8,0.4c-1.2,0-2.5,0.1-3.7,0.3C35.8,283.7,42,283.2,43,287.8z"/>
<path class="st7" d="M61.5,286.3c0-1.6-1-3.1-2.5-3.6c-1.9-0.6-5.6,0-7.3,1.8c-0.1-0.7-0.3-1.3-0.6-2c-0.2-0.3-0.6-0.4-0.9-0.2
	c-0.1,0.1-0.2,0.1-0.2,0.2c-0.8,1.8-0.6,3.7-0.7,5.6c-0.3,2.4-0.4,4.8-0.3,7.2c0.1,1.3,2.1,1.8,2.4,0.3c0.4-2.3,0.6-4.7,0.5-7
	c0-0.6,0-1.3,0-2c2.1-0.8,4.6-3,6.4-1c1,1.2,0.5,3.1,0.3,4.6c-0.2,1.6-0.3,3.2-0.3,4.9c0,2.2,3.2,1.8,3.1,0
	C61.1,292.1,61.7,289.2,61.5,286.3z"/>
<path class="st7" d="M69.5,293c-1.4,1-1.3-3.4-1.3-3.8c0-1.3,0-2.6,0-3.9c0.9,0.3,1.9,0.1,2.6-0.6c0.5-0.5,0.5-1.4,0-1.9
	c-0.7-0.8-1.6-0.7-2.5-0.6c0-1.2-0.4-2.4-1.2-3.4c-0.2-0.2-0.6-0.2-0.8,0c0,0-0.1,0.1-0.1,0.1c-0.4,1-0.6,2.1-0.7,3.2
	c-0.4,0-0.7,0-1.1,0c-0.6,0-1.1,0.5-1.1,1.2c0,0.4,0.2,0.7,0.5,0.9c0.5,0.3,1,0.5,1.6,0.6c0,0.4,0,0.9-0.1,1.3
	c-0.3,2.1-0.2,4.3,0.1,6.4c0.5,2.8,3.2,5.1,5.8,2.8C72.4,294.2,70.8,292.1,69.5,293z"/>
<path class="st7" d="M84.3,293.4c-2.1,1.9-5.3,1.7-7.2-0.4c-0.6-0.7-1-1.5-1.2-2.4c2.5,0.3,5,0.4,7.5,0.2c1.7,0,3.7,0,3.4-2.3
	c-0.4-3.8-3.7-6.5-7.5-6.1c-0.9,0.1-1.8,0.4-2.6,0.8c-4.1,2.1-4.1,8.2-1.5,11.5s8,3.8,10.9,0.6c0.5-0.5,0.4-1.3-0.1-1.8
	C85.5,293,84.8,293,84.3,293.4z M79.8,284.7c2,0,3.7,1.4,4.2,3.3h-1.4l-2.6,0c-1.4,0-2.8-0.1-4.2,0
	C76.1,286.1,77.8,284.7,79.8,284.7L79.8,284.7z"/>
<path class="st7" d="M97.7,282.5c-1.2-0.9-3.2,0.1-4.3,0.9c-0.4,0.2-0.7,0.5-1,0.8c-0.2-0.6-0.5-1.2-1-1.7c-0.2-0.2-0.6-0.2-0.9,0
	c0,0-0.1,0.1-0.1,0.1c-1.1,1.8-0.3,4.4-0.3,6.4c0,2.3-0.8,4.8,0,7c0.2,0.7,0.9,1.1,1.6,0.9c0.5-0.2,0.9-0.6,0.9-1.2
	c0.3-2.5,0.3-5.1,0.2-7.6c0-0.4,0-0.8,0-1.2c0.6-0.3,1.1-0.6,1.6-1c0.5-0.4,1.1-0.7,1.8-0.9c0.6-0.1,1.2-0.3,1.7-0.7
	c0.4-0.5,0.4-1.2-0.1-1.6C97.8,282.6,97.7,282.6,97.7,282.5z"/>
<path class="st7" d="M530.2,20.2c-1.7-1.4-4.1-1.7-6.1-0.7c-1.5,0.7-3.2,2.3-2.7,4.1s2.8,2.6,4.4,3.1c1.6,0.5,4.4,1.2,3.6,3.5
	c-1.1,3.4-4.9,1-6.4-0.7c-1.2-1.3-3.1,0.6-1.9,1.9c1.8,1.8,4,3.3,6.7,2.9c2.1-0.3,3.8-1.8,4.2-3.9c0.2-1.9-0.8-3.8-2.6-4.6
	c-1.1-0.5-2.2-0.9-3.4-1.2c-1.7-0.6-3.1-2.4-0.5-3.2c1.3-0.3,2.6-0.1,3.7,0.7C530.3,22.7,531.2,20.9,530.2,20.2L530.2,20.2z"/>
<path class="st7" d="M548.4,25.1c0-3-2.4-5.5-5.4-5.5c-2.1,0-4.1,0.9-5.4,2.5c-0.2-0.5-0.5-1-0.9-1.4c-0.1-0.1-0.2-0.1-0.2,0
	c-1.8,1.8-1,4.6-1,7c0,3.7,0.1,7.3,0.1,11c0.1,0.7,0.7,1.2,1.3,1.1c0.6-0.1,1.1-0.5,1.1-1.1c0-1.8,0-3.5-0.1-5.3
	c1.8,1.3,4.2,1.6,6.3,0.6C547.3,32.4,548.6,28.3,548.4,25.1z M543.6,31.2c-1.8,1.2-3.8,0.4-5.1-1.1c-0.2-0.2-0.4-0.3-0.6-0.4v-2
	c0-1.1,0.1-2.2,0.1-3.3c1.2-0.8,2.1-2,3.6-2.4c1.8-0.6,3.7,0.4,4.3,2.1c0.1,0.4,0.2,0.9,0.2,1.4C545.9,27.3,545.2,30,543.6,31.2z"/>
<path class="st7" d="M562.3,26.2c-0.1-1.6,0.1-3.7-0.8-5.1c-1.7-2.7-6.2-1.9-8.5-0.4c-0.3,0.2-0.5,0.5-0.5,0.9c0,0.2,0,0.3,0,0.5
	c0,0.2,0.1,0.3,0.3,0.4c0.9,0.3,1.5-0.1,2.4-0.4c2.2-0.5,4-0.2,4.5,2.3c0.1,0.6,0.2,1.3,0.2,1.9c-1.5-1.4-3.5-1.9-5.5-1.5
	c-2.1,0.6-3.2,3-3,5.1c0.2,2.3,2,4.1,4.4,4.2c1.4,0,2.8-0.5,4-1.3c0,0.1,0,0.2,0,0.4c0,0.7,0.5,1.2,1.2,1.2c0.7,0,1.2-0.5,1.2-1.2
	C562.5,30.8,562.5,28.5,562.3,26.2z M554.1,29.2c0.2-3.3,3.7-1.5,6-1.5c0,0.6,0,1.2-0.1,1.7c-1,0.7-1.8,1.8-3.1,2.1
	c-1.1,0.4-2.3-0.2-2.7-1.3C554.1,29.8,554,29.5,554.1,29.2z"/>
<path class="st7" d="M577.9,21.8c0.4-3-4-3.1-5.9-2.6c-2.9,0.7-5.2,3.1-5.6,6.1c-0.4,3.1,0.2,6.5,3.2,8c2.5,1.2,6.6,0.5,7.8-2.3
	c0.3-0.6,0.1-1.2-0.4-1.5c-0.3-0.2-0.8-0.2-1.1,0c-1.5,0.7-2.7,2-4.5,1.5c-2.3-0.7-2.5-3.5-2.1-5.4c0.4-1.9,1.9-3.3,3.8-3.6
	c1.6-0.4,2.6,0.1,4,0.6c0.3,0.1,0.7-0.1,0.8-0.5C577.8,21.9,577.8,21.9,577.9,21.8L577.9,21.8z"/>
<path class="st7" d="M591.6,29.8c-3.2,2.4-7.7,2.2-8.2-2.2c2.8,0.2,5.5,0,8.2-0.5c1.7-0.4,2.1-1.9,1.7-3.5c-1-4.2-6.2-5.2-9.5-3.1
	c-3.6,2.2-4.4,7.6-2.1,11c2.6,4,7.7,2.7,11,0.4C594.1,31,592.8,28.9,591.6,29.8z M586,22.4c1.5-0.6,5-0.1,4.8,2.1
	c-2.3,0.6-4.8,0.5-7.3,0.7C583.9,23.9,584.8,22.9,586,22.4L586,22.4z"/>
<path class="st7" d="M597.2,27.5c1.5,0.6,3.3,0.1,4.9,0.1c0.8,0,1.5-0.7,1.5-1.5l0,0c0-0.1,0-0.3,0-0.4c-0.2-0.8-1-1.2-1.8-1
	c-1.5,0.5-3.4,0.5-4.7,1.4c-0.3,0.2-0.4,0.7-0.2,1C596.9,27.4,597.1,27.5,597.2,27.5L597.2,27.5z"/>
<path class="st7" d="M609.3,21.3c-0.1-2.4,0.2-4.9-1.5-6.7c-0.1-0.1-0.2-0.1-0.3,0c0,0,0,0,0,0c-1.4,2.2-0.6,5.1-0.5,7.5
	c0.1,3.4,0.1,6.8,0.2,10.2c0.1,0.6,0.6,1.1,1.3,1c0.6-0.1,1-0.5,1-1v-0.2c1.4,1.1,3.2,1.6,4.9,1.4c3-0.6,4.7-3.5,5-6.4
	C620,21,613.8,18.3,609.3,21.3z M613.9,31.1c-1.8,0.2-3-1-4.3-2l0,0c0-1.9,0-3.7-0.1-5.6c1.3-1,2.9-1.5,4.5-1.3
	c2,0.5,3.3,2.3,3.1,4.4C617,28.5,616,30.8,613.9,31.1z"/>
<path class="st7" d="M627.8,27.2c2.2-0.1,4.3,0,6.5,0.3c0.7,0.2,1.3-0.2,1.5-0.9c0-0.2,0-0.4,0-0.6c-0.5-2.9-3.1-5.9-6.3-6.1
	s-5.7,2.5-6.4,5.5c0,0.2-0.1,0.5-0.1,0.7c0,0.1-0.1,0.1-0.1,0.2c0,0.1,0,0.2,0,0.2c0,0.1,0,0.2,0,0.4c-0.3,2.7,0.9,5.3,3.1,6.9
	c3.2,2,6.2,0.2,8.7-1.9c1.2-1-0.5-2.6-1.7-1.7c-1.6,1.4-3.7,2.8-5.8,1.4c-1.3-1-2-2.6-1.9-4.3C626.2,27.3,627.1,27.2,627.8,27.2z
	 M629.8,22.5c1.3,0.4,2.3,1.2,2.9,2.4c-2.3-0.2-4.6-0.1-6.9,0.3C626.5,23.5,627.9,22.1,629.8,22.5L629.8,22.5z"/>
<path class="st7" d="M644.3,30.7c-2.1,1.5-2.4-2.8-2.5-5.4c0.8,0.2,1.5,0.2,2.3,0c0.7-0.2,1-0.9,0.8-1.6c-0.1-0.4-0.4-0.7-0.8-0.8
	c-0.8-0.2-1.6-0.3-2.4-0.1c0.1-2.3,0-4.5-0.3-6.8c-0.2-0.7-1.2-0.6-1.4,0c-0.5,2.3-0.7,4.6-0.7,6.9c-0.5,0-1,0.1-1.5,0.2
	c-0.5,0.1-0.7,0.6-0.6,1.1c0.1,0.3,0.3,0.5,0.6,0.6c0.5,0.1,1,0.2,1.5,0.3c0.2,5.5,1.6,10.8,6,7.5C646.5,31.8,645.4,29.9,644.3,30.7
	z"/>
<path class="st7" d="M663.9,20.3c-0.8,2.8-1.6,5.6-2.4,8.4c-1.4-3-2.8-6-4.1-9c-0.2-0.6-0.8-0.9-1.4-0.7c-0.3,0.1-0.5,0.2-0.6,0.5
	c-1.5,2.7-2.8,5.6-3.8,8.5c-0.8-2.8-2-5.4-3.6-7.9c-0.2-0.3-0.7-0.4-1-0.2c-0.3,0.2-0.4,0.5-0.3,0.8c0.8,4.1,2.4,8.1,3.5,12.1
	c0.2,0.7,1,1.1,1.7,0.9c0.4-0.1,0.8-0.5,0.9-0.9c1.1-3.3,2.4-6.6,3.7-9.8c1.4,3.4,2.7,6.7,4,10.1c0.2,0.7,1,1.2,1.7,0.9
	c0.4-0.1,0.8-0.5,0.9-0.9c1.2-4,2.3-8,3.5-12c0.1-0.8-0.5-1.5-1.3-1.5C664.8,19.4,664.2,19.8,663.9,20.3z"/>
<path class="st7" d="M679.6,31.3c-3.7,3-6.8-0.2-7.6-3.7c2.4,0.1,4.7,0.1,7.1-0.1c1.5-0.1,3.1,0,3-2c-0.2-4.4-4.7-7.6-8.8-6
	c-4.1,1.6-5.1,7-3.3,10.7c2.1,4.3,7.3,5.9,11.2,2.8C682.5,32,680.8,30.3,679.6,31.3z M676,21.6c1.3,0.2,2.4,1,2.9,2.1
	c0.3,0.5,0.5,1,0.7,1.5c-0.6,0-1.2,0-1.8,0.1c-2,0.2-4,0.2-6,0.5C671.8,23.5,673,21.4,676,21.6z"/>
<path class="st7" d="M694.9,27.6c1.5-0.1,4.1,0,4.1-2s-2.1-4-3.6-5c-1.7-1.2-3.9-1.5-5.8-0.8c-4.2,1.7-5.6,7.5-3.4,11.1
	s7.7,4.8,10.8,1.4c0.5-0.5,0.5-1.2,0-1.7c-0.5-0.5-1.2-0.5-1.7,0c-1.8,1.6-4.6,1.4-6.3-0.4c-0.4-0.4-0.7-0.9-0.9-1.5
	c-0.1-0.3-0.2-0.6-0.2-0.9C690.1,28.2,693,27.7,694.9,27.6z M688.2,25c0.6-1.7,2-3.1,3.9-2.9c1.3,0.3,2.4,0.9,3.2,1.9
	c0.2,0.3,0.5,0.5,0.7,0.7c-0.1,0-0.1,0-0.2,0c-0.7,0.2-1.5,0.2-2.3,0.2C692,25,690,24.8,688.2,25z"/>
<path class="st7" d="M714,32.3c-0.3-1.6-0.6-3.2-0.6-4.8c0-1.2,0.1-2.5,0-3.7c-0.1-1.7-1.1-3.3-2.6-4.2c-2.6-1.2-5,0.7-6.5,3
	c-0.1-0.7-0.3-1.4-0.5-2c-0.1-0.5-0.6-0.8-1.1-0.6c-0.3,0.1-0.5,0.3-0.6,0.6c-0.5,1.9-0.2,4.1-0.2,6.1c-0.1,2.1-0.1,4.2,0.2,6.2
	c0.2,0.6,0.8,1,1.5,0.8c0.4-0.1,0.7-0.4,0.8-0.8c0.3-2.1,0.4-4.1,0.2-6.2c0-0.5,0-1.1,0-1.7c0.6-0.4,1.2-0.9,1.7-1.4
	c1.3-1.2,3.8-3,4.6-0.2c0.4,1.4,0,3.1-0.1,4.5c-0.1,1.6-0.2,3.2-0.1,4.8c0,1,0.7,1.8,1.7,1.8c1,0,1.8-0.7,1.8-1.7
	C714,32.7,714,32.5,714,32.3z"/>
<path class="st8" d="M953.1,232.3c-0.2-6.6-0.3-13.2-0.5-19.8c-0.1-2.6-2.1-3.7-4.4-2.5c-2.6,1.5-4.2,4.3-4.2,7.3l0.5,17
	c0.1,2.5,0.1,5,0.2,7.6c0,1.2,0.1,2.5,0.1,3.7c-6.4,1.8-14.3,1.5-20.5,1.4c-8.3-0.1-16.5-0.8-24.8-0.9c-16.4-0.2-33.2,2.3-49.5,0.3
	c-4.6-0.5-9.5,10.3-4.1,11c12.8,1.5,26,0.2,38.8-0.2c12.5-0.4,24.9,0.7,37.4,0.8c5.8,0.1,11.6-0.3,17.3-1.3
	c5.4-0.9,10.8-1.9,13.2-7.3C954.6,244.4,953.2,237.6,953.1,232.3z"/>
<path class="st8" d="M780.2,207.8c-0.6-7.1-9,0.2-8.7,4.8c0.5,6.6,1.4,13.2,1.8,19.9c0.3,3.8,0.1,7.7-0.6,11.5
	c-0.5,2.3-0.7,2.8-2.9,3.4c-1.9,0.4-3.8,0.7-5.7,0.8c-15.2,1.2-30.9-0.7-46-2.2c-4.6-0.5-9.4,10.4-4.1,11c9.8,1,19.6,1.9,29.4,2.2
	c8.6,0.3,20,1.7,28.1-2.2c7.8-3.8,10-13.7,10.5-21.5C782.6,226.2,780.9,216.9,780.2,207.8z"/>
<path class="st8" d="M646.6,208.6c-0.4-7.1-8.9,0.2-8.7,4.8c0.3,6.3,0.5,12.7,0.5,19c0,2.8,0,5.7-0.1,8.6c0,1.6-0.1,3.2-0.1,4.8
	c0,0.2,0,0.5-0.1,0.9c-5.6,1.1-11.7,1.3-17.2,1.6c-7.4,0.4-14.8,0.3-22.2,0.1c-14.9-0.5-29.7-1.9-44.5-2.5c-4.7-0.2-9.3,10.8-4.1,11
	c24.6,1,49.3,4.1,73.9,1.9c5.2-0.5,11.6-0.5,16.6-2.5c4.4-1.7,5.8-6.2,6-10.5C647.3,233.3,647.3,220.9,646.6,208.6z"/>
<path class="st4" d="M838.9,204.2c0.4-2,1.1-4.6,5.8-5.6c1.2-0.2,90.7-1.1,96.4,0.5c5.6,1.6,6.4,7.1,6.2,9.4c-0.1,1.5,0.2,33-0.2,36
	c-0.2,1.4-0.2,4.2-2.3,5.4c-3.7,2.1-99.1,1.7-101.2,0.8c-2.1-0.9-4.2-5.1-4.5-7.6C839.1,240.6,838.5,206.2,838.9,204.2z"/>
<path class="st4" d="M707.2,247.8c0.2,1,3.1,3.3,5.3,3.8c0.6,0.1,55.9,1.4,58.5-0.4c3.3-2.4,3.1-8,3.1-8.8c0,0,0.2-37.7,0-39.2
	c-0.1-0.7-2.6-3.7-3.6-4.2c-1.8-1.1-50.4-0.6-55.1-0.8c-7.5-0.3-8.2,3.8-8.3,5.1C707.1,204.7,707,246.8,707.2,247.8z"/>
<path class="st4" d="M640.8,203.1c-0.6-2-2.1-3.6-4.1-4.4c-4.3-1.4-83.2-1.4-90.9-0.5c-3.9,0.5-3.1,6.4-3,7.2l-0.7,38.2
	c0.2,1.6,2.6,6.8,3.7,7.4c2.1,1.1,85,1.7,90.9,0.7c4.7-0.8,3.6-2.8,3.8-4.1C640.5,246.2,641.1,204.2,640.8,203.1z"/>
<path class="st5" d="M943.1,201.6c-14.5-1.9-29.1-2.7-43.8-2.3c-6.8,0.2-13.5,0.7-20.2,0.7c-7.2,0-14.4-1-21.6-0.9
	c-4.7,0.1-11.5-0.2-15,3.5c-3.5,3.7-3.3,10.9-3.8,15.7c-0.6,5.9-1.2,11.8-0.4,17.7c0.6,4.4,2,11.3,6.8,12.7c3.3,0.9,7.1-7.1,3.1-8.2
	c-3.8-1-3.8-11.8-3.8-14.6c0.2-5.1,0.6-10.2,1.4-15.3c0-0.1,0.1-1.3,0.3-2.4l0.7-0.2c3,0.2,6.4-0.7,9.5-0.7c5.7,0.1,11.3,0.7,17,0.8
	c10.8,0.3,21.7-0.8,32.5-0.7c10.6,0.1,21.1,0.8,31.6,2.1c0.3,0.7,0.9,1,2.1,0.7l1.4-0.4C943.1,209.1,947.4,202.2,943.1,201.6z"/>
<path class="st6" d="M947.8,203.6c-1.8-5.2-6.5-5.1-11.3-5.7c-12-1.4-24.5-0.9-36.6-0.9c-13.9,0-27.7-0.3-41.6,0.2
	c-5,0.2-11.4-0.4-16.2,1c-5.4,1.5-3.5,7.4-3.9,11.5c0,0,0,0.1,0,0.2c-1.2,8-0.2,16.9,0,25c0.1,4.7-1,12.2,3.2,15.8
	c3.3,2.8,9.8,1.6,13.9,1.9c19.1,1.1,38.4,0.1,57.5-0.1c9.5-0.1,19.6,0.8,28.9-0.4c5.6-0.7,6.6-2.8,6.6-7.9c0-9.9,0.1-19.8,0.1-29.7
	C948.4,211,948.9,206.9,947.8,203.6z M943.1,249.4c-3.2,1.2-7.9,0.4-11.2,0.4c-4.8,0-9.5,0.1-14.2,0.2c-17.8,0.2-35.6,0.6-53.4,0.5
	c-3.7,0-7.4-0.1-11.1-0.3c-4.5-0.2-9.5,1-11.9-3.8c-1.6-3.3-1-7.7-1.1-11.3c-0.3-8-1.6-17.1-0.4-25c0,0,0-0.1,0-0.1
	c0.2-1.6,0-3.2,0.1-4.9c0.3-3.8,2.2-5,5.5-5.2c4.7-0.3,9.4-0.5,14-0.7c11.5-0.3,23,0,34.5,0c9.2,0,18.4,0.1,27.6,0.3
	c6.5,0.1,13,0.1,19.4,1.3c5.4,1,5.3,6,5.3,10.5c0,9.2,0,18.3,0,27.5C946.2,242.3,947,247.9,943.1,249.4L943.1,249.4z"/>
<path class="st5" d="M771.7,202c0-0.7-0.3-1.8-1-2.1c-3.9-1.8-9-1.6-13.2-1.7c-4.8-0.1-9.5,0.2-14.3,0.9h0c-1.1-0.1-2.3-0.3-3.4-0.4
	c-4.5-0.5-8.9-0.8-13.4-0.9c-4.2-0.1-9.5-0.7-13.5,0.8c-7.4,2.8-4.3,12.7-4.3,18.7c0.1,10,0.8,20.6-0.2,30.5
	c-0.6,5.8,5.9,2.3,6.3-1.6c0.7-7,0.3-14.2,0.3-21.2c0-3.8,0.1-7.5,0-11.3c0-2.4-0.5-5.2-0.6-7.7c2.3-0.1,4.6-0.1,6.9,0
	c3.2,0,6.4,0.2,9.6,0.5c6.4,0.5,12.7,1.3,19.1,2.1C756.2,209.3,772.4,213.2,771.7,202z"/>
<path class="st5" d="M640,201.1c-6.6-2.1-13.3-1.8-20.2-1.8c-8.1,0-16.2,0-24.3,0c-15.9-0.1-31.9-0.3-47.8-0.5
	c-2.7,0-4.9,3.4-4.8,5.9c0.4,7.6,0.8,15.2,0.9,22.9c-0.6,6.4-0.5,12.9-0.6,19.2c0,2,1.6,2.7,3.3,1.9c2-0.9,3-3.5,3.2-5.5
	c0.6-7.1,0.7-14.1,0.6-21.1c0.7-5.5,2.1-10.7,5.1-14.9c11.7,0.1,23.4,0.2,35.1,0.3c7.8,0,15.5,0,23.3,0c7.1,0,14.8-0.9,21.7,1.3
	C639.1,210,643.3,202.2,640,201.1z"/>
<path class="st6" d="M641.7,236.8c0-7,0-13.9-0.1-20.8c0-4.1,0.4-8.5-0.2-12.7c0-0.1,0-0.1,0-0.2c-0.7-5.7-4.2-5.4-9.2-5.7
	c-5.9-0.4-11.8-0.7-17.7-0.7c-10.2,0-20.5,0-30.7,0c-9.3,0-18.7,0-28,0.2c-4,0.1-12.3-0.9-13.9,3.9c-1,2.7-0.4,7-0.5,9.9
	c-0.2,10.7-1,21.5-0.6,32.1c0.2,4.1,1,8.9,5.5,9.7c4.5,0.8,9.6,0.2,14.2,0.3c21.4,0.2,42.8,1,64.2,0.5c3.8-0.1,14.5,1.5,16.4-3.3
	C642.6,246.5,641.7,240.5,641.7,236.8z M640.1,213.2c-0.1,5.7-0.1,11.3-0.2,17c-0.1,4.1,0,8.3-0.2,12.4c0.1,1.8-0.1,3.5-0.4,5.2
	c-1.1,3.7-4.8,2.9-7.9,3c-19.6,0.7-39.3,0-59-0.2l-14-0.2h-3.6c-4,0-9.1,1.2-10.8-3.2c-1.2-3.2-0.8-6.7-0.7-10
	c0.1-5.2,0.2-10.5,0.3-15.7c0.1-4.7,0.2-9.4,0.2-14.2c0-0.7,0-1.5,0-2.2c0-2-0.2-3.2,1.4-4.7c1.4-1.2,3.1-1.2,4.9-1.3
	c8.5-0.5,17-0.4,25.5-0.4h34.8c3.5,0,7.1,0,10.7,0.1c3.8,0.1,7.5,0.2,11.3,0.4c3.3,0.2,7,0,7.7,4c0,0,0,0.1,0,0.1
	C640.6,206.5,640.1,210,640.1,213.2z"/>
<path class="st6" d="M775.1,236.4c-0.1-8.8-0.2-17.6-0.3-26.4c0-0.9,0-1.7,0-2.6c-0.1-1.7,0.4-5.2-0.3-6.6
	c-1.6-3.3-8.5-3.3-11.6-3.5c-9.2-0.7-18.4-0.7-27.6-0.5c-5.1,0.1-10.2,0.3-15.4,0.4c-4,0-8.9-0.9-12,2.2c-1.8,1.8-1.9,3.9-1.9,6.2
	c0,4.6,0.1,9.2,0.2,13.8c0.1,9.2,0.4,18.3,0.3,27.5c0,0.1,0,0.2,0,0.3c0.7,6.9,9.8,5.7,14.8,5.8c9,0.2,18.1,0.3,27.1,0.4
	c2.3,0,4.6,0,7,0.1c4.6,0.1,10.8,1,15.1-0.8C776,250.3,775.2,241.4,775.1,236.4z M773.1,242.5c-0.1,2-0.7,5.5-2.1,7
	c-1.7,2-5.4,1.6-7.8,1.7c-4,0.1-7.9,0-11.9-0.1c-6.7,0-13.4-0.1-20.2-0.2l-13.4-0.1c-3.3,0-9,0.7-9.8-4l0,0
	c0.1-13.9-0.2-27.8,0.3-41.8c0.1-3.8,2.1-5.7,6.4-5.8s8.4,0.1,12.5,0c7.7-0.2,15.4-0.4,23.1-0.1c4.2,0.2,8.5,0.1,12.7,0.4
	c2.1,0.2,6.7,0.2,8.4,1.6c1.4,1,1.1,4.3,1.2,6.2c0.3,6,0.2,12.1,0.2,18.1C772.9,231.1,773.4,236.9,773.1,242.5L773.1,242.5z"/>
<path class="st7" d="M527.7,165.7c-0.9-0.2-1.8-0.5-2.7-0.9c-2-1.4-1.3-2.8,0.4-3.4c2.1-0.7,3.2,0.9,5,0.7c0.2,0,0.4-0.1,0.4-0.3
	c1.2-4-8.2-3.7-9.2,0.2c-0.5,2.2,1.1,4,3,4.9c1.2,0.6,3.5,0.5,4.4,1.5c2,2-1,3.2-2.3,3.3c-1.5,0.2-3-0.5-3.8-1.8
	c-0.3-0.5-1.1-0.7-1.6-0.4c-0.5,0.3-0.7,1.1-0.4,1.6c0,0.1,0.1,0.1,0.1,0.2c1.5,2,4,2.9,6.4,2.5c1.9-0.4,4.4-1.9,4.5-4.1
	C532.4,167.2,529.6,166.2,527.7,165.7z"/>
<path class="st1" d="M975.4,187.8l-93.7-1.6c-1.9,0-3.7,2-4.8,4.2c-37.9,0-75.8-0.8-113.7-1.9c-70.4-2-140.8-4.5-211.3-3.1
	c-9.4,0.2-19.1-0.1-28.5,0.9c-7.3,0.7-11.3,6-11.6,13.1c-0.9,19.5-0.2,39.6,1,59.1c0.4,6.2,7.8-0.2,7.6-4.2c-1-16.5-1-33-1-49.5
	c0-2,0-3.9,0-5.9c-0.1-1-0.1-2,0-3l0,0c1.3-0.6,3.8-0.3,5.2-0.3l6.9-0.2c8.3-0.2,16.5-0.4,24.8-0.6c33.7-0.6,67.4-0.2,101.2,0.5
	c66.8,1.4,133.6,4.2,200.4,4.6c38,0.2,76-0.4,114-2.6C975.6,197.2,980.1,187.9,975.4,187.8z"/>
<path class="st7" d="M548.3,165c-0.5-3.1-2.2-5.1-5.6-5.2c-2-0.1-4,0.6-5.4,2c-0.1-0.6-0.2-1.2-0.3-1.8c-0.1-0.6-0.6-0.9-1.1-0.9
	c-0.6,0.1-0.9,0.6-0.9,1.1c0.2,6.1,0.8,12,0.5,18.1c-0.1,1.5,2.3,1.5,2.4,0c0.1-2.1,0.2-4.2,0.2-6.3c2.1,1.5,4.8,1.8,7.1,0.8
	C548.4,171.8,548.8,168,548.3,165z M545.7,170.2c-1.4,2-5.6,1.6-6.9-0.2c-0.2-0.2-0.4-0.4-0.7-0.4c-0.1-1.8-0.2-3.6-0.4-5.4
	c1-1.1,2.3-1.8,3.7-2.2c2-0.4,4.2,0.2,4.8,2.3C546.5,165.9,546.7,168.7,545.7,170.2z"/>
<path class="st7" d="M563,165.3c0-1.6,0-3.3-1-4.6c-2-2.5-6.4-1.3-8.8-0.2c-1.2,0.5-0.3,2.4,0.9,2c1.2-0.4,2.5-0.7,3.8-0.7
	c0.8,0,2,0.2,2.5,1c0.2,0.7,0.3,1.4,0.2,2.1v0.9c-1.3-0.8-2.8-1.1-4.4-1.1c-2.4,0.1-4.3,2-4.3,4.4c0,4.5,5.5,5,8.8,3.1
	c0,0.2,0,0.3,0,0.5c0.1,0.7,0.7,1.2,1.3,1.1c0.6-0.1,1.1-0.5,1.1-1.1C563.1,170.3,563.1,167.8,563,165.3z M557.6,170.8
	c-1.5,0.4-3.8-0.1-3.3-2.2s2.9-1.8,4.4-1.3c0.7,0.3,1.3,0.5,2,0.7c0,0.5,0,1,0,1.5C559.7,170,558.7,170.5,557.6,170.8z"/>
<path class="st7" d="M577.6,162.3c1.2-2.6-3.2-3.3-4.8-3.2c-3.1,0.2-5,2.4-5.9,5.2c-0.9,2.8-0.3,6.1,2.3,7.9c3,2.1,6.8,1.5,9.8-0.3
	c0.6-0.3,0.8-1.1,0.4-1.7c-0.3-0.6-1.1-0.8-1.7-0.4c-2,1-4.1,1.8-6.3,0.9c-2.1-0.9-3.1-3.2-2.4-5.3c0.5-1.9,1.6-3.6,3.7-3.8
	c1.7-0.2,2.8,0.6,4.3,1C577.3,162.6,577.5,162.5,577.6,162.3L577.6,162.3z"/>
<path class="st7" d="M592.1,170.3c-2.4,2-6.2,2-8-0.7c-0.4-0.6-0.6-1.2-0.8-1.8c2.9,0.3,5.9,0.3,8.8-0.1c1.7-0.2,3-0.7,2.4-2.7
	c-1.3-4.3-5.9-6.8-9.9-4.4c-3.4,2.1-4.6,6.5-2.5,10c0.1,0.2,0.3,0.5,0.5,0.7c2.8,3.7,8,3.6,11.3,0.8
	C595,171,593.3,169.3,592.1,170.3z M586.6,162.2c1.3-0.4,2.8,0,3.8,1c0.5,0.5,0.9,1,1.2,1.6l-0.3,0.1c-1.2-0.3-3.2,0.2-4.4,0.2
	c-1.2,0-2.3,0-3.4,0.1C583.8,163.8,585.1,162.6,586.6,162.2L586.6,162.2z"/>
<path class="st7" d="M596.8,167.5c0.7,0.7,1.5,0.5,2.4,0.5c1,0.1,1.9,0.1,2.9,0c0.7-0.2,1.1-0.9,0.9-1.6c-0.1-0.4-0.5-0.8-0.9-0.9
	c-1-0.2-2-0.2-3.1,0c-0.9,0.1-1.9,0.1-2.4,1C596.5,166.8,596.6,167.2,596.8,167.5L596.8,167.5z"/>
<path class="st7" d="M615.8,160.3c-1.9-1.8-7.2-1.2-8.5,1.2c-0.1,0.3,0,0.6,0.2,0.7c0.1,0,0.2,0.1,0.2,0.1c1,0,1.9-0.2,2.8-0.5
	c2.2-0.5,4.3,0.1,4.7,2.7c0.1,0.5,0.1,1.1,0.1,1.6c-1.7-0.8-3.5-1.2-5.4-1.2c-2-0.3-3.8,1.1-4.1,3.1c0,0.3,0,0.6,0,0.9
	c0.1,2.1,1,4.6,3.3,5.2c2.3,0.5,4.3-0.8,6.1-2.2l-0.1,1.3c-0.1,1.5,2.4,1.5,2.3,0C617.4,169.6,618.8,163.2,615.8,160.3z
	 M611.8,171.7c-2.3,1.1-3.5-0.7-3.7-2.8c-0.2-3.3,4.9-1.3,7.4-0.7v1.1C614.3,170.2,613.1,171,611.8,171.7L611.8,171.7z"/>
<path class="st7" d="M629,159.8c-1.3-0.5-3.1,0.9-4,1.7c-0.2,0.2-0.5,0.4-0.7,0.7c-0.1-0.8-0.5-1.5-1.2-1.9c0,0-0.1,0-0.1,0
	c-1.2,1.2-0.6,3.2-0.6,4.8c0,2.5-0.3,5-0.4,7.6c-0.1,1.3,2,1.6,2.2,0.3c0.4-2.6,0.6-5.2,0.3-7.9c0-0.2,0-0.3,0-0.5
	c0.6-0.6,1.2-1.2,1.9-1.6c0.5-0.3,1-0.5,1.5-0.7c0.6-0.2,1.1-0.2,1.5-0.7c0.4-0.4,0.3-1-0.1-1.4C629.3,159.9,629.2,159.8,629,159.8z
	"/>
<path class="st7" d="M643,161c-0.3-0.4-0.8-0.4-1.2-0.1c0,0-0.1,0.1-0.1,0.1c-2.6-2.5-7-2-9.4,0.7c-2.4,2.7-2.8,7.4-0.2,10.1
	C638.4,178.4,649.2,167.6,643,161z M640.9,170c-1.9,1.8-5.5,2.6-7.4,0.5c-1.8-1.9-1.5-5.3,0.1-7.2c1.9-2.2,5-2,7.4-0.6
	c0.2,0.1,0.5,0.1,0.8,0C642.7,165.2,643.1,167.9,640.9,170L640.9,170z"/>
<path class="st7" d="M661.3,172.9c-0.6-4.3-0.9-8.5-0.9-12.8c0-0.7-0.5-1.2-1.2-1.2s-1.2,0.5-1.2,1.2l0,0c0,1.9-0.2,3.8-0.5,5.6
	c-0.3,1.4-0.6,4.1-1.9,5c-1.4,1-3.3,0.7-4.3-0.7c-0.1-0.1-0.2-0.2-0.2-0.4c-0.3-1-0.5-2-0.6-3c-0.2-2-0.2-4-0.1-6
	c0-0.5-0.3-0.9-0.8-1h-0.2c-0.4-0.1-0.7,0.1-0.9,0.4c-0.6,0.9-0.5,2.7-0.6,3.7c-0.1,1.8,0.1,3.6,0.4,5.3c0.5,2.7,1.8,4.5,4.7,4.8
	c2.4,0.2,4.6-1.1,5.5-3.3c0.1,0.9,0.2,1.9,0.3,2.8c0,0.7,0.6,1.2,1.3,1.1c0.7,0,1.2-0.6,1.1-1.3C661.3,173,661.3,173,661.3,172.9z"
	/>
<path class="st7" d="M675.8,164c-0.1-1.7-0.3-3.4-2-4.2c-2.1-1-5.4-0.1-7.2,1.7c0-0.5-0.1-1-0.2-1.4c-0.1-0.5-0.6-0.8-1.1-0.6
	c-0.3,0.1-0.5,0.3-0.6,0.6c-0.4,2.5-0.5,5-0.5,7.5c0,1.8-0.7,4.3,0.7,5.7c0.5,0.4,1.2,0.4,1.6,0c0.1-0.1,0.2-0.3,0.3-0.5
	c0.7-1.8,0.1-4.3,0.1-6.2c0-1,0-1.9-0.1-2.9c2.2-1.2,5.6-3.8,6.6-0.2c0.2,1.3,0.2,2.7,0.1,4c0,1.7,0,3.3-0.1,4.9s2.7,1.7,2.6,0
	C675.9,169.7,676,166.8,675.8,164z"/>
<path class="st7" d="M692,163.5c0-2.9,0.4-6.1-0.6-8.8c-0.1-0.3-0.4-0.5-0.8-0.4c-0.2,0.1-0.4,0.2-0.4,0.4l0,0
	c-0.7,2.1-0.9,4.2-0.8,6.4c-1.3-1.3-3.1-2-4.9-1.7c-2.7,0.5-4.8,3.7-5.1,6.3c-0.3,3,1.1,5.8,3.6,7.5c2,1.2,4.5,0.6,6.5-0.7
	c0,0.4,0,0.8,0,1.2c0,0.7,0.6,1.3,1.3,1.3c0.7,0,1.3-0.6,1.3-1.3C692.1,170.3,692,166.9,692,163.5z M686.6,171
	c-3.1,1.1-5.4-2.1-5.1-4.9c0.2-1.9,1.6-4.2,3.5-4.5s3.1,1,4.5,2c0,2,0,3.9,0,5.9C688.5,169.9,687.7,170.6,686.6,171z"/>
<path class="st7" d="M531.2,297.9c-2.8-3-10.2-3.2-10,2.2c0.1,2.5,2.2,3.2,4.1,3.9c1.3,0.5,5.2,1.3,4.1,3.2c-0.4,0.8-1.7,1-2.5,1.2
	c-1.9,0.4-3.2,0.2-4.4-1.5c-0.2-0.6-0.9-0.8-1.4-0.6c-0.6,0.2-0.8,0.9-0.6,1.4c1.1,5.1,11.1,4,11.7-0.9c0.2-2-2.3-3.1-3.8-3.7
	c-1-0.4-2.1-0.7-3.1-1.1c-0.5-0.2-1-0.4-1.4-0.6c-1.2-1.6-1-2.7,0.6-3.3c1.8-0.7,3.9,0.6,5.4,1.3c0.5,0.3,1.1,0.3,1.4-0.2
	C531.8,298.9,531.7,298.3,531.2,297.9L531.2,297.9z"/>
<path class="st7" d="M547.9,302.3c-0.6-2.8-2.4-5.5-5.4-5.9c-1.9-0.2-3.8,0.4-5.4,1.5c0-0.3-0.1-0.6-0.1-0.9
	c-0.2-0.9-1.5-0.7-1.6,0.2c-0.3,5.7-0.5,11.6-0.3,17.3c0,1.3,2.2,1.3,2.1,0c-0.1-2,0-4,0.1-6.1c2,1.7,4.8,2.2,7.2,1.3
	C547.5,308.6,548.5,305.3,547.9,302.3z M543.9,307.5c-2.2,1.2-4.3,0-6-1.5c-0.1-0.1-0.3-0.2-0.5-0.2c0.1-1.8,0.1-3.7,0-5.5
	c0.7-0.4,1.4-1.1,2.2-1.4c2.6-1.2,5,0.2,5.9,2.8C546.1,303.7,545.9,306.3,543.9,307.5L543.9,307.5z"/>
<path class="st7" d="M563,302.2c-0.2-1.7-0.3-3.8-1.7-5c-2-1.9-7.6-1.4-8.7,1.2c-0.1,0.2,0.1,0.4,0.3,0.5c2.6,0.8,6.3-2.6,7.5,1.5
	c0.2,0.8,0.4,1.6,0.4,2.5c-3-2-8.9-1.3-9.2,2.7c-0.2,2.2,1.8,4,3.8,4.5c1.9,0.3,3.8,0,5.4-0.9v0.2c-0.1,0.6,0.3,1.1,0.9,1.1
	c0.6,0.1,1.1-0.3,1.1-0.9C563.4,307.2,563.4,304.7,563,302.2z M553.8,306c-0.1-1.2,0.4-1.5,1.5-1.8c0.6-0.2,1.2-0.3,1.9-0.3
	c1.3,0,2.6,0.3,3.7,1c0,0.5,0,0.9,0,1.4C558.5,307.3,554.3,309.8,553.8,306z"/>
<path class="st7" d="M578.5,298.3c-1.1-2.8-4.4-2.7-6.9-2c-2.8,0.8-4.8,3.2-5,6.2c-0.3,2.7,0.4,5,2.7,6.5c3.1,2,5.9,1.5,9-0.1
	c1.4-0.7,0.2-2.9-1.3-2.2c-2,1-3.7,1.5-5.8,0.7c-1.9-0.7-3-1.9-3-4c0-5,5-6.5,8.7-4c0.5,0.3,1.1,0.1,1.4-0.4
	C578.4,298.8,578.5,298.5,578.5,298.3L578.5,298.3z"/>
<path class="st7" d="M592.9,307.3c-1.9,0.6-3.9,1.3-5.8,0.8c-1.9-0.4-3.3-1.9-3.7-3.7c1.6,0.1,3.1,0,4.7,0c1.8,0,3.9,0.3,5.6-0.2
	c0.5-0.2,0.9-0.6,0.9-1.2c0.2-2.8-2.6-6.1-5.2-6.8c-3-0.7-6.1,0.8-7.3,3.6c-0.3,0.8-0.5,1.6-0.6,2.5c-0.5,0.4-0.6,1-0.3,1.5
	c0.1,0.1,0.2,0.2,0.3,0.3c0.1,1.8,0.9,3.4,2.1,4.7c2.8,2.6,6.7,1.9,9.9,0.9C595,309.3,594.4,306.8,592.9,307.3z M588.1,298.3
	c1.9,0.5,3.4,1.9,4,3.7c-1.6,0.1-3.4-0.1-4.9-0.1c-1.3,0-2.6,0-3.8,0.1l0,0C583.7,299.7,585.5,297.7,588.1,298.3z"/>
<path class="st7" d="M596.8,304.6c0.8,0.6,2,0.5,2.9,0.5c1.1,0.1,2.1,0,3.2-0.1c1.4-0.2,1.4-2.6,0-2.8c-1.1-0.1-2.3-0.1-3.4,0
	c-1-0.1-2.1,0.2-2.9,0.8c-0.4,0.4-0.4,1-0.1,1.4C596.6,304.4,596.6,304.5,596.8,304.6L596.8,304.6z"/>
<path class="st7" d="M618.5,304.1c0.7,0,1.3-0.6,1.3-1.3c0-0.1,0-0.2,0-0.3c-0.9-3-3.3-5.4-6.4-6.1c-3-0.7-5.7,1.8-6.7,4.5
	c-2.8,7.5,5.8,12.3,11.6,7.8c1.2-0.9-0.3-2.4-1.5-1.9c-2.1,0.9-3.5,1.9-5.9,1c-1.4-0.5-2.4-1.6-2.7-3
	C611.6,304.8,615.1,304.6,618.5,304.1z M608.6,301.4c1.8-4.4,6-2.9,7.9,0.2c-2.7,0.2-5.5,0.3-8.2,0.7
	C608.4,302,608.5,301.7,608.6,301.4z"/>
<path class="st7" d="M632.6,296.9c-1,2.1-2,4.2-3,6.4c-0.4,0.9-0.8,1.7-1.2,2.6c-0.1,0.1-0.4,1-0.7,1.6c-0.9-1.6-1.5-3.8-2.2-5.2
	c-0.8-1.9-1.5-4.2-2.9-5.7c-0.3-0.2-0.7-0.2-0.9,0c-0.1,0.1-0.2,0.3-0.2,0.4c-0.1,2.5,1.3,5.2,2.3,7.5c0.8,2,1.5,4.5,2.9,6.1
	c0.3,0.3,0.8,0.5,1.3,0.3c1.6-0.4,2.3-2.9,2.9-4.2c1.3-2.9,2.7-5.7,4-8.6C635.6,296.7,633.4,295.4,632.6,296.9z"/>
<path class="st7" d="M646.9,297.6c-1.4-1.4-3.5-1.8-5.2-0.9c-3.7,1.7-6.6,7.4-4.1,11c2.9,4.3,7.6,3.6,11.4,1.2
	c1.3-0.8,0.1-2.9-1.2-2.1c-2.5,1.6-5.4,2.8-7.8,0.3c-0.8-0.7-1.2-1.8-1.1-2.8c2.6,0.3,5.3,0.2,7.9,0.3c1.4,0.1,3.5,0.4,3.7-1.5
	S648.2,298.8,646.9,297.6z M645.4,302.1c-1.9-0.2-3.9-0.2-5.8,0c0.8-1.5,2.7-4.1,4.8-3.3c0.9,0.6,1.7,1.3,2.4,2.2
	C648.3,302.8,646.9,302.2,645.4,302.1z"/>
<path class="st7" d="M665.3,300.6c0-1.6-1-3-2.5-3.5c-1.6-0.6-5.2,0.3-6.9,2c-0.1-0.6-0.2-1.3-0.4-1.9c-0.2-0.8-1.6-0.9-1.7,0
	c-0.6,4.1,0.2,8.5,0.3,12.6c0,1.7,2.8,1.6,2.6,0c-0.3-2.6-0.2-5.4-0.5-8.1c1.8-0.7,3.3-3,5.4-2.4c2.5,0.7,1.4,7.8,1.2,9.7
	c-0.2,1.6,2.4,1.6,2.6,0C665.7,306.1,665.7,303.3,665.3,300.6z"/>
<path class="st7" d="M669.8,291.6c-0.9,2-0.5,4.9-0.5,7.1c-0.1,3.5-0.1,7,0,10.5c0.1,1.6,2.6,1.5,2.4,0c-0.5-3.9-0.2-7.9-0.2-11.9
	c0-1.1,0.5-5.3-0.9-5.9C670.3,291.2,670,291.3,669.8,291.6L669.8,291.6z"/>
<path class="st7" d="M685.6,296.7c-1.8,2.9-3.4,5.9-4.6,9.1c-1.4-3.2-3-6.2-4.9-9.2c-0.5-0.8-1.8-0.5-1.8,0.5
	c0.1,2.1,1.4,3.8,2.2,5.7c1,2.2,2,4.5,3,6.8c-0.9,2.3-2,4.3-4.7,4.6c-1.3,0.1-1.8,2.1-0.3,2.4c3.8,0.9,5.3-1.5,6.6-4.7
	c0.2-0.5,0.4-0.9,0.6-1.4c0.4-0.3,0.7-0.8,0.6-1.4c1.8-3.8,3.8-7.6,5.2-11.5C688.2,296.3,686.3,295.7,685.6,296.7z"/>
<path class="st3" d="M938,382.4c-0.3-3.2-1.2-6-1.2-9.3s0.2-6.3,0.4-9.5c0.5-7,0-14-1.3-20.8c-0.6-2.8-3.8-1.9-5.3-0.6
	c-2.3,1.9-3.4,4.8-3,7.8c1.5,6.8,1.3,13.4,0.9,20.3c-0.2,3.2-0.4,6.3-0.3,9.5c0,1.2,0.1,2.5,0.2,3.8c-1.3,0.4-2.6,0.8-3.9,1.2
	c-4.1,1-8.4,1.2-12.6,0.8c-8.6-0.6-17.2-1.8-25.8-2.7c-8.7-1.1-17.4-1.5-26.1-1.2c-8.7,0.4-17.4,1.7-26.1,1.4
	c-4.7-0.1-9.3,10.8-4.1,11c14.2,0.4,28.2-2.1,42.5-1.1c14,1,28.2,4.4,42.2,3.8C922.6,396.3,939,393.7,938,382.4z"/>
<path class="st3" d="M781.8,344.8c-0.6-2.8-3.8-1.9-5.3-0.6c-2.3,1.9-3.4,4.8-3,7.8c1.7,7.7,2.2,15.7,1.4,23.6
	c-0.2,2-0.5,3.9-0.8,5.9c-0.1,1-0.3,2-0.4,2.9c0,0.2-0.1,0.3-0.1,0.4c-2.9,1-7.7,0.3-10.7,0.3c-15.3,0.2-31.3,0.3-46.4-2.2
	c-4.6-0.8-9.5,10.1-4.1,11c10.2,1.7,20.7,1.7,31,2c5.1,0.2,10.3,0.2,15.4,0.2c4.5-0.1,9.6,0.3,13.9-0.9c9-2.5,9.6-13.1,10.5-20.8
	C784.3,364.5,783.9,354.5,781.8,344.8z"/>
<path class="st3" d="M667.3,342.4c-0.5-2.8-3.8-1.8-5.3-0.6c-2.3,1.9-3.4,4.8-3,7.8c2.1,10.8-0.1,21.8,0.5,32.7c0,0.1,0,0.8,0.1,1.5
	c-2.6-0.3-5.7,0.6-8.4,0.6c-5.2-0.1-10.5-0.6-15.7-0.9c-10.7-0.6-21.5-0.9-32.2-1c-5.5-0.1-11.1-0.1-16.6,0
	c-4.2,0.1-9.9-0.9-13.8,1.1c-3,1.5-6.1,7.5-2.9,10.2l0.2,0.2c1,0.8,2.5,0.2,3.6-0.6c1.8-0.3,5.4,0.3,6.8,0.2c3.2,0,6.5-0.1,9.8-0.1
	c6.5,0,13,0.1,19.5,0.2c13,0.3,26,1.8,39,1.7c4.7,0,10.5-0.1,14.4-3.1s5.4-7.5,5.2-12.3C667.8,367.5,669.7,354.8,667.3,342.4z"/>
<path class="st4" d="M822.6,341c0.7-1.9,1.2-4.5,5.9-5.5c1.2-0.2,95.4-1.3,99.1,0.8s4,8.1,3.8,10.5c-0.1,1.5,1.2,30,0.8,33
	c-0.2,1.4-1.8,8.3-4.1,8.5c-2.5,0.3-98.8,0.5-100.8-0.4c-2.1-0.9-4.7-5.6-5-8C822.3,377.5,821.6,343.8,822.6,341z"/>
<path class="st4" d="M709.3,384.8c0.8,2.8,3.3,3.2,5.6,3.8c0.6,0.1,55.2,0.6,55.2,0.6c3.8-0.1,5-6,5.5-6.5
	c1.2-1.1,0.1-40.7-0.1-42.2c-0.1-0.7-5.7-4.5-6.7-5c-1.8-1.1-46.5,0.2-50.2-0.1c-6.8-0.5-9.5,4.1-9.6,5.3S709,383.8,709.3,384.8z"/>
<path class="st4" d="M661.6,340.6c-1-3-5.2-5.1-7.8-5.6c-0.7-0.1-84.2-0.4-85.8,0c-1.2,0.3-3.1,2.1-3.7,2.6
	c-1.4,1.1-1.4,42.8-1.4,42.8c0,3.9,5.3,7.2,6.4,7.8c2.1,1.1,88.6,0.5,89.9,0.2c3-0.8,3.9-4.1,4-5.4S662,341.6,661.6,340.6z"/>
<path class="st5" d="M659,336.7c-12.3-3.2-24.9-3.1-37.5-2.5c-13,0.6-25.8,1.1-38.8,0.6c-4-0.2-10.4-2-13.8,0.9
	c-3.6,3-2.6,8.1-2.6,12.2c-0.2,12.3-2.9,25.7,0.8,37.8c1.3,4.4,7.2-2.1,6.2-5.4c-2.2-7-1.6-14.7-1.2-21.9c0.2-3.4,0.4-6.9,0.5-10.3
	c0.1-1.9,0.1-3.8,0.1-5.6c0-0.1,0-0.1,0-0.2c2.4,0.1,5.3,0.7,6.9,0.8c3.8,0.1,7.6,0.2,11.5,0.2c7.3,0,14.5-0.2,21.8-0.6
	c14.5-0.7,29-1.5,43.1,2.2C659.2,345.8,663,337.8,659,336.7z"/>
<path class="st5" d="M774.6,339.7c-2.1-6.9-11-4.7-16.5-4.4l-25,1.3c-3,0.2-6,0.3-9,0.6c0-0.1,0-0.1,0-0.2c-1.5-5.5-10.3-1-12.9,1.4
	c-5.4,5.2-1.6,13.8-2.5,20.4l-0.2,1.2c-0.3,1.6,0.3,3.1,1.8,3.2c-1,7.7-1.8,15.5,1,23c1.6,4.3,7.5-2.2,6.2-5.4
	c-3.4-8.9-1-17.7,0-26.8c0.2-1.5,0.2-3.1,0.4-4.6c0.1-1.3,0.6-2.6,1.3-3.6c2.7-0.3,6.4-0.8,7.1-0.8c2.8-0.2,5.6-0.3,8.4-0.5
	l17.3-0.9c0.9,0,2.5-0.3,4.4-0.5c0.2,0.2,0.4,0.4,0.7,0.5c4.1,1.5,8.3,2.5,12.7,2.8C772.8,346.7,775.4,342.3,774.6,339.7z"/>
<path class="st5" d="M929.2,336.9c-9.9-3-20.1-2.1-30.3-1.3l-19.4,1.5c-11.1,0.1-22.3,0-33.5-0.4c-5-0.2-11.8-1.6-16.5,0.3
	s-4.9,7.2-5.3,11.6c-1.1,12.8-2.6,25.8,2.5,37.9c1.8,4.3,7.6-2.2,6.2-5.4c-2.5-6.1-3.7-12.7-3.5-19.3c-0.1-5.9,0.3-11.7,1.1-17.5
	c2.5-0.2,6.7,0.4,8.4,0.5c4.5,0.2,9,0.4,13.6,0.5c3.3,0.1,6.6,0.1,9.9,0.2c0.2,0.6,0.8,1,1.5,0.9l12.3-1h2.4
	c8.4-0.1,16.8-0.7,25.2-0.4c7.6,0.2,15.5,2.4,22.9,0.2C929.5,344.3,933.2,338.2,929.2,336.9z"/>
<path class="st6" d="M932.8,353c-0.1-3.5,0.1-7.1-0.3-10.5c-0.8-6.5-4.7-7.3-10.3-8c-11.9-1.5-24.1-0.6-36.1-0.6
	c-14.4,0-28.8-0.3-43.2,0.1c-5.2,0.2-11.4-0.3-16.5,1c-5.4,1.3-4.5,7.2-5,11.5c0,0,0,0.1,0,0.1c-1.4,9-0.2,19,0,28.1
	c0.1,3.9-0.1,8.3,2.3,11.6c2.9,3.8,9.6,3.1,13.8,3.4c18.8,1.2,37.6-0.8,56.4-0.5c10.1,0.2,20.3,1.2,30.4,0.7
	c5.4-0.3,8.8-2.2,9.2-7.8C934.1,372.5,933.1,362.6,932.8,353z M924.4,387.6c-8.5,0.5-17.3-0.2-25.8-0.6c-17.7-0.7-35.4,0.7-53.1,0.6
	c-3.9,0-7.8-0.2-11.7-0.4c-2-0.1-4.8,0.1-6.6-0.7c-2.5-1.1-3.5-4.4-3.8-6.9c-0.2-1.4-0.1-2.8-0.2-4.2c-0.2-5.6-0.3-11.1-0.4-16.7
	c-0.1-3.9-0.6-8.2,0-12c0,0,0-0.1,0-0.1c0.3-1.9,0.2-3.8,0.7-5.6c0.9-3.7,3.2-4.3,6.4-4.5c4.7-0.3,9.4-0.5,14.1-0.6
	c11.6-0.3,23.2,0,34.9,0c9.7,0,19.3,0,29-0.1c3.3,0,6.6-0.1,9.9,0.2c2.8,0.2,6.7,0.1,9.2,1.3c4.3,2,3.5,7.6,3.6,11.6
	c0.2,9.5,0.6,18.9,0.7,28.4C931.4,382.5,931,387.2,924.4,387.6z"/>
<path class="st6" d="M776.8,373.2c-0.1-8.4-0.2-16.7-0.3-25.1c0-3,0.7-6.4-0.9-9.1c-2.9-5.1-9.1-5-14.2-5.1
	c-8-0.2-15.9-0.6-23.9-0.2c-5.3,0.3-10.6,0.5-16,0.6c-3.7,0.1-7.9-0.7-11,1.9c-4.9,4.1-2.8,14.2-2.7,19.6c0.1,9.2,0.5,18.5,0.4,27.7
	c0,0.1,0,0.2,0,0.3c0.7,6.9,9.8,5.7,14.8,5.8c9,0.2,18.1,0.3,27.1,0.4c7.1,0.1,15.2,1.5,22-0.5C777.7,387.8,776.9,377.9,776.8,373.2
	z M774.1,382.6c-0.4,2.3-0.6,4.1-2.9,4.9c-2.1,0.8-5,0.5-7.2,0.5c-3.7,0.1-7.3-0.1-11-0.1c-6.9,0-13.7-0.1-20.6-0.2l-12.9-0.1
	c-3.3,0-9,0.7-9.8-4l0,0c0.1-13.5-0.4-27.1,0.3-40.6c0.4-8.3,11-6.3,17.1-6.5c6.7-0.2,13.4-1,20-0.7c4.3,0.2,8.7,0.3,13,0.5
	c2.4-0.1,4.8,0,7.2,0.3c3.3,0.6,6.4,2.7,7,6.1c0.1,1.2,0.1,2.3,0,3.5c-0.1,6.2,0.2,12.5,0.3,18.7
	C774.7,370.7,775.1,376.7,774.1,382.6L774.1,382.6z"/>
<path class="st6" d="M663.8,374.9c-0.4-11,0.2-22.6-1.5-33.4c0-0.1,0-0.2,0-0.3c-1.2-5.3-5.1-6.8-10-7.1c-5.7-0.3-11.4-0.6-17.1-0.6
	c-10.5,0-20.9,0-31.4,0c-9.5,0-19.1,0-28.6,0.2c-4.3,0.1-11.6-0.6-12.6,4.8c-0.6,3-0.2,6.6-0.3,9.6c-0.2,10.4-1.3,21.3-0.6,31.7
	c0.7,11.4,12.9,9.7,21.1,9.8c21.6,0.2,43.2,0.9,64.8,0.5c4.2-0.1,13.2,1.5,15.5-3.2C664.7,383.4,663.9,378.6,663.8,374.9z
	 M661.6,384.3c-1.3,3.9-4.7,3.2-8.2,3.3c-19.4,0.6-38.9,0-58.3-0.2l-15.1-0.2c-4.2,0-10.5,1-13.6-2c-3.2-3-2.5-7-2.4-10.9
	c0.1-5.4,0.2-10.7,0.3-16.1c0.1-4.6,0.2-9.3,0.2-13.9c0-0.7,0-1.5,0-2.2c0-1.2-0.3-3,0.3-4.1c1-1.7,3.7-1.9,5.4-2.1
	c8.3-0.9,16.9-0.5,25.3-0.5h35c3.4,0,6.7,0,10.1,0.1c6.3,0.2,18-1.7,20.2,6c0,0,0,0.1,0.1,0.1c1.3,8.5,0.6,17.9,0.8,26.5
	c0.1,3.9,0.3,7.9,0.3,11.8C662.1,381.4,662,382.9,661.6,384.3z"/>
<path class="st6" d="M982.2,248.9c-0.2-8.3-0.3-16.6-0.5-24.9c-0.1-8,0.2-16.2-0.6-24.2c-0.6-5.6-2.2-11.6-8-13.6
	c-7.1-2.5-16.2-0.5-23.6-0.3c-4.3,0.1-8.5-0.4-12.8-0.4h-80.8c-46.8,0-93.6,0.1-140.5,0.2c-44.4,0.1-88.8,0.2-133.2,0.3l-43,0.1
	c-7.3,0-15.4-0.7-22.6,0.4c-9.2,1.4-7,9.2-6.9,16.4c0,3,0,6,0,9c0.1,10.7,0.2,21.3,0.3,31.9c0,4.2-1.1,8.8-0.1,12.8
	c1.5,6.2,7.7,8.1,13.4,8.4c5.5,0.2,11-0.1,16.5-0.1l78.8-0.2c46.3-0.1,92.7-0.3,139-0.4l133.4-0.3c20.6-0.1,41.3-0.2,61.9-0.2
	c7.6,0,15.5,0.5,23-0.8c7.5-1.3,6-7.7,6.4-13.9C982.3,249.1,982.3,249,982.2,248.9z M980.4,256.1c-0.5,4.6-3.8,5.3-7.7,5.7
	c-5.4,0.5-10.8,0.3-16.2,0.3c-1.5,0-2.9,0-4.4,0h-7.4h-34.2l-120.3,0.2l-139.9,0.3l-98.2,0.2c-5.3,0-10.6,0-15.8,0
	c-7.9,0-24.7,2.9-24.4-9.4c0.1-3.8,0.4-7.6,0.4-11.5c-0.1-10.5-0.1-21-0.2-31.5c0-3.3,0.1-6.6-0.1-9.9c-0.1-2.4-0.8-5.2-0.2-7.6
	c1-4.1,4.7-4.2,8.4-4.3c1.2-0.1,2.4,0,3.6-0.1c2.1,0,4.3,0,6.4,0l32.9-0.1l119.6-0.2l141-0.3c33.4-0.1,66.8-0.2,100.2-0.4
	c5.3,0,10.6-0.3,15.9-0.1c8.2,0.3,16.3-0.2,24.5-0.4c4.5-0.1,10-0.1,12.6,4.1c2.1,3.3,2.6,7.6,2.8,11.5c0.5,7.8,0.4,15.6,0.6,23.4
	s0.4,15.4,0.5,23.1c0,0,0,0.1,0,0.1C980.6,251.5,980.6,253.8,980.4,256.1z"/>
<g id="_x32_a1c8204-b7ea-41dc-9f98-1360bb744241">
	<path class="st0" d="M1549.7,84.8c-1.8-4.3-1.8-9.1-2.3-13.7c0-0.1,0-0.2,0-0.3l0,0c-0.1-0.5-0.1-0.9-0.2-1.4
		c2.2-3.3,3.3-7.2,3.3-11.2c-0.1-3.2-1.7-7.7-5.7-7.7c-118.7-0.6-237.4-4.8-356.2-4c-33.8,0.2-67.6,1-101.4,2.2
		c-7.1,0.3-12.3,6.6-14.7,12.8c-1.1,3-2.2,10.3,0.8,13.3c-1,2.4-1.6,5-1.7,7.7c-0.1,8.7-0.7,17.6-0.1,26.3
		c0.6,9.1,5.2,14.2,14.4,15.1c12.9,1.2,25.8,1.3,38.7,0.6c0.6,2.2,2.6,3.7,4.9,3.8c54.7,2.7,109.4-2,164.1-3.6
		c26.6-0.8,53.3-0.8,79.9,1.2c13.7,1,27.2,3,41,2.9c13.8-0.1,27.5-1.2,41.3-1.4c13.3-0.1,26.5-0.5,39.8-1.4
		c12.5-0.9,24.8-1.1,37.2,0.7c6.1,0.9,11.6-6.4,13.8-11c2.4-5.1,3.5-11.4-1-15.6l0.2-0.3C1548.5,96.1,1551.6,89.5,1549.7,84.8z"/>
	<path class="st1" d="M1539.5,48.1c-39.3,1-78.6,1.9-117.9,2.1c-38.9,0.2-77.7-0.8-116.6-1.8s-78-2-117-2c-19.4,0-38.8,0.2-58.2,0.8
		c-9.9,0.3-19.8,0.7-29.7,1.2c-4.6,0.2-9.3,0.5-13.9,0.8c-3.9,0.2-7.3-0.2-9.5,3.5c-1.8,2.9-1.7,6.9-2,10.2
		c-0.4,5.7-0.6,11.5-0.7,17.2c-0.3,13.8-0.4,27.7,0.5,41.5c0.4,6.2,7.8-0.2,7.6-4.2c-0.8-12.5-0.8-25.2-0.6-37.7
		c0.1-5.7,0.2-11.4,0.5-17c0.1-1.3,0.1-2.5,0.2-3.8c117.5-7,235,2.1,352.6,0.9c33.7-0.3,67.4-1.2,101-2
		C1539.9,57.6,1543.9,47.9,1539.5,48.1z"/>
	<path class="st0" d="M1548.9,207.2c-2-3.9-3.1-9.4-1.8-13.4s1.9-12.7-2.7-14.5c4.6-7.9,5.8-18-1.2-24.3c-7.2-6.5-20.3-4.2-29.2-4.1
		l-152.2,0.4c-2.5,0-4.9,0.9-6.9,2.3c-25-1.7-50-2.3-75-1.8c-3,0.1-5.9,1.3-8.1,3.2c-21-1.1-41.9-2.3-62.9-2.6
		c-0.7-0.4-1.5-0.5-2.3-0.6c-25.1-1-50.2-0.2-75.2,2.3c-0.4,0-0.8,0.1-1.1,0.2c-14.4-0.4-28.8-1.4-43.2-2.8
		c-10.7-1.1-22.1,22.5-12.6,26.8c-0.9,2.2-1.4,4.5-1.6,6.8c-0.4,8.6,1.5,16.9,2.9,25.4c-0.7,1.2-1.3,2.5-1.8,3.8
		c-1.5,4-2.8,14.6,4.3,14.6l61-0.3c20.6-0.1,41.1,0.4,61.7,0.4c7.8-0.2,15.5-1.1,23.1-2.8c0.9,1.5,2.5,2.5,4.3,2.6
		c28.2,2,56.5,1.4,84.7,1.4c13.5,0,27,0.3,40.5,0.8c11.1,0.4,22.2,0.1,32.5-4c26.8,0.9,53.7,1.9,80.5,2.8
		c22.6,0.7,45.2,1.5,67.8,2.4C1545.4,232.7,1553.3,216.2,1548.9,207.2z M1380.7,191.4c-5.1,0.2-10.3,0.4-15.4,0.6
		c-12,0.4-23.9,0.6-35.9,0.6c3.2-0.2,6.4-0.4,9.5-0.5C1352.9,191.4,1366.8,191.2,1380.7,191.4z"/>
	<path class="st1" d="M1534.8,154.5l-373.5-1.8l-51.9-0.2c-7.4,0-16-1.3-23.3,0.2c-0.7,0.1-1.3,0.3-1.9,0.6
		c-1.7-1.6-6.4,2.7-6.8,5.3l-0.2,1.1c-0.6,1.5-0.8,3.1-0.6,4.6c0.1,0.6,0.3,1.2,0.6,1.8l-1,47.1c-0.3,0.5-0.5,1-0.6,1.6
		c-0.7,4.7-0.6,9.5,0.3,14.2c0.4,2.2,2.9,1.7,4.2,0.9c2-1.4,3.2-3.7,3.2-6.1c0.5-20.6,0.9-41.2,1.3-61.8c2.4-0.4,5.8,0.1,7.1,0.1
		l10,0.1l22,0.1l43.9,0.2l87.8,0.4l175.8,0.8l99.9,0.5C1535.3,164.1,1539.3,154.5,1534.8,154.5z"/>
	<path class="st3" d="M1232.4,91.9c0.6-6.7-3.1-14.4-1.1-20.9c2.3-7.6-5.8-6.7-7.6-0.7c-1.8,6-1.4,11.3-0.4,17.3s-0.2,11.7-0.5,17.8
		c-0.1,0.9-0.2,1.9-0.1,2.8c-0.6,0-1.2,0-1.7,0c-3.6,0-7.2-0.2-10.8-0.3c-7.4-0.3-14.8-0.7-22.2-0.8l-89.8-0.3c-4.7,0-9.3,11-4.1,11
		c33.1,0.1,66.3-0.7,99.3,0.5c8.1,0.3,16.3,1.2,24.5,0.9c6.3-0.2,11.2-2.8,13.2-9.2c0.9-3.1,0.3-6.3,0.5-9.4
		C1231.5,97.7,1232.1,94.8,1232.4,91.9z"/>
	<path class="st3" d="M1384.3,65.3c-0.6-0.8-1.7-1.1-2.7-0.9l-0.5,0.1c-3.9,0.7-7.2,9.2-3.9,10.7c0.8,2.3,0.2,6.6,0.2,8.7
		c0,3.4-0.3,6.8-0.5,10.1c-0.3,4.5-0.2,9.4-0.7,14.1c-1.6,0-3.4-0.2-4.4-0.2c-2.9,0.1-5.9,0.2-8.8,0.2c-5.2,0.1-10.5,0.2-15.7,0.3
		c-11.1,0.2-22.2,0.2-33.3,0.2c-21.4,0.1-42.7,0.2-64.1,0.2c-4.7,0-9.2,11-4.1,11c33.1-0.1,66.3,0,99.4-0.5
		c8.2-0.1,16.3-0.3,24.5-0.5c6.8-0.2,13-0.5,14.4-8.7c1.3-7.7,1.2-15.9,1.7-23.7C1386.1,80.6,1387.8,70.4,1384.3,65.3z"/>
	<path class="st3" d="M1538.2,95.7c0.1-8.3-0.3-16.6-1.1-24.8c-0.6-7.1-9.1,0.2-8.7,4.8c0.6,7,1,14,1.1,21c0,3.2,0,6.5-0.1,9.7
		c-1.5-0.1-3.6,0-3.9,0c-14.3-0.6-28.6-0.7-42.9-0.2c-14.3,0.4-28.6,1.6-43,2.2c-6.8,0.3-13.7,0.4-20.5,0.2
		c-6.1-0.2-12.3-0.9-18.1,1.4c-2.7,1.1-4.7,3.6-5.2,6.5c-0.3,1.8,0.4,5.4,3.2,4.3c6.8-2.6,14.7-1.1,21.9-1.1
		c8.1,0,16.3-0.3,24.4-0.8c15.9-0.9,31.8-1.9,47.8-2c8.1-0.1,16.2,0.1,24.3,0.4c5.8,0.2,12.7,1.8,17.1-3S1538.2,101.8,1538.2,95.7z"
		/>
	<path class="st4" d="M1392.6,66.4c0.2-2-0.3-4.4,4.5-5.4c1.2-0.2,128-1,129.2-0.3c4.3,2.3,4.4,7.5,4.2,9.9c-0.1,1.5,1.2,33,0.8,36
		c-0.6,2.3-2.1,4.4-4.1,5.7c-3.8,2.1-126.6,1.1-128.9,0.7c-4-0.7-4.5-5.4-4.7-7.9S1392.4,68.4,1392.6,66.4z"/>
	<path class="st4" d="M1379.7,62.8c-0.9-2.3-3.1-2.1-5.4-2.6c-0.6-0.1-127.8-1.5-131.6,0.3c-3.2,1.5-1.7,48.2-1.5,49.7
		c0.7,1.8,2.4,3,4.3,3.1c2.1,0,123,0.3,126.9,0.4c7,0.1,6.8-3.9,6.9-5.2S1380.5,65.1,1379.7,62.8z"/>
	<path class="st4" d="M1226,64.5c-0.2-1-3.2-4.7-6.4-4.7c-1.7,0-123.2-0.2-124.9,0.2c-1.3,0.3-4.1,1.6-4.6,2.2
		c-1.4,2.1-1.4,43.2-1.4,43.2c-0.4,4.9,1,6.8,2.4,7.7c1.4,0.9,131,0.6,132.3,0.2c3.1-0.8,3.5-2.8,3.6-4S1226.2,65.5,1226,64.5z"/>
	<path class="st5" d="M1222,62.2c-15.7-3.6-31.6-1-47.5-0.1c-16.3,0.9-32.8,0.5-49.2,0.5c-8.1,0-15.9,0-23.9-1.4
		c-4.9-0.9-9.7,0.9-11.3,6.1c-0.9,2.9,0,5.8,0.1,8.8c0.1,3.9,0,7.9-0.4,11.8c-0.5,7.6-1,15,0.6,22.4c0.9,4.3,7-2.1,6.2-5.4
		c-1.5-6.8-0.9-13.8-0.4-20.7c0.2-3.3,0.5-6.7,0.4-10c0-1.5-0.1-3-0.2-4.5l0-0.4c1.5,0.8,7.1,1,8.3,1.1c3.5,0.3,7,0.4,10.6,0.4
		c7.3,0,14.6,0,21.9,0c13.6,0,27.2,0.1,40.7-1c13.6-1.1,27.4-2.5,40.9,0.6C1222.3,71.1,1226.1,63.1,1222,62.2z"/>
	<path class="st5" d="M1378.7,61.1c-8.1-1.1-16.3-0.4-24.5-0.2c-7.9,0.2-15.9,0.4-23.8,0.5c-16.2,0.2-32.5,0.2-48.7,0
		c-7.8-0.1-15.5-0.5-23.3-0.4c-4.3,0-10.4-0.5-13.7,2.9c-1.4,0.9-2.4,2.3-2.7,3.9c-2,14.1-1.9,28.5,0.5,42.5c0.4,2.2,2.9,1.3,4,0.4
		c5.6-4.1,4.1-11.7,3.8-17.7c-0.2-4.4-0.5-8.8-0.7-13.2c-0.2-3.4-0.8-7.1-0.8-10.7c3.3-0.5,9.1,0.1,11.1,0.1
		c5.2,0.1,10.5,0.3,15.7,0.3c11.3,0.2,22.5,0.3,33.8,0.2c10.9,0,21.9-0.1,32.8-0.4c11.1-0.3,22.5-1.6,33.4,0
		C1379,69.8,1382.7,61.6,1378.7,61.1z"/>
	<path class="st5" d="M1525.3,62.9c-3.6,0.8-7.4,0.2-11.1,0c-4.3-0.2-8.6-0.1-12.9,0.1c-7.6,0.4-15.2,1.2-22.8,0.8
		c-7.8-0.4-15.4-1.7-23.2-2.2c-7.6-0.4-15.2-0.5-22.7-0.6c-7.6-0.1-15.3-0.1-22.9,0.2c-5.5,0.3-11.9-0.4-15.2,4.9
		c-3.2,5.1-1.1,12.4-0.5,17.9c0.9,8.5,1.8,17.1,2.7,25.6c0.4,3.9,4.3,1.9,5.6-0.5c2.8-5.2,3.2-10.4,3-16.2c-0.1-3.3-0.4-6.6-0.7-9.9
		c-0.1-1.4-2-9.7-0.2-10.6c1.1-0.7,1.9-1.7,2.4-2.9c12.6-0.6,25.3-0.3,37.9,0c13.1,0.4,26.1,3,39.2,2.6c7.1-0.3,14.1-1.1,21.2-1.1
		c6.1,0,12.6,1.3,18.6-0.1C1527.1,70.2,1529.8,61.9,1525.3,62.9z"/>
	<path class="st6" d="M1532.6,99.8c-0.1-7-0.4-13.9-0.6-20.9c-0.1-4.4,0.4-9.8-0.5-14.1c-1.6-7.3-9.2-5.5-15.1-5.4
		c-14.4,0.1-28.8-0.4-43.2-0.4h-39.2c-9.9,0-19.8,0.1-29.8,0.6c-3,0.2-6.8-0.2-9.5,1.1c-2.8,1.3-2.2,2.8-2.4,5.5c0,0,0,0.1,0,0.1
		c-0.7,4.7-0.2,9.9-0.2,14.6c0,5.4,0,10.8,0.2,16.2c0.1,3.9,0.4,7.8,0.9,11.6c0.5,2.8,1.3,4.3,4.1,5c4.7,1.1,10.3,0.6,15.1,0.7
		c23.6,0.8,47.3,0.2,70.8-0.1l21.7-0.2c4.9,0,9.7,0,14.6-0.2c3.4-0.1,7.9,0,10.8-2.1C1533.7,109.5,1532.6,103.5,1532.6,99.8z
		 M1530.4,106c-0.8,5.5-5.7,5.6-10.1,5.7s-9.2,0.1-13.8,0.2c-7.5,0.1-15,0.1-22.5,0.2c-20.8,0.2-41.7,0.4-62.5,0.3
		c-4.2,0-8.4,0-12.6-0.2c-3.4-0.2-7.2,0.4-10.5-0.3c-4.8-1-4.2-10.4-4.5-14.6c-0.3-4.8-0.2-9.5-0.3-14.3c-0.1-5.3-0.9-11.3-0.1-16.6
		l0,0c0-0.1,0-0.1,0.1-0.2c0.3-2.4-0.4-3.4,3.3-4.3c1-0.1,1.9-0.2,2.9-0.2c3.6-0.2,7.2-0.4,10.8-0.5c8.2-0.3,16.5-0.2,24.7-0.2
		c9.8,0,19.6,0,29.4,0.1c9.7,0,19.4,0,29.1,0.1s19.3,0.1,28.9,0.3c2.2,0.1,3.8-0.2,5.3,1.5s1.4,4.3,1.4,6.6c0,1.5,0,3,0,4.5
		c0.2,5.8,0.4,11.7,0.5,17.5C1530.2,96.2,1531,101.4,1530.4,106L1530.4,106z"/>
	<path class="st6" d="M1380.4,67.7c0.1-1.6,0-3.1-0.1-4.7c0.1-0.2,0-0.4-0.1-0.6c-2-3.1-6.2-3.2-9.5-3.2c-5.1-0.1-10.2-0.1-15.3-0.2
		c-16.2-0.1-32.5-0.2-48.7-0.3l-39.4-0.2c-3.3,0-6.7,0-10,0.1c-4.3,0.1-8.8,0-13.1,0.5c-2.6,0.3-3.1,1-3.8,3.7
		c-1.3,5-0.9,10.5-0.9,15.6c0,7.8,0,15.7-0.1,23.5c0,2.5,0.1,5,0.4,7.4c0.6,4.2,3.5,4.6,7.3,5c4.7,0.4,9.4,0.3,14.1,0.3
		c26.9,0.2,54,1.1,80.9,0.6c8.5-0.2,17.1-0.5,25.6-0.6c5.6-0.1,11.9,0.8,12.4-6.3C1381.1,94.9,1380.5,81.1,1380.4,67.7z
		 M1378.8,77.6c-0.1,7.6-0.2,15.3-0.4,23c0,2.2-0.1,4.4-0.1,6.6c-0.1,3.8-1.6,5.4-6,5.5c-7.5,0.1-15.1,0.1-22.7,0.2
		c-25.2,0.3-50.5-0.1-75.7-0.3l-16.6-0.1h-3.8c-1.4,0-2.8,0-4.2-0.1s-3.8,0-5-0.5c-2.4-1.1-2.5-4.1-2.6-6.3
		c-0.5-11.7-0.2-23.7,0-35.4c-0.1-2.4,0.2-4.8,0.9-7.2c0.7-2,0.6-1.5,2.7-1.7s3.9-0.2,5.9-0.2c4.6-0.1,9.2-0.3,13.8-0.3
		c10.4,0,20.8,0.1,31.2,0.1l51.8,0.2h19.1c3.1,0,9.5-0.9,11.7,2.1C1379.5,67.8,1378.9,72.9,1378.8,77.6L1378.8,77.6z"/>
	<path class="st6" d="M1227.9,91.9c-0.3-7.7-0.6-15.4-0.9-23.1c-0.1-1.3-0.1-2.7-0.2-4.1c0-0.1,0-0.2,0-0.4
		c-2.3-7.4-12.3-5.6-18.3-5.6c-4.1,0-8.1-0.1-12.1-0.1H1154c-12.7,0-25.4,0-38.2,0c-5.4,0-10.8,0.1-16.2,0.3
		c-2.8,0.1-7.2-0.2-9.6,1.6c-2,1.6-1.7,4.7-1.7,6.9c-0.1,12.3-0.7,24.6-0.7,36.9c0,2.4-0.4,5.3,0.4,7.5c1.2,3.2,5.4,2.8,8.3,2.8
		c4.8,0,9.6,0,14.4,0.1c25.8,0.2,51.6,0.6,77.4,0.5c7.9,0,15.7,0.2,23.6-0.1c3.7-0.1,8.1,0.3,11.8-0.7s4.3-3.5,4.6-6.9
		C1228.7,102.4,1228,97,1227.9,91.9z M1226.4,105.5c-0.1,2.8,0,5.7-3.3,7c-1.3,0.5-3.3,0.2-4.8,0.3c-7.3,0.3-14.6,0.2-21.9,0.2
		c-24-0.1-48-0.2-71.9-0.4l-17.9-0.1h-4.6c-2.7,0-10.1,1.2-11.9-1.1c-1-1.4-0.3-5.2-0.3-7.1c0-2.5,0.1-4.9,0.1-7.4
		c0.1-7.2,0.3-14.3,0.4-21.5c0-2.3,0.1-4.6,0.1-7c0-3.5-0.1-6,4.1-7c6-1.4,13.4-0.6,19.5-0.6c9.1-0.1,18.2,0,27.3,0c16,0,32,0,48,0
		h11.4c3.4,0,6.7,0,10.1,0c4.4,0,12.6-1.2,14.4,4.1c0,0,0,0,0,0.1c0.7,4.6,0.3,9.6,0.5,14.3c0.2,7.1,0.4,14.1,0.5,21.2
		C1226.4,102,1226.5,103.8,1226.4,105.5z"/>
	<path class="st9" d="M1311.2,77.1c-1.6,1.5-3.3,2.9-4.7,4.5c-0.8,0.8,0.3,2.4,1.3,1.7s2.1-1.7,3.1-2.6c-0.1,5.3-0.2,10.7-0.3,16
		c0,0.7,0.6,1.3,1.3,1.3c0.7,0,1.3-0.6,1.3-1.3c0-6.2,0-12.5,0.1-18.8c0-0.7-0.6-1.2-1.2-1.2C1311.8,76.8,1311.5,76.9,1311.2,77.1z"
		/>
	<path class="st9" d="M1154.8,78.1c-1.8,1.4-4.1,1.9-5.7,3.5c-0.4,0.4-0.4,1.1,0,1.5c0.3,0.3,0.8,0.4,1.2,0.2
		c1.3-0.8,2.7-1.4,4.1-2.1c-0.1,5-0.2,10-0.3,15c0.1,0.7,0.7,1.3,1.4,1.2c0.6-0.1,1.2-0.6,1.2-1.2c0-5.7,0-11.5,0.1-17.3
		c0-0.7-0.6-1.2-1.3-1.1C1155.2,77.8,1155,77.9,1154.8,78.1z"/>
	<path class="st9" d="M1463.3,78.7c0-0.7-0.6-1.2-1.3-1.2c-0.3,0-0.6,0.1-0.8,0.3c-1.7,1.3-3.7,2-5.2,3.5c-0.4,0.4-0.4,1.1,0,1.5
		c0.3,0.3,0.9,0.4,1.3,0.2c1.2-0.8,2.4-1.4,3.6-2.1c0,5.3,0.2,10.7,0.2,16c0.1,0.7,0.7,1.3,1.4,1.2c0.6-0.1,1.2-0.6,1.2-1.2
		C1463.7,90.8,1463.3,84.8,1463.3,78.7z"/>
	<path class="st3" d="M1196.5,195.8c-0.4-8.3-0.9-16.6-1.3-24.9c-0.4-7.1-8.9,0.2-8.7,4.8c0.4,7,0.7,13.9,1.1,20.9
		c0.2,3.2,0.4,6.4,0.5,9.6c0,1.5,0.1,2.9,0,4.4c0,1-0.2,2-0.4,3c-0.1,0.2-0.1,0.4-0.2,0.6c-1,0.5-3.5,0.1-4.5,0.2
		c-2.1,0-4.2,0-6.3,0c-4.5-0.1-9-0.3-13.5-0.6c-22.8-1.6-45-2.6-67.8,0.3c-4.5,0.6-8.2,11.6-2,10.8c14.4-1.7,28.8-2.3,43.3-1.7
		c11.1,0.4,22.2,1.8,33.3,2.2c4.7,0.3,9.4,0.2,14.1-0.2c5.9-0.6,9.1-4.2,11-9.6C1197.3,209.2,1196.8,202.4,1196.5,195.8z"/>
	<path class="st3" d="M1421.5,168.5c-4.7,0.2-9.2,11.2-4.1,11c-1,0-1.1,15.7-1.1,17.2c-0.1,2.9-0.2,5.7-0.4,8.6
		c-0.1,1.3-0.1,2.5-0.2,3.8c0,0.1,0,0.9,0,1.7c-2.2,0.2-4.7,0-6.5,0.2c-2.6,0.3-5.2,0.6-7.8,0.9c-4.6,0.6-9.3,1.3-13.9,1.7
		c-16,1.5-32,0.2-48,0.3c-16.2,0.1-32.4-1.1-48.6-1.3c-13.6-0.2-27.2-0.2-40.8-0.3c-12.4-0.1-24.7-0.2-37.1-0.3
		c-4.7,0-9.3,11-4.1,11c33.2,0.1,66.5-0.4,99.7,1.1c10.6,0.5,21.1,0.7,31.6,0.7c10.3,0,20.7,0.9,31,0.5c7.9-0.3,15.8-1,23.7-2.1
		c6.8-0.9,14-1,20.8-2.2c10.7-1.9,8.8-16.5,9.1-24.4c0.3-6,0.5-12,0.7-18.1C1425.6,175.5,1426.5,168.3,1421.5,168.5z"/>
	<path class="st3" d="M1537.9,169.2c-0.4-2.9-3.9-1.8-5.3-0.6c-2.3,1.9-3.4,4.8-3,7.8c1.2,8.2-0.4,16.2-0.4,24.5
		c0,2.6,1,7.3-0.1,9.7c-0.4,1-0.4,1.3-0.4,1.4c-0.1-0.1-0.5-0.2-1.8,0.1c-1.9,0.2-3.8,0.3-5.7,0.2c-11.3,0.4-22.7,1-34,0.6
		c-8.8-0.2-17.7-0.4-26.5-0.5c-6.1-0.1-14.7-1.5-20.5,1c-2.6,1.1-4.1,4.7-4.2,7.4c0,0.1,0,0.2,0,0.3c-0.1,1.1,0.4,2.1,1.3,2.8
		l0.2,0.1c1.2,0.6,2.7,0.4,3.8-0.5c0.7,0,1.5-0.1,1.8-0.1c2-0.1,4-0.1,6.1-0.1c5.1,0,10.3,0.1,15.4,0.1c8.7,0.1,17.3,0.6,26,0.6
		c8.5,0,17-0.5,25.5-0.8c7.8-0.3,14.1,0.6,18.5-7c3.9-6.7,3-13.8,3.2-21.2C1538,186.3,1539.2,178.1,1537.9,169.2z"/>
	<path class="st4" d="M1419.6,168.9c-0.2-1-2.9-4.1-5-4.6c-0.5-0.1-198.2-2.1-206.8,0c-4.2,1-4,7.8-4,8.6l-0.1,37.6
		c0.2,1.6,2.2,5.9,3.2,6.5c1.7,1.1,202.4,0,205.9,0.3c6.5,0.5,6.3-4.4,6.4-5.7C1419.3,210.3,1419.8,169.9,1419.6,168.9z"/>
	<path class="st4" d="M1088.8,213.8c0.6,2.1,2.3,3.7,4.4,4.2c4.7,1,89.6,0.4,91.3,0c1.3-0.3,3.9-0.1,4.6-3.5c0.4-1.8,1-41.7,1-41.7
		c-0.2-1.6-0.9-6-5.2-7.8c-2.2-0.9-89.7-1-91-0.7c-2.3,0.5-4.1,2.3-4.6,4.5C1089.1,170.1,1088.6,212.7,1088.8,213.8z"/>
	<path class="st4" d="M1432.4,172.1c0.5-2-1-6.1,3.9-7.1c1.2-0.2,90.2-1.2,92.9-0.5c4.5,1.1,3.2,8.1,3.1,10.4
		c-0.1,1.5,0.2,31.5-0.2,34.5c-0.2,1.4-0.3,7.3-7.4,7.4c-8.5,0.1-87.6,0.4-89.7-0.5s-2.1-4.9-2.3-7.4S1431.9,174.1,1432.4,172.1z"/>
	<path class="st9" d="M1141.6,182.5c-1.9,1.1-4.5,2.1-6,3.7c-0.4,0.4-0.4,1.1,0.1,1.5c0.3,0.2,0.6,0.3,0.9,0.3
		c1.5-0.5,2.9-1.2,4.2-2.1c-0.3,5-0.6,10-0.7,15c0,0.7,0.6,1.3,1.3,1.3c0.7,0,1.3-0.6,1.3-1.3l0,0c0.1-5.8,0.2-11.5,0.6-17.2
		c0-0.7-0.6-1.2-1.2-1.2C1142,182.3,1141.8,182.4,1141.6,182.5z"/>
	<path class="st9" d="M1486,182.6c0-0.7-0.6-1.2-1.2-1.2c-0.3,0-0.6,0.1-0.8,0.3c-1.5,1.2-3.3,1.8-4.7,3c-0.9,0.8,0.1,1.9,1,1.8
		c1.2-0.3,2.4-0.8,3.4-1.6c0.1,5.3,0.7,10.6,0.7,15.9c0.1,0.7,0.7,1.3,1.4,1.2c0.6-0.1,1.2-0.6,1.2-1.2
		C1486.9,194.8,1486,188.7,1486,182.6z"/>
	<path class="st5" d="M1530.6,165.4c-23.2-0.1-46.3-0.1-69.5-0.2h-15.7c-4.7,0-9.5-0.7-11.4,4.6c-1.3,3.5-0.4,7.6-0.3,11.2
		c0,5-0.6,10-1.1,15.1c-0.4,3.8-0.6,7.6-0.5,11.4c0.1,2.4-0.2,6.8,1.9,8.5c2.1,1.8,5.1,0.1,6.7-1.9c2.2-2.7,2.2-6.2,2.5-9.5
		c0.8-10.4,1-20.8,0.5-31.2c0.6,0,1.2,0,1.8,0h10.8l25.9,0.1c15.1,0,30.3,0.1,45.4,0.1C1531,173.7,1534.4,165.4,1530.6,165.4z"/>
	<path class="st5" d="M1184.2,166.3c-7.6-1.5-15.7-1.6-23.7-1.3c-6.2-0.2-12.5-0.2-18.6-0.2c-6.5,0-13.1,0.5-19.5,1.4
		c-8.7,0-17.4-0.2-26.2-0.9c-2.8-0.2-4.8,3.6-4.8,5.9c0,0.6,0,1.3,0,1.9c-2,13.6-2.6,27.5-1.6,41.2c0.2,2.8,2.4,2.5,4,1.3
		c1.9,2.9,5.8-4,5.9-5.5c0-0.8,0-1.5,0.1-2.3c0.2-1-0.5-2-1.6-2.2c-0.2-0.7-0.4-1.5-0.5-2.2c0.2-3.3,0-6.7,0-10
		c0-3.6,0.1-7.3,0.1-10.9c6.1-4.4,13.4-6.8,21-8.1c8.9,0,17.9-0.4,26.9-0.7c3.4-0.1,6.8-0.3,10.3-0.5c8.4,0.2,16.8,0.5,25.2,1.2
		C1184.5,174.8,1188.3,167.1,1184.2,166.3z M1097.8,175c0-0.4,0-0.7,0-1.1l1.6,0.1C1098.9,174.3,1098.4,174.7,1097.8,175z"/>
	<path class="st6" d="M1088.1,214c1.7,5.7,7.1,5.4,12,5.5c5.4,0.1,10.9,0.2,16.3,0.2h32.6c9.7,0,19.3-0.1,29-0.3
		c3.4-0.1,9.7,0.6,11.7-2.9c1.4-2.4,0.8-7.2,0.8-10.1c0.2-10.8,0.8-21.7,0.7-32.5c-0.1-4.2-1.3-8.4-5.7-9.7s-10.1-0.6-14.8-0.7
		c-21.8-0.3-43.7-0.9-65.5-0.4c-4.6,0.1-14.3-1.4-16.6,4c-1.5,3.5-0.7,9.4-0.7,13.1c0,7,0,13.9,0,20.9
		C1087.8,205.2,1087.4,209.7,1088.1,214c0.1,0.8,1.4,0.4,1.3-0.4c-0.4-3.1,0-6.6,0-9.8c0.1-5.5,0.1-11,0.2-16.4
		c0.1-4.4,0-8.9,0.2-13.3c0-1.1,0.1-2.2,0.2-3.3c0.6-5.8,5.1-5.1,9.5-5.2c19.2-0.7,38.4-0.1,57.6,0.1l16.6,0.2
		c5.2,0.1,13-1.4,14.7,4.8c0.8,2.9,0.4,6.2,0.3,9.2c-0.1,5.6-0.2,11.2-0.3,16.9c-0.1,4.2-0.2,8.4-0.2,12.7c0,0.9,0,1.9,0,2.8
		c-0.2,3.9-2.9,4.7-6.3,4.9c-9.3,0.4-18.7,0.4-28,0.5c-10.6,0.1-21.2,0-31.8,0c-3.5,0-7,0-10.5,0c-5.3,0-19.9,2.3-22.2-4.1
		C1089.2,212.7,1087.8,213,1088.1,214z"/>
	<path class="st6" d="M1433.1,172.3c0.4-2.8,0.2-5.2,3.6-6.4c1.2-0.2,2.5-0.2,3.7-0.1c4.7-0.1,9.3-0.2,14-0.3
		c8.5-0.2,16.9-0.4,25.4-0.5c13.4-0.2,26.7,0.4,40.1,0.4c2.6-0.2,5.2-0.1,7.8,0.1c4.7,0.7,3.8,5.6,3.7,9.3c-0.1,3.1,0,6.3,0,9.4
		c0,8.3,0.8,17.1-0.2,25.4c-0.7,5.6-5.2,5.9-9.9,6l-11.8,0.1c-19.7,0.2-39.5,0.9-59.2,0.2c-1.3,0-2.7-0.1-4-0.2
		c-2.7-0.1-7.7,0.9-10.2-0.4c-3.1-1.7-2.4-10.4-2.5-13.7c-0.2-5.9-0.3-11.8-0.4-17.7C1433,180.4,1432.5,176.1,1433.1,172.3
		c0.1-0.9-1.3-1.3-1.4-0.4c-1.5,9.1-0.3,19.4-0.1,28.6c0.1,4-0.2,8.2,0.5,12.1c1,6.1,6.1,5.4,11.3,5.5c21.3,0.3,42.7,0.4,64,0.1
		l14-0.2c3.6,0,7.6,0.2,10.1-3c1.9-2.5,1.8-5.8,1.9-8.7c0.1-5.8,0-11.6,0-17.3c0-4.5-0.2-9,0-13.5c0.1-3.4,1.1-9.8-2.8-11.6
		c-1.9-0.9-5.1-0.5-7.2-0.5c-3,0-6,0-9.1,0c-8.8-0.1-17.5-0.3-26.3-0.4c-11.9-0.1-23.8,0.3-35.6,0.6c-5,0.1-10.2-0.1-15.2,0.5
		c-5.1,0.6-5,3.8-5.4,8.1C1431.6,172.9,1433,173.1,1433.1,172.3z"/>
	<path class="st9" d="M1316.6,198.6c-3.6,0.3-7.1,0.5-10.7,0.8c2.3-3.1,5.3-5.6,7.8-8.6c1.8-2.2,3.1-4,2.5-7
		c-1.4-6.2-11.4-2.5-14,0.8c-0.6,0.8,0.1,2.1,1.1,1.5c2.2-1.3,5.4-3.8,8.2-3c2.2,0.6,2.4,2.3,1.7,3.9c-0.7,1.3-1.5,2.5-2.6,3.5
		c-3,3.2-6.3,6.1-8.6,9.9c-0.4,0.6-0.1,1.5,0.5,1.8c0.2,0.1,0.4,0.2,0.6,0.2c4.4-0.6,8.9-0.8,13.4-0.7
		C1318.6,201.8,1318.6,198.4,1316.6,198.6z"/>
	<path class="st5" d="M1414.4,165.1c-10-1-20.2-0.1-30.2,0.2c-16.7,0.6-33.4,1.2-50.1,1.4c-31.4,0.2-62.9,0.1-94.3,0
		c-5.9,0-11.7-0.1-17.6-0.1c0,0,0-0.1-0.1-0.1c-3.3-3.9-7.3-3.3-10.7-0.9c-1.1,0.4-2.2,0.9-3.2,1.5c-1.2,0.7-4,5.3-3,7.1
		c-0.1,0.3-0.2,0.6-0.3,0.9c-1.3,5.3-0.4,11.1-0.2,16.5c0.1,1.1,0.1,2.2,0.2,3.2c-0.7,6.1-0.4,12.2,1,18.2c1,4.5,6.5-2,6.4-4.5
		c-0.3-5.7-0.6-11.3-0.8-17c0.8-5.9,3-11.6,6.3-16.6c52.4-0.3,104.8,1,157.3-1c12-0.5,24.3-1.7,36.3-0.5
		C1414.7,173.7,1418.3,165.5,1414.4,165.1z M1210.7,176.1c0-0.4,0-0.8,0.1-1.2h0.6C1211.2,175.3,1211,175.7,1210.7,176.1
		L1210.7,176.1z"/>
	<path class="st6" d="M1420.3,169.1c0-0.1,0-0.3,0-0.4c-2-5-5.8-5.3-10.2-5.4c-6.4-0.1-12.9-0.1-19.3-0.1
		c-22.1-0.1-44.2-0.2-66.3-0.2c-33.5-0.1-67.1,0.4-100.7-0.3c-5.3-0.1-13.2-1.7-17.9,1.5c-3.5,2.3-3.4,6.3-3.3,10
		c0.2,10.3-0.1,20.7-0.1,31c0,3.1-0.7,8.4,0.9,10.9c2.2,3.5,9,2.6,12.5,2.7c6.4,0.1,12.8,0.1,19.2,0.1c36.1,0.2,72.3,0.7,108.4,0.2
		c21.7-0.3,43.5-0.8,65.2-0.9c2.7,0,6.4,0.6,8.8-0.9s2.5-4.3,2.6-6.9c0.3-10.8,0.2-21.5,0.2-32.3
		C1420.5,175.1,1420.5,172.1,1420.3,169.1z M1418.7,194.7c-0.1,4.8-0.2,9.7-0.3,14.5c-0.1,4.2-0.4,6.8-5.9,7.1
		c-7.2,0.4-14.6,0-21.8,0c-11.7,0.1-23.3,0.2-35,0.4c-33.2,0.4-66.3,0.2-99.5,0l-29.4-0.2c-5.6,0-11.5,0.3-17.1-0.3
		c-4.1-0.4-4.8-3.5-5-7.2c0-1.5,0-3.1,0-4.6c0-5.4,0-10.8,0-16.1c0-4.6,0.1-9.1,0-13.7c0-0.8-0.1-1.6-0.1-2.4c0-6.1,4-7.3,9.2-7.6
		c10.7-0.5,21.7,0.2,32.3,0.2c20.3,0,40.5,0,60.7,0.1l66.9,0.1h25.4c4.5,0,9.3-0.4,13.8,0c2.5,0.1,4.8,1.7,5.8,4.1
		C1419.8,177.5,1418.8,186.4,1418.7,194.7z"/>
	<path class="st6" d="M1547.4,55.3c-1-5-5.5-7.7-10.3-7.9c-5.7-0.2-11.4,0-17.1,0c-25.6-0.1-51.1,0-76.7,0h-140.4
		c-45.7,0-91.4,0-137.1,0c-21.2,0-42.4,0.1-63.6,0.1c-6.8,0-13.7,0-20.5,0.4c-5.7,0.3-7.2,1.4-7.6,7.2c0,0.1,0,0.1,0,0.2
		c-0.8,8.9-0.3,18.2-0.4,27.1c-0.1,8.3-0.2,16.6-0.2,24.9c0,4.5-1.1,11.9,1.8,15.7c1.5,2,4.2,2.1,6.5,2.5c5.3,0.9,10.5,0.4,15.9,0.3
		c1.6,0,3.2,0,4.8,0c28.6,0,57.2,0.1,85.9,0.2c48.2,0.1,96.4,0.2,144.7,0.1c45.4,0,90.8,0,136.2,0.1c21.1,0,42.4,1,63.4,0
		c6.5-0.3,13.5-2.5,14.4-9.6c0.5-4.9,0.7-9.9,0.6-14.8c0-10.9,0.1-21.7,0.2-32.6C1547.9,64.7,1548.2,59.7,1547.4,55.3z
		 M1541.4,121.7c-2.7,1.8-6.4,2.2-9.6,2.3c-2.5,0.1-5,0-7.5,0h-35.1c-41.1,0-82.2,0-123.2-0.1c-48,0-96,0-144.1-0.1
		c-35,0-69.9,0-104.9,0.1c-6.3,0-12.7-0.1-19,0l-2.1,0.1c-5.1,0.2-13,1.6-17.8-1c-4.4-2.4-3-11.9-3.1-16.2c0-9,0.1-18,0.1-27
		c0-8.1-0.5-16.5,0.3-24.6c0-0.1,0-0.1,0-0.2c0.2-2.7,1.4-4.8,3.9-5.5c1.4-0.4,3.4-0.1,4.9-0.2c4.9-0.2,9.9-0.2,14.8-0.1h3.8h7.5
		l35.2,0c41.1,0,82.3,0,123.4,0H1411c32.5,0,65,0,97.5,0c6.6,0,13.2,0.1,19.9,0c3.2-0.2,6.4-0.2,9.5,0c1.4,0.1,2.8,0.6,4,1.5
		c3.8,2.5,3.3,6.2,3.5,10.1c0.2,3.4,0.3,6.7,0.3,10c-0.1,10.6-0.1,21.2-0.2,31.8C1545.5,108.9,1546.7,118.2,1541.4,121.7z"/>
	<path class="st6" d="M1547.7,207.7c-0.3-11-0.7-22-1-33c-0.1-3.8-0.1-7.6,0-11.4c0-2.7,0.2-6.5-2-8.5c-1.7-1.5-5.2-1.9-7.3-2.3
		c-6.5-1.4-13.2-0.6-19.8-0.6c-25.4,0-50.9,0-76.3,0c-46.6,0-93.1,0-139.7,0H1166c-20.8,0-41.6,0.1-62.3,0.1c-7.7,0-16-0.8-23.6,0.9
		c-7.2,1.6-5.4,7.6-5.8,13.8c0,0.1,0,0.2,0,0.2c0.2,16.7-0.4,33.5,0.6,50.1c0.2,3.1-1.1,10,2.2,11.7c4.5,2.4,12.2,1.5,17.1,1.6
		c8,0,16-0.1,24,0c25.2,0.4,50.3,0,75.5,0c46.7,0,93.4-0.1,140.1-0.2c45.5-0.1,90.9-0.2,136.4-0.3c21.5,0,43-0.1,64.4-0.2
		c5.7,0,12,0.7,12.6-6.4C1547.7,218,1547.8,212.8,1547.7,207.7z M1545.2,218.1c-0.2,3.9,0.3,8.7-4.6,9.3c-2.3,0.1-4.6,0.1-6.9,0
		c-2.7,0-5.3,0-8,0l-35.9,0.1l-123.6,0.2l-141.1,0.3c-32.2,0.1-64.3,0.2-96.5,0.4c-9.5,0-19.1-0.3-28.6,0
		c-6.2,0.4-12.5,0.2-18.7-0.5c-3.4-0.5-4.1-0.7-4.3-4.2s-0.5-6.8-0.7-10.2c-0.5-7.9-0.3-15.9-0.4-23.8c-0.1-7.7-0.2-15.4-0.3-23.1
		c0,0,0-0.1,0-0.1c0.4-4.8-0.7-11.3,5.4-12.2c5.6-0.9,11.4-0.7,17.1-0.6h6.1h7.3c11.6,0,23.1,0,34.7,0c40.8,0,81.6,0,122.4,0h140.6
		h97c8,0,16.1-0.1,24.1-0.1c3.5,0,6.9,0.6,10.2,1.8c5.3,2.1,3.7,8.1,3.7,12.9c0,3.2,0.2,6.4,0.3,9.5c0.3,10.5,0.6,21,0.9,31.5
		c0,0.9,0.1,1.8,0.1,2.7C1545.6,214,1545.3,216.1,1545.2,218.1L1545.2,218.1z"/>
</g>
</svg>
