<?xml version="1.0" encoding="UTF-8"?>
<!DOCTYPE svg PUBLIC "-//W3C//DTD SVG 1.1//EN" "http://www.w3.org/Graphics/SVG/1.1/DTD/svg11.dtd">
<svg version="1.1" xmlns="http://www.w3.org/2000/svg" xmlns:xlink="http://www.w3.org/1999/xlink" x="0px" y="0px" width="1000" height="1339" viewBox="0, 0, 1000, 1339">
  <g id="Layer_1">
    <path d="M339,214 Q350,217 357,224 Q365,232 379,263 Q393,295 417,374 Q441,453 454,514 C454,514 467.371,573.25 468,575 C468.629,576.75 470.129,577.5 472.879,577 C475.629,576.5 475,572 475,572 L466,511 Q457,450 438,377 Q420,304 416,278 Q412,252 416,242 Q420,232 432,224 Q444,217 459,221 Q474,225 484,235 Q495,246 507,272 Q519,298 534,348 Q549,398 564,468 Q580,539 583,572 Q587,605 604,644 Q621,683 639,709 Q658,736 674,752 Q691,768 698,767 Q705,766 713,756 Q722,747 749,686 Q776,625 792,606 Q808,587 825,574 Q842,561 859,554 Q877,547 894,547 Q911,547 919,553 Q927,560 926,567 Q926,574 912,599 Q898,624 874,690 Q850,757 847,772 Q845,788 847,798 Q849,808 848,839 Q847,871 843,882 Q840,893 795,968 Q751,1044 727,1072 Q703,1100 704,1126 Q705,1153 722,1245 L739,1338 L582,1338 L426,1338 L427,1308 Q428,1279 422,1246 Q417,1213 397,1180 Q378,1147 345,1103 Q312,1060 292,1025 Q273,991 251,934 Q230,878 218,830 Q206,783 157,683 Q108,584 100,560 Q92,536 92,524 Q92,513 102,502 Q112,492 119,491 Q126,490 133,493 Q141,496 207,606 C207,606 269.871,711.75 273,716 C276.129,720.25 301.621,732.75 294,694 Q286.379,655.25 294,694 Q294,677 230,520 C230,520 174.758,394 170.758,376.5 C166.758,359 168,351 168,351 Q170,339 177,332 Q184,326 196,322 Q209,319 216,321 Q224,324 230,330 Q236,337 244,358 Q253,380 297,467 Q341,554 352,587 C352,587 361.121,615.5 364,620 C366.879,624.5 379.871,635.5 377,612 Q374.129,588.5 377,612 Q377,601 359,528 Q342,455 314,357 C314,357 294.758,292.5 290.758,274 C286.758,255.5 288.758,242.5 288.758,242.5 C296.758,224.5 298.742,221.5 315,217 C331.258,212.5 339,214 339,214 z" stroke="#000000" stroke-width="1" fill="#000000"/>
  </g>
  <defs/>
</svg>