<svg xmlns="http://www.w3.org/2000/svg" xmlns:xlink="http://www.w3.org/1999/xlink" width="199.531"
  height="286.617">
  <defs>
    <linearGradient id="a">
      <stop offset="0" stop-color="#fff" />
      <stop offset="1" stop-color="#fff" stop-opacity="0" />
    </linearGradient>
    <linearGradient id="b" x1="269.97" x2="286.63" y1="511.97" y2="511.97"
      gradientTransform="translate(278.63 -3355.4) scale(4.9627)" gradientUnits="userSpaceOnUse"
      spreadMethod="reflect">
      <stop offset="0" stop-color="#497bb3" />
      <stop offset=".205" stop-color="#a5c4e6" />
      <stop offset="1" stop-color="#3b5d8b" />
    </linearGradient>
    <linearGradient id="c" x1="282.36" x2="286.63" y1="518.56" y2="527.34"
      gradientUnits="userSpaceOnUse">
      <stop offset="0" stop-color="#a5c4e6" />
      <stop offset="1" stop-color="#497bb3" />
    </linearGradient>
    <linearGradient xlink:href="#a" id="d" x1="308.5" x2="327.78" y1="522.61" y2="520.33"
      gradientTransform="translate(407.33 -3062.9) scale(4.1992)" gradientUnits="userSpaceOnUse"
      spreadMethod="reflect" />
    <linearGradient xlink:href="#a" id="e" x1="308.5" x2="327.78" y1="522.61" y2="520.33"
      gradientTransform="translate(407.33 -3015.8) scale(4.1992)" gradientUnits="userSpaceOnUse"
      spreadMethod="reflect" />
    <linearGradient xlink:href="#a" id="f" x1="308.5" x2="327.78" y1="522.61" y2="520.33"
      gradientTransform="translate(407.33 -2971.6) scale(4.1992)" gradientUnits="userSpaceOnUse"
      spreadMethod="reflect" />
  </defs>
  <g class="Graphic">
    <path fill="#c7c7c7"
      d="M183.142 16.483c2.37 3.887 1.612 189.363-1.47 196.662-2.416 5.783-80.721 70.863-84.798 72.57C43.93 285.383 8.236 266.09 2.311 255.9.036 243.102 1.98 45.776 4.113 41.652 6.009 38.05 106.165 2.168 109.673 1.315c3.175-.711 70.768 10.854 73.47 15.168z" />
    <path
      d="m182.1 17.1.094-.048-.094.094c0-.047-.048-.047-.048-.047v-.095l.332-.142-.095.095-.237.047.237-.047-.095.095-.094.047zm.094-.048.095-.095.095-.095.237-.095-.237.19.237-.19h.047l-.284.142v.048-.048l-.19.143zm.474-.285h-.047.047-.047l.521-.284-.474.237v.047zm.522-.19-.522.19v-.047l.522-.142zm.948-.71c-.095-.143-.19-.285-.332-.427-.095-.142-.237-.237-.38-.332-.236-.19-.568-.379-.947-.569-.332-.19-.711-.331-1.138-.52s-.9-.333-1.422-.522c-.995-.38-2.228-.759-3.555-1.138-1.374-.38-2.891-.758-4.503-1.185-6.446-1.612-14.836-3.413-23.415-5.024-8.58-1.66-17.254-3.129-24.222-4.266-3.46-.522-6.541-.996-8.958-1.28-1.185-.142-2.228-.285-3.081-.38-.427-.047-.806-.047-1.138-.094-.19 0-.332 0-.474-.048h-.427c-.142 0-.237 0-.331.048h-.19c-.095 0-.142 0-.19.047-.094 0-.19.048-.331.095-.095 0-.237.047-.38.095s-.331.095-.521.142c-.19.095-.38.142-.616.237a23.43 23.43 0 0 0-1.66.569c-.615.19-1.326.426-2.085.71-1.564.522-3.365 1.186-5.45 1.897a851.077 851.077 0 0 0-6.826 2.417c-9.907 3.555-22.8 8.2-35.693 12.988-12.845 4.787-25.69 9.622-35.407 13.509-2.418.995-4.646 1.896-6.636 2.702a210.42 210.42 0 0 0-5.262 2.275c-.758.332-1.422.663-1.99.948-.617.284-1.138.569-1.565.806-.237.094-.426.237-.616.331-.19.143-.38.237-.474.332-.19.142-.332.237-.427.332-.237.19-.331.38-.426.521-.048.095-.095.237-.19.427 0 .142-.047.284-.047.427-.048.142-.048.331-.095.521s-.047.38-.095.616a9.5 9.5 0 0 1-.142 1.517c0 .616-.047 1.28-.095 1.99-.095 1.47-.19 3.271-.284 5.262-.095 2.038-.19 4.314-.237 6.826-.332 10.096-.664 23.89-.9 39.579-.522 31.379-.901 70.247-.901 101.625 0 14.6.094 27.635.237 37.494.047 2.465.094 4.74.142 6.778s.142 3.887.19 5.451c.047 1.612.142 2.939.189 4.03.047.568.095 1.042.142 1.421.048.237.048.427.048.616.047.142.094.332.094.474l.048.19.095.19c.426.71.948 1.421 1.564 2.18.663.758 1.422 1.517 2.275 2.322 1.659 1.517 3.792 3.129 6.399 4.788 5.072 3.318 11.803 6.73 20.05 9.812 8.2 3.08 17.87 5.877 28.82 7.915s23.178 3.318 36.45 3.413h.284l.237-.095.38-.19c.094-.094.237-.141.379-.284.142-.094.284-.19.474-.284l.569-.427c.426-.284.9-.616 1.422-1.042.52-.38 1.09-.806 1.753-1.328 1.28-.948 2.75-2.133 4.409-3.46s3.507-2.796 5.498-4.408c8.01-6.446 18.249-14.93 28.44-23.558 10.19-8.58 20.382-17.348 28.108-24.269 1.944-1.753 3.745-3.365 5.356-4.882 1.612-1.47 3.034-2.796 4.219-3.981a49.474 49.474 0 0 0 1.612-1.66c.52-.52.948-.947 1.327-1.374s.663-.806.9-1.09c.143-.19.237-.38.332-.474.095-.19.19-.38.285-.522 0-.094.047-.237.094-.379s.095-.237.143-.426c.047-.285.094-.617.142-1.043.095-.38.142-.806.19-1.327s.094-1.043.142-1.66c.094-1.184.19-2.606.331-4.218.048-1.612.143-3.413.237-5.356.38-7.869.664-18.534.9-30.715.475-24.459.76-55.174.76-82.619 0-18.438-.143-35.407-.38-47.968-.047-3.129-.095-6.02-.19-8.58-.047-2.512-.142-4.74-.236-6.588a156.79 156.79 0 0 0-.143-2.513 72.578 72.578 0 0 0-.142-1.943c-.047-.284-.047-.521-.095-.758s-.047-.474-.094-.617c-.048-.19-.048-.379-.095-.52-.048-.096-.048-.19-.095-.238-.047-.142-.095-.237-.142-.284zm-1.754.995.569-.569-.57.57zm-.284.427c.047.142.047.331.094.521 0 .19.048.427.048.711.047.521.142 1.138.19 1.849 0 .71.047 1.564.094 2.464.095 1.85.19 4.077.285 6.59.047 2.511.094 5.403.19 8.531.236 12.514.33 29.483.33 47.921 0 27.398-.236 58.16-.71 82.571-.284 12.182-.569 22.8-.9 30.62a475.63 475.63 0 0 1-.285 5.357c-.095 1.564-.19 2.986-.284 4.171-.048.569-.095 1.138-.19 1.612 0 .474-.095.853-.142 1.232-.048.332-.095.664-.142.853 0 .142-.048.19-.048.285 0 .047-.047.094-.047.094 0 .048-.048.095-.095.19-.047.047-.142.19-.19.284-.237.285-.474.617-.805.996-.332.332-.759.806-1.233 1.28l-1.611 1.611c-1.185 1.138-2.56 2.465-4.172 3.934a214.115 214.115 0 0 1-5.308 4.835c-7.727 6.92-17.87 15.642-28.061 24.27-10.191 8.578-20.43 17.063-28.345 23.462-1.991 1.612-3.84 3.081-5.499 4.408s-3.128 2.465-4.408 3.46c-.616.474-1.232.948-1.754 1.328-.474.379-.948.71-1.327.995-.19.142-.38.284-.569.38-.142.094-.284.189-.38.284-.094.047-.189.094-.236.142-13.082-.095-25.027-1.375-35.787-3.366-10.807-1.99-20.335-4.74-28.44-7.773-8.01-3.034-14.6-6.352-19.576-9.575-2.418-1.564-4.456-3.128-6.067-4.598a20.758 20.758 0 0 1-2.039-2.085c-.474-.57-.9-1.09-1.232-1.612v-.19c-.047-.142-.047-.331-.047-.52-.048-.38-.095-.854-.143-1.328-.094-1.09-.142-2.418-.237-3.982a725.176 725.176 0 0 1-.142-5.45c-.047-1.992-.095-4.267-.142-6.732-.142-9.859-.237-22.846-.237-37.446 0-31.378.332-70.199.853-101.578.285-15.642.569-29.483.9-39.531.096-2.513.19-4.788.285-6.826.095-1.99.142-3.745.237-5.167.048-.758.095-1.422.142-1.99s.095-1.043.143-1.47c0-.19.047-.379.047-.521.047-.19.047-.285.095-.427v-.095c0-.047.047-.047.095-.094.094-.048.19-.143.331-.237.19-.048.332-.19.522-.285.426-.237.9-.474 1.47-.758s1.232-.569 1.943-.9c1.469-.664 3.175-1.375 5.166-2.229 1.99-.805 4.219-1.753 6.636-2.701 9.717-3.887 22.515-8.722 35.36-13.462 12.846-4.787 25.739-9.48 35.645-12.988 2.465-.9 4.788-1.706 6.826-2.417 2.038-.758 3.887-1.375 5.404-1.896a80.73 80.73 0 0 0 2.085-.758c.616-.19 1.185-.38 1.66-.522.189-.095.426-.142.615-.19.19-.094.332-.142.474-.189s.237-.047.38-.095l.142-.047-.095-.38.047.38h.57c.094 0 .236 0 .378.047.332 0 .664.048 1.09.095.806.047 1.85.19 3.034.332 2.37.284 5.404.758 8.864 1.28 6.968 1.09 15.595 2.607 24.127 4.218 8.532 1.66 16.921 3.413 23.32 5.025 1.612.426 3.081.805 4.361 1.185 1.327.379 2.512.71 3.46 1.09.474.142.948.332 1.328.474.331.142.71.284.948.426s.474.237.616.38c0 0 .047 0 .047.047s.048.142.048.19zM96.495 284.577c.048 0 .048-.047.095-.047h.284v.663l-.379-.616.38.616v.522l-.475-1.09s.048-.048.095-.048zm-93.14-29.246c.047.048.047.143.094.19s.047.142.047.19l-1.185.19.996-.522.047-.048-.047.048.047-.048h.095-.095zM5.202 42.126v.142c-.048 0-.048.048-.095.048l-.237-.285-.806-.19.806.19-.095-.047.19.095.237.047zm-.332-.095.095.048-.095-.048zm-.758-.379.663.332-.663-.332zm.663.332-.474-.521.474.521zM109.862 2.121l-.095-.806.095.806zm-.19-.806.19.806v.047l-.19-.853z" />
    <path fill="#fff" fill-opacity=".541" stroke="#fff" stroke-opacity=".541" stroke-width=".0474"
      d="m179.303 20.322-2.465 1.043-2.465 1.09-2.464 1.09-2.513 1.185-2.512 1.185-2.512 1.233-2.512 1.232-2.56 1.28-2.56 1.28-2.56 1.327-2.606 1.327-2.56 1.375-2.607 1.374-2.607 1.375-5.261 2.844-5.309 2.844-5.309 2.844-5.356 2.891-5.403 2.844-5.404 2.844-5.404 2.797-2.701 1.375-2.702 1.374-2.75 1.327L95.5 63.03l-1.28-.285-1.327-.332-2.655-.616-2.749-.663-2.796-.617-2.844-.663-2.892-.664-2.891-.663-2.986-.664-2.94-.664-2.985-.71-6.02-1.328-6.02-1.327-3.034-.664-2.986-.663-2.939-.616-2.938-.617-2.892-.616-2.844-.616-2.844-.616-2.75-.569-2.7-.569-1.328-.237-1.327-.284-1.28-.237-1.28-.285-1.28-.237-1.232-.237-1.232-.237-1.185-.284-1.185-.19-1.138-.237-1.138-.237-1.137-.19-1.09-.189-1.043-.237-1.043-.19-.995-.142-.996-.19-.948-.189 2.465.759 2.465.758 2.512.758 2.56.711 2.607.759 2.607.71 2.701.76 2.655.71 2.702.759 2.749.71 5.498 1.47 5.546 1.422 5.593 1.47 5.593 1.469 5.546 1.422 5.499 1.47 2.749.71 2.702.759 2.701.71 2.655.76 2.607.71 2.607.758 2.56.711 2.512.759 2.464.758 2.465.759.048 2.844.094 2.891.048 2.891.047 2.987.048 3.033.094 3.034.048 3.08.047 3.13.048 3.175.047 3.176.047 3.223v3.27l.048 3.271.047 3.318.048 3.318v3.366l.047 3.365v3.413l.047 3.413.048 3.46.047 6.92.048 6.968v7.063l.047 7.062.095 14.173.047 14.22.048 7.062.047 7.016.047 6.967.048 6.92.047 3.461v3.413l.048 3.413.047 3.365v3.365l.047 3.366.048 3.27.047 3.318v3.224l.048 3.223.047 3.176.047 3.175.048 3.129.047 3.08.048 3.082.094 2.986.048 2.986.047 2.94.095 2.89.047 2.844.048-2.89.047-2.892v-2.987l.048-2.986.047-3.033.047-3.081.048-3.129.047-3.176.048-3.175.047-3.224.047-3.27.095-3.27.048-3.319.047-3.365.047-3.366.048-3.412.047-3.413.095-3.46.047-3.46.048-3.46.142-7.016.142-7.063.095-7.157.142-7.157.285-14.363.237-14.362.142-7.157.142-7.11.095-7.063.142-7.062.047-3.46.095-3.46.048-3.46.047-3.414.047-3.365.048-3.413.047-3.318.095-3.318.047-3.318.048-3.223.047-3.223.048-3.224.047-3.128.047-3.128.048-3.081.047-3.034.048-3.034v-2.938l.047-2.94.047-2.843 5.214-2.797 5.167-2.796 5.167-2.702 5.166-2.75 5.12-2.701 5.071-2.75 5.072-2.701 5.072-2.75 4.977-2.749 4.977-2.749 4.93-2.844 4.882-2.844 2.417-1.422 2.37-1.47 2.417-1.469 2.37-1.469 2.37-1.47 2.37-1.516 2.323-1.517 2.37-1.517z" />
    <path fill="none"
      d="M179.303 20.322C153.28 31.32 124.509 49.047 95.5 63.03 68.008 56.488 28.334 47.767 8.33 44.26c25.738 8.01 59.582 15.5 85.32 23.51 1.517 60.245.759 151.49 2.275 211.735.759-60.766 2.797-153.48 3.555-214.2 27.777-15.026 55.032-28.488 79.822-44.983z" />
    <path fill-opacity=".161" stroke="#fff" stroke-opacity=".161" stroke-width=".0474"
      d="m18.048 218.739.474.663.474.616.522.617.568.616.57.569.568.568.664.57.616.568.663.569.711.521.711.522.759.521.71.521.807.474.758.474.806.522.853.426.853.474.853.427.854.38.9.426.9.38.901.378.9.38 1.897.71 1.896.664 1.943.569 1.944.521 1.99.474 1.944.427 1.99.38 1.944.283 1.944.285 1.943.142.995.095.948.047.9.048h2.798l.9-.048.9-.047.854-.048.9-.047.806-.095.854-.142.805-.095.806-.142.806-.19.758-.19.711-.189.711-.19.711-.236.711-.237-.094-.048h-.048l-.237-.095-.284-.047-.332-.095-.38-.095-.473-.142-.474-.142-.57-.142-.615-.19-.664-.142-.71-.19-.76-.237-.758-.19-.853-.236-.853-.237-.9-.237-.949-.285-.948-.237-.995-.284-1.043-.284-1.043-.285-1.042-.284-1.09-.332-1.138-.284-2.275-.617-2.323-.663-2.37-.664-2.37-.616-2.37-.71-2.37-.617-2.323-.664-2.322-.616-1.09-.332-1.138-.284-1.09-.332-1.043-.284-1.043-.285-.995-.284-.996-.285-.948-.237-.9-.284-.9-.237-.854-.237-.806-.237-.758-.19-.711-.237-.711-.19-.616-.189-.57-.142-.568-.142-.474-.142-.427-.143-.331-.094-.332-.095-.237-.095h-.095l-.095-.047z" />
    <path fill="none"
      d="M18.048 218.739c9.528 13.698 39.484 20.43 53.704 14.93-2.512-.663-50.528-13.888-53.704-14.93z" />
    <path fill="#fff" fill-opacity=".388" stroke="#fff" stroke-opacity=".388" stroke-width=".0474"
      d="m67.06 193.38-44.367-17.112-.426.19-.38.19-.379.19-.284.236-.284.284-.285.285-.237.332-.237.284-.19.332-.19.332-.141.331-.142.38-.143.379-.094.332-.143.71-.094.712-.095.663v1.754l.047.19v.284l6.92 2.417.048.048.047.047.048.048.047.094.095.095.047.142.143.143.094.142.143.19.142.19.142.189.19.237.19.19.189.284.237.19.474.568.474.521.616.57.616.568.664.616.71.57.807.615.805.57.9.568.902.521.995.522 1.043.474.521.19.522.236.568.19.57.19.615.142.57.142.615.142.617.142.616.095.616.047.664.095.663.048h2.086l.71-.048.712-.095.71-.094.76-.095.758-.142.758-.19.758-.19.806-.237.806-.284h.047l.095.047h.142l.285.048.284.047.332.048.38.047.426.047.474.048.521.047.569.048.569.047h.569l.616.047h1.232l.664-.047.616-.047.664-.048.616-.095.616-.094.569-.143.569-.142.568-.142.474-.237.522-.237.426-.284.38-.285.379-.379.142-.19.142-.19.142-.189.095-.19.095-.236.095-.237z" />
    <path fill="none"
      d="m67.06 193.38-44.367-17.112c-4.597 1.612-3.697 8.39-3.697 8.39l6.92 2.417s9.67 15.121 26.829 9.196c0 0 12.75 2.275 14.315-2.891z" />
    <path fill="#606060"
      d="M66.68 187.597c-14.74-3.84-29.482-7.632-44.224-11.47-.568 2.085-.616 5.07.285 6.635 2.228 1.09 6.73 1.943 8.958 3.034 6.447 6.21 12.087 6.73 22.373 5.877 3.982.806 7.963 1.47 11.898 2.275 1.232-2.417 1.564-3.412.71-6.351z" />
    <path fill="none"
      d="M66.68 187.597c-14.74-3.84-29.482-7.632-44.224-11.47-.568 2.085-.616 5.07.285 6.635 2.228 1.09 6.73 1.943 8.958 3.034 6.447 6.21 12.087 6.73 22.373 5.877 3.982.806 7.963 1.47 11.898 2.275 1.232-2.417 1.564-3.412.71-6.351z" />
    <path fill="#fff" fill-opacity=".4" stroke="#fff" stroke-opacity=".4" stroke-width=".0474"
      d="M180.915 18.995 94.978 67.201l.332 215.622 84.135-70.815 1.47-193.013z" />
    <path fill="none" d="M180.915 18.995 94.978 67.201l.332 215.622 84.135-70.815 1.47-193.013z" />
    <path fill-opacity=".161" stroke="#fff" stroke-opacity=".161" stroke-width=".0474"
      d="m23.025 232.39.474.616.522.569.474.616.52.521.522.57.522.52.569.522.568.474.57.474.568.474.616.474.569.427.616.426.616.38 1.28.805 1.327.711 1.328.664 1.327.616 1.374.521 1.375.522 1.422.426 1.422.38 1.375.379 1.422.284 1.422.237 1.422.19 1.422.142 1.422.095 1.374.095h1.375l1.374-.048 1.28-.095 1.327-.094 1.28-.143 1.233-.237 1.185-.237 1.137-.284 1.138-.284 1.043-.38-.095-.047h-.19l-.19-.095-.236-.047-.285-.095-.38-.095-.378-.095-.427-.094-.474-.143-.474-.142-.521-.142-.57-.142-.615-.19-.616-.142-.664-.19-.711-.19-.711-.189-.711-.237-.758-.19-.759-.236-.806-.19-.853-.237-1.659-.474-1.706-.474-1.801-.474-1.802-.474-1.8-.521-3.603-.996-1.754-.474-1.754-.521-1.706-.474-.806-.19-.806-.237-.806-.237-.758-.19-.758-.236-.711-.19-.711-.19-.664-.19-.664-.189-.616-.19-.569-.142-.521-.142-.569-.142-.474-.142-.426-.142-.38-.095-.379-.142-.332-.048-.284-.095-.237-.094-.19-.048-.142-.047z" />
    <path fill="none"
      d="M23.025 232.39c9.907 13.082 29.72 15.31 40.812 11.328-1.85-.474-38.394-10.522-40.812-11.328z" />
    <path fill-opacity=".161" stroke="#fff" stroke-opacity=".161" stroke-width=".0474"
      d="m30.372 245.804.569.711.569.664.616.663.664.57.663.615.664.522.71.521.76.521.71.427.806.427.758.426.806.332.853.332.806.332.853.237.854.237.853.237.9.142.854.19.9.094.853.095.9.047h1.802l.853-.047.9-.095.854-.095.9-.142.854-.19.853-.189.853-.237.806-.284h-.047l-.095-.048h-.142l-.19-.047-.142-.048-.237-.094-.237-.048-.284-.095-.285-.047-.284-.095-.332-.095-.38-.094-.378-.095-.38-.142-.426-.095-.427-.095-.9-.284-.948-.237-1.043-.285-1.043-.284-1.09-.285-1.09-.331-2.276-.617-2.275-.616-1.09-.332-1.09-.284-1.09-.284-.996-.285-.995-.284-.9-.285-.427-.094-.427-.143-.427-.094-.379-.095-.38-.095-.33-.095-.333-.095-.284-.094-.284-.095-.237-.095-.237-.047-.237-.048-.143-.047-.142-.048-.142-.047h-.095z" />
    <path fill="none"
      d="M30.372 245.804c5.736 7.726 16.827 10.096 25.596 7.063-1.185-.285-24.032-6.589-25.596-7.063z" />
    <path fill="#fcfcfc" fill-opacity=".439" stroke="#fff" stroke-opacity=".439"
      stroke-width=".0474"
      d="m15.015 59.048-4.361.616-.806 103 67.545 18.913 1.659-5.498-64.89-17.301.853-99.73z" />
    <path fill="none"
      d="m15.015 59.048-4.361.616-.806 103 67.545 18.913 1.659-5.498-64.89-17.301.853-99.73z" />
    <path fill-opacity=".231" stroke="#fff" stroke-opacity=".231" stroke-width=".0474"
      d="m78.72 97.252-.095 2.892L15.11 81.847 78.72 97.252zm.948 20.951-.142 2.892-63.469-18.297 63.611 15.405zm-.948 19.387-.095 2.891-63.516-18.296L78.72 137.59zm0 19.055-.095 2.891-63.516-18.344 63.611 15.453z" />
    <path fill="#9e9e9e"
      d="m15.252 61.418 63.136 15.784-.521 104.138h1.043l.521-104.517v-.427l-.38-.094-63.562-15.88-.095.522-.142.474zm63.516 15.88-.38-.096v-.379h.522l-.142.474z" />
  </g>
  <g transform="matrix(.52219 0 0 .42933 -731.95 599.803)">
    <path fill="url(#b)"
      d="M1618.4-890.85v126.36h.525c-.339 1.013-.525 1.975-.525 3.018 0 15.228 36.989 27.557 82.672 27.557s82.672-12.33 82.672-27.557c0-1.045-.186-2.004-.525-3.018h.525v-126.36h-165.34z" />
    <ellipse cx="286.631" cy="521.78" fill="url(#c)" rx="16.668" ry="5.556"
      transform="translate(278.63 -3481.3) scale(4.9627)" />
    <path fill="#3b5d8b"
      d="M1618.3-800.18c.619 15.05 37.507 27.164 82.804 27.164 45.168 0 81.851-12.042 82.672-27.033-14.494 12.328-46.02 20.865-82.672 20.865-36.727 0-68.35-8.627-82.804-20.996z" />
    <path fill="url(#d)"
      d="M1618.3-891.51c.619 15.05 37.507 27.164 82.804 27.164 45.168 0 81.851-12.042 82.672-27.033a42.67 42.67 0 0 1-2.887 2.23c-.038.05-.09.083-.13.132-9.626 11.663-41.588 20.209-79.655 20.209-38.306 0-70.487-8.696-79.917-20.471-.104-.075-.16-.187-.262-.263-.919-.67-1.813-1.273-2.625-1.968z" />
    <path fill="#3b5d8b"
      d="M1618.3-844.36c.619 15.05 37.507 27.164 82.804 27.164 45.168 0 81.851-12.042 82.672-27.033-14.494 12.328-46.02 20.865-82.672 20.865-36.727 0-68.35-8.627-82.804-20.996z" />
    <path fill="url(#e)"
      d="M1618.3-844.36c.619 15.05 37.507 27.164 82.804 27.164 45.168 0 81.851-12.042 82.672-27.033-.209.177-.443.352-.656.525-5.216 13.55-39.937 24.014-82.016 24.014-42.466 0-77.55-10.545-82.28-24.277-.167-.133-.361-.255-.524-.394z" />
    <path fill="url(#f)"
      d="M1618.3-800.18c.619 15.05 37.507 27.164 82.804 27.164 45.168 0 81.851-12.042 82.672-27.033-.209.177-.443.352-.656.525-5.216 13.55-39.937 24.014-82.016 24.014-42.466 0-77.55-10.545-82.28-24.277-.167-.133-.361-.255-.524-.394z" />
    <path fill="#3b5d8b"
      d="M1618.8-754.64c4.728 13.732 39.813 24.277 82.279 24.277 42.079 0 76.8-10.464 82.016-24.014-14.766 12.043-45.892 20.34-82.016 20.34-36.314 0-67.608-8.456-82.279-20.602z" />
  </g>
</svg>
