<?xml version="1.0" encoding="UTF-8" standalone="no"?>
<svg xmlns="http://www.w3.org/2000/svg" xmlns:xlink="http://www.w3.org/1999/xlink" width="100" height="100" viewBox="0 0 100 100">
  <defs>
    <linearGradient id="a">
      <stop offset="0" stop-color="#fff"/>
      <stop offset="1" stop-color="#fff" stop-opacity="0"/>
    </linearGradient>
    <linearGradient id="b" x1="269.97" x2="286.63" y1="511.97" y2="511.97" gradientTransform="translate(278.63 -3355.4) scale(4.9627)" gradientUnits="userSpaceOnUse" spreadMethod="reflect">
      <stop offset="0" stop-color="#497bb3"/>
      <stop offset=".20485" stop-color="#a5c4e6"/>
      <stop offset="1" stop-color="#3b5d8b"/>
    </linearGradient>
    <linearGradient id="c" x1="282.35999" x2="286.63" y1="518.56" y2="527.34003" gradientUnits="userSpaceOnUse">
      <stop offset="0" stop-color="#a5c4e6"/>
      <stop offset="1" stop-color="#497bb3"/>
    </linearGradient>
    <linearGradient xlink:href="#a" id="d" x1="308.5" x2="327.78" y1="522.60999" y2="520.33002" gradientTransform="translate(407.33 -3062.9) scale(4.1992)" gradientUnits="userSpaceOnUse" spreadMethod="reflect"/>
    <linearGradient xlink:href="#a" id="e" x1="308.5" x2="327.78" y1="522.60999" y2="520.33002" gradientTransform="translate(407.33 -3015.8) scale(4.1992)" gradientUnits="userSpaceOnUse" spreadMethod="reflect"/>
    <linearGradient xlink:href="#a" id="f" x1="308.5" x2="327.78" y1="522.60999" y2="520.33002" gradientTransform="translate(407.33 -2971.6) scale(4.1992)" gradientUnits="userSpaceOnUse" spreadMethod="reflect"/>
  </defs>
  <g transform="translate(-440 -629.01881)">
    <g transform="matrix(.52219 0 0 .42933 -400.52138 1028.8214)">
      <path fill="url(#b)" d="M1618.4-890.85v126.36h.5249c-.3385 1.0131-.5249 1.975-.5249 3.0182 0 15.228 36.989 27.557 82.672 27.557s82.672-12.33 82.672-27.557c0-1.0447-.1856-2.0037-.5249-3.0182h.5249v-126.36h-165.34z"/>
      <ellipse cx="286.6308" cy="521.77954" fill="url(#c)" rx="16.667517" ry="5.5558391" transform="translate(278.63 -3481.3) scale(4.9627)"/>
      <path fill="#3b5d8b" d="M1618.3-800.18c.6187 15.05 37.507 27.164 82.804 27.164 45.168 0 81.851-12.042 82.672-27.033-14.494 12.328-46.02 20.865-82.672 20.865-36.727 0-68.35-8.6271-82.804-20.996z"/>
      <path fill="url(#d)" d="M1618.3-891.51c.6187 15.05 37.507 27.164 82.804 27.164 45.168 0 81.851-12.042 82.672-27.033-.9058.77052-1.8509 1.4911-2.8869 2.2308-.038.0491-.091.0823-.131.13101-9.6253 11.663-41.587 20.209-79.654 20.209-38.306 0-70.487-8.6955-79.917-20.471-.1046-.0752-.1596-.18729-.2625-.26245-.9185-.67058-1.8123-1.2733-2.6245-1.9684z"/>
      <path fill="#3b5d8b" d="M1618.3-844.36c.6187 15.05 37.507 27.164 82.804 27.164 45.168 0 81.851-12.042 82.672-27.033-14.494 12.328-46.02 20.865-82.672 20.865-36.727 0-68.35-8.6271-82.804-20.996z"/>
      <path fill="url(#e)" d="M1618.3-844.36c.6187 15.05 37.507 27.164 82.804 27.164 45.168 0 81.851-12.042 82.672-27.033-.2087.17721-.4427.3519-.6561.52491-5.2161 13.55-39.937 24.014-82.016 24.014-42.466 0-77.55-10.545-82.279-24.277-.1684-.13312-.3624-.2549-.5249-.39347z"/>
      <path fill="url(#f)" d="M1618.3-800.18c.6187 15.05 37.507 27.164 82.804 27.164 45.168 0 81.851-12.042 82.672-27.033-.2087.17721-.4427.3519-.6561.52491-5.2161 13.55-39.937 24.014-82.016 24.014-42.466 0-77.55-10.545-82.279-24.277-.1684-.13312-.3624-.2549-.5249-.39347z"/>
      <path fill="#3b5d8b" d="M1618.8-754.64c4.7284 13.732 39.813 24.277 82.279 24.277 42.079 0 76.8-10.464 82.016-24.014-14.766 12.043-45.892 20.34-82.016 20.34-36.314 0-67.608-8.4562-82.279-20.602z"/>
    </g>
  </g>
</svg>
