<?xml version="1.0"?>
<svg width="640" height="200" xmlns="http://www.w3.org/2000/svg" xmlns:svg="http://www.w3.org/2000/svg" xmlns:xlink="http://www.w3.org/1999/xlink">
 <!-- Created with SVG-edit - https://github.com/SVG-Edit/svgedit-->
 <defs>
  <linearGradient id="svg_6">
   <stop offset="0" stop-color="#fff"/>
   <stop offset="1" stop-color="#fff" stop-opacity="0"/>
  </linearGradient>
  <linearGradient gradientTransform="translate(278.63 -3355.4) scale(4.9627)" gradientUnits="userSpaceOnUse" id="svg_5" spreadMethod="reflect" x1="269.97" x2="286.63" y1="511.97" y2="511.97">
   <stop offset="0" stop-color="#497bb3"/>
   <stop offset="0.2" stop-color="#a5c4e6"/>
   <stop offset="1" stop-color="#3b5d8b"/>
  </linearGradient>
  <linearGradient gradientUnits="userSpaceOnUse" id="svg_4" x1="282.36" x2="286.63" y1="518.56" y2="527.34">
   <stop offset="0" stop-color="#a5c4e6"/>
   <stop offset="1" stop-color="#497bb3"/>
  </linearGradient>
  <linearGradient gradientTransform="translate(407.33 -3062.9) scale(4.1992)" gradientUnits="userSpaceOnUse" id="svg_3" spreadMethod="reflect" x1="308.5" x2="327.78" xlink:href="#svg_6" y1="522.61" y2="520.33"/>
  <linearGradient gradientTransform="translate(407.33 -3015.8) scale(4.1992)" gradientUnits="userSpaceOnUse" id="svg_2" spreadMethod="reflect" x1="308.5" x2="327.78" xlink:href="#svg_6" y1="522.61" y2="520.33"/>
  <linearGradient gradientTransform="translate(407.33 -2971.6) scale(4.1992)" gradientUnits="userSpaceOnUse" id="svg_1" spreadMethod="reflect" x1="308.5" x2="327.78" xlink:href="#svg_6" y1="522.61" y2="520.33"/>
  <symbol height="286.62" id="svg_7" width="199.53" xmlns="http://www.w3.org/2000/svg" xmlns:xlink="http://www.w3.org/1999/xlink">

   <g class="Graphic">
    <path d="m183.14,16.48c2.37,3.89 1.61,189.37 -1.47,196.67c-2.41,5.78 -80.72,70.86 -84.8,72.57c-52.94,-0.34 -88.63,-19.63 -94.56,-29.82c-2.27,-12.8 -0.33,-210.12 1.8,-214.25c1.9,-3.6 102.06,-39.48 105.56,-40.34c3.18,-0.71 70.77,10.86 73.47,15.17z" fill="#c7c7c7"/>
    <path d="m182.1,17.1l0.09,-0.05l-0.09,0.1c0,-0.05 -0.05,-0.05 -0.05,-0.05l0,-0.1l0.33,-0.14l-0.09,0.1l-0.24,0.04l0.24,-0.04l-0.1,0.09l-0.09,0.05zm0.09,-0.05l0.1,-0.09l0.09,-0.1l0.24,-0.09l-0.24,0.19l0.24,-0.19l0.05,0l-0.29,0.14l0,0.05l0,-0.05l-0.19,0.14zm0.48,-0.28l-0.05,0l0.05,0l-0.05,0l0.52,-0.29l-0.47,0.24l0,0.05zm0.52,-0.19l-0.52,0.19l0,-0.05l0.52,-0.14zm0.95,-0.71c-0.1,-0.15 -0.19,-0.29 -0.33,-0.43c-0.1,-0.14 -0.24,-0.24 -0.38,-0.33c-0.24,-0.19 -0.57,-0.38 -0.95,-0.57c-0.33,-0.19 -0.71,-0.33 -1.14,-0.52s-0.9,-0.33 -1.42,-0.52c-1,-0.38 -2.23,-0.76 -3.56,-1.14c-1.37,-0.38 -2.89,-0.76 -4.5,-1.19c-6.45,-1.61 -14.84,-3.41 -23.41,-5.02c-8.58,-1.66 -17.26,-3.13 -24.23,-4.27c-3.46,-0.52 -6.54,-0.99 -8.95,-1.28c-1.19,-0.14 -2.23,-0.28 -3.09,-0.38c-0.42,-0.04 -0.8,-0.04 -1.13,-0.09c-0.19,0 -0.34,0 -0.48,-0.05l-0.42,0c-0.15,0 -0.24,0 -0.34,0.05l-0.19,0c-0.09,0 -0.14,0 -0.19,0.05c-0.09,0 -0.19,0.04 -0.33,0.09c-0.09,0 -0.23,0.05 -0.38,0.1s-0.33,0.09 -0.52,0.14c-0.19,0.09 -0.38,0.14 -0.61,0.24a23.43,23.43 0 0 0 -1.66,0.56c-0.62,0.19 -1.33,0.43 -2.09,0.71c-1.56,0.53 -3.36,1.19 -5.45,1.9a851.08,851.08 0 0 0 -6.82,2.42c-9.91,3.55 -22.8,8.2 -35.7,12.99c-12.84,4.78 -25.69,9.62 -35.4,13.51c-2.42,0.99 -4.65,1.89 -6.64,2.7a210.42,210.42 0 0 0 -5.26,2.27c-0.76,0.33 -1.42,0.67 -1.99,0.95c-0.62,0.28 -1.14,0.57 -1.57,0.81c-0.23,0.09 -0.42,0.23 -0.61,0.33c-0.19,0.14 -0.38,0.23 -0.48,0.33c-0.19,0.14 -0.33,0.24 -0.42,0.33c-0.24,0.19 -0.34,0.38 -0.43,0.52c-0.05,0.1 -0.1,0.24 -0.19,0.43c0,0.14 -0.05,0.28 -0.05,0.43c-0.05,0.14 -0.05,0.33 -0.09,0.52s-0.05,0.38 -0.1,0.61a9.5,9.5 0 0 1 -0.14,1.52c0,0.62 -0.05,1.28 -0.09,1.99c-0.1,1.47 -0.19,3.27 -0.29,5.26c-0.09,2.04 -0.19,4.32 -0.24,6.83c-0.33,10.1 -0.66,23.89 -0.9,39.58c-0.52,31.38 -0.9,70.25 -0.9,101.62c0,14.6 0.1,27.64 0.24,37.5c0.05,2.46 0.09,4.74 0.14,6.77s0.14,3.89 0.19,5.46c0.05,1.61 0.14,2.93 0.19,4.03c0.05,0.56 0.1,1.04 0.14,1.42c0.05,0.23 0.05,0.42 0.05,0.61c0.05,0.14 0.1,0.33 0.1,0.48l0.04,0.19l0.1,0.19c0.42,0.71 0.95,1.42 1.56,2.18c0.67,0.75 1.42,1.51 2.28,2.32c1.66,1.52 3.79,3.13 6.4,4.79c5.07,3.32 11.8,6.73 20.05,9.81c8.2,3.08 17.87,5.88 28.82,7.91s23.17,3.32 36.45,3.42l0.28,0l0.24,-0.1l0.38,-0.19c0.09,-0.09 0.23,-0.14 0.38,-0.28c0.14,-0.1 0.28,-0.19 0.47,-0.29l0.57,-0.42c0.43,-0.29 0.9,-0.62 1.42,-1.04c0.52,-0.38 1.09,-0.81 1.75,-1.33c1.28,-0.95 2.75,-2.14 4.41,-3.46s3.51,-2.8 5.5,-4.41c8.01,-6.45 18.25,-14.93 28.44,-23.56c10.19,-8.58 20.38,-17.35 28.11,-24.27c1.94,-1.75 3.75,-3.36 5.36,-4.88c1.61,-1.47 3.03,-2.8 4.21,-3.98a49.47,49.47 0 0 0 1.62,-1.66c0.52,-0.52 0.94,-0.95 1.32,-1.37s0.67,-0.81 0.9,-1.09c0.15,-0.19 0.24,-0.38 0.34,-0.48c0.09,-0.19 0.19,-0.38 0.28,-0.52c0,-0.09 0.05,-0.24 0.09,-0.38s0.1,-0.24 0.15,-0.43c0.04,-0.28 0.09,-0.61 0.14,-1.04c0.09,-0.38 0.14,-0.8 0.19,-1.33s0.09,-1.04 0.14,-1.66c0.1,-1.18 0.19,-2.6 0.33,-4.21c0.05,-1.62 0.15,-3.42 0.24,-5.36c0.38,-7.87 0.66,-18.53 0.9,-30.71c0.47,-24.46 0.76,-55.18 0.76,-82.62c0,-18.44 -0.14,-35.41 -0.38,-47.97c-0.05,-3.13 -0.1,-6.02 -0.19,-8.58c-0.05,-2.51 -0.14,-4.74 -0.24,-6.59a156.79,156.79 0 0 0 -0.14,-2.51a72.58,72.58 0 0 0 -0.14,-1.95c-0.05,-0.28 -0.05,-0.52 -0.1,-0.75s-0.04,-0.48 -0.09,-0.62c-0.05,-0.19 -0.05,-0.38 -0.1,-0.52c-0.04,-0.1 -0.04,-0.19 -0.09,-0.24c-0.05,-0.14 -0.1,-0.24 -0.14,-0.28zm-1.76,0.99l0.57,-0.57l-0.57,0.57zm-0.28,0.43c0.05,0.14 0.05,0.33 0.09,0.52c0,0.19 0.05,0.43 0.05,0.71c0.05,0.52 0.14,1.14 0.19,1.85c0,0.71 0.05,1.56 0.1,2.46c0.09,1.85 0.19,4.08 0.28,6.59c0.05,2.51 0.09,5.41 0.19,8.53c0.24,12.52 0.33,29.49 0.33,47.93c0,27.39 -0.24,58.16 -0.71,82.57c-0.28,12.18 -0.57,22.8 -0.9,30.62a475.63,475.63 0 0 1 -0.28,5.35c-0.1,1.57 -0.19,2.99 -0.29,4.17c-0.05,0.57 -0.09,1.14 -0.19,1.62c0,0.47 -0.09,0.85 -0.14,1.23c-0.05,0.33 -0.1,0.66 -0.14,0.85c0,0.14 -0.05,0.19 -0.05,0.29c0,0.04 -0.05,0.09 -0.05,0.09c0,0.05 -0.05,0.1 -0.09,0.19c-0.05,0.05 -0.14,0.19 -0.19,0.28c-0.24,0.29 -0.48,0.62 -0.81,1c-0.33,0.33 -0.76,0.81 -1.23,1.28l-1.61,1.61c-1.19,1.14 -2.56,2.47 -4.17,3.94a214.12,214.12 0 0 1 -5.31,4.83c-7.73,6.92 -17.87,15.64 -28.06,24.27c-10.19,8.58 -20.43,17.06 -28.35,23.46c-1.99,1.62 -3.84,3.08 -5.5,4.41s-3.12,2.47 -4.4,3.46c-0.62,0.48 -1.24,0.95 -1.76,1.33c-0.47,0.38 -0.95,0.71 -1.32,0.99c-0.19,0.15 -0.38,0.29 -0.57,0.38c-0.15,0.1 -0.29,0.19 -0.38,0.29c-0.1,0.05 -0.19,0.09 -0.24,0.14c-13.08,-0.1 -25.03,-1.38 -35.79,-3.37c-10.8,-1.99 -20.33,-4.74 -28.44,-7.77c-8.01,-3.03 -14.6,-6.35 -19.57,-9.57c-2.42,-1.57 -4.46,-3.13 -6.07,-4.6a20.76,20.76 0 0 1 -2.04,-2.09c-0.47,-0.57 -0.9,-1.09 -1.23,-1.61l0,-0.19c-0.05,-0.14 -0.05,-0.33 -0.05,-0.52c-0.05,-0.38 -0.09,-0.85 -0.14,-1.33c-0.1,-1.09 -0.14,-2.42 -0.24,-3.98a725.18,725.18 0 0 1 -0.14,-5.45c-0.05,-1.99 -0.1,-4.27 -0.14,-6.73c-0.14,-9.86 -0.24,-22.85 -0.24,-37.45c0,-31.37 0.33,-70.2 0.85,-101.58c0.29,-15.64 0.57,-29.48 0.9,-39.53c0.1,-2.51 0.19,-4.78 0.29,-6.82c0.09,-1.99 0.14,-3.75 0.24,-5.17c0.04,-0.76 0.09,-1.42 0.14,-1.99s0.09,-1.04 0.14,-1.47c0,-0.19 0.05,-0.38 0.05,-0.52c0.04,-0.19 0.04,-0.29 0.09,-0.43l0,-0.09c0,-0.05 0.05,-0.05 0.1,-0.1c0.09,-0.04 0.19,-0.14 0.33,-0.23c0.19,-0.05 0.33,-0.19 0.52,-0.29c0.43,-0.24 0.9,-0.47 1.47,-0.76s1.23,-0.57 1.94,-0.9c1.47,-0.66 3.18,-1.37 5.17,-2.23c1.99,-0.8 4.22,-1.75 6.64,-2.7c9.71,-3.88 22.51,-8.72 35.36,-13.46c12.84,-4.79 25.74,-9.48 35.64,-12.99c2.47,-0.9 4.79,-1.7 6.83,-2.41c2.03,-0.76 3.88,-1.38 5.4,-1.9a80.73,80.73 0 0 0 2.09,-0.76c0.61,-0.19 1.18,-0.38 1.66,-0.52c0.18,-0.09 0.42,-0.14 0.61,-0.19c0.19,-0.09 0.33,-0.14 0.47,-0.19s0.24,-0.05 0.38,-0.09l0.15,-0.05l-0.1,-0.38l0.05,0.38l0.57,0c0.09,0 0.23,0 0.38,0.05c0.33,0 0.66,0.04 1.09,0.09c0.8,0.05 1.85,0.19 3.03,0.33c2.37,0.29 5.4,0.76 8.86,1.28c6.97,1.09 15.6,2.61 24.13,4.22c8.53,1.66 16.92,3.41 23.32,5.03c1.61,0.42 3.08,0.8 4.36,1.18c1.33,0.38 2.51,0.71 3.46,1.09c0.48,0.14 0.95,0.33 1.33,0.48c0.33,0.14 0.71,0.28 0.95,0.42s0.47,0.24 0.61,0.38c0,0 0.05,0 0.05,0.05s0.05,0.14 0.05,0.19zm-85.6,267.29c0.04,0 0.04,-0.05 0.09,-0.05l0.28,0l0,0.66l-0.37,-0.61l0.38,0.61l0,0.52l-0.48,-1.08s0.05,-0.05 0.1,-0.05zm-93.14,-29.25c0.04,0.05 0.04,0.14 0.09,0.19s0.05,0.14 0.05,0.19l-1.19,0.19l1,-0.52l0.04,-0.05l-0.04,0.05l0.04,-0.05l0.1,0l-0.1,0l0.01,0zm1.84,-213.2l0,0.14c-0.05,0 -0.05,0.05 -0.09,0.05l-0.24,-0.29l-0.81,-0.19l0.81,0.19l-0.09,-0.05l0.19,0.1l0.23,0.05zm-0.33,-0.1l0.09,0.05l-0.09,-0.05zm-0.76,-0.38l0.67,0.33l-0.67,-0.33zm0.67,0.33l-0.48,-0.52l0.48,0.52zm105.08,-39.86l-0.09,-0.8l0.09,0.8zm-0.19,-0.8l0.19,0.8l0,0.05l-0.19,-0.85z"/>
    <path d="m179.3,20.32l-2.46,1.04l-2.47,1.09l-2.46,1.09l-2.51,1.19l-2.52,1.18l-2.51,1.24l-2.51,1.23l-2.56,1.28l-2.56,1.28l-2.56,1.33l-2.61,1.32l-2.56,1.38l-2.6,1.37l-2.61,1.38l-5.26,2.84l-5.31,2.85l-5.31,2.84l-5.36,2.89l-5.4,2.84l-5.4,2.85l-5.41,2.8l-2.7,1.37l-2.7,1.38l-2.75,1.32l-2.7,1.33l-1.28,-0.28l-1.33,-0.34l-2.65,-0.61l-2.75,-0.67l-2.8,-0.61l-2.84,-0.67l-2.89,-0.66l-2.89,-0.66l-2.99,-0.67l-2.94,-0.66l-2.98,-0.71l-6.02,-1.33l-6.02,-1.33l-3.04,-0.66l-2.98,-0.66l-2.94,-0.62l-2.94,-0.62l-2.89,-0.61l-2.85,-0.62l-2.84,-0.61l-2.75,-0.57l-2.7,-0.57l-1.33,-0.24l-1.33,-0.28l-1.28,-0.24l-1.28,-0.28l-1.28,-0.24l-1.23,-0.24l-1.23,-0.24l-1.19,-0.28l-1.18,-0.19l-1.14,-0.24l-1.14,-0.23l-1.13,-0.19l-1.09,-0.19l-1.05,-0.24l-1.04,-0.19l-0.99,-0.14l-1,-0.19l-0.95,-0.19l2.47,0.76l2.46,0.76l2.51,0.75l2.56,0.72l2.61,0.75l2.61,0.71l2.7,0.76l2.65,0.71l2.71,0.76l2.74,0.71l5.5,1.47l5.55,1.43l5.59,1.47l5.59,1.46l5.55,1.43l5.5,1.47l2.75,0.71l2.7,0.76l2.7,0.71l2.66,0.76l2.6,0.71l2.61,0.75l2.56,0.71l2.51,0.76l2.47,0.76l2.46,0.76l0.05,2.84l0.09,2.89l0.05,2.9l0.05,2.98l0.05,3.04l0.09,3.03l0.05,3.08l0.05,3.13l0.04,3.17l0.05,3.18l0.05,3.22l0,3.27l0.04,3.27l0.05,3.32l0.05,3.32l0,3.37l0.05,3.36l0,3.41l0.04,3.42l0.05,3.46l0.05,6.92l0.05,6.97l0,7.06l0.04,7.06l0.1,14.17l0.05,14.22l0.04,7.07l0.05,7.01l0.05,6.97l0.05,6.92l0.04,3.46l0,3.41l0.05,3.42l0.05,3.36l0,3.37l0.04,3.36l0.05,3.27l0.05,3.32l0,3.22l0.05,3.23l0.04,3.17l0.05,3.18l0.05,3.13l0.05,3.08l0.04,3.08l0.1,2.99l0.05,2.98l0.04,2.94l0.1,2.89l0.05,2.84l0.04,-2.88l0.05,-2.9l0,-2.98l0.05,-2.99l0.05,-3.03l0.04,-3.08l0.05,-3.13l0.05,-3.18l0.05,-3.17l0.04,-3.23l0.05,-3.27l0.09,-3.27l0.05,-3.32l0.05,-3.36l0.05,-3.37l0.04,-3.41l0.05,-3.41l0.1,-3.46l0.04,-3.46l0.05,-3.46l0.14,-7.02l0.15,-7.06l0.09,-7.16l0.14,-7.16l0.29,-14.36l0.23,-14.36l0.15,-7.16l0.14,-7.11l0.09,-7.06l0.15,-7.06l0.04,-3.46l0.1,-3.46l0.05,-3.46l0.04,-3.42l0.05,-3.36l0.05,-3.42l0.04,-3.31l0.1,-3.32l0.05,-3.32l0.04,-3.22l0.05,-3.23l0.05,-3.22l0.05,-3.13l0.04,-3.13l0.05,-3.08l0.05,-3.03l0.05,-3.03l0,-2.94l0.04,-2.94l0.05,-2.85l5.21,-2.79l5.17,-2.8l5.17,-2.7l5.16,-2.75l5.12,-2.7l5.08,-2.75l5.07,-2.7l5.07,-2.75l4.98,-2.75l4.97,-2.75l4.93,-2.84l4.89,-2.85l2.41,-1.42l2.37,-1.47l2.42,-1.47l2.37,-1.47l2.37,-1.47l2.37,-1.51l2.32,-1.52l2.37,-1.52z" fill="#fff" fill-opacity="0.54" stroke="#fff" stroke-opacity="0.54" stroke-width="0.05"/>
    <path d="m179.3,20.32c-26.02,11 -54.79,28.73 -83.8,42.71c-27.49,-6.54 -67.17,-15.26 -87.17,-18.77c25.74,8.01 59.58,15.5 85.32,23.51c1.52,60.24 0.76,151.49 2.27,211.73c0.76,-60.76 2.8,-153.47 3.56,-214.19c27.78,-15.03 55.03,-28.49 79.82,-44.99z" fill="none"/>
    <path d="m18.05,218.74l0.47,0.66l0.48,0.62l0.52,0.62l0.57,0.61l0.57,0.57l0.56,0.57l0.67,0.57l0.61,0.57l0.67,0.57l0.71,0.52l0.71,0.52l0.76,0.52l0.71,0.52l0.8,0.47l0.76,0.48l0.81,0.52l0.85,0.43l0.86,0.47l0.85,0.43l0.85,0.38l0.9,0.42l0.9,0.38l0.9,0.38l0.9,0.38l1.9,0.71l1.9,0.66l1.94,0.57l1.94,0.52l1.99,0.48l1.95,0.43l1.99,0.38l1.94,0.28l1.95,0.28l1.94,0.15l0.99,0.09l0.95,0.05l0.9,0.05l2.8,0l0.9,-0.05l0.9,-0.05l0.85,-0.05l0.9,-0.04l0.81,-0.1l0.85,-0.14l0.81,-0.1l0.8,-0.14l0.81,-0.19l0.76,-0.19l0.71,-0.19l0.71,-0.19l0.71,-0.23l0.71,-0.24l-0.09,-0.05l-0.05,0l-0.24,-0.09l-0.28,-0.05l-0.33,-0.1l-0.38,-0.09l-0.48,-0.14l-0.47,-0.14l-0.57,-0.15l-0.61,-0.19l-0.67,-0.14l-0.71,-0.19l-0.76,-0.24l-0.76,-0.19l-0.85,-0.23l-0.85,-0.24l-0.9,-0.24l-0.95,-0.28l-0.95,-0.24l-0.99,-0.28l-1.05,-0.29l-1.04,-0.28l-1.04,-0.28l-1.09,-0.34l-1.14,-0.28l-2.28,-0.62l-2.32,-0.66l-2.37,-0.66l-2.37,-0.62l-2.37,-0.71l-2.37,-0.62l-2.32,-0.66l-2.32,-0.62l-1.09,-0.33l-1.14,-0.28l-1.09,-0.34l-1.04,-0.28l-1.05,-0.28l-0.99,-0.29l-1,-0.28l-0.95,-0.24l-0.9,-0.28l-0.9,-0.24l-0.85,-0.24l-0.81,-0.23l-0.75,-0.19l-0.72,-0.24l-0.71,-0.19l-0.61,-0.19l-0.57,-0.14l-0.57,-0.14l-0.47,-0.15l-0.43,-0.14l-0.33,-0.09l-0.33,-0.1l-0.24,-0.09l-0.1,0l-0.09,-0.05z" fill-opacity="0.16" stroke="#fff" stroke-opacity="0.16" stroke-width="0.05"/>
    <path d="m18.05,218.74c9.53,13.7 39.48,20.43 53.7,14.93c-2.51,-0.66 -50.53,-13.89 -53.7,-14.93z" fill="none"/>
    <path d="m67.06,193.38l-44.37,-17.11l-0.42,0.19l-0.38,0.19l-0.38,0.19l-0.29,0.23l-0.28,0.29l-0.28,0.28l-0.24,0.33l-0.24,0.29l-0.19,0.33l-0.19,0.33l-0.14,0.33l-0.14,0.38l-0.14,0.38l-0.1,0.33l-0.14,0.71l-0.1,0.72l-0.09,0.66l0,1.75l0.05,0.19l0,0.29l6.92,2.41l0.04,0.05l0.05,0.05l0.05,0.05l0.05,0.09l0.09,0.1l0.05,0.14l0.14,0.14l0.1,0.14l0.14,0.19l0.14,0.19l0.14,0.19l0.19,0.24l0.19,0.19l0.19,0.28l0.24,0.19l0.47,0.57l0.48,0.52l0.61,0.57l0.62,0.57l0.66,0.62l0.71,0.57l0.81,0.61l0.8,0.57l0.9,0.57l0.91,0.52l0.99,0.52l1.04,0.48l0.53,0.19l0.52,0.23l0.57,0.19l0.57,0.19l0.61,0.14l0.57,0.15l0.62,0.14l0.61,0.14l0.62,0.1l0.61,0.04l0.67,0.1l0.66,0.05l2.09,0l0.71,-0.05l0.71,-0.1l0.71,-0.09l0.76,-0.1l0.76,-0.14l0.76,-0.19l0.75,-0.19l0.81,-0.24l0.81,-0.28l0.04,0l0.1,0.05l0.14,0l0.28,0.05l0.29,0.04l0.33,0.05l0.38,0.05l0.43,0.04l0.47,0.05l0.52,0.05l0.57,0.05l0.57,0.04l0.57,0l0.61,0.05l1.24,0l0.66,-0.05l0.62,-0.04l0.66,-0.05l0.62,-0.1l0.61,-0.09l0.57,-0.14l0.57,-0.14l0.57,-0.15l0.47,-0.23l0.52,-0.24l0.43,-0.28l0.38,-0.29l0.38,-0.38l0.14,-0.19l0.14,-0.19l0.15,-0.19l0.09,-0.19l0.1,-0.23l0.09,-0.24z" fill="#fff" fill-opacity="0.39" stroke="#fff" stroke-opacity="0.39" stroke-width="0.05"/>
    <path d="m67.06,193.38l-44.37,-17.11c-4.59,1.61 -3.69,8.39 -3.69,8.39l6.92,2.42s9.67,15.12 26.83,9.19c0,0 12.75,2.28 14.31,-2.89z" fill="none"/>
    <path d="m66.68,187.6c-14.74,-3.84 -29.48,-7.63 -44.22,-11.47c-0.57,2.08 -0.62,5.07 0.28,6.63c2.23,1.09 6.73,1.95 8.96,3.04c6.45,6.21 12.09,6.73 22.37,5.87c3.98,0.81 7.97,1.47 11.9,2.28c1.23,-2.42 1.56,-3.41 0.71,-6.35z" fill="#606060"/>
    <path d="m66.68,187.6c-14.74,-3.84 -29.48,-7.63 -44.22,-11.47c-0.57,2.08 -0.62,5.07 0.28,6.63c2.23,1.09 6.73,1.95 8.96,3.04c6.45,6.21 12.09,6.73 22.37,5.87c3.98,0.81 7.97,1.47 11.9,2.28c1.23,-2.42 1.56,-3.41 0.71,-6.35z" fill="none"/>
    <path d="m180.91,19l-85.93,48.2l0.33,215.62l84.13,-70.81l1.47,-193.02l0,0.01z" fill="#fff" fill-opacity="0.4" stroke="#fff" stroke-opacity="0.4" stroke-width="0.05"/>
    <path d="m180.91,19l-85.93,48.2l0.33,215.62l84.13,-70.81l1.47,-193.02l0,0.01z" fill="none"/>
    <path d="m23.02,232.39l0.48,0.62l0.52,0.56l0.47,0.62l0.52,0.52l0.53,0.57l0.52,0.52l0.57,0.52l0.57,0.48l0.57,0.47l0.56,0.48l0.62,0.47l0.57,0.43l0.61,0.42l0.62,0.38l1.28,0.81l1.33,0.71l1.33,0.66l1.32,0.62l1.38,0.52l1.37,0.52l1.42,0.43l1.43,0.38l1.37,0.38l1.42,0.28l1.42,0.24l1.43,0.19l1.42,0.14l1.42,0.09l1.37,0.1l1.38,0l1.37,-0.05l1.28,-0.09l1.33,-0.1l1.28,-0.14l1.23,-0.24l1.19,-0.23l1.14,-0.29l1.13,-0.28l1.05,-0.38l-0.1,-0.05l-0.19,0l-0.19,-0.09l-0.23,-0.05l-0.29,-0.1l-0.38,-0.09l-0.38,-0.1l-0.42,-0.09l-0.48,-0.14l-0.47,-0.15l-0.52,-0.14l-0.57,-0.14l-0.62,-0.19l-0.61,-0.14l-0.67,-0.19l-0.71,-0.19l-0.71,-0.19l-0.71,-0.24l-0.76,-0.19l-0.76,-0.23l-0.8,-0.19l-0.86,-0.24l-1.66,-0.47l-1.7,-0.48l-1.8,-0.47l-1.81,-0.48l-1.8,-0.52l-3.6,-0.99l-1.75,-0.48l-1.76,-0.52l-1.7,-0.47l-0.81,-0.19l-0.8,-0.24l-0.81,-0.24l-0.76,-0.19l-0.76,-0.23l-0.71,-0.19l-0.71,-0.19l-0.66,-0.19l-0.67,-0.19l-0.61,-0.19l-0.57,-0.14l-0.52,-0.14l-0.57,-0.15l-0.48,-0.14l-0.42,-0.14l-0.38,-0.1l-0.38,-0.14l-0.33,-0.05l-0.29,-0.09l-0.23,-0.09l-0.19,-0.05l-0.14,-0.05l-0.01,0z" fill-opacity="0.16" stroke="#fff" stroke-opacity="0.16" stroke-width="0.05"/>
    <path d="m23.02,232.39c9.91,13.08 29.72,15.31 40.82,11.33c-1.85,-0.48 -38.4,-10.52 -40.82,-11.33z" fill="none"/>
    <path d="m30.37,245.8l0.57,0.72l0.57,0.66l0.62,0.66l0.66,0.57l0.66,0.62l0.67,0.52l0.71,0.52l0.76,0.52l0.71,0.43l0.8,0.42l0.76,0.43l0.81,0.33l0.85,0.33l0.81,0.34l0.85,0.23l0.85,0.24l0.86,0.24l0.9,0.14l0.85,0.19l0.9,0.09l0.85,0.1l0.9,0.05l1.8,0l0.86,-0.05l0.9,-0.1l0.85,-0.09l0.9,-0.14l0.86,-0.19l0.85,-0.19l0.85,-0.24l0.81,-0.28l-0.05,0l-0.09,-0.05l-0.15,0l-0.19,-0.05l-0.14,-0.05l-0.24,-0.09l-0.23,-0.05l-0.29,-0.09l-0.28,-0.05l-0.29,-0.1l-0.33,-0.09l-0.38,-0.09l-0.38,-0.1l-0.38,-0.14l-0.42,-0.1l-0.43,-0.09l-0.9,-0.29l-0.95,-0.23l-1.04,-0.29l-1.04,-0.28l-1.09,-0.29l-1.09,-0.33l-2.28,-0.61l-2.27,-0.62l-1.09,-0.33l-1.09,-0.29l-1.09,-0.28l-1,-0.28l-0.99,-0.29l-0.9,-0.28l-0.43,-0.1l-0.43,-0.14l-0.43,-0.09l-0.37,-0.1l-0.38,-0.09l-0.33,-0.1l-0.34,-0.09l-0.28,-0.1l-0.29,-0.09l-0.23,-0.1l-0.24,-0.05l-0.24,-0.04l-0.14,-0.05l-0.14,-0.05l-0.14,-0.05l-0.1,0z" fill-opacity="0.16" stroke="#fff" stroke-opacity="0.16" stroke-width="0.05"/>
    <path d="m30.37,245.8c5.74,7.73 16.83,10.1 25.6,7.07c-1.19,-0.29 -24.03,-6.59 -25.6,-7.07z" fill="none"/>
    <path d="m15.02,59.05l-4.37,0.61l-0.8,103l67.54,18.92l1.66,-5.5l-64.89,-17.3l0.86,-99.73z" fill="#fcfcfc" fill-opacity="0.44" stroke="#fff" stroke-opacity="0.44" stroke-width="0.05"/>
    <path d="m15.02,59.05l-4.37,0.61l-0.8,103l67.54,18.92l1.66,-5.5l-64.89,-17.3l0.86,-99.73z" fill="none"/>
    <path d="m78.72,97.25l-0.09,2.89l-63.52,-18.29l63.61,15.4zm0.95,20.95l-0.14,2.89l-63.47,-18.29l63.61,15.4zm-0.95,19.39l-0.09,2.89l-63.52,-18.29l63.61,15.4zm0,19.06l-0.09,2.89l-63.52,-18.35l63.61,15.46z" fill-opacity="0.23" stroke="#fff" stroke-opacity="0.23" stroke-width="0.05"/>
    <path d="m15.25,61.42l63.14,15.78l-0.52,104.14l1.04,0l0.52,-104.52l0,-0.42l-0.38,-0.1l-63.56,-15.88l-0.1,0.52l-0.14,0.48zm63.52,15.88l-0.38,-0.1l0,-0.38l0.52,0l-0.14,0.48z" fill="#9e9e9e"/>
   </g>
   <g transform="matrix(.52219 0 0 .42933 -731.95 599.803)">
    <path d="m1618.4,-890.85l0,126.36l0.53,0c-0.34,1.01 -0.53,1.98 -0.53,3.02c0,15.23 36.99,27.56 82.67,27.56s82.67,-12.34 82.67,-27.56c0,-1.05 -0.18,-2.01 -0.52,-3.02l0.52,0l0,-126.36l-165.34,0z" fill="url(#svg_5)"/>
    <ellipse cx="286.63" cy="521.78" fill="url(#svg_4)" rx="16.67" ry="5.56" transform="translate(278.63 -3481.3) scale(4.9627)"/>
    <path d="m1618.3,-800.18c0.62,15.05 37.51,27.16 82.8,27.16c45.17,0 81.85,-12.04 82.68,-27.03c-14.5,12.33 -46.02,20.87 -82.68,20.87c-36.72,0 -68.35,-8.63 -82.8,-21z" fill="#3b5d8b"/>
    <path d="m1618.3,-891.51c0.62,15.05 37.51,27.16 82.8,27.16c45.17,0 81.85,-12.04 82.68,-27.03a42.67,42.67 0 0 1 -2.89,2.23c-0.04,0.05 -0.09,0.08 -0.13,0.13c-9.63,11.67 -41.59,20.21 -79.66,20.21c-38.3,0 -70.48,-8.69 -79.91,-20.47c-0.11,-0.07 -0.16,-0.19 -0.26,-0.26c-0.92,-0.67 -1.82,-1.28 -2.63,-1.97z" fill="url(#svg_3)"/>
    <path d="m1618.3,-844.36c0.62,15.05 37.51,27.16 82.8,27.16c45.17,0 81.85,-12.04 82.68,-27.03c-14.5,12.33 -46.02,20.87 -82.68,20.87c-36.72,0 -68.35,-8.63 -82.8,-21z" fill="#3b5d8b"/>
    <path d="m1618.3,-844.36c0.62,15.05 37.51,27.16 82.8,27.16c45.17,0 81.85,-12.04 82.68,-27.03c-0.21,0.18 -0.45,0.35 -0.66,0.53c-5.22,13.55 -39.94,24.01 -82.02,24.01c-42.46,0 -77.55,-10.55 -82.28,-24.28c-0.16,-0.13 -0.36,-0.25 -0.52,-0.39z" fill="url(#svg_2)"/>
    <path d="m1618.3,-800.18c0.62,15.05 37.51,27.16 82.8,27.16c45.17,0 81.85,-12.04 82.68,-27.03c-0.21,0.18 -0.45,0.35 -0.66,0.53c-5.22,13.55 -39.94,24.01 -82.02,24.01c-42.46,0 -77.55,-10.54 -82.28,-24.28c-0.16,-0.13 -0.36,-0.25 -0.52,-0.39z" fill="url(#svg_1)"/>
    <path d="m1618.8,-754.64c4.73,13.73 39.81,24.28 82.28,24.28c42.08,0 76.8,-10.47 82.02,-24.02c-14.77,12.05 -45.9,20.34 -82.02,20.34c-36.32,0 -67.61,-8.45 -82.28,-20.6z" fill="#3b5d8b"/>
   </g>
  </symbol>
  <linearGradient id="svg_44">
   <stop offset="0" stop-color="#73d216"/>
   <stop offset="0.26" stop-color="#9ced4b"/>
   <stop offset="0.59" stop-color="#64b813"/>
   <stop offset="1" stop-color="#8eea34"/>
  </linearGradient>
  <linearGradient id="svg_46">
   <stop offset="0" stop-color="#fff"/>
   <stop offset="1" stop-color="#fff" stop-opacity="0"/>
  </linearGradient>
  <linearGradient id="svg_47">
   <stop offset="0" stop-color="#eee"/>
   <stop offset="1" stop-color="#eee" stop-opacity="0"/>
  </linearGradient>
  <linearGradient id="svg_48">
   <stop offset="0" stop-color="#838383"/>
   <stop offset="1" stop-color="#bbb" stop-opacity="0"/>
  </linearGradient>
  <linearGradient id="svg_40">
   <stop offset="0" stop-color="#e4e4e4"/>
   <stop offset="1" stop-color="#d3d3d3"/>
  </linearGradient>
  <linearGradient id="svg_49">
   <stop offset="0" stop-color="#bbb"/>
   <stop offset="1" stop-color="#9f9f9f"/>
  </linearGradient>
  <linearGradient id="svg_45">
   <stop offset="0" stop-color="#2c2929"/>
   <stop offset="1" stop-color="#2c2929" stop-opacity="0"/>
  </linearGradient>
  <linearGradient id="svg_51">
   <stop offset="0" stop-color="#b8b5b5"/>
   <stop offset="1" stop-color="#b8b5b5" stop-opacity="0"/>
  </linearGradient>
  <linearGradient id="svg_50">
   <stop offset="0" stop-opacity="0"/>
   <stop offset="0.5"/>
   <stop offset="1" stop-opacity="0"/>
  </linearGradient>
  <linearGradient id="svg_41">
   <stop offset="0"/>
   <stop offset="1" stop-opacity="0"/>
  </linearGradient>
  <linearGradient id="svg_43">
   <stop offset="0" stop-color="#ffd1d1"/>
   <stop offset="0.5" stop-color="#ff1d1d"/>
   <stop offset="1" stop-color="#6f0000"/>
  </linearGradient>
  <linearGradient gradientTransform="matrix(15.28259 0 0 70.77539 -92.532 -1213.083)" gradientUnits="userSpaceOnUse" id="svg_39" x1="2.91" x2="6.63" xlink:href="#svg_51" y1="25.42" y2="25.42"/>
  <linearGradient gradientTransform="matrix(14.41894 0 0 71.05095 666.16 -1227.349)" gradientUnits="userSpaceOnUse" id="svg_38" x1="2.91" x2="6.63" xlink:href="#svg_51" y1="25.42" y2="25.42"/>
  <linearGradient gradientUnits="userSpaceOnUse" id="svg_36" x1="5.71" x2="8.69" xlink:href="#svg_45" y1="25.59" y2="25.59"/>
  <linearGradient gradientUnits="userSpaceOnUse" id="svg_37" x1="5.83" x2="8.57" xlink:href="#svg_45" y1="25.59" y2="25.59"/>
  <linearGradient gradientUnits="userSpaceOnUse" id="svg_34" x1="5.71" x2="8.69" xlink:href="#svg_45" y1="25.59" y2="25.59"/>
  <linearGradient gradientUnits="userSpaceOnUse" id="svg_35" x1="5.83" x2="8.57" xlink:href="#svg_45" y1="25.59" y2="25.59"/>
  <linearGradient gradientTransform="matrix(1.12975 0 0 .5328 -55.581 392.128)" gradientUnits="userSpaceOnUse" id="svg_33" x1="302.86" x2="302.86" xlink:href="#svg_50" y1="366.65" y2="609.5"/>
  <linearGradient gradientTransform="matrix(16.60206 0 0 12.96268 -43.633 159.596)" gradientUnits="userSpaceOnUse" id="svg_29" x1="7.61" x2="36.18" xlink:href="#svg_49" y1="28.48" y2="40.94"/>
  <linearGradient gradientTransform="matrix(16.60206 0 0 12.96268 -30.427 142.41)" gradientUnits="userSpaceOnUse" id="svg_27" x1="7.06" x2="24.69" xlink:href="#svg_48" y1="35.28" y2="35.28"/>
  <linearGradient gradientTransform="matrix(16.60206 0 0 12.96268 -43.633 159.596)" gradientUnits="userSpaceOnUse" id="svg_26" x1="12.28" x2="12.22" xlink:href="#svg_47" y1="37.21" y2="33.76"/>
  <linearGradient gradientTransform="matrix(16.60206 0 0 12.96268 -43.634 159.597)" gradientUnits="userSpaceOnUse" id="svg_24" x1="12.38" x2="44.1" xlink:href="#svg_46" y1="4.43" y2="47.62"/>
  <linearGradient gradientUnits="userSpaceOnUse" id="svg_18" x1="5.71" x2="8.69" xlink:href="#svg_45" y1="25.59" y2="25.59"/>
  <linearGradient gradientUnits="userSpaceOnUse" id="svg_19" x1="5.83" x2="8.57" xlink:href="#svg_45" y1="25.59" y2="25.59"/>
  <linearGradient gradientUnits="userSpaceOnUse" id="svg_17" x1="5.83" x2="8.57" xlink:href="#svg_44" y1="25.59" y2="25.59"/>
  <linearGradient gradientUnits="userSpaceOnUse" id="svg_15" x1="5.83" x2="8.57" xlink:href="#svg_43" y1="25.59" y2="25.59"/>
  <linearGradient id="svg_42">
   <stop offset="0" stop-color="#fff"/>
   <stop offset="1" stop-color="#fff" stop-opacity="0"/>
  </linearGradient>
  <linearGradient gradientTransform="translate(278.63 -3355.4) scale(4.9627)" gradientUnits="userSpaceOnUse" id="svg_13" spreadMethod="reflect" x1="269.97" x2="286.63" y1="511.97" y2="511.97">
   <stop offset="0" stop-color="#497bb3"/>
   <stop offset="0.2" stop-color="#a5c4e6"/>
   <stop offset="1" stop-color="#3b5d8b"/>
  </linearGradient>
  <linearGradient gradientUnits="userSpaceOnUse" id="svg_12" x1="282.36" x2="286.63" y1="518.56" y2="527.34">
   <stop offset="0" stop-color="#a5c4e6"/>
   <stop offset="1" stop-color="#497bb3"/>
  </linearGradient>
  <linearGradient gradientTransform="translate(407.33 -3062.9) scale(4.1992)" gradientUnits="userSpaceOnUse" id="svg_11" spreadMethod="reflect" x1="308.5" x2="327.78" xlink:href="#svg_42" y1="522.61" y2="520.33"/>
  <linearGradient gradientTransform="translate(407.33 -3015.8) scale(4.1992)" gradientUnits="userSpaceOnUse" id="svg_10" spreadMethod="reflect" x1="308.5" x2="327.78" xlink:href="#svg_42" y1="522.61" y2="520.33"/>
  <linearGradient gradientTransform="translate(407.33 -2971.6) scale(4.1992)" gradientUnits="userSpaceOnUse" id="svg_9" spreadMethod="reflect" x1="308.5" x2="327.78" xlink:href="#svg_42" y1="522.61" y2="520.33"/>
  <radialGradient cx="605.71" cy="486.65" fx="605.71" fy="486.65" gradientTransform="matrix(1.12975 0 0 .5328 -55.359 392.128)" gradientUnits="userSpaceOnUse" id="svg_32" r="117.14" xlink:href="#svg_41"/>
  <radialGradient cx="605.71" cy="486.65" fx="605.71" fy="486.65" gradientTransform="matrix(-1.12975 0 0 .5328 760.84 392.128)" gradientUnits="userSpaceOnUse" id="svg_31" r="117.14" xlink:href="#svg_41"/>
  <radialGradient cx="15.57" cy="2.96" fx="15.57" fy="2.96" gradientTransform="matrix(21.35427 10.1329 -11.80045 15.16053 -82.72 96.38)" gradientUnits="userSpaceOnUse" id="svg_28" r="20.94" xlink:href="#svg_40"/>
  <symbol height="180" id="svg_52" viewBox="0 -400 1690 1200" width="300" xmlns="http://www.w3.org/2000/svg" xmlns:xlink="http://www.w3.org/1999/xlink">
   <defs>
    <path d="m143.73,262.81c-10.37,0 -17.12,3.76 -21.27,10.94l-107.39,221.71s-4.15,8.7 -4.15,23.09l0,125.09c0,14.03 10.92,21.06 27.49,21.06l640.22,0c16.35,0 26.46,-9.31 26.46,-23.9l0,-125.09s1.76,-9.98 -1.56,-17.01l-111.54,-222.92c-3.07,-6.64 -10.58,-12.81 -18.68,-12.97l-429.58,0z" fill="none" id="svg_30" stroke="#555753" stroke-linecap="round" stroke-linejoin="round" stroke-width="29.34"/>
    <path d="m700.08,491.81c1.05,16.2 -6.88,30.02 -21.95,30.38l-632.86,0c-21.4,0 -31,-4.21 -34.59,-11.25c1.52,12.24 13.71,21.38 34.6,21.38l632.85,0c17.86,-0.43 29.1,-18.46 22.44,-38.82l-0.5,-1.69l0.01,0z" fill="#fff" fill-rule="evenodd" id="svg_25"/>
    <path d="m8.57,25.59a1.37,1.02 0 1 1 -2.74,0a1.37,1.02 0 1 1 2.74,0z" fill="#fff" fill-opacity="0.46" fill-rule="evenodd" id="svg_20"/>
    <path d="m628.75,567l0,65.09m-33.2,-64.31l0,65.08m-33.21,-65.08l0,65.08m-33.2,-65.08l0,65.08m-33.21,-65.08l0,65.08m-33.2,-65.08l0,65.08" fill="none" id="svg_23" stroke="#fff" stroke-linecap="square" stroke-opacity="0.42" stroke-width="14.67"/>
    <path d="m612.15,567.65l0,65.08m-33.21,-64.31l0,65.09m-33.2,-65.09l0,65.09m-33.2,-65.09l0,65.09m-33.21,-65.09l0,65.09" fill="none" id="svg_22" opacity="0.1" stroke="#000" stroke-linecap="square" stroke-width="14.67"/>
    <path d="m87.11,563.87l0,71.7l208.56,0l-202.86,-4.46l-5.7,-67.24z" fill="#fff" fill-rule="evenodd" id="svg_21" opacity="0.44"/>
    <path d="m8.57,25.59a1.37,1.02 0 1 1 -2.74,0a1.37,1.02 0 1 1 2.74,0z" fill="#73d216" fill-opacity="0.46" fill-rule="evenodd" id="svg_16"/>
    <path d="m8.57,25.59a1.37,1.02 0 1 1 -2.74,0a1.37,1.02 0 1 1 2.74,0z" fill="#c00" fill-opacity="0.46" fill-rule="evenodd" id="svg_14"/>
   </defs>

   <path d="m-65.56,115.42l850,0l0,850l-850,0l0,-850z" fill="none"/>
   <g transform="translate(52.018 -254.336) scale(.78902)">
    <path d="m-45.73,529.76l52.16,0l0,112.39l-52.16,0l0,-112.39z" fill="url(#svg_39)" stroke="#2c2929" stroke-linejoin="round" stroke-width="9.87"/>
    <path d="m710.32,522.28l49.21,0l0,112.83l-49.21,0l0,-112.83z" fill="url(#svg_38)" stroke="#2c2929" stroke-linejoin="round" stroke-width="9.6"/>
    <path d="m8.57,25.59a1.37,1.02 0 1 1 -2.74,0a1.37,1.02 0 1 1 2.74,0z" fill="url(#svg_36)" fill-rule="evenodd" stroke="url(#svg_37)" stroke-linecap="round" stroke-linejoin="round" stroke-width="0.24" transform="matrix(10.20766 0 0 13.53441 663.668 236.89)"/>
    <path d="m8.57,25.59a1.37,1.02 0 1 1 -2.74,0a1.37,1.02 0 1 1 2.74,0z" fill="url(#svg_34)" fill-rule="evenodd" stroke="url(#svg_35)" stroke-linecap="round" stroke-linejoin="round" stroke-width="0.24" transform="matrix(10.18844 0 0 14.06841 -95.069 230.04)"/>
    <path d="m79.99,587.48l545.5,0l0,129.4l-545.5,0l0,-129.4z" fill="url(#svg_33)" opacity="0.4"/>
    <path d="m625.49,587.49l0,129.38c58.18,0.25 140.65,-28.99 140.65,-64.7c0,-35.71 -64.92,-64.68 -140.65,-64.68z" fill="url(#svg_32)" opacity="0.4"/>
    <path d="m79.99,587.49l0,129.38c-58.18,0.25 -140.65,-28.99 -140.65,-64.7c0,-35.71 64.92,-64.68 140.65,-64.68z" fill="url(#svg_31)" opacity="0.4"/>
    <use stroke-linecap="round" stroke-linejoin="round" stroke-width="29.34" xlink:href="#svg_30"/>
    <path d="m10.71,509.55l12.7,-8.98l624.4,0.81l57.48,4.12l0,135.31c0,14.59 -10.08,23.89 -26.43,23.89l-640.56,0c-16.57,0 -27.59,-7.02 -27.59,-21.06l0,-134.09z" fill="url(#svg_29)" fill-rule="evenodd"/>
    <path d="m15.29,495.52c-11.86,18.98 -0.01,31.01 17.19,31.01l647.48,0c18.58,-0.3 30.64,-13.11 23.72,-27.77l-111.47,-223.1c-3.06,-6.64 -10.87,-12.81 -18.97,-12.96l-429.28,0c-10.38,0 -17.2,3.93 -21.35,11.11l-107.32,221.71z" fill="url(#svg_28)" fill-rule="evenodd"/>
    <path d="m86.83,563.7l292.61,0l0,72.1l-292.61,0l0,-72.1z" fill="url(#svg_27)" fill-rule="evenodd"/>
    <path d="m86.83,635.8l0,-52c30.47,41.21 137.73,52 214.79,52l-214.8,0l0.01,0z" fill="url(#svg_26)" fill-rule="evenodd" opacity="0.81"/>
    <use fill-rule="evenodd" xlink:href="#svg_25"/>
    <use fill-opacity="0.46" fill-rule="evenodd" overflow="visible" transform="matrix(29.55307 0 0 21.33706 149.985 52.35)" xlink:href="#svg_20"/>
    <path d="m149.66,268.69c-9.99,0 -16.49,3.62 -20.48,10.53l-106.5,215.06s-4,8.38 -4,22.23l0,120.42c0,17.56 7.37,21.09 26.47,21.09l625.68,0c21.97,0 25.47,-4.1 25.47,-23.82l0,-120.43s1.7,-9.61 -1.49,-16.38l-109.46,-217.85c-2.95,-6.38 -9.15,-10.71 -16.95,-10.85l-418.74,0z" fill="none" stroke="url(#svg_24)" stroke-linecap="round" stroke-linejoin="round" stroke-width="14.67"/>
    <use stroke-linecap="square" stroke-opacity="0.42" stroke-width="14.67" xlink:href="#svg_23"/>
    <use stroke-linecap="square" stroke-width="14.67" xlink:href="#svg_22"/>
    <use fill-rule="evenodd" xlink:href="#svg_21"/>
    <use fill-opacity="0.46" fill-rule="evenodd" overflow="visible" transform="matrix(20.90857 0 0 17.38179 211.798 157.484)" xlink:href="#svg_20"/>
    <path d="m8.57,25.59a1.37,1.02 0 1 1 -2.74,0a1.37,1.02 0 1 1 2.74,0z" fill="url(#svg_18)" fill-rule="evenodd" stroke="url(#svg_19)" stroke-linecap="round" stroke-linejoin="round" stroke-width="0.24" transform="matrix(22.49558 0 0 17.7479 206.682 146.774)"/>
    <path d="m8.57,25.59a1.37,1.02 0 1 1 -2.74,0a1.37,1.02 0 1 1 2.74,0z" fill="url(#svg_17)" fill-rule="evenodd" transform="matrix(7.84452 0 0 8.82184 605.301 378.16)"/>
    <use fill-opacity="0.46" fill-rule="evenodd" overflow="visible" transform="matrix(6.69058 0 0 8.10461 611.867 397.412)" xlink:href="#svg_16"/>
    <path d="m8.57,25.59a1.37,1.02 0 1 1 -2.74,0a1.37,1.02 0 1 1 2.74,0z" fill="url(#svg_15)" fill-rule="evenodd" transform="matrix(7.84452 0 0 8.82184 605.301 403.807)"/>
    <use fill-opacity="0.46" fill-rule="evenodd" overflow="visible" transform="matrix(6.69058 0 0 8.10461 611.867 423.06)" xlink:href="#svg_14"/>
   </g>
   <g transform="matrix(1.56657 0 0 1.28799 -2201.564 1086.464)">
    <path d="m1618.4,-890.85l0,126.36l0.53,0c-0.34,1.01 -0.53,1.98 -0.53,3.02c0,15.23 36.99,27.56 82.67,27.56s82.67,-12.34 82.67,-27.56c0,-1.05 -0.18,-2.01 -0.52,-3.02l0.52,0l0,-126.36l-165.34,0z" fill="url(#svg_13)"/>
    <ellipse cx="286.63" cy="521.78" fill="url(#svg_12)" rx="16.67" ry="5.56" transform="translate(278.63 -3481.3) scale(4.9627)"/>
    <path d="m1618.3,-800.18c0.62,15.05 37.51,27.16 82.8,27.16c45.17,0 81.85,-12.04 82.68,-27.03c-14.5,12.33 -46.02,20.87 -82.68,20.87c-36.72,0 -68.35,-8.63 -82.8,-21z" fill="#3b5d8b"/>
    <path d="m1618.3,-891.51c0.62,15.05 37.51,27.16 82.8,27.16c45.17,0 81.85,-12.04 82.68,-27.03a42.67,42.67 0 0 1 -2.89,2.23c-0.04,0.05 -0.09,0.08 -0.13,0.13c-9.63,11.67 -41.59,20.21 -79.66,20.21c-38.3,0 -70.48,-8.69 -79.91,-20.47c-0.11,-0.07 -0.16,-0.19 -0.26,-0.26c-0.92,-0.67 -1.82,-1.28 -2.63,-1.97z" fill="url(#svg_11)"/>
    <path d="m1618.3,-844.36c0.62,15.05 37.51,27.16 82.8,27.16c45.17,0 81.85,-12.04 82.68,-27.03c-14.5,12.33 -46.02,20.87 -82.68,20.87c-36.72,0 -68.35,-8.63 -82.8,-21z" fill="#3b5d8b"/>
    <path d="m1618.3,-844.36c0.62,15.05 37.51,27.16 82.8,27.16c45.17,0 81.85,-12.04 82.68,-27.03c-0.21,0.18 -0.45,0.35 -0.66,0.53c-5.22,13.55 -39.94,24.01 -82.02,24.01c-42.46,0 -77.55,-10.55 -82.28,-24.28c-0.16,-0.13 -0.36,-0.25 -0.52,-0.39z" fill="url(#svg_10)"/>
    <path d="m1618.3,-800.18c0.62,15.05 37.51,27.16 82.8,27.16c45.17,0 81.85,-12.04 82.68,-27.03c-0.21,0.18 -0.45,0.35 -0.66,0.53c-5.22,13.55 -39.94,24.01 -82.02,24.01c-42.46,0 -77.55,-10.54 -82.28,-24.28c-0.16,-0.13 -0.36,-0.25 -0.52,-0.39z" fill="url(#svg_9)"/>
    <path d="m1618.8,-754.64c4.73,13.73 39.81,24.28 82.28,24.28c42.08,0 76.8,-10.47 82.02,-24.02c-14.77,12.05 -45.9,20.34 -82.02,20.34c-36.32,0 -67.61,-8.45 -82.28,-20.6z" fill="#3b5d8b"/>
   </g>
  </symbol>
 </defs>
 <g class="layer">
  <title>Layer 1</title>
  <use id="svg_8" transform="matrix(0.558236, 0, 0, 0.558236, 0, 0)" x="93.15" xlink:href="#svg_7" y="25.08"/>
  <use id="svg_53" transform="matrix(1.27214, 0, 0, 1.27214, -4082.68, -1744.81)" x="3546.25" xlink:href="#svg_52" y="1402.26"/>
  <g id="svg_57">
   <rect fill="#b2b2b2" height="80" id="svg_54" stroke="#000000" stroke-width="0" width="154" x="208" y="74"/>
   <text fill="#000000" font-family="Monospace" font-size="24" id="svg_55" stroke="#000000" stroke-dasharray="null" stroke-linecap="null" stroke-linejoin="null" stroke-opacity="null" stroke-width="0" text-anchor="middle" x="285" xml:space="preserve" y="121">ALTER ...</text>
   <text fill="#000000" font-family="Monospace" font-size="17" id="svg_56" stroke="#000000" stroke-dasharray="null" stroke-linecap="null" stroke-linejoin="null" stroke-opacity="null" stroke-width="0" text-anchor="middle" x="274" xml:space="preserve" y="71">migration.sql</text>
  </g>
  <text fill="#000000" font-family="Monospace" font-size="17" id="svg_58" stroke="#000000" stroke-dasharray="null" stroke-linecap="null" stroke-linejoin="null" stroke-opacity="null" stroke-width="0" text-anchor="middle" x="105" xml:space="preserve" y="191.25">development</text>
  <text fill="#000000" font-family="Monospace" font-size="17" id="svg_59" stroke="#000000" stroke-dasharray="null" stroke-linecap="null" stroke-linejoin="null" stroke-opacity="null" stroke-width="0" text-anchor="middle" x="521.99" xml:space="preserve" y="192.5">production</text>
 </g>
</svg>