<svg xmlns="http://www.w3.org/2000/svg" width="300" height="100" viewBox="0 80 250 110">
  <g transform="scale(-5.28089) rotate(89.289 217.008 -93.911)">
    <path d="M281.775 150.799a9.027 9.027 0 0 0-9.027 9.027 9.027 9.027 0 0 0 9.027 9.027 9.027 9.027 0 0 0 9.027-9.027 9.027 9.027 0 0 0-9.027-9.027zm0 9.822a3.18 3.18 0 0 1 3.18 3.18 3.18 3.18 0 0 1-3.18 3.18 3.18 3.18 0 0 1-3.181-3.18 3.18 3.18 0 0 1 3.18-3.18z" style="opacity:1;fill:#f4a100;fill-opacity:1;stroke:none;stroke-width:4.03283596;stroke-linecap:round;stroke-linejoin:round;stroke-miterlimit:4;stroke-dasharray:none;stroke-dashoffset:0;stroke-opacity:1;paint-order:markers stroke fill"/><path d="m1045.684 522.823-.049 15.607h39.951v-16.055l-35.96-.313z" style="opacity:1;fill:#f4a100;fill-opacity:1;stroke:none;stroke-width:9.74632359;stroke-linecap:round;stroke-linejoin:round;stroke-miterlimit:4;stroke-dasharray:none;stroke-dashoffset:0;stroke-opacity:1;paint-order:markers stroke fill" transform="matrix(.26458 0 0 .26458 0 11.25)"/><path d="M283.206 150.79a9.027 9.027 0 0 0-9.027 9.027 9.027 9.027 0 0 0 9.027 9.027 9.027 9.027 0 0 0 9.026-9.027 9.027 9.027 0 0 0-9.026-9.027zm0 9.822a3.18 3.18 0 0 1 3.18 3.181 3.18 3.18 0 0 1-3.18 3.18 3.18 3.18 0 0 1-3.181-3.18 3.18 3.18 0 0 1 3.18-3.18z" style="opacity:1;fill:#ffbf3e;fill-opacity:1;stroke:none;stroke-width:4.03283596;stroke-linecap:round;stroke-linejoin:round;stroke-miterlimit:4;stroke-dasharray:none;stroke-dashoffset:0;stroke-opacity:1;paint-order:markers stroke fill"/><path d="M278.091 132.756v3.113l2.283 2.023-2.283 2.315v1.478l1.508 1.06-1.508 1.477v8.079h7.286v-19.545l-2.88-5-.82-.007z" style="opacity:1;fill:#f4a100;fill-opacity:1;stroke:none;stroke-width:3.05690527;stroke-linecap:round;stroke-linejoin:round;stroke-miterlimit:4;stroke-dasharray:none;stroke-dashoffset:0;stroke-opacity:1;paint-order:markers stroke fill"/><rect width="10.571" height="5.145" x="277.733" y="149.387" ry="0" style="opacity:1;fill:#ffbf3e;fill-opacity:1;stroke:none;stroke-width:2.79999995;stroke-linecap:round;stroke-linejoin:round;stroke-miterlimit:4;stroke-dasharray:none;stroke-dashoffset:0;stroke-opacity:1;paint-order:markers stroke fill"/><path d="M279.38 132.253V135.457l2.284 2.082-2.283 2.381v1.522l1.508 1.09-1.508 1.52v5.883l7.286.066v-17.748l-4.17-4.498z" style="opacity:1;fill:#ffbf3e;fill-opacity:1;stroke:none;stroke-width:3.10097575;stroke-linecap:round;stroke-linejoin:round;stroke-miterlimit:4;stroke-dasharray:none;stroke-dashoffset:0;stroke-opacity:1;paint-order:markers stroke fill"/><path d="M285.235 89.292a9.027 9.027 0 0 0-9.027 9.027 9.027 9.027 0 0 0 9.027 9.027 9.027 9.027 0 0 0 9.027-9.027 9.027 9.027 0 0 0-9.027-9.027zm0 9.822a3.18 3.18 0 0 1 3.18 3.18 3.18 3.18 0 0 1-3.18 3.18 3.18 3.18 0 0 1-3.18-3.18 3.18 3.18 0 0 1 3.18-3.18z" style="opacity:1;fill:#f4a100;fill-opacity:1;stroke:none;stroke-width:4.03283596;stroke-linecap:round;stroke-linejoin:round;stroke-miterlimit:4;stroke-dasharray:none;stroke-dashoffset:0;stroke-opacity:1;paint-order:markers stroke fill"/><path d="M279.56 87.94v3.075h10.57v-4.248l-9.514-.083z" style="opacity:1;fill:#f4a100;fill-opacity:1;stroke:none;stroke-width:2.57871485;stroke-linecap:round;stroke-linejoin:round;stroke-miterlimit:4;stroke-dasharray:none;stroke-dashoffset:0;stroke-opacity:1;paint-order:markers stroke fill"/><path d="M286.108 88.095a9.027 9.027 0 0 0-9.027 9.027 9.027 9.027 0 0 0 9.027 9.027 9.027 9.027 0 0 0 9.027-9.027 9.027 9.027 0 0 0-9.027-9.027zm0 9.822a3.18 3.18 0 0 1 3.18 3.181 3.18 3.18 0 0 1-3.18 3.18 3.18 3.18 0 0 1-3.18-3.18 3.18 3.18 0 0 1 3.18-3.18z" style="opacity:1;fill:#ffbf3e;fill-opacity:1;stroke:none;stroke-width:4.03283596;stroke-linecap:round;stroke-linejoin:round;stroke-miterlimit:4;stroke-dasharray:none;stroke-dashoffset:0;stroke-opacity:1;paint-order:markers stroke fill"/><path d="M281.602 70.531v3.113l2.283 2.023-2.283 2.315v1.478l1.508 1.06-1.508 1.476v8.08h7.286V70.53l-4.17-4.37z" style="opacity:1;fill:#f4a100;fill-opacity:1;stroke:none;stroke-width:3.05690527;stroke-linecap:round;stroke-linejoin:round;stroke-miterlimit:4;stroke-dasharray:none;stroke-dashoffset:0;stroke-opacity:1;paint-order:markers stroke fill"/><rect width="10.571" height="5.145" x="280.636" y="86.692" ry="0" style="opacity:1;fill:#ffbf3e;fill-opacity:1;stroke:none;stroke-width:2.79999995;stroke-linecap:round;stroke-linejoin:round;stroke-miterlimit:4;stroke-dasharray:none;stroke-dashoffset:0;stroke-opacity:1;paint-order:markers stroke fill"/><path d="M282.283 69.559v3.203l2.284 2.082-2.284 2.381v1.522l1.508 1.091-1.508 1.519v5.883l7.286.066V69.559L285.4 65.06z" style="opacity:1;fill:#ffbf3e;fill-opacity:1;stroke:none;stroke-width:3.10097575;stroke-linecap:round;stroke-linejoin:round;stroke-miterlimit:4;stroke-dasharray:none;stroke-dashoffset:0;stroke-opacity:1;paint-order:markers stroke fill"/>
  </g>
</svg>
