<?xml version="1.0" encoding="UTF-8" standalone="no"?>
<!-- Generator: Adobe Illustrator 14.0.0, SVG Export Plug-In . SVG Version: 6.00 Build 43363)  -->

<svg
   version="1.1"
   id="svg2"
   inkscape:output_extension="org.inkscape.output.svg.inkscape"
   inkscape:version="1.4.3 (0d15f75, 2025-12-25)"
   sodipodi:docname="prepared.svg"
   sodipodi:version="0.32"
   sodipodi:modified="true"
   x="0px"
   y="0px"
   width="864.75098"
   height="489"
   viewBox="0 -59.873 864.751 489"
   enable-background="new 0 -59.873 864.751 289"
   xml:space="preserve"
   xmlns:inkscape="http://www.inkscape.org/namespaces/inkscape"
   xmlns:sodipodi="http://sodipodi.sourceforge.net/DTD/sodipodi-0.dtd"
   xmlns="http://www.w3.org/2000/svg"
   xmlns:svg="http://www.w3.org/2000/svg"><defs
   id="defs117"><rect
     x="567.70573"
     y="87.883271"
     width="214.15234"
     height="74.751288"
     id="rect5" /><rect
     x="562.65496"
     y="95.964491"
     width="224.25386"
     height="61.619305"
     id="rect4" /></defs>
<sodipodi:namedview
   inkscape:cy="359.10923"
   inkscape:window-y="31"
   inkscape:window-x="0"
   inkscape:window-height="1000"
   inkscape:document-units="px"
   inkscape:window-width="1920"
   showgrid="false"
   inkscape:current-layer="svg2"
   bordercolor="#666666"
   inkscape:pageopacity="0.0"
   objecttolerance="10"
   guidetolerance="10"
   inkscape:cx="448.50773"
   pagecolor="#ffffff"
   inkscape:zoom="0.9899495"
   inkscape:pageshadow="2"
   gridtolerance="10000"
   borderopacity="1.0"
   height="330.51px"
   width="345px"
   id="base"
   inkscape:showpageshadow="2"
   inkscape:pagecheckerboard="0"
   inkscape:deskcolor="#d1d1d1"
   inkscape:window-maximized="0">
	</sodipodi:namedview>












<path
   id="rect10380"
   fill="#ffffff"
   stroke="#000000"
   stroke-linecap="round"
   stroke-linejoin="round"
   d="m 160.12338,93.20161 h 6.387 c 0.05,0 0.091,0.041 0.091,0.091 v 50.626 c 0,0.05 -0.041,0.091 -0.091,0.091 h -6.387 c -0.051,0 -0.092,-0.041 -0.092,-0.091 v -50.627 c 0,-0.05 0.041,-0.09 0.092,-0.09 z" />














<path
   id="rect4110_1_"
   fill="none"
   stroke="#000000"
   stroke-linecap="round"
   stroke-linejoin="round"
   d="m 124.56038,10.28561 h 78.818 c 0.05,0 0.091,0.04 0.091,0.09 v 28.695 c 0,0.05 -0.041,0.09 -0.091,0.09 h -78.818 c -0.051,0 -0.091,-0.041 -0.091,-0.09 v -28.695 c 0,-0.051 0.04,-0.09 0.091,-0.09 z" />
<text
   transform="scale(1.0021477,0.99785691)"
   font-family="MyriadPro-Regular"
   font-size="11.9745px"
   id="text23"
   style="line-height:0%;stroke-width:1.00215"
   x="152.57458"
   y="21.782593">P</text>
<text
   transform="scale(1.0021477,0.99785691)"
   font-family="MyriadPro-Regular"
   font-size="11.9745px"
   id="text24"
   style="line-height:0%;stroke-width:1.00215"
   x="158.94472"
   y="21.782593">H</text>
<text
   transform="scale(1.0021477,0.99785691)"
   font-family="MyriadPro-Regular"
   font-size="11.9745px"
   id="text25"
   style="line-height:0%;stroke-width:1.00215"
   x="166.75214"
   y="21.782593">P</text>
<text
   transform="scale(1.0021477,0.99785691)"
   font-family="MyriadPro-Regular"
   font-size="11.9745px"
   id="text26"
   style="line-height:0%;stroke-width:1.00215"
   x="173.12227"
   y="21.782593"> </text>
<text
   transform="scale(1.0021477,0.99785691)"
   font-family="MyriadPro-Regular"
   font-size="11.9745px"
   id="text27"
   style="line-height:0%;stroke-width:1.00215"
   x="137.73148"
   y="33.756554">P</text>
<text
   transform="scale(1.0021477,0.99785691)"
   font-family="MyriadPro-Regular"
   font-size="11.9745px"
   id="text28"
   style="line-height:0%;stroke-width:1.00215"
   x="143.9106"
   y="33.756554">r</text>
<text
   transform="scale(1.0021477,0.99785691)"
   font-family="MyriadPro-Regular"
   font-size="11.9745px"
   id="text29"
   style="line-height:0%;stroke-width:1.00215"
   x="147.70615"
   y="33.756554">o</text>
<text
   transform="scale(1.0021477,0.99785691)"
   font-family="MyriadPro-Regular"
   font-size="11.9745px"
   id="text30"
   style="line-height:0%;stroke-width:1.00215"
   x="154.27992"
   y="33.756554">g</text>
<text
   transform="scale(1.0021477,0.99785691)"
   font-family="MyriadPro-Regular"
   font-size="11.9745px"
   id="text31"
   style="line-height:0%;stroke-width:1.00215"
   x="160.90141"
   y="33.756554">r</text>
<text
   transform="scale(1.0021477,0.99785691)"
   font-family="MyriadPro-Regular"
   font-size="11.9745px"
   id="text32"
   style="line-height:0%;stroke-width:1.00215"
   x="164.75743"
   y="33.756554">a</text>
<text
   transform="scale(1.0021477,0.99785691)"
   font-family="MyriadPro-Regular"
   font-size="11.9745px"
   id="text33"
   style="line-height:0%;stroke-width:1.00215"
   x="170.52924"
   y="33.756554">m</text>
<text
   transform="scale(1.0021477,0.99785691)"
   font-family="MyriadPro-Regular"
   font-size="11.9745px"
   id="text34"
   style="line-height:0%;stroke-width:1.00215"
   x="180.51558"
   y="33.756554">m</text>









<g
   id="use6182_4_"
   transform="matrix(0.51492553,0,0,2.2814734,1.4318217,-38.401757)">
	<path
   id="path4124_1_"
   inkscape:connector-type="polyline"
   fill="none"
   stroke="#000000"
   stroke-dasharray="2, 2"
   d="m 315.726,33.792 0.155,163.873"
   inkscape:connector-curvature="0" />
</g>











































<g
   id="g84"
   transform="translate(-408.10162,4.0406101)">
	<g
   id="g82">
		<line
   fill="none"
   x1="459"
   y1="90.718002"
   x2="560"
   y2="90.718002"
   id="line81" />
		<path
   fill="#ffffff"
   d="m 566.035,90.718 c -2.84,1.054 -6.363,2.852 -8.547,4.755 l 1.72,-4.755 -1.72,-4.755 c 2.184,1.903 5.707,3.703 8.547,4.755 z"
   id="path81" />
	</g>
	<g
   id="g83">
		<line
   fill="none"
   stroke="#000000"
   x1="459"
   y1="90.718002"
   x2="560"
   y2="90.718002"
   id="line82" />
		<path
   d="m 566.035,90.718 c -2.84,1.054 -6.363,2.852 -8.547,4.755 l 1.72,-4.755 -1.72,-4.755 c 2.184,1.903 5.707,3.703 8.547,4.755 z"
   id="path82" />
	</g>
</g>


<g
   id="g93"
   transform="matrix(1.5661376,0,0,1,-732.70324,9.0913728)">
	<g
   id="g91">
		<line
   fill="none"
   x1="798.18201"
   y1="119.897"
   x2="581.18201"
   y2="119.897"
   id="line90" />
		<path
   fill="#ffffff"
   d="m 575.146,119.897 c 2.84,-1.053 6.362,-2.852 8.547,-4.754 l -1.72,4.754 1.72,4.756 c -2.183,-1.905 -5.707,-3.701 -8.547,-4.756 z"
   id="path90" />
	</g>
	<g
   id="g92">
		<line
   fill="none"
   stroke="#000000"
   stroke-dasharray="5, 3"
   x1="778.53497"
   y1="119.897"
   x2="581.18201"
   y2="119.897"
   id="line91" />
		<path
   d="m 575.146,119.897 c 2.84,-1.053 6.362,-2.852 8.547,-4.754 l -1.72,4.754 1.72,4.756 c -2.183,-1.905 -5.707,-3.701 -8.547,-4.756 z"
   id="path91" />
	</g>
</g>
<g
   id="g96"
   transform="matrix(1.5368433,0,0,1,-706.5124,4.0406101)">
	<g
   id="g94">
		<line
   fill="none"
   x1="555.862"
   y1="102.407"
   x2="771.862"
   y2="102.407"
   id="line93" />
		<path
   fill="#ffffff"
   d="m 777.897,102.407 c -2.84,1.055 -6.363,2.854 -8.547,4.756 l 1.72,-4.756 -1.72,-4.754 c 2.184,1.904 5.708,3.702 8.547,4.754 z"
   id="path93" />
	</g>
	<g
   id="g95">
		<line
   fill="none"
   stroke="#000000"
   x1="575.21198"
   y1="102.408"
   x2="771.862"
   y2="102.407"
   id="line94" />
		<path
   d="m 777.897,102.407 c -2.84,1.055 -6.363,2.854 -8.547,4.756 l 1.72,-4.756 -1.72,-4.754 c 2.184,1.904 5.708,3.702 8.547,4.754 z"
   id="path94" />
	</g>
</g>













<path
   id="rect4110_4_"
   fill="none"
   stroke="#000000"
   stroke-linecap="round"
   stroke-linejoin="round"
   d="m 452.49423,6.2181525 h 78.817 c 0.05,0 0.091,0.04 0.091,0.09 V 35.004152 c 0,0.05 -0.041,0.09 -0.091,0.09 h -78.817 c -0.051,0 -0.09,-0.041 -0.09,-0.09 V 6.3081525 c 0,-0.051 0.039,-0.09 0.09,-0.09 z" />
<g
   id="use6182_5_"
   transform="matrix(0.51958618,0,0,2.2204617,218.97875,-38.66509)">
	<path
   id="path4124_5_"
   inkscape:connector-type="polyline"
   fill="none"
   stroke="#000000"
   stroke-dasharray="2, 2"
   d="m 525.61,33.214 0.154,163.872"
   inkscape:connector-curvature="0" />
</g>
<path
   id="rect10380_4_"
   fill="#ffffff"
   stroke="#000000"
   stroke-linecap="round"
   stroke-linejoin="round"
   d="m 488.94818,46.510873 h 5.91403 c 0.0463,0 0.0843,0.254176 0.0843,0.574865 V 367.84616 c 0,0.31356 -0.038,0.57249 -0.0843,0.57249 h -5.91403 c -0.0472,0 -0.0852,-0.2613 -0.0852,-0.57249 V 47.083363 c 0,-0.318314 0.038,-0.57249 0.0852,-0.57249 z"
   style="stroke-width:1.48344" />

<text
   font-family="MyriadPro-Regular"
   font-size="12px"
   id="text112"
   style="line-height:0%"
   x="472.24509"
   y="102.335" />
<text
   font-family="Arial-BoldMT"
   font-size="21px"
   id="text113"
   style="line-height:0%"
   x="23.75"
   y="-18.872999">Datenbank-Abfrage - mit Prepared Statement</text>

<text
   font-family="MyriadPro-Regular"
   font-size="12px"
   id="text115"
   style="line-height:0%"
   x="459.0842"
   y="24.641953">DB-Server</text>
<text
   font-family="MyriadPro-Regular"
   font-size="12px"
   id="text116"
   style="line-height:0%"
   x="199.83197"
   y="102.85361">DELETE FROM users WHERE id=?</text><text
   font-family="MyriadPro-Regular"
   font-size="12px"
   id="text116-8"
   style="line-height:0%"
   x="194.24944"
   y="240.6554">DELETE FROM users WHERE id=?</text><text
   font-family="MyriadPro-Regular"
   font-size="12px"
   id="text116-29"
   style="line-height:0%"
   x="507.70126"
   y="114.38632">Query Plan für diese Abfrage,</text><text
   font-family="MyriadPro-Regular"
   font-size="12px"
   id="text116-29-5"
   style="line-height:0%"
   x="508.20435"
   y="129.44492">ein Integer fehlt noch</text><text
   font-family="MyriadPro-Regular"
   font-size="12px"
   id="text116-29-9"
   style="line-height:0%"
   x="503.70181"
   y="246.13528">Query Plan für diese Abfrage,</text><text
   font-family="MyriadPro-Regular"
   font-size="12px"
   id="text116-29-5-7"
   style="line-height:0%"
   x="504.2049"
   y="261.19388">ein Integer fehlt noch</text><text
   font-family="MyriadPro-Regular"
   font-size="12px"
   id="text116-29-8"
   style="line-height:0%"
   x="504.7475"
   y="163.7901">Ein Integer erhalten,wird für die Abfrage verwendet</text><text
   font-family="MyriadPro-Regular"
   font-size="12px"
   id="text116-29-8-5"
   style="line-height:0%"
   x="501.69104"
   y="300.68353">kein Integer erhalten,ERROR!</text><text
   font-family="MyriadPro-Regular"
   font-size="12px"
   id="text116-29-8-5-8"
   style="line-height:0%"
   x="110.29034"
   y="326.35583">ERROR</text><text
   font-family="MyriadPro-Regular"
   font-size="12px"
   id="text116-67"
   style="line-height:0%"
   x="81.940674"
   y="89.58149">id=7</text><text
   font-family="MyriadPro-Regular"
   font-size="12px"
   id="text116-6"
   style="line-height:0%"
   x="71.844254"
   y="89.941879" />

<path
   id="path118"
   fill="#ffffff"
   stroke="#000000"
   stroke-linecap="round"
   stroke-linejoin="round"
   d="m 160.26253,93.344766 h 6.10866 c 0.0478,0 0.087,0.07093 0.087,0.157429 v 87.582475 c 0,0.0865 -0.0392,0.15743 -0.087,0.15743 h -6.10866 c -0.0488,0 -0.088,-0.0709 -0.088,-0.15743 V 93.500465 c 0,-0.0865 0.0392,-0.155699 0.088,-0.155699 z"
   style="stroke-width:1.28631" /><g
   id="g121"
   transform="translate(-408.10162,41.416254)">
	<g
   id="g119">
		<line
   fill="none"
   x1="571.034"
   y1="140.248"
   x2="465"
   y2="140.248"
   id="line118" />
		<path
   fill="#ffffff"
   d="m 458.965,140.248 c 2.84,-1.054 6.363,-2.852 8.547,-4.755 l -1.72,4.755 1.72,4.755 c -2.184,-1.904 -5.707,-3.703 -8.547,-4.755 z"
   id="path119" />
	</g>
	<g
   id="g120">
		<line
   fill="none"
   stroke="#000000"
   stroke-dasharray="5, 3"
   x1="571.034"
   y1="140.248"
   x2="465"
   y2="140.248"
   id="line119" />
		<path
   d="m 458.965,140.248 c 2.84,-1.054 6.363,-2.852 8.547,-4.755 l -1.72,4.755 1.72,4.755 c -2.184,-1.904 -5.707,-3.703 -8.547,-4.755 z"
   id="path120" />
	</g>
</g><g
   id="g124"
   transform="translate(-408.10162,4.0406101)">
	<g
   id="g122">
		<line
   fill="none"
   x1="459"
   y1="90.718002"
   x2="560"
   y2="90.718002"
   id="line121" />
		<path
   fill="#ffffff"
   d="m 566.035,90.718 c -2.84,1.054 -6.363,2.852 -8.547,4.755 l 1.72,-4.755 -1.72,-4.755 c 2.184,1.903 5.707,3.703 8.547,4.755 z"
   id="path121" />
	</g>
	<g
   id="g123">
		<line
   fill="none"
   stroke="#000000"
   x1="459"
   y1="90.718002"
   x2="560"
   y2="90.718002"
   id="line122" />
		<path
   d="m 566.035,90.718 c -2.84,1.054 -6.363,2.852 -8.547,4.755 l 1.72,-4.755 -1.72,-4.755 c 2.184,1.903 5.707,3.703 8.547,4.755 z"
   id="path122" />
	</g>
</g><g
   id="g127"
   transform="matrix(1.5661376,0,0,1,-732.70324,9.0913728)">
	<g
   id="g125">
		<line
   fill="none"
   x1="798.18201"
   y1="119.897"
   x2="581.18201"
   y2="119.897"
   id="line124" />
		<path
   fill="#ffffff"
   d="m 575.146,119.897 c 2.84,-1.053 6.362,-2.852 8.547,-4.754 l -1.72,4.754 1.72,4.756 c -2.183,-1.905 -5.707,-3.701 -8.547,-4.756 z"
   id="path124" />
	</g>
	<g
   id="g126">
		<line
   fill="none"
   stroke="#000000"
   stroke-dasharray="5, 3"
   x1="778.53497"
   y1="119.897"
   x2="581.18201"
   y2="119.897"
   id="line125" />
		<path
   d="m 575.146,119.897 c 2.84,-1.053 6.362,-2.852 8.547,-4.754 l -1.72,4.754 1.72,4.756 c -2.183,-1.905 -5.707,-3.701 -8.547,-4.756 z"
   id="path125" />
	</g>
</g><g
   id="g130"
   transform="matrix(1.5368433,0,0,1,-706.5124,4.0406101)">
	<g
   id="g128">
		<line
   fill="none"
   x1="555.862"
   y1="102.407"
   x2="771.862"
   y2="102.407"
   id="line127" />
		<path
   fill="#ffffff"
   d="m 777.897,102.407 c -2.84,1.055 -6.363,2.854 -8.547,4.756 l 1.72,-4.756 -1.72,-4.754 c 2.184,1.904 5.708,3.702 8.547,4.754 z"
   id="path127" />
	</g>
	<g
   id="g129">
		<line
   fill="none"
   stroke="#000000"
   x1="575.21198"
   y1="102.408"
   x2="771.862"
   y2="102.407"
   id="line128" />
		<path
   d="m 777.897,102.407 c -2.84,1.055 -6.363,2.854 -8.547,4.756 l 1.72,-4.756 -1.72,-4.754 c 2.184,1.904 5.708,3.702 8.547,4.754 z"
   id="path128" />
	</g>
</g><text
   font-family="MyriadPro-Regular"
   font-size="12px"
   id="text116-7"
   style="line-height:0%"
   x="195.07664"
   y="153.02592">7</text><g
   id="g130-7"
   transform="matrix(1.5368433,0,0,1,-711.26774,54.212935)">
	<g
   id="g128-0">
		<line
   fill="none"
   x1="555.862"
   y1="102.407"
   x2="771.862"
   y2="102.407"
   id="line127-2" />
		<path
   fill="#ffffff"
   d="m 777.897,102.407 c -2.84,1.055 -6.363,2.854 -8.547,4.756 l 1.72,-4.756 -1.72,-4.754 c 2.184,1.904 5.708,3.702 8.547,4.754 z"
   id="path127-1" />
	</g>
	<g
   id="g129-1">
		<line
   fill="none"
   stroke="#000000"
   x1="575.21198"
   y1="102.408"
   x2="771.862"
   y2="102.407"
   id="line128-4" />
		<path
   d="m 777.897,102.407 c -2.84,1.055 -6.363,2.854 -8.547,4.756 l 1.72,-4.756 -1.72,-4.754 c 2.184,1.904 5.708,3.702 8.547,4.754 z"
   id="path128-3" />
	</g>
</g><text
   font-family="MyriadPro-Regular"
   font-size="12px"
   id="text131"
   style="line-height:0%"
   x="81.940674"
   y="89.58149">id=7</text><g
   id="g127-0"
   transform="matrix(1.5661376,0,0,1,-732.74763,49.349177)">
	<g
   id="g125-1">
		<line
   fill="none"
   x1="798.18201"
   y1="119.897"
   x2="581.18201"
   y2="119.897"
   id="line124-0" />
		<path
   fill="#ffffff"
   d="m 575.146,119.897 c 2.84,-1.053 6.362,-2.852 8.547,-4.754 l -1.72,4.754 1.72,4.756 c -2.183,-1.905 -5.707,-3.701 -8.547,-4.756 z"
   id="path124-5" />
	</g>
	<g
   id="g126-4">
		<line
   fill="none"
   stroke="#000000"
   stroke-dasharray="5, 3"
   x1="778.53497"
   y1="119.897"
   x2="581.18201"
   y2="119.897"
   id="line125-2" />
		<path
   d="m 575.146,119.897 c 2.84,-1.053 6.362,-2.852 8.547,-4.754 l -1.72,4.754 1.72,4.756 c -2.183,-1.905 -5.707,-3.701 -8.547,-4.756 z"
   id="path125-6" />
	</g>
</g><g
   id="g130-7-9"
   transform="matrix(1.5368433,0,0,1,-714.02408,193.40921)">
	<g
   id="g128-0-0">
		<line
   fill="none"
   x1="555.862"
   y1="102.407"
   x2="771.862"
   y2="102.407"
   id="line127-2-5" />
		<path
   fill="#ffffff"
   d="m 777.897,102.407 c -2.84,1.055 -6.363,2.854 -8.547,4.756 l 1.72,-4.756 -1.72,-4.754 c 2.184,1.904 5.708,3.702 8.547,4.754 z"
   id="path127-1-7" />
	</g>
	<g
   id="g129-1-2">
		<line
   fill="none"
   stroke="#000000"
   x1="575.21198"
   y1="102.408"
   x2="771.862"
   y2="102.407"
   id="line128-4-2" />
		<path
   d="m 777.897,102.407 c -2.84,1.055 -6.363,2.854 -8.547,4.756 l 1.72,-4.756 -1.72,-4.754 c 2.184,1.904 5.708,3.702 8.547,4.754 z"
   id="path128-3-0" />
	</g>
</g><g
   id="g127-0-1"
   transform="matrix(1.5661376,0,0,1,-735.50397,188.54545)">
	<g
   id="g125-1-5">
		<line
   fill="none"
   x1="798.18201"
   y1="119.897"
   x2="581.18201"
   y2="119.897"
   id="line124-0-0" />
		<path
   fill="#ffffff"
   d="m 575.146,119.897 c 2.84,-1.053 6.362,-2.852 8.547,-4.754 l -1.72,4.754 1.72,4.756 c -2.183,-1.905 -5.707,-3.701 -8.547,-4.756 z"
   id="path124-5-5" />
	</g>
	<g
   id="g126-4-6">
		<line
   fill="none"
   stroke="#000000"
   stroke-dasharray="5, 3"
   x1="778.53497"
   y1="119.897"
   x2="581.18201"
   y2="119.897"
   id="line125-2-4" />
		<path
   d="m 575.146,119.897 c 2.84,-1.053 6.362,-2.852 8.547,-4.754 l -1.72,4.754 1.72,4.756 c -2.183,-1.905 -5.707,-3.701 -8.547,-4.756 z"
   id="path125-6-5" />
	</g>
</g><text
   font-family="MyriadPro-Regular"
   font-size="12px"
   id="text132-7-2"
   style="line-height:0%"
   x="299.39474"
   y="304.12469" /><path
   id="rect10380-0"
   fill="#ffffff"
   stroke="#000000"
   stroke-linecap="round"
   stroke-linejoin="round"
   d="m 157.60858,232.12713 h 6.00436 c 0.047,0 0.0855,0.0847 0.0855,0.18799 v 104.58666 c 0,0.10329 -0.0385,0.18799 -0.0855,0.18799 h -6.00436 c -0.0479,0 -0.0865,-0.0847 -0.0865,-0.18799 V 232.31306 c 0,-0.1033 0.0385,-0.18593 0.0865,-0.18593 z"
   style="stroke-width:1.39359" /><g
   id="g54-0"
   transform="translate(-412.82802,194.28711)">
	<g
   id="g52-8">
		<line
   fill="none"
   x1="571.034"
   y1="140.248"
   x2="465"
   y2="140.248"
   id="line52-0" />
		<path
   fill="#ffffff"
   d="m 458.965,140.248 c 2.84,-1.054 6.363,-2.852 8.547,-4.755 l -1.72,4.755 1.72,4.755 c -2.184,-1.904 -5.707,-3.703 -8.547,-4.755 z"
   id="path52-4" />
	</g>
	<g
   id="g53-7">
		<line
   fill="none"
   stroke="#000000"
   stroke-dasharray="5, 3"
   x1="571.034"
   y1="140.248"
   x2="465"
   y2="140.248"
   id="line53-6" />
		<path
   d="m 458.965,140.248 c 2.84,-1.054 6.363,-2.852 8.547,-4.755 l -1.72,4.755 1.72,4.755 c -2.184,-1.904 -5.707,-3.703 -8.547,-4.755 z"
   id="path53-1" />
	</g>
</g><g
   id="g84-6"
   transform="translate(-410.80771,142.76933)">
	<g
   id="g82-1">
		<line
   fill="none"
   x1="459"
   y1="90.718002"
   x2="560"
   y2="90.718002"
   id="line81-4" />
		<path
   fill="#ffffff"
   d="m 566.035,90.718 c -2.84,1.054 -6.363,2.852 -8.547,4.755 l 1.72,-4.755 -1.72,-4.755 c 2.184,1.903 5.707,3.703 8.547,4.755 z"
   id="path81-9" />
	</g>
	<g
   id="g83-6">
		<line
   fill="none"
   stroke="#000000"
   x1="459"
   y1="90.718002"
   x2="560"
   y2="90.718002"
   id="line82-4" />
		<path
   d="m 566.035,90.718 c -2.84,1.054 -6.363,2.852 -8.547,4.755 l 1.72,-4.755 -1.72,-4.755 c 2.184,1.903 5.707,3.703 8.547,4.755 z"
   id="path82-2" />
	</g>
</g><g
   id="g93-8"
   transform="matrix(1.5661376,0,0,1,-735.40933,147.82009)">
	<g
   id="g91-4">
		<line
   fill="none"
   x1="798.18201"
   y1="119.897"
   x2="581.18201"
   y2="119.897"
   id="line90-4" />
		<path
   fill="#ffffff"
   d="m 575.146,119.897 c 2.84,-1.053 6.362,-2.852 8.547,-4.754 l -1.72,4.754 1.72,4.756 c -2.183,-1.905 -5.707,-3.701 -8.547,-4.756 z"
   id="path90-9" />
	</g>
	<g
   id="g92-8">
		<line
   fill="none"
   stroke="#000000"
   stroke-dasharray="5, 3"
   x1="778.53497"
   y1="119.897"
   x2="581.18201"
   y2="119.897"
   id="line91-1" />
		<path
   d="m 575.146,119.897 c 2.84,-1.053 6.362,-2.852 8.547,-4.754 l -1.72,4.754 1.72,4.756 c -2.183,-1.905 -5.707,-3.701 -8.547,-4.756 z"
   id="path91-0" />
	</g>
</g><g
   id="g96-3"
   transform="matrix(1.5368433,0,0,1,-709.21849,142.76933)">
	<g
   id="g94-7">
		<line
   fill="none"
   x1="555.862"
   y1="102.407"
   x2="771.862"
   y2="102.407"
   id="line93-4" />
		<path
   fill="#ffffff"
   d="m 777.897,102.407 c -2.84,1.055 -6.363,2.854 -8.547,4.756 l 1.72,-4.756 -1.72,-4.754 c 2.184,1.904 5.708,3.702 8.547,4.754 z"
   id="path93-3" />
	</g>
	<g
   id="g95-4">
		<line
   fill="none"
   stroke="#000000"
   x1="575.21198"
   y1="102.408"
   x2="771.862"
   y2="102.407"
   id="line94-8" />
		<path
   d="m 777.897,102.407 c -2.84,1.055 -6.363,2.854 -8.547,4.756 l 1.72,-4.756 -1.72,-4.754 c 2.184,1.904 5.708,3.702 8.547,4.754 z"
   id="path94-1" />
	</g>
</g><text
   font-family="MyriadPro-Regular"
   font-size="12px"
   id="text116-67-8"
   style="line-height:0%"
   x="54.990929"
   y="227.30005">id=9 OR 1%3D1</text><text
   font-family="MyriadPro-Regular"
   font-size="12px"
   id="text116-67-8-5"
   style="line-height:0%"
   x="178.96956"
   y="292.91425">9 OR 1%3D1</text><text
   xml:space="preserve"
   transform="translate(0,-59.873)"
   id="text4"
   style="fill:#ffffff;stroke-width:3;-inkscape-font-specification:Sans;font-family:Sans;font-size:18.66666667px;opacity:0.99;stroke:#010000;stroke-opacity:0.99675852;text-orientation:auto;writing-mode:lr-tb;direction:ltr;white-space:pre;shape-inside:url(#rect4)" /></svg>
