<?xml version="1.0" encoding="UTF-8" standalone="no"?>
<svg
   width="800"
   height="240"
   preserveAspectRatio="xMinYMin"
   viewBox="0 -183.5 512 153.6"
   version="1.1"
   id="svg4"
   sodipodi:docname="nodejs-logo.svg"
   inkscape:version="1.3.2 (091e20e, 2023-11-25)"
   xmlns:inkscape="http://www.inkscape.org/namespaces/inkscape"
   xmlns:sodipodi="http://sodipodi.sourceforge.net/DTD/sodipodi-0.dtd"
   xmlns="http://www.w3.org/2000/svg"
   xmlns:svg="http://www.w3.org/2000/svg">
  <defs
     id="defs4" />
  <sodipodi:namedview
     id="namedview4"
     pagecolor="#ffffff"
     bordercolor="#000000"
     borderopacity="0.25"
     inkscape:showpageshadow="2"
     inkscape:pageopacity="0.0"
     inkscape:pagecheckerboard="0"
     inkscape:deskcolor="#d1d1d1"
     inkscape:zoom="0.295"
     inkscape:cx="400"
     inkscape:cy="400"
     inkscape:window-width="1344"
     inkscape:window-height="773"
     inkscape:window-x="0"
     inkscape:window-y="25"
     inkscape:window-maximized="0"
     inkscape:current-layer="svg4" />
  <g
     fill="#83cd29"
     id="g2"
     transform="translate(2.1694915,-180.0678)">
    <path
       d="m 471.05,51.611 c -1.244,0 -2.454,0.257 -3.525,0.863 l -33.888,19.57 c -2.193,1.264 -3.526,3.65 -3.526,6.189 v 39.069 c 0,2.537 1.333,4.92 3.526,6.187 l 8.85,5.109 c 4.3,2.119 5.885,2.086 7.842,2.086 6.366,0 10.001,-3.863 10.001,-10.576 V 81.542 c 0,-0.545 -0.472,-0.935 -1.007,-0.935 h -4.245 c -0.544,0 -1.007,0.39 -1.007,0.935 v 38.566 c 0,2.975 -3.1,5.968 -8.13,3.453 l -9.21,-5.396 c -0.326,-0.177 -0.576,-0.49 -0.576,-0.863 v -39.07 c 0,-0.37 0.247,-0.747 0.576,-0.935 L 470.547,57.8 a 0.998,0.998 0 0 1 1.007,0 l 33.817,19.498 c 0.322,0.194 0.576,0.553 0.576,0.936 v 39.069 c 0,0.373 -0.188,0.755 -0.504,0.935 l -33.889,19.498 c -0.29,0.173 -0.69,0.173 -1.007,0 l -8.706,-5.18 a 0.905,0.905 0 0 0 -0.863,0 c -2.403,1.362 -2.855,1.52 -5.109,2.302 -0.555,0.194 -1.398,0.495 0.288,1.44 l 11.368,6.69 a 6.995,6.995 0 0 0 3.526,0.936 6.949,6.949 0 0 0 3.525,-0.935 l 33.889,-19.499 c 2.193,-1.275 3.525,-3.65 3.525,-6.187 v -39.07 c 0,-2.538 -1.332,-4.92 -3.525,-6.187 l -33.889,-19.57 c -1.062,-0.607 -2.28,-0.864 -3.525,-0.864 z"
       id="path1" />
    <path
       d="m 480.116,79.528 c -9.65,0 -15.397,4.107 -15.397,10.937 0,7.408 5.704,9.444 14.966,10.36 11.08,1.085 11.943,2.712 11.943,4.893 0,3.783 -3.016,5.396 -10.144,5.396 -8.957,0 -10.925,-2.236 -11.584,-6.691 -0.078,-0.478 -0.447,-0.864 -0.936,-0.864 h -4.389 c -0.54,0 -1.007,0.466 -1.007,1.008 0,5.703 3.102,12.447 17.916,12.447 10.723,0 16.908,-4.209 16.908,-11.584 0,-7.31 -4.996,-9.273 -15.398,-10.648 -10.51,-1.391 -11.512,-2.072 -11.512,-4.533 0,-2.032 0.85,-4.75 8.634,-4.75 6.954,0 9.524,1.5 10.577,6.189 0.092,0.44 0.48,0.791 0.935,0.791 h 4.39 c 0.27,0 0.532,-0.166 0.719,-0.36 0.184,-0.207 0.314,-0.44 0.288,-0.719 -0.68,-8.074 -6.064,-11.872 -16.909,-11.872 z"
       id="path2" />
  </g>
  <path
     fill="#404137"
     d="m 273.99049,-179.6848 a 2.181,2.181 0 0 0 -1.08,0.287 2.18,2.18 0 0 0 -1.079,1.871 v 55.042 c 0,0.54 -0.251,1.024 -0.719,1.295 a 1.501,1.501 0 0 1 -1.511,0 l -8.994,-5.18 a 4.31,4.31 0 0 0 -4.317,0 l -35.903,20.721 c -1.342,0.775 -2.158,2.264 -2.158,3.814 v 41.443003 c 0,1.548 0.817,2.966 2.158,3.741 l 35.903,20.722 a 4.3,4.3 0 0 0 4.317,0 l 35.903,-20.722 a 4.308,4.308 0 0 0 2.159,-3.741 V -163.7118 a 4.386,4.386 0 0 0 -2.23,-3.814 l -21.37,-11.944 c -0.335,-0.187 -0.707,-0.22 -1.079,-0.215 z m -230.959998,51.732 c -0.684,0.027 -1.328,0.147 -1.942,0.503 l -35.9040005,20.722 a 4.3,4.3 0 0 0 -2.158,3.741 l 0.072,55.619003 c 0,0.773 0.399,1.492 1.079,1.87 a 2.096,2.096 0 0 0 2.159,0 l 21.2970005,-12.231 c 1.349,-0.802 2.23,-2.196 2.23,-3.742 v -25.974 c 0,-1.55 0.815,-2.972 2.159,-3.742 l 9.065,-5.252 a 4.251,4.251 0 0 1 2.159,-0.576 c 0.74,0 1.5,0.185 2.158,0.576 l 9.066,5.252 a 4.296,4.296 0 0 1 2.159,3.742 v 25.973 c 0,1.546 0.89,2.95 2.23,3.742 l 21.297,12.232 a 2.096,2.096 0 0 0 2.159,0 2.164,2.164 0 0 0 1.08,-1.871 l 0.07,-55.618003 a 4.28,4.28 0 0 0 -2.158,-3.741 l -35.903,-20.722 c -0.607,-0.356 -1.253,-0.475 -1.942,-0.503 z m 322.623998,0.503 c -0.75,0 -1.485,0.19 -2.158,0.576 l -35.903,20.722 a 4.306,4.306 0 0 0 -2.159,3.741 v 41.443003 c 0,1.559 0.878,2.971 2.23,3.742 l 35.616,20.29 c 1.315,0.75 2.921,0.807 4.245,0.07 l 21.585,-12.015 c 0.685,-0.38 1.148,-1.09 1.151,-1.87 a 2.126,2.126 0 0 0 -1.079,-1.871 l -36.119,-20.722 c -0.676,-0.386 -1.151,-1.167 -1.151,-1.943 v -12.95 c 0,-0.775 0.48,-1.485 1.151,-1.871 l 11.224,-6.476 a 2.155,2.155 0 0 1 2.159,0 l 11.223,6.476 a 2.152,2.152 0 0 1 1.08,1.87 v 10.217 a 2.15,2.15 0 0 0 1.079,1.87 c 0.673,0.389 1.487,0.39 2.158,0 l 21.514,-12.517 a 4.325,4.325 0 0 0 2.159,-3.742 V -102.4098 c 0,-1.545 -0.82,-2.966 -2.159,-3.742 l -35.687,-20.722 a 4.279,4.279 0 0 0 -2.159,-0.575 z m -107.35,30.939003 c 0.188,0 0.408,0.046 0.576,0.143 l 12.304,7.123 c 0.334,0.193 0.576,0.55 0.576,0.935 v 14.246 c 0,0.387 -0.24,0.743 -0.576,0.936 l -12.304,7.123 a 1.088,1.088 0 0 1 -1.079,0 l -12.303,-7.123 c -0.335,-0.194 -0.576,-0.549 -0.576,-0.936 v -14.246 c 0,-0.386 0.242,-0.74 0.576,-0.935 l 12.303,-7.122 a 0.948,0.948 0 0 1 0.504,-0.143 v -10e-4 z"
     id="path3" />
  <path
     fill="#83cd29"
     d="m 150.88349,-127.6658 c -0.748,0 -1.488,0.19 -2.158,0.576 l -35.903,20.65 c -1.343,0.773 -2.159,2.265 -2.159,3.813 v 41.443003 c 0,1.55 0.817,2.966 2.159,3.742 l 35.903,20.721 a 4.297,4.297 0 0 0 4.317,0 l 35.903,-20.721 a 4.308,4.308 0 0 0 2.158,-3.742 V -102.6268 c 0,-1.55 -0.816,-3.04 -2.158,-3.813 l -35.903,-20.65 a 4.297,4.297 0 0 0 -2.159,-0.576 z m 214.699,36.983003 c -0.143,0 -0.302,0 -0.431,0.072 l -6.907,4.029 a 0.84,0.84 0 0 0 -0.432,0.72 v 7.914 a 0.84,0.84 0 0 0 0.432,0.72 l 6.907,3.957 c 0.259,0.15 0.535,0.15 0.791,0 l 6.907,-3.958 a 0.846,0.846 0 0 0 0.432,-0.719 v -7.915 a 0.846,0.846 0 0 0 -0.432,-0.719 l -6.907,-4.03 c -0.128,-0.075 -0.216,-0.07 -0.36,-0.07 z"
     id="path4" />
</svg>
