<?xml version="1.0" encoding="UTF-8" standalone="no"?>
<!-- Generator: Adobe Illustrator 14.0.0, SVG Export Plug-In . SVG Version: 6.00 Build 43363)  -->

<svg
   xmlns:dc="http://purl.org/dc/elements/1.1/"
   xmlns:cc="http://creativecommons.org/ns#"
   xmlns:rdf="http://www.w3.org/1999/02/22-rdf-syntax-ns#"
   xmlns:svg="http://www.w3.org/2000/svg"
   xmlns="http://www.w3.org/2000/svg"
   xmlns:sodipodi="http://sodipodi.sourceforge.net/DTD/sodipodi-0.dtd"
   xmlns:inkscape="http://www.inkscape.org/namespaces/inkscape"
   version="1.1"
   id="svg2"
   sodipodi:modified="true"
   sodipodi:docname="php-sequence-diagram.svg"
   inkscape:version="0.92.2 5c3e80d, 2017-08-06"
   sodipodi:version="0.32"
   inkscape:output_extension="org.inkscape.output.svg.inkscape"
   x="0px"
   y="0px"
   width="736.5px"
   height="365.254px"
   viewBox="0 0 736.5 365.254"
   enable-background="new 0 0 736.5 365.254"
   xml:space="preserve"><metadata
     id="metadata512"><rdf:RDF><cc:Work
         rdf:about=""><dc:format>image/svg+xml</dc:format><dc:type
           rdf:resource="http://purl.org/dc/dcmitype/StillImage" /></cc:Work></rdf:RDF></metadata><defs
     id="defs510" /><sodipodi:namedview
     inkscape:zoom="6.4517149"
     bordercolor="#666666"
     borderopacity="1.0"
     gridtolerance="10000"
     inkscape:pageshadow="2"
     guidetolerance="10"
     objecttolerance="10"
     inkscape:pageopacity="0.0"
     pagecolor="#ffffff"
     inkscape:cx="210.12877"
     inkscape:current-layer="svg2"
     showgrid="false"
     inkscape:window-width="1280"
     inkscape:document-units="px"
     inkscape:window-height="756"
     inkscape:window-x="0"
     inkscape:window-y="1"
     inkscape:cy="342.11717"
     id="base"
     width="345px"
     height="330.51px"
     inkscape:window-maximized="0" /><path
     id="rect2160"
     fill="none"
     stroke="#000000"
     stroke-linecap="round"
     stroke-linejoin="round"
     d="M157.662,6.25h78.818  c0.05,0,0.091,0.041,0.091,0.091v28.818c0,0.05-0.041,0.091-0.091,0.091h-78.818c-0.05,0-0.091-0.041-0.091-0.091V6.339  C157.571,6.29,157.612,6.25,157.662,6.25z" /><text
     font-size="12"
     id="text4"
     style="font-size:12px;line-height:0%;font-family:MyriadPro-Regular"
     x="160.5"
     y="24.2188">Webbrowser</text>
<path
     id="path4124"
     inkscape:connector-type="polyline"
     d="m 197.071,35.619 0.155,313.857"
     inkscape:connector-curvature="0"
     style="fill:none;stroke:#000000;stroke-dasharray:2, 2" /><path
     id="rect10380"
     fill="#FFFFFF"
     stroke="#000000"
     stroke-linecap="round"
     stroke-linejoin="round"
     d="M568.225,89.161h6.386  c0.05,0,0.091,0.041,0.091,0.091v50.626c0,0.05-0.041,0.091-0.091,0.091h-6.386c-0.051,0-0.092-0.041-0.092-0.091V89.251  C568.133,89.201,568.174,89.161,568.225,89.161z" /><path
     id="rect4110"
     fill="none"
     stroke="#000000"
     stroke-linecap="round"
     stroke-linejoin="round"
     d="M414.396,5.208h78.818  c0.05,0,0.091,0.04,0.091,0.09v28.696c0,0.05-0.041,0.09-0.091,0.09h-78.818c-0.051,0-0.09-0.041-0.09-0.09V5.298  C414.307,5.247,414.346,5.208,414.396,5.208z" /><text
     transform="translate(293,67.7188)"
     font-size="12"
     id="text27"
     style="font-size:12px;line-height:0%;font-family:MyriadPro-Regular">HTTP Request</text>
<text
     transform="translate(319.5918,67.7188)"
     font-size="12"
     id="text35"
     style="font-size:12px;font-family:MyriadPro-Regular" />
<path
     id="rect10380_1_"
     fill="#FFFFFF"
     stroke="#000000"
     stroke-linecap="round"
     stroke-linejoin="round"
     d="M193.615,42.771h6.384  c0.05,0,0.091,0.221,0.091,0.494v275.529c0,0.271-0.041,0.494-0.091,0.494h-6.384c-0.051,0-0.092-0.223-0.092-0.494V43.264  C193.523,42.991,193.564,42.771,193.615,42.771z" /><path
     id="rect4110_1_"
     fill="none"
     stroke="#000000"
     stroke-linecap="round"
     stroke-linejoin="round"
     d="M532.662,6.245h78.818  c0.05,0,0.091,0.04,0.091,0.09V35.03c0,0.05-0.041,0.09-0.091,0.09h-78.818c-0.051,0-0.091-0.041-0.091-0.09V6.335  C532.571,6.284,532.611,6.245,532.662,6.245z" /><text
     transform="matrix(1.0043,0,0,1,561.0039,17.6953)"
     font-size="11.9488"
     id="text53"
     style="font-size:11.94880009px;line-height:0%;font-family:MyriadPro-Regular">PHP</text>
<text
     transform="matrix(1.0043,0,0,1,581.5957,17.6953)"
     font-size="11.9488"
     id="text59"
     style="font-size:11.94880009px;font-family:MyriadPro-Regular" />
<text
     transform="matrix(1.0043,0,0,1,546.1289,29.6436)"
     font-size="11.9488"
     id="text61"
     style="font-size:11.94880009px;line-height:0%;font-family:MyriadPro-Regular">Programm</text>
<path
     id="rect4110_3_"
     fill="none"
     stroke="#000000"
     stroke-linecap="round"
     stroke-linejoin="round"
     d="M24.091,5.208h78.818  c0.05,0,0.091,0.041,0.091,0.09v28.695c0,0.05-0.041,0.091-0.091,0.091H24.091c-0.051,0-0.091-0.041-0.091-0.091V5.297  C24,5.248,24.04,5.208,24.091,5.208z" /><text
     transform="scale(1.0021477,0.99785691)"
     font-size="11.9488"
     id="text78"
     style="font-size:11.97446251px;line-height:0%;font-family:MyriadPro-Regular;stroke-width:1.00214767"
     x="38.327885"
     y="23.689468">Mensch</text>
<path
     id="rect4110_2_"
     fill="none"
     stroke="#000000"
     stroke-linecap="round"
     stroke-linejoin="round"
     d="M642.091,6.712h78.818  c0.05,0,0.091,0.041,0.091,0.09v28.695c0,0.05-0.041,0.091-0.091,0.091h-78.818c-0.051,0-0.091-0.041-0.091-0.091V6.802  C642,6.752,642.04,6.712,642.091,6.712z" /><g
     id="use6182_2_"
     transform="translate(256.34516,0.8611366)"><path
       id="path4124_3_"
       inkscape:connector-type="polyline"
       d="m -193.287,33.372 0.154,318.345"
       inkscape:connector-curvature="0"
       style="fill:none;stroke:#000000;stroke-dasharray:2, 2" /></g><g
     id="use6182_4_"
     transform="translate(256.34516,0.8611366)"><path
       id="path4124_1_"
       inkscape:connector-type="polyline"
       d="m 315.726,34.336 0.155,318.345"
       inkscape:connector-curvature="0"
       style="fill:none;stroke:#000000;stroke-dasharray:2, 2" /></g><g
     id="use6182_1_"
     transform="translate(256.34516,0.8611366)"><path
       id="path4124_2_"
       inkscape:connector-type="polyline"
       d="m 424.572,34.989 0.154,318.345"
       inkscape:connector-curvature="0"
       style="fill:none;stroke:#000000;stroke-dasharray:2, 2" /></g><g
     id="use6182_3_"
     transform="translate(256.34516,0.8611366)"><path
       id="path4124_4_"
       inkscape:connector-type="polyline"
       d="m 197.598,33.214 0.154,318.345"
       inkscape:connector-curvature="0"
       style="fill:none;stroke:#000000;stroke-dasharray:2, 2" /></g><text
     transform="matrix(1.0043,0,0,1,666.9346,18.1621)"
     font-size="11.9488"
     id="text99"
     style="font-size:11.94880009px;line-height:0%;font-family:MyriadPro-Regular">Datei-</text>
<text
     transform="matrix(1.0043,0,0,1,663.9639,30.1104)"
     font-size="11.9488"
     id="text111"
     style="font-size:11.94880009px;line-height:0%;font-family:MyriadPro-Regular">System</text>
<path
     id="rect10380_2_"
     fill="#FFFFFF"
     stroke="#000000"
     stroke-linecap="round"
     stroke-linejoin="round"
     d="M450.615,48.771h6.384  c0.05,0,0.091,0.215,0.091,0.482v268.982c0,0.264-0.041,0.481-0.091,0.481h-6.384c-0.051,0-0.092-0.219-0.092-0.481V49.253  C450.523,48.985,450.564,48.771,450.615,48.771z" /><g
     id="g136"><g
       id="g128"><line
         fill="none"
         x1="571.034"
         y1="140.248"
         x2="465"
         y2="140.248"
         id="line124" /><path
         fill="#FFFFFF"
         d="M458.965,140.248c2.84-1.054,6.363-2.852,8.547-4.755l-1.72,4.755l1.72,4.755    C465.328,143.099,461.805,141.3,458.965,140.248z"
         id="path126" /></g><g
       id="g134"><line
         fill="none"
         stroke="#000000"
         stroke-dasharray="5,3"
         x1="571.034"
         y1="140.248"
         x2="465"
         y2="140.248"
         id="line130" /><path
         d="M458.965,140.248c2.84-1.054,6.363-2.852,8.547-4.755l-1.72,4.755l1.72,4.755    C465.328,143.099,461.805,141.3,458.965,140.248z"
         id="path132" /></g></g><text
     transform="translate(262,147.7188)"
     font-size="12"
     id="text138"
     style="font-size:12px;line-height:0%;font-family:MyriadPro-Regular">HTTP Response (inkl. HTML)</text>
<text
     transform="translate(288.5918,147.7188)"
     font-size="12"
     id="text146"
     style="font-size:12px;font-family:MyriadPro-Regular" />
<text
     transform="translate(339.2422,147.7188)"
     font-size="12"
     id="text164"
     style="font-size:12px;font-family:MyriadPro-Regular" />
<text
     transform="translate(362.9424,147.7188)"
     font-size="12"
     id="text176"
     style="font-size:12px;font-family:MyriadPro-Regular" />
<text
     transform="translate(500,137.7188)"
     font-size="12"
     id="text188"
     style="font-size:12px;line-height:0%;font-family:MyriadPro-Regular">HTML</text>
<g
     id="g202"><g
       id="g194"><line
         fill="none"
         x1="680"
         y1="280.717"
         x2="463"
         y2="280.717"
         id="line190" /><path
         fill="#FFFFFF"
         d="M456.965,280.717c2.84-1.053,6.363-2.852,8.547-4.754l-1.72,4.754l1.72,4.756    C463.328,283.568,459.805,281.771,456.965,280.717z"
         id="path192" /></g><g
       id="g200"><line
         fill="none"
         stroke="#000000"
         stroke-dasharray="5,3"
         x1="680"
         y1="280.717"
         x2="463"
         y2="280.717"
         id="line196" /><path
         d="M456.965,280.717c2.84-1.053,6.363-2.852,8.547-4.754l-1.72,4.754l1.72,4.756    C463.328,283.568,459.805,281.771,456.965,280.717z"
         id="path198" /></g></g><text
     transform="translate(526,276.7188)"
     font-size="12"
     id="text204"
     style="font-size:12px;line-height:0%;font-family:MyriadPro-Regular">CSS</text>
<g
     id="g218"><g
       id="g210"><line
         fill="none"
         x1="679.65"
         y1="83.962"
         x2="462.65"
         y2="83.962"
         id="line206" /><path
         fill="#FFFFFF"
         d="M456.615,83.962c2.84-1.053,6.363-2.852,8.547-4.754l-1.72,4.754l1.72,4.756    C462.979,86.813,459.455,85.017,456.615,83.962z"
         id="path208" /></g><g
       id="g216"><line
         fill="none"
         stroke="#000000"
         stroke-dasharray="5,3"
         x1="679.65"
         y1="83.962"
         x2="462.65"
         y2="83.962"
         id="line212" /><path
         d="M456.615,83.962c2.84-1.053,6.363-2.852,8.547-4.754l-1.72,4.754l1.72,4.756    C462.979,86.813,459.455,85.017,456.615,83.962z"
         id="path214" /></g></g><g
     id="g232"><g
       id="g224"><line
         fill="none"
         x1="459"
         y1="90.718"
         x2="560"
         y2="90.718"
         id="line220" /><path
         fill="#FFFFFF"
         d="M566.035,90.718c-2.84,1.054-6.363,2.852-8.547,4.755l1.72-4.755l-1.72-4.755    C559.672,87.866,563.195,89.666,566.035,90.718z"
         id="path222" /></g><g
       id="g230"><line
         fill="none"
         stroke="#000000"
         x1="459"
         y1="90.718"
         x2="560"
         y2="90.718"
         id="line226" /><path
         d="M566.035,90.718c-2.84,1.054-6.363,2.852-8.547,4.755l1.72-4.755l-1.72-4.755    C559.672,87.866,563.195,89.666,566.035,90.718z"
         id="path228" /></g></g><g
     id="g246"><g
       id="g238"><line
         fill="none"
         x1="200"
         y1="72.718"
         x2="444"
         y2="72.718"
         id="line234" /><path
         fill="#FFFFFF"
         d="M450.035,72.718c-2.84,1.054-6.363,2.852-8.547,4.755l1.72-4.755l-1.72-4.755    C443.672,69.866,447.195,71.666,450.035,72.718z"
         id="path236" /></g><g
       id="g244"><line
         fill="none"
         stroke="#000000"
         x1="200"
         y1="72.718"
         x2="444"
         y2="72.718"
         id="line240" /><path
         d="M450.035,72.718c-2.84,1.054-6.363,2.852-8.547,4.755l1.72-4.755l-1.72-4.755    C443.672,69.866,447.195,71.666,450.035,72.718z"
         id="path242" /></g></g><text
     style="font-size:12px;line-height:0%;font-family:MyriadPro-Regular"
     id="text248"
     font-size="12"
     x="526"
     y="233.7188">Lesen</text>
<g
     id="g270"
     transform="translate(0,4)"><g
       id="g262"><line
         style="fill:none"
         id="line258"
         y2="233.717"
         x2="674"
         y1="233.717"
         x1="458" /><path
         style="fill:#ffffff"
         inkscape:connector-curvature="0"
         id="path260"
         d="m 680.035,233.717 c -2.84,1.055 -6.363,2.854 -8.547,4.756 l 1.72,-4.756 -1.72,-4.754 c 2.184,1.903 5.707,3.702 8.547,4.754 z" /></g><g
       id="g268"><line
         style="fill:none;stroke:#000000"
         id="line264"
         y2="233.717"
         x2="674"
         y1="233.717"
         x1="458" /><path
         inkscape:connector-curvature="0"
         id="path266"
         d="m 680.035,233.717 c -2.84,1.055 -6.363,2.854 -8.547,4.756 l 1.72,-4.756 -1.72,-4.754 c 2.184,1.903 5.707,3.702 8.547,4.754 z" /></g></g><g
     id="g286"><g
       id="g278"><line
         fill="none"
         x1="458.331"
         y1="77.472"
         x2="674.331"
         y2="77.472"
         id="line274" /><path
         fill="#FFFFFF"
         d="M680.366,77.472c-2.84,1.055-6.363,2.854-8.547,4.756l1.72-4.756l-1.72-4.754    C674.003,74.622,677.526,76.42,680.366,77.472z"
         id="path276" /></g><g
       id="g284"><line
         fill="none"
         stroke="#000000"
         x1="458.331"
         y1="77.472"
         x2="674.331"
         y2="77.472"
         id="line280" /><path
         d="M680.366,77.472c-2.84,1.055-6.363,2.854-8.547,4.756l1.72-4.756l-1.72-4.754    C674.003,74.622,677.526,76.42,680.366,77.472z"
         id="path282" /></g></g><text
     font-size="12"
     id="text288"
     style="font-size:12px;line-height:0%;font-family:MyriadPro-Regular"
     x="108"
     y="52.7188">Klick</text>
<text
     font-size="12"
     id="text298"
     style="font-size:12px;line-height:0%;font-family:MyriadPro-Regular"
     x="132.32201"
     y="178.25992">HTML</text>
<text
     transform="translate(166.2036,205.7188)"
     font-size="12"
     id="text310"
     style="font-size:12px;font-family:MyriadPro-Regular" />
<text
     font-size="12"
     id="text314"
     style="font-size:12px;line-height:0%;font-family:MyriadPro-Regular"
     x="131.64401"
     y="220.7971">Darstellen</text>
<text
     transform="translate(132,304.7188)"
     font-size="12"
     id="text336"
     style="font-size:12px;line-height:0%;font-family:MyriadPro-Regular">Darstellens</text>
<g
     id="g370"><g
       id="g362"><line
         fill="none"
         x1="67"
         y1="57.718"
         x2="185"
         y2="57.718"
         id="line358" /><path
         fill="#FFFFFF"
         d="M191.035,57.718c-2.84,1.054-6.363,2.852-8.547,4.755l1.72-4.755l-1.72-4.755    C184.672,54.866,188.195,56.666,191.035,57.718z"
         id="path360" /></g><g
       id="g368"><line
         fill="none"
         stroke="#000000"
         x1="67"
         y1="57.718"
         x2="185"
         y2="57.718"
         id="line364" /><path
         d="M191.035,57.718c-2.84,1.054-6.363,2.852-8.547,4.755l1.72-4.755l-1.72-4.755    C184.672,54.866,188.195,56.666,191.035,57.718z"
         id="path366" /></g></g><text
     transform="translate(324.5918,224.7188)"
     font-size="12"
     id="text380"
     style="font-size:12px;font-family:MyriadPro-Regular" />
<g
     id="g408"><g
       id="g400"><line
         fill="none"
         x1="201"
         y1="229.717"
         x2="445"
         y2="229.717"
         id="line396" /><path
         fill="#FFFFFF"
         d="M451.035,229.717c-2.84,1.055-6.363,2.854-8.547,4.756l1.72-4.756l-1.72-4.754    C444.672,226.866,448.195,228.665,451.035,229.717z"
         id="path398" /></g><g
       id="g406"><line
         fill="none"
         stroke="#000000"
         x1="201"
         y1="229.717"
         x2="445"
         y2="229.717"
         id="line402" /><path
         d="M451.035,229.717c-2.84,1.055-6.363,2.854-8.547,4.756l1.72-4.756l-1.72-4.754    C444.672,226.866,448.195,228.665,451.035,229.717z"
         id="path404" /></g></g><g
     id="g422"><g
       id="g414"><line
         fill="none"
         x1="450"
         y1="154.718"
         x2="207"
         y2="154.718"
         id="line410" /><path
         fill="#FFFFFF"
         d="M200.965,154.718c2.84-1.054,6.363-2.852,8.547-4.755l-1.72,4.755l1.72,4.755    C207.328,157.569,203.805,155.771,200.965,154.718z"
         id="path412" /></g><g
       id="g420"><line
         fill="none"
         stroke="#000000"
         stroke-dasharray="5,3"
         x1="450"
         y1="154.718"
         x2="207"
         y2="154.718"
         id="line416" /><path
         d="M200.965,154.718c2.84-1.054,6.363-2.852,8.547-4.755l-1.72,4.755l1.72,4.755    C207.328,157.569,203.805,155.771,200.965,154.718z"
         id="path418" /></g></g><text
     transform="translate(286.5918,283.7188)"
     font-size="12"
     id="text432"
     style="font-size:12px;font-family:MyriadPro-Regular" />
<text
     transform="translate(337.2422,283.7188)"
     font-size="12"
     id="text450"
     style="font-size:12px;font-family:MyriadPro-Regular" />
<text
     transform="translate(360.9424,283.7188)"
     font-size="12"
     id="text462"
     style="font-size:12px;font-family:MyriadPro-Regular" />
<g
     id="g484"><g
       id="g476"><line
         fill="none"
         x1="448"
         y1="290.717"
         x2="205"
         y2="290.717"
         id="line472" /><path
         fill="#FFFFFF"
         d="M198.965,290.717c2.84-1.053,6.363-2.852,8.547-4.754l-1.72,4.754l1.72,4.756    C205.328,293.568,201.805,291.771,198.965,290.717z"
         id="path474" /></g><g
       id="g482"><line
         fill="none"
         stroke="#000000"
         stroke-dasharray="5,3"
         x1="448"
         y1="290.717"
         x2="205"
         y2="290.717"
         id="line478" /><path
         d="M198.965,290.717c2.84-1.053,6.363-2.852,8.547-4.754l-1.72,4.754l1.72,4.756    C205.328,293.568,201.805,291.771,198.965,290.717z"
         id="path480" /></g></g><path
     id="rect10380_3_"
     fill="#FFFFFF"
     stroke="#000000"
     stroke-linecap="round"
     stroke-linejoin="round"
     d="M59.525,41.718h6.384  c0.05,0,0.091,0.235,0.091,0.525v292.948c0,0.286-0.041,0.524-0.091,0.524h-6.384c-0.051,0-0.092-0.238-0.092-0.524V42.244  C59.434,41.954,59.475,41.718,59.525,41.718z" /><text
     transform="translate(422.998,22.6318)"
     font-size="12"
     id="text487"
     style="font-size:12px;line-height:0%;font-family:MyriadPro-Regular">Webserver</text>
<text
     transform="translate(482.2676,74.335)"
     font-size="12"
     id="text505"
     style="font-size:12px;line-height:0%;font-family:MyriadPro-Regular">PHP Datei lesen</text>
<text
     transform="translate(472.2451,102.335)"
     font-size="12"
     id="text507"
     style="font-size:12px;line-height:0%;font-family:MyriadPro-Regular">PHP starten</text>
<text
     style="font-size:12px;line-height:0%;font-family:MyriadPro-Regular"
     id="text514"
     font-size="12"
     x="282.82141"
     y="225.75452">HTTP Request</text>
<text
     style="font-size:12px;line-height:0%;font-family:MyriadPro-Regular"
     id="text516"
     font-size="12"
     x="247.53572"
     y="284.32593">HTTP Response (inkl. CSS)</text>
<text
     y="193.67722"
     x="131.30501"
     style="font-size:12px;line-height:0%;font-family:MyriadPro-Regular"
     id="text526"
     font-size="12">Parsen</text>
<text
     font-size="12"
     id="text528"
     style="font-size:12px;line-height:0%;font-family:MyriadPro-Regular"
     x="131.30501"
     y="206.22017">und</text>
</svg>